**ABCDEFGHIJKLMNOPQRSTUVWXYZabcdefghijklmnopqrstuvwxyz**************************
**PARASOLID !"#$%&'()*+,-./:;<=>?@[\]^_`{|}~0123456789**************************
**PART1;
MC=unknown;
MC_MODEL=unknown;
MC_ID=unknown;
OS=unknown;
OS_RELEASE=unknown;
FRU=Parasolid 36.0.180;
APPL=Onshape;
SITE=unknown;
USER=unknown;
FORMAT=text;
GUISE=transmit;
KEY=BTGapi::writeModels_.xmt;
FILE=BTGapi::writeModels_.xmt;
DATE=2024-05-15T00:06:35 (UTC);
**PART2;
SCH=SCH_3600180_36001;
USFLD_SIZE=0;
**PART3;
**END_OF_HEADER*****************************************************************
T51 : TRANSMIT FILE created by modeller version 360018023 SCH_3600180_36001_1300
6231 0 12 36 CCCI7 lattice222 0 CCCI4 mesh1006 0 I8 polyline1008 0 CCCCCCCDI5 ow
ner1040 0 CCCI16 boundary_lattice222 0 CCCI13 boundary_mesh1006 0 I17 boundary_p
olyline1008 0 CCCA16 index_map_offset0 0 1 dA9 index_map82 0 A17 node_id_index_m
ap82 0 A20 schema_embedding_map82 0 A5 child12 0 A14 lowest_node_id0 0 1 dA16 me
sh_offset_data206 0 Z1 491 2 3 0 0 0 0 0 0 0 1e3 1e-8 0 4 5 1 0 1 2 6 0 7 8 9 0
 0 10 11 12 0 0 0 0 0 0 0 81 255 1 2 485 13 1 14 0 0 0 15 70 11 CI9 list_type0 0
 1 uI10 notransmit0 0 1 lCCCDCCDI12 finger_index0 0 1 dI12 finger_block1012 0 CZ
3 0 4 T1 0 0 5 20 1 16 16 13 255 6 181 0 1 0 17 0 0 18 0 50 255 7 176 0 19 20 0
 0 +-.5969 .264671068462782 6.73048847537274 -1 732341017918022e-30 -50293298820
8762e-30 732341017918022e-30 1 0 30 255 8 179 0 11 21 0 0 +-.5969 .3161786042149
095 6.69511583033815 0 -.566107244007959 -.824331600923871 29 255 9 158 0 22 23
 0 -3.1115 .307640999341213 6.68268387938171 19 9 CCCCCCI5 frame230 0 CA5 owner1
2 0 Z10 1 0 1 18 0 24 0 V0 16 255 11 163 25 ?26 0 27 8 0 0 1 18 255 12 45 28 29
 0 30 31 ?1 81 1 28 227 32 12 0 0 33 34 35 17 255 29 0 36 37 38 12 39 40 0 41 -1
8 30 51 42 43 12 22 44 ?1 29 31 66 0 12 44 23 -3.1115 .316178604214908 6.6951158
3033814 29 44 64 0 30 45 31 -.5969 .3161786042149095 6.69511583033815 29 23 159
 0 46 31 9 -.5969 .3076409993412145 6.68268387938171 18 46 144 34 47 22 48 23 ?1
 81 1 34 232 32 46 0 0 28 42 49 17 47 0 50 51 52 46 53 54 0 26 -18 22 140 33 55
 30 46 9 ?1 18 48 354 56 57 46 58 45 ?1 81 1 56 355 32 48 0 0 59 60 61 17 57 0 5
0 52 51 48 43 62 0 63 +18 58 348 64 53 48 65 66 ?1 29 45 410 0 48 66 44 -.5969 2
220446049250315e-31 6.91225053443754 29 66 411 0 58 67 45 -.5969 0 6.89395540904
978 29 67 412 0 65 68 66 -3.1115 0 6.91225053443754 18 65 352 59 39 58 69 67 ?1
 29 68 413 0 69 0 67 -3.1115 555111512312578e-31 6.89395540904977 18 69 360 60 7
0 65 0 68 ?1 81 1 60 361 32 69 0 0 56 71 72 17 70 0 36 38 37 69 55 73 0 74 +15 2
55 36 169 0 70 75 0 17 38 0 36 29 70 65 76 77 0 0 -17 37 0 36 70 29 22 78 27 0 7
9 +17 55 0 80 81 74 22 70 73 0 37 -16 73 128 82 ?70 83 54 84 0 0 1 17 74 0 80 55
 53 69 85 86 0 76 -15 80 113 0 81 87 0 17 53 0 80 74 81 58 47 54 0 52 +17 85 0 8
8 89 76 58 74 86 0 0 +16 86 305 90 ?85 91 77 92 0 0 1 17 76 0 88 85 93 69 38 77
 0 0 +15 88 365 0 76 94 0 17 93 0 88 76 89 65 63 95 0 38 -16 77 302 96 ?76 86 0
 97 0 0 1 81 1 96 304 32 77 0 0 98 90 99 30 97 398 0 77 92 100 0 +-3.1115 0 7.32
629228744631 0 0 -1 30 92 399 0 86 101 97 0 +-1.8542 0 6.89395540904978 1 0 0 30
 100 58 0 62 97 102 0 +-.5969 .264671068462782 6.73048847537274 -888405851598131
e-30 -.824331600923871 .56610724400796 16 62 30 103 ?57 40 83 100 0 0 1 30 102 6
2 0 104 100 105 0 +-2.3241 .31617860421491 6.69511583033815 -1 718588033334301e-
31 -493488167470544e-31 16 104 12 106 ?41 27 40 102 0 0 1 30 105 72 0 40 102 107
 0 +-3.1115 4.31010642727111 3.95229792775738 0 -.824331600923871 .5661072440079
59 16 40 21 108 ?39 104 62 105 0 0 1 30 107 156 0 54 105 109 0 +-.5969 .25613346
3589087 6.71805652441631 -888405851598131e-30 -.824331600923871 .56610724400796
 16 54 132 110 ?53 73 95 107 0 0 1 30 109 154 0 83 107 84 0 +-2.3241 .3076409993
41215 6.68268387938171 -1 718588033334301e-31 -493488167470544e-31 16 83 114 111
 ?79 62 73 109 0 0 1 30 84 153 0 73 109 21 0 +-3.1115 4.301568822397415 3.939865
976800945 0 -.824331600923871 .566107244007959 30 21 178 0 27 84 8 0 +-3.1115 .3
16178604214908 6.69511583033814 0 -.566107244007959 -.824331600923871 16 27 162
 112 ?37 11 104 21 0 0 1 81 1 112 234 32 27 0 0 42 25 113 80 7 CCCCCDI12 legal_o
wners0 17 1 lCZ1 32 114 115 9000 0 0 0 0 3 6 0 0 0 FFTFTFTTFFFFFFFFF1 81 1 42 23
3 32 30 0 0 34 112 116 81 1 25 237 32 11 0 0 112 111 117 82 255 3 113 120 124 1
 81 1 111 238 32 83 0 0 25 106 118 82 3 117 120 128 1 81 1 106 239 32 104 0 0 11
1 98 119 82 3 118 120 164 1 81 1 98 246 32 17 0 120 106 96 121 82 3 119 120 165
 1 14 255 17 166 120 ?19 0 122 6 123 +0 0 19 0 24 81 1 120 486 124 17 98 0 0 125
 126 82 3 121 120 78 2 80 1 124 0 127 8001 0 0 0 0 3 5 0 0 0 FFFFTFTFFFFFFFFFF2
 81 1 125 487 124 19 128 0 120 129 130 83 255 3 126 .980392156862745 .7137254901
96078 .00392156862745098 14 19 172 125 ?75 17 50 6 7 -0 0 75 17 24 81 1 128 451
 32 19 0 125 131 0 132 81 1 129 488 124 75 131 0 125 133 134 83 3 130 .980392156
862745 .713725490196078 .00392156862745098 14 75 170 129 ?135 19 36 6 20 +0 0 13
5 19 24 81 1 131 450 32 75 0 129 136 128 137 81 1 133 489 124 135 136 0 129 138
 139 83 3 134 .980392156862745 .713725490196078 .00392156862745098 14 135 4 133
 ?87 75 140 6 141 +0 0 87 75 24 81 1 136 449 32 135 0 133 142 131 143 81 1 138 4
90 124 87 142 0 133 144 145 83 3 139 .980392156862745 .713725490196078 .00392156
862745098 14 87 102 138 ?94 135 80 6 146 -0 0 94 135 24 81 1 142 448 32 87 0 138
 103 136 147 81 1 144 491 124 94 71 0 138 0 148 83 3 145 .980392156862745 .71372
5490196078 .00392156862745098 14 94 362 144 ?0 87 88 6 149 +0 0 0 87 24 81 1 71
 364 32 94 0 144 60 150 151 83 3 148 .980392156862745 .713725490196078 .00392156
862745098 81 1 150 443 32 1 0 152 71 82 153 82 3 151 164 5 2 81 1 152 483 154 1
 150 14 0 0 155 81 1 82 444 32 73 0 0 150 108 156 82 3 153 120 13 3 81 1 108 445
 32 40 0 0 82 110 157 82 3 156 165 0 1 81 1 110 446 32 54 0 0 108 103 158 82 3 1
57 165 1 1 81 1 103 447 32 62 0 0 110 142 159 82 3 158 165 2 1 82 3 159 165 3 1
 80 1 154 160 161 8038 0 0 0 0 0 0 0 0 0 TTTTTTTTTTTTTFTFT10 81 1 14 484 160 1 1
52 2 0 0 162 98 255 8 155 80 97 114 116 32 49 56 52 80 1 160 163 164 8017 0 0 0
 0 0 0 0 0 0 TTTTTTTTTTTTTFTFT3 84 255 8 162 Part 18479 255 13 164 SDL/TYSA_NAME
79 14 161 SDL/TYSA_UNAME50 149 392 0 94 0 141 0 +0 0 0 0 -1 0 0 0 -1 13 24 3 0 0
 0 0 0 0 10 17 50 141 70 0 135 149 146 0 +-.3175 2.183192623235425 5.41294957631
201 0 .56610724400796 .824331600923871 1 0 0 50 146 152 0 87 141 123 0 +-.3175 2
.17465501836173 5.40051762535558 0 .56610724400796 .824331600923871 1 0 0 50 123
 173 0 17 146 20 0 +-2.3241 .31617860421491 6.69511583033815 871722050360489e-31
 .824331600923871 -.566107244007959 0 -.56610724400796 -.824331600923872 50 20 1
75 0 75 123 7 0 +-3.1115 4.31010642727111 3.95229792775738 -1 0 0 0 0 1 82 3 147
 165 0 2 82 3 143 165 1 2 15 140 7 0 41 135 0 17 41 0 140 39 43 12 165 104 0 78
 +17 39 0 140 63 41 65 29 40 0 93 +17 43 0 140 41 63 30 57 62 0 51 -17 165 0 122
 26 78 30 41 104 0 0 -17 78 0 122 165 79 12 37 27 0 0 -15 122 165 0 79 17 0 17 7
9 0 122 78 26 22 81 83 0 0 +17 26 0 122 79 165 46 51 11 0 81 +17 81 0 80 53 55 4
6 79 83 0 0 -17 51 0 50 57 47 30 26 11 0 165 -15 50 171 0 47 19 0 17 63 0 140 43
 39 48 93 95 0 89 +16 95 322 166 ?63 54 91 167 0 0 1 17 89 0 88 93 85 48 52 91 0
 0 -17 52 0 50 47 57 58 89 91 0 85 +16 91 316 168 ?52 95 86 101 0 0 1 81 1 168 3
18 32 91 0 0 90 166 169 30 101 400 0 91 167 92 0 +-.5969 0 7.32629228744631 0 0
 -1 30 167 401 0 95 0 101 0 +-1.8542 0 6.91225053443754 1 0 0 81 1 90 307 32 86
 0 0 96 168 170 81 1 166 324 32 95 0 0 168 64 171 82 3 169 164 7 1 81 1 64 349 3
2 58 0 0 166 59 172 82 3 171 164 11 1 81 1 59 353 32 65 0 0 64 56 173 82 3 172 1
64 5 0 82 3 173 164 3 0 82 3 170 164 9 1 82 3 137 165 2 2 82 3 132 165 3 2 79 15
 127 SDL/TYSA_COLOUR82 3 116 120 113 0 79 9 115 BTI/DetId82 3 99 164 5 1 82 3 72
 164 1 0 82 3 61 164 7 0 81 1 33 226 32 22 0 0 0 28 174 82 3 174 120 104 0 82 3
 49 120 112 0 82 3 35 120 105 0 19 18 182 0 1 0 10 6 0 S0 74 4 CI16 index_map_of
fset0 0 1 dCCZ20 16 5 0 0 128 152 14 2 144 0 0 0 0 0 0 0 0 0 0 0 0 0 0 0 80 1 13
 124 175 8040 0 0 0 0 3 5 0 0 0 TTTFFFFFFFFFFFFFF2 83 3 15 .980392156862745 .713
725490196078 .00392156862745098 79 17 175 SDL/TYSA_COLOUR_21 0 
