**ABCDEFGHIJKLMNOPQRSTUVWXYZabcdefghijklmnopqrstuvwxyz**************************
**PARASOLID !"#$%&'()*+,-./:;<=>?@[\]^_`{|}~0123456789**************************
**PART1;
MC=unknown;
MC_MODEL=unknown;
MC_ID=unknown;
OS=unknown;
OS_RELEASE=unknown;
FRU=Parasolid 36.0.180;
APPL=Onshape;
SITE=unknown;
USER=unknown;
FORMAT=text;
GUISE=transmit;
KEY=BTGapi::writeModels_.xmt;
FILE=BTGapi::writeModels_.xmt;
DATE=2024-05-15T00:06:35 (UTC);
**PART2;
SCH=SCH_3600180_36001;
USFLD_SIZE=0;
**PART3;
**END_OF_HEADER*****************************************************************
T51 : TRANSMIT FILE created by modeller version 360018023 SCH_3600180_36001_1300
6231 0 12 36 CCCI7 lattice222 0 CCCI4 mesh1006 0 I8 polyline1008 0 CCCCCCCDI5 ow
ner1040 0 CCCI16 boundary_lattice222 0 CCCI13 boundary_mesh1006 0 I17 boundary_p
olyline1008 0 CCCA16 index_map_offset0 0 1 dA9 index_map82 0 A17 node_id_index_m
ap82 0 A20 schema_embedding_map82 0 A5 child12 0 A14 lowest_node_id0 0 1 dA16 me
sh_offset_data206 0 Z1 58 2 3 0 0 0 0 0 0 0 1e3 1e-8 0 4 5 1 0 3 2 6 0 7 8 9 0 0
 10 11 12 0 0 0 0 0 0 0 81 255 1 2 57 13 1 14 0 0 0 15 70 11 CI9 list_type0 0 1
 uI10 notransmit0 0 1 lCCCDCCDI12 finger_index0 0 1 dI12 finger_block1012 0 CZ3
 0 4 T1 0 0 5 20 1 16 16 13 255 6 3 0 1 0 17 0 0 10 17 50 255 7 38 0 17 0 0 0 +-
1.24206 -5.44025598653908 3.6576 0 0 -1 -1 0 0 30 255 8 40 0 18 19 0 0 +-1.24206
 -3.048 3.6576 -1 0 0 29 255 9 32 0 20 21 0 -1.97104 -7.83251197307817 3.6576 19
 9 CCCCCCI5 frame230 0 CA5 owner12 0 Z10 1 0 1 0 0 6 0 V0 16 255 11 34 22 ?23 0
 24 19 0 0 1 18 255 12 5 25 26 0 27 28 ?1 81 1 25 47 29 12 0 0 30 31 32 17 255 2
6 0 0 0 0 12 23 11 0 33 -18 27 2 34 35 12 20 36 ?1 29 28 8 0 12 36 21 -1.24206 -
7.83251197307817 3.6576 29 36 4 0 27 0 28 -1.24206 -3.048 3.6576 29 21 33 0 37 2
8 9 -1.97104 -3.048 3.6576 18 37 27 30 38 20 0 21 ?1 81 1 30 46 29 37 0 0 34 25
 39 17 38 0 0 0 0 37 35 18 0 40 +18 20 23 31 23 27 37 9 ?1 81 1 31 48 29 20 0 0
 25 41 42 17 23 0 43 40 33 20 26 11 0 44 +15 255 43 36 0 40 17 0 17 40 0 43 35 2
3 37 44 45 0 0 -17 33 0 43 23 35 12 46 24 0 0 +17 44 0 0 0 0 20 40 45 0 0 +16 45
 19 47 ?44 18 0 48 0 0 1 81 1 47 52 29 45 0 0 49 50 51 16 18 35 41 ?38 24 45 8 0
 0 1 30 48 31 0 45 52 19 0 +-1.97104 -5.44025598653908 3.6576 0 -1 0 30 52 7 0 2
4 0 48 0 +-1.24206 -5.44025598653908 3.6576 0 -1 0 30 19 39 0 11 48 8 0 +-1.2420
6 -7.83251197307817 3.6576 -1 0 0 16 24 6 49 ?33 11 18 52 0 0 1 81 1 49 51 29 24
 0 0 22 47 53 80 7 CCCCCDI12 legal_owners0 17 1 lCZ1 29 54 55 9000 0 0 0 0 3 6 0
 0 0 FFTFTFTTFFFFFFFFF1 81 1 22 50 29 11 0 0 41 49 56 82 255 3 53 57 2 1 81 1 41
 49 29 18 0 0 31 22 57 82 3 56 57 1 1 82 3 57 57 0 1 79 255 9 55 BTI/DetId81 1 5
0 53 29 17 0 58 47 59 60 82 3 51 57 3 1 14 255 17 37 58 ?0 0 43 6 7 +0 0 0 0 6 8
1 1 58 58 61 17 50 0 0 0 62 81 1 59 54 29 1 0 63 50 0 64 82 3 60 57 0 2 81 1 63
 55 65 1 59 14 0 0 66 82 3 64 57 0 3 80 1 65 67 68 8038 0 0 0 0 0 0 0 0 0 TTTTTT
TTTTTTTFTFT10 81 1 14 56 67 1 63 2 0 0 69 98 255 9 66 83 117 114 102 97 99 101 3
2 51 80 1 67 70 71 8017 0 0 0 0 0 0 0 0 0 TTTTTTTTTTTTTFTFT3 84 255 9 69 Surface
 379 13 71 SDL/TYSA_NAME79 14 68 SDL/TYSA_UNAME80 1 61 0 72 8001 0 0 0 0 3 5 0 0
 0 FFFFTFTFFFFFFFFFF2 83 255 3 62 .498039215686275 .498039215686275 .49803921568
6275 79 15 72 SDL/TYSA_COLOUR17 35 0 43 33 40 27 38 18 0 46 -17 46 0 0 0 0 27 33
 24 0 0 -82 3 42 57 3 0 81 1 34 45 29 27 0 0 0 30 73 82 3 39 57 1 0 82 3 73 57 0
 0 82 3 32 57 2 0 74 4 CI16 index_map_offset0 0 1 dCCZ20 16 5 0 0 59 63 14 2 58
 0 0 0 0 0 0 0 0 0 0 0 0 0 0 0 80 1 13 61 74 8040 0 0 0 0 3 5 0 0 0 TTTFFFFFFFFF
FFFFF2 83 3 15 .498039215686275 .498039215686275 .498039215686275 79 17 74 SDL/T
YSA_COLOUR_21 0 
