**ABCDEFGHIJKLMNOPQRSTUVWXYZabcdefghijklmnopqrstuvwxyz**************************
**PARASOLID !"#$%&'()*+,-./:;<=>?@[\]^_`{|}~0123456789**************************
**PART1;
MC=unknown;
MC_MODEL=unknown;
MC_ID=unknown;
OS=unknown;
OS_RELEASE=unknown;
FRU=Parasolid 36.0.180;
APPL=Onshape;
SITE=unknown;
USER=unknown;
FORMAT=text;
GUISE=transmit;
KEY=BTGapi::writeModels_.xmt;
FILE=BTGapi::writeModels_.xmt;
DATE=2024-05-15T00:06:35 (UTC);
**PART2;
SCH=SCH_3600180_36001;
USFLD_SIZE=0;
**PART3;
**END_OF_HEADER*****************************************************************
T51 : TRANSMIT FILE created by modeller version 360018023 SCH_3600180_36001_1300
6231 0 12 36 CCCI7 lattice222 0 CCCI4 mesh1006 0 I8 polyline1008 0 CCCCCCCDI5 ow
ner1040 0 CCCI16 boundary_lattice222 0 CCCI13 boundary_mesh1006 0 I17 boundary_p
olyline1008 0 CCCA16 index_map_offset0 0 1 dA9 index_map82 0 A17 node_id_index_m
ap82 0 A20 schema_embedding_map82 0 A5 child12 0 A14 lowest_node_id0 0 1 dA16 me
sh_offset_data206 0 Z1 538 2 3 0 0 0 0 0 0 0 1e3 1e-8 0 4 5 1 0 1 2 6 0 7 8 9 0
 0 10 11 12 0 0 0 0 0 0 0 81 255 1 2 532 13 1 14 0 0 0 15 70 11 CI9 list_type0 0
 1 uI10 notransmit0 0 1 lCCCDCCDI12 finger_index0 0 1 dI12 finger_block1012 0 CZ
3 0 4 T1 0 0 5 20 1 16 16 13 255 6 461 0 1 0 17 0 0 18 0 50 255 7 456 0 17 19 0
 0 +.9017 .818691148138101 6.3500168543909 -1 150129908673195e-30 -1031012625827
964e-31 150129908673195e-30 1 0 30 255 8 460 0 11 20 0 0 +.9017 1.32120369206129
4 6.00491787844364 0 -.566107244007959 -.824331600923871 29 255 9 437 0 21 22 0
 .9017 .307640999341214 6.68268387938171 19 9 CCCCCCI5 frame230 0 CA5 owner12 0
 Z10 366 0 1 18 0 23 0 V0 16 255 11 444 24 ?25 0 26 8 0 0 1 18 255 12 250 27 28
 0 29 30 ?1 81 1 27 506 31 12 0 0 32 33 34 17 255 28 0 35 36 37 12 38 39 0 40 -1
8 29 245 41 38 12 42 43 ?1 29 30 252 0 12 43 44 .9017 .316178604214909 6.6951158
3033815 29 43 247 0 29 45 30 2.4765 .316178604214909 6.69511583033815 29 44 440
 0 46 30 47 .9017 1.3126660871876 5.99248592748721 18 46 428 48 49 50 0 44 ?1 29
 47 439 0 50 44 22 2.4765 1.3126660871876 5.99248592748721 18 50 424 51 52 53 46
 47 ?1 29 22 438 0 53 47 9 2.4765 .307640999341214 6.68268387938171 18 53 420 33
 54 21 50 22 ?1 81 1 33 507 31 53 0 0 27 41 55 17 54 0 35 37 36 53 56 57 0 58 +1
8 21 416 32 56 59 53 9 ?1 81 1 32 505 31 21 0 0 60 27 61 17 56 0 62 63 64 21 54
 57 0 36 -18 59 235 65 66 42 21 67 ?1 81 1 65 510 31 59 0 0 48 68 69 17 66 0 70
 40 71 59 72 73 0 74 -18 42 240 60 71 29 59 45 ?1 29 67 237 0 59 0 45 .9017 1.32
1203692061294 6.00491787844364 29 45 242 0 42 67 43 2.4765 1.321203692061294 6.0
0491787844364 81 1 60 504 31 42 0 0 51 32 75 17 71 0 70 66 38 42 76 77 0 78 -15
 255 70 14 0 40 79 0 17 38 0 70 71 40 29 28 39 0 37 +17 76 0 80 58 78 29 71 77 0
 0 +16 77 84 81 ?76 39 73 82 0 0 1 17 78 0 80 76 52 42 83 26 0 72 -15 80 447 0 5
2 84 0 17 52 0 80 78 58 50 64 85 0 83 -17 83 0 86 49 72 50 78 26 0 87 +16 26 443
 68 ?83 11 88 20 0 0 1 17 72 0 86 83 74 42 66 73 0 0 +15 86 449 0 49 89 0 17 74
 0 86 72 49 59 25 11 0 90 -16 73 79 91 ?72 77 92 93 0 0 1 81 1 91 516 31 73 0 0
 94 95 96 16 92 74 97 ?40 73 57 98 0 0 1 30 93 81 0 73 98 82 0 +1.6891 1.3212036
92061294 6.00491787844364 1 0 0 30 98 76 0 92 0 93 0 +.9017 .818691148138101 6.3
500168543909 -182123199577617e-30 -.824331600923871 .56610724400796 30 82 86 0 7
7 93 99 0 +2.4765 .818691148138101 6.3500168543909 -3642463991552345e-31 -.82433
1600923871 .56610724400796 30 99 91 0 39 82 100 0 +1.6891 .316178604214909 6.695
11583033815 1 0 0 16 39 89 101 ?38 102 77 99 0 0 1 30 100 436 0 103 99 104 0 +.9
017 .810153543264406 6.33758490343446 -182123199577617e-30 -.824331600923871 .56
610724400796 16 103 412 105 ?106 107 0 100 0 0 1 30 104 435 0 107 100 108 0 +1.6
891 1.3126660871876 5.99248592748721 1 0 0 16 107 408 94 ?87 85 103 104 0 0 1 30
 108 434 0 85 104 109 0 +2.4765 .810153543264406 6.33758490343446 -3642463991552
345e-31 -.824331600923871 .56610724400796 16 85 404 110 ?64 57 107 108 0 0 1 30
 109 433 0 57 108 111 0 +1.6891 .307640999341214 6.68268387938171 1 0 0 16 57 40
0 95 ?54 92 85 109 0 0 1 30 111 457 0 102 109 112 0 +.9017 .316178604214909 6.69
511583033815 0 -.566107244007959 -.824331600923871 16 102 441 113 ?36 88 39 111
 0 0 1 30 112 458 0 88 111 20 0 +2.4765 .316178604214909 6.69511583033815 0 -.56
6107244007959 -.824331600923871 16 88 442 114 ?58 26 102 112 0 0 1 30 20 459 0 2
6 112 8 0 +2.4765 1.321203692061294 6.00491787844364 0 -.566107244007959 -.82433
1600923871 81 1 114 513 31 88 0 0 113 24 115 17 58 0 80 52 76 53 37 88 0 64 +17
 37 0 35 28 54 29 58 88 0 76 -17 64 0 62 56 87 53 52 85 0 0 +15 62 399 0 63 116
 0 17 87 0 62 64 63 50 49 107 0 0 +17 63 0 62 87 56 46 106 103 0 0 -17 49 0 86 7
4 83 46 87 107 0 25 -17 25 0 117 106 90 46 74 11 0 63 +15 117 451 0 106 17 0 17
 106 0 117 118 25 21 63 103 0 0 +17 90 0 117 25 118 59 40 92 0 0 -17 118 0 117 9
0 106 12 36 102 0 0 -17 40 0 70 38 66 12 90 92 0 118 +17 36 0 35 54 28 21 118 10
2 0 106 +15 35 445 0 54 119 0 14 255 119 446 120 ?79 84 35 6 121 +0 0 79 84 23 8
1 1 120 536 122 119 123 0 124 125 126 14 79 11 125 ?116 119 70 6 127 +0 0 116 11
9 23 14 84 448 124 ?119 89 80 6 128 -0 0 119 89 23 50 121 453 0 119 129 128 0 +1
.6891 .316178604214909 6.69511583033815 0 -.824331600923871 .566107244007959 0 .
56610724400796 .824331600923872 13 23 373 0 0 0 0 0 0 10 17 14 17 452 130 ?89 0
 117 6 7 +0 0 89 0 23 81 1 130 533 122 17 131 0 0 132 133 14 89 450 132 ?84 17 8
6 6 19 -0 0 84 17 23 81 1 132 534 122 89 134 0 130 124 135 50 19 455 0 89 128 7
 0 +1.6891 1.321203692061294 6.00491787844364 0 -.824331600923871 .5661072440079
59 0 .56610724400796 .824331600923872 50 128 454 0 84 121 19 0 +2.4765 .81869114
8138101 6.3500168543909 -1 30025981734639e-29 -206202525165593e-30 3002598173463
9e-29 1 0 80 7 CCCCCDI12 legal_owners0 17 1 lCZ1 122 0 136 8001 0 0 0 0 3 5 0 0
 0 FFFFTFTFFFFFFFFFF2 81 1 134 523 31 89 0 132 81 137 138 81 1 124 535 122 84 13
9 0 132 120 140 83 255 3 135 .231372549019608 .380392156862745 .705882352941177
 81 1 139 528 31 84 0 124 131 141 142 83 3 140 .231372549019608 .380392156862745
 .705882352941177 80 1 31 143 144 9000 0 0 0 0 3 6 0 0 0 FFTFTFTTFFFFFFFFF1 81 1
 131 527 31 17 0 130 123 139 145 81 1 141 529 31 1 0 146 139 0 147 82 255 3 142
 120 35 2 81 1 146 530 148 1 141 14 0 0 149 82 3 147 120 5 3 80 1 148 150 151 80
38 0 0 0 0 0 0 0 0 0 TTTTTTTTTTTTTFTFT10 81 1 14 531 150 1 146 2 0 0 152 98 255
 8 149 80 97 114 116 32 49 55 54 80 1 150 153 154 8017 0 0 0 0 0 0 0 0 0 TTTTTTT
TTTTTTFTFT3 84 255 8 152 Part 17679 255 13 154 SDL/TYSA_NAME79 14 151 SDL/TYSA_U
NAME81 1 123 526 31 119 0 120 155 131 156 82 3 145 120 34 2 81 1 155 525 31 79 0
 125 137 123 157 82 3 156 120 33 2 81 1 125 537 122 79 155 0 120 158 159 81 1 13
7 524 31 116 0 158 134 155 160 82 3 157 120 27 2 14 116 392 158 ?0 79 62 6 129 -
0 0 0 79 23 81 1 158 538 122 116 137 0 125 0 161 82 3 160 120 26 2 83 3 161 .231
372549019608 .380392156862745 .705882352941177 50 129 432 0 116 127 121 0 +-.317
5 2.17465501836173 5.40051762535558 0 .56610724400796 .824331600923871 1 0 0 50
 127 3 0 79 0 129 0 +-.3175 2.183192623235425 5.41294957631201 0 .56610724400796
 .824331600923871 1 0 0 83 3 159 .231372549019608 .380392156862745 .705882352941
177 79 9 144 BTI/DetId81 1 81 522 31 77 0 0 110 134 162 82 3 138 120 25 2 81 1 1
10 521 31 85 0 0 97 81 163 82 3 162 120 75 1 81 1 97 520 31 92 0 0 105 110 164 8
2 3 163 120 74 1 81 1 105 519 31 103 0 0 101 97 165 82 3 164 120 73 1 81 1 101 5
18 31 39 0 0 95 105 166 82 3 165 120 72 1 81 1 95 517 31 57 0 0 91 101 167 82 3
 166 120 71 1 82 3 167 120 70 1 79 15 136 SDL/TYSA_COLOUR83 3 133 .2313725490196
08 .380392156862745 .705882352941177 83 3 126 .231372549019608 .380392156862745
 .705882352941177 81 1 113 512 31 102 0 0 68 114 168 81 1 24 514 31 11 0 0 114 9
4 169 82 3 115 120 22 1 81 1 94 515 31 107 0 0 24 91 170 82 3 169 120 23 1 82 3
 170 120 58 1 81 1 68 511 31 26 0 0 65 113 171 82 3 168 120 21 1 82 3 171 120 16
 1 82 3 96 120 59 1 81 1 51 503 31 50 0 0 0 60 172 82 3 75 120 33 0 82 3 172 120
 32 0 81 1 48 509 31 46 0 0 41 65 173 82 3 69 120 47 0 81 1 41 508 31 29 0 0 33
 48 174 82 3 173 120 46 0 82 3 174 120 45 0 82 3 61 120 42 0 82 3 55 120 44 0 82
 3 34 120 43 0 19 18 462 0 1 0 10 6 0 S0 74 4 CI16 index_map_offset0 0 1 dCCZ20
 16 5 0 0 141 146 14 2 158 0 0 0 0 0 0 0 0 0 0 0 0 0 0 0 80 1 13 122 175 8040 0
 0 0 0 3 5 0 0 0 TTTFFFFFFFFFFFFFF2 83 3 15 .231372549019608 .380392156862745 .7
05882352941177 79 17 175 SDL/TYSA_COLOUR_21 0 
