**ABCDEFGHIJKLMNOPQRSTUVWXYZabcdefghijklmnopqrstuvwxyz**************************
**PARASOLID !"#$%&'()*+,-./:;<=>?@[\]^_`{|}~0123456789**************************
**PART1;
MC=unknown;
MC_MODEL=unknown;
MC_ID=unknown;
OS=unknown;
OS_RELEASE=unknown;
FRU=Parasolid 36.0.180;
APPL=Onshape;
SITE=unknown;
USER=unknown;
FORMAT=text;
GUISE=transmit;
KEY=BTGapi::writeModels_.xmt;
FILE=BTGapi::writeModels_.xmt;
DATE=2024-05-15T00:06:35 (UTC);
**PART2;
SCH=SCH_3600180_36001;
USFLD_SIZE=0;
**PART3;
**END_OF_HEADER*****************************************************************
T51 : TRANSMIT FILE created by modeller version 360018023 SCH_3600180_36001_1300
6231 0 12 36 CCCI7 lattice222 0 CCCI4 mesh1006 0 I8 polyline1008 0 CCCCCCCDI5 ow
ner1040 0 CCCI16 boundary_lattice222 0 CCCI13 boundary_mesh1006 0 I17 boundary_p
olyline1008 0 CCCA16 index_map_offset0 0 1 dA9 index_map82 0 A17 node_id_index_m
ap82 0 A20 schema_embedding_map82 0 A5 child12 0 A14 lowest_node_id0 0 1 dA16 me
sh_offset_data206 0 Z1 971 2 3 0 0 0 0 0 0 0 1e3 1e-8 0 4 5 1 0 1 2 6 0 7 8 9 0
 0 10 11 12 0 0 0 0 0 0 0 81 255 1 2 945 13 1 14 0 0 0 15 70 11 CI9 list_type0 0
 1 uI10 notransmit0 0 1 lCCCDCCDI12 finger_index0 0 1 dI12 finger_block1012 0 CZ
3 0 4 T1 0 0 6 20 1 16 16 13 255 6 721 0 1 0 17 0 0 18 0 67 255 7 696 0 19 20 0
 0 +21 -1 0 0 ?30 255 8 720 0 22 23 0 0 +5.0466220607938 .38406129821559 .203746
8895520885 -1 0 0 29 255 9 577 0 24 25 0 4.9958220607938 .41573500095683 .179784
0133208885 19 9 CCCCCCI5 frame230 0 CA5 owner12 0 Z10 1 0 1 18 0 26 0 V0 16 255
 11 616 27 ?28 0 29 30 0 0 1 18 255 12 105 31 32 0 33 34 ?1 81 1 31 797 35 12 0
 0 36 37 38 17 255 32 0 39 40 41 12 42 43 0 44 -18 33 108 45 46 12 47 48 ?1 29 3
4 224 0 12 48 49 5.0466220607938 .41573500095683 .1797840133208885 29 48 223 0 3
3 50 34 5.0466220607938 .4239203398674875 .125333715349993 29 49 600 0 51 34 52
 4.9958220607938 .38406129821559 .2037468895520885 18 51 548 53 54 55 0 49 ?1 29
 52 599 0 55 49 56 4.9958220607938 .4124134141525055 .314426906996196 18 55 544
 57 58 59 51 52 ?1 29 56 598 0 59 52 60 4.9958220607938 .4124134141525055 .32735
73699130315 18 59 540 61 62 63 55 56 ?1 29 60 597 0 63 56 64 4.9958220607938 .38
3705413915127 .450611965973511 18 63 536 65 66 67 59 60 ?1 29 64 596 0 67 60 68
 4.9958220607938 .2920058924957325 .487505305121547 18 67 532 69 70 71 63 64 ?1
 29 68 595 0 71 64 72 4.9958220607938 .2090848504877675 .4454516436167925 18 71
 528 73 74 75 67 68 ?1 29 72 594 0 75 68 76 4.9958220607938 .1803768502503895 .3
26645601312105 18 75 524 77 78 79 71 72 ?1 29 76 593 0 79 72 80 4.9958220607938
 .208906908337536 .209144468109116 18 79 520 81 82 83 75 76 ?1 29 80 592 0 83 76
 84 4.9958220607938 .292717661096659 .1694633686074505 18 83 516 85 28 86 79 80
 ?1 29 84 591 0 86 80 87 4.9958220607938 .4124134141525055 .1797840133208885 18
 86 512 37 88 89 83 84 ?1 29 87 590 0 89 84 90 4.9958220607938 .284888206486465
 .1178601450402622 18 89 508 91 92 93 86 87 ?1 29 90 589 0 93 87 94 4.9958220607
938 .160862527774981 .172369757061235 18 93 504 95 96 97 89 90 ?1 29 94 588 0 97
 90 98 4.9958220607938 .116554932367292 .3273573699130315 18 97 500 99 100 101 9
3 94 ?1 29 98 587 0 101 94 102 4.9958220607938 .161040469925213 .483471949716296
 18 101 496 103 104 105 97 98 ?1 29 102 586 0 105 98 106 4.9958220607938 .284888
206486465 .539108528688736 18 105 492 107 108 109 101 102 ?1 29 106 585 0 109 10
2 110 4.9958220607938 .4117016455515785 .478964081910426 18 109 488 111 112 113
 105 106 ?1 29 110 584 0 113 106 114 4.9958220607938 .4165653976579115 .47896408
1910426 18 113 484 115 116 117 109 110 ?1 29 114 583 0 117 110 118 4.99582206079
38 .413955579454513 .508265222648577 18 117 480 119 120 121 113 114 ?1 29 118 58
2 0 121 114 122 4.9958220607938 .4124134141525055 .536854594785801 18 121 476 12
3 124 125 117 118 ?1 29 122 581 0 125 118 126 4.9958220607938 .4124134141525055
 .702222166401113 18 125 472 127 128 129 121 122 ?1 29 126 580 0 129 122 130 4.9
958220607938 .473981398132668 .702222166401113 18 129 468 131 132 133 125 126 ?1
 29 130 579 0 133 126 25 4.9958220607938 .473981398132668 .125333715349993 18 13
3 464 134 135 136 129 130 ?1 29 25 578 0 136 130 9 4.9958220607938 .423920339867
4875 .125333715349993 18 136 460 137 138 24 133 25 ?1 81 1 137 824 35 136 0 0 13
9 45 140 17 138 0 141 142 143 136 46 144 0 145 +18 24 456 36 42 146 136 9 ?1 81
 1 36 796 35 24 0 0 0 31 147 17 42 0 148 145 44 24 32 43 0 149 +18 146 174 150 1
51 152 24 153 ?1 81 1 150 829 35 146 0 0 53 57 154 17 151 0 155 156 157 146 54 2
2 0 158 -18 152 171 159 160 161 146 162 ?1 29 153 201 0 146 0 162 5.046622060793
8 .38406129821559 .2037468895520885 29 162 202 0 152 153 163 5.0466220607938 .41
24134141525055 .314426906996196 29 163 203 0 161 162 164 5.0466220607938 .412413
4141525055 .3273573699130315 18 161 168 165 166 167 152 163 ?1 29 164 204 0 167
 163 168 5.0466220607938 .383705413915127 .450611965973511 18 167 165 169 170 17
1 161 164 ?1 29 168 205 0 171 164 172 5.0466220607938 .2920058924957325 .4875053
05121547 18 171 162 173 174 175 167 168 ?1 29 172 206 0 175 168 176 5.0466220607
938 .2090848504877675 .4454516436167925 18 175 159 177 178 179 171 172 ?1 29 176
 207 0 179 172 180 5.0466220607938 .1803768502503895 .326645601312105 18 179 156
 181 182 183 175 176 ?1 29 180 208 0 183 176 184 5.0466220607938 .20890690833753
6 .209144468109116 18 183 153 185 186 187 179 180 ?1 29 184 209 0 187 180 188 5.
0466220607938 .292717661096659 .1694633686074505 18 187 150 189 190 191 183 184
 ?1 29 188 210 0 191 184 192 5.0466220607938 .4124134141525055 .1797840133208885
 18 191 147 193 194 195 187 188 ?1 29 192 211 0 195 188 196 5.0466220607938 .284
888206486465 .1178601450402622 18 195 144 197 198 199 191 192 ?1 29 196 212 0 19
9 192 200 5.0466220607938 .160862527774981 .172369757061235 18 199 141 201 202 2
03 195 196 ?1 29 200 213 0 203 196 204 5.0466220607938 .116554932367292 .3273573
699130315 18 203 138 205 206 207 199 200 ?1 29 204 214 0 207 200 208 5.046622060
7938 .161040469925213 .483471949716296 18 207 135 209 210 211 203 204 ?1 29 208
 215 0 211 204 212 5.0466220607938 .284888206486465 .539108528688736 18 211 132
 213 214 215 207 208 ?1 29 212 216 0 215 208 216 5.0466220607938 .41170164555157
85 .478964081910426 18 215 129 217 218 219 211 212 ?1 29 216 217 0 219 212 220 5
.0466220607938 .4165653976579115 .478964081910426 18 219 126 221 222 223 215 216
 ?1 29 220 218 0 223 216 224 5.0466220607938 .413955579454513 .508265222648577 1
8 223 123 225 226 227 219 220 ?1 29 224 219 0 227 220 228 5.0466220607938 .41241
34141525055 .536854594785801 18 227 120 229 230 231 223 224 ?1 29 228 220 0 231
 224 232 5.0466220607938 .4124134141525055 .702222166401113 18 231 117 233 234 2
35 227 228 ?1 29 232 221 0 235 228 50 5.0466220607938 .473981398132668 .70222216
6401113 18 235 114 236 237 47 231 232 ?1 29 50 222 0 47 232 48 5.0466220607938 .
473981398132668 .125333715349993 18 47 111 139 238 33 235 50 ?1 81 1 139 823 35
 47 0 0 134 137 239 17 238 0 141 143 142 47 135 240 0 241 -15 255 141 629 0 142
 242 0 17 143 0 141 138 238 33 241 243 0 0 +17 142 0 141 238 138 133 244 245 0 2
46 -17 135 0 247 248 249 133 238 240 0 142 +16 240 603 250 ?135 144 251 252 0 0
 1 17 241 0 253 254 255 47 143 243 0 249 -15 253 7 0 256 257 258 17 254 0 253 25
9 241 235 249 260 0 261 -17 255 0 253 241 256 33 44 262 0 143 -16 243 17 263 ?14
3 262 260 264 0 0 1 17 249 0 247 135 237 47 254 260 0 0 +15 247 631 0 248 265 0
 17 237 0 247 249 248 235 132 251 0 254 -16 260 21 266 ?249 243 267 268 0 0 1 81
 1 266 893 35 260 269 0 270 271 272 16 267 25 273 ?261 260 274 275 0 0 1 30 268
 197 0 260 275 264 0 +5.0466220607938 .473981398132668 .413777940875553 0 0 -1 3
0 275 196 0 267 276 268 0 +5.0466220607938 .4431974061425865 .702222166401113 0
 1 0 30 264 198 0 243 268 277 0 +5.0466220607938 .448950869000078 .1253337153499
93 0 -1 0 30 277 199 0 262 264 278 0 +5.0466220607938 .419827670412159 .15255886
43354405 0 -.148656500420891 .988888894104193 16 262 13 279 ?44 280 243 277 0 0
 1 30 278 200 0 280 277 281 0 +5.0466220607938 .414074207554668 .179784013320888
5 0 -1 0 16 280 9 282 ?40 283 262 278 0 0 1 134 255 281 576 0 284 278 285 0 +286
 287 16 284 451 288 ?289 290 0 281 0 0 1 30 285 575 0 290 281 291 0 +4.995822060
7938 .4124134141525055 .320892138454614 0 0 1 136 255 286 2 3 3 2 5 FFF2 292 293
 294 135 255 287 2 0 45 255 9 292 4.9958220607938 .38406129821559 .2037468895520
885 4.9958220607938 .4124134141525055 .238030410496726 4.9958220607938 .41241341
41525055 .314426906996196 127 255 4 293 3 3 0 0 128 255 4 294 0 1 ??16 290 446 2
95 ?296 297 284 285 0 0 1 134 291 574 0 297 285 298 0 +299 300 16 297 441 301 ?3
02 303 290 291 0 0 1 134 298 573 0 303 291 304 0 +305 306 136 299 2 3 3 2 5 FFF2
 307 308 309 135 300 2 0 45 9 307 4.9958220607938 .4124134141525055 .32735736991
30315 4.9958220607938 .4124134141525055 .4137186268254755 4.9958220607938 .38370
5413915127 .450611965973511 127 4 308 3 3 0 0 128 4 309 0 1 ??16 303 436 310 ?31
1 312 297 298 0 0 1 134 304 572 0 312 298 313 0 +314 315 136 305 2 3 3 2 5 FFF2
 316 317 318 135 306 2 0 45 9 316 4.9958220607938 .383705413915127 .450611965973
511 4.9958220607938 .3549974136777485 .487505305121547 4.9958220607938 .29200589
24957325 .487505305121547 127 4 317 3 3 0 0 128 4 318 0 1 ??16 312 431 319 ?320
 321 303 304 0 0 1 134 313 571 0 321 304 322 0 +323 324 136 314 2 3 3 2 5 FFF2 3
25 326 327 135 315 2 0 45 9 325 4.9958220607938 .2920058924957325 .4875053051215
47 4.9958220607938 .237792850725146 .487505305121547 4.9958220607938 .2090848504
877675 .4454516436167925 127 4 326 3 3 0 0 128 4 327 0 1 ??16 321 426 328 ?329 3
30 312 313 0 0 1 134 322 570 0 330 313 331 0 +332 333 136 323 2 3 3 2 5 FFF2 334
 335 336 135 324 2 0 45 9 334 4.9958220607938 .2090848504877675 .445451643616792
5 4.9958220607938 .1803768502503895 .403397982112038 4.9958220607938 .1803768502
503895 .326645601312105 127 4 335 3 3 0 0 128 4 336 0 1 ??16 330 421 337 ?338 33
9 321 322 0 0 1 134 331 569 0 339 322 340 0 +341 342 136 332 2 3 3 2 5 FFF2 343
 344 345 135 333 2 0 45 9 343 4.9958220607938 .1803768502503895 .326645601312105
 4.9958220607938 .1803768502503895 .2488255676107815 4.9958220607938 .2089069083
37536 .209144468109116 127 4 344 3 3 0 0 128 4 345 0 1 ??16 339 416 346 ?347 348
 330 331 0 0 1 134 340 568 0 348 331 349 0 +350 351 136 341 2 3 3 2 5 FFF2 352 3
53 354 135 342 2 0 45 9 352 4.9958220607938 .208906908337536 .209144468109116 4.
9958220607938 .2374369664246825 .1694633686074505 4.9958220607938 .2927176610966
59 .1694633686074505 127 4 353 3 3 0 0 128 4 354 0 1 ??16 348 411 355 ?356 357 3
39 340 0 0 1 134 349 567 0 357 340 358 0 +359 360 136 350 2 3 3 2 5 FFF2 361 362
 363 135 351 2 0 45 9 361 4.9958220607938 .292717661096659 .1694633686074505 4.9
958220607938 .3557091822786755 .1694633686074505 4.9958220607938 .38406129821559
 .2037468895520885 127 4 362 3 3 0 0 128 4 363 0 1 ??16 357 406 364 ?365 366 348
 349 0 0 1 134 358 566 0 366 349 367 0 +368 369 136 359 2 3 3 2 5 FFF2 370 371 3
72 135 360 2 0 45 9 370 4.9958220607938 .4124134141525055 .1797840133208885 4.99
58220607938 .3698259261970555 .1178601450402622 4.9958220607938 .284888206486465
 .1178601450402622 127 4 371 3 3 0 0 128 4 372 0 1 ??16 366 401 373 ?374 375 357
 358 0 0 1 134 367 565 0 375 358 376 0 +377 378 136 368 2 3 3 2 5 FFF2 379 380 3
81 135 369 2 0 45 9 379 4.9958220607938 .284888206486465 .1178601450402622 4.995
8220607938 .2051701231826705 .1178601450402622 4.9958220607938 .160862527774981
 .172369757061235 127 4 380 3 3 0 0 128 4 381 0 1 ??16 375 396 382 ?383 384 366
 367 0 0 1 134 376 564 0 384 367 385 0 +386 387 136 377 2 3 3 2 5 FFF2 388 389 3
90 135 378 2 0 45 9 388 4.9958220607938 .160862527774981 .172369757061235 4.9958
220607938 .116554932367292 .2268793690822075 4.9958220607938 .116554932367292 .3
273573699130315 127 4 389 3 3 0 0 128 4 390 0 1 ??16 384 391 391 ?392 393 375 37
6 0 0 1 134 385 563 0 393 376 394 0 +395 396 136 386 2 3 3 2 5 FFF2 397 398 399
 135 387 2 0 45 9 397 4.9958220607938 .116554932367292 .3273573699130315 4.99582
20607938 .116554932367292 .427835370743856 4.9958220607938 .161040469925213 .483
471949716296 127 4 398 3 3 0 0 128 4 399 0 1 ??16 393 386 400 ?401 402 384 385 0
 0 1 134 394 562 0 402 385 403 0 +404 405 136 395 2 3 3 2 5 FFF2 406 407 408 135
 396 2 0 45 9 406 4.9958220607938 .161040469925213 .483471949716296 4.9958220607
938 .205526007483134 .539108528688736 4.9958220607938 .284888206486465 .53910852
8688736 127 4 407 3 3 0 0 128 4 408 0 1 ??16 402 381 409 ?410 411 393 394 0 0 1
 30 403 561 0 411 394 412 0 +4.9958220607938 .414133521604745 .478964081910426 0
 1 0 136 404 2 3 3 2 5 FFF2 413 414 415 135 405 2 0 45 9 413 4.9958220607938 .28
4888206486465 .539108528688736 4.9958220607938 .367571992294121 .539108528688736
 4.9958220607938 .4117016455515785 .478964081910426 127 4 414 3 3 0 0 128 4 415
 0 1 ??16 411 376 416 ?417 418 402 403 0 0 1 30 412 560 0 418 403 419 0 +4.99582
20607938 .4152604885562125 .493614652279502 0 -.0887176113534427 .99605681837721
5 16 418 371 420 ?421 422 411 412 0 0 1 30 419 559 0 422 412 423 0 +4.9958220607
938 .413184496803509 .522559908717189 0 -.053863601380223 .998548302510376 16 42
2 366 424 ?425 426 418 419 0 0 1 30 423 558 0 426 419 427 0 +4.9958220607938 .41
24134141525055 .619538380593457 0 0 1 16 426 361 428 ?429 430 422 423 0 0 1 30 4
27 557 0 430 423 431 0 +4.9958220607938 .4431974061425865 .702222166401113 0 1 0
 16 430 356 432 ?433 434 426 427 0 0 1 30 431 556 0 434 427 435 0 +4.99582206079
38 .473981398132668 .413777940875553 0 0 -1 16 434 351 270 ?246 245 430 431 0 0
 1 30 435 555 0 245 431 436 0 +4.9958220607938 .448950869000078 .125333715349993
 0 -1 0 16 245 346 271 ?244 437 434 435 0 0 1 30 436 554 0 437 435 438 0 +4.9958
220607938 .419827670412159 .1525588643354405 0 -.148656500420891 .98888889410419
3 16 437 341 439 ?149 440 245 436 0 0 1 30 438 553 0 440 436 441 0 +4.9958220607
938 .414074207554668 .1797840133208885 0 -1 0 16 440 336 442 ?443 444 437 438 0
 0 1 30 441 697 0 43 438 445 0 +5.0466220607938 .41573500095683 .179784013320888
5 -1 0 0 16 43 601 446 ?42 22 144 441 0 0 1 30 445 698 0 144 441 252 0 +5.046622
0607938 .4239203398674875 .125333715349993 -1 0 0 16 144 602 447 ?138 43 240 445
 0 0 1 30 252 699 0 240 445 448 0 +5.0466220607938 .473981398132668 .12533371534
9993 -1 0 0 30 448 700 0 251 252 449 0 +5.0466220607938 .473981398132668 .702222
166401113 -1 0 0 16 251 604 450 ?132 240 451 448 0 0 1 30 449 701 0 451 448 452
 0 +5.0466220607938 .4124134141525055 .702222166401113 -1 0 0 16 451 605 453 ?12
8 251 454 449 0 0 1 30 452 702 0 454 449 455 0 +5.0466220607938 .412413414152505
5 .536854594785801 -1 0 0 16 454 606 456 ?124 451 457 452 0 0 1 30 455 703 0 457
 452 458 0 +5.0466220607938 .413955579454513 .508265222648577 -1 0 0 16 457 607
 459 ?120 454 460 455 0 0 1 30 458 704 0 460 455 461 0 +5.0466220607938 .4165653
976579115 .478964081910426 -1 0 0 16 460 608 462 ?116 457 463 458 0 0 1 30 461 7
05 0 463 458 464 0 +5.0466220607938 .4117016455515785 .478964081910426 -1 0 0 16
 463 609 465 ?112 460 466 461 0 0 1 30 464 706 0 466 461 467 0 +5.0466220607938
 .284888206486465 .539108528688736 -1 0 0 16 466 610 468 ?108 463 469 464 0 0 1
 30 467 707 0 469 464 470 0 +5.0466220607938 .161040469925213 .483471949716296 -
1 0 0 16 469 611 471 ?104 466 472 467 0 0 1 30 470 708 0 472 467 473 0 +5.046622
0607938 .116554932367292 .3273573699130315 -1 0 0 16 472 612 474 ?100 469 475 47
0 0 0 1 30 473 709 0 475 470 476 0 +5.0466220607938 .160862527774981 .1723697570
61235 -1 0 0 16 475 613 477 ?96 472 478 473 0 0 1 30 476 710 0 478 473 479 0 +5.
0466220607938 .284888206486465 .1178601450402622 -1 0 0 16 478 614 480 ?92 475 2
83 476 0 0 1 30 479 711 0 283 476 30 0 +5.0466220607938 .4124134141525055 .17978
40133208885 -1 0 0 16 283 615 481 ?88 478 280 479 0 0 1 30 30 712 0 11 479 482 0
 +5.0466220607938 .292717661096659 .1694633686074505 -1 0 0 30 482 713 0 29 30 4
83 0 +5.0466220607938 .208906908337536 .209144468109116 -1 0 0 16 29 617 484 ?82
 11 485 482 0 0 1 30 483 714 0 485 482 486 0 +5.0466220607938 .1803768502503895
 .326645601312105 -1 0 0 16 485 618 487 ?78 29 488 483 0 0 1 30 486 715 0 488 48
3 489 0 +5.0466220607938 .2090848504877675 .4454516436167925 -1 0 0 16 488 619 4
90 ?74 485 491 486 0 0 1 30 489 716 0 491 486 492 0 +5.0466220607938 .2920058924
957325 .487505305121547 -1 0 0 16 491 620 493 ?70 488 494 489 0 0 1 30 492 717 0
 494 489 495 0 +5.0466220607938 .383705413915127 .450611965973511 -1 0 0 16 494
 621 496 ?66 491 497 492 0 0 1 30 495 718 0 497 492 23 0 +5.0466220607938 .41241
34141525055 .3273573699130315 -1 0 0 16 497 622 498 ?62 494 499 495 0 0 1 30 23
 719 0 499 495 8 0 +5.0466220607938 .4124134141525055 .314426906996196 -1 0 0 16
 499 623 500 ?58 497 22 23 0 0 1 81 1 500 861 35 499 0 0 501 498 502 17 58 0 155
 157 156 55 160 499 0 503 +16 22 624 501 ?54 499 43 8 0 0 1 81 1 501 860 35 22 0
 0 27 500 504 17 54 0 505 506 507 51 151 22 0 157 +15 505 655 0 506 17 0 17 506
 0 505 190 54 83 356 348 0 0 -17 507 0 505 54 190 146 508 509 0 0 +17 157 0 155
 151 58 51 289 284 0 356 -15 155 671 0 157 19 0 17 289 0 510 296 356 55 157 284
 0 0 +17 356 0 510 289 347 51 506 348 0 0 +15 510 335 0 356 511 0 17 347 0 510 3
56 338 83 512 339 0 506 +17 338 0 510 347 329 79 513 330 0 0 +17 512 0 514 186 2
8 79 347 339 0 338 -15 514 657 0 512 515 0 17 186 0 514 516 512 183 82 29 0 517
 -17 28 0 514 512 516 83 190 11 0 347 +17 516 0 514 28 186 187 517 518 0 508 +17
 190 0 505 507 506 187 28 11 0 516 -17 517 0 258 519 508 183 516 518 0 520 -16 5
18 73 521 ?516 509 522 523 0 0 1 17 508 0 258 517 158 187 507 509 0 0 -15 258 8
 0 508 257 0 17 158 0 258 508 524 146 156 444 0 507 -16 509 69 525 ?507 526 518
 527 0 0 1 81 1 525 899 35 509 528 0 355 288 529 16 526 65 530 ?531 532 509 533
 0 0 1 134 527 185 0 509 523 533 534 +535 536 134 523 184 0 518 537 527 538 +539
 540 134 533 186 0 526 527 541 542 +543 544 141 255 534 545 534 534 527 136 535
 2 3 3 2 5 FFF2 546 547 548 135 536 2 0 45 9 546 5.0466220607938 .29271766109665
9 .1694633686074505 5.0466220607938 .3557091822786755 .1694633686074505 5.046622
0607938 .38406129821559 .2037468895520885 127 4 547 3 3 0 0 128 4 548 0 1 ??67 5
45 688 0 17 549 550 0 +527 -1 0 0 ?14 255 17 656 551 ?515 0 505 6 545 +0 0 515 0
 26 67 549 687 0 552 553 545 0 +533 -1 0 0 ?67 550 689 0 515 545 554 0 +523 -1 0
 0 ?14 515 658 555 ?556 17 514 6 550 +0 0 556 17 26 67 554 690 0 556 550 557 0 +
537 -1 0 0 ?14 556 660 558 ?559 515 560 6 554 +0 0 559 515 26 67 557 691 0 559 5
54 561 0 +562 -1 0 0 ?134 537 183 0 522 562 523 563 +564 565 16 522 77 566 ?520
 518 567 537 0 0 1 134 562 182 0 567 568 537 569 +570 571 141 563 554 563 563 53
7 136 564 2 3 3 2 5 FFF2 572 573 574 135 565 2 0 45 9 572 5.0466220607938 .18037
68502503895 .326645601312105 5.0466220607938 .1803768502503895 .2488255676107815
 5.0466220607938 .208906908337536 .209144468109116 127 4 573 3 3 0 0 128 4 574 0
 1 ??16 567 81 575 ?576 522 577 562 0 0 1 134 568 181 0 577 578 562 579 +580 581
 141 569 557 569 569 562 136 570 2 3 3 2 5 FFF2 582 583 584 135 571 2 0 45 9 582
 5.0466220607938 .2090848504877675 .4454516436167925 5.0466220607938 .1803768502
503895 .403397982112038 5.0466220607938 .1803768502503895 .326645601312105 127 4
 583 3 3 0 0 128 4 584 0 1 ??16 577 85 585 ?586 567 587 568 0 0 1 134 578 180 0
 587 588 568 589 +590 591 141 579 561 579 579 568 136 580 2 3 3 2 5 FFF2 592 593
 594 135 581 2 0 45 9 592 5.0466220607938 .2920058924957325 .487505305121547 5.0
466220607938 .237792850725146 .487505305121547 5.0466220607938 .2090848504877675
 .4454516436167925 127 4 593 3 3 0 0 128 4 594 0 1 ??67 561 692 0 595 557 596 0
 +568 -1 0 0 ?14 595 664 597 ?598 559 599 6 561 +0 0 598 559 26 67 596 693 0 598
 561 600 0 +578 -1 0 0 ?14 598 666 601 ?602 595 603 6 596 +0 0 602 595 26 67 600
 694 0 602 596 20 0 +588 -1 0 0 ?14 602 668 604 ?605 598 606 6 600 +0 0 605 598
 26 50 255 20 695 0 605 600 7 0 +5.0466220607938 .4124134141525055 .320892138454
614 0 -1 0 0 0 -1 134 588 179 0 607 608 578 609 +610 611 16 607 93 612 ?613 587
 614 588 0 0 1 30 608 178 0 614 21 588 0 +5.0466220607938 .4124134141525055 .320
892138454614 0 0 1 141 609 600 609 609 588 136 610 2 3 3 2 5 FFF2 615 616 617 13
5 611 2 0 45 9 615 5.0466220607938 .4124134141525055 .3273573699130315 5.0466220
607938 .4124134141525055 .4137186268254755 5.0466220607938 .383705413915127 .450
611965973511 127 4 616 3 3 0 0 128 4 617 0 1 ??16 614 97 618 ?619 607 444 608 0
 0 1 134 21 177 0 444 0 608 620 +621 622 16 444 101 623 ?156 614 440 21 0 0 1 14
1 620 7 620 620 21 136 621 2 3 3 2 5 FFF2 624 625 626 135 622 2 0 45 9 624 5.046
6220607938 .38406129821559 .2037468895520885 5.0466220607938 .4124134141525055 .
238030410496726 5.0466220607938 .4124134141525055 .314426906996196 127 4 625 3 3
 0 0 128 4 626 0 1 ??81 1 623 901 35 444 627 0 288 295 628 17 156 0 155 58 151 1
52 158 444 0 0 +80 7 CCCCCDI12 legal_owners0 17 1 lCZ1 35 629 630 9000 0 0 0 0 3
 6 0 0 0 FFTFTFTTFFFFFFFFF1 81 1 627 102 631 444 0 623 632 633 634 81 1 288 900
 35 284 635 0 525 623 636 81 1 295 902 35 290 637 0 623 618 638 82 255 3 628 159
 316 1 81 1 637 448 631 290 0 295 639 635 640 81 1 618 903 35 614 632 0 295 301
 641 82 3 638 159 317 1 81 1 632 98 631 614 0 618 642 627 643 81 1 301 904 35 29
7 639 0 618 612 644 82 3 641 159 318 1 81 1 639 443 631 297 0 301 645 637 646 81
 1 612 905 35 607 642 0 301 310 647 82 3 644 159 319 1 81 1 642 94 631 607 0 612
 648 632 649 81 1 310 906 35 303 645 0 612 650 651 82 3 647 159 320 1 81 1 645 4
38 631 303 0 310 652 639 653 81 1 650 907 35 587 648 0 310 319 654 82 3 651 159
 321 1 16 587 89 650 ?655 577 607 578 0 0 1 81 1 648 90 631 587 0 650 656 642 65
7 81 1 319 908 35 312 652 0 650 585 658 82 3 654 159 322 1 81 1 652 433 631 312
 0 319 659 645 660 81 1 585 909 35 577 656 0 319 328 661 82 3 658 159 323 1 81 1
 656 86 631 577 0 585 662 648 663 81 1 328 910 35 321 659 0 585 575 664 82 3 661
 159 324 1 81 1 659 428 631 321 0 328 665 652 666 81 1 575 911 35 567 662 0 328
 337 667 82 3 664 159 325 1 81 1 662 82 631 567 0 575 668 656 669 81 1 337 912 3
5 330 665 0 575 566 670 82 3 667 159 326 1 81 1 665 423 631 330 0 337 671 659 67
2 81 1 566 913 35 522 668 0 337 346 673 82 3 670 159 327 1 81 1 668 78 631 522 0
 566 674 662 675 81 1 346 914 35 339 671 0 566 521 676 82 3 673 159 328 1 81 1 6
71 418 631 339 0 346 677 665 678 81 1 521 915 35 518 674 0 346 679 680 82 3 676
 159 329 1 81 1 674 74 631 518 0 521 528 668 681 81 1 679 916 35 682 0 683 521 6
84 685 82 3 680 159 330 1 14 682 626 683 ?686 605 39 6 687 +0 0 686 605 26 81 1
 683 954 688 682 679 0 689 690 691 81 1 684 917 35 511 0 692 679 693 694 82 3 68
5 159 75 2 14 511 307 692 ?0 257 695 6 696 -0 0 0 257 26 81 1 692 971 688 511 68
4 0 697 0 698 81 1 693 918 35 257 0 697 684 699 700 82 3 694 159 76 2 14 257 4 6
97 ?511 19 253 6 701 +0 0 511 19 26 81 1 697 970 688 257 693 0 702 692 703 81 1
 699 919 35 552 0 704 693 705 706 82 3 700 159 77 2 14 552 654 704 ?19 707 708 6
 549 +0 0 19 707 26 81 1 704 968 688 552 699 0 709 702 710 81 1 705 920 35 707 0
 709 699 711 712 82 3 706 159 78 2 14 707 652 709 ?552 713 714 6 553 +0 0 552 71
3 26 81 1 709 967 688 707 705 0 715 704 716 81 1 711 921 35 713 0 715 705 717 71
8 82 3 712 159 79 2 14 713 650 715 ?707 719 720 6 721 +0 0 707 719 26 81 1 715 9
66 688 713 711 0 722 709 723 81 1 717 922 35 719 0 722 711 724 725 82 3 718 159
 80 2 14 719 648 722 ?713 726 727 6 728 +0 0 713 726 26 81 1 722 965 688 719 717
 0 729 715 730 81 1 724 923 35 726 0 729 717 731 732 82 3 725 159 81 2 14 726 64
6 729 ?719 733 734 6 735 +0 0 719 733 26 81 1 729 964 688 726 724 0 736 722 737
 81 1 731 924 35 733 0 736 724 738 739 82 3 732 159 82 2 14 733 644 736 ?726 740
 741 6 742 +0 0 726 740 26 81 1 736 963 688 733 731 0 743 729 744 81 1 738 925 3
5 740 0 743 731 745 746 82 3 739 159 83 2 14 740 642 743 ?733 747 748 6 749 +0 0
 733 747 26 81 1 743 962 688 740 738 0 750 736 751 81 1 745 926 35 747 0 750 738
 752 753 82 3 746 159 84 2 14 747 640 750 ?740 754 755 6 756 +0 0 740 754 26 81
 1 750 961 688 747 745 0 757 743 758 81 1 752 927 35 754 0 757 745 759 760 82 3
 753 159 85 2 14 754 638 757 ?747 761 762 6 763 +0 0 747 761 26 81 1 757 960 688
 754 752 0 764 750 765 81 1 759 928 35 761 0 764 752 766 767 82 3 760 159 86 2 1
4 761 636 764 ?754 768 769 6 770 +0 0 754 768 26 81 1 764 959 688 761 759 0 771
 757 772 81 1 766 929 35 768 0 771 759 773 774 82 3 767 159 87 2 14 768 634 771
 ?761 265 775 6 776 +0 0 761 265 26 81 1 771 958 688 768 766 0 777 764 778 81 1
 773 930 35 265 0 777 766 779 780 82 3 774 159 88 2 14 265 632 777 ?768 242 247
 6 781 +0 0 768 242 26 81 1 777 957 688 265 773 0 782 771 783 81 1 779 931 35 24
2 0 782 773 784 785 82 3 780 159 89 2 14 242 630 782 ?265 686 141 6 786 +0 0 265
 686 26 81 1 782 956 688 242 779 0 690 777 787 81 1 784 932 35 686 0 690 779 788
 789 82 3 785 159 90 2 14 686 628 690 ?242 682 148 6 790 +0 0 242 682 26 81 1 69
0 955 688 686 784 0 683 782 791 81 1 788 933 35 17 0 551 784 792 793 82 3 789 15
9 91 2 81 1 551 946 688 17 788 0 0 555 794 81 1 792 934 35 19 0 702 788 795 796
 82 3 793 159 92 2 14 19 672 702 ?257 552 155 6 7 +0 0 257 552 26 81 1 702 969 6
88 19 792 0 704 697 797 81 1 795 935 35 605 0 689 792 798 799 82 3 796 159 93 2
 14 605 670 689 ?682 602 800 6 20 +0 0 682 602 26 81 1 689 953 688 605 795 0 604
 683 801 81 1 798 936 35 602 0 604 795 802 803 82 3 799 159 94 2 81 1 604 952 68
8 602 798 0 601 689 804 81 1 802 937 35 598 0 601 798 805 806 82 3 803 159 95 2
 81 1 601 951 688 598 802 0 597 604 807 81 1 805 938 35 595 0 597 802 808 809 82
 3 806 159 96 2 81 1 597 950 688 595 805 0 810 601 811 81 1 808 939 35 559 0 810
 805 812 813 82 3 809 159 97 2 14 559 662 810 ?595 556 814 6 557 +0 0 595 556 26
 81 1 810 949 688 559 808 0 558 597 815 81 1 812 940 35 556 0 558 808 816 817 82
 3 813 159 98 2 81 1 558 948 688 556 812 0 555 810 818 81 1 816 941 35 515 0 555
 812 819 820 82 3 817 159 99 2 81 1 555 947 688 515 816 0 551 558 821 81 1 819 9
42 35 1 0 822 816 0 823 82 3 820 159 100 2 81 1 822 943 824 1 819 14 0 0 825 82
 3 823 159 3 3 80 1 824 826 827 8038 0 0 0 0 0 0 0 0 0 TTTTTTTTTTTTTFTFT10 81 1
 14 944 826 1 822 2 0 0 828 98 255 8 825 80 97 114 116 32 50 57 56 80 1 826 829
 830 8017 0 0 0 0 0 0 0 0 0 TTTTTTTTTTTTTFTFT3 84 255 8 828 Part 29879 255 13 83
0 SDL/TYSA_NAME79 14 827 SDL/TYSA_UNAME80 1 688 0 831 8001 0 0 0 0 3 5 0 0 0 FFF
FTFTFFFFFFFFFF2 83 255 3 821 .647058823529412 .647058823529412 .647058823529412
 79 15 831 SDL/TYSA_COLOUR83 3 818 .647058823529412 .647058823529412 .6470588235
29412 83 3 815 .647058823529412 .647058823529412 .647058823529412 15 814 661 0 8
32 559 0 13 26 3 0 0 0 0 0 0 10 17 17 832 0 814 178 78 71 329 321 0 320 -17 178
 0 814 576 832 175 74 488 0 833 -17 78 0 814 832 576 75 182 485 0 513 +17 329 0
 510 338 320 75 832 321 0 0 +17 320 0 510 329 311 71 834 312 0 0 +17 311 0 510 3
20 302 67 835 303 0 0 +17 834 0 599 174 74 67 320 312 0 311 -15 599 663 0 834 59
5 0 17 174 0 599 586 834 171 70 491 0 836 -17 74 0 599 834 586 71 178 488 0 832
 +17 586 0 599 74 174 175 836 577 0 0 +17 836 0 258 837 833 171 586 577 0 655 -1
7 837 0 258 838 836 167 655 587 0 613 -17 833 0 258 836 519 175 576 567 0 586 -1
7 655 0 603 70 170 171 837 587 0 0 +15 603 665 0 835 598 0 17 70 0 603 835 655 6
7 174 491 0 834 +17 170 0 603 655 835 167 66 494 0 837 -17 835 0 603 170 70 63 3
11 303 0 302 -17 66 0 606 839 613 63 170 494 0 835 +15 606 667 0 839 602 0 17 83
9 0 606 166 66 59 302 297 0 296 -17 613 0 606 66 166 167 838 607 0 0 +17 166 0 6
06 613 839 161 62 497 0 838 -17 838 0 258 524 837 161 613 607 0 619 -17 524 0 25
8 158 838 152 619 614 0 156 -17 619 0 800 62 160 161 524 614 0 0 +15 800 669 0 5
03 605 0 17 62 0 800 503 619 59 166 497 0 839 +17 160 0 800 619 503 152 58 499 0
 524 -17 503 0 800 160 62 55 296 290 0 289 -17 296 0 510 302 289 59 503 290 0 0
 +17 302 0 510 311 296 63 839 297 0 0 +17 519 0 258 833 517 179 520 522 0 576 -1
7 576 0 814 78 178 179 833 567 0 0 +17 520 0 560 82 182 183 519 522 0 0 +15 560
 659 0 513 556 0 17 82 0 560 513 520 79 186 29 0 512 +17 182 0 560 520 513 179 7
8 485 0 519 -17 513 0 560 182 82 75 338 330 0 329 -83 3 811 .647058823529412 .64
7058823529412 .647058823529412 83 3 807 .647058823529412 .647058823529412 .64705
8823529412 83 3 804 .647058823529412 .647058823529412 .647058823529412 83 3 801
 .647058823529412 .647058823529412 .647058823529412 83 3 797 .647058823529412 .6
47058823529412 .647058823529412 83 3 794 .647058823529412 .647058823529412 .6470
58823529412 83 3 791 .647058823529412 .647058823529412 .647058823529412 15 148 6
27 0 145 686 0 50 790 674 0 686 687 786 0 +5.0466220607938 .419827670412159 .152
5588643354405 0 -.988888894104193 -.148656500420891 0 .148656500420891 -.9888888
94104193 50 687 673 0 682 696 790 0 +5.0466220607938 .414074207554668 .179784013
3208885 0 0 -1 -1 0 0 50 786 675 0 242 790 781 0 +5.0466220607938 .4489508690000
78 .125333715349993 0 0 -1 -1 0 0 50 781 676 0 265 786 776 0 +5.0466220607938 .4
73981398132668 .413777940875553 0 1 0 0 0 1 50 776 677 0 768 781 770 0 +5.046622
0607938 .4431974061425865 .702222166401113 0 0 1 1 0 0 50 770 678 0 761 776 763
 0 +5.0466220607938 .4124134141525055 .619538380593457 0 -1 0 0 0 -1 50 763 679
 0 754 770 756 0 +5.0466220607938 .413184496803509 .522559908717189 0 -.99854830
2510376 -.053863601380223 0 .053863601380223 -.998548302510376 50 756 680 0 747
 763 749 0 +5.0466220607938 .4152604885562125 .493614652279502 0 -.9960568183772
15 -.0887176113534427 0 .0887176113534427 -.996056818377215 50 749 681 0 740 756
 742 0 +5.0466220607938 .414133521604745 .478964081910426 0 0 1 1 0 0 67 742 682
 0 733 749 735 0 +840 -1 0 0 ?67 735 683 0 726 742 728 0 +841 -1 0 0 ?134 840 19
1 0 842 841 843 844 +845 846 16 842 45 847 ?848 849 850 840 0 0 1 134 841 190 0
 850 851 840 852 +853 854 30 843 192 0 849 840 855 0 +5.0466220607938 .414133521
604745 .478964081910426 0 1 0 141 844 742 844 844 840 136 845 2 3 3 2 5 FFF2 856
 857 858 135 846 2 0 45 9 856 5.0466220607938 .284888206486465 .539108528688736
 5.0466220607938 .367571992294121 .539108528688736 5.0466220607938 .411701645551
5785 .478964081910426 127 4 857 3 3 0 0 128 4 858 0 1 ??16 849 41 859 ?860 861 8
42 843 0 0 1 30 855 193 0 861 843 862 0 +5.0466220607938 .4152604885562125 .4936
14652279502 0 -.0887176113534427 .996056818377215 16 861 37 863 ?864 865 849 855
 0 0 1 30 862 194 0 865 855 276 0 +5.0466220607938 .413184496803509 .52255990871
7189 0 -.053863601380223 .998548302510376 16 865 33 866 ?867 274 861 862 0 0 1 3
0 276 195 0 274 862 275 0 +5.0466220607938 .4124134141525055 .619538380593457 0
 0 1 16 274 29 868 ?869 267 865 276 0 0 1 81 1 868 889 35 274 870 0 428 432 871
 17 869 0 769 128 230 231 872 274 0 0 +15 769 635 0 873 761 0 17 128 0 769 873 8
69 125 234 451 0 874 +17 230 0 769 869 873 227 124 454 0 872 -17 872 0 253 875 2
59 227 869 274 0 867 -17 875 0 253 876 872 223 867 865 0 864 -17 259 0 253 872 2
54 231 261 267 0 869 -17 867 0 762 124 226 227 875 865 0 0 +15 762 637 0 877 754
 0 17 124 0 762 877 867 121 230 454 0 873 +17 226 0 762 867 877 223 120 457 0 87
5 -17 877 0 762 226 124 117 425 422 0 421 -17 120 0 755 878 864 117 226 457 0 87
7 +15 755 639 0 878 747 0 17 878 0 755 222 120 113 421 418 0 417 -17 864 0 755 1
20 222 223 876 861 0 0 +17 222 0 755 864 878 219 116 460 0 876 -17 876 0 253 879
 875 219 864 861 0 860 -17 879 0 253 880 876 215 860 849 0 848 -17 860 0 748 116
 218 219 879 849 0 0 +15 748 641 0 881 740 0 17 116 0 748 881 860 113 222 460 0
 878 +17 218 0 748 860 881 215 112 463 0 879 -17 881 0 748 218 116 109 417 411 0
 410 -17 112 0 741 882 848 109 218 463 0 881 +15 741 643 0 882 733 0 17 882 0 74
1 214 112 105 410 402 0 401 -17 848 0 741 112 214 215 880 842 0 0 +17 214 0 741
 848 882 211 108 466 0 880 -17 880 0 253 883 879 211 848 842 0 884 -17 883 0 253
 885 880 207 884 850 0 886 -17 884 0 734 108 210 211 883 850 0 0 +15 734 645 0 8
87 726 0 17 108 0 734 887 884 105 214 466 0 882 +17 210 0 734 884 887 207 104 46
9 0 883 -16 850 49 888 ?884 842 889 841 0 0 1 81 1 888 879 35 850 890 0 400 409
 891 16 889 53 892 ?886 850 893 851 0 0 1 81 1 892 877 35 889 894 0 391 400 895
 17 886 0 727 104 206 207 885 889 0 0 +16 893 57 896 ?897 889 532 898 0 0 1 134
 851 189 0 889 898 841 899 +900 901 134 898 188 0 893 541 851 902 +903 904 141 8
99 728 899 899 851 136 900 2 3 3 2 5 FFF2 905 906 907 135 901 2 0 45 9 905 5.046
6220607938 .116554932367292 .3273573699130315 5.0466220607938 .116554932367292 .
427835370743856 5.0466220607938 .161040469925213 .483471949716296 127 4 906 3 3
 0 0 128 4 907 0 1 ??67 728 684 0 719 735 721 0 +851 -1 0 0 ?67 721 685 0 713 72
8 553 0 +898 -1 0 0 ?67 553 686 0 707 721 549 0 +541 -1 0 0 ?134 541 187 0 532 5
33 898 908 +909 910 16 532 61 911 ?912 893 526 541 0 0 1 141 908 553 908 908 541
 136 909 2 3 3 2 5 FFF2 913 914 915 135 910 2 0 45 9 913 5.0466220607938 .284888
206486465 .1178601450402622 5.0466220607938 .2051701231826705 .1178601450402622
 5.0466220607938 .160862527774981 .172369757061235 127 4 914 3 3 0 0 128 4 915 0
 1 ??81 1 911 873 35 532 916 0 373 382 917 17 912 0 714 96 198 199 918 532 0 0 +
15 714 651 0 919 707 0 17 96 0 714 919 912 93 202 475 0 920 +17 198 0 714 912 91
9 195 92 478 0 918 -17 918 0 253 921 922 195 912 532 0 531 -17 921 0 253 256 918
 191 531 526 0 40 -17 922 0 253 918 885 199 897 893 0 912 -17 531 0 708 92 194 1
95 921 526 0 0 +15 708 653 0 923 552 0 17 92 0 708 923 531 89 198 478 0 919 +17
 194 0 708 531 923 191 88 283 0 921 -17 923 0 708 194 92 86 365 357 0 443 -17 88
 0 39 41 40 86 194 283 0 923 +15 39 625 0 41 682 0 17 41 0 39 32 88 24 443 440 0
 0 -17 40 0 39 88 32 191 256 280 0 0 +17 256 0 253 255 921 12 40 280 0 0 -17 443
 0 695 365 149 86 41 440 0 0 +15 695 334 0 443 511 510 17 365 0 695 374 443 89 9
23 357 0 0 +17 149 0 695 443 244 24 145 437 0 41 +17 244 0 695 149 246 136 142 2
45 0 0 +17 145 0 148 46 42 136 149 437 0 244 -17 46 0 148 44 145 33 138 144 0 25
5 -17 44 0 148 42 46 12 255 262 0 256 +17 246 0 695 244 433 133 248 434 0 0 +17
 433 0 695 246 429 129 874 430 0 0 +17 248 0 247 237 135 129 246 434 0 433 -17 4
29 0 695 433 425 125 873 426 0 0 +17 874 0 775 234 132 125 433 430 0 429 -15 775
 633 0 874 768 0 17 234 0 775 261 874 231 128 451 0 259 -17 132 0 775 874 261 12
9 237 251 0 248 +17 261 0 775 132 234 235 259 267 0 0 +17 425 0 695 429 421 121
 877 422 0 0 +17 873 0 769 230 128 121 429 426 0 425 -17 421 0 695 425 417 117 8
78 418 0 0 +17 417 0 695 421 410 113 881 411 0 0 +17 410 0 695 417 401 109 882 4
02 0 0 +17 401 0 695 410 392 105 887 393 0 0 +17 392 0 695 401 383 101 924 384 0
 0 +17 887 0 734 210 108 101 401 393 0 392 -17 383 0 695 392 374 97 920 375 0 0
 +17 924 0 727 206 104 97 392 384 0 383 -15 727 647 0 924 719 0 17 206 0 727 886
 924 203 100 472 0 885 -17 104 0 727 924 886 101 210 469 0 887 +17 100 0 720 920
 897 97 206 472 0 924 +17 885 0 253 922 883 203 886 889 0 897 -17 897 0 720 100
 202 203 922 893 0 0 +15 720 649 0 920 713 0 17 202 0 720 897 920 199 96 475 0 9
22 -17 920 0 720 202 100 93 383 375 0 374 -17 374 0 695 383 365 93 919 366 0 0 +
17 919 0 714 198 96 89 374 366 0 365 -81 1 916 62 631 532 0 911 925 926 927 81 1
 373 872 35 366 928 0 530 911 929 81 1 382 874 35 375 930 0 911 896 931 82 3 917
 159 288 1 81 1 930 398 631 375 0 382 932 928 933 81 1 896 875 35 893 925 0 382
 391 934 82 3 931 159 289 1 81 1 925 58 631 893 0 896 894 916 935 81 1 391 876 3
5 384 932 0 896 892 936 82 3 934 159 290 1 81 1 932 393 631 384 0 391 937 930 93
8 82 3 936 159 291 1 80 1 631 939 940 9000 0 0 0 0 3 5 0 0 0 FFTFTFTTFFFFFFFFF3
 81 1 937 388 631 393 0 400 941 932 942 84 34 938 PQoVoHnCctcR.sketch_text.strok
e-7381 1 400 878 35 393 937 0 892 888 943 81 1 941 383 631 402 0 409 944 937 945
 84 34 942 PQoVoHnCctcR.sketch_text.stroke-7481 1 409 880 35 402 941 0 888 847 9
46 81 1 944 378 631 411 0 416 947 941 948 84 34 945 PQoVoHnCctcR.sketch_text.str
oke-7581 1 416 882 35 411 944 0 847 859 949 81 1 947 373 631 418 0 420 950 944 9
51 84 34 948 PQoVoHnCctcR.sketch_text.stroke-7681 1 420 884 35 418 947 0 859 863
 952 81 1 950 368 631 422 0 424 953 947 954 84 34 951 PQoVoHnCctcR.sketch_text.s
troke-7781 1 424 886 35 422 950 0 863 866 955 81 1 953 363 631 426 0 428 956 950
 957 84 34 954 PQoVoHnCctcR.sketch_text.stroke-7881 1 428 888 35 426 953 0 866 8
68 958 81 1 956 358 631 430 0 432 959 953 960 84 34 957 PQoVoHnCctcR.sketch_text
.stroke-7981 1 432 890 35 430 956 0 868 273 961 81 1 959 353 631 434 0 270 962 9
56 963 84 34 960 PQoVoHnCctcR.sketch_text.stroke-8081 1 270 892 35 434 959 0 273
 266 964 81 1 962 348 631 245 0 271 965 959 966 84 34 963 PQoVoHnCctcR.sketch_te
xt.stroke-8181 1 271 894 35 245 962 0 266 263 967 81 1 965 343 631 437 0 439 633
 962 968 84 34 966 PQoVoHnCctcR.sketch_text.stroke-8281 1 439 896 35 437 965 0 2
63 279 969 81 1 633 338 631 440 0 442 627 965 970 84 34 968 PQoVoHnCctcR.sketch_
text.stroke-8381 1 442 868 35 440 633 0 484 282 971 84 34 970 PQoVoHnCctcR.sketc
h_text.stroke-6981 1 484 867 35 29 0 0 487 442 972 81 1 282 869 35 280 973 0 442
 364 974 82 3 971 159 283 1 81 1 973 10 631 280 0 282 0 975 976 81 1 364 870 35
 357 977 0 282 530 978 82 3 974 159 284 1 81 1 977 408 631 357 0 364 928 677 979
 81 1 530 871 35 526 926 0 364 373 980 82 3 978 159 285 1 81 1 926 66 631 526 0
 530 916 528 981 82 3 980 159 286 1 81 1 528 70 631 509 0 525 926 674 982 84 34
 981 PQoVoHnCctcR.sketch_text.stroke-7084 34 982 PQoVoHnCctcR.sketch_text.stroke
-8481 1 928 403 631 366 0 373 930 977 983 81 1 677 413 631 348 0 355 977 671 984
 84 34 979 PQoVoHnCctcR.sketch_text.stroke-7081 1 355 898 35 348 677 0 279 525 9
85 84 34 984 PQoVoHnCctcR.sketch_text.stroke-8481 1 279 897 35 262 975 0 439 355
 986 82 3 985 159 313 1 81 1 975 14 631 262 0 279 973 987 988 82 3 986 159 312 1
 81 1 987 18 631 243 0 263 975 269 989 84 34 988 PQoVoHnCctcR.sketch_text.stroke
-8381 1 263 895 35 243 987 0 271 439 990 81 1 269 22 631 260 0 266 987 991 992 8
4 34 989 PQoVoHnCctcR.sketch_text.stroke-8281 1 991 26 631 267 0 273 269 870 993
 84 34 992 PQoVoHnCctcR.sketch_text.stroke-8181 1 273 891 35 267 991 0 432 270 9
94 81 1 870 30 631 274 0 868 991 995 996 84 34 993 PQoVoHnCctcR.sketch_text.stro
ke-8081 1 995 34 631 865 0 866 870 997 998 84 34 996 PQoVoHnCctcR.sketch_text.st
roke-7981 1 866 887 35 865 995 0 424 428 999 81 1 997 38 631 861 0 863 995 1000
 1001 84 34 998 PQoVoHnCctcR.sketch_text.stroke-7881 1 863 885 35 861 997 0 420
 424 1002 81 1 1000 42 631 849 0 859 997 1003 1004 84 34 1001 PQoVoHnCctcR.sketc
h_text.stroke-7781 1 859 883 35 849 1000 0 416 420 1005 81 1 1003 46 631 842 0 8
47 1000 890 1006 84 34 1004 PQoVoHnCctcR.sketch_text.stroke-7681 1 847 881 35 84
2 1003 0 409 416 1007 81 1 890 50 631 850 0 888 1003 894 1008 84 34 1006 PQoVoHn
CctcR.sketch_text.stroke-7581 1 894 54 631 889 0 892 890 925 1009 84 34 1008 PQo
VoHnCctcR.sketch_text.stroke-7484 34 1009 PQoVoHnCctcR.sketch_text.stroke-7382 3
 1007 159 296 1 82 3 1005 159 298 1 82 3 1002 159 300 1 82 3 999 159 302 1 82 3
 994 159 306 1 82 3 990 159 310 1 84 34 983 PQoVoHnCctcR.sketch_text.stroke-7184
 34 976 PQoVoHnCctcR.sketch_text.stroke-6981 1 487 866 35 485 0 0 490 484 1010 8
2 3 972 159 92 1 81 1 490 865 35 488 0 0 493 487 1011 82 3 1010 159 91 1 81 1 49
3 864 35 491 0 0 496 490 1012 82 3 1011 159 90 1 81 1 496 863 35 494 0 0 498 493
 1013 82 3 1012 159 89 1 81 1 498 862 35 497 0 0 500 496 1014 82 3 1013 159 88 1
 82 3 1014 159 87 1 82 3 969 159 311 1 82 3 967 159 309 1 82 3 964 159 307 1 82
 3 961 159 305 1 82 3 958 159 303 1 82 3 955 159 301 1 82 3 952 159 299 1 82 3 9
49 159 297 1 82 3 946 159 295 1 82 3 943 159 293 1 79 27 940 BTI/ImprintedSketch
EntityId84 34 935 PQoVoHnCctcR.sketch_text.stroke-7284 34 933 PQoVoHnCctcR.sketc
h_text.stroke-7282 3 929 159 287 1 84 34 927 PQoVoHnCctcR.sketch_text.stroke-711
41 902 721 902 902 898 136 903 2 3 3 2 5 FFF2 1015 1016 1017 135 904 2 0 45 9 10
15 5.0466220607938 .160862527774981 .172369757061235 5.0466220607938 .1165549323
67292 .2268793690822075 5.0466220607938 .116554932367292 .3273573699130315 127 4
 1016 3 3 0 0 128 4 1017 0 1 ??82 3 895 159 292 1 82 3 891 159 294 1 82 3 871 15
9 304 1 141 852 735 852 852 841 136 853 2 3 3 2 5 FFF2 1018 1019 1020 135 854 2
 0 45 9 1018 5.0466220607938 .161040469925213 .483471949716296 5.0466220607938 .
205526007483134 .539108528688736 5.0466220607938 .284888206486465 .5391085286887
36 127 4 1019 3 3 0 0 128 4 1020 0 1 ??50 696 552 0 511 701 687 0 +4.99582206079
38 0 .4064 1 0 0 0 1 0 50 701 225 0 257 0 696 0 +5.0466220607938 0 .4064 1 0 0 0
 1 0 83 3 787 .647058823529412 .647058823529412 .647058823529412 83 3 783 .64705
8823529412 .647058823529412 .647058823529412 83 3 778 .647058823529412 .64705882
3529412 .647058823529412 83 3 772 .647058823529412 .647058823529412 .64705882352
9412 83 3 765 .647058823529412 .647058823529412 .647058823529412 83 3 758 .64705
8823529412 .647058823529412 .647058823529412 83 3 751 .647058823529412 .64705882
3529412 .647058823529412 83 3 744 .647058823529412 .647058823529412 .64705882352
9412 83 3 737 .647058823529412 .647058823529412 .647058823529412 83 3 730 .64705
8823529412 .647058823529412 .647058823529412 83 3 723 .647058823529412 .64705882
3529412 .647058823529412 83 3 716 .647058823529412 .647058823529412 .64705882352
9412 83 3 710 .647058823529412 .647058823529412 .647058823529412 83 3 703 .64705
8823529412 .647058823529412 .647058823529412 83 3 698 .647058823529412 .64705882
3529412 .647058823529412 83 3 691 .647058823529412 .647058823529412 .64705882352
9412 84 34 681 PQoVoHnCctcR.sketch_text.stroke-9284 34 678 PQoVoHnCctcR.sketch_t
ext.stroke-9284 34 675 PQoVoHnCctcR.sketch_text.stroke-9184 34 672 PQoVoHnCctcR.
sketch_text.stroke-9184 34 669 PQoVoHnCctcR.sketch_text.stroke-9084 34 666 PQoVo
HnCctcR.sketch_text.stroke-9084 34 663 PQoVoHnCctcR.sketch_text.stroke-8984 34 6
60 PQoVoHnCctcR.sketch_text.stroke-8984 34 657 PQoVoHnCctcR.sketch_text.stroke-8
884 34 653 PQoVoHnCctcR.sketch_text.stroke-8884 34 649 PQoVoHnCctcR.sketch_text.
stroke-8784 34 646 PQoVoHnCctcR.sketch_text.stroke-8784 34 643 PQoVoHnCctcR.sket
ch_text.stroke-8681 1 635 453 631 284 0 288 637 0 1021 84 34 640 PQoVoHnCctcR.sk
etch_text.stroke-8684 34 1021 PQoVoHnCctcR.sketch_text.stroke-8582 3 636 159 315
 1 84 34 634 PQoVoHnCctcR.sketch_text.stroke-8579 9 630 BTI/DetId141 589 596 589
 589 578 136 590 2 3 3 2 5 FFF2 1022 1023 1024 135 591 2 0 45 9 1022 5.046622060
7938 .383705413915127 .450611965973511 5.0466220607938 .3549974136777485 .487505
305121547 5.0466220607938 .2920058924957325 .487505305121547 127 4 1023 3 3 0 0
 128 4 1024 0 1 ??141 542 549 542 542 533 136 543 2 3 3 2 5 FFF2 1025 1026 1027
 135 544 2 0 45 9 1025 5.0466220607938 .4124134141525055 .1797840133208885 5.046
6220607938 .3698259261970555 .1178601450402622 5.0466220607938 .284888206486465
 .1178601450402622 127 4 1026 3 3 0 0 128 4 1027 0 1 ??141 538 550 538 538 523 1
36 539 2 3 3 2 5 FFF2 1028 1029 1030 135 540 2 0 45 9 1028 5.0466220607938 .2089
06908337536 .209144468109116 5.0466220607938 .2374369664246825 .1694633686074505
 5.0466220607938 .292717661096659 .1694633686074505 127 4 1029 3 3 0 0 128 4 103
0 0 1 ??82 3 529 159 314 1 81 1 27 859 35 11 0 0 447 501 1031 82 3 504 159 85 1
 81 1 447 858 35 144 0 0 250 27 1032 82 3 1031 159 84 1 81 1 250 857 35 240 0 0
 450 447 1033 82 3 1032 159 83 1 81 1 450 856 35 251 0 0 453 250 1034 82 3 1033
 159 82 1 81 1 453 855 35 451 0 0 456 450 1035 82 3 1034 159 81 1 81 1 456 854 3
5 454 0 0 459 453 1036 82 3 1035 159 80 1 81 1 459 853 35 457 0 0 462 456 1037 8
2 3 1036 159 79 1 81 1 462 852 35 460 0 0 465 459 1038 82 3 1037 159 78 1 81 1 4
65 851 35 463 0 0 468 462 1039 82 3 1038 159 77 1 81 1 468 850 35 466 0 0 471 46
5 1040 82 3 1039 159 76 1 81 1 471 849 35 469 0 0 474 468 1041 82 3 1040 159 75
 1 81 1 474 848 35 472 0 0 477 471 1042 82 3 1041 159 74 1 81 1 477 847 35 475 0
 0 480 474 1043 82 3 1042 159 73 1 81 1 480 846 35 478 0 0 481 477 1044 82 3 104
3 159 72 1 81 1 481 845 35 283 0 0 446 480 1045 82 3 1044 159 71 1 81 1 446 844
 35 43 0 0 185 481 1046 82 3 1045 159 70 1 81 1 185 843 35 183 0 0 81 446 1047 8
2 3 1046 159 69 1 81 1 81 842 35 79 0 0 181 185 1048 82 3 1047 159 185 0 81 1 18
1 841 35 179 0 0 77 81 1049 82 3 1048 159 184 0 81 1 77 840 35 75 0 0 177 181 10
50 82 3 1049 159 183 0 81 1 177 839 35 175 0 0 73 77 1051 82 3 1050 159 182 0 81
 1 73 838 35 71 0 0 173 177 1052 82 3 1051 159 181 0 81 1 173 837 35 171 0 0 69
 73 1053 82 3 1052 159 180 0 81 1 69 836 35 67 0 0 169 173 1054 82 3 1053 159 17
9 0 81 1 169 835 35 167 0 0 65 69 1055 82 3 1054 159 178 0 81 1 65 834 35 63 0 0
 165 169 1056 82 3 1055 159 177 0 81 1 165 833 35 161 0 0 61 65 1057 82 3 1056 1
59 176 0 81 1 61 832 35 59 0 0 159 165 1058 82 3 1057 159 175 0 81 1 159 831 35
 152 0 0 57 61 1059 82 3 1058 159 174 0 81 1 57 830 35 55 0 0 150 159 1060 82 3
 1059 159 173 0 82 3 1060 159 172 0 82 3 502 159 86 1 82 3 272 159 308 1 81 1 13
4 822 35 133 0 0 236 139 1061 82 3 239 159 165 0 81 1 236 821 35 235 0 0 131 134
 1062 82 3 1061 159 164 0 81 1 131 820 35 129 0 0 233 236 1063 82 3 1062 159 163
 0 81 1 233 819 35 231 0 0 127 131 1064 82 3 1063 159 162 0 81 1 127 818 35 125
 0 0 229 233 1065 82 3 1064 159 161 0 81 1 229 817 35 227 0 0 123 127 1066 82 3
 1065 159 160 0 81 1 123 816 35 121 0 0 225 229 1067 82 3 1066 159 159 0 81 1 22
5 815 35 223 0 0 119 123 1068 82 3 1067 159 158 0 81 1 119 814 35 117 0 0 221 22
5 1069 82 3 1068 159 157 0 81 1 221 813 35 219 0 0 115 119 1070 82 3 1069 159 15
6 0 81 1 115 812 35 113 0 0 217 221 1071 82 3 1070 159 155 0 81 1 217 811 35 215
 0 0 111 115 1072 82 3 1071 159 154 0 81 1 111 810 35 109 0 0 213 217 1073 82 3
 1072 159 153 0 81 1 213 809 35 211 0 0 107 111 1074 82 3 1073 159 152 0 81 1 10
7 808 35 105 0 0 209 213 1075 82 3 1074 159 151 0 81 1 209 807 35 207 0 0 103 10
7 1076 82 3 1075 159 150 0 81 1 103 806 35 101 0 0 205 209 1077 82 3 1076 159 14
9 0 81 1 205 805 35 203 0 0 99 103 1078 82 3 1077 159 148 0 81 1 99 804 35 97 0
 0 201 205 1079 82 3 1078 159 147 0 81 1 201 803 35 199 0 0 95 99 1080 82 3 1079
 159 146 0 81 1 95 802 35 93 0 0 197 201 1081 82 3 1080 159 145 0 81 1 197 801 3
5 195 0 0 91 95 1082 82 3 1081 159 144 0 81 1 91 800 35 89 0 0 193 197 1083 82 3
 1082 159 143 0 81 1 193 799 35 191 0 0 37 91 1084 82 3 1083 159 142 0 81 1 37 7
98 35 86 0 0 31 193 1085 82 3 1084 159 141 0 82 3 1085 159 140 0 81 1 189 827 35
 187 0 0 85 53 1086 81 1 85 826 35 83 0 0 45 189 1087 81 1 53 828 35 51 0 0 189
 150 1088 82 3 1086 159 169 0 82 3 1088 159 170 0 81 1 45 825 35 33 0 0 137 85 1
089 82 3 1087 159 168 0 82 3 1089 159 167 0 82 3 154 159 171 0 82 3 147 159 138
 0 82 3 140 159 166 0 82 3 38 159 139 0 19 18 722 0 1 0 10 6 0 S0 74 4 CI16 inde
x_map_offset0 0 1 dCCZ20 16 6 0 0 635 819 822 14 2 692 0 0 0 0 0 0 0 0 0 0 0 0 0
 0 80 1 13 688 1090 8040 0 0 0 0 3 5 0 0 0 TTTFFFFFFFFFFFFFF2 83 3 15 .647058823
529412 .647058823529412 .647058823529412 79 17 1090 SDL/TYSA_COLOUR_21 0 
