**ABCDEFGHIJKLMNOPQRSTUVWXYZabcdefghijklmnopqrstuvwxyz**************************
**PARASOLID !"#$%&'()*+,-./:;<=>?@[\]^_`{|}~0123456789**************************
**PART1;
MC=unknown;
MC_MODEL=unknown;
MC_ID=unknown;
OS=unknown;
OS_RELEASE=unknown;
FRU=Parasolid 36.0.180;
APPL=Onshape;
SITE=unknown;
USER=unknown;
FORMAT=text;
GUISE=transmit;
KEY=BTGapi::writeModels_.xmt;
FILE=BTGapi::writeModels_.xmt;
DATE=2024-05-15T00:06:35 (UTC);
**PART2;
SCH=SCH_3600180_36001;
USFLD_SIZE=0;
**PART3;
**END_OF_HEADER*****************************************************************
T51 : TRANSMIT FILE created by modeller version 360018023 SCH_3600180_36001_1300
6231 0 12 36 CCCI7 lattice222 0 CCCI4 mesh1006 0 I8 polyline1008 0 CCCCCCCDI5 ow
ner1040 0 CCCI16 boundary_lattice222 0 CCCI13 boundary_mesh1006 0 I17 boundary_p
olyline1008 0 CCCA16 index_map_offset0 0 1 dA9 index_map82 0 A17 node_id_index_m
ap82 0 A20 schema_embedding_map82 0 A5 child12 0 A14 lowest_node_id0 0 1 dA16 me
sh_offset_data206 0 Z1 306 2 3 0 0 0 0 0 0 0 1e3 1e-8 0 4 5 1 0 1 2 6 0 7 8 9 0
 0 10 11 12 0 0 0 0 0 0 0 81 255 1 2 300 13 1 14 0 0 0 15 70 11 CI9 list_type0 0
 1 uI10 notransmit0 0 1 lCCCDCCDI12 finger_index0 0 1 dI12 finger_block1012 0 CZ
3 0 4 T1 0 0 5 20 1 16 16 13 255 6 88 0 1 0 17 0 0 18 0 50 255 7 194 0 17 19 0 0
 +-1.4732 2.54 4.81838 0 1 0 0 0 -1 30 255 8 198 0 11 20 0 0 +-1.4732 2.54 2.700
99311856604 -1 0 0 29 255 9 175 0 21 22 0 -1.6637 1.516250802198115 3.99415 19 9
 CCCCCCI5 frame230 0 CA5 owner12 0 Z10 87 0 1 18 0 23 0 V0 16 255 11 182 24 ?25
 0 26 8 0 0 1 18 255 12 81 27 28 0 29 30 ?1 81 1 27 276 31 12 0 0 32 33 34 17 25
5 28 0 35 36 37 12 38 39 0 40 -18 29 76 41 36 12 42 43 ?1 29 30 83 0 12 43 44 -1
.4732 1.516250802198115 3.99415 29 43 78 0 29 45 30 -1.4732 1.246843118566042 3.
99415 29 44 178 0 46 30 47 -1.6637 2.54 2.70099311856604 18 46 166 48 49 50 0 44
 ?1 29 47 177 0 50 44 22 -1.6637 2.54 2.97040080219812 18 50 162 33 51 52 46 47
 ?1 29 22 176 0 52 47 9 -1.6637 1.246843118566042 3.99415 18 52 158 53 54 21 50
 22 ?1 81 1 53 273 31 52 0 0 55 41 56 17 54 0 57 58 59 52 60 61 0 62 -18 21 154
 32 63 64 52 9 ?1 81 1 32 275 31 21 0 0 41 27 65 17 63 0 66 40 67 21 51 68 0 59
 -18 64 51 55 69 42 21 70 ?1 81 1 55 272 31 64 0 0 48 53 71 17 69 0 35 37 36 64
 72 73 0 74 -18 42 71 75 38 29 64 45 ?1 29 70 53 0 64 0 45 -1.4732 2.54 2.700993
11856604 29 45 73 0 42 70 43 -1.4732 2.54 2.97040080219812 81 1 75 278 31 42 0 0
 33 24 76 17 38 0 66 67 40 42 28 39 0 37 +15 255 66 185 0 63 77 0 17 67 0 66 63
 38 50 78 79 0 80 +17 40 0 66 38 63 12 59 81 0 82 -16 39 31 83 ?38 84 73 85 0 0
 1 17 37 0 35 28 69 42 86 87 0 78 -15 35 6 0 37 88 0 17 86 0 89 25 78 64 37 87 0
 0 +16 87 11 90 ?86 73 61 91 0 0 1 17 78 0 89 86 80 42 67 79 0 0 -15 89 189 0 80
 17 0 17 80 0 89 78 25 50 92 93 0 0 -16 79 181 94 ?67 81 84 20 0 0 1 81 1 94 282
 31 79 0 0 95 96 97 16 81 179 95 ?59 26 79 98 0 0 1 16 84 41 99 ?82 79 39 100 0
 0 1 30 20 197 0 79 101 8 0 +-1.4732 2.54 2.97040080219812 -1 0 0 30 101 196 0 2
6 98 20 0 +-1.4732 1.246843118566042 3.99415 -1 0 0 16 26 180 102 ?62 11 81 101
 0 0 1 30 98 195 0 81 103 101 0 +-1.4732 1.516250802198115 3.99415 -1 0 0 30 103
 171 0 61 104 98 0 +-1.6637 1.38154696038208 3.99415 0 1 0 16 61 132 96 ?60 87 6
8 103 0 0 1 30 104 172 0 68 105 103 0 +-1.6637 2.19640040109906 3.31400040109906
 0 .707106781186548 -.707106781186548 16 68 136 106 ?51 61 107 104 0 0 1 30 105
 173 0 107 108 104 0 +-1.6637 2.23582252440755 3.005170594158495 0 -.70710678118
6548 .707106781186548 16 107 142 109 ?110 68 93 105 0 0 1 30 108 174 0 93 100 10
5 0 +-1.6637 2.54 4.81838 0 0 -1 16 93 150 111 ?92 107 0 108 0 0 1 30 100 43 0 8
4 85 108 0 +-1.4732 1.38154696038208 3.99415 0 1 0 30 85 33 0 39 112 100 0 +-1.4
732 2.19640040109906 3.31400040109906 0 .707106781186548 -.707106781186548 30 11
2 18 0 73 91 85 0 +-1.4732 2.23582252440755 3.005170594158495 0 -.70710678118654
8 .707106781186548 16 73 16 113 ?72 39 87 112 0 0 1 30 91 13 0 87 0 112 0 +-1.47
32 2.54 4.81838 0 0 -1 81 1 113 288 31 73 0 0 109 106 114 17 72 0 115 62 74 29 6
9 73 0 0 +15 115 187 0 49 116 0 17 62 0 115 49 72 52 58 26 0 110 +17 74 0 115 72
 49 64 25 11 0 86 -17 49 0 115 74 62 46 110 107 0 25 -17 25 0 89 80 86 46 74 11
 0 92 +17 92 0 117 110 51 46 80 93 0 0 +15 117 131 0 92 118 0 17 110 0 117 60 92
 52 49 107 0 0 +17 51 0 117 92 60 50 63 68 0 67 +17 60 0 117 51 110 21 54 61 0 0
 +14 255 118 120 119 ?0 88 117 6 120 +0 0 0 88 23 81 1 119 306 121 118 122 0 123
 0 124 14 88 1 123 ?118 77 35 6 125 -0 0 118 77 23 50 120 170 0 118 125 126 0 +-
1.6637 0 2.40919 -1 0 0 0 -1 0 13 23 199 0 0 0 0 0 0 10 17 14 17 190 127 ?116 0
 89 6 7 +0 0 116 0 23 81 1 127 301 121 17 128 0 0 129 130 14 116 188 129 ?131 17
 115 6 19 +0 0 131 17 23 81 1 129 302 121 116 132 0 127 133 134 14 131 184 133 ?
77 116 57 6 126 +0 0 77 116 23 50 19 193 0 116 135 7 0 +-1.4732 2.23582252440755
 3.005170594158495 0 -.707106781186548 -.707106781186548 0 -.707106781186548 .70
7106781186548 50 135 192 0 77 126 19 0 +-1.4732 2.19640040109906 3.3140004010990
6 0 .707106781186548 .707106781186548 0 .707106781186548 -.707106781186548 14 77
 186 136 ?88 131 66 6 135 +0 0 88 131 23 50 126 191 0 131 120 135 0 +-1.4732 1.3
8154696038208 3.99415 0 0 1 -1 0 0 81 1 136 304 121 77 137 0 133 123 138 80 7 CC
CCCDI12 legal_owners0 17 1 lCZ1 121 0 139 8001 0 0 0 0 3 5 0 0 0 FFFFTFTFFFFFFFF
FF2 81 1 137 296 31 77 0 136 132 140 141 81 1 133 303 121 131 142 0 129 136 143
 81 1 123 305 121 88 144 0 136 119 145 83 255 3 138 .972549019607843 .5294117647
05882 .00392156862745098 81 1 144 293 31 88 0 123 122 128 146 83 3 145 .97254901
9607843 .529411764705882 .00392156862745098 80 1 31 147 148 9000 0 0 0 0 3 6 0 0
 0 FFTFTFTTFFFFFFFFF1 81 1 122 292 31 118 0 119 142 144 149 81 1 128 294 31 17 0
 127 144 132 150 82 255 3 146 182 8 2 81 1 132 295 31 116 0 129 128 137 151 82 3
 150 182 9 2 82 3 151 182 10 2 81 1 142 291 31 131 0 133 83 122 152 82 3 149 182
 7 2 81 1 83 290 31 39 0 0 106 142 153 82 3 152 182 6 2 81 1 106 289 31 68 0 0 1
13 83 154 82 3 153 182 23 1 82 3 154 182 22 1 79 255 9 148 BTI/DetId83 3 143 .97
2549019607843 .529411764705882 .00392156862745098 81 1 140 297 31 1 0 155 137 0
 156 82 3 141 182 11 2 81 1 155 298 157 1 140 14 0 0 158 82 3 156 182 1 3 80 1 1
57 159 160 8038 0 0 0 0 0 0 0 0 0 TTTTTTTTTTTTTFTFT10 81 1 14 299 159 1 155 2 0
 0 161 98 255 8 158 80 97 114 116 32 51 48 55 80 1 159 162 163 8017 0 0 0 0 0 0
 0 0 0 TTTTTTTTTTTTTFTFT3 84 255 8 161 Part 30779 13 163 SDL/TYSA_NAME79 14 160
 SDL/TYSA_UNAME79 15 139 SDL/TYSA_COLOUR15 57 183 0 54 131 0 83 3 134 .972549019
607843 .529411764705882 .00392156862745098 83 3 130 .972549019607843 .5294117647
05882 .00392156862745098 50 125 3 0 88 0 120 0 +-1.4732 0 2.40919 -1 0 0 0 -1 0
 83 3 124 .972549019607843 .529411764705882 .00392156862745098 17 58 0 57 82 54
 29 62 26 0 72 -17 82 0 57 59 58 12 36 84 0 0 +17 59 0 57 54 82 21 40 81 0 60 +1
7 36 0 35 69 28 29 82 84 0 58 -81 1 109 287 31 107 0 0 90 113 164 82 3 114 182 2
1 1 81 1 90 286 31 87 0 0 111 109 165 82 3 164 182 20 1 81 1 111 285 31 93 0 0 9
9 90 166 82 3 165 182 19 1 81 1 99 284 31 84 0 0 96 111 167 82 3 166 182 18 1 81
 1 96 283 31 61 0 0 94 99 168 82 3 167 182 17 1 82 3 168 182 16 1 81 1 102 280 3
1 26 0 0 24 95 169 81 1 24 279 31 11 0 0 75 102 170 81 1 95 281 31 81 0 0 102 94
 171 82 3 169 182 13 1 82 3 171 182 14 1 82 3 170 182 12 1 82 3 97 182 15 1 81 1
 33 277 31 50 0 0 27 75 172 82 3 76 182 15 0 82 3 172 182 14 0 81 1 48 271 31 46
 0 0 0 55 173 82 3 71 182 9 0 82 3 173 182 8 0 81 1 41 274 31 29 0 0 53 32 174 8
2 3 65 182 12 0 82 3 174 182 11 0 82 3 56 182 10 0 82 3 34 182 13 0 19 18 200 0
 1 0 10 6 0 S0 74 4 CI16 index_map_offset0 0 1 dCCZ20 16 5 0 0 140 155 14 2 119
 0 0 0 0 0 0 0 0 0 0 0 0 0 0 0 80 1 13 121 175 8040 0 0 0 0 3 5 0 0 0 TTTFFFFFFF
FFFFFFF2 83 3 15 .972549019607843 .529411764705882 .00392156862745098 79 17 175
 SDL/TYSA_COLOUR_21 0 
