**ABCDEFGHIJKLMNOPQRSTUVWXYZabcdefghijklmnopqrstuvwxyz**************************
**PARASOLID !"#$%&'()*+,-./:;<=>?@[\]^_`{|}~0123456789**************************
**PART1;
MC=unknown;
MC_MODEL=unknown;
MC_ID=unknown;
OS=unknown;
OS_RELEASE=unknown;
FRU=Parasolid 36.0.180;
APPL=Onshape;
SITE=unknown;
USER=unknown;
FORMAT=text;
GUISE=transmit;
KEY=BTGapi::writeModels_.xmt;
FILE=BTGapi::writeModels_.xmt;
DATE=2024-05-15T00:06:35 (UTC);
**PART2;
SCH=SCH_3600180_36001;
USFLD_SIZE=0;
**PART3;
**END_OF_HEADER*****************************************************************
T51 : TRANSMIT FILE created by modeller version 360018023 SCH_3600180_36001_1300
6231 0 12 36 CCCI7 lattice222 0 CCCI4 mesh1006 0 I8 polyline1008 0 CCCCCCCDI5 ow
ner1040 0 CCCI16 boundary_lattice222 0 CCCI13 boundary_mesh1006 0 I17 boundary_p
olyline1008 0 CCCA16 index_map_offset0 0 1 dA9 index_map82 0 A17 node_id_index_m
ap82 0 A20 schema_embedding_map82 0 A5 child12 0 A14 lowest_node_id0 0 1 dA16 me
sh_offset_data206 0 Z1 205 2 3 0 0 0 0 0 0 0 1e3 1e-8 0 4 5 1 0 1 2 6 0 7 8 9 0
 0 10 11 12 0 0 0 0 0 0 0 81 255 1 2 199 13 1 14 0 0 0 15 70 11 CI9 list_type0 0
 1 uI10 notransmit0 0 1 lCCCDCCDI12 finger_index0 0 1 dI12 finger_block1012 0 CZ
3 0 4 T1 0 0 5 20 1 16 16 13 255 6 128 0 1 0 17 0 0 18 0 50 255 7 123 0 19 20 0
 0 +-.6731 3.833766411677255 4.27942299870738 -1 150129908673195e-30 -1031012625
827964e-31 150129908673195e-30 1 0 30 255 8 127 0 21 22 0 0 +-.6731 4.3362789556
00445 3.93432402276013 0 -.566107244007959 -.824331600923871 29 255 9 104 0 23 2
4 0 .03810000000000135 4.32774135072675 3.921892071803695 19 9 CCCCCCI5 frame230
 0 CA5 owner12 0 Z10 1 0 1 18 0 25 0 V0 16 255 11 108 26 ?27 0 28 29 0 0 1 18 25
5 12 20 30 31 0 32 33 ?1 81 1 30 175 34 12 0 0 35 36 37 17 255 31 0 38 39 40 12
 41 42 0 43 -18 32 23 44 40 12 45 46 ?1 29 33 39 0 12 46 47 .03810000000000135 4
.336278955600445 3.93432402276013 29 46 38 0 32 48 33 .0381000000000014 3.331253
867754065 4.62452197465463 29 47 107 0 49 33 50 -.6731 4.32774135072675 3.921892
071803695 18 49 95 51 52 53 0 47 ?1 29 50 106 0 53 47 24 -.6731 3.32271626288036
5 4.6120900236982 18 53 91 54 55 56 49 50 ?1 29 24 105 0 56 50 9 .03810000000000
14 3.32271626288037 4.6120900236982 18 56 87 36 57 23 53 24 ?1 81 1 36 176 34 56
 0 0 30 44 58 17 57 0 59 60 61 56 62 63 0 64 +18 23 83 35 65 66 56 9 ?1 81 1 35
 174 34 23 0 0 67 30 68 17 65 0 69 43 64 23 70 71 0 27 -18 66 29 72 73 45 23 74
 ?1 81 1 72 171 34 66 0 0 51 54 75 17 73 0 76 77 78 66 79 80 0 39 -18 45 26 67 7
9 32 66 48 ?1 29 74 36 0 66 0 48 -.6731 4.336278955600445 3.93432402276013 29 48
 37 0 45 74 46 -.6731 3.33125386775406 4.62452197465463 81 1 67 173 34 45 0 0 54
 35 81 17 79 0 38 40 39 45 73 80 0 78 +15 255 38 7 0 39 82 0 17 40 0 38 31 79 32
 83 84 0 60 +17 39 0 38 79 31 66 85 86 0 87 -16 80 17 88 ?79 84 89 90 0 0 1 17 7
8 0 76 73 55 45 61 91 0 83 -15 76 118 0 55 19 0 17 55 0 76 78 77 53 52 92 0 61 +
17 61 0 59 57 83 53 78 91 0 62 +16 91 110 93 ?61 28 21 22 0 0 1 17 83 0 59 61 60
 45 40 84 0 0 -15 59 116 0 57 94 0 17 60 0 59 83 57 32 64 28 0 41 -16 84 14 95 ?
40 42 80 96 0 0 1 81 1 95 187 34 84 0 0 97 98 99 16 42 11 100 ?41 86 84 101 0 0
 1 30 96 33 0 84 90 101 0 +-.3175 3.331253867754065 4.62452197465463 1 0 0 30 90
 32 0 80 0 96 0 +-.6731 3.833766411677255 4.27942299870738 -1821231995776175e-31
 -.824331600923871 .566107244007959 30 101 34 0 42 96 102 0 +.0381000000000013 3
.833766411677255 4.27942299870738 -187814549564418e-30 -.824331600923871 .566107
24400796 30 102 35 0 86 101 103 0 +-.3175 4.336278955600445 3.93432402276013 1 0
 0 16 86 8 104 ?85 21 42 102 0 0 1 30 103 103 0 92 102 105 0 +-.6731 3.825228806
80356 4.26699104775095 -1821231995776175e-31 -.824331600923871 .566107244007959
 16 92 79 106 ?55 63 0 103 0 0 1 30 105 102 0 63 103 107 0 +-.3175 3.32271626288
037 4.6120900236982 1 0 0 16 63 75 97 ?57 71 92 105 0 0 1 30 107 101 0 71 105 10
8 0 +.0381000000000013 3.82522880680356 4.266991047750945 -187814549564418e-30 -
.824331600923871 .56610724400796 16 71 71 109 ?70 89 63 107 0 0 1 30 108 100 0 8
9 107 29 0 +-.3175 4.32774135072675 3.921892071803695 1 0 0 16 89 67 98 ?110 80
 71 108 0 0 1 30 29 124 0 11 108 111 0 +.03810000000000135 4.336278955600445 3.9
3432402276013 0 -.566107244007959 -.824331600923871 30 111 125 0 28 29 22 0 +.03
81000000000014 3.331253867754065 4.62452197465463 0 -.566107244007959 -.82433160
0923871 16 28 109 112 ?64 11 91 111 0 0 1 30 22 126 0 91 111 8 0 +-.6731 3.33125
386775406 4.62452197465463 0 -.566107244007959 -.824331600923871 81 1 112 181 34
 28 0 0 26 106 113 17 64 0 69 65 41 56 60 28 0 70 +15 69 114 0 65 114 0 17 41 0
 69 64 43 32 31 42 0 0 +17 70 0 115 62 110 56 65 71 0 0 +15 115 66 0 110 116 0 1
7 62 0 115 52 70 53 57 63 0 0 -17 110 0 115 70 52 23 117 89 0 0 +17 52 0 115 110
 62 49 55 92 0 77 -17 117 0 118 87 27 49 110 89 0 0 -15 118 112 0 117 17 0 17 87
 0 118 85 117 66 77 21 0 0 -17 27 0 118 117 85 23 43 11 0 110 +17 85 0 118 27 87
 12 39 86 0 0 +17 43 0 69 41 65 12 27 11 0 85 -17 77 0 76 55 73 49 87 21 0 117 +
16 21 111 119 ?77 91 86 8 0 0 1 81 1 119 178 34 21 0 0 44 93 120 80 7 CCCCCDI12
 legal_owners0 17 1 lCZ1 34 121 122 9000 0 0 0 0 3 6 0 0 0 FFTFTFTTFFFFFFFFF1 81
 1 44 177 34 32 0 0 36 119 123 81 1 93 179 34 91 0 0 119 26 124 82 255 3 120 120
 0 1 81 1 26 180 34 11 0 0 93 112 125 82 3 124 120 2 1 82 3 125 120 3 1 82 3 123
 120 11 0 79 255 9 122 BTI/DetId14 255 17 113 126 ?114 0 118 6 127 -0 0 114 0 25
 81 1 126 200 128 17 129 0 0 130 131 14 114 115 130 ?94 17 69 6 132 -0 0 94 17 2
5 50 127 120 0 17 133 132 0 +-.3175 4.336278955600445 3.93432402276013 0 -.82433
1600923871 .566107244007959 0 .56610724400796 .824331600923872 13 25 3 0 0 0 0 0
 0 10 17 50 133 99 0 116 134 127 0 +-.3175 2.17465501836173 5.40051762535558 0 .
56610724400796 .824331600923871 1 0 0 50 132 121 0 114 127 20 0 +.03810000000000
13 3.833766411677255 4.27942299870738 -1 1548214683192325e-31 -106323177038509e-
30 1548214683192325e-31 1 0 50 20 122 0 94 132 7 0 +-.3175 3.331253867754065 4.6
2452197465463 0 -.824331600923871 .566107244007959 0 .56610724400796 .8243316009
23872 14 94 117 135 ?19 114 59 6 20 +0 0 19 114 25 81 1 135 202 128 94 136 0 130
 137 138 14 19 119 137 ?82 94 76 6 7 +0 0 82 94 25 81 1 137 203 128 19 139 0 135
 140 141 14 82 4 140 ?116 19 38 6 134 +0 0 116 19 25 81 1 140 204 128 82 142 0 1
37 143 144 14 116 59 143 ?0 82 115 6 133 -0 0 0 82 25 50 134 40 0 82 0 133 0 +-.
3175 2.183192623235425 5.41294957631201 0 .56610724400796 .824331600923871 1 0 0
 81 1 143 205 128 116 145 0 140 0 146 80 1 128 0 147 8001 0 0 0 0 3 5 0 0 0 FFFF
TFTFFFFFFFFFF2 81 1 145 191 34 116 0 143 139 142 148 83 255 3 146 .7686274509803
92 .886274509803922 .952941176470588 81 1 139 190 34 19 0 137 104 145 149 81 1 1
42 192 34 82 0 140 145 150 151 82 3 148 120 4 2 81 1 150 193 34 114 0 130 142 13
6 152 82 3 151 120 5 2 81 1 130 201 128 114 150 0 126 135 153 81 1 136 194 34 94
 0 135 150 129 154 82 3 152 120 9 2 81 1 129 195 34 17 0 126 136 155 156 82 3 15
4 120 10 2 81 1 155 196 34 1 0 157 129 0 158 82 3 156 120 11 2 81 1 157 197 159
 1 155 14 0 0 160 82 3 158 120 1 3 80 1 159 161 162 8038 0 0 0 0 0 0 0 0 0 TTTTT
TTTTTTTTFTFT10 81 1 14 198 161 1 157 2 0 0 163 98 255 8 160 80 97 114 116 32 49
 55 50 80 1 161 164 165 8017 0 0 0 0 0 0 0 0 0 TTTTTTTTTTTTTFTFT3 84 255 8 163 P
art 17279 13 165 SDL/TYSA_NAME79 14 162 SDL/TYSA_UNAME83 3 153 .768627450980392
 .886274509803922 .952941176470588 81 1 104 189 34 86 0 0 98 139 166 82 3 149 12
0 3 2 81 1 98 188 34 89 0 0 95 104 167 82 3 166 120 39 1 82 3 167 120 38 1 79 15
 147 SDL/TYSA_COLOUR83 3 144 .768627450980392 .886274509803922 .952941176470588
 83 3 141 .768627450980392 .886274509803922 .952941176470588 83 3 138 .768627450
980392 .886274509803922 .952941176470588 83 3 131 .768627450980392 .886274509803
922 .952941176470588 81 1 106 182 34 92 0 0 112 88 168 82 3 113 120 5 1 81 1 88
 183 34 80 0 0 106 109 169 82 3 168 120 30 1 81 1 109 184 34 71 0 0 88 100 170 8
2 3 169 120 31 1 81 1 100 185 34 42 0 0 109 97 171 82 3 170 120 34 1 81 1 97 186
 34 63 0 0 100 95 172 82 3 171 120 35 1 82 3 172 120 36 1 82 3 99 120 37 1 81 1
 54 172 34 53 0 0 72 67 173 82 3 81 120 5 0 82 3 173 120 4 0 81 1 51 170 34 49 0
 0 0 72 174 82 3 75 120 1 0 82 3 174 120 0 0 82 3 68 120 6 0 82 3 58 120 10 0 82
 3 37 120 7 0 19 18 129 0 1 0 10 6 0 S0 74 4 CI16 index_map_offset0 0 1 dCCZ20 1
6 5 0 0 155 157 14 2 143 0 0 0 0 0 0 0 0 0 0 0 0 0 0 0 80 1 13 128 175 8040 0 0
 0 0 3 5 0 0 0 TTTFFFFFFFFFFFFFF2 83 3 15 .768627450980392 .886274509803922 .952
941176470588 79 17 175 SDL/TYSA_COLOUR_21 0 
