**ABCDEFGHIJKLMNOPQRSTUVWXYZabcdefghijklmnopqrstuvwxyz**************************
**PARASOLID !"#$%&'()*+,-./:;<=>?@[\]^_`{|}~0123456789**************************
**PART1;
MC=unknown;
MC_MODEL=unknown;
MC_ID=unknown;
OS=unknown;
OS_RELEASE=unknown;
FRU=Parasolid 36.0.180;
APPL=Onshape;
SITE=unknown;
USER=unknown;
FORMAT=text;
GUISE=transmit;
KEY=BTGapi::writeModels_.xmt;
FILE=BTGapi::writeModels_.xmt;
DATE=2024-05-15T00:06:35 (UTC);
**PART2;
SCH=SCH_3600180_36001;
USFLD_SIZE=0;
**PART3;
**END_OF_HEADER*****************************************************************
T51 : TRANSMIT FILE created by modeller version 360018023 SCH_3600180_36001_1300
6231 0 12 36 CCCI7 lattice222 0 CCCI4 mesh1006 0 I8 polyline1008 0 CCCCCCCDI5 ow
ner1040 0 CCCI16 boundary_lattice222 0 CCCI13 boundary_mesh1006 0 I17 boundary_p
olyline1008 0 CCCA16 index_map_offset0 0 1 dA9 index_map82 0 A17 node_id_index_m
ap82 0 A20 schema_embedding_map82 0 A5 child12 0 A14 lowest_node_id0 0 1 dA16 me
sh_offset_data206 0 Z1 170 2 3 0 0 0 0 0 0 0 1e3 1e-8 0 4 5 1 0 1 2 6 0 7 8 9 0
 0 10 11 12 0 0 0 0 0 0 0 81 255 1 2 164 13 1 14 0 0 0 15 70 11 CI9 list_type0 0
 1 uI10 notransmit0 0 1 lCCCDCCDI12 finger_index0 0 1 dI12 finger_block1012 0 CZ
3 0 4 T1 0 0 5 20 1 16 16 13 255 6 5 0 1 0 17 0 0 18 0 50 255 7 90 0 19 20 0 0 +
.09525 -4.306175445607745 3.890485554257215 1 0 0 0 0 -1 30 255 8 98 0 21 22 0 0
 +.09525 -4.173167416413585 3.69680719595695 0 .824331600923871 .56610724400796
 29 255 9 85 0 12 23 0 -.09525 -4.12082071109172 3.73275613816594 19 9 CCCCCCI5
 frame230 0 CA5 owner12 0 Z10 1 0 1 18 0 24 0 V0 16 255 11 29 25 ?26 0 27 28 0 0
 1 18 255 12 53 29 30 0 31 9 ?1 81 1 29 135 32 12 0 0 0 33 34 17 255 30 0 35 36
 37 12 38 39 0 40 +18 31 57 41 42 12 43 23 ?1 81 1 41 139 32 31 0 0 44 45 46 17
 42 0 47 48 49 31 50 51 0 36 +18 43 61 52 53 31 54 55 ?1 29 23 84 0 31 55 9 -.09
525 -3.959055566116445 3.497203383201945 29 55 83 0 43 56 23 .09525 -3.959055566
116445 3.497203383201945 29 56 82 0 54 57 55 .09525 -4.12082071109172 3.73275613
816594 18 54 65 58 59 43 60 56 ?1 29 57 81 0 60 61 56 .09525 -4.173165767750385
 3.69680832817144 18 60 69 62 63 54 64 57 ?1 29 61 80 0 64 65 57 .09525 -4.01140
062277511 3.46125557320744 18 64 70 44 66 60 67 61 ?1 29 65 79 0 67 68 61 -.0952
5 -4.01140062277511 3.46125557320744 18 67 71 45 49 64 69 65 ?1 29 68 78 0 69 0
 65 -.09525 -4.173165767750385 3.69680832817144 18 69 72 33 38 67 0 68 ?1 81 1 3
3 136 32 69 0 0 29 52 70 17 38 0 71 72 73 69 30 39 0 74 -15 255 71 25 0 38 75 0
 17 72 0 71 59 38 60 74 76 0 77 +17 73 0 71 38 59 12 26 11 0 0 -16 39 48 78 ?30
 51 79 80 0 0 1 17 74 0 81 82 63 69 72 76 0 37 -15 81 8 0 74 17 0 17 82 0 81 83
 74 67 37 84 0 50 +17 63 0 81 74 83 60 66 79 0 72 -16 76 51 85 ?72 86 84 87 0 0
 1 17 37 0 35 30 50 69 82 84 0 0 -15 35 11 0 37 88 0 17 50 0 35 37 36 67 42 51 0
 0 -16 84 52 89 ?82 76 0 90 0 0 1 81 1 89 150 32 84 0 0 91 92 93 30 90 94 0 84 8
7 80 0 +-.09525 -4.30617379694454 3.890486686471705 0 .566107244007959 -.8243316
00923871 30 87 93 0 76 94 90 0 +0 -4.173165767750385 3.69680832817144 1 0 0 30 8
0 95 0 39 90 95 0 +-.09525 -4.173167416413585 3.69680719595695 0 .82433160092387
1 .56610724400796 30 95 96 0 51 80 22 0 +-.09525 -4.01140227143831 3.46125444099
295 0 .824331600923871 .56610724400796 16 51 47 96 ?42 97 39 95 0 0 1 30 22 97 0
 97 95 8 0 +.09525 -4.01140227143831 3.46125444099295 0 .824331600923871 .566107
24400796 16 97 46 98 ?53 21 51 22 0 0 1 81 1 98 144 32 97 0 0 78 96 99 17 53 0 1
00 101 66 43 102 97 0 48 +16 21 45 103 ?59 104 97 8 0 0 1 81 1 103 146 32 21 0 0
 96 105 106 17 59 0 71 73 72 54 77 21 0 26 +16 104 41 105 ?107 108 21 109 0 0 1
 81 1 105 147 32 104 0 0 103 110 111 17 107 0 112 113 26 43 101 104 0 0 +16 108
 37 92 ?113 27 104 114 0 0 1 30 109 74 0 104 0 114 0 +.09525 -4.25382874028588 3
.92643449646621 0 .56610724400796 -.824331600923871 30 114 75 0 108 109 115 0 +0
 -3.959055566116445 3.497203383201945 -1 0 0 30 115 76 0 27 114 28 0 +-.09525 -4
.25382874028588 3.92643449646621 0 .56610724400796 -.824331600923871 16 27 33 91
 ?36 11 108 115 0 0 1 30 28 77 0 11 115 116 0 +0 -4.12082071109172 3.73275613816
594 1 0 0 30 116 91 0 79 28 94 0 +.09525 -4.306173796944545 3.890486686471705 0
 .566107244007959 -.824331600923871 16 79 49 110 ?66 39 86 116 0 0 1 30 94 92 0
 86 116 87 0 +0 -4.01140062277511 3.46125557320744 -1 0 0 16 86 50 117 ?49 79 76
 94 0 0 1 81 1 117 152 32 86 0 0 92 25 118 17 49 0 47 42 102 67 83 86 0 82 +15 4
7 22 0 102 119 0 17 102 0 47 49 48 64 53 97 0 0 -17 83 0 81 63 82 64 49 86 0 102
 -17 48 0 47 102 42 43 113 108 0 107 -17 113 0 112 40 107 31 48 108 0 0 +15 112
 19 0 26 120 0 17 40 0 112 26 113 12 36 27 0 73 -17 26 0 112 107 40 54 73 11 0 1
01 +17 36 0 35 50 30 31 40 27 0 113 +17 101 0 100 77 53 54 107 104 0 0 -15 100 2
8 0 77 19 0 17 77 0 100 66 101 60 59 21 0 0 -17 66 0 100 53 77 64 63 79 0 83 +14
 255 19 26 121 ?0 75 100 6 7 +0 0 17 75 24 81 1 121 170 122 19 123 0 124 0 125 1
4 75 23 124 ?19 119 71 6 126 +0 0 19 119 24 14 17 6 127 ?88 0 81 6 128 +0 0 0 19
 24 13 24 3 0 0 0 0 0 0 10 88 14 88 9 129 ?120 17 35 6 130 -0 0 120 0 24 81 1 12
9 166 122 88 131 0 127 132 133 14 120 12 132 ?119 88 112 6 134 -0 0 119 88 24 50
 130 88 0 88 126 20 0 +-.09525 -4.306175445607745 3.890485554257215 1 0 0 0 0 -1
 50 126 87 0 75 128 130 0 +0 -4.173167416413585 3.69680719595695 0 -.56610724400
796 .824331600923871 0 -.824331600923871 -.56610724400796 50 20 89 0 119 130 7 0
 +0 -4.01140227143831 3.461254440992955 0 .56610724400796 -.824331600923871 0 .8
24331600923871 .56610724400796 14 119 20 135 ?75 120 47 6 20 +0 0 75 120 24 81 1
 135 168 122 119 136 0 132 124 137 80 7 CCCCCDI12 legal_owners0 17 1 lCZ1 122 0
 138 8001 0 0 0 0 3 5 0 0 0 FFFFTFTFFFFFFFFFF2 81 1 136 159 32 119 0 135 131 139
 140 81 1 132 167 122 120 141 0 129 135 142 81 1 124 169 122 75 139 0 135 121 14
3 83 255 3 137 .972549019607843 .529411764705882 .00392156862745098 81 1 139 160
 32 75 0 124 136 144 145 83 3 143 .972549019607843 .529411764705882 .00392156862
745098 80 1 32 146 147 9000 0 0 0 0 3 6 0 0 0 FFTFTFTTFFFFFFFFF1 81 1 144 161 32
 1 0 148 139 0 149 82 255 3 145 152 53 2 81 1 148 162 150 1 144 14 0 0 151 82 3
 149 152 8 3 80 1 150 152 153 8038 0 0 0 0 0 0 0 0 0 TTTTTTTTTTTTTFTFT10 81 1 14
 163 152 1 148 2 0 0 154 98 255 8 151 80 97 114 116 32 50 53 53 80 1 152 155 156
 8017 0 0 0 0 0 0 0 0 0 TTTTTTTTTTTTTFTFT3 84 255 8 154 Part 25579 255 13 156 SD
L/TYSA_NAME79 14 153 SDL/TYSA_UNAME79 9 147 BTI/DetId81 1 141 156 32 120 0 132 1
23 157 158 83 3 142 .972549019607843 .529411764705882 .00392156862745098 81 1 12
3 155 32 19 0 121 85 141 159 81 1 157 157 32 17 0 127 141 131 160 82 3 158 152 4
9 2 81 1 127 165 122 17 157 0 0 129 161 81 1 131 158 32 88 0 129 157 136 162 82
 3 160 152 50 2 82 3 162 152 51 2 83 3 161 .972549019607843 .529411764705882 .00
392156862745098 81 1 85 154 32 76 0 0 25 123 163 82 3 159 152 48 2 81 1 25 153 3
2 11 0 0 117 85 164 82 3 163 152 107 1 82 3 164 152 106 1 82 3 140 152 52 2 79 1
5 138 SDL/TYSA_COLOUR50 128 86 0 17 134 126 0 +-.8763 -4.306172664730055 3.89048
50378085 0 -.824331600923871 -.566107244007959 0 .566107244007959 -.824331600923
871 50 134 73 0 120 0 128 0 +1.56845 -4.106441587093915 3.711818115502475 0 -.82
4331600923871 -.56610724400796 1 0 0 83 3 133 .972549019607843 .529411764705882
 .00392156862745098 83 3 125 .972549019607843 .529411764705882 .0039215686274509
8 81 1 92 151 32 108 0 0 89 117 165 82 3 118 152 105 1 82 3 165 152 104 1 81 1 1
10 148 32 79 0 0 105 91 166 81 1 91 149 32 27 0 0 110 89 167 82 3 166 152 101 1
 82 3 167 152 102 1 82 3 111 152 100 1 81 1 96 145 32 51 0 0 98 103 168 82 3 106
 152 99 1 82 3 168 152 98 1 81 1 78 143 32 39 0 0 62 98 169 82 3 99 152 97 1 81
 1 62 142 32 60 0 0 58 78 170 82 3 169 152 96 1 81 1 58 141 32 54 0 0 45 62 171
 82 3 170 152 71 0 81 1 45 140 32 67 0 0 41 58 172 82 3 171 152 70 0 82 3 172 15
2 69 0 82 3 93 152 103 1 81 1 52 137 32 43 0 0 33 44 173 82 3 70 152 65 0 81 1 4
4 138 32 64 0 0 52 41 174 82 3 173 152 66 0 82 3 174 152 67 0 82 3 46 152 68 0 8
2 3 34 152 64 0 19 18 4 0 1 0 10 6 0 S0 74 4 CI16 index_map_offset0 0 1 dCCZ20 1
6 5 0 0 144 148 14 2 121 0 0 0 0 0 0 0 0 0 0 0 0 0 0 0 80 1 13 122 175 8040 0 0
 0 0 3 5 0 0 0 TTTFFFFFFFFFFFFFF2 83 3 15 .972549019607843 .529411764705882 .003
92156862745098 79 17 175 SDL/TYSA_COLOUR_21 0 
