**ABCDEFGHIJKLMNOPQRSTUVWXYZabcdefghijklmnopqrstuvwxyz**************************
**PARASOLID !"#$%&'()*+,-./:;<=>?@[\]^_`{|}~0123456789**************************
**PART1;
MC=unknown;
MC_MODEL=unknown;
MC_ID=unknown;
OS=unknown;
OS_RELEASE=unknown;
FRU=Parasolid 36.0.180;
APPL=Onshape;
SITE=unknown;
USER=unknown;
FORMAT=text;
GUISE=transmit;
KEY=BTGapi::writeModels_.xmt;
FILE=BTGapi::writeModels_.xmt;
DATE=2024-05-15T00:06:35 (UTC);
**PART2;
SCH=SCH_3600180_36001;
USFLD_SIZE=0;
**PART3;
**END_OF_HEADER*****************************************************************
T51 : TRANSMIT FILE created by modeller version 360018023 SCH_3600180_36001_1300
6231 0 12 36 CCCI7 lattice222 0 CCCI4 mesh1006 0 I8 polyline1008 0 CCCCCCCDI5 ow
ner1040 0 CCCI16 boundary_lattice222 0 CCCI13 boundary_mesh1006 0 I17 boundary_p
olyline1008 0 CCCA16 index_map_offset0 0 1 dA9 index_map82 0 A17 node_id_index_m
ap82 0 A20 schema_embedding_map82 0 A5 child12 0 A14 lowest_node_id0 0 1 dA16 me
sh_offset_data206 0 Z1 214 2 3 0 0 0 0 0 0 0 1e3 1e-8 0 4 5 1 0 1 2 6 0 7 8 9 0
 0 10 11 12 0 0 0 0 0 0 0 81 255 1 2 208 13 1 14 0 0 0 15 70 11 CI9 list_type0 0
 1 uI10 notransmit0 0 1 lCCCDCCDI12 finger_index0 0 1 dI12 finger_block1012 0 CZ
3 0 4 T1 0 0 5 20 1 16 16 13 255 6 137 0 1 0 17 0 0 18 0 50 255 7 132 0 17 19 0
 0 +1.4732 -.18415 6.62813 1 0 0 0 0 -1 30 255 8 136 0 11 20 0 0 +1.4732 -.18415
 4.2799 0 1 0 29 255 9 113 0 21 22 0 1.4732 -.09525 5.8039 19 9 CCCCCCI5 frame23
0 0 CA5 owner12 0 Z10 48 0 1 18 0 23 0 V0 16 255 11 120 24 ?25 0 26 8 0 0 1 18 2
55 12 42 27 28 0 29 30 ?1 81 1 27 184 31 12 0 0 32 33 34 17 255 28 0 35 36 37 12
 38 39 0 40 -18 29 37 41 42 12 43 44 ?1 29 30 44 0 12 44 45 1.4732 -.18415 5.803
9 29 44 39 0 29 46 30 1.6637 -.18415 5.8039 29 45 116 0 47 30 48 1.4732 -.09525
 4.2799 18 47 104 49 50 51 0 45 ?1 29 48 115 0 51 45 22 1.6637 -.09525 4.2799 18
 51 100 52 53 54 47 48 ?1 29 22 114 0 54 48 9 1.6637 -.09525 5.8039 18 54 96 33
 55 21 51 22 ?1 81 1 33 185 31 54 0 0 27 41 56 17 55 0 35 37 36 54 42 57 0 58 +1
8 21 92 32 38 59 54 9 ?1 81 1 32 183 31 21 0 0 60 27 61 17 38 0 62 63 40 21 28 3
9 0 64 +18 59 27 65 66 43 21 67 ?1 81 1 65 180 31 59 0 0 49 52 68 17 66 0 69 25
 70 59 71 72 0 73 -18 43 32 60 71 29 59 46 ?1 29 67 29 0 59 0 46 1.4732 -.18415
 4.2799 29 46 34 0 43 67 44 1.6637 -.18415 4.2799 81 1 60 182 31 43 0 0 52 32 74
 17 71 0 75 76 73 43 66 72 0 70 +15 255 75 6 0 73 77 0 17 76 0 75 78 71 29 79 80
 0 36 -17 73 0 75 71 78 59 40 81 0 82 +16 72 12 83 ?71 80 81 84 0 0 1 17 70 0 69
 66 85 43 53 26 0 79 -15 69 125 0 85 86 0 17 85 0 69 70 25 51 50 87 0 88 +17 53
 0 89 58 79 51 70 26 0 85 +16 26 119 90 ?53 11 57 20 0 0 1 17 79 0 89 53 42 43 7
6 80 0 0 +15 89 123 0 58 91 0 17 42 0 89 79 58 29 55 57 0 76 -16 80 17 92 ?79 93
 72 94 0 0 1 81 1 92 198 31 80 0 0 95 96 97 16 93 22 98 ?36 39 80 99 0 0 1 30 94
 19 0 80 84 99 0 +1.6637 -.18415 6.62813 0 0 -1 30 84 14 0 72 100 94 0 +1.56845
 -.18415 4.2799 1 0 0 30 99 24 0 93 94 101 0 +1.56845 -.18415 5.8039 1 0 0 30 10
1 112 0 102 99 103 0 +1.4732 -.09525 6.62813 0 0 -1 16 102 88 104 ?63 87 0 101 0
 0 1 30 103 111 0 87 101 105 0 +1.56845 -.09525 4.2799 1 0 0 16 87 84 106 ?85 10
7 102 103 0 0 1 30 105 110 0 107 103 108 0 +1.6637 -.09525 6.62813 0 0 -1 16 107
 80 95 ?88 109 87 105 0 0 1 30 108 109 0 109 105 110 0 +1.56845 -.09525 5.8039 1
 0 0 16 109 76 111 ?112 81 107 108 0 0 1 30 110 133 0 39 108 113 0 +1.4732 -.184
15 5.8039 0 1 0 16 39 117 114 ?38 57 93 110 0 0 1 30 113 134 0 57 110 20 0 +1.66
37 -.18415 5.8039 0 1 0 16 57 118 115 ?55 26 39 113 0 0 1 30 20 135 0 26 113 8 0
 +1.6637 -.18415 4.2799 0 1 0 81 1 115 190 31 57 0 0 114 106 116 80 7 CCCCCDI12
 legal_owners0 17 1 lCZ1 31 117 118 9000 0 0 0 0 3 6 0 0 0 FFTFTFTTFFFFFFFFF1 81
 1 114 189 31 39 0 0 90 115 119 81 1 106 191 31 87 0 0 115 83 120 82 255 3 116 3
5 15 1 81 1 83 192 31 72 0 0 106 111 121 82 3 120 35 16 1 81 1 111 193 31 109 0
 0 83 98 122 82 3 121 35 17 1 81 1 98 194 31 93 0 0 111 104 123 82 3 122 35 18 1
 81 1 104 195 31 102 0 0 98 124 125 82 3 123 35 19 1 81 1 124 196 31 81 0 0 104
 95 126 82 3 125 35 20 1 16 81 7 124 ?73 72 109 100 0 0 1 81 1 95 197 31 107 0 0
 124 92 127 82 3 126 35 21 1 82 3 127 35 22 1 30 100 9 0 81 0 84 0 +1.4732 -.184
15 6.62813 0 0 -1 81 1 90 188 31 26 0 0 24 114 128 82 3 119 35 14 1 81 1 24 187
 31 11 0 0 41 90 129 82 3 128 35 13 1 81 1 41 186 31 29 0 0 33 24 130 82 3 129 3
5 12 1 82 3 130 35 15 0 79 255 9 118 BTI/DetId17 112 0 131 88 64 54 37 109 0 0 +
15 131 75 0 64 132 0 17 88 0 131 50 112 51 58 107 0 0 +17 64 0 131 112 50 21 63
 102 0 37 -17 37 0 35 28 55 21 112 109 0 0 -15 35 121 0 37 133 0 14 255 133 122
 134 ?77 91 35 6 135 +0 0 77 91 23 81 1 134 212 136 133 137 0 138 139 140 14 77
 1 139 ?132 133 75 6 141 +0 0 132 133 23 14 91 124 138 ?133 86 89 6 142 +0 0 133
 86 23 50 135 129 0 133 143 142 0 +1.56845 -.18415 5.8039 0 0 1 1 0 0 13 23 49 0
 0 0 0 0 0 10 17 14 17 128 144 ?86 0 62 6 7 -0 0 86 0 23 81 1 144 209 136 17 145
 0 0 146 147 14 86 126 146 ?91 17 69 6 19 -0 0 91 17 23 15 62 127 0 63 17 0 17 6
3 0 62 82 38 47 64 102 0 0 +17 82 0 62 40 63 59 25 11 0 0 -17 40 0 62 38 82 12 7
3 81 0 78 -17 25 0 69 85 66 47 82 11 0 63 +17 78 0 75 73 76 12 36 93 0 0 -17 36
 0 35 55 28 29 78 93 0 0 +81 1 146 210 136 86 96 0 144 138 148 50 19 131 0 86 14
2 7 0 +1.56845 -.18415 4.2799 0 0 1 1 0 0 50 142 130 0 91 135 19 0 +1.6637 -.184
15 6.62813 1 0 0 0 0 -1 80 1 136 0 149 8001 0 0 0 0 3 5 0 0 0 FFFFTFTFFFFFFFFFF2
 81 1 96 199 31 86 0 146 92 150 151 81 1 138 211 136 91 152 0 146 134 153 83 255
 3 148 .498039215686275 .498039215686275 .498039215686275 81 1 152 204 31 91 0 1
38 145 154 155 83 3 153 .498039215686275 .498039215686275 .498039215686275 81 1
 145 203 31 17 0 144 137 152 156 81 1 154 205 31 1 0 157 152 0 158 82 3 155 35 1
1 2 81 1 157 206 159 1 154 14 0 0 160 82 3 158 35 1 3 80 1 159 161 162 8038 0 0
 0 0 0 0 0 0 0 TTTTTTTTTTTTTFTFT10 81 1 14 207 161 1 157 2 0 0 163 98 255 7 160
 80 97 114 116 32 50 53 80 1 161 164 165 8017 0 0 0 0 0 0 0 0 0 TTTTTTTTTTTTTFTF
T3 84 255 7 163 Part 2579 13 165 SDL/TYSA_NAME79 14 162 SDL/TYSA_UNAME81 1 137 2
02 31 133 0 134 166 145 167 82 3 156 35 10 2 81 1 166 201 31 77 0 139 150 137 16
8 82 3 167 35 9 2 81 1 139 213 136 77 166 0 134 169 170 81 1 150 200 31 132 0 16
9 96 166 171 82 3 168 35 8 2 14 132 68 169 ?0 77 131 6 143 -0 0 0 77 23 81 1 169
 214 136 132 150 0 139 0 172 82 3 171 35 7 2 83 3 172 .498039215686275 .49803921
5686275 .498039215686275 50 143 108 0 132 141 135 0 +1.56845 -.09525 5.142865 0
 -1 0 1 0 0 50 141 3 0 77 0 143 0 +1.56845 -.18415 5.142865 0 -1 0 1 0 0 83 3 17
0 .498039215686275 .498039215686275 .498039215686275 82 3 151 35 6 2 79 15 149 S
DL/TYSA_COLOUR83 3 147 .498039215686275 .498039215686275 .498039215686275 83 3 1
40 .498039215686275 .498039215686275 .498039215686275 17 50 0 131 64 88 47 85 87
 0 25 -17 58 0 89 42 53 54 88 107 0 112 -82 3 97 35 23 1 81 1 52 181 31 51 0 0 6
5 60 173 82 3 74 35 11 0 82 3 173 35 10 0 81 1 49 179 31 47 0 0 0 65 174 82 3 68
 35 9 0 82 3 174 35 8 0 82 3 61 35 12 0 82 3 56 35 14 0 82 3 34 35 13 0 19 18 13
8 0 1 0 10 6 0 S0 74 4 CI16 index_map_offset0 0 1 dCCZ20 16 5 0 0 154 157 14 2 1
69 0 0 0 0 0 0 0 0 0 0 0 0 0 0 0 80 1 13 136 175 8040 0 0 0 0 3 5 0 0 0 TTTFFFFF
FFFFFFFFF2 83 3 15 .498039215686275 .498039215686275 .498039215686275 79 17 175
 SDL/TYSA_COLOUR_21 0 
