**ABCDEFGHIJKLMNOPQRSTUVWXYZabcdefghijklmnopqrstuvwxyz**************************
**PARASOLID !"#$%&'()*+,-./:;<=>?@[\]^_`{|}~0123456789**************************
**PART1;
MC=unknown;
MC_MODEL=unknown;
MC_ID=unknown;
OS=unknown;
OS_RELEASE=unknown;
FRU=Parasolid 36.0.180;
APPL=Onshape;
SITE=unknown;
USER=unknown;
FORMAT=text;
GUISE=transmit;
KEY=BTGapi::writeModels_.xmt;
FILE=BTGapi::writeModels_.xmt;
DATE=2024-05-15T00:06:35 (UTC);
**PART2;
SCH=SCH_3600180_36001;
USFLD_SIZE=0;
**PART3;
**END_OF_HEADER*****************************************************************
T51 : TRANSMIT FILE created by modeller version 360018023 SCH_3600180_36001_1300
6231 0 12 36 CCCI7 lattice222 0 CCCI4 mesh1006 0 I8 polyline1008 0 CCCCCCCDI5 ow
ner1040 0 CCCI16 boundary_lattice222 0 CCCI13 boundary_mesh1006 0 I17 boundary_p
olyline1008 0 CCCA16 index_map_offset0 0 1 dA9 index_map82 0 A17 node_id_index_m
ap82 0 A20 schema_embedding_map82 0 A5 child12 0 A14 lowest_node_id0 0 1 dA16 me
sh_offset_data206 0 Z1 557 2 3 0 0 0 0 0 0 0 1e3 1e-8 0 4 5 1 0 1 2 6 0 7 8 9 0
 0 10 11 12 0 0 0 0 0 0 0 81 255 1 2 551 13 1 14 0 0 0 15 70 11 CI9 list_type0 0
 1 uI10 notransmit0 0 1 lCCCDCCDI12 finger_index0 0 1 dI12 finger_block1012 0 CZ
3 0 4 T1 0 0 5 20 1 16 16 13 255 6 397 0 1 0 17 0 0 18 0 50 255 7 392 0 19 20 0
 0 +1.7526 2.00608042208161 5.18504766194396 0 -.566107244007959 -.8243316009238
71 0 -.824331600923871 .566107244007959 30 255 8 396 0 21 22 0 0 +1.7526 4.17316
5767750375 3.69680832817143 -1 0 0 29 255 9 373 0 23 24 0 1.6637 4.0114006227751
 3.46125557320743 19 9 CCCCCCI5 frame230 0 CA5 owner12 0 Z10 203 0 1 18 0 25 0 V
0 16 255 11 377 26 ?27 0 21 28 0 0 1 18 255 12 197 29 30 0 31 32 ?1 81 1 29 523
 33 12 0 0 34 35 36 17 255 30 0 37 27 38 12 39 40 0 41 -18 31 182 42 43 12 44 45
 ?1 29 32 199 0 12 45 46 1.7526 4.0114006227751 3.46125557320743 29 45 184 0 31
 47 32 1.7526 2794325426156415e-32 6.21607286836624 29 46 376 0 48 32 49 1.6637
 4.173165767750375 3.69680832817143 18 48 364 35 50 51 0 46 ?1 29 49 375 0 51 46
 24 1.6637 -360822483003176e-30 6.56271734939759 18 51 360 52 53 54 48 49 ?1 29
 24 374 0 54 49 9 1.6637 2794325426156415e-32 6.21607286836624 18 54 356 55 56 2
3 51 24 ?1 81 1 55 528 33 54 0 0 57 42 58 17 56 0 59 60 61 54 53 62 0 63 +18 23
 352 34 64 65 54 9 ?1 81 1 34 522 33 23 0 0 0 29 66 17 64 0 67 68 50 23 69 70 0
 27 -18 65 167 71 72 44 23 73 ?1 81 1 71 525 33 65 0 0 35 52 74 17 72 0 75 76 77
 65 78 79 0 39 -18 44 177 57 80 31 65 47 ?1 29 73 169 0 65 0 47 1.7526 4.1731657
67750375 3.69680832817143 29 47 179 0 44 73 45 1.7526 -360822483003176e-30 6.562
71734939759 81 1 57 527 33 44 0 0 52 55 81 17 80 0 59 61 60 44 43 82 0 78 -15 25
5 59 381 0 56 83 0 17 61 0 59 56 80 51 77 84 0 85 +17 60 0 59 80 56 31 63 86 0 8
7 -17 43 0 88 41 78 31 80 82 0 60 +16 82 82 89 ?43 86 40 90 0 0 1 17 78 0 88 43
 39 44 72 79 0 77 +15 88 6 0 41 91 0 17 39 0 88 78 41 65 30 40 0 38 +16 79 32 92
 ?78 93 62 94 0 0 1 17 77 0 75 72 85 44 61 84 0 0 -15 75 387 0 85 19 0 17 85 0 7
5 77 76 51 50 95 0 0 +16 84 379 96 ?61 21 86 22 0 0 1 81 1 96 532 33 84 0 0 97 9
8 99 16 21 380 97 ?76 11 84 8 0 0 1 16 86 378 98 ?63 84 82 100 0 0 1 30 22 395 0
 84 100 8 0 +1.7526 -360822483003176e-30 6.56271734939759 -1 0 0 30 100 394 0 86
 28 22 0 +1.7526 2794325426156415e-32 6.21607286836624 -1 0 0 30 28 393 0 11 101
 100 0 +1.7526 4.0114006227751 3.46125557320743 -1 0 0 30 101 369 0 62 102 28 0
 +1.6637 671740155470698e-32 6.38939510888191 0 1224646799147354e-31 -1 16 62 31
4 103 ?56 79 70 101 0 0 1 30 102 370 0 70 104 101 0 +1.6637 4.1597026671132 3.67
7204164085715 0 .566107244007961 .82433160092387 16 70 318 105 ?69 62 106 102 0
 0 1 30 104 371 0 106 107 102 0 +1.6637 1.236742427512362 5.36674373139991 0 -.8
24331600923871 .56610724400796 16 106 324 108 ?68 70 95 104 0 0 1 30 107 372 0 9
5 90 104 0 +1.6637 2.00608042208161 5.18504766194396 0 -.824331600923871 .566107
244007959 16 95 338 109 ?85 106 0 107 0 0 1 30 90 84 0 82 110 107 0 +1.7526 6717
40155470698e-32 6.38939510888191 0 1224646799147354e-31 -1 30 110 69 0 40 111 90
 0 +1.7526 4.1597026671132 3.677204164085715 0 .566107244007961 .82433160092387
 16 40 67 112 ?39 82 93 110 0 0 1 30 111 49 0 93 94 110 0 +1.7526 1.236742427512
362 5.36674373139991 0 -.824331600923871 .56610724400796 16 93 47 113 ?87 40 79
 111 0 0 1 30 94 34 0 79 0 111 0 +1.7526 2.00608042208161 5.18504766194396 0 -.8
24331600923871 .566107244007959 81 1 113 537 33 93 0 0 108 105 114 17 87 0 115 6
3 116 31 41 93 0 0 +15 115 385 0 117 17 0 17 63 0 115 117 87 54 60 86 0 68 +17 1
16 0 115 87 117 12 27 11 0 0 -17 41 0 88 39 43 12 87 93 0 116 -17 117 0 115 116
 63 23 68 106 0 0 -17 27 0 37 69 30 23 116 11 0 117 +15 37 383 0 69 118 0 17 69
 0 37 38 27 48 64 70 0 0 +17 38 0 37 30 69 65 76 21 0 0 -17 76 0 75 85 72 48 38
 21 0 69 +14 255 118 384 119 ?19 17 37 6 120 -0 0 19 17 25 81 1 119 553 121 118
 122 0 123 124 125 14 19 388 124 ?83 118 75 6 7 -0 0 83 118 25 14 17 386 123 ?11
8 0 115 6 20 +0 0 118 0 25 50 120 390 0 118 126 20 0 +1.7526 4.1597026671132 3.6
77204164085715 0 -.82433160092387 .566107244007961 0 .566107244007961 .824331600
92387 13 25 204 0 0 0 0 0 0 10 17 50 126 389 0 83 127 120 0 +1.7526 671740155470
698e-32 6.38939510888191 0 1 1224646799147354e-31 0 1224646799147354e-31 -1 50 2
0 391 0 17 120 7 0 +1.7526 1.236742427512362 5.36674373139991 0 -.56610724400796
 -.824331600923871 0 -.824331600923871 .56610724400796 14 83 382 128 ?91 19 59 6
 126 -0 0 91 19 25 50 127 368 0 129 130 126 0 +1.6637 2.12066116461942 3.4039983
41847945 1 0 0 0 1 0 14 129 290 131 ?0 91 67 6 127 -0 0 0 91 25 50 130 3 0 91 0
 127 0 +1.7526 2.12066116461942 3.403998341847945 1 0 0 0 1 0 14 91 1 132 ?129 8
3 88 6 130 +0 0 129 83 25 81 1 132 556 121 91 133 0 128 131 134 80 7 CCCCCDI12 l
egal_owners0 17 1 lCZ1 121 0 135 8001 0 0 0 0 3 5 0 0 0 FFFFTFTFFFFFFFFFF2 81 1
 133 544 33 91 0 132 136 137 138 81 1 128 555 121 83 139 0 124 132 140 81 1 131
 557 121 129 136 0 132 0 141 83 255 3 134 .980392156862745 .713725490196078 .003
92156862745098 81 1 136 543 33 129 0 131 142 133 143 83 3 141 .980392156862745 .
713725490196078 .00392156862745098 80 1 33 144 145 9000 0 0 0 0 3 6 0 0 0 FFTFTF
TTFFFFFFFFF1 81 1 142 542 33 19 0 124 89 136 146 82 255 3 143 74 61 2 81 1 124 5
54 121 19 142 0 119 128 147 81 1 89 541 33 82 0 0 103 142 148 82 3 146 74 60 2 8
1 1 103 540 33 62 0 0 112 89 149 82 3 148 74 131 1 81 1 112 539 33 40 0 0 105 10
3 150 82 3 149 74 130 1 81 1 105 538 33 70 0 0 113 112 151 82 3 150 74 129 1 82
 3 151 74 128 1 83 3 147 .980392156862745 .713725490196078 .00392156862745098 79
 255 9 145 BTI/DetId81 1 139 547 33 83 0 128 122 152 153 83 3 140 .9803921568627
45 .713725490196078 .00392156862745098 81 1 122 546 33 118 0 119 137 139 154 81
 1 152 548 33 1 0 155 139 0 156 82 3 153 74 65 2 81 1 155 549 157 1 152 14 0 0 1
58 82 3 156 74 10 3 80 1 157 159 160 8038 0 0 0 0 0 0 0 0 0 TTTTTTTTTTTTTFTFT10
 81 1 14 550 159 1 155 2 0 0 161 98 255 28 158 80 97 114 116 32 52 51 32 51 46 5
3 120 49 49 46 50 53 120 49 57 57 46 51 49 32 98 111 116 80 1 159 162 163 8017 0
 0 0 0 0 0 0 0 0 TTTTTTTTTTTTTFTFT3 84 255 28 161 Part 43 3.5x11.25x199.31 bot79
 13 163 SDL/TYSA_NAME79 14 160 SDL/TYSA_UNAME81 1 137 545 33 17 0 123 133 122 16
4 82 3 154 74 64 2 81 1 123 552 121 17 137 0 0 119 165 82 3 164 74 63 2 83 3 165
 .980392156862745 .713725490196078 .00392156862745098 82 3 138 74 62 2 79 15 135
 SDL/TYSA_COLOUR15 67 313 0 68 129 0 17 68 0 67 53 64 54 117 106 0 0 +17 53 0 67
 50 68 51 56 62 0 61 -17 50 0 67 64 53 48 85 95 0 76 -83 3 125 .980392156862745
 .713725490196078 .00392156862745098 81 1 108 536 33 106 0 0 92 113 166 82 3 114
 74 127 1 81 1 92 535 33 79 0 0 109 108 167 82 3 166 74 126 1 81 1 109 534 33 95
 0 0 98 92 168 82 3 167 74 125 1 81 1 98 533 33 86 0 0 96 109 169 82 3 168 74 12
4 1 82 3 169 74 123 1 81 1 97 531 33 21 0 0 26 96 170 81 1 26 530 33 11 0 0 42 9
7 171 82 3 170 74 121 1 81 1 42 529 33 31 0 0 55 26 172 82 3 171 74 120 1 82 3 1
72 74 87 0 82 3 99 74 122 1 81 1 52 526 33 51 0 0 71 57 173 82 3 81 74 85 0 82 3
 173 74 84 0 81 1 35 524 33 48 0 0 29 71 174 82 3 74 74 83 0 82 3 174 74 82 0 82
 3 66 74 80 0 82 3 58 74 86 0 82 3 36 74 81 0 19 18 398 0 1 0 10 6 0 S0 74 4 CI1
6 index_map_offset0 0 1 dCCZ20 16 5 0 0 152 155 14 2 131 0 0 0 0 0 0 0 0 0 0 0 0
 0 0 0 80 1 13 121 175 8040 0 0 0 0 3 5 0 0 0 TTTFFFFFFFFFFFFFF2 83 3 15 .980392
156862745 .713725490196078 .00392156862745098 79 17 175 SDL/TYSA_COLOUR_21 0 
