**ABCDEFGHIJKLMNOPQRSTUVWXYZabcdefghijklmnopqrstuvwxyz**************************
**PARASOLID !"#$%&'()*+,-./:;<=>?@[\]^_`{|}~0123456789**************************
**PART1;
MC=unknown;
MC_MODEL=unknown;
MC_ID=unknown;
OS=unknown;
OS_RELEASE=unknown;
FRU=Parasolid 36.0.180;
APPL=Onshape;
SITE=unknown;
USER=unknown;
FORMAT=text;
GUISE=transmit;
KEY=BTGapi::writeModels_.xmt;
FILE=BTGapi::writeModels_.xmt;
DATE=2024-05-15T00:06:35 (UTC);
**PART2;
SCH=SCH_3600180_36001;
USFLD_SIZE=0;
**PART3;
**END_OF_HEADER*****************************************************************
T51 : TRANSMIT FILE created by modeller version 360018023 SCH_3600180_36001_1300
6231 0 12 36 CCCI7 lattice222 0 CCCI4 mesh1006 0 I8 polyline1008 0 CCCCCCCDI5 ow
ner1040 0 CCCI16 boundary_lattice222 0 CCCI13 boundary_mesh1006 0 I17 boundary_p
olyline1008 0 CCCA16 index_map_offset0 0 1 dA9 index_map82 0 A17 node_id_index_m
ap82 0 A20 schema_embedding_map82 0 A5 child12 0 A14 lowest_node_id0 0 1 dA16 me
sh_offset_data206 0 Z1 140 2 3 0 0 0 0 0 0 0 1e3 1e-8 0 4 5 1 0 1 2 6 0 7 8 9 0
 0 10 11 12 0 0 0 0 0 0 0 81 255 1 2 134 13 1 14 0 0 0 15 70 11 CI9 list_type0 0
 1 uI10 notransmit0 0 1 lCCCDCCDI12 finger_index0 0 1 dI12 finger_block1012 0 CZ
3 0 4 T1 0 0 5 20 1 16 16 13 255 6 5 0 1 0 17 0 0 18 0 50 255 7 87 0 19 20 0 0 +
3.111502 -2.174655018361725 5.40051762535558 202192062611192e-46 -.5661072440079
6 .824331600923871 0 -.824331600923871 -.56610724400796 30 255 8 95 0 21 22 0 0
 +3.111502 -4.32774135072675 3.921892071803695 -1 -210234474648647e-30 -14437789
22285888e-31 29 255 9 82 0 12 23 0 3.0353 -4.30761057712983 3.89257884007484 19
 9 CCCCCCI5 frame230 0 CA5 owner12 0 Z10 1 0 1 18 0 24 0 V0 16 255 11 26 25 ?26
 0 27 28 0 0 1 18 255 12 50 29 30 0 31 9 ?1 81 1 29 109 32 12 0 0 33 34 35 17 25
5 30 0 36 37 38 12 39 40 0 41 +18 31 54 42 43 12 44 23 ?1 81 1 42 111 32 31 0 0
 34 45 46 17 43 0 47 48 49 31 50 51 0 37 +18 44 58 52 53 31 54 55 ?1 29 23 81 0
 31 55 9 3.0353 -.00143791239977953 6.84982994717861 29 55 80 0 44 56 23 3.0353
 -.02156868599670235 6.87914317890746 29 56 79 0 54 57 55 3.0353 -4.327741350726
75 3.921892071803695 18 54 62 58 59 44 60 56 ?1 29 57 78 0 60 61 56 3.1115 -4.32
774135072675 3.921892071803695 18 60 66 62 63 54 64 57 ?1 29 61 77 0 64 65 57 3.
1115 -.02156868599670235 6.87914317890746 18 64 67 33 66 60 67 61 ?1 29 65 76 0
 67 68 61 3.1115 -.001437912399779512 6.84982994717861 18 67 68 45 49 64 69 65 ?
1 29 68 75 0 69 0 65 3.1115 -4.30761057712983 3.89257884007484 18 69 69 34 39 67
 0 68 ?1 81 1 34 110 32 69 0 0 29 42 70 17 39 0 71 72 26 69 30 40 0 73 -15 255 7
1 22 0 72 74 0 17 72 0 71 59 39 60 73 75 0 76 -17 26 0 71 39 59 12 77 11 0 0 +16
 40 45 78 ?30 51 79 80 0 0 1 17 73 0 81 82 63 69 72 75 0 38 +15 81 8 0 63 17 0 1
7 82 0 81 83 73 67 38 84 0 50 +17 63 0 81 73 83 60 66 79 0 72 -16 75 48 85 ?73 8
6 84 87 0 0 1 17 38 0 36 30 50 69 82 84 0 0 -15 36 11 0 38 88 0 17 50 0 36 38 37
 67 43 51 0 0 -16 84 49 89 ?82 75 0 90 0 0 1 81 1 89 120 32 84 0 0 91 25 92 30 9
0 91 0 84 87 80 0 +3.1115 -2.154524244764805 5.37120439362673 0 .824331600923871
 .566107244007959 30 87 90 0 75 93 90 0 +3.1115 -4.32774135072675 3.921892071803
695 0 .56610724400796 -.824331600923871 30 80 92 0 40 90 94 0 +3.111502 -4.30761
057712983 3.89257884007484 -1 -210234474648647e-30 -1443778922285888e-31 30 94 9
3 0 51 80 22 0 +3.111502 -.001437912399779512 6.84982994717861 -1 -2102344746486
47e-30 -1443778922285888e-31 16 51 44 95 ?43 96 40 94 0 0 1 30 22 94 0 96 94 8 0
 +3.111502 -.02156868599670235 6.87914317890746 -1 -210234474648647e-30 -1443778
922285888e-31 16 96 43 97 ?53 21 51 22 0 0 1 81 1 97 114 32 96 0 0 98 78 99 17 5
3 0 100 101 66 44 102 96 0 48 +16 21 42 98 ?59 103 96 8 0 0 1 81 1 98 113 32 21
 0 0 45 97 104 17 59 0 71 26 72 54 76 21 0 77 +16 103 38 105 ?106 107 21 108 0 0
 1 81 1 105 117 32 103 0 0 95 109 110 17 106 0 111 112 77 44 101 103 0 0 +16 107
 34 113 ?112 27 103 114 0 0 1 30 108 71 0 103 0 114 0 +3.0353 -2.174655018361725
 5.40051762535558 -2550362917217125e-31 .824331600923871 .56610724400796 30 114
 72 0 107 108 115 0 +3.0353 -.02156868599670235 6.87914317890746 0 .566107244007
96 -.824331600923871 30 115 73 0 27 114 28 0 +3.0353 -2.154524244764805 5.371204
39362673 -255036291721713e-30 .824331600923872 .566107244007959 16 27 30 91 ?37
 11 107 115 0 0 1 30 28 74 0 11 115 116 0 +3.0353 -4.32774135072675 3.9218920718
03695 0 .56610724400796 -.824331600923871 30 116 88 0 79 28 93 0 +3.1115 -2.1746
55018361725 5.40051762535558 0 .824331600923871 .56610724400796 16 79 46 109 ?66
 40 86 116 0 0 1 30 93 89 0 86 116 87 0 +3.1115 -.02156868599670235 6.8791431789
0746 0 .56610724400796 -.824331600923871 16 86 47 117 ?49 79 75 93 0 0 1 81 1 11
7 124 32 86 0 0 113 118 119 17 49 0 47 43 102 67 83 86 0 82 +15 47 19 0 102 120
 0 17 102 0 47 49 48 64 53 96 0 0 -17 83 0 81 63 82 64 49 86 0 102 -17 48 0 47 1
02 43 44 112 107 0 106 -17 112 0 111 41 106 31 48 107 0 0 +15 111 16 0 77 121 0
 17 41 0 111 77 112 12 37 27 0 26 -17 77 0 111 106 41 54 26 11 0 101 -17 37 0 36
 50 30 31 41 27 0 112 +17 101 0 100 76 53 54 106 103 0 0 -15 100 25 0 76 19 0 17
 76 0 100 66 101 60 59 21 0 0 -17 66 0 100 53 76 64 63 79 0 83 +14 255 19 23 122
 ?0 74 100 6 7 +0 0 17 74 24 81 1 122 140 123 19 118 0 124 0 125 14 74 20 124 ?1
9 120 71 6 126 -0 0 19 120 24 14 17 6 127 ?88 0 81 6 128 +0 0 0 19 24 13 24 3 0
 0 0 0 0 0 10 88 14 88 9 129 ?121 17 36 6 130 -0 0 121 0 24 81 1 129 136 123 88
 131 0 127 132 133 14 121 12 132 ?120 88 111 6 134 +0 0 120 88 24 50 130 85 0 88
 126 20 0 +3.111502 -2.154524244764805 5.37120439362673 -404384125222384e-46 -.5
66107244007959 .824331600923871 0 -.824331600923871 -.566107244007959 50 126 84
 0 74 128 130 0 +3.111502 -4.32774135072675 3.921892071803695 -2550362917217125e
-31 .824331600923871 .56610724400796 0 -.56610724400796 .824331600923871 50 20 8
6 0 120 130 7 0 +3.111502 -.02156868599670235 6.87914317890746 -2550362917217125
e-31 .824331600923871 .56610724400796 0 -.56610724400796 .824331600923871 14 120
 17 135 ?74 121 47 6 20 +0 0 74 121 24 81 1 135 138 123 120 136 0 132 124 137 80
 7 CCCCCDI12 legal_owners0 17 1 lCZ1 123 0 138 8001 0 0 0 0 3 5 0 0 0 FFFFTFTFFF
FFFFFFF2 81 1 136 128 32 120 0 135 139 140 141 81 1 132 137 123 121 140 0 129 13
5 142 81 1 124 139 123 74 139 0 135 122 143 83 255 3 137 .972549019607843 .52941
1764705882 .00392156862745098 81 1 139 127 32 74 0 124 131 136 144 83 3 143 .972
549019607843 .529411764705882 .00392156862745098 80 1 32 145 146 9000 0 0 0 0 3
 6 0 0 0 FFTFTFTTFFFFFFFFF1 81 1 131 126 32 88 0 129 118 139 147 82 255 3 144 17
2 2 2 81 1 118 125 32 19 0 122 117 131 148 82 3 147 172 1 2 82 3 148 172 0 2 79
 255 9 146 BTI/DetId81 1 140 129 32 121 0 132 136 149 150 83 3 142 .972549019607
843 .529411764705882 .00392156862745098 81 1 149 130 32 17 0 127 140 151 152 82
 3 150 172 4 2 81 1 127 135 123 17 149 0 0 129 153 81 1 151 131 32 1 0 154 149 0
 155 82 3 152 172 5 2 81 1 154 132 156 1 151 14 0 0 157 82 3 155 172 0 3 80 1 15
6 158 159 8038 0 0 0 0 0 0 0 0 0 TTTTTTTTTTTTTFTFT10 81 1 14 133 158 1 154 2 0 0
 160 98 255 46 157 80 97 114 116 32 51 48 50 32 49 46 53 120 51 120 50 48 53 46
 54 54 51 32 116 104 101 32 114 101 115 116 32 111 102 32 116 104 101 32 56 48 3
2 50 120 54 115 80 1 158 161 162 8017 0 0 0 0 0 0 0 0 0 TTTTTTTTTTTTTFTFT3 84 25
5 46 160 Part 302 1.5x3x205.663 the rest of the 80 2x6s79 13 162 SDL/TYSA_NAME79
 14 159 SDL/TYSA_UNAME83 3 153 .972549019607843 .529411764705882 .00392156862745
098 82 3 141 172 3 2 79 15 138 SDL/TYSA_COLOUR50 128 83 0 17 134 126 0 +3.1115 -
1.584070339951995 5.6173712124891 1 0 0 0 -1 0 50 134 70 0 121 0 128 0 +3.0353 -
2.174655018361725 5.40051762535558 -1 -210234474648647e-30 -1443778922285886e-31
 210234474648647e-30 -1 0 83 3 133 .972549019607843 .529411764705882 .0039215686
2745098 83 3 125 .972549019607843 .529411764705882 .00392156862745098 81 1 113 1
23 32 107 0 0 85 117 163 82 3 119 172 11 1 81 1 85 122 32 75 0 0 25 113 164 82 3
 163 172 10 1 81 1 25 121 32 11 0 0 89 85 165 82 3 164 172 9 1 82 3 165 172 8 1
 81 1 109 118 32 79 0 0 105 91 166 81 1 91 119 32 27 0 0 109 89 167 82 3 166 172
 5 1 82 3 167 172 6 1 81 1 95 116 32 51 0 0 78 105 168 82 3 110 172 4 1 81 1 78
 115 32 40 0 0 97 95 169 82 3 168 172 3 1 82 3 169 172 2 1 81 1 45 112 32 67 0 0
 42 98 170 82 3 104 172 0 1 82 3 170 172 7 0 82 3 99 172 1 1 82 3 92 172 7 1 82
 3 70 172 5 0 81 1 33 108 32 64 0 0 52 29 171 81 1 52 107 32 44 0 0 62 33 172 82
 3 171 172 3 0 81 1 62 106 32 60 0 0 58 52 173 82 3 172 172 2 0 81 1 58 105 32 5
4 0 0 0 62 174 82 3 173 172 1 0 82 3 174 172 0 0 82 3 46 172 6 0 82 3 35 172 4 0
 19 18 4 0 1 0 10 6 0 S0 74 4 CI16 index_map_offset0 0 1 dCCZ20 16 5 0 0 151 154
 14 2 122 0 0 0 0 0 0 0 0 0 0 0 0 0 0 0 80 1 13 123 175 8040 0 0 0 0 3 5 0 0 0 T
TTFFFFFFFFFFFFFF2 83 3 15 .972549019607843 .529411764705882 .00392156862745098 7
9 17 175 SDL/TYSA_COLOUR_21 0 
