**ABCDEFGHIJKLMNOPQRSTUVWXYZabcdefghijklmnopqrstuvwxyz**************************
**PARASOLID !"#$%&'()*+,-./:;<=>?@[\]^_`{|}~0123456789**************************
**PART1;
MC=unknown;
MC_MODEL=unknown;
MC_ID=unknown;
OS=unknown;
OS_RELEASE=unknown;
FRU=Parasolid 36.0.180;
APPL=Onshape;
SITE=unknown;
USER=unknown;
FORMAT=text;
GUISE=transmit;
KEY=BTGapi::writeModels_.xmt;
FILE=BTGapi::writeModels_.xmt;
DATE=2024-05-15T00:06:35 (UTC);
**PART2;
SCH=SCH_3600180_36001;
USFLD_SIZE=0;
**PART3;
**END_OF_HEADER*****************************************************************
T51 : TRANSMIT FILE created by modeller version 360018023 SCH_3600180_36001_1300
6231 0 12 36 CCCI7 lattice222 0 CCCI4 mesh1006 0 I8 polyline1008 0 CCCCCCCDI5 ow
ner1040 0 CCCI16 boundary_lattice222 0 CCCI13 boundary_mesh1006 0 I17 boundary_p
olyline1008 0 CCCA16 index_map_offset0 0 1 dA9 index_map82 0 A17 node_id_index_m
ap82 0 A20 schema_embedding_map82 0 A5 child12 0 A14 lowest_node_id0 0 1 dA16 me
sh_offset_data206 0 Z1 1010 2 3 0 0 0 0 0 0 0 1e3 1e-8 0 4 5 1 0 1 2 6 0 7 8 9 0
 0 10 11 12 0 0 0 0 0 0 0 81 255 1 2 1003 13 1 14 0 0 0 15 70 11 CI9 list_type0
 0 1 uI10 notransmit0 0 1 lCCCDCCDI12 finger_index0 0 1 dI12 finger_block1012 0
 CZ3 0 4 T1 0 0 5 20 1 16 16 13 255 6 3 0 1 0 17 0 0 18 0 50 255 7 123 0 19 20 0
 0 +0 .09525 6.62813 0 1 0 0 0 1 30 255 8 217 0 11 21 0 0 +-.09525 .030525473466
1673 6.58368062635628 0 .824331600923873 .566107244007958 29 255 9 739 0 12 22 0
 .09525 -.09525 3.99415 19 9 CCCCCCI5 frame230 0 CA5 owner12 0 Z10 1 0 1 18 0 23
 0 V0 16 255 11 215 24 ?25 0 26 8 0 0 1 18 255 12 735 27 28 0 29 9 ?1 81 1 27 98
4 30 12 0 0 31 32 33 17 255 28 0 34 35 36 12 37 38 0 39 -18 29 476 40 41 12 42 2
2 ?1 81 1 40 686 30 29 0 0 43 44 45 17 41 0 46 47 48 29 49 50 0 51 -18 42 328 52
 53 29 54 55 ?1 29 22 480 0 29 55 9 -.09525 -3122502256758255e-32 6.562717349397
59 29 55 405 0 42 56 22 -.09525 -.09525 6.49730469879518 29 56 406 0 54 57 55 .0
9525 -.09525 6.49730469879518 18 54 324 58 59 42 60 56 ?1 29 57 645 0 60 61 56 .
09525 .09525 6.49730469879518 18 60 576 62 63 54 64 57 ?1 29 61 646 0 64 65 57 -
.09525 .09525 6.49730469879518 18 64 575 66 48 60 67 61 ?1 29 65 648 0 67 68 61
 .09525 -360822483003176e-30 6.56271734939759 18 67 574 43 47 64 69 65 ?1 29 68
 924 0 69 70 65 -.09525 .09525 3.99415 18 69 862 71 72 67 73 68 ?1 29 70 925 0 7
3 74 68 .09525 .09525 3.99415 18 73 872 32 36 69 75 70 ?1 29 74 926 0 75 0 70 -.
09525 -.09525 3.99415 18 75 864 76 35 73 0 74 ?1 81 1 76 986 30 75 0 0 32 71 77
 17 35 0 34 72 28 75 39 78 0 79 +15 255 34 879 0 35 80 0 17 72 0 34 36 35 69 79
 81 0 82 +17 39 0 83 84 85 12 35 78 0 86 -16 78 805 87 ?35 81 38 88 0 0 1 17 79
 0 89 90 91 75 72 81 0 85 -15 89 766 0 79 92 0 17 90 0 89 25 79 42 85 93 0 0 -17
 91 0 89 79 49 69 94 95 0 0 +16 81 840 96 ?72 97 78 98 0 0 1 17 85 0 83 39 99 75
 90 93 0 0 +15 83 746 0 39 100 0 17 99 0 83 85 84 42 59 101 0 90 +16 93 109 102
 ?85 26 95 103 0 0 1 81 1 102 993 30 93 0 0 104 105 106 16 26 108 104 ?86 11 93
 107 0 0 1 16 95 110 108 ?91 93 109 110 0 0 1 30 103 125 0 93 107 110 0 +-.09525
 -.09525 6.62813 0 0 -1 30 107 124 0 26 111 103 0 +.09525 -.09525 6.62813 0 0 -1
 30 110 126 0 95 103 21 0 +-.09525 .09525 6.62813 0 0 -1 30 21 127 0 109 110 8 0
 +.09525 .09525 6.62813 0 0 -1 16 109 111 105 ?112 95 113 21 0 0 1 81 1 105 994
 30 109 0 0 102 108 114 17 112 0 115 82 116 73 117 109 0 0 +16 113 303 118 ?119
 109 101 111 0 0 1 81 1 118 693 30 113 0 0 120 24 121 17 119 0 122 51 59 67 123
 113 0 0 +16 101 300 124 ?99 113 125 126 0 0 1 30 111 393 0 113 126 107 0 +.0952
5 .0305254734661673 6.58368062635628 0 .824331600923873 .566107244007958 30 126
 394 0 101 127 111 0 +2.4765 -.09525 6.49730469879518 -1 0 0 30 127 630 0 125 12
8 126 0 +.09525 -.03052547346616785 6.58368062635628 0 .824331600923871 -.566107
24400796 16 125 535 129 ?63 101 50 127 0 0 1 30 128 631 0 50 130 127 0 +-.09525
 -.03052547346616785 6.58368062635628 0 .824331600923871 -.56610724400796 16 50
 526 120 ?49 125 131 128 0 0 1 30 130 632 0 131 132 128 0 +0 .09525 6.4973046987
9518 1 0 0 16 131 529 44 ?116 50 133 130 0 0 1 30 132 633 0 133 134 130 0 +2.131
06 -360822483003176e-30 6.56271734939759 -1 0 0 16 133 532 135 ?51 131 97 132 0
 0 1 30 134 912 0 38 88 132 0 +.09525 0 3.99415 0 1 0 16 38 800 136 ?37 78 0 134
 0 0 1 30 88 913 0 78 98 134 0 +0 -.09525 3.99415 -1 0 0 30 98 914 0 81 137 88 0
 +-.09525 0 3.99415 0 1 0 30 137 915 0 97 0 98 0 +0 .09525 3.99415 1 0 0 16 97 8
50 138 ?36 133 81 137 0 0 1 81 1 138 989 30 97 0 0 87 136 139 17 36 0 34 28 72 7
3 82 97 0 37 +17 82 0 115 94 112 69 36 97 0 91 -17 37 0 140 117 86 73 28 38 0 11
2 +15 140 508 0 86 17 0 17 117 0 140 141 37 60 112 109 0 0 -17 86 0 140 37 123 1
2 84 26 0 0 +17 123 0 140 86 141 54 119 113 0 84 -17 84 0 83 99 39 54 86 26 0 0
 -17 141 0 140 123 117 67 63 125 0 119 -17 63 0 46 48 47 60 141 125 0 116 +15 46
 597 0 63 142 0 17 48 0 46 41 63 64 116 131 0 49 -17 47 0 46 63 41 67 51 133 0 1
41 -17 116 0 115 112 94 60 48 131 0 117 +15 115 761 0 82 19 0 17 94 0 115 116 82
 64 91 95 0 0 -14 255 19 119 143 ?144 92 115 6 7 +0 0 144 92 23 81 1 143 1006 14
5 19 146 0 147 148 149 14 144 366 148 ?100 19 122 6 150 +0 0 100 19 23 14 92 117
 147 ?19 17 89 6 20 +0 0 19 17 23 13 23 128 0 0 0 0 0 0 10 17 14 17 113 151 ?92
 0 140 6 152 -0 0 92 0 23 81 1 151 1004 145 17 153 0 0 147 154 50 152 120 0 17 1
50 155 0 +.09525 0 6.62813 -1 0 0 0 0 1 50 150 388 0 144 156 152 0 +2.4765 .0476
25 6.5954236746988 0 -.566107244007958 .824331600923873 0 -.824331600923873 -.56
6107244007958 50 155 121 0 100 152 20 0 +0 -.09525 6.62813 0 -1 0 0 0 -1 14 100
 115 157 ?142 144 83 6 155 +0 0 142 144 23 50 20 122 0 92 155 7 0 +-.09525 0 6.6
2813 -1 0 0 0 0 1 81 1 157 1008 145 100 158 0 148 159 160 14 142 598 159 ?80 100
 46 6 156 +0 0 80 100 23 81 1 159 1009 145 142 31 0 157 161 162 14 80 876 161 ?0
 142 34 6 163 -0 0 0 142 23 50 156 624 0 142 163 150 0 +2.13106 4.33742032019782
 3.584007009020775 0 .56610724400796 .824331600923871 0 -.824331600923871 .56610
724400796 50 163 906 0 80 0 156 0 +-1.86055 .18415 3.99415 0 0 1 1 0 0 81 1 161
 1010 145 80 164 0 159 0 165 80 7 CCCCCDI12 legal_owners0 17 1 lCZ1 145 0 166 80
01 0 0 0 0 3 5 0 0 0 FFFFTFTFFFFFFFFFF2 81 1 164 996 30 80 0 161 108 158 167 83
 255 3 165 .768627450980392 .886274509803922 .952941176470588 80 1 30 168 169 90
00 0 0 0 0 3 6 0 0 0 FFTFTFTTFFFFFFFFF1 81 1 108 995 30 95 0 0 105 164 170 81 1
 158 997 30 100 0 157 164 146 171 82 255 3 167 140 0 2 81 1 146 998 30 19 0 143
 158 153 172 82 3 171 140 1 2 81 1 153 999 30 17 0 151 146 173 174 82 3 172 140
 2 2 81 1 173 1000 30 92 0 147 153 0 175 82 3 174 140 3 2 81 1 147 1005 145 92 1
73 0 151 143 176 82 3 175 140 4 2 83 3 176 .768627450980392 .886274509803922 .95
2941176470588 82 3 170 140 7 1 79 255 9 169 BTI/DetId79 15 166 SDL/TYSA_COLOUR81
 1 31 699 30 142 0 159 177 27 178 83 3 162 .768627450980392 .886274509803922 .95
2941176470588 81 1 177 696 30 144 0 148 24 31 179 82 3 178 78 22 2 81 1 148 1007
 145 144 177 0 143 157 180 81 1 24 694 30 11 0 0 118 177 181 82 3 179 78 12 2 82
 3 181 78 33 1 83 3 180 .768627450980392 .886274509803922 .952941176470588 83 3
 160 .768627450980392 .886274509803922 .952941176470588 83 3 154 .76862745098039
2 .886274509803922 .952941176470588 15 122 361 0 119 144 0 83 3 149 .76862745098
0392 .886274509803922 .952941176470588 17 51 0 122 53 119 29 47 133 0 25 +17 53
 0 122 59 51 42 25 11 0 99 -17 25 0 89 49 90 29 53 11 0 0 +17 49 0 89 91 25 64 4
1 50 0 94 +17 59 0 122 119 53 54 99 101 0 123 -81 1 87 988 30 78 0 0 71 138 182
 81 1 136 990 30 38 0 0 138 96 183 82 3 139 140 1 1 81 1 96 991 30 81 0 0 136 10
4 184 82 3 183 140 2 1 81 1 104 992 30 26 0 0 96 102 185 82 3 184 140 3 1 82 3 1
85 140 4 1 81 1 71 987 30 69 0 0 76 87 186 82 3 182 140 0 1 82 3 186 140 3 0 81
 1 135 688 30 133 0 0 44 129 187 81 1 44 687 30 131 0 0 40 135 188 81 1 129 689
 30 125 0 0 135 120 189 82 3 187 78 14 1 81 1 120 690 30 50 0 0 129 118 190 82 3
 189 78 15 1 82 3 190 78 16 1 82 3 188 78 10 1 81 1 124 450 30 101 0 0 52 62 191
 81 1 52 445 30 42 0 0 58 124 192 81 1 62 683 30 60 0 0 124 66 193 82 3 191 69 2
 1 81 1 66 684 30 64 0 0 62 43 194 82 3 193 78 8 0 81 1 43 685 30 67 0 0 66 40 1
95 82 3 194 78 9 0 82 3 195 78 12 0 81 1 58 444 30 54 0 0 196 52 197 82 3 192 69
 1 0 81 1 196 196 30 1 0 198 0 58 199 82 3 197 69 0 0 81 1 198 1001 200 1 196 14
 0 0 201 82 3 199 31 0 3 80 1 200 202 203 8038 0 0 0 0 0 0 0 0 0 TTTTTTTTTTTTTFT
FT10 81 1 14 1002 202 1 198 2 0 0 204 98 255 37 201 80 97 114 116 32 50 50 32 55
 46 53 120 55 46 53 120 49 48 49 46 49 50 53 32 97 110 103 108 101 100 32 51 52
 46 52 55 57 80 1 202 205 206 8017 0 0 0 0 0 0 0 0 0 TTTTTTTTTTTTTFTFT3 84 255 3
7 204 Part 22 7.5x7.5x101.125 angled 34.47979 13 206 SDL/TYSA_NAME79 14 203 SDL/
TYSA_UNAME82 3 121 78 32 1 82 3 114 140 6 1 82 3 106 140 5 1 81 1 32 985 30 73 0
 0 27 76 207 82 3 77 140 2 0 82 3 207 140 1 0 82 3 45 78 13 0 82 3 33 140 0 0 19
 18 129 0 1 0 10 6 0 S0 74 4 CI16 index_map_offset0 0 1 dCCZ20 16 5 0 0 173 198
 14 2 161 0 0 0 0 0 0 0 0 0 0 0 0 0 0 0 80 1 13 145 208 8040 0 0 0 0 3 5 0 0 0 T
TTFFFFFFFFFFFFFF2 83 3 15 .768627450980392 .886274509803922 .952941176470588 79
 17 208 SDL/TYSA_COLOUR_21 0 
