**ABCDEFGHIJKLMNOPQRSTUVWXYZabcdefghijklmnopqrstuvwxyz**************************
**PARASOLID !"#$%&'()*+,-./:;<=>?@[\]^_`{|}~0123456789**************************
**PART1;
MC=unknown;
MC_MODEL=unknown;
MC_ID=unknown;
OS=unknown;
OS_RELEASE=unknown;
FRU=Parasolid 36.0.180;
APPL=Onshape;
SITE=unknown;
USER=unknown;
FORMAT=text;
GUISE=transmit;
KEY=BTGapi::writeModels_.xmt;
FILE=BTGapi::writeModels_.xmt;
DATE=2024-05-15T00:06:35 (UTC);
**PART2;
SCH=SCH_3600180_36001;
USFLD_SIZE=0;
**PART3;
**END_OF_HEADER*****************************************************************
T51 : TRANSMIT FILE created by modeller version 360018023 SCH_3600180_36001_1300
6231 0 12 36 CCCI7 lattice222 0 CCCI4 mesh1006 0 I8 polyline1008 0 CCCCCCCDI5 ow
ner1040 0 CCCI16 boundary_lattice222 0 CCCI13 boundary_mesh1006 0 I17 boundary_p
olyline1008 0 CCCA16 index_map_offset0 0 1 dA9 index_map82 0 A17 node_id_index_m
ap82 0 A20 schema_embedding_map82 0 A5 child12 0 A14 lowest_node_id0 0 1 dA16 me
sh_offset_data206 0 Z1 415 2 3 0 0 0 0 0 0 0 1e3 1e-8 0 4 5 1 0 1 2 6 0 7 8 9 0
 0 10 11 12 0 0 0 0 0 0 0 81 255 1 2 407 13 1 14 0 0 0 15 70 11 CI9 list_type0 0
 1 uI10 notransmit0 0 1 lCCCDCCDI12 finger_index0 0 1 dI12 finger_block1012 0 CZ
3 0 4 T1 0 0 5 20 1 16 16 13 255 6 202 0 1 0 17 0 0 18 0 50 255 7 336 0 17 19 0
 0 +-.09525 -2.54 4.174193118566045 -1 0 0 0 0 1 30 255 8 342 0 11 20 0 0 +-.095
25 -2.54 4.269443118566045 0 -1 0 29 255 9 307 0 21 22 0 -1.4732 -2.7305 2.97040
080219812 19 9 CCCCCCI5 frame230 0 CA5 owner12 0 Z10 200 0 1 18 0 23 0 V0 16 255
 11 318 24 ?25 0 26 8 0 0 1 18 255 12 194 27 28 0 29 30 ?1 81 1 27 377 31 12 0 0
 32 33 34 17 255 28 0 35 36 37 12 38 39 0 40 -18 29 189 41 42 12 43 44 ?1 29 30
 196 0 12 44 45 -1.4732 -2.54 2.97040080219812 29 44 191 0 29 46 30 -1.4732 -2.5
4 2.70099311856604 29 45 312 0 47 30 48 -.09525 -2.7305 4.269443118566045 18 47
 296 49 25 50 0 45 ?1 29 48 311 0 50 45 51 -.105706881433958 -2.7305 4.2799 18 5
0 292 52 53 54 47 48 ?1 29 51 310 0 54 48 55 -.163700802198117 -2.7305 4.2799 18
 54 288 56 57 58 50 51 ?1 29 55 309 0 58 51 22 -.09525 -2.7305 4.07894311856604
 18 58 284 59 60 61 54 55 ?1 29 22 308 0 61 55 9 -1.4732 -2.7305 2.7009931185660
4 18 61 280 62 63 21 58 22 ?1 81 1 62 368 31 61 0 0 64 41 65 17 63 0 35 37 36 61
 42 66 0 67 +18 21 276 32 38 68 61 9 ?1 81 1 32 376 31 21 0 0 69 27 70 17 38 0 7
1 72 40 21 28 39 0 37 +18 68 159 73 74 75 21 76 ?1 81 1 73 373 31 68 0 0 49 59 7
7 17 74 0 78 79 80 68 25 11 0 81 -18 75 164 64 82 83 68 84 ?1 29 76 161 0 68 0 8
4 -.09525 -2.54 4.269443118566045 29 84 166 0 75 76 85 -.105706881433958 -2.54 4
.2799 29 85 171 0 83 84 46 -.163700802198117 -2.54 4.2799 18 83 169 86 87 43 75
 85 ?1 29 46 186 0 43 85 44 -.09525 -2.54 4.07894311856604 18 43 184 69 88 29 83
 46 ?1 81 1 69 375 31 43 0 0 59 32 89 17 88 0 90 91 92 43 60 93 0 94 -15 255 90
 329 0 92 17 0 17 91 0 90 25 88 68 95 96 0 0 -17 92 0 90 88 25 58 97 98 0 0 +17
 60 0 99 67 94 58 88 93 0 100 +16 93 315 101 ?60 66 102 103 0 0 1 17 94 0 99 60
 42 43 104 105 0 95 +15 99 321 0 67 106 0 17 42 0 99 94 67 29 63 66 0 36 -17 104
 0 107 108 95 29 94 105 0 0 -16 105 94 109 ?94 102 110 111 0 0 1 17 95 0 107 104
 81 43 91 96 0 0 +15 107 14 0 95 112 0 17 81 0 107 95 113 68 79 114 0 91 -16 96
 69 115 ?95 114 116 117 0 0 1 81 1 115 395 31 96 0 0 118 119 120 16 114 74 121 ?
79 122 96 123 0 0 1 16 116 248 124 ?37 96 125 126 0 0 1 30 117 71 0 96 0 123 0 +
-.09525 -2.54 4.174193118566045 0 0 -1 30 123 76 0 114 117 127 0 +-.100478440716
9796 -2.54 4.27467155928302 -.707106781186551 0 .707106781186544 30 127 81 0 122
 123 128 0 +-.1347038418160374 -2.54 4.2799 -1 0 0 16 122 79 129 ?130 110 114 12
7 0 0 1 30 128 86 0 110 127 111 0 +-.306575802198117 -2.54 4.137025 -.7071067811
86548 0 -.707106781186547 16 110 84 131 ?40 105 122 128 0 0 1 30 111 96 0 105 12
8 132 0 +-.1376465592830214 -2.54 4.03654655928302 .707106781186547 0 .707106781
186548 30 132 101 0 102 111 133 0 +-1.4732 -2.54 2.83569696038208 0 0 1 16 102 9
9 134 ?108 93 105 132 0 0 1 30 133 306 0 98 132 135 0 +-.09525 -2.7305 4.1741931
18566045 0 0 -1 16 98 272 118 ?92 136 0 133 0 0 1 30 135 305 0 136 133 137 0 +-.
1004784407169796 -2.7305 4.27467155928302 -.707106781186551 0 .707106781186544 1
6 136 268 138 ?139 140 98 135 0 0 1 30 137 304 0 140 135 141 0 +-.13470384181603
74 -2.7305 4.2799 -1 0 0 16 140 264 142 ?143 144 136 137 0 0 1 30 141 303 0 144
 137 145 0 +-.306575802198117 -2.7305 4.137025 -.707106781186548 0 -.70710678118
6547 16 144 258 146 ?147 125 140 141 0 0 1 30 145 302 0 125 141 126 0 +-.1376465
592830214 -2.7305 4.03654655928302 .707106781186547 0 .707106781186548 16 125 25
2 148 ?100 116 144 145 0 0 1 30 126 301 0 116 145 149 0 +-1.4732 -2.7305 2.83569
696038208 0 0 1 30 149 337 0 39 126 150 0 +-1.4732 -2.54 2.97040080219812 0 -1 0
 16 39 313 151 ?38 152 66 149 0 0 1 30 150 338 0 66 149 103 0 +-1.4732 -2.54 2.7
0099311856604 0 -1 0 16 66 314 153 ?63 39 93 150 0 0 1 30 103 339 0 93 150 154 0
 +-.09525 -2.54 4.07894311856604 0 -1 0 30 154 340 0 152 103 20 0 +-.16370080219
8117 -2.54 4.2799 0 -1 0 16 152 316 155 ?57 26 39 154 0 0 1 30 20 341 0 26 154 8
 0 +-.105706881433958 -2.54 4.2799 0 -1 0 16 26 317 33 ?53 11 152 20 0 0 1 81 1
 33 378 31 26 0 0 27 153 156 17 53 0 78 80 79 50 82 26 0 157 +15 78 327 0 80 158
 0 17 80 0 78 74 53 47 139 136 0 97 -17 79 0 78 53 74 75 81 114 0 113 +17 82 0 1
59 130 157 75 53 26 0 79 -17 157 0 159 82 57 50 143 140 0 139 -15 159 325 0 157
 160 0 17 57 0 159 157 130 54 87 152 0 72 +17 143 0 161 147 139 54 157 140 0 0 +
17 139 0 161 143 97 50 80 136 0 0 +15 161 247 0 97 162 0 17 97 0 161 139 100 47
 92 98 0 0 -17 100 0 161 97 163 58 67 125 0 92 +17 163 0 161 100 147 61 37 116 0
 0 -17 67 0 99 42 60 61 100 125 0 163 -17 147 0 161 163 143 21 72 144 0 0 +17 37
 0 35 28 63 21 163 116 0 147 +15 35 319 0 37 164 0 14 255 164 320 165 ?106 166 3
5 6 167 -0 0 106 166 23 81 1 165 412 168 164 169 0 170 171 172 14 106 322 171 ?1
12 164 99 6 173 +0 0 112 164 23 14 166 324 170 ?164 160 71 6 174 +0 0 164 160 23
 50 167 331 0 164 175 173 0 +-1.4732 -2.54 2.83569696038208 1 0 0 0 0 -1 13 23 3
43 0 0 0 0 0 0 10 17 14 17 330 176 ?158 0 90 6 7 -0 0 158 0 23 81 1 176 408 168
 17 177 0 0 178 179 14 158 328 178 ?160 17 78 6 19 +0 0 160 17 23 81 1 178 409 1
68 158 180 0 176 181 182 14 160 326 181 ?166 158 159 6 183 +0 0 166 158 23 50 19
 335 0 158 183 7 0 +-.1004784407169796 -2.54 4.27467155928302 .707106781186544 0
 .707106781186551 .707106781186551 0 -.707106781186544 50 183 334 0 160 174 19 0
 +-.1347038418160374 -2.54 4.2799 0 0 1 1 0 0 50 174 333 0 166 173 183 0 +-.3065
75802198117 -2.54 4.137025 -.707106781186547 0 .707106781186548 .707106781186548
 0 .707106781186547 50 173 332 0 106 167 174 0 +-.1376465592830214 -2.54 4.03654
655928302 .707106781186548 0 -.707106781186547 -.707106781186547 0 -.70710678118
6548 81 1 181 410 168 160 119 0 178 170 184 80 7 CCCCCDI12 legal_owners0 17 1 lC
Z1 168 0 185 8001 0 0 0 0 3 5 0 0 0 FFFFTFTFFFFFFFFFF2 81 1 119 396 31 160 0 181
 115 186 187 81 1 170 411 168 166 188 0 181 165 189 83 255 3 184 .64705882352941
2 .647058823529412 .647058823529412 81 1 188 401 31 166 0 170 190 169 191 83 3 1
89 .647058823529412 .647058823529412 .647058823529412 80 1 31 192 193 9000 0 0 0
 0 3 6 0 0 0 FFTFTFTTFFFFFFFFF1 81 1 190 400 31 106 0 171 180 188 194 81 1 169 4
02 31 164 0 165 188 177 195 82 255 3 191 190 12 2 81 1 177 403 31 17 0 176 169 1
96 197 82 3 195 190 13 2 81 1 196 404 31 1 0 198 177 0 199 82 3 197 190 14 2 81
 1 198 405 200 1 196 14 0 0 201 82 3 199 190 1 3 80 1 200 202 203 8038 0 0 0 0 0
 0 0 0 0 TTTTTTTTTTTTTFTFT10 81 1 14 406 202 1 198 2 0 0 204 98 255 8 201 80 97
 114 116 32 51 49 51 80 1 202 205 206 8017 0 0 0 0 0 0 0 0 0 TTTTTTTTTTTTTFTFT3
 84 255 8 204 Part 31379 255 13 206 SDL/TYSA_NAME79 14 203 SDL/TYSA_UNAME81 1 17
1 413 168 106 190 0 165 207 208 81 1 180 399 31 158 0 178 209 190 210 82 3 194 1
90 10 2 81 1 209 398 31 112 0 207 186 180 211 82 3 210 190 8 2 14 112 11 207 ?16
2 106 107 6 212 -0 0 162 106 23 81 1 207 414 168 112 209 0 171 213 214 81 1 186
 397 31 162 0 213 119 209 215 82 3 211 190 5 2 14 162 235 213 ?0 112 161 6 175 +
0 0 0 112 23 81 1 213 415 168 162 186 0 207 0 216 82 3 215 190 4 2 83 3 216 .647
058823529412 .647058823529412 .647058823529412 50 175 300 0 162 212 167 0 +-4440
892098500625e-31 -2.7305 2.345982161925595 0 -1 0 1 0 0 50 212 3 0 112 0 175 0 +
-4440892098500625e-31 -2.54 2.345982161925595 0 -1 0 1 0 0 83 3 214 .64705882352
9412 .647058823529412 .647058823529412 83 3 208 .647058823529412 .64705882352941
2 .647058823529412 79 9 193 BTI/DetId82 3 187 190 3 2 79 15 185 SDL/TYSA_COLOUR8
3 3 182 .647058823529412 .647058823529412 .647058823529412 83 3 179 .64705882352
9412 .647058823529412 .647058823529412 15 71 323 0 72 166 0 17 72 0 71 87 38 54
 147 144 0 143 -17 87 0 71 40 72 83 57 152 0 130 -17 40 0 71 38 87 12 217 110 0
 108 +17 130 0 159 57 82 83 113 122 0 217 +17 113 0 107 81 217 75 130 122 0 0 -1
7 217 0 107 113 108 83 40 110 0 0 -17 108 0 107 217 104 12 36 102 0 0 +17 36 0 3
5 63 28 29 108 102 0 104 -83 3 172 .647058823529412 .647058823529412 .6470588235
29412 81 1 153 379 31 66 0 0 33 155 218 82 3 156 190 1 1 81 1 155 380 31 152 0 0
 153 24 219 82 3 218 190 2 1 81 1 24 381 31 11 0 0 155 101 220 82 3 219 190 5 1
 81 1 101 382 31 93 0 0 24 151 221 82 3 220 190 8 1 81 1 151 383 31 39 0 0 101 1
42 222 82 3 221 190 9 1 81 1 142 384 31 140 0 0 151 129 223 82 3 222 190 11 1 81
 1 129 385 31 122 0 0 142 138 224 82 3 223 190 14 1 81 1 138 386 31 136 0 0 129
 121 225 82 3 224 190 15 1 81 1 121 387 31 114 0 0 138 148 226 82 3 225 190 20 1
 81 1 148 388 31 125 0 0 121 109 227 82 3 226 190 21 1 81 1 109 389 31 105 0 0 1
48 146 228 82 3 227 190 24 1 81 1 146 390 31 144 0 0 109 131 229 82 3 228 190 25
 1 81 1 131 391 31 110 0 0 146 124 230 82 3 229 190 28 1 81 1 124 392 31 116 0 0
 131 134 231 82 3 230 190 29 1 81 1 134 393 31 102 0 0 124 118 232 82 3 231 190
 30 1 81 1 118 394 31 98 0 0 134 115 233 82 3 232 190 31 1 82 3 233 190 32 1 82
 3 120 190 33 1 17 25 0 90 92 91 47 74 11 0 80 +81 1 59 374 31 58 0 0 73 69 234
 82 3 89 190 19 0 82 3 234 190 18 0 81 1 86 371 31 83 0 0 56 49 235 81 1 56 370
 31 54 0 0 41 86 236 81 1 49 372 31 47 0 0 86 73 237 82 3 235 190 11 0 82 3 237
 190 16 0 81 1 41 369 31 29 0 0 62 56 238 82 3 236 190 10 0 82 3 238 190 5 0 81
 1 64 367 31 75 0 0 52 62 239 81 1 52 366 31 50 0 0 0 64 240 82 3 239 190 3 0 82
 3 240 190 2 0 82 3 77 190 17 0 82 3 70 190 22 0 82 3 65 190 4 0 82 3 34 190 23
 0 19 18 344 0 1 0 10 6 0 S0 74 4 CI16 index_map_offset0 0 1 dCCZ20 16 5 0 0 196
 198 14 2 213 0 0 0 0 0 0 0 0 0 0 0 0 0 0 0 80 1 13 168 241 8040 0 0 0 0 3 5 0 0
 0 TTTFFFFFFFFFFFFFF2 83 3 15 .647058823529412 .647058823529412 .647058823529412
 79 17 241 SDL/TYSA_COLOUR_21 0 
