**ABCDEFGHIJKLMNOPQRSTUVWXYZabcdefghijklmnopqrstuvwxyz**************************
**PARASOLID !"#$%&'()*+,-./:;<=>?@[\]^_`{|}~0123456789**************************
**PART1;
MC=unknown;
MC_MODEL=unknown;
MC_ID=unknown;
OS=unknown;
OS_RELEASE=unknown;
FRU=Parasolid 36.0.180;
APPL=Onshape;
SITE=unknown;
USER=unknown;
FORMAT=text;
GUISE=transmit;
KEY=BTGapi::writeModels_.xmt;
FILE=BTGapi::writeModels_.xmt;
DATE=2024-05-15T00:06:35 (UTC);
**PART2;
SCH=SCH_3600180_36001;
USFLD_SIZE=0;
**PART3;
**END_OF_HEADER*****************************************************************
T51 : TRANSMIT FILE created by modeller version 360018023 SCH_3600180_36001_1300
6231 0 12 36 CCCI7 lattice222 0 CCCI4 mesh1006 0 I8 polyline1008 0 CCCCCCCDI5 ow
ner1040 0 CCCI16 boundary_lattice222 0 CCCI13 boundary_mesh1006 0 I17 boundary_p
olyline1008 0 CCCA16 index_map_offset0 0 1 dA9 index_map82 0 A17 node_id_index_m
ap82 0 A20 schema_embedding_map82 0 A5 child12 0 A14 lowest_node_id0 0 1 dA16 me
sh_offset_data206 0 Z1 1010 2 3 0 0 0 0 0 0 0 1e3 1e-8 0 4 5 1 0 1 2 6 0 7 8 9 0
 0 10 11 12 0 0 0 0 0 0 0 81 255 1 2 983 13 1 14 0 0 0 15 70 11 CI9 list_type0 0
 1 uI10 notransmit0 0 1 lCCCDCCDI12 finger_index0 0 1 dI12 finger_block1012 0 CZ
3 0 4 T1 0 0 6 20 1 16 16 13 255 6 750 0 1 0 17 0 0 18 0 67 255 7 724 0 19 20 0
 0 +21 -1 0 0 ?30 255 8 749 0 22 23 0 0 +5.0466220607938 -.902519762009563 .1579
564428924685 -1 0 0 29 255 9 600 0 24 25 0 4.9958220607938 -.850619968191988 .26
95854851378115 19 9 CCCCCCI5 frame230 0 CA5 owner12 0 Z10 1 0 1 18 0 26 0 V0 16
 255 11 625 27 ?28 0 29 30 0 0 1 18 255 12 108 31 32 0 33 34 ?1 81 1 31 829 35 1
2 0 0 36 37 38 17 255 32 0 39 40 41 12 28 11 0 42 -18 33 111 43 44 12 45 46 ?1 2
9 34 232 0 12 46 47 5.0466220607938 -.850619968191988 .2695854851378115 29 46 23
1 0 33 48 34 5.0466220607938 -.882649555233692 .359980097455507 29 47 624 0 49 3
4 50 4.9958220607938 -.902519762009563 .1579564428924685 18 49 570 37 51 52 0 47
 ?1 29 50 623 0 52 47 53 4.9958220607938 -1.04339063094298 .1178601450402622 18
 52 566 54 55 56 49 50 ?1 29 53 622 0 56 50 57 4.9958220607938 -1.19167575613605
 .142772046072698 18 56 562 58 59 60 52 53 ?1 29 57 621 0 60 53 61 4.99582206079
38 -1.19167575613605 .2035096333517795 18 60 558 62 63 64 56 57 ?1 29 61 620 0 6
4 57 65 4.9958220607938 -1.118956730741368 .181326178622896 18 64 554 66 67 68 6
0 61 ?1 29 65 619 0 68 61 69 4.9958220607938 -1.041136697040044 .173140839712238
5 18 68 550 70 71 72 64 65 ?1 29 69 618 0 72 65 73 4.9958220607938 -.94623421691
648 .1970444018933615 18 72 546 74 75 76 68 69 ?1 29 73 617 0 76 69 77 4.9958220
607938 -.914323257974931 .263654080130089 18 76 542 78 79 80 72 73 ?1 29 77 616
 0 80 73 81 4.9958220607938 -.925652241539682 .309741097040095 18 80 538 82 83 8
4 76 77 ?1 29 81 615 0 84 77 85 4.9958220607938 -.963494605488953 .3429569650833
425 18 84 534 86 87 88 80 81 ?1 29 85 614 0 88 81 89 4.9958220607938 -1.04410239
9543906 .377418428178212 18 88 530 90 91 92 84 85 ?1 29 89 613 0 92 85 93 4.9958
220607938 -1.15211328473454 .4415369163116955 18 92 526 94 95 96 88 89 ?1 29 93
 612 0 96 89 97 4.9958220607938 -1.184558070126782 .538278131987655 18 96 522 98
 99 100 92 93 ?1 29 97 611 0 100 93 101 4.9958220607938 -1.13752202841554 .63798
5050167475 18 100 518 102 103 104 96 97 ?1 29 101 610 0 104 97 105 4.99582206079
38 -1.012903209203284 .675056331465742 18 104 514 106 107 108 100 101 ?1 29 105
 609 0 108 101 109 4.9958220607938 -.864262199709751 .645399306427128 18 108 510
 110 111 112 104 105 ?1 29 109 608 0 112 105 113 4.9958220607938 -.8839544643353
91 .59059312415577 18 112 506 114 115 116 108 109 ?1 29 113 607 0 116 109 117 4.
9958220607938 -1.014445374505292 .618707983892376 18 116 502 118 119 120 112 113
 ?1 29 117 606 0 120 113 121 4.9958220607938 -1.092680606557156 .597236297764419
 18 120 498 122 123 124 116 117 ?1 29 121 605 0 124 117 125 4.9958220607938 -1.1
2085478034384 .537566363386728 18 124 494 126 127 128 120 121 ?1 29 125 604 0 12
8 121 129 4.9958220607938 -1.110474821580324 .491420032426644 18 128 490 130 131
 132 124 125 ?1 29 129 603 0 132 125 133 4.9958220607938 -1.075420217984682 .458
382106533628 18 132 486 134 135 136 128 129 ?1 29 133 602 0 136 129 25 4.9958220
607938 -.999972746286449 .425225552540458 18 136 482 137 138 139 132 133 ?1 29 2
5 601 0 139 133 9 4.9958220607938 -.882649555233692 .359980097455507 18 139 478
 140 141 24 136 25 ?1 81 1 140 876 35 139 0 0 142 43 143 17 141 0 144 145 146 13
9 44 29 0 147 +18 24 474 36 28 148 139 9 ?1 81 1 36 828 35 24 0 0 0 31 149 17 28
 0 150 147 42 24 32 11 0 151 +18 148 180 152 153 154 24 155 ?1 81 1 152 831 35 1
48 0 0 37 54 156 17 153 0 157 158 159 148 51 22 0 160 -18 154 177 161 162 163 14
8 164 ?1 29 155 208 0 148 0 164 5.0466220607938 -.902519762009563 .1579564428924
685 29 164 209 0 154 155 165 5.0466220607938 -1.04339063094298 .1178601450402622
 29 165 210 0 163 164 166 5.0466220607938 -1.19167575613605 .142772046072698 18
 163 174 167 168 169 154 165 ?1 29 166 211 0 169 165 170 5.0466220607938 -1.1916
7575613605 .2035096333517795 18 169 171 171 172 173 163 166 ?1 29 170 212 0 173
 166 174 5.0466220607938 -1.118956730741368 .181326178622896 18 173 168 175 176
 177 169 170 ?1 29 174 213 0 177 170 178 5.0466220607938 -1.041136697040044 .173
1408397122385 18 177 165 179 180 181 173 174 ?1 29 178 214 0 181 174 182 5.04662
20607938 -.94623421691648 .1970444018933615 18 181 162 183 184 185 177 178 ?1 29
 182 215 0 185 178 186 5.0466220607938 -.914323257974931 .263654080130089 18 185
 159 187 188 189 181 182 ?1 29 186 216 0 189 182 190 5.0466220607938 -.925652241
539682 .309741097040095 18 189 156 191 192 193 185 186 ?1 29 190 217 0 193 186 1
94 5.0466220607938 -.963494605488953 .3429569650833425 18 193 153 195 196 197 18
9 190 ?1 29 194 218 0 197 190 198 5.0466220607938 -1.044102399543906 .3774184281
78212 18 197 150 199 200 201 193 194 ?1 29 198 219 0 201 194 202 5.0466220607938
 -1.15211328473454 .4415369163116955 18 201 147 203 204 205 197 198 ?1 29 202 22
0 0 205 198 206 5.0466220607938 -1.184558070126782 .538278131987655 18 205 144 2
07 208 209 201 202 ?1 29 206 221 0 209 202 210 5.0466220607938 -1.13752202841554
 .637985050167475 18 209 141 211 212 213 205 206 ?1 29 210 222 0 213 206 214 5.0
466220607938 -1.012903209203284 .675056331465742 18 213 138 215 216 217 209 210
 ?1 29 214 223 0 217 210 218 5.0466220607938 -.864262199709751 .645399306427128
 18 217 135 219 220 221 213 214 ?1 29 218 224 0 221 214 222 5.0466220607938 -.88
3954464335391 .59059312415577 18 221 132 223 224 225 217 218 ?1 29 222 225 0 225
 218 226 5.0466220607938 -1.014445374505292 .618707983892376 18 225 129 227 228
 229 221 222 ?1 29 226 226 0 229 222 230 5.0466220607938 -1.092680606557156 .597
236297764419 18 229 126 231 232 233 225 226 ?1 29 230 227 0 233 226 234 5.046622
0607938 -1.12085478034384 .537566363386728 18 233 123 235 236 237 229 230 ?1 29
 234 228 0 237 230 238 5.0466220607938 -1.110474821580324 .491420032426644 18 23
7 120 239 240 241 233 234 ?1 29 238 229 0 241 234 48 5.0466220607938 -1.07542021
7984682 .458382106533628 18 241 117 242 243 45 237 238 ?1 29 48 230 0 45 238 46
 5.0466220607938 -.999972746286449 .425225552540458 18 45 114 142 244 33 241 48
 ?1 81 1 142 875 35 45 0 0 137 140 245 17 244 0 144 146 145 45 138 246 0 247 -15
 255 144 654 0 145 248 0 17 146 0 144 141 244 33 247 249 0 0 +17 145 0 144 244 1
41 136 250 251 0 252 -17 138 0 253 254 255 136 244 246 0 145 +16 246 627 256 ?13
8 29 257 258 0 0 1 17 247 0 259 260 261 45 146 249 0 255 -15 259 7 0 262 263 0 1
7 260 0 259 264 247 241 255 265 0 266 -17 261 0 259 247 262 33 42 267 0 146 -16
 249 16 268 ?146 267 265 269 0 0 1 17 255 0 253 138 243 45 260 265 0 0 +15 253 6
56 0 254 270 0 17 243 0 253 255 254 241 135 257 0 260 -16 265 20 271 ?255 249 27
2 273 0 0 1 81 1 271 948 35 265 274 0 275 276 277 16 272 24 278 ?266 265 279 280
 0 0 1 134 255 273 204 0 265 280 269 281 +282 283 134 280 203 0 272 284 273 285
 +286 287 134 269 205 0 249 273 288 289 +290 291 141 255 281 292 281 281 273 136
 255 282 2 3 3 2 5 FFF2 293 294 295 135 255 283 2 0 45 255 9 293 5.0466220607938
 -1.075420217984682 .458382106533628 5.0466220607938 -1.050745573152556 .4433756
518640895 5.0466220607938 -.999972746286449 .425225552540458 127 255 4 294 3 3 0
 0 128 255 4 295 0 1 ??67 292 703 0 270 296 297 0 +273 -1 0 0 ?14 255 270 657 29
8 ?299 248 253 6 292 +0 0 299 248 26 67 296 702 0 248 300 292 0 +269 -1 0 0 ?67
 297 704 0 299 292 301 0 +280 -1 0 0 ?14 299 659 302 ?303 270 304 6 297 +0 0 303
 270 26 67 301 705 0 303 297 305 0 +284 -1 0 0 ?14 303 661 306 ?307 299 308 6 30
1 +0 0 307 299 26 67 305 706 0 307 301 309 0 +310 -1 0 0 ?134 284 202 0 279 310
 280 311 +312 313 16 279 28 314 ?315 272 316 284 0 0 1 134 310 201 0 316 317 284
 318 +319 320 141 311 301 311 311 284 136 312 2 3 3 2 5 FFF2 321 322 323 135 313
 2 0 45 9 321 5.0466220607938 -1.12085478034384 .537566363386728 5.0466220607938
 -1.12085478034384 .509451503650122 5.0466220607938 -1.110474821580324 .49142003
2426644 127 4 322 3 3 0 0 128 4 323 0 1 ??16 316 32 324 ?325 279 326 310 0 0 1 1
34 317 200 0 326 327 310 328 +329 330 141 318 305 318 318 310 136 319 2 3 3 2 5
 FFF2 331 332 333 135 320 2 0 45 9 331 5.0466220607938 -1.092680606557156 .59723
6297764419 5.0466220607938 -1.12085478034384 .575764611636463 5.0466220607938 -1
.12085478034384 .537566363386728 127 4 332 3 3 0 0 128 4 333 0 1 ??16 326 36 334
 ?335 316 336 317 0 0 1 134 327 199 0 336 337 317 338 +339 340 141 328 309 328 3
28 317 136 329 2 3 3 2 5 FFF2 341 342 343 135 330 2 0 45 9 341 5.0466220607938 -
1.014445374505292 .618707983892376 5.0466220607938 -1.064506432770472 .618707983
892376 5.0466220607938 -1.092680606557156 .597236297764419 127 4 342 3 3 0 0 128
 4 343 0 1 ??67 309 707 0 344 305 345 0 +317 -1 0 0 ?14 344 665 346 ?347 307 348
 6 309 +0 0 347 307 26 67 345 708 0 347 309 349 0 +327 -1 0 0 ?14 347 667 350 ?3
51 344 352 6 345 +0 0 351 344 26 50 255 349 709 0 351 345 353 0 +5.0466220607938
 -.874108332022571 .617996215291449 0 .941094974504351 -.3381423501465845 0 .338
1423501465845 .941094974504351 14 351 669 354 ?355 347 356 6 349 +0 0 355 347 26
 67 353 710 0 355 349 357 0 +358 -1 0 0 ?14 355 671 359 ?360 351 361 6 353 +0 0
 360 351 26 67 357 711 0 360 353 362 0 +363 -1 0 0 ?134 358 197 0 364 363 337 36
5 +366 367 16 364 48 368 ?369 370 371 358 0 0 1 134 363 196 0 371 372 358 373 +3
74 375 30 337 198 0 370 358 327 0 +5.0466220607938 -.874108332022571 .6179962152
91449 0 -.3381423501465845 -.941094974504351 141 365 353 365 365 358 136 366 2 3
 3 2 5 FFF2 376 377 378 135 367 2 0 45 9 376 5.0466220607938 -1.012903209203284
 .675056331465742 5.0466220607938 -.9321174729981 .675056331465742 5.04662206079
38 -.864262199709751 .645399306427128 127 4 377 3 3 0 0 128 4 378 0 1 ??16 370 4
4 379 ?380 336 364 337 0 0 1 81 1 379 936 35 370 381 0 382 383 384 17 380 0 356
 115 220 221 385 370 0 0 +16 336 40 386 ?387 326 370 327 0 0 1 81 1 386 938 35 3
36 388 0 383 389 390 17 387 0 352 119 224 225 391 336 0 0 +15 352 666 0 392 347
 0 17 119 0 352 392 387 116 228 393 0 394 +17 224 0 352 387 392 221 115 395 0 39
1 -17 391 0 259 385 396 221 387 336 0 380 -17 385 0 259 397 391 217 380 370 0 36
9 -17 396 0 259 391 398 225 335 326 0 387 -17 398 0 259 396 399 229 325 316 0 33
5 -17 335 0 348 123 228 229 396 326 0 0 +15 348 664 0 394 344 0 17 123 0 348 394
 335 120 232 400 0 401 +17 228 0 348 335 394 225 119 393 0 396 -17 394 0 348 228
 123 116 402 403 0 404 -16 393 632 405 ?119 400 395 406 0 0 1 81 1 405 896 35 39
3 0 0 407 408 409 16 400 631 408 ?123 410 393 411 0 0 1 16 395 633 407 ?115 393
 412 413 0 0 1 30 406 732 0 393 411 413 0 +5.0466220607938 -1.014445374505292 .6
18707983892376 -1 0 0 30 411 731 0 400 414 406 0 +5.0466220607938 -1.09268060655
7156 .597236297764419 -1 0 0 30 413 733 0 395 406 415 0 +5.0466220607938 -.88395
4464335391 .59059312415577 -1 0 0 30 415 734 0 412 413 416 0 +5.0466220607938 -.
864262199709751 .645399306427128 -1 0 0 16 412 634 417 ?111 395 418 415 0 0 1 30
 416 735 0 418 415 419 0 +5.0466220607938 -1.012903209203284 .675056331465742 -1
 0 0 16 418 635 420 ?107 412 421 416 0 0 1 30 419 736 0 421 416 422 0 +5.0466220
607938 -1.13752202841554 .637985050167475 -1 0 0 16 421 636 423 ?103 418 424 419
 0 0 1 30 422 737 0 424 419 425 0 +5.0466220607938 -1.184558070126782 .538278131
987655 -1 0 0 16 424 637 426 ?99 421 427 422 0 0 1 30 425 738 0 427 422 428 0 +5
.0466220607938 -1.15211328473454 .4415369163116955 -1 0 0 16 427 638 429 ?95 424
 430 425 0 0 1 30 428 739 0 430 425 431 0 +5.0466220607938 -1.044102399543906 .3
77418428178212 -1 0 0 16 430 639 432 ?91 427 433 428 0 0 1 30 431 740 0 433 428
 434 0 +5.0466220607938 -.963494605488953 .3429569650833425 -1 0 0 16 433 640 43
5 ?87 430 436 431 0 0 1 30 434 741 0 436 431 437 0 +5.0466220607938 -.9256522415
39682 .309741097040095 -1 0 0 16 436 641 438 ?83 433 439 434 0 0 1 30 437 742 0
 439 434 440 0 +5.0466220607938 -.914323257974931 .263654080130089 -1 0 0 16 439
 642 441 ?79 436 442 437 0 0 1 30 440 743 0 442 437 443 0 +5.0466220607938 -.946
23421691648 .1970444018933615 -1 0 0 16 442 643 444 ?75 439 445 440 0 0 1 30 443
 744 0 445 440 446 0 +5.0466220607938 -1.041136697040044 .1731408397122385 -1 0
 0 16 445 644 447 ?71 442 448 443 0 0 1 30 446 745 0 448 443 449 0 +5.0466220607
938 -1.118956730741368 .181326178622896 -1 0 0 16 448 645 450 ?67 445 451 446 0
 0 1 30 449 746 0 451 446 452 0 +5.0466220607938 -1.19167575613605 .203509633351
7795 -1 0 0 16 451 646 453 ?63 448 454 449 0 0 1 30 452 747 0 454 449 23 0 +5.04
66220607938 -1.19167575613605 .142772046072698 -1 0 0 16 454 647 455 ?59 451 456
 452 0 0 1 30 23 748 0 456 452 8 0 +5.0466220607938 -1.04339063094298 .117860145
0402622 -1 0 0 16 456 648 457 ?55 454 22 23 0 0 1 81 1 457 880 35 456 0 0 458 45
5 459 17 55 0 157 159 158 52 162 456 0 460 +16 22 649 458 ?51 456 461 8 0 0 1 81
 1 458 879 35 22 0 0 27 457 462 17 51 0 39 41 40 49 153 22 0 159 +16 461 8 463 ?
40 22 267 464 0 0 1 81 1 463 904 35 461 465 0 466 467 468 17 40 0 39 51 32 148 2
62 461 0 0 +16 267 12 469 ?42 461 249 288 0 0 1 134 464 207 0 461 288 470 471 +4
72 473 134 288 206 0 267 269 464 474 +475 476 134 470 599 0 477 464 478 0 +479 4
80 141 471 481 471 471 464 136 472 2 3 3 2 5 FFF2 482 483 484 135 473 2 0 45 9 4
82 5.0466220607938 -.850619968191988 .2695854851378115 5.0466220607938 -.8506199
68191988 .1980527407446745 5.0466220607938 -.902519762009563 .1579564428924685 1
27 4 483 3 3 0 0 128 4 484 0 1 ??67 481 700 0 17 485 300 0 +464 -1 0 0 ?14 17 65
1 486 ?487 0 39 6 481 +0 0 487 0 26 50 485 574 0 488 489 481 0 +4.9958220607938
 0 .4064 1 0 0 0 1 0 67 300 701 0 487 481 296 0 +288 -1 0 0 ?14 487 653 490 ?248
 17 150 6 300 +0 0 248 17 26 81 1 490 985 491 487 492 0 486 493 494 14 248 655 4
93 ?270 487 144 6 296 +0 0 270 487 26 15 150 652 0 147 487 0 13 26 3 0 0 0 0 0 0
 10 17 17 147 0 150 44 28 139 151 495 0 250 -17 44 0 150 42 147 33 141 29 0 261
 -17 151 0 496 497 250 24 147 495 0 41 +16 495 354 498 ?151 499 251 500 0 0 1 17
 250 0 496 151 252 139 145 251 0 0 +15 496 348 0 497 488 0 17 252 0 496 250 501
 136 254 502 0 0 +16 251 359 276 ?250 495 502 503 0 0 1 81 1 276 949 35 251 504
 0 271 268 505 16 502 364 275 ?252 251 506 507 0 0 1 134 503 577 0 251 507 500 0
 +508 509 134 507 578 0 502 510 503 0 +511 512 134 500 576 0 495 503 513 0 +514
 515 136 508 2 3 3 2 5 FFF2 516 517 518 135 509 2 0 45 9 516 4.9958220607938 -.9
99972746286449 .425225552540458 4.9958220607938 -.914679142275395 .3948567589009
17 4.9958220607938 -.882649555233692 .359980097455507 127 4 517 3 3 0 0 128 4 51
8 0 1 ??134 513 575 0 499 500 30 0 +519 520 136 514 2 3 3 2 5 FFF2 521 522 523 1
35 515 2 0 45 9 521 4.9958220607938 -.882649555233692 .359980097455507 4.9958220
607938 -.850619968191988 .325103436010097 4.9958220607938 -.850619968191988 .269
5854851378115 127 4 522 3 3 0 0 128 4 523 0 1 ??16 499 349 466 ?497 524 495 513
 0 0 1 30 30 725 0 11 513 525 0 +5.0466220607938 -.850619968191988 .269585485137
8115 -1 0 0 136 519 2 3 3 2 5 FFF2 526 527 528 135 520 2 0 45 9 526 4.9958220607
938 -.850619968191988 .2695854851378115 4.9958220607938 -.850619968191988 .19805
27407446745 4.9958220607938 -.902519762009563 .1579564428924685 127 4 527 3 3 0
 0 128 4 528 0 1 ??30 525 726 0 29 30 258 0 +5.0466220607938 -.882649555233692 .
359980097455507 -1 0 0 16 29 626 529 ?141 11 246 525 0 0 1 30 258 727 0 246 525
 530 0 +5.0466220607938 -.999972746286449 .425225552540458 -1 0 0 30 530 728 0 2
57 258 531 0 +5.0466220607938 -1.075420217984682 .458382106533628 -1 0 0 16 257
 628 532 ?135 246 533 530 0 0 1 30 531 729 0 533 530 414 0 +5.0466220607938 -1.1
10474821580324 .491420032426644 -1 0 0 16 533 629 534 ?131 257 410 531 0 0 1 30
 414 730 0 410 531 411 0 +5.0466220607938 -1.12085478034384 .537566363386728 -1
 0 0 16 410 630 535 ?127 533 400 414 0 0 1 81 1 535 898 35 410 0 0 408 534 536 1
7 127 0 537 401 325 124 236 410 0 538 +15 537 662 0 401 307 0 17 401 0 537 232 1
27 120 539 540 0 402 -17 325 0 537 127 232 233 398 316 0 0 +17 236 0 308 315 538
 233 127 410 0 399 -17 538 0 308 236 131 124 541 542 0 539 -15 308 660 0 538 303
 0 17 131 0 308 538 315 128 240 533 0 543 +17 541 0 496 501 539 128 538 542 0 0
 +16 542 374 544 ?541 506 540 545 0 0 1 17 539 0 496 541 402 124 401 540 0 0 +17
 402 0 496 539 404 120 394 403 0 0 +16 540 379 546 ?539 542 403 547 0 0 1 81 1 5
46 941 35 540 548 0 334 324 549 16 403 384 389 ?402 540 550 551 0 0 1 134 547 58
1 0 540 551 545 0 +552 553 134 551 582 0 403 554 547 0 +555 556 134 545 580 0 54
2 547 510 0 +557 558 136 552 2 3 3 2 5 FFF2 559 560 561 135 553 2 0 45 9 559 4.9
958220607938 -1.092680606557156 .597236297764419 4.9958220607938 -1.120854780343
84 .575764611636463 4.9958220607938 -1.12085478034384 .537566363386728 127 4 560
 3 3 0 0 128 4 561 0 1 ??134 510 579 0 506 545 507 0 +562 563 136 557 2 3 3 2 5
 FFF2 564 565 566 135 558 2 0 45 9 564 4.9958220607938 -1.12085478034384 .537566
363386728 4.9958220607938 -1.12085478034384 .509451503650122 4.9958220607938 -1.
110474821580324 .491420032426644 127 4 565 3 3 0 0 128 4 566 0 1 ??16 506 369 56
7 ?501 502 542 510 0 0 1 136 562 2 3 3 2 5 FFF2 568 569 570 135 563 2 0 45 9 568
 4.9958220607938 -1.110474821580324 .491420032426644 4.9958220607938 -1.10009486
281681 .473388561203167 4.9958220607938 -1.075420217984682 .458382106533628 127
 4 569 3 3 0 0 128 4 570 0 1 ??81 1 567 945 35 506 571 0 314 278 572 17 501 0 49
6 252 541 132 543 506 0 0 +17 543 0 304 240 135 128 501 506 0 541 -15 304 658 0
 543 299 0 17 240 0 304 266 543 237 131 533 0 264 -17 135 0 304 543 266 132 243
 257 0 254 +17 266 0 304 135 240 241 264 272 0 0 +17 254 0 253 243 138 132 252 5
02 0 501 -17 264 0 259 399 260 237 266 272 0 315 -17 399 0 259 398 264 233 315 2
79 0 325 -17 315 0 308 131 236 237 399 279 0 0 +80 7 CCCCCDI12 legal_owners0 17
 1 lCZ1 35 573 574 9000 0 0 0 0 3 6 0 0 0 FFTFTFTTFFFFFFFFF1 81 1 571 371 575 50
6 0 567 576 577 578 81 1 314 944 35 279 579 0 544 567 580 81 1 278 946 35 272 58
1 0 567 275 582 82 255 3 572 159 187 1 81 1 581 25 575 272 0 278 274 579 583 81
 1 275 947 35 502 576 0 278 271 584 82 3 582 159 188 1 81 1 576 366 575 502 0 27
5 504 571 585 82 3 584 159 189 1 80 1 575 586 587 9000 0 0 0 0 3 5 0 0 0 FFTFTFT
TFFFFFFFFF3 81 1 504 361 575 251 0 276 588 576 589 84 255 34 585 PQoVoHnCctcR.sk
etch_text.stroke-2281 1 588 356 575 495 0 498 590 504 591 84 34 589 PQoVoHnCctcR
.sketch_text.stroke-2381 1 498 951 35 495 588 0 268 469 592 81 1 590 351 575 499
 0 466 593 588 594 84 34 591 PQoVoHnCctcR.sketch_text.stroke-2481 1 466 903 35 4
99 590 0 529 463 595 81 1 593 105 575 524 0 596 597 590 598 84 33 594 PQoVoHnCct
cR.sketch_text.stroke-016 524 104 596 ?158 599 499 21 0 0 1 81 1 596 906 35 524
 593 0 467 600 601 81 1 597 101 575 599 0 602 603 593 604 84 33 598 PQoVoHnCctcR
.sketch_text.stroke-116 599 100 602 ?605 606 524 607 0 0 1 81 1 602 908 35 599 5
97 0 600 608 609 81 1 603 97 575 606 0 610 611 597 612 84 33 604 PQoVoHnCctcR.sk
etch_text.stroke-216 606 96 610 ?613 614 599 615 0 0 1 81 1 610 910 35 606 603 0
 608 616 617 81 1 611 93 575 614 0 618 619 603 620 84 33 612 PQoVoHnCctcR.sketch
_text.stroke-316 614 92 618 ?621 622 606 623 0 0 1 81 1 618 912 35 614 611 0 616
 624 625 81 1 619 89 575 622 0 626 627 611 628 84 33 620 PQoVoHnCctcR.sketch_tex
t.stroke-416 622 88 626 ?629 630 614 631 0 0 1 81 1 626 914 35 622 619 0 624 632
 633 81 1 627 85 575 630 0 634 635 619 636 84 33 628 PQoVoHnCctcR.sketch_text.st
roke-516 630 84 634 ?637 638 622 639 0 0 1 81 1 634 916 35 630 627 0 632 640 641
 81 1 635 81 575 638 0 642 643 627 644 84 33 636 PQoVoHnCctcR.sketch_text.stroke
-616 638 80 642 ?645 646 630 647 0 0 1 81 1 642 918 35 638 635 0 640 648 649 81
 1 643 77 575 646 0 650 651 635 652 84 33 644 PQoVoHnCctcR.sketch_text.stroke-71
6 646 76 650 ?653 654 638 655 0 0 1 81 1 650 920 35 646 643 0 648 656 657 81 1 6
51 73 575 654 0 658 659 643 660 84 33 652 PQoVoHnCctcR.sketch_text.stroke-816 65
4 72 658 ?661 662 646 663 0 0 1 81 1 658 922 35 654 651 0 656 664 665 81 1 659 6
9 575 662 0 666 667 651 668 84 33 660 PQoVoHnCctcR.sketch_text.stroke-916 662 68
 666 ?669 670 654 671 0 0 1 81 1 666 924 35 662 659 0 664 672 673 81 1 667 65 57
5 670 0 674 675 659 676 84 34 668 PQoVoHnCctcR.sketch_text.stroke-1016 670 64 67
4 ?677 678 662 679 0 0 1 81 1 674 926 35 670 667 0 672 680 681 81 1 675 61 575 6
78 0 682 683 667 684 84 34 676 PQoVoHnCctcR.sketch_text.stroke-1116 678 60 682 ?
685 686 670 687 0 0 1 81 1 682 928 35 678 675 0 680 688 689 81 1 683 57 575 686
 0 690 691 675 692 84 34 684 PQoVoHnCctcR.sketch_text.stroke-1216 686 56 690 ?69
3 371 678 372 0 0 1 81 1 690 930 35 686 683 0 688 694 695 81 1 691 53 575 371 0
 696 697 683 698 84 34 692 PQoVoHnCctcR.sketch_text.stroke-1316 371 52 696 ?699
 364 686 363 0 0 1 81 1 696 932 35 371 691 0 694 700 701 81 1 697 49 575 364 0 3
68 381 691 702 84 34 698 PQoVoHnCctcR.sketch_text.stroke-1481 1 368 934 35 364 6
97 0 700 382 703 81 1 381 45 575 370 0 379 388 697 704 84 34 702 PQoVoHnCctcR.sk
etch_text.stroke-1581 1 388 41 575 336 0 386 705 381 706 84 34 704 PQoVoHnCctcR.
sketch_text.stroke-1681 1 705 37 575 326 0 334 707 388 708 84 34 706 PQoVoHnCctc
R.sketch_text.stroke-1781 1 334 940 35 326 705 0 389 546 709 81 1 707 33 575 316
 0 324 579 705 710 84 34 708 PQoVoHnCctcR.sketch_text.stroke-1881 1 324 942 35 3
16 707 0 546 544 711 81 1 579 29 575 279 0 314 581 707 712 84 34 710 PQoVoHnCctc
R.sketch_text.stroke-1984 34 712 PQoVoHnCctcR.sketch_text.stroke-2081 1 544 943
 35 542 577 0 324 314 713 82 3 711 159 184 1 81 1 577 376 575 542 0 544 571 548
 714 82 3 713 159 185 1 81 1 548 381 575 540 0 546 577 715 716 84 34 714 PQoVoHn
CctcR.sketch_text.stroke-2081 1 715 386 575 403 0 389 548 717 718 84 34 716 PQoV
oHnCctcR.sketch_text.stroke-1981 1 389 939 35 403 715 0 386 334 719 81 1 717 391
 575 550 0 383 715 720 721 84 34 718 PQoVoHnCctcR.sketch_text.stroke-1816 550 38
9 383 ?404 403 722 554 0 0 1 81 1 383 937 35 550 717 0 379 386 723 81 1 720 396
 575 722 0 382 717 724 725 84 34 721 PQoVoHnCctcR.sketch_text.stroke-1716 722 39
4 382 ?726 550 727 728 0 0 1 81 1 382 935 35 722 720 0 368 379 729 81 1 724 401
 575 727 0 700 720 730 731 84 34 725 PQoVoHnCctcR.sketch_text.stroke-1616 727 39
9 700 ?732 722 733 734 0 0 1 81 1 700 933 35 727 724 0 696 368 735 81 1 730 406
 575 733 0 694 724 736 737 84 34 731 PQoVoHnCctcR.sketch_text.stroke-1516 733 40
4 694 ?738 727 739 740 0 0 1 81 1 694 931 35 733 730 0 690 696 741 81 1 736 411
 575 739 0 688 730 742 743 84 34 737 PQoVoHnCctcR.sketch_text.stroke-1416 739 40
9 688 ?744 733 745 746 0 0 1 81 1 688 929 35 739 736 0 682 690 747 81 1 742 416
 575 745 0 680 736 748 749 84 34 743 PQoVoHnCctcR.sketch_text.stroke-1316 745 41
4 680 ?750 739 751 752 0 0 1 81 1 680 927 35 745 742 0 674 682 753 81 1 748 421
 575 751 0 672 742 754 755 84 34 749 PQoVoHnCctcR.sketch_text.stroke-1216 751 41
9 672 ?756 745 757 758 0 0 1 81 1 672 925 35 751 748 0 666 674 759 81 1 754 426
 575 757 0 664 748 760 761 84 34 755 PQoVoHnCctcR.sketch_text.stroke-1116 757 42
4 664 ?762 751 763 764 0 0 1 81 1 664 923 35 757 754 0 658 666 765 81 1 760 431
 575 763 0 656 754 766 767 84 34 761 PQoVoHnCctcR.sketch_text.stroke-1016 763 42
9 656 ?768 757 769 770 0 0 1 81 1 656 921 35 763 760 0 650 658 771 81 1 766 436
 575 769 0 648 760 772 773 84 33 767 PQoVoHnCctcR.sketch_text.stroke-916 769 434
 648 ?774 763 775 776 0 0 1 81 1 648 919 35 769 766 0 642 650 777 81 1 772 441 5
75 775 0 640 766 778 779 84 33 773 PQoVoHnCctcR.sketch_text.stroke-816 775 439 6
40 ?780 769 781 782 0 0 1 81 1 640 917 35 775 772 0 634 642 783 81 1 778 446 575
 781 0 632 772 784 785 84 33 779 PQoVoHnCctcR.sketch_text.stroke-716 781 444 632
 ?786 775 787 788 0 0 1 81 1 632 915 35 781 778 0 626 634 789 81 1 784 451 575 7
87 0 624 778 790 791 84 33 785 PQoVoHnCctcR.sketch_text.stroke-616 787 449 624 ?
792 781 793 794 0 0 1 81 1 624 913 35 787 784 0 618 626 795 81 1 790 456 575 793
 0 616 784 796 797 84 33 791 PQoVoHnCctcR.sketch_text.stroke-516 793 454 616 ?79
8 787 799 800 0 0 1 81 1 616 911 35 793 790 0 610 618 801 81 1 796 461 575 799 0
 608 790 802 803 84 33 797 PQoVoHnCctcR.sketch_text.stroke-416 799 459 608 ?804
 793 805 806 0 0 1 81 1 608 909 35 799 796 0 602 610 807 81 1 802 466 575 805 0
 600 796 808 809 84 33 803 PQoVoHnCctcR.sketch_text.stroke-316 805 464 600 ?810
 799 477 478 0 0 1 81 1 600 907 35 805 802 0 596 602 811 81 1 808 471 575 477 0
 467 802 0 812 84 33 809 PQoVoHnCctcR.sketch_text.stroke-216 477 469 467 ?813 80
5 0 470 0 0 1 81 1 467 905 35 477 808 0 463 596 814 84 33 812 PQoVoHnCctcR.sketc
h_text.stroke-182 3 814 159 147 1 17 813 0 496 810 497 52 159 477 0 0 +17 810 0
 496 804 813 56 460 805 0 0 +17 497 0 496 813 151 49 41 499 0 0 +17 159 0 157 15
3 55 49 813 477 0 497 -15 157 698 0 159 19 0 14 19 699 815 ?263 816 157 6 7 +0 0
 263 816 26 81 1 815 1008 491 19 817 0 818 819 820 14 263 4 819 ?488 19 259 6 48
9 +0 0 488 19 26 14 816 697 818 ?19 821 822 6 20 +0 0 19 821 26 81 1 818 1007 49
1 816 823 0 824 815 825 14 821 695 824 ?816 826 827 6 828 +0 0 816 826 26 15 822
 696 0 460 816 0 67 20 723 0 816 828 7 0 +607 -1 0 0 ?50 828 722 0 821 829 20 0
 +5.0466220607938 -1.19167575613605 .1731408397122385 0 -1 0 0 0 -1 134 607 184
 0 599 21 615 830 +831 832 134 21 183 0 524 0 607 833 +834 835 30 615 185 0 606
 607 623 0 +5.0466220607938 -1.19167575613605 .1731408397122385 0 0 1 141 830 20
 830 830 607 136 831 2 3 3 2 5 FFF2 836 837 838 135 832 2 0 45 9 836 5.046622060
7938 -1.04339063094298 .1178601450402622 5.0466220607938 -1.139716648268398 .117
8601450402622 5.0466220607938 -1.19167575613605 .142772046072698 127 4 837 3 3 0
 0 128 4 838 0 1 ??134 623 186 0 614 615 631 839 +840 841 134 631 187 0 622 623
 639 842 +843 844 141 839 829 839 839 623 136 840 2 3 3 2 5 FFF2 845 846 847 135
 841 2 0 45 9 845 5.0466220607938 -1.19167575613605 .2035096333517795 5.04662206
07938 -1.158222631892492 .1895115175335535 5.0466220607938 -1.118956730741368 .1
81326178622896 127 4 846 3 3 0 0 128 4 847 0 1 ??67 829 721 0 826 848 828 0 +623
 -1 0 0 ?14 826 693 849 ?821 850 851 6 829 +0 0 821 850 26 67 848 720 0 850 852
 829 0 +631 -1 0 0 ?14 850 691 853 ?826 854 855 6 848 +0 0 826 854 26 67 852 719
 0 854 856 848 0 +639 -1 0 0 ?14 854 689 857 ?850 858 859 6 852 +0 0 850 858 26
 67 856 718 0 858 860 852 0 +647 -1 0 0 ?134 639 188 0 630 631 647 861 +862 863
 134 647 189 0 638 639 655 864 +865 866 141 861 852 861 861 639 136 862 2 3 3 2
 5 FFF2 867 868 869 135 863 2 0 45 9 867 5.0466220607938 -1.041136697040044 .173
1408397122385 5.0466220607938 -.978145175858029 .1731408397122385 5.046622060793
8 -.94623421691648 .1970444018933615 127 4 868 3 3 0 0 128 4 869 0 1 ??134 655 1
90 0 646 647 663 870 +871 872 141 864 856 864 864 647 136 865 2 3 3 2 5 FFF2 873
 874 875 135 866 2 0 45 9 873 5.0466220607938 -.94623421691648 .1970444018933615
 5.0466220607938 -.914323257974931 .2209479640744845 5.0466220607938 -.914323257
974931 .263654080130089 127 4 874 3 3 0 0 128 4 875 0 1 ??134 663 191 0 654 655
 671 876 +877 878 141 870 860 870 870 655 136 871 2 3 3 2 5 FFF2 879 880 881 135
 872 2 0 45 9 879 5.0466220607938 -.914323257974931 .263654080130089 5.046622060
7938 -.914323257974931 .291768939866695 5.0466220607938 -.925652241539682 .30974
1097040095 127 4 880 3 3 0 0 128 4 881 0 1 ??67 860 717 0 882 883 856 0 +655 -1
 0 0 ?14 882 685 884 ?858 885 886 6 860 +0 0 858 885 26 67 883 716 0 885 887 860
 0 +663 -1 0 0 ?14 885 683 888 ?882 889 890 6 883 +0 0 882 889 26 67 887 715 0 8
89 891 883 0 +671 -1 0 0 ?14 889 681 892 ?885 893 894 6 887 +0 0 885 893 26 67 8
91 714 0 893 895 887 0 +679 -1 0 0 ?134 671 192 0 662 663 679 896 +897 898 134 6
79 193 0 670 671 687 899 +900 901 141 896 887 896 896 671 136 897 2 3 3 2 5 FFF2
 902 903 904 135 898 2 0 45 9 902 5.0466220607938 -.963494605488953 .34295696508
33425 5.0466220607938 -.990007985873474 .35820067595319 5.0466220607938 -1.04410
2399543906 .377418428178212 127 4 903 3 3 0 0 128 4 904 0 1 ??134 687 194 0 678
 679 372 905 +906 907 141 899 891 899 899 679 136 900 2 3 3 2 5 FFF2 908 909 910
 135 901 2 0 45 9 908 5.0466220607938 -1.044102399543906 .377418428178212 5.0466
220607938 -1.119668499342294 .404465635013428 5.0466220607938 -1.15211328473454
 .4415369163116955 127 4 909 3 3 0 0 128 4 910 0 1 ??134 372 195 0 686 687 363 9
11 +912 913 141 905 895 905 905 687 136 906 2 3 3 2 5 FFF2 914 915 916 135 907 2
 0 45 9 914 5.0466220607938 -1.15211328473454 .4415369163116955 5.0466220607938
 -1.184558070126782 .478608197609963 5.0466220607938 -1.184558070126782 .5382781
31987655 127 4 915 3 3 0 0 128 4 916 0 1 ??67 895 713 0 917 362 891 0 +687 -1 0
 0 ?14 917 677 918 ?893 919 920 6 895 +0 0 893 919 26 67 362 712 0 919 357 895 0
 +372 -1 0 0 ?14 919 675 921 ?917 360 922 6 362 +0 0 917 360 26 81 1 921 996 491
 919 923 0 924 918 925 14 360 673 924 ?919 355 926 6 357 +0 0 919 355 26 15 922
 674 0 927 919 0 17 927 0 922 208 103 96 744 739 0 750 -17 208 0 922 693 927 205
 99 424 0 928 -17 103 0 922 927 693 100 212 421 0 929 +17 744 0 496 738 750 100
 927 739 0 0 +17 750 0 496 744 756 96 930 745 0 0 +17 756 0 496 750 762 92 931 7
51 0 0 +17 930 0 920 204 99 92 750 745 0 756 -15 920 676 0 930 917 0 17 204 0 92
0 685 930 201 95 427 0 932 -17 99 0 920 930 685 96 208 424 0 927 +17 685 0 920 9
9 204 205 932 678 0 0 +17 932 0 259 933 928 201 685 678 0 677 -17 933 0 259 934
 932 197 677 670 0 669 -17 928 0 259 932 935 205 693 686 0 685 -17 677 0 936 95
 200 201 933 670 0 0 +15 936 678 0 931 893 0 17 95 0 936 931 677 92 204 427 0 93
0 +17 200 0 936 677 931 197 91 430 0 933 -17 931 0 936 200 95 88 756 751 0 762 -
17 91 0 894 937 669 88 200 430 0 931 +15 894 680 0 937 889 0 17 937 0 894 196 91
 84 762 757 0 768 -17 669 0 894 91 196 197 934 662 0 0 +17 196 0 894 669 937 193
 87 433 0 934 -17 934 0 259 938 933 193 669 662 0 661 -17 938 0 259 939 934 189
 661 654 0 653 -17 661 0 890 87 192 193 938 654 0 0 +15 890 682 0 940 885 0 17 8
7 0 890 940 661 84 196 433 0 937 +17 192 0 890 661 940 189 83 436 0 938 -17 940
 0 890 192 87 80 768 763 0 774 -17 83 0 886 941 653 80 192 436 0 940 +15 886 684
 0 941 882 0 17 941 0 886 188 83 76 774 769 0 780 -17 653 0 886 83 188 189 939 6
46 0 0 +17 188 0 886 653 941 185 79 439 0 939 -17 939 0 259 942 938 185 653 646
 0 645 -17 942 0 259 943 939 181 645 638 0 637 -17 645 0 944 79 184 185 942 638
 0 0 +15 944 686 0 945 858 0 17 79 0 944 945 645 76 188 439 0 941 +17 184 0 944
 645 945 181 75 442 0 942 -17 945 0 944 184 79 72 780 775 0 786 -17 75 0 859 946
 637 72 184 442 0 945 +15 859 688 0 946 854 0 17 946 0 859 180 75 68 786 781 0 7
92 -17 637 0 859 75 180 181 943 630 0 0 +17 180 0 859 637 946 177 71 445 0 943 -
17 943 0 259 947 942 177 637 630 0 629 -17 947 0 259 948 943 173 629 622 0 621 -
17 629 0 855 71 176 177 947 622 0 0 +15 855 690 0 949 850 0 17 71 0 855 949 629
 68 180 445 0 946 +17 176 0 855 629 949 173 67 448 0 947 -17 949 0 855 176 71 64
 792 787 0 798 -17 67 0 851 950 621 64 176 448 0 949 +15 851 692 0 950 826 0 17
 950 0 851 172 67 60 798 793 0 804 -17 621 0 851 67 172 173 948 614 0 0 +17 172
 0 851 621 950 169 63 451 0 948 -17 948 0 259 951 947 169 621 614 0 613 -17 951
 0 259 952 948 163 613 606 0 605 -17 613 0 827 63 168 169 951 606 0 0 +15 827 69
4 0 953 821 0 17 63 0 827 953 613 60 172 451 0 950 +17 168 0 827 613 953 163 59
 454 0 951 -17 953 0 827 168 63 56 804 799 0 810 -17 59 0 822 460 605 56 168 454
 0 953 +17 460 0 822 162 59 52 810 805 0 813 -17 605 0 822 59 162 163 952 599 0
 0 +17 162 0 822 605 460 154 55 456 0 952 -17 952 0 259 160 951 154 605 599 0 15
8 -17 160 0 259 262 952 148 158 524 0 40 -17 158 0 157 55 153 154 160 524 0 0 +1
7 262 0 259 261 160 12 40 461 0 0 -17 804 0 496 798 810 60 953 799 0 0 +17 798 0
 496 792 804 64 950 793 0 0 +17 792 0 496 786 798 68 949 787 0 0 +17 786 0 496 7
80 792 72 946 781 0 0 +17 780 0 496 774 786 76 945 775 0 0 +17 774 0 496 768 780
 80 941 769 0 0 +17 768 0 496 762 774 84 940 763 0 0 +17 762 0 496 756 768 88 93
7 757 0 0 +14 858 687 954 ?854 882 944 6 856 +0 0 854 882 26 81 1 954 1002 491 8
58 955 0 884 857 956 80 1 491 0 957 8001 0 0 0 0 3 5 0 0 0 FFFFTFTFFFFFFFFFF2 81
 1 955 962 35 858 0 954 958 959 960 81 1 884 1001 491 882 959 0 888 954 961 81 1
 857 1003 491 854 958 0 954 853 962 83 255 3 956 .498039215686275 .4980392156862
75 .498039215686275 81 1 958 961 35 854 0 857 963 955 964 81 1 853 1004 491 850
 963 0 857 849 965 83 3 962 .498039215686275 .498039215686275 .498039215686275 8
1 1 963 960 35 850 0 853 966 958 967 81 1 849 1005 491 826 966 0 853 824 968 83
 3 965 .498039215686275 .498039215686275 .498039215686275 81 1 966 959 35 826 0
 849 969 963 970 81 1 824 1006 491 821 969 0 849 818 971 83 3 968 .4980392156862
75 .498039215686275 .498039215686275 81 1 969 958 35 821 0 824 823 966 972 83 3
 971 .498039215686275 .498039215686275 .498039215686275 81 1 823 957 35 816 0 81
8 817 969 973 82 3 972 159 5 2 81 1 817 956 35 19 0 815 974 823 975 82 3 973 159
 4 2 81 1 974 955 35 263 0 819 976 817 977 82 3 975 159 3 2 81 1 819 1009 491 26
3 974 0 815 978 979 81 1 976 954 35 488 0 978 980 974 981 82 3 977 159 2 2 14 48
8 320 978 ?0 263 496 6 485 -0 0 0 263 26 81 1 978 1010 491 488 976 0 819 0 982 8
1 1 980 953 35 17 0 486 469 976 983 82 3 981 159 1 2 81 1 486 984 491 17 980 0 0
 490 984 81 1 469 952 35 267 985 0 498 980 986 82 3 983 159 0 2 81 1 985 13 575
 267 0 469 465 987 988 82 3 986 159 194 1 81 1 465 9 575 461 0 463 0 985 989 81
 1 987 17 575 249 0 268 985 274 990 84 34 988 PQoVoHnCctcR.sketch_text.stroke-24
81 1 268 950 35 249 987 0 276 498 991 81 1 274 21 575 265 0 271 987 581 992 84 3
4 990 PQoVoHnCctcR.sketch_text.stroke-2384 34 992 PQoVoHnCctcR.sketch_text.strok
e-2282 3 991 159 192 1 84 33 989 PQoVoHnCctcR.sketch_text.stroke-083 3 984 .4980
39215686275 .498039215686275 .498039215686275 83 3 982 .498039215686275 .4980392
15686275 .498039215686275 83 3 979 .498039215686275 .498039215686275 .4980392156
86275 82 3 970 159 6 2 82 3 967 159 7 2 82 3 964 159 8 2 81 1 959 963 35 882 0 8
84 955 993 994 81 1 888 1000 491 885 993 0 892 884 995 83 3 961 .498039215686275
 .498039215686275 .498039215686275 81 1 993 964 35 885 0 888 959 996 997 81 1 89
2 999 491 889 996 0 998 888 999 83 3 995 .498039215686275 .498039215686275 .4980
39215686275 81 1 996 965 35 889 0 892 993 1000 1001 81 1 998 998 491 893 1000 0
 918 892 1002 83 3 999 .498039215686275 .498039215686275 .498039215686275 14 893
 679 998 ?889 917 936 6 891 +0 0 889 917 26 81 1 1000 966 35 893 0 998 996 1003
 1004 81 1 918 997 491 917 1003 0 921 998 1005 83 3 1002 .498039215686275 .49803
9215686275 .498039215686275 81 1 1003 967 35 917 0 918 1000 923 1006 83 3 1005 .
498039215686275 .498039215686275 .498039215686275 81 1 923 968 35 919 0 921 1003
 1007 1008 82 3 1006 159 14 2 81 1 1007 969 35 360 0 924 923 1009 1010 82 3 1008
 159 15 2 81 1 924 995 491 360 1007 0 359 921 1011 81 1 1009 970 35 355 0 359 10
07 1012 1013 82 3 1010 159 16 2 81 1 359 994 491 355 1009 0 354 924 1014 81 1 10
12 971 35 351 0 354 1009 1015 1016 82 3 1013 159 17 2 81 1 354 993 491 351 1012
 0 350 359 1017 81 1 1015 972 35 347 0 350 1012 1018 1019 82 3 1016 159 18 2 81
 1 350 992 491 347 1015 0 346 354 1020 81 1 1018 973 35 344 0 346 1015 1021 1022
 82 3 1019 159 19 2 81 1 346 991 491 344 1018 0 1023 350 1024 81 1 1021 974 35 3
07 0 1023 1018 1025 1026 82 3 1022 159 20 2 14 307 663 1023 ?344 303 537 6 305 +
0 0 344 303 26 81 1 1023 990 491 307 1021 0 306 346 1027 81 1 1025 975 35 303 0
 306 1021 1028 1029 82 3 1026 159 21 2 81 1 306 989 491 303 1025 0 302 1023 1030
 81 1 1028 976 35 299 0 302 1025 1031 1032 82 3 1029 159 22 2 81 1 302 988 491 2
99 1028 0 298 306 1033 81 1 1031 977 35 270 0 298 1028 1034 1035 82 3 1032 159 2
3 2 81 1 298 987 491 270 1031 0 493 302 1036 81 1 1034 978 35 248 0 493 1031 492
 1037 82 3 1035 159 24 2 81 1 493 986 491 248 1034 0 490 298 1038 81 1 492 979 3
5 487 0 490 1034 1039 1040 82 3 1037 159 25 2 81 1 1039 980 35 1 0 1041 492 0 10
42 82 3 1040 159 26 2 81 1 1041 981 1043 1 1039 14 0 0 1044 82 3 1042 159 0 3 80
 1 1043 1045 1046 8038 0 0 0 0 0 0 0 0 0 TTTTTTTTTTTTTFTFT10 81 1 14 982 1045 1
 1041 2 0 0 1047 98 255 20 1044 80 97 114 116 32 50 56 55 32 115 97 110 100 98 1
11 120 32 116 111 112 80 1 1045 1048 1049 8017 0 0 0 0 0 0 0 0 0 TTTTTTTTTTTTTFT
FT3 84 20 1047 Part 287 sandbox top79 255 13 1049 SDL/TYSA_NAME79 14 1046 SDL/TY
SA_UNAME83 3 1038 .498039215686275 .498039215686275 .498039215686275 83 3 1036 .
498039215686275 .498039215686275 .498039215686275 83 3 1033 .498039215686275 .49
8039215686275 .498039215686275 83 3 1030 .498039215686275 .498039215686275 .4980
39215686275 83 3 1027 .498039215686275 .498039215686275 .498039215686275 83 3 10
24 .498039215686275 .498039215686275 .498039215686275 83 3 1020 .498039215686275
 .498039215686275 .498039215686275 83 3 1017 .498039215686275 .498039215686275 .
498039215686275 83 3 1014 .498039215686275 .498039215686275 .498039215686275 83
 3 1011 .498039215686275 .498039215686275 .498039215686275 82 3 1004 159 13 2 82
 3 1001 159 12 2 82 3 997 159 11 2 82 3 994 159 10 2 82 3 960 159 9 2 79 15 957
 SDL/TYSA_COLOUR17 935 0 259 928 397 209 699 371 0 693 -17 693 0 922 103 208 209
 928 686 0 0 +17 397 0 259 935 385 213 369 364 0 699 -17 699 0 926 107 212 213 9
35 371 0 0 +15 926 672 0 929 360 0 17 107 0 926 929 699 104 216 418 0 1050 +17 2
12 0 926 699 929 209 103 421 0 935 -17 929 0 926 212 107 100 738 733 0 744 -17 7
38 0 496 732 744 104 929 733 0 0 +17 732 0 496 726 738 108 1050 727 0 0 +17 726
 0 496 404 732 112 1051 722 0 0 +17 1050 0 361 216 111 104 732 727 0 738 -15 361
 670 0 1050 355 0 17 216 0 361 369 1050 213 107 418 0 397 -17 111 0 361 1050 369
 108 220 412 0 1051 +17 369 0 361 111 216 217 397 364 0 0 +17 220 0 356 380 1051
 217 111 412 0 385 -17 1051 0 356 220 115 108 726 722 0 732 -15 356 668 0 1051 3
51 0 17 115 0 356 1051 380 112 224 395 0 392 +17 392 0 352 224 119 112 404 550 0
 726 -17 404 0 496 402 726 116 392 550 0 0 +83 3 925 .498039215686275 .498039215
686275 .498039215686275 141 911 362 911 911 372 136 912 2 3 3 2 5 FFF2 1052 1053
 1054 135 913 2 0 45 9 1052 5.0466220607938 -1.184558070126782 .538278131987655
 5.0466220607938 -1.184558070126782 .600913768869207 5.0466220607938 -1.13752202
841554 .637985050167475 127 4 1053 3 3 0 0 128 4 1054 0 1 ??141 876 883 876 876
 663 136 877 2 3 3 2 5 FFF2 1055 1056 1057 135 878 2 0 45 9 1055 5.0466220607938
 -.925652241539682 .309741097040095 5.0466220607938 -.936981225104432 .327713254
213495 5.0466220607938 -.963494605488953 .3429569650833425 127 4 1056 3 3 0 0 12
8 4 1057 0 1 ??141 842 848 842 842 631 136 843 2 3 3 2 5 FFF2 1058 1059 1060 135
 844 2 0 45 9 1058 5.0466220607938 -1.118956730741368 .181326178622896 5.0466220
607938 -1.079690829590242 .1731408397122385 5.0466220607938 -1.041136697040044 .
1731408397122385 127 4 1059 3 3 0 0 128 4 1060 0 1 ??141 833 7 833 833 21 136 83
4 2 3 3 2 5 FFF2 1061 1062 1063 135 835 2 0 45 9 1061 5.0466220607938 -.90251976
2009563 .1579564428924685 5.0466220607938 -.954419555827137 .1178601450402622 5.
0466220607938 -1.04339063094298 .1178601450402622 127 4 1062 3 3 0 0 128 4 1063
 0 1 ??83 3 825 .498039215686275 .498039215686275 .498039215686275 50 489 238 0
 263 0 485 0 +5.0466220607938 0 .4064 1 0 0 0 1 0 83 3 820 .498039215686275 .498
039215686275 .498039215686275 17 41 0 39 32 51 24 497 499 0 0 -15 39 650 0 41 17
 0 82 3 811 159 149 1 134 478 598 0 805 470 806 0 +1064 1065 30 806 597 0 799 47
8 800 0 +4.9958220607938 -1.19167575613605 .1731408397122385 0 0 1 136 1064 2 3
 3 2 5 FFF2 1066 1067 1068 135 1065 2 0 45 9 1066 4.9958220607938 -1.04339063094
298 .1178601450402622 4.9958220607938 -1.139716648268398 .1178601450402622 4.995
8220607938 -1.19167575613605 .142772046072698 127 4 1067 3 3 0 0 128 4 1068 0 1
 ??134 800 596 0 793 806 794 0 +1069 1070 134 794 595 0 787 800 788 0 +1071 1072
 136 1069 2 3 3 2 5 FFF2 1073 1074 1075 135 1070 2 0 45 9 1073 4.9958220607938 -
1.19167575613605 .2035096333517795 4.9958220607938 -1.158222631892492 .189511517
5335535 4.9958220607938 -1.118956730741368 .181326178622896 127 4 1074 3 3 0 0 1
28 4 1075 0 1 ??134 788 594 0 781 794 782 0 +1076 1077 136 1071 2 3 3 2 5 FFF2 1
078 1079 1080 135 1072 2 0 45 9 1078 4.9958220607938 -1.118956730741368 .1813261
78622896 4.9958220607938 -1.079690829590242 .1731408397122385 4.9958220607938 -1
.041136697040044 .1731408397122385 127 4 1079 3 3 0 0 128 4 1080 0 1 ??134 782 5
93 0 775 788 776 0 +1081 1082 136 1076 2 3 3 2 5 FFF2 1083 1084 1085 135 1077 2
 0 45 9 1083 4.9958220607938 -1.041136697040044 .1731408397122385 4.995822060793
8 -.978145175858029 .1731408397122385 4.9958220607938 -.94623421691648 .19704440
18933615 127 4 1084 3 3 0 0 128 4 1085 0 1 ??134 776 592 0 769 782 770 0 +1086 1
087 136 1081 2 3 3 2 5 FFF2 1088 1089 1090 135 1082 2 0 45 9 1088 4.995822060793
8 -.94623421691648 .1970444018933615 4.9958220607938 -.914323257974931 .22094796
40744845 4.9958220607938 -.914323257974931 .263654080130089 127 4 1089 3 3 0 0 1
28 4 1090 0 1 ??134 770 591 0 763 776 764 0 +1091 1092 136 1086 2 3 3 2 5 FFF2 1
093 1094 1095 135 1087 2 0 45 9 1093 4.9958220607938 -.914323257974931 .26365408
0130089 4.9958220607938 -.914323257974931 .291768939866695 4.9958220607938 -.925
652241539682 .309741097040095 127 4 1094 3 3 0 0 128 4 1095 0 1 ??134 764 590 0
 757 770 758 0 +1096 1097 136 1091 2 3 3 2 5 FFF2 1098 1099 1100 135 1092 2 0 45
 9 1098 4.9958220607938 -.925652241539682 .309741097040095 4.9958220607938 -.936
981225104432 .327713254213495 4.9958220607938 -.963494605488953 .342956965083342
5 127 4 1099 3 3 0 0 128 4 1100 0 1 ??134 758 589 0 751 764 752 0 +1101 1102 136
 1096 2 3 3 2 5 FFF2 1103 1104 1105 135 1097 2 0 45 9 1103 4.9958220607938 -.963
494605488953 .3429569650833425 4.9958220607938 -.990007985873474 .35820067595319
 4.9958220607938 -1.044102399543906 .377418428178212 127 4 1104 3 3 0 0 128 4 11
05 0 1 ??134 752 588 0 745 758 746 0 +1106 1107 136 1101 2 3 3 2 5 FFF2 1108 110
9 1110 135 1102 2 0 45 9 1108 4.9958220607938 -1.044102399543906 .37741842817821
2 4.9958220607938 -1.119668499342294 .404465635013428 4.9958220607938 -1.1521132
8473454 .4415369163116955 127 4 1109 3 3 0 0 128 4 1110 0 1 ??134 746 587 0 739
 752 740 0 +1111 1112 136 1106 2 3 3 2 5 FFF2 1113 1114 1115 135 1107 2 0 45 9 1
113 4.9958220607938 -1.15211328473454 .4415369163116955 4.9958220607938 -1.18455
8070126782 .478608197609963 4.9958220607938 -1.184558070126782 .538278131987655
 127 4 1114 3 3 0 0 128 4 1115 0 1 ??134 740 586 0 733 746 734 0 +1116 1117 136
 1111 2 3 3 2 5 FFF2 1118 1119 1120 135 1112 2 0 45 9 1118 4.9958220607938 -1.18
4558070126782 .538278131987655 4.9958220607938 -1.184558070126782 .6009137688692
07 4.9958220607938 -1.13752202841554 .637985050167475 127 4 1119 3 3 0 0 128 4 1
120 0 1 ??134 734 585 0 727 740 728 0 +1121 1122 136 1116 2 3 3 2 5 FFF2 1123 11
24 1125 135 1117 2 0 45 9 1123 4.9958220607938 -1.13752202841554 .63798505016747
5 4.9958220607938 -1.0904859867043 .675056331465742 4.9958220607938 -1.012903209
203284 .675056331465742 127 4 1124 3 3 0 0 128 4 1125 0 1 ??30 728 584 0 722 734
 554 0 +4.9958220607938 -.874108332022571 .617996215291449 0 -.3381423501465845
 -.941094974504351 136 1121 2 3 3 2 5 FFF2 1126 1127 1128 135 1122 2 0 45 9 1126
 4.9958220607938 -1.012903209203284 .675056331465742 4.9958220607938 -.932117472
9981 .675056331465742 4.9958220607938 -.864262199709751 .645399306427128 127 4 1
127 3 3 0 0 128 4 1128 0 1 ??134 554 583 0 550 728 551 0 +1129 1130 136 1129 2 3
 3 2 5 FFF2 1131 1132 1133 135 1130 2 0 45 9 1131 4.9958220607938 -.883954464335
391 .59059312415577 4.9958220607938 -.951097969022813 .618707983892376 4.9958220
607938 -1.014445374505292 .618707983892376 127 4 1132 3 3 0 0 128 4 1133 0 1 ??8
2 3 807 159 151 1 82 3 801 159 153 1 82 3 795 159 155 1 82 3 789 159 157 1 82 3
 783 159 159 1 82 3 777 159 161 1 82 3 771 159 163 1 82 3 765 159 165 1 82 3 759
 159 167 1 82 3 753 159 169 1 82 3 747 159 171 1 82 3 741 159 173 1 82 3 735 159
 175 1 82 3 729 159 177 1 82 3 723 159 179 1 82 3 719 159 181 1 82 3 709 159 182
 1 82 3 703 159 176 1 82 3 701 159 174 1 82 3 695 159 172 1 82 3 689 159 170 1 8
2 3 681 159 168 1 82 3 673 159 166 1 82 3 665 159 164 1 82 3 657 159 162 1 82 3
 649 159 160 1 82 3 641 159 158 1 82 3 633 159 156 1 82 3 625 159 154 1 82 3 617
 159 152 1 82 3 609 159 150 1 82 3 601 159 148 1 81 1 529 902 35 29 0 0 256 466
 1134 82 3 595 159 145 1 81 1 256 901 35 246 0 0 532 529 1135 82 3 1134 159 24 1
 81 1 532 900 35 257 0 0 534 256 1136 82 3 1135 159 23 1 81 1 534 899 35 533 0 0
 535 532 1137 82 3 1136 159 22 1 82 3 1137 159 21 1 82 3 592 159 193 1 79 27 587
 BTI/ImprintedSketchEntityId84 34 583 PQoVoHnCctcR.sketch_text.stroke-2182 3 580
 159 186 1 84 34 578 PQoVoHnCctcR.sketch_text.stroke-2179 9 574 BTI/DetId136 555
 2 3 3 2 5 FFF2 1138 1139 1140 135 556 2 0 45 9 1138 4.9958220607938 -1.01444537
4505292 .618707983892376 4.9958220607938 -1.064506432770472 .618707983892376 4.9
958220607938 -1.092680606557156 .597236297764419 127 4 1139 3 3 0 0 128 4 1140 0
 1 ??82 3 549 159 183 1 17 232 0 537 325 401 229 123 400 0 398 -81 1 408 897 35
 400 0 0 405 535 1141 82 3 536 159 20 1 82 3 1141 159 19 1 136 511 2 3 3 2 5 FFF
2 1142 1143 1144 135 512 2 0 45 9 1142 4.9958220607938 -1.075420217984682 .45838
2106533628 4.9958220607938 -1.050745573152556 .4433756518640895 4.9958220607938
 -.999972746286449 .425225552540458 127 4 1143 3 3 0 0 128 4 1144 0 1 ??82 3 505
 159 191 1 17 42 0 150 28 44 12 261 267 0 262 +83 3 494 .498039215686275 .498039
215686275 .498039215686275 136 479 2 3 3 2 5 FFF2 1145 1146 1147 135 480 2 0 45
 9 1145 4.9958220607938 -.902519762009563 .1579564428924685 4.9958220607938 -.95
4419555827137 .1178601450402622 4.9958220607938 -1.04339063094298 .1178601450402
622 127 4 1146 3 3 0 0 128 4 1147 0 1 ??141 474 300 474 474 288 136 475 2 3 3 2
 5 FFF2 1148 1149 1150 135 476 2 0 45 9 1148 5.0466220607938 -.882649555233692 .
359980097455507 5.0466220607938 -.850619968191988 .325103436010097 5.04662206079
38 -.850619968191988 .2695854851378115 127 4 1149 3 3 0 0 128 4 1150 0 1 ??82 3
 468 159 146 1 81 1 27 878 35 11 0 0 43 458 1151 82 3 462 159 1 1 81 1 43 877 35
 33 0 0 140 27 1152 82 3 1151 159 0 1 82 3 1152 159 49 0 81 1 455 881 35 454 0 0
 457 453 1153 82 3 459 159 2 1 81 1 453 882 35 451 0 0 455 450 1154 82 3 1153 15
9 3 1 81 1 450 883 35 448 0 0 453 447 1155 82 3 1154 159 4 1 81 1 447 884 35 445
 0 0 450 444 1156 82 3 1155 159 5 1 81 1 444 885 35 442 0 0 447 441 1157 82 3 11
56 159 6 1 81 1 441 886 35 439 0 0 444 438 1158 82 3 1157 159 7 1 81 1 438 887 3
5 436 0 0 441 435 1159 82 3 1158 159 8 1 81 1 435 888 35 433 0 0 438 432 1160 82
 3 1159 159 9 1 81 1 432 889 35 430 0 0 435 429 1161 82 3 1160 159 10 1 81 1 429
 890 35 427 0 0 432 426 1162 82 3 1161 159 11 1 81 1 426 891 35 424 0 0 429 423
 1163 82 3 1162 159 12 1 81 1 423 892 35 421 0 0 426 420 1164 82 3 1163 159 13 1
 81 1 420 893 35 418 0 0 423 417 1165 82 3 1164 159 14 1 81 1 417 894 35 412 0 0
 420 407 1166 82 3 1165 159 15 1 81 1 407 895 35 395 0 0 417 405 1167 82 3 1166
 159 16 1 82 3 1167 159 17 1 82 3 409 159 18 1 82 3 390 159 180 1 82 3 384 159 1
78 1 141 373 357 373 373 363 136 374 2 3 3 2 5 FFF2 1168 1169 1170 135 375 2 0 4
5 9 1168 5.0466220607938 -1.13752202841554 .637985050167475 5.0466220607938 -1.0
904859867043 .675056331465742 5.0466220607938 -1.012903209203284 .67505633146574
2 127 4 1169 3 3 0 0 128 4 1170 0 1 ??141 338 345 338 338 327 136 339 2 3 3 2 5
 FFF2 1171 1172 1173 135 340 2 0 45 9 1171 5.0466220607938 -.883954464335391 .59
059312415577 5.0466220607938 -.951097969022813 .618707983892376 5.0466220607938
 -1.014445374505292 .618707983892376 127 4 1172 3 3 0 0 128 4 1173 0 1 ??141 289
 296 289 289 269 136 290 2 3 3 2 5 FFF2 1174 1175 1176 135 291 2 0 45 9 1174 5.0
466220607938 -.999972746286449 .425225552540458 5.0466220607938 -.91467914227539
5 .394856758900917 5.0466220607938 -.882649555233692 .359980097455507 127 4 1175
 3 3 0 0 128 4 1176 0 1 ??141 285 297 285 285 280 136 286 2 3 3 2 5 FFF2 1177 11
78 1179 135 287 2 0 45 9 1177 5.0466220607938 -1.110474821580324 .49142003242664
4 5.0466220607938 -1.10009486281681 .473388561203167 5.0466220607938 -1.07542021
7984682 .458382106533628 127 4 1178 3 3 0 0 128 4 1179 0 1 ??82 3 277 159 190 1
 81 1 137 874 35 136 0 0 242 142 1180 82 3 245 159 47 0 81 1 242 873 35 241 0 0
 134 137 1181 82 3 1180 159 46 0 81 1 134 872 35 132 0 0 239 242 1182 82 3 1181
 159 45 0 81 1 239 871 35 237 0 0 130 134 1183 82 3 1182 159 44 0 81 1 130 870 3
5 128 0 0 235 239 1184 82 3 1183 159 43 0 81 1 235 869 35 233 0 0 126 130 1185 8
2 3 1184 159 42 0 81 1 126 868 35 124 0 0 231 235 1186 82 3 1185 159 41 0 81 1 2
31 867 35 229 0 0 122 126 1187 82 3 1186 159 40 0 81 1 122 866 35 120 0 0 227 23
1 1188 82 3 1187 159 39 0 81 1 227 865 35 225 0 0 118 122 1189 82 3 1188 159 38
 0 81 1 118 864 35 116 0 0 223 227 1190 82 3 1189 159 37 0 81 1 223 863 35 221 0
 0 114 118 1191 82 3 1190 159 36 0 81 1 114 862 35 112 0 0 219 223 1192 82 3 119
1 159 35 0 81 1 219 861 35 217 0 0 110 114 1193 82 3 1192 159 34 0 81 1 110 860
 35 108 0 0 215 219 1194 82 3 1193 159 33 0 81 1 215 859 35 213 0 0 106 110 1195
 82 3 1194 159 32 0 81 1 106 858 35 104 0 0 211 215 1196 82 3 1195 159 31 0 81 1
 211 857 35 209 0 0 102 106 1197 82 3 1196 159 30 0 81 1 102 856 35 100 0 0 207
 211 1198 82 3 1197 159 29 0 81 1 207 855 35 205 0 0 98 102 1199 82 3 1198 159 2
8 0 81 1 98 854 35 96 0 0 203 207 1200 82 3 1199 159 27 0 81 1 203 853 35 201 0
 0 94 98 1201 82 3 1200 159 26 0 81 1 94 852 35 92 0 0 199 203 1202 82 3 1201 15
9 25 0 81 1 199 851 35 197 0 0 90 94 1203 82 3 1202 159 24 0 81 1 90 850 35 88 0
 0 195 199 1204 82 3 1203 159 23 0 81 1 195 849 35 193 0 0 86 90 1205 82 3 1204
 159 22 0 81 1 86 848 35 84 0 0 191 195 1206 82 3 1205 159 21 0 81 1 191 847 35
 189 0 0 82 86 1207 82 3 1206 159 20 0 81 1 82 846 35 80 0 0 187 191 1208 82 3 1
207 159 19 0 81 1 187 845 35 185 0 0 78 82 1209 82 3 1208 159 18 0 81 1 78 844 3
5 76 0 0 183 187 1210 82 3 1209 159 17 0 81 1 183 843 35 181 0 0 74 78 1211 82 3
 1210 159 16 0 81 1 74 842 35 72 0 0 179 183 1212 82 3 1211 159 15 0 81 1 179 84
1 35 177 0 0 70 74 1213 82 3 1212 159 14 0 81 1 70 840 35 68 0 0 175 179 1214 82
 3 1213 159 13 0 81 1 175 839 35 173 0 0 66 70 1215 82 3 1214 159 12 0 81 1 66 8
38 35 64 0 0 171 175 1216 82 3 1215 159 11 0 81 1 171 837 35 169 0 0 62 66 1217
 82 3 1216 159 10 0 81 1 62 836 35 60 0 0 167 171 1218 82 3 1217 159 9 0 81 1 16
7 835 35 163 0 0 58 62 1219 82 3 1218 159 8 0 81 1 58 834 35 56 0 0 161 167 1220
 82 3 1219 159 7 0 81 1 161 833 35 154 0 0 54 58 1221 82 3 1220 159 6 0 81 1 54
 832 35 52 0 0 152 161 1222 82 3 1221 159 5 0 82 3 1222 159 4 0 81 1 37 830 35 4
9 0 0 31 152 1223 82 3 156 159 3 0 82 3 1223 159 2 0 82 3 149 159 0 0 82 3 143 1
59 48 0 82 3 38 159 1 0 19 18 751 0 1 0 10 6 0 S0 74 4 CI16 index_map_offset0 0
 1 dCCZ20 16 6 0 0 808 1039 1041 14 2 978 0 0 0 0 0 0 0 0 0 0 0 0 0 0 80 1 13 49
1 1224 8040 0 0 0 0 3 5 0 0 0 TTTFFFFFFFFFFFFFF2 83 3 15 .498039215686275 .49803
9215686275 .498039215686275 79 17 1224 SDL/TYSA_COLOUR_21 0 
