**ABCDEFGHIJKLMNOPQRSTUVWXYZabcdefghijklmnopqrstuvwxyz**************************
**PARASOLID !"#$%&'()*+,-./:;<=>?@[\]^_`{|}~0123456789**************************
**PART1;
MC=unknown;
MC_MODEL=unknown;
MC_ID=unknown;
OS=unknown;
OS_RELEASE=unknown;
FRU=Parasolid 36.0.180;
APPL=Onshape;
SITE=unknown;
USER=unknown;
FORMAT=text;
GUISE=transmit;
KEY=BTGapi::writeModels_.xmt;
FILE=BTGapi::writeModels_.xmt;
DATE=2024-05-15T00:06:35 (UTC);
**PART2;
SCH=SCH_3600180_36001;
USFLD_SIZE=0;
**PART3;
**END_OF_HEADER*****************************************************************
T51 : TRANSMIT FILE created by modeller version 360018023 SCH_3600180_36001_1300
6231 0 12 36 CCCI7 lattice222 0 CCCI4 mesh1006 0 I8 polyline1008 0 CCCCCCCDI5 ow
ner1040 0 CCCI16 boundary_lattice222 0 CCCI13 boundary_mesh1006 0 I17 boundary_p
olyline1008 0 CCCA16 index_map_offset0 0 1 dA9 index_map82 0 A17 node_id_index_m
ap82 0 A20 schema_embedding_map82 0 A5 child12 0 A14 lowest_node_id0 0 1 dA16 me
sh_offset_data206 0 Z1 143 2 3 0 0 0 0 0 0 0 1e3 1e-8 0 4 5 1 0 1 2 6 0 7 8 9 0
 0 10 11 12 0 0 0 0 0 0 0 81 255 1 2 137 13 1 14 0 0 0 15 70 11 CI9 list_type0 0
 1 uI10 notransmit0 0 1 lCCCDCCDI12 finger_index0 0 1 dI12 finger_block1012 0 CZ
3 0 4 T1 0 0 5 20 1 16 16 13 255 6 5 0 1 0 17 0 0 18 0 50 255 7 90 0 19 20 0 0 +
-1.663702 0 3.99415 0 0 -1 -1 0 0 30 255 8 98 0 21 22 0 0 +-1.663702 -1.304925 3
.99415 1 0 0 29 255 9 85 0 12 23 0 -1.4732 -1.304925 3.99415 19 9 CCCCCCI5 frame
230 0 CA5 owner12 0 Z10 1 0 1 18 0 24 0 V0 16 255 11 29 25 ?26 0 27 28 0 0 1 18
 255 12 53 29 30 0 31 9 ?1 81 1 29 110 32 12 0 0 33 34 35 17 255 30 0 36 37 38 1
2 39 21 0 26 +18 31 57 40 41 12 42 23 ?1 81 1 40 114 32 31 0 0 43 44 45 17 41 0
 46 26 47 31 48 49 0 50 +18 42 61 51 52 31 53 54 ?1 29 23 84 0 31 54 9 -1.4732 -
1.368425 3.99415 29 54 83 0 42 55 23 -1.4732 -1.368425 3.6576 29 55 82 0 53 56 5
4 -1.4732 -1.304925 3.6576 18 53 65 57 58 42 59 55 ?1 29 56 81 0 59 60 55 -1.663
7 -1.304925 3.6576 18 59 69 33 61 53 62 56 ?1 29 60 80 0 62 63 56 -1.6637 -1.368
425 3.6576 18 62 70 43 64 59 65 60 ?1 29 63 79 0 65 66 60 -1.6637 -1.368425 3.99
415 18 65 71 44 48 62 67 63 ?1 29 66 78 0 67 0 63 -1.6637 -1.304925 3.99415 18 6
7 72 34 39 65 0 66 ?1 81 1 34 111 32 67 0 0 29 51 68 17 39 0 46 47 26 67 30 21 0
 38 -15 255 46 20 0 47 19 0 17 47 0 46 41 39 65 69 70 0 0 -17 26 0 46 39 41 12 7
1 11 0 72 +16 21 45 73 ?30 74 49 8 0 0 1 17 38 0 36 30 75 67 76 77 0 69 +15 36 1
1 0 75 78 0 17 75 0 36 38 37 59 58 79 0 0 -17 76 0 80 81 69 59 38 77 0 75 -16 77
 50 82 ?38 83 84 85 0 0 1 17 69 0 80 76 86 67 47 70 0 0 +15 80 8 0 76 17 0 17 86
 0 80 69 81 65 87 84 0 47 +16 70 52 88 ?69 84 0 89 0 0 1 81 1 88 123 32 70 0 0 2
5 90 91 16 84 51 92 ?86 77 70 93 0 0 1 30 89 94 0 70 93 94 0 +-1.6637 0 3.99415
 0 1 0 30 93 93 0 84 85 89 0 +-1.6637 -1.368425 3.825875 0 0 1 30 94 95 0 79 89
 95 0 +-1.663702 -1.304925 3.6576 1 0 0 16 79 48 96 ?58 97 83 94 0 0 1 30 95 96
 0 97 94 22 0 +-1.663702 -1.368425 3.6576 1 0 0 16 97 47 98 ?52 49 79 95 0 0 1 3
0 22 97 0 49 95 8 0 +-1.663702 -1.368425 3.99415 1 0 0 16 49 46 99 ?41 21 97 22
 0 0 1 81 1 99 119 32 49 0 0 98 100 101 80 7 CCCCCDI12 legal_owners0 17 1 lCZ1 3
2 102 103 9000 0 0 0 0 3 6 0 0 0 FFTFTFTTFFFFFFFFF1 81 1 98 118 32 97 0 0 73 99
 104 81 1 100 120 32 105 0 0 99 106 107 82 255 3 101 123 12 1 16 105 37 100 ?108
 27 74 109 0 0 1 81 1 106 121 32 83 0 0 100 25 110 82 3 107 123 66 1 16 83 49 10
6 ?61 79 77 111 0 0 1 81 1 25 122 32 11 0 0 106 88 112 82 3 110 123 67 1 82 3 11
2 123 76 1 17 61 0 113 58 64 59 81 83 0 76 +30 111 91 0 83 114 85 0 +-1.6637 0 3
.6576 0 1 0 30 114 77 0 27 115 111 0 +-1.4732 -1.368425 3.825875 0 0 1 30 85 92
 0 77 111 93 0 +-1.6637 -1.304925 3.825875 0 0 1 16 27 33 116 ?50 11 105 114 0 0
 1 30 115 76 0 74 109 114 0 +-1.4732 -1.304925 3.825875 0 0 1 16 74 41 90 ?72 10
5 21 115 0 0 1 30 109 75 0 105 28 115 0 +-1.4732 0 3.6576 0 1 0 30 28 74 0 11 0
 109 0 +-1.4732 0 3.99415 0 1 0 81 1 90 124 32 74 0 0 88 82 117 17 72 0 118 71 1
08 12 37 74 0 0 +15 118 28 0 72 119 0 17 71 0 118 120 72 31 26 11 0 0 -17 108 0
 118 72 120 53 121 105 0 37 +17 37 0 36 75 30 53 72 74 0 0 -17 120 0 118 108 71
 42 50 27 0 121 -17 121 0 113 64 58 42 108 105 0 0 -15 113 14 0 64 122 0 17 64 0
 113 61 121 62 52 97 0 81 -17 58 0 113 121 61 53 75 79 0 108 +17 52 0 123 50 87
 42 64 97 0 120 +17 81 0 80 86 76 62 61 83 0 87 -17 87 0 123 52 48 62 86 84 0 0
 -15 123 17 0 87 124 0 17 48 0 123 87 50 65 41 49 0 86 -17 50 0 123 48 52 31 120
 27 0 71 +14 255 124 15 125 ?19 122 123 6 20 -0 0 19 122 24 81 1 125 141 126 124
 127 0 128 129 130 14 19 18 129 ?119 124 46 6 7 -0 0 119 124 24 14 122 12 128 ?1
24 78 113 6 131 +0 0 124 78 24 50 20 89 0 124 132 7 0 +-1.663702 -1.368425 3.825
875 0 1 0 0 0 1 13 24 3 0 0 0 0 0 0 10 78 14 78 9 133 ?122 17 36 6 132 +0 0 122
 0 24 81 1 133 139 126 78 134 0 135 128 136 14 17 6 135 ?78 0 80 6 137 +0 0 0 11
9 24 50 132 88 0 78 131 20 0 +-1.663702 -1.304925 3.825875 0 1 0 0 0 1 50 131 87
 0 122 137 132 0 +-1.663702 0 3.6576 0 0 -1 -1 0 0 50 137 86 0 17 138 131 0 +-1.
6637 0 2.40919 -1 0 0 0 -1 0 50 138 73 0 119 0 137 0 +-1.4732 0 3.28135867469879
5 -1 0 0 0 -1 0 14 119 21 139 ?0 19 118 6 138 -0 0 17 19 24 81 1 139 143 126 119
 140 0 129 0 141 80 1 126 0 142 8001 0 0 0 0 3 5 0 0 0 FFFFTFTFFFFFFFFFF2 81 1 1
40 129 32 119 0 139 143 144 145 81 1 129 142 126 19 146 0 125 139 147 83 255 3 1
41 .972549019607843 .529411764705882 .00392156862745098 81 1 146 131 32 19 0 129
 144 134 148 83 3 147 .972549019607843 .529411764705882 .00392156862745098 81 1
 144 130 32 17 0 135 140 146 149 81 1 134 132 32 78 0 133 146 127 150 82 3 148 1
23 38 2 81 1 127 133 32 124 0 125 134 151 152 82 3 150 123 52 2 81 1 151 134 32
 1 0 153 127 0 154 82 3 152 123 53 2 81 1 153 135 155 1 151 14 0 0 156 82 3 154
 123 9 3 80 1 155 157 158 8038 0 0 0 0 0 0 0 0 0 TTTTTTTTTTTTTFTFT10 81 1 14 136
 157 1 153 2 0 0 159 98 255 8 156 80 97 114 116 32 49 57 53 80 1 157 160 161 801
7 0 0 0 0 0 0 0 0 0 TTTTTTTTTTTTTFTFT3 84 255 8 159 Part 19579 255 13 161 SDL/TY
SA_NAME79 14 158 SDL/TYSA_UNAME81 1 135 138 126 17 144 0 0 133 162 82 3 149 123
 29 2 83 3 162 .972549019607843 .529411764705882 .00392156862745098 81 1 143 128
 32 122 0 128 92 140 163 82 3 145 123 28 2 81 1 128 140 126 122 143 0 133 125 16
4 81 1 92 127 32 84 0 0 116 143 165 82 3 163 123 27 2 81 1 116 126 32 27 0 0 82
 92 166 82 3 165 123 107 1 81 1 82 125 32 77 0 0 90 116 167 82 3 166 123 106 1 8
2 3 167 123 105 1 83 3 164 .972549019607843 .529411764705882 .00392156862745098
 79 15 142 SDL/TYSA_COLOUR83 3 136 .972549019607843 .529411764705882 .0039215686
2745098 83 3 130 .972549019607843 .529411764705882 .00392156862745098 82 3 117 1
23 104 1 81 1 73 117 32 21 0 0 96 98 168 82 3 104 123 11 1 81 1 96 116 32 79 0 0
 44 73 169 82 3 168 123 10 1 81 1 44 115 32 65 0 0 40 96 170 82 3 169 123 9 1 82
 3 170 123 25 0 79 9 103 BTI/DetId82 3 91 123 77 1 81 1 51 112 32 42 0 0 34 43 1
71 82 3 68 123 21 0 81 1 43 113 32 62 0 0 51 40 172 82 3 171 123 22 0 82 3 172 1
23 23 0 81 1 33 109 32 59 0 0 57 29 173 81 1 57 108 32 53 0 0 0 33 174 82 3 173
 123 19 0 82 3 174 123 18 0 82 3 45 123 24 0 82 3 35 123 20 0 19 18 4 0 1 0 10 6
 0 S0 74 4 CI16 index_map_offset0 0 1 dCCZ20 16 5 0 0 151 153 14 2 139 0 0 0 0 0
 0 0 0 0 0 0 0 0 0 0 80 1 13 126 175 8040 0 0 0 0 3 5 0 0 0 TTTFFFFFFFFFFFFFF2 8
3 3 15 .972549019607843 .529411764705882 .00392156862745098 79 17 175 SDL/TYSA_C
OLOUR_21 0 
