**ABCDEFGHIJKLMNOPQRSTUVWXYZabcdefghijklmnopqrstuvwxyz**************************
**PARASOLID !"#$%&'()*+,-./:;<=>?@[\]^_`{|}~0123456789**************************
**PART1;
MC=unknown;
MC_MODEL=unknown;
MC_ID=unknown;
OS=unknown;
OS_RELEASE=unknown;
FRU=Parasolid 36.0.180;
APPL=Onshape;
SITE=unknown;
USER=unknown;
FORMAT=text;
GUISE=transmit;
KEY=BTGapi::writeModels_.xmt;
FILE=BTGapi::writeModels_.xmt;
DATE=2024-05-15T00:06:35 (UTC);
**PART2;
SCH=SCH_3600180_36001;
USFLD_SIZE=0;
**PART3;
**END_OF_HEADER*****************************************************************
T51 : TRANSMIT FILE created by modeller version 360018023 SCH_3600180_36001_1300
6231 0 12 36 CCCI7 lattice222 0 CCCI4 mesh1006 0 I8 polyline1008 0 CCCCCCCDI5 ow
ner1040 0 CCCI16 boundary_lattice222 0 CCCI13 boundary_mesh1006 0 I17 boundary_p
olyline1008 0 CCCA16 index_map_offset0 0 1 dA9 index_map82 0 A17 node_id_index_m
ap82 0 A20 schema_embedding_map82 0 A5 child12 0 A14 lowest_node_id0 0 1 dA16 me
sh_offset_data206 0 Z1 749 2 3 0 0 0 0 0 0 0 1e3 1e-8 0 4 5 1 0 1 2 6 0 7 8 9 0
 0 10 11 12 0 0 0 0 0 0 0 81 255 1 2 734 13 1 14 0 0 0 15 70 11 CI9 list_type0 0
 1 uI10 notransmit0 0 1 lCCCDCCDI12 finger_index0 0 1 dI12 finger_block1012 0 CZ
3 0 4 T1 0 0 5 20 1 16 16 13 255 6 181 0 1 0 17 0 0 18 0 50 255 7 176 0 17 19 0
 0 +-.18415 .09525 5.8039 0 0 -1 -1 0 0 30 255 8 287 0 11 20 0 0 +-.18415 .09525
 4.2799 -1 0 0 29 255 9 310 0 12 21 0 -.18415 .09525 5.8039 19 9 CCCCCCI5 frame2
30 0 CA5 owner12 0 Z10 77 0 1 18 0 22 0 V0 16 255 11 285 23 ?24 0 25 8 0 0 1 18
 255 12 306 26 27 0 28 9 ?1 81 1 26 674 29 12 0 0 30 31 32 17 255 27 0 33 34 35
 12 36 37 0 38 -18 28 301 39 40 12 41 21 ?1 81 1 39 676 29 28 0 0 31 42 43 17 40
 0 44 45 46 28 47 48 0 49 -18 41 296 30 34 28 50 51 ?1 29 21 305 0 28 51 9 -.184
15 -.09525 5.8039 29 51 300 0 41 52 21 -.09525 .09525 5.8039 29 52 263 0 50 53 5
1 -.09525 -.09525 4.2799 18 50 259 54 55 41 56 52 ?1 29 53 157 0 57 58 52 -.0952
5 -.18415 5.8039 18 57 136 59 60 61 62 53 ?1 29 58 158 0 62 63 53 -.09525 -.1841
5 4.2799 18 62 140 64 65 57 66 58 ?1 29 63 159 0 66 67 58 -.09525 .18415 4.2799
 18 66 144 68 69 62 70 63 ?1 29 67 160 0 70 71 63 -.09525 .18415 5.8039 18 70 14
8 72 73 66 74 67 ?1 29 71 73 0 56 75 67 -.18415 -.18415 5.8039 18 56 71 76 77 50
 78 71 ?1 29 75 68 0 78 79 71 -.18415 -.18415 4.2799 18 78 66 80 81 56 82 75 ?1
 29 79 53 0 82 83 75 -.18415 .18415 4.2799 18 82 51 84 85 78 61 79 ?1 29 83 48 0
 61 86 79 -.18415 .18415 5.8039 18 61 46 87 36 82 57 83 ?1 29 86 582 0 74 88 83
 -.09525 .09525 4.2799 18 74 475 89 90 70 91 86 ?1 29 88 584 0 91 92 86 -.18415
 .09525 4.2799 18 91 480 93 94 74 95 88 ?1 29 92 586 0 95 96 88 -.09525 -.09525
 5.8039 18 95 474 31 46 91 97 92 ?1 29 96 589 0 97 98 92 -.18415 -.09525 4.2799
 18 97 472 99 100 95 101 96 ?1 29 98 590 0 101 102 96 -.09525 .09525 6.150660217
76383 18 101 476 103 104 97 105 98 ?1 29 102 591 0 105 106 98 -.09525 -.09525 6.
15066021776383 18 105 478 107 108 101 109 102 ?1 29 106 592 0 109 110 102 -.0952
5 -2794325426156415e-32 6.21607286836624 18 109 485 111 112 105 113 106 ?1 29 11
0 593 0 113 114 106 -.09525 .09525 3.99415 18 113 487 115 116 109 117 110 ?1 29
 114 594 0 117 118 110 -.09525 -.09525 3.99415 18 117 491 119 120 113 121 114 ?1
 29 118 595 0 121 122 114 -.18415 .09525 6.15066021776383 18 121 483 123 124 117
 125 118 ?1 29 122 596 0 125 126 118 -.18415 .09525 3.99415 18 125 481 127 128 1
21 129 122 ?1 29 126 597 0 129 130 122 -.18415 -.09525 3.99415 18 129 489 131 13
2 125 133 126 ?1 29 130 598 0 133 134 126 -.18415 -.09525 6.15066021776383 18 13
3 469 135 136 129 137 130 ?1 29 134 599 0 137 0 130 -.18415 -2794325426156415e-3
2 6.21607286836624 18 137 493 138 139 133 0 134 ?1 81 1 138 662 29 137 0 0 111 1
07 140 17 139 0 141 142 143 137 112 144 0 145 -15 255 141 551 0 142 146 0 17 142
 0 141 147 139 133 148 149 0 0 -17 143 0 141 139 147 109 150 151 0 152 +17 112 0
 153 154 145 109 139 144 0 143 +16 144 444 155 ?112 156 157 158 0 0 1 17 145 0 1
53 112 124 137 159 160 0 148 +15 153 535 0 124 161 0 17 124 0 153 145 154 121 10
4 162 0 159 -17 159 0 163 164 148 121 145 160 0 165 -16 160 441 166 ?145 162 167
 168 0 0 1 17 148 0 163 159 136 137 142 149 0 0 +15 163 332 0 49 169 0 17 136 0
 163 148 49 133 170 171 0 172 +16 149 370 173 ?148 171 0 174 0 0 1 81 1 173 691
 29 149 0 0 175 176 177 16 171 367 178 ?136 179 149 180 179 179 1 30 174 572 0 1
49 180 181 0 +-.18415 -.047625 6.18336654306503 0 .824331600923871 .566107244007
96 30 180 573 0 179 182 174 0 +-.18415 -.09525 4.90413010888191 0 0 1 30 181 571
 0 162 174 183 0 +-.184152 .09525 6.15066021776383 1 0 0 16 162 404 184 ?104 185
 160 181 0 0 1 30 183 570 0 185 181 186 0 +-.184152 .09525 3.99415 1 0 0 16 185
 450 187 ?188 189 162 183 0 0 1 30 186 569 0 189 183 190 0 +-.184152 -.09525 3.9
9415 1 0 0 16 189 456 191 ?120 157 185 186 0 0 1 30 190 568 0 157 186 158 0 +-.1
84152 -.09525 6.15066021776383 1 0 0 16 157 462 192 ?147 144 189 190 0 0 1 30 15
8 567 0 144 190 193 0 +-.184152 -2794325426156415e-32 6.21607286836624 1 0 0 30
 193 566 0 48 158 194 0 +-.18415 -.09525 5.8039 1 0 0 16 48 415 195 ?47 196 197
 193 0 0 1 30 194 565 0 196 193 198 0 +-.18415 .09525 5.8039 -1 0 0 16 196 401 1
99 ?38 200 48 194 0 0 1 30 198 13 0 201 194 202 0 +-.18415 .09525 5.8039 0 1 0 1
6 201 11 203 ?49 204 37 198 37 37 1 30 202 18 0 204 198 205 0 +-.18415 .18415 6.
62813 0 0 -1 16 204 16 206 ?207 208 201 202 0 0 1 30 205 23 0 209 202 210 0 +-.1
8415 .09525 4.2799 0 1 0 16 209 21 211 ?212 213 208 205 208 208 1 30 210 38 0 21
3 205 214 0 +-.18415 -.18415 5.0419 0 1821231995776175e-31 1 16 213 36 215 ?77 2
16 209 210 0 0 1 30 214 156 0 217 210 218 0 +-.09525 .09525 5.8039 0 1 0 16 217
 130 219 ?46 220 200 214 200 200 1 30 218 155 0 220 214 221 0 +-.09525 .18415 6.
62813 0 0 -1 16 220 126 222 ?223 224 217 218 0 0 1 30 221 154 0 225 218 226 0 +-
.09525 .09525 4.2799 0 1 0 16 225 120 227 ?228 229 224 221 224 224 1 30 226 153
 0 229 221 230 0 +-.09525 -.18415 5.0419 0 1821231995776175e-31 1 16 229 116 231
 ?60 37 225 226 0 0 1 30 230 177 0 216 226 232 0 +-.18415 -.18415 5.8039 1 0 0 1
6 216 161 233 ?234 235 213 230 0 0 1 30 232 178 0 235 230 236 0 +-.18415 -.18415
 4.2799 1 0 0 16 235 162 237 ?65 238 216 232 0 0 1 30 236 179 0 238 232 239 0 +-
.18415 .18415 4.2799 1 0 0 16 238 163 42 ?240 241 235 236 0 0 1 30 239 180 0 241
 236 20 0 +-.18415 .18415 5.8039 1 0 0 16 241 164 242 ?243 25 238 239 0 0 1 30 2
0 281 0 25 239 8 0 +-.18415 -.09525 4.2799 1 0 0 16 25 279 244 ?245 11 241 20 0
 0 1 81 1 244 697 29 25 0 0 23 199 246 17 245 0 247 248 212 50 100 25 0 228 +15
 247 167 0 212 249 0 17 248 0 247 81 245 62 228 225 0 0 -17 212 0 247 245 81 97
 250 209 0 0 +17 100 0 251 252 55 97 245 25 0 253 -17 228 0 254 255 256 50 248 2
25 0 0 +15 254 115 0 257 258 0 17 255 0 254 259 228 117 55 260 0 0 -17 256 0 254
 228 261 62 60 229 0 248 -17 261 0 254 256 262 57 46 217 0 0 -17 60 0 263 264 65
 57 256 229 0 234 +15 263 165 0 60 265 0 17 264 0 263 266 60 56 234 216 0 45 -17
 65 0 263 60 266 62 81 235 0 256 +17 234 0 44 46 45 57 264 216 0 261 +15 44 312
 0 40 267 0 17 46 0 44 40 234 95 261 217 0 47 +17 45 0 44 234 40 56 49 201 0 0 -
17 49 0 163 136 77 28 45 201 0 170 +17 77 0 163 49 250 56 266 213 0 264 +17 170
 0 268 47 172 28 136 171 0 0 -15 268 523 0 170 269 0 17 47 0 268 108 170 95 40 4
8 0 262 +17 172 0 268 170 108 133 147 157 0 142 -17 108 0 268 172 47 105 262 270
 0 147 +17 147 0 141 143 142 105 172 157 0 150 +17 150 0 254 262 152 105 143 151
 0 0 -17 262 0 254 261 150 95 108 270 0 0 -17 152 0 254 150 271 109 154 197 0 0
 +16 151 465 175 ?143 270 156 272 0 0 1 81 1 175 690 29 151 0 0 191 173 273 16 2
70 418 274 ?108 260 151 275 260 260 1 16 156 453 276 ?277 151 144 278 0 0 1 30 2
72 580 0 151 278 275 0 +-.09525 -.047625 6.18336654306503 0 .824331600923871 .56
610724400796 30 278 581 0 156 0 272 0 +-.09525 -1387778780781446e-32 3.99415 0 -
1 0 30 275 579 0 260 272 279 0 +-.09525 -.09525 4.90413010888191 0 0 1 16 260 45
9 280 ?55 281 270 275 270 270 1 30 279 578 0 282 275 283 0 +-.09525 .09525 4.969
54275948432 0 0 -1 16 282 398 284 ?285 197 281 279 281 281 1 30 283 577 0 197 27
9 168 0 +-.09525 .0476249999999994 6.18336654306503 0 -.824331600923873 .5661072
44007957 16 197 392 176 ?152 48 282 283 0 0 1 30 168 576 0 160 283 286 0 +-.1841
5 .0476249999999994 6.18336654306503 0 -.824331600923873 .566107244007957 30 286
 575 0 167 168 182 0 +-.18415 .09525 4.96954275948432 0 0 -1 16 167 373 287 ?164
 160 288 286 288 288 1 30 182 574 0 289 286 180 0 +-.18415 -1387778780781446e-32
 3.99415 0 -1 0 16 289 438 290 ?291 288 179 182 0 0 1 81 1 290 695 29 289 0 0 27
6 23 292 17 291 0 163 253 128 129 293 289 0 252 +16 288 435 294 ?128 167 289 286
 167 167 1 16 179 429 295 ?253 289 171 180 171 171 1 81 1 295 715 29 179 0 0 178
 296 297 17 253 0 163 250 291 97 252 179 0 212 +17 250 0 163 77 253 78 212 209 0
 0 -17 252 0 251 120 100 129 253 179 0 0 -15 251 547 0 100 298 0 17 120 0 251 55
 252 117 132 189 0 277 +17 55 0 251 100 120 50 255 260 0 245 +17 132 0 299 293 2
77 129 120 189 0 291 -17 277 0 299 132 188 117 259 156 0 255 +15 299 543 0 293 3
00 0 17 188 0 299 277 293 113 301 185 0 259 +17 259 0 254 302 255 113 277 156 0
 0 -17 302 0 254 69 259 74 116 281 0 303 -17 69 0 254 304 302 66 303 224 0 240 +
17 116 0 305 301 90 113 302 281 0 188 +16 281 447 306 ?116 282 260 279 282 282 1
 17 303 0 307 24 240 74 69 224 0 0 -15 307 280 0 303 308 0 17 24 0 307 85 303 91
 90 11 0 309 +17 240 0 307 303 85 66 310 238 0 223 +16 224 265 311 ?69 225 220 2
21 225 225 1 81 1 311 700 29 224 0 0 195 227 312 80 7 CCCCCDI12 legal_owners0 17
 1 lCZ1 29 313 314 9000 0 0 0 0 3 6 0 0 0 FFTFTFTTFFFFFFFFF1 81 1 195 699 29 48
 0 0 199 311 315 81 1 227 701 29 225 0 0 311 316 317 82 255 3 312 136 23 1 81 1
 316 702 29 208 0 0 227 211 318 82 3 317 136 24 1 16 208 275 316 ?85 209 204 205
 209 209 1 81 1 211 703 29 209 0 0 316 319 320 82 3 318 136 25 1 81 1 319 704 29
 200 0 0 211 219 321 82 3 320 136 26 1 16 200 297 319 ?73 217 196 214 217 217 1
 81 1 219 705 29 217 0 0 319 322 323 82 3 321 136 27 1 81 1 322 706 29 37 0 0 21
9 203 324 82 3 323 136 28 1 16 37 307 322 ?36 201 229 198 201 201 1 81 1 203 707
 29 201 0 0 322 284 325 82 3 324 136 29 1 81 1 284 708 29 282 0 0 203 306 326 82
 3 325 136 30 1 81 1 306 709 29 281 0 0 284 287 327 82 3 326 136 31 1 81 1 287 7
10 29 167 0 0 306 294 328 82 3 327 136 32 1 81 1 294 711 29 288 0 0 287 274 329
 82 3 328 136 33 1 81 1 274 712 29 270 0 0 294 280 330 82 3 329 136 34 1 81 1 28
0 713 29 260 0 0 274 178 331 82 3 330 136 35 1 81 1 178 714 29 171 0 0 280 295 3
32 82 3 331 136 36 1 82 3 332 136 37 1 17 36 0 163 207 164 61 27 37 0 333 +17 20
7 0 163 309 36 82 333 204 0 310 +17 164 0 163 36 159 12 165 167 0 0 +17 333 0 33
4 243 310 61 207 204 0 35 -15 334 169 0 223 335 0 17 243 0 334 223 333 70 35 241
 0 0 +17 310 0 334 333 223 82 240 238 0 0 -17 35 0 33 27 73 61 243 241 0 0 -15 3
3 317 0 34 17 0 17 73 0 33 35 34 70 257 200 0 304 +17 34 0 33 73 27 41 38 196 0
 257 -17 257 0 254 271 304 41 73 200 0 285 -17 304 0 254 257 69 70 223 220 0 243
 -17 223 0 334 310 243 66 304 220 0 0 +17 271 0 254 152 257 101 285 282 0 154 -1
7 285 0 336 38 104 41 271 282 0 0 +15 336 515 0 285 337 0 17 38 0 336 165 285 12
 34 196 0 164 +17 104 0 336 285 165 101 124 162 0 271 +17 165 0 336 104 38 121 1
64 167 0 0 -14 255 337 512 338 ?269 298 336 6 339 -340 340 269 298 22 81 1 338 7
46 341 337 342 0 343 344 345 14 269 520 344 ?161 337 268 6 346 -298 298 161 337
 22 14 298 544 343 ?337 340 251 6 346 -269 269 337 340 22 50 339 562 0 340 0 347
 0 +-.184152 .09525 4.96954275948432 0 -1 0 0 0 -1 14 340 536 348 ?298 300 305 6
 339 -337 337 298 300 22 13 22 78 0 0 0 0 0 0 10 17 14 17 318 349 ?267 0 33 6 7
 -267 267 267 0 22 81 1 349 735 341 17 350 0 0 351 352 14 267 172 351 ?308 17 44
 6 7 -17 17 308 17 22 81 1 351 736 341 267 353 0 349 354 355 14 308 288 354 ?249
 267 307 6 356 +249 249 249 267 22 81 1 354 737 341 308 357 0 351 358 359 14 249
 168 358 ?335 308 247 6 356 +308 308 335 308 22 50 356 174 0 308 360 19 0 +-.184
15 .09525 4.2799 0 0 -1 -1 0 0 50 360 173 0 265 361 356 0 +-.18415 -.18415 5.041
9 0 1 -1821231995776175e-31 0 1821231995776175e-31 1 50 19 175 0 335 356 7 0 +-.
18415 .18415 6.62813 0 -1 0 0 0 -1 14 335 170 362 ?265 249 334 6 19 -0 0 265 249
 22 81 1 362 739 341 335 296 0 358 363 364 14 265 166 363 ?169 335 263 6 360 -0
 0 169 335 22 81 1 363 740 341 265 365 0 362 366 367 14 169 1 366 ?258 265 163 6
 368 +0 0 258 265 22 81 1 366 741 341 169 369 0 363 370 371 14 258 105 370 ?300
 169 254 6 361 -0 0 300 169 22 50 368 3 0 169 372 361 0 +-.18415 277555756156289
e-31 5.0419 -1 0 0 0 -1 0 50 372 558 0 146 346 368 0 +-.184152 -.047625 6.183366
54306503 0 .56610724400796 -.824331600923871 0 .824331600923871 .56610724400796
 50 361 152 0 258 368 360 0 +-.09525 277555756156289e-31 5.0419 -1 0 0 0 -1 0 14
 146 548 373 ?0 161 141 6 372 -0 0 0 161 22 50 346 559 0 298 374 372 0 +-.184152
 -.09525 4.90413010888191 0 1 0 0 0 1 50 374 560 0 161 347 346 0 +-.184152 .0476
249999999994 6.18336654306503 0 .566107244007957 .824331600923873 0 -.8243316009
23873 .566107244007957 14 161 532 375 ?146 269 153 6 374 +0 0 146 269 22 50 347
 561 0 300 339 374 0 +-.184152 -1387778780781446e-32 3.99415 0 0 1 1 0 0 14 300
 540 376 ?340 258 299 6 347 -0 0 340 258 22 81 1 376 743 341 300 377 0 370 348 3
78 80 1 341 0 379 8001 0 0 0 0 3 5 0 0 0 FFFFTFTFFFFFFFFFF2 81 1 377 720 29 300
 0 376 380 381 382 81 1 370 742 341 258 381 0 366 376 383 81 1 348 744 341 340 3
84 0 376 343 385 83 255 3 378 .764705882352941 .545098039215686 .803921568627451
 81 1 384 728 29 340 0 348 342 386 387 81 1 343 745 341 298 388 0 348 338 389 83
 3 385 .764705882352941 .545098039215686 .803921568627451 81 1 388 730 29 298 0
 343 386 390 391 83 3 389 .764705882352941 .545098039215686 .803921568627451 81
 1 386 729 29 269 0 344 384 388 392 81 1 390 731 29 1 0 393 388 0 394 82 3 391 1
36 14 2 81 1 393 732 395 1 390 14 0 0 396 82 3 394 136 0 3 80 1 395 397 398 8038
 0 0 0 0 0 0 0 0 0 TTTTTTTTTTTTTFTFT10 81 1 14 733 397 1 393 2 0 0 399 98 255 8
 396 80 97 114 116 32 50 50 51 80 1 397 400 401 8017 0 0 0 0 0 0 0 0 0 TTTTTTTTT
TTTTFTFT3 84 255 8 399 Part 22379 255 13 401 SDL/TYSA_NAME79 14 398 SDL/TYSA_UNA
ME81 1 344 747 341 269 386 0 338 375 402 82 3 392 136 13 2 81 1 375 748 341 161
 380 0 344 373 403 83 3 402 .764705882352941 .545098039215686 .803921568627451 8
1 1 380 719 29 161 0 375 404 377 405 81 1 373 749 341 146 404 0 375 0 406 83 3 4
03 .764705882352941 .545098039215686 .803921568627451 81 1 404 718 29 146 0 373
 365 380 407 83 3 406 .764705882352941 .545098039215686 .803921568627451 81 1 36
5 717 29 265 0 363 296 404 408 82 3 407 136 2 2 81 1 296 716 29 335 0 362 295 36
5 409 82 3 408 136 1 2 82 3 409 136 0 2 82 3 405 136 3 2 81 1 342 727 29 337 0 3
38 353 384 410 82 3 387 136 12 2 81 1 353 726 29 267 0 351 350 342 411 82 3 410
 136 11 2 81 1 350 725 29 17 0 349 412 353 413 82 3 411 136 10 2 81 1 412 724 29
 249 0 358 357 350 414 82 3 413 136 9 2 81 1 358 738 341 249 412 0 354 362 415 8
1 1 357 723 29 308 0 354 369 412 416 82 3 414 136 8 2 81 1 369 722 29 169 0 366
 381 357 417 82 3 416 136 7 2 81 1 381 721 29 258 0 370 377 369 418 82 3 417 136
 6 2 82 3 418 136 5 2 83 3 415 .764705882352941 .545098039215686 .80392156862745
1 83 3 383 .764705882352941 .545098039215686 .803921568627451 82 3 382 136 4 2 7
9 15 379 SDL/TYSA_COLOUR83 3 371 .764705882352941 .545098039215686 .803921568627
451 83 3 367 .764705882352941 .545098039215686 .803921568627451 83 3 364 .764705
882352941 .545098039215686 .803921568627451 83 3 359 .764705882352941 .545098039
215686 .803921568627451 83 3 355 .764705882352941 .545098039215686 .803921568627
451 83 3 352 .764705882352941 .545098039215686 .803921568627451 15 305 539 0 90
 340 0 17 90 0 305 116 94 74 24 11 0 302 -17 94 0 305 90 301 91 128 288 0 24 -17
 301 0 305 94 116 125 188 185 0 293 -17 128 0 163 291 309 125 94 288 0 301 +17 3
09 0 163 128 207 91 85 208 0 0 -17 85 0 307 240 24 82 309 208 0 207 +17 293 0 29
9 188 132 125 291 289 0 0 -83 3 345 .764705882352941 .545098039215686 .803921568
627451 17 154 0 153 124 112 101 152 197 0 0 -81 1 199 698 29 196 0 0 244 195 419
 82 3 315 136 22 1 82 3 419 136 21 1 79 9 314 BTI/DetId82 3 297 136 38 1 81 1 27
6 694 29 156 0 0 166 290 420 81 1 23 696 29 11 0 0 290 244 421 82 3 292 136 18 1
 82 3 421 136 19 1 81 1 166 693 29 160 0 0 176 276 422 82 3 420 136 17 1 81 1 17
6 692 29 197 0 0 173 166 423 82 3 422 136 16 1 82 3 423 136 15 1 81 1 191 689 29
 189 0 0 187 175 424 82 3 273 136 13 1 81 1 187 688 29 185 0 0 192 191 425 82 3
 424 136 12 1 81 1 192 687 29 157 0 0 155 187 426 82 3 425 136 11 1 81 1 155 686
 29 144 0 0 184 192 427 82 3 426 136 10 1 81 1 184 685 29 162 0 0 215 155 428 82
 3 427 136 9 1 81 1 215 684 29 213 0 0 231 184 429 82 3 428 136 8 1 81 1 231 683
 29 229 0 0 206 215 430 82 3 429 136 7 1 81 1 206 682 29 204 0 0 222 231 431 82
 3 430 136 6 1 81 1 222 681 29 220 0 0 233 206 432 82 3 431 136 5 1 81 1 233 680
 29 216 0 0 237 222 433 82 3 432 136 4 1 81 1 237 679 29 235 0 0 242 233 434 82
 3 433 136 3 1 81 1 242 678 29 241 0 0 42 237 435 82 3 434 136 2 1 81 1 42 677 2
9 238 0 0 39 242 436 82 3 435 136 1 1 82 3 436 136 0 1 17 266 0 263 65 264 78 77
 213 0 250 -17 81 0 247 212 248 78 65 235 0 266 -82 3 246 136 20 1 82 3 177 136
 14 1 81 1 111 661 29 109 0 0 123 138 437 81 1 107 663 29 105 0 0 138 135 438 82
 3 140 136 11 0 81 1 135 664 29 133 0 0 107 115 439 82 3 438 136 12 0 81 1 115 6
65 29 113 0 0 135 127 440 82 3 439 136 13 0 81 1 127 666 29 125 0 0 115 119 441
 82 3 440 136 14 0 81 1 119 667 29 117 0 0 127 131 442 82 3 441 136 15 0 81 1 13
1 668 29 129 0 0 119 89 443 82 3 442 136 16 0 81 1 89 669 29 74 0 0 131 93 444 8
2 3 443 136 17 0 81 1 93 670 29 91 0 0 89 54 445 82 3 444 136 18 0 81 1 54 671 2
9 50 0 0 93 99 446 82 3 445 136 19 0 81 1 99 672 29 97 0 0 54 30 447 82 3 446 13
6 20 0 81 1 30 673 29 41 0 0 99 26 448 82 3 447 136 21 0 82 3 448 136 22 0 81 1
 123 660 29 121 0 0 103 111 449 82 3 437 136 10 0 81 1 103 659 29 101 0 0 76 123
 450 82 3 449 136 9 0 81 1 76 658 29 56 0 0 59 103 451 82 3 450 136 8 0 81 1 59
 657 29 57 0 0 80 76 452 82 3 451 136 7 0 81 1 80 656 29 78 0 0 64 59 453 82 3 4
52 136 6 0 81 1 64 655 29 62 0 0 87 80 454 82 3 453 136 5 0 81 1 87 654 29 61 0
 0 72 64 455 82 3 454 136 4 0 81 1 72 653 29 70 0 0 84 87 456 82 3 455 136 3 0 8
1 1 84 652 29 82 0 0 68 72 457 82 3 456 136 2 0 81 1 68 651 29 66 0 0 0 84 458 8
2 3 457 136 1 0 82 3 458 136 0 0 81 1 31 675 29 95 0 0 26 39 459 82 3 459 136 24
 0 82 3 43 136 25 0 82 3 32 136 23 0 19 18 182 0 1 0 10 6 0 S0 74 4 CI16 index_m
ap_offset0 0 1 dCCZ20 16 5 0 0 390 393 14 2 373 0 0 0 0 0 0 0 0 0 0 0 0 0 0 0 80
 1 13 341 460 8040 0 0 0 0 3 5 0 0 0 TTTFFFFFFFFFFFFFF2 83 3 15 .764705882352941
 .545098039215686 .803921568627451 79 17 460 SDL/TYSA_COLOUR_21 0 
