**ABCDEFGHIJKLMNOPQRSTUVWXYZabcdefghijklmnopqrstuvwxyz**************************
**PARASOLID !"#$%&'()*+,-./:;<=>?@[\]^_`{|}~0123456789**************************
**PART1;
MC=unknown;
MC_MODEL=unknown;
MC_ID=unknown;
OS=unknown;
OS_RELEASE=unknown;
FRU=Parasolid 36.0.180;
APPL=Onshape;
SITE=unknown;
USER=unknown;
FORMAT=text;
GUISE=transmit;
KEY=BTGapi::writeModels_.xmt;
FILE=BTGapi::writeModels_.xmt;
DATE=2024-05-15T00:06:35 (UTC);
**PART2;
SCH=SCH_3600180_36001;
USFLD_SIZE=0;
**PART3;
**END_OF_HEADER*****************************************************************
T51 : TRANSMIT FILE created by modeller version 360018023 SCH_3600180_36001_1300
6231 0 12 36 CCCI7 lattice222 0 CCCI4 mesh1006 0 I8 polyline1008 0 CCCCCCCDI5 ow
ner1040 0 CCCI16 boundary_lattice222 0 CCCI13 boundary_mesh1006 0 I17 boundary_p
olyline1008 0 CCCA16 index_map_offset0 0 1 dA9 index_map82 0 A17 node_id_index_m
ap82 0 A20 schema_embedding_map82 0 A5 child12 0 A14 lowest_node_id0 0 1 dA16 me
sh_offset_data206 0 Z1 143 2 3 0 0 0 0 0 0 0 1e3 1e-8 0 4 5 1 0 1 2 6 0 7 8 9 0
 0 10 11 12 0 0 0 0 0 0 0 81 255 1 2 137 13 1 14 0 0 0 15 70 11 CI9 list_type0 0
 1 uI10 notransmit0 0 1 lCCCDCCDI12 finger_index0 0 1 dI12 finger_block1012 0 CZ
3 0 4 T1 0 0 5 20 1 16 16 13 255 6 5 0 1 0 17 0 0 18 0 50 255 7 90 0 19 20 0 0 +
-1.663702 0 3.6576 0 0 -1 -1 0 0 30 255 8 98 0 21 22 0 0 +-1.663702 .09525 3.657
6 1 0 0 29 255 9 85 0 12 23 0 -1.4732 .09525 3.6576 19 9 CCCCCCI5 frame230 0 CA5
 owner12 0 Z10 1 0 1 18 0 24 0 V0 16 255 11 29 25 ?26 0 27 28 0 0 1 18 255 12 53
 29 30 0 31 9 ?1 81 1 29 108 32 12 0 0 0 33 34 17 255 30 0 35 36 37 12 38 21 0 3
9 +18 31 57 40 41 12 42 23 ?1 81 1 40 110 32 31 0 0 33 43 44 17 41 0 45 39 46 31
 47 48 0 49 +18 42 61 50 51 31 52 53 ?1 29 23 84 0 31 53 9 -1.4732 .15875 3.6576
 29 53 83 0 42 54 23 -1.4732 .15875 3.99415 29 54 82 0 52 55 53 -1.4732 .09525 3
.99415 18 52 65 56 57 42 58 54 ?1 29 55 81 0 58 59 54 -1.6637 .09525 3.6576 18 5
8 69 33 60 52 61 55 ?1 29 59 80 0 61 62 55 -1.6637 .15875 3.6576 18 61 70 43 46
 58 63 59 ?1 29 62 79 0 63 64 59 -1.6637 .15875 3.99415 18 63 71 65 66 61 67 62
 ?1 29 64 78 0 67 0 62 -1.6637 .09525 3.99415 18 67 72 68 69 63 0 64 ?1 81 1 68
 115 32 67 0 0 56 70 71 17 69 0 35 37 36 67 57 72 0 73 -15 255 35 25 0 69 74 0 1
7 37 0 35 30 69 58 73 75 0 38 +17 36 0 35 69 30 52 76 77 0 0 -17 57 0 78 79 80 5
2 69 72 0 81 +16 72 48 82 ?57 83 84 85 0 0 1 17 73 0 86 87 60 67 37 75 0 80 -15
 86 8 0 73 17 0 17 87 0 86 88 73 63 80 89 0 90 +17 60 0 86 73 88 58 46 84 0 37 -
16 75 51 91 ?37 92 89 93 0 0 1 17 80 0 78 57 90 67 87 89 0 0 -15 78 11 0 80 94 0
 17 90 0 78 80 79 63 51 83 0 0 -16 89 52 95 ?87 75 0 96 0 0 1 81 1 95 123 32 89
 0 0 97 98 99 30 96 94 0 89 93 85 0 +-1.6637 0 3.99415 0 1 0 30 93 93 0 75 100 9
6 0 +-1.6637 .09525 3.825875 0 0 -1 30 85 95 0 72 96 101 0 +-1.663702 .09525 3.9
9415 1 0 0 30 101 96 0 83 85 22 0 +-1.663702 .15875 3.99415 1 0 0 16 83 47 102 ?
51 48 72 101 0 0 1 30 22 97 0 48 101 8 0 +-1.663702 .15875 3.6576 1 0 0 16 48 46
 103 ?41 21 83 22 0 0 1 81 1 103 117 32 48 0 0 70 102 104 16 21 45 70 ?30 77 48
 8 0 0 1 81 1 70 116 32 21 0 0 68 103 105 16 77 41 98 ?76 106 21 107 0 0 1 81 1
 98 124 32 77 0 0 95 91 108 17 76 0 109 26 81 12 36 77 0 0 +16 106 37 97 ?79 27
 77 110 0 0 1 30 107 76 0 77 110 111 0 +-1.4732 .09525 3.825875 0 0 -1 30 110 75
 0 106 28 107 0 +-1.4732 0 3.99415 0 1 0 30 111 77 0 27 107 112 0 +-1.4732 .1587
5 3.825875 0 164941765655201e-30 1 16 27 33 113 ?114 11 106 111 0 0 1 30 112 91
 0 84 111 100 0 +-1.6637 0 3.6576 0 1 0 16 84 49 115 ?46 72 92 112 0 0 1 30 100
 92 0 92 112 93 0 +-1.6637 .15875 3.825875 0 164941765655201e-30 1 16 92 50 116
 ?66 84 75 100 0 0 1 81 1 116 127 32 92 0 0 113 117 118 17 66 0 119 51 47 63 88
 92 0 87 +15 119 22 0 47 120 0 17 51 0 119 49 66 42 90 83 0 79 +17 47 0 119 66 4
9 61 41 48 0 0 -17 88 0 86 60 87 61 66 92 0 47 -17 49 0 119 47 51 31 114 27 0 26
 -17 114 0 109 81 26 42 49 27 0 0 +17 26 0 109 114 76 31 39 11 0 0 +15 109 19 0
 76 121 0 17 39 0 45 38 41 12 26 11 0 76 -15 45 28 0 38 19 0 17 38 0 45 46 39 58
 30 21 0 0 -17 46 0 45 41 38 61 60 84 0 88 +14 255 19 26 122 ?0 74 45 6 7 +0 0 1
7 74 24 81 1 122 143 123 19 117 0 124 0 125 14 74 23 124 ?19 120 35 6 126 +0 0 1
9 120 24 14 17 6 127 ?94 0 86 6 128 +0 0 0 19 24 13 24 3 0 0 0 0 0 0 10 94 14 94
 9 129 ?121 17 78 6 130 -0 0 121 0 24 81 1 129 139 123 94 131 0 127 132 133 14 1
21 12 132 ?120 94 109 6 134 -0 0 120 94 24 50 130 88 0 94 126 20 0 +-1.663702 0
 3.99415 0 0 -1 -1 0 0 50 126 87 0 74 128 130 0 +-1.663702 .09525 3.825875 0 -1
 0 0 0 -1 50 20 89 0 120 130 7 0 +-1.663702 .15875 3.825875 0 1 -164941765655201
e-30 0 164941765655201e-30 1 14 120 20 135 ?74 121 119 6 20 +0 0 74 121 24 81 1
 135 141 123 120 136 0 132 124 137 80 7 CCCCCDI12 legal_owners0 17 1 lCZ1 123 0
 138 8001 0 0 0 0 3 5 0 0 0 FFFFTFTFFFFFFFFFF2 81 1 136 133 32 120 0 135 139 140
 141 81 1 132 140 123 121 142 0 129 135 143 81 1 124 142 123 74 139 0 135 122 14
4 83 255 3 137 .647058823529412 .647058823529412 .647058823529412 81 1 139 132 3
2 74 0 124 131 136 145 83 3 144 .647058823529412 .647058823529412 .6470588235294
12 80 1 32 146 147 9000 0 0 0 0 3 6 0 0 0 FFTFTFTTFFFFFFFFF1 81 1 131 131 32 94
 0 129 148 139 149 82 255 3 145 123 68 2 81 1 148 130 32 17 0 127 142 131 150 82
 3 149 123 42 2 81 1 127 138 123 17 148 0 0 129 151 81 1 142 129 32 121 0 132 11
7 148 152 82 3 150 123 17 2 81 1 117 128 32 19 0 122 116 142 153 82 3 152 123 16
 2 82 3 153 123 15 2 83 3 151 .647058823529412 .647058823529412 .647058823529412
 79 255 9 147 BTI/DetId83 3 143 .647058823529412 .647058823529412 .6470588235294
12 81 1 140 134 32 1 0 154 136 0 155 82 3 141 123 71 2 81 1 154 135 156 1 140 14
 0 0 157 82 3 155 123 5 3 80 1 156 158 159 8038 0 0 0 0 0 0 0 0 0 TTTTTTTTTTTTTF
TFT10 81 1 14 136 158 1 154 2 0 0 160 98 255 8 157 80 97 114 116 32 49 57 49 80
 1 158 161 162 8017 0 0 0 0 0 0 0 0 0 TTTTTTTTTTTTTFTFT3 84 255 8 160 Part 19179
 13 162 SDL/TYSA_NAME79 14 159 SDL/TYSA_UNAME79 15 138 SDL/TYSA_COLOUR50 128 86
 0 17 134 126 0 +-1.6637 0 2.40919 -1 0 0 0 -1 0 50 134 73 0 121 0 128 0 +-1.473
2 0 3.281358674698795 -1 0 0 0 -1 0 83 3 133 .647058823529412 .647058823529412 .
647058823529412 83 3 125 .647058823529412 .647058823529412 .647058823529412 17 8
1 0 109 76 114 52 79 106 0 36 -17 79 0 78 90 57 42 81 106 0 114 +81 1 113 126 32
 27 0 0 91 116 163 82 3 118 123 143 1 81 1 91 125 32 75 0 0 98 113 164 82 3 163
 123 142 1 82 3 164 123 137 1 81 1 115 121 32 84 0 0 25 97 165 81 1 25 120 32 11
 0 0 82 115 166 81 1 97 122 32 106 0 0 115 95 167 82 3 165 123 59 1 82 3 167 123
 84 1 81 1 82 119 32 72 0 0 102 25 168 82 3 166 123 58 1 81 1 102 118 32 83 0 0
 103 82 169 82 3 168 123 47 1 82 3 169 123 45 1 30 28 74 0 11 0 110 0 +-1.4732 0
 3.6576 0 1 0 82 3 108 123 136 1 82 3 105 123 40 1 82 3 104 123 44 1 82 3 99 123
 85 1 81 1 56 114 32 52 0 0 65 68 170 82 3 71 123 95 0 81 1 65 113 32 63 0 0 50
 56 171 82 3 170 123 94 0 81 1 50 112 32 42 0 0 43 65 172 82 3 171 123 91 0 81 1
 43 111 32 61 0 0 40 50 173 82 3 172 123 90 0 82 3 173 123 89 0 81 1 33 109 32 5
8 0 0 29 40 174 82 3 174 123 81 0 82 3 44 123 88 0 82 3 34 123 80 0 19 18 4 0 1
 0 10 6 0 S0 74 4 CI16 index_map_offset0 0 1 dCCZ20 16 5 0 0 140 154 14 2 122 0
 0 0 0 0 0 0 0 0 0 0 0 0 0 0 80 1 13 123 175 8040 0 0 0 0 3 5 0 0 0 TTTFFFFFFFFF
FFFFF2 83 3 15 .647058823529412 .647058823529412 .647058823529412 79 17 175 SDL/
TYSA_COLOUR_21 0 
