**ABCDEFGHIJKLMNOPQRSTUVWXYZabcdefghijklmnopqrstuvwxyz**************************
**PARASOLID !"#$%&'()*+,-./:;<=>?@[\]^_`{|}~0123456789**************************
**PART1;
MC=unknown;
MC_MODEL=unknown;
MC_ID=unknown;
OS=unknown;
OS_RELEASE=unknown;
FRU=Parasolid 36.0.180;
APPL=Onshape;
SITE=unknown;
USER=unknown;
FORMAT=text;
GUISE=transmit;
KEY=BTGapi::writeModels_.xmt;
FILE=BTGapi::writeModels_.xmt;
DATE=2024-05-15T00:06:35 (UTC);
**PART2;
SCH=SCH_3600180_36001;
USFLD_SIZE=0;
**PART3;
**END_OF_HEADER*****************************************************************
T51 : TRANSMIT FILE created by modeller version 360018023 SCH_3600180_36001_1300
6231 0 12 36 CCCI7 lattice222 0 CCCI4 mesh1006 0 I8 polyline1008 0 CCCCCCCDI5 ow
ner1040 0 CCCI16 boundary_lattice222 0 CCCI13 boundary_mesh1006 0 I17 boundary_p
olyline1008 0 CCCA16 index_map_offset0 0 1 dA9 index_map82 0 A17 node_id_index_m
ap82 0 A20 schema_embedding_map82 0 A5 child12 0 A14 lowest_node_id0 0 1 dA16 me
sh_offset_data206 0 Z1 435 2 3 0 0 0 0 0 0 0 1e3 1e-8 0 4 5 1 0 1 2 6 0 7 8 9 0
 0 10 11 12 0 0 0 0 0 0 0 81 255 1 2 429 13 1 14 0 0 0 15 70 11 CI9 list_type0 0
 1 uI10 notransmit0 0 1 lCCCDCCDI12 finger_index0 0 1 dI12 finger_block1012 0 CZ
3 0 4 T1 0 0 5 20 1 16 16 13 255 6 128 0 1 0 17 0 0 18 0 50 255 7 123 0 19 20 0
 0 +-.5969 .264671068462782 6.73048847537274 -1 732341017918022e-30 -50293298820
8762e-30 732341017918022e-30 1 0 30 255 8 127 0 21 22 0 0 +-.5969 .3161786042149
095 6.69511583033815 0 -.566107244007959 -.824331600923871 29 255 9 104 0 23 24
 0 .0381 .307640999341214 6.68268387938171 19 9 CCCCCCI5 frame230 0 CA5 owner12
 0 Z10 1 0 1 18 0 25 0 V0 16 255 11 108 26 ?27 0 21 22 0 0 1 18 255 12 20 28 29
 0 30 31 ?1 81 1 28 177 32 12 0 0 33 34 35 17 255 29 0 36 37 38 12 39 40 0 41 -1
8 30 29 42 43 12 23 44 ?1 29 31 39 0 12 44 24 .0381 .316178604214909 6.695115830
33815 29 44 36 0 30 45 31 -.5969 .3161786042149095 6.69511583033815 29 24 107 0
 46 31 9 -.5969 .3076409993412145 6.68268387938171 18 46 95 47 48 23 49 24 ?1 81
 1 47 172 32 46 0 0 0 42 50 17 48 0 51 52 53 46 54 55 0 56 -18 23 83 33 57 30 46
 9 ?1 18 49 294 58 59 46 60 45 ?1 81 1 58 295 32 49 0 0 61 62 63 17 59 0 51 53 5
2 49 57 64 0 65 +18 60 292 61 39 49 66 67 ?1 29 45 354 0 49 67 44 .0381 55511151
2312578e-31 6.89395540904978 29 67 355 0 60 68 45 .0381 -2220446049250315e-31 6.
91225053443754 29 68 356 0 66 69 67 -.5969 0 6.91225053443754 18 66 300 62 70 60
 71 68 ?1 29 69 357 0 71 0 68 -.5969 0 6.89395540904978 18 71 304 72 54 66 0 69
 ?1 81 1 72 305 32 71 0 0 62 73 74 17 54 0 75 76 56 71 48 55 0 53 +15 255 75 118
 0 54 19 0 17 76 0 75 43 54 66 77 78 0 0 -17 56 0 75 54 43 46 79 21 0 80 +16 55
 79 81 ?54 64 82 83 0 0 1 17 53 0 51 48 59 71 84 85 0 77 +15 51 66 0 52 86 0 17
 84 0 87 88 77 49 53 85 0 0 -16 85 252 89 ?53 82 90 91 0 0 1 17 77 0 87 84 92 71
 76 78 0 0 +15 87 309 0 84 93 0 17 92 0 87 77 88 66 38 90 0 76 +16 78 249 94 ?77
 90 0 95 0 0 1 81 1 94 251 32 78 0 0 96 89 97 16 90 246 96 ?92 85 78 98 0 0 1 30
 95 342 0 78 98 99 0 +-.5969 0 7.32629228744631 4079502184423135e-32 0 -1 30 98
 343 0 90 91 95 0 +-.2794 0 6.91225053443754 -1 0 0 30 99 32 0 100 95 101 0 +-.5
969 .264671068462782 6.73048847537274 -888405851598131e-30 -.824331600923871 .56
610724400796 16 100 17 102 ?70 40 103 99 0 0 1 30 101 34 0 40 99 104 0 +.0381 .2
646710684627825 6.73048847537274 -1665760971746515e-31 -.824331600923871 .566107
24400796 16 40 11 105 ?39 106 100 101 0 0 1 30 104 35 0 106 101 83 0 +-.2794 .31
6178604214909 6.69511583033815 -1 594032774223018e-31 -4079502184423135e-32 16 1
06 8 107 ?37 21 40 104 0 0 1 30 83 103 0 55 104 108 0 +-.5969 .256133463589087 6
.71805652441631 -888405851598131e-30 -.824331600923871 .56610724400796 30 108 10
1 0 64 83 109 0 +.0381 .2561334635890875 6.71805652441631 -1665760971746515e-31
 -.824331600923871 .56610724400796 16 64 71 110 ?59 103 55 108 0 0 1 30 109 100
 0 103 108 22 0 +-.2794 .307640999341214 6.68268387938171 -1 594032774223018e-31
 -4079502184423135e-32 16 103 67 111 ?80 100 64 109 0 0 1 30 22 124 0 11 109 8 0
 +.0381 .316178604214909 6.69511583033815 0 -.566107244007959 -.824331600923871
 81 1 111 182 32 103 0 0 26 107 112 17 80 0 113 79 27 46 52 103 0 0 +15 113 112
 0 80 17 0 17 79 0 113 114 80 30 56 21 0 0 -17 27 0 113 80 114 23 41 11 0 52 +17
 52 0 51 59 48 23 80 103 0 0 -17 114 0 113 27 79 12 37 106 0 0 -17 41 0 115 39 5
7 12 27 11 0 114 -15 115 114 0 57 116 0 17 39 0 115 65 41 60 29 40 0 88 +17 57 0
 115 41 65 23 59 64 0 27 -17 65 0 115 57 39 49 88 82 0 84 +17 88 0 87 92 84 60 6
5 82 0 38 -16 82 258 117 ?65 55 85 118 0 0 1 81 1 117 260 32 82 0 0 89 61 119 30
 118 345 0 82 0 91 0 +.0381 0 7.32629228744631 4079502184423135e-32 0 -1 30 91 3
44 0 85 118 98 0 +-.2794 0 6.89395540904978 -1 0 0 80 7 CCCCCDI12 legal_owners0
 17 1 lCZ1 32 120 121 9000 0 0 0 0 3 6 0 0 0 FFTFTFTTFFFFFFFFF1 81 1 89 254 32 8
5 0 0 94 117 122 81 1 61 293 32 60 0 0 117 58 123 82 255 3 119 162 7 1 82 3 123
 162 7 0 82 3 122 162 9 1 79 255 9 121 BTI/DetId17 38 0 36 29 70 60 92 90 0 0 -1
5 36 7 0 37 124 0 17 70 0 36 38 37 66 43 100 0 92 +17 37 0 36 70 29 30 114 106 0
 79 +17 43 0 75 56 76 30 70 100 0 37 -14 255 124 4 125 ?86 19 36 6 126 +0 0 86 1
9 25 81 1 125 433 127 124 128 0 129 130 131 14 86 59 130 ?93 124 51 6 132 -0 0 9
3 124 25 14 19 119 129 ?124 116 75 6 7 +0 0 124 116 25 50 126 40 0 124 133 132 0
 +-.3175 2.183192623235425 5.41294957631201 0 .56610724400796 .824331600923871 1
 0 0 13 25 3 0 0 0 0 0 0 10 17 14 17 113 134 ?116 0 113 6 135 +0 0 116 0 25 81 1
 134 430 127 17 136 0 0 137 138 14 116 115 137 ?19 17 115 6 20 -0 0 19 17 25 50
 135 120 0 17 132 20 0 +-.2794 .316178604214909 6.69511583033815 720623561631332
e-31 .824331600923871 -.566107244007959 0 -.56610724400796 -.824331600923872 50
 132 99 0 86 126 135 0 +-.3175 2.17465501836173 5.40051762535558 0 .566107244007
96 .824331600923871 1 0 0 50 20 121 0 116 135 7 0 +.0381 .2646710684627825 6.730
48847537274 -1 1373139408596308e-31 -94299935289144e-30 1373139408596308e-31 1 0
 81 1 137 431 127 116 139 0 134 129 140 80 1 127 0 141 8001 0 0 0 0 3 5 0 0 0 FF
FFTFTFFFFFFFFFF2 81 1 139 395 32 116 0 137 142 0 143 81 1 129 432 127 19 142 0 1
37 125 144 83 255 3 140 .768627450980392 .886274509803922 .952941176470588 81 1
 142 394 32 19 0 129 128 139 145 83 3 144 .768627450980392 .886274509803922 .952
941176470588 81 1 128 393 32 124 0 125 146 142 147 82 3 145 163 2 2 81 1 146 392
 32 86 0 130 105 128 148 82 3 147 163 1 2 81 1 130 434 127 86 146 0 125 149 150
 81 1 105 391 32 40 0 0 110 146 151 82 3 148 163 0 2 81 1 110 390 32 64 0 0 102
 105 152 82 3 151 163 3 1 81 1 102 389 32 100 0 0 81 110 153 82 3 152 163 2 1 81
 1 81 388 32 55 0 0 154 102 155 82 3 153 163 1 1 81 1 154 387 32 1 0 156 73 81 1
57 82 3 155 163 0 1 81 1 156 427 158 1 154 14 0 0 159 81 1 73 308 32 93 0 149 72
 154 160 82 3 157 120 6 3 14 93 306 149 ?0 86 87 6 133 +0 0 0 86 25 81 1 149 435
 127 93 73 0 130 0 161 82 3 160 162 5 2 83 3 161 .768627450980392 .8862745098039
22 .952941176470588 50 133 336 0 93 0 126 0 +0 0 0 0 -1 0 0 0 -1 80 1 158 162 16
3 8038 0 0 0 0 0 0 0 0 0 TTTTTTTTTTTTTFTFT10 81 1 14 428 162 1 156 2 0 0 164 98
 255 8 159 80 97 114 116 32 49 55 55 80 1 162 165 166 8017 0 0 0 0 0 0 0 0 0 TTT
TTTTTTTTTTFTFT3 84 255 8 164 Part 17779 13 166 SDL/TYSA_NAME79 14 163 SDL/TYSA_U
NAME83 3 150 .768627450980392 .886274509803922 .952941176470588 82 3 143 163 3 2
 79 15 141 SDL/TYSA_COLOUR81 1 136 190 32 17 0 134 107 96 167 83 3 138 .76862745
0980392 .886274509803922 .952941176470588 81 1 107 183 32 106 0 0 111 136 168 81
 1 96 248 32 90 0 0 136 94 169 82 3 167 120 36 2 82 3 169 162 11 1 82 3 168 120
 77 1 83 3 131 .768627450980392 .886274509803922 .952941176470588 16 21 111 34 ?
56 11 106 8 0 0 1 81 1 34 179 32 21 0 0 28 26 170 81 1 26 181 32 11 0 0 34 111 1
71 82 3 170 120 25 1 82 3 171 120 27 1 82 3 112 120 76 1 82 3 97 162 5 1 81 1 62
 301 32 66 0 0 58 72 172 82 3 74 162 1 0 82 3 172 162 3 0 82 3 63 162 5 0 81 1 3
3 176 32 23 0 0 42 28 173 81 1 42 173 32 30 0 0 47 33 174 82 3 173 120 54 0 82 3
 174 120 51 0 82 3 50 120 50 0 82 3 35 120 55 0 19 18 129 0 1 0 10 6 0 S0 74 4 C
I16 index_map_offset0 0 1 dCCZ20 16 5 0 0 139 156 14 2 149 0 0 0 0 0 0 0 0 0 0 0
 0 0 0 0 80 1 13 127 175 8040 0 0 0 0 3 5 0 0 0 TTTFFFFFFFFFFFFFF2 83 3 15 .7686
27450980392 .886274509803922 .952941176470588 79 17 175 SDL/TYSA_COLOUR_21 0 
