**ABCDEFGHIJKLMNOPQRSTUVWXYZabcdefghijklmnopqrstuvwxyz**************************
**PARASOLID !"#$%&'()*+,-./:;<=>?@[\]^_`{|}~0123456789**************************
**PART1;
MC=unknown;
MC_MODEL=unknown;
MC_ID=unknown;
OS=unknown;
OS_RELEASE=unknown;
FRU=Parasolid 36.0.180;
APPL=Onshape;
SITE=unknown;
USER=unknown;
FORMAT=text;
GUISE=transmit;
KEY=BTGapi::writeModels_.xmt;
FILE=BTGapi::writeModels_.xmt;
DATE=2024-05-15T00:06:35 (UTC);
**PART2;
SCH=SCH_3600180_36001;
USFLD_SIZE=0;
**PART3;
**END_OF_HEADER*****************************************************************
T51 : TRANSMIT FILE created by modeller version 360018023 SCH_3600180_36001_1300
6231 0 12 36 CCCI7 lattice222 0 CCCI4 mesh1006 0 I8 polyline1008 0 CCCCCCCDI5 ow
ner1040 0 CCCI16 boundary_lattice222 0 CCCI13 boundary_mesh1006 0 I17 boundary_p
olyline1008 0 CCCA16 index_map_offset0 0 1 dA9 index_map82 0 A17 node_id_index_m
ap82 0 A20 schema_embedding_map82 0 A5 child12 0 A14 lowest_node_id0 0 1 dA16 me
sh_offset_data206 0 Z1 143 2 3 0 0 0 0 0 0 0 1e3 1e-8 0 4 5 1 0 1 2 6 0 7 8 9 0
 0 10 11 12 0 0 0 0 0 0 0 81 255 1 2 137 13 1 14 0 0 0 15 70 11 CI9 list_type0 0
 1 uI10 notransmit0 0 1 lCCCDCCDI12 finger_index0 0 1 dI12 finger_block1012 0 CZ
3 0 4 T1 0 0 5 20 1 16 16 13 255 6 5 0 1 0 17 0 0 18 0 50 255 7 90 0 19 20 0 0 +
-1.663702 2.232025 3.825875 0 1 0 0 0 1 30 255 8 98 0 21 22 0 0 +-1.663702 2.232
025 3.6576 1 0 0 29 255 9 85 0 12 23 0 -1.4732 2.232025 3.6576 19 9 CCCCCCI5 fra
me230 0 CA5 owner12 0 Z10 1 0 1 18 0 24 0 V0 16 255 11 29 25 ?26 0 27 28 0 0 1 1
8 255 12 53 29 30 0 31 9 ?1 81 1 29 108 32 12 0 0 0 33 34 17 255 30 0 35 36 37 1
2 38 21 0 39 +18 31 57 40 41 12 42 23 ?1 81 1 40 114 32 31 0 0 43 44 45 17 41 0
 46 39 47 31 48 49 0 50 +18 42 61 51 52 31 53 54 ?1 29 23 84 0 31 54 9 -1.4732 2
.232025 3.99415 29 54 83 0 42 55 23 -1.4732 2.168525 3.99415 29 55 82 0 53 56 54
 -1.4732 2.168525 3.6576 18 53 65 57 58 42 59 55 ?1 29 56 81 0 59 60 55 -1.6637
 2.232025 3.6576 18 59 69 33 61 53 62 56 ?1 29 60 80 0 62 63 56 -1.6637 2.232025
 3.99415 18 62 70 44 47 59 64 60 ?1 29 63 79 0 64 65 60 -1.6637 2.168525 3.6576
 18 64 71 66 67 62 68 63 ?1 29 65 78 0 68 0 63 -1.6637 2.168525 3.99415 18 68 72
 43 69 64 0 65 ?1 81 1 43 113 32 68 0 0 51 40 70 17 69 0 71 72 73 68 52 74 0 75
 -15 255 71 11 0 72 76 0 17 72 0 71 58 69 64 75 77 0 0 -17 73 0 71 69 58 42 78 7
9 0 80 +17 52 0 81 50 82 42 69 74 0 73 +16 74 47 83 ?52 49 84 85 0 0 1 17 75 0 8
6 87 88 68 72 77 0 82 +15 86 8 0 88 17 0 17 87 0 86 61 75 62 82 89 0 48 +17 88 0
 86 75 61 64 37 90 0 72 -16 77 51 91 ?75 90 89 92 0 0 1 17 82 0 81 52 48 68 87 8
9 0 0 -15 81 22 0 82 93 0 17 48 0 81 82 50 62 41 49 0 0 -16 89 52 94 ?87 77 0 95
 0 0 1 81 1 94 123 32 89 0 0 96 97 98 30 95 94 0 89 92 99 0 +-1.6637 0 3.99415 0
 1 0 30 92 93 0 77 100 95 0 +-1.6637 2.168525 3.825875 0 0 1 30 99 95 0 84 95 85
 0 +-1.663702 2.168525 3.6576 1 0 0 16 84 48 101 ?58 74 102 99 0 0 1 30 85 96 0
 74 99 22 0 +-1.663702 2.168525 3.99415 1 0 0 30 22 97 0 49 85 8 0 +-1.663702 2.
232025 3.99415 1 0 0 16 49 46 103 ?41 21 74 22 0 0 1 81 1 103 119 32 49 0 0 83 1
04 105 16 21 45 106 ?30 107 49 8 0 0 1 81 1 106 116 32 21 0 0 44 101 108 16 107
 41 104 ?109 79 21 110 0 0 1 81 1 104 120 32 107 0 0 103 111 112 17 109 0 113 26
 78 12 36 107 0 0 +16 79 37 97 ?73 27 107 114 0 0 1 30 110 74 0 107 0 115 0 +-1.
4732 0 3.6576 0 1 0 30 115 75 0 27 110 114 0 +-1.4732 0 3.99415 0 1 0 16 27 33 9
6 ?50 11 79 115 0 0 1 30 114 76 0 79 115 28 0 +-1.4732 2.168525 3.825875 0 0 1 3
0 28 77 0 11 114 116 0 +-1.4732 2.232025 3.825875 0 0 1 30 116 91 0 102 28 100 0
 +-1.6637 2.232025 3.825875 0 0 1 16 102 49 117 ?47 84 90 116 0 0 1 30 100 92 0
 90 116 92 0 +-1.6637 0 3.6576 0 1 0 16 90 50 111 ?37 102 77 100 0 0 1 81 1 111
 121 32 90 0 0 104 96 118 17 37 0 35 30 67 59 88 90 0 38 +15 35 25 0 67 119 0 17
 67 0 35 37 36 64 58 84 0 88 -17 38 0 46 47 39 59 30 21 0 0 -15 46 28 0 38 19 0
 17 47 0 46 41 38 62 61 102 0 87 +17 39 0 46 38 41 12 26 11 0 109 -17 26 0 113 8
0 109 31 39 11 0 0 +15 113 19 0 109 120 0 17 80 0 113 78 26 42 50 27 0 0 -17 78
 0 113 109 80 53 73 79 0 36 -17 50 0 81 48 52 31 80 27 0 26 +17 36 0 35 67 30 53
 109 107 0 0 -14 255 120 12 121 ?93 76 113 6 122 -0 0 93 76 24 81 1 121 140 123
 120 124 0 125 126 127 14 93 20 126 ?119 120 81 6 20 -0 0 119 120 24 14 76 9 125
 ?120 17 71 6 128 -0 0 120 0 24 50 122 73 0 120 0 129 0 +-1.4732 0 3.28135867469
8795 -1 0 0 0 -1 0 13 24 3 0 0 0 0 0 0 10 76 50 129 86 0 17 122 130 0 +-1.6637 0
 2.40919 -1 0 0 0 -1 0 14 17 6 131 ?76 0 86 6 129 +0 0 0 19 24 50 130 87 0 119 1
29 128 0 +-1.663702 0 3.6576 0 0 -1 -1 0 0 14 119 23 132 ?19 93 35 6 130 +0 0 19
 93 24 50 128 88 0 76 130 20 0 +-1.663702 2.168525 3.825875 0 1 0 0 0 1 50 20 89
 0 93 128 7 0 +-1.663702 0 3.99415 0 0 -1 -1 0 0 81 1 132 142 123 119 133 0 126
 134 135 14 19 26 134 ?0 119 46 6 7 +0 0 17 119 24 81 1 134 143 123 19 136 0 132
 0 137 80 7 CCCCCDI12 legal_owners0 17 1 lCZ1 123 0 138 8001 0 0 0 0 3 5 0 0 0 F
FFFTFTFFFFFFFFFF2 81 1 136 133 32 19 0 134 139 140 141 83 255 3 137 .76862745098
0392 .886274509803922 .952941176470588 80 1 32 142 143 9000 0 0 0 0 3 6 0 0 0 FF
TFTFTTFFFFFFFFF1 81 1 139 132 32 76 0 125 144 136 145 81 1 140 134 32 1 0 146 13
6 0 147 82 255 3 141 123 67 2 81 1 146 135 148 1 140 14 0 0 149 82 3 147 123 0 3
 80 1 148 150 151 8038 0 0 0 0 0 0 0 0 0 TTTTTTTTTTTTTFTFT10 81 1 14 136 150 1 1
46 2 0 0 152 98 255 27 149 80 97 114 116 32 49 55 56 32 32 50 46 53 120 55 46 53
 120 49 51 46 50 53 32 116 111 112 80 1 150 153 154 8017 0 0 0 0 0 0 0 0 0 TTTTT
TTTTTTTTFTFT3 84 255 27 152 Part 178  2.5x7.5x13.25 top79 255 13 154 SDL/TYSA_NA
ME79 14 151 SDL/TYSA_UNAME81 1 125 139 123 76 139 0 131 121 155 81 1 144 131 32
 93 0 126 156 139 157 82 3 145 123 66 2 81 1 126 141 123 93 144 0 121 132 158 81
 1 156 130 32 17 0 131 124 144 159 82 3 157 123 47 2 81 1 131 138 123 17 156 0 0
 125 160 81 1 124 129 32 120 0 121 133 156 161 82 3 159 123 2 2 81 1 133 128 32
 119 0 132 117 124 162 82 3 161 123 1 2 81 1 117 127 32 102 0 0 25 133 163 82 3
 162 123 0 2 81 1 25 126 32 11 0 0 91 117 164 82 3 163 123 135 1 81 1 91 125 32
 77 0 0 97 25 165 82 3 164 123 134 1 81 1 97 124 32 79 0 0 94 91 166 82 3 165 12
3 133 1 82 3 166 123 132 1 83 3 160 .768627450980392 .886274509803922 .952941176
470588 83 3 158 .768627450980392 .886274509803922 .952941176470588 83 3 155 .768
627450980392 .886274509803922 .952941176470588 79 9 143 BTI/DetId79 15 138 SDL/T
YSA_COLOUR83 3 135 .768627450980392 .886274509803922 .952941176470588 83 3 127 .
768627450980392 .886274509803922 .952941176470588 17 61 0 86 88 87 59 47 102 0 3
7 -17 58 0 71 73 72 53 67 84 0 78 +81 1 96 122 32 27 0 0 111 94 167 82 3 118 123
 49 1 82 3 167 123 94 1 82 3 112 123 48 1 81 1 44 115 32 62 0 0 40 106 168 81 1
 101 117 32 84 0 0 106 83 169 82 3 108 123 0 1 81 1 83 118 32 74 0 0 101 103 170
 82 3 169 123 37 1 82 3 170 123 38 1 82 3 168 123 79 0 82 3 105 123 39 1 82 3 98
 123 95 1 81 1 51 112 32 42 0 0 66 43 171 82 3 70 123 77 0 81 1 66 111 32 64 0 0
 57 51 172 82 3 171 123 76 0 81 1 57 110 32 53 0 0 33 66 173 82 3 172 123 75 0 8
1 1 33 109 32 59 0 0 29 57 174 82 3 173 123 74 0 82 3 174 123 1 0 82 3 45 123 78
 0 82 3 34 123 0 0 19 18 4 0 1 0 10 6 0 S0 74 4 CI16 index_map_offset0 0 1 dCCZ2
0 16 5 0 0 140 146 14 2 134 0 0 0 0 0 0 0 0 0 0 0 0 0 0 0 80 1 13 123 175 8040 0
 0 0 0 3 5 0 0 0 TTTFFFFFFFFFFFFFF2 83 3 15 .768627450980392 .886274509803922 .9
52941176470588 79 17 175 SDL/TYSA_COLOUR_21 0 
