**ABCDEFGHIJKLMNOPQRSTUVWXYZabcdefghijklmnopqrstuvwxyz**************************
**PARASOLID !"#$%&'()*+,-./:;<=>?@[\]^_`{|}~0123456789**************************
**PART1;
MC=unknown;
MC_MODEL=unknown;
MC_ID=unknown;
OS=unknown;
OS_RELEASE=unknown;
FRU=Parasolid 36.0.180;
APPL=Onshape;
SITE=unknown;
USER=unknown;
FORMAT=text;
GUISE=transmit;
KEY=BTGapi::writeModels_.xmt;
FILE=BTGapi::writeModels_.xmt;
DATE=2024-05-15T00:06:35 (UTC);
**PART2;
SCH=SCH_3600180_36001;
USFLD_SIZE=0;
**PART3;
**END_OF_HEADER*****************************************************************
T51 : TRANSMIT FILE created by modeller version 360018023 SCH_3600180_36001_1300
6231 0 12 36 CCCI7 lattice222 0 CCCI4 mesh1006 0 I8 polyline1008 0 CCCCCCCDI5 ow
ner1040 0 CCCI16 boundary_lattice222 0 CCCI13 boundary_mesh1006 0 I17 boundary_p
olyline1008 0 CCCA16 index_map_offset0 0 1 dA9 index_map82 0 A17 node_id_index_m
ap82 0 A20 schema_embedding_map82 0 A5 child12 0 A14 lowest_node_id0 0 1 dA16 me
sh_offset_data206 0 Z1 338 2 3 0 0 0 0 0 0 0 1e3 1e-8 0 4 5 1 0 1 2 6 0 7 8 9 0
 0 10 11 12 0 0 0 0 0 0 0 81 255 1 2 332 13 1 14 0 0 0 15 70 11 CI9 list_type0 0
 1 uI10 notransmit0 0 1 lCCCDCCDI12 finger_index0 0 1 dI12 finger_block1012 0 CZ
3 0 4 T1 0 0 5 20 1 16 16 13 255 6 213 0 1 0 17 0 0 18 0 50 255 7 208 0 17 19 0
 0 +3.1115 4.146993239421045 3.714782233168685 0 -.56610724400796 -.824331600923
871 0 -.824331600923871 .56610724400796 30 255 8 212 0 11 20 0 0 +3.1115 4.17316
5767750375 3.69680832817143 -1 0 0 29 255 9 189 0 21 22 0 3.048 -261551617167402
5e-31 6.84773614491226 19 9 CCCCCCI5 frame230 0 CA5 owner12 0 Z10 96 0 1 18 0 23
 0 V0 16 255 11 196 24 ?25 0 26 8 0 0 1 18 255 12 90 27 28 0 29 30 ?1 81 1 27 31
0 31 12 0 0 32 24 33 17 255 28 0 34 35 36 12 37 38 0 39 +18 29 85 40 37 12 41 42
 ?1 29 30 92 0 12 42 43 3.1115 -2615516171674025e-31 6.84773614491226 29 42 87 0
 29 44 30 3.1115 -317043225060641e-30 6.56271734939759 29 43 192 0 45 30 46 3.04
8 4.173165767750375 3.69680832817143 18 45 180 47 48 49 0 43 ?1 29 46 191 0 49 4
3 22 3.048 4.306172664730045 3.890485037808495 18 49 176 50 51 52 45 46 ?1 29 22
 190 0 52 46 9 3.048 -317043225060641e-30 6.56271734939759 18 52 172 53 54 21 49
 22 ?1 81 1 53 307 31 52 0 0 55 40 56 17 54 0 34 36 35 52 57 58 0 59 -18 21 168
 32 57 60 52 9 ?1 81 1 32 309 31 21 0 0 40 27 61 17 57 0 62 51 63 21 54 58 0 35
 +18 60 60 64 65 41 21 66 ?1 81 1 64 304 31 60 0 0 47 50 67 17 65 0 68 25 69 60
 70 71 0 72 +18 41 65 55 73 29 60 44 ?1 29 66 62 0 60 0 44 3.1115 4.173165767750
375 3.69680832817143 29 44 67 0 41 66 42 3.1115 4.306172664730045 3.890485037808
495 81 1 55 306 31 41 0 0 50 53 74 17 73 0 75 76 77 41 39 78 0 70 -15 255 75 199
 0 79 80 0 17 76 0 75 79 73 49 69 26 0 81 +17 77 0 75 73 79 12 35 82 0 0 -17 39
 0 83 37 70 12 73 78 0 77 +16 78 25 84 ?39 38 71 85 0 0 1 17 70 0 83 39 72 41 65
 71 0 69 -15 83 6 0 72 86 0 17 72 0 83 70 37 60 87 88 0 89 -16 71 20 90 ?65 78 8
8 91 0 0 1 17 69 0 68 65 81 41 76 26 0 0 -15 68 201 0 81 92 0 17 81 0 68 69 25 4
9 48 93 0 0 -16 26 195 94 ?76 11 82 20 0 0 1 81 1 94 312 31 26 0 0 24 95 96 16 8
2 193 97 ?35 26 98 99 0 0 1 30 20 211 0 26 100 8 0 +3.1115 4.306172664730045 3.8
90485037808495 -1 0 0 30 100 210 0 98 99 20 0 +3.1115 -317043225060641e-30 6.562
71734939759 -1 0 0 16 98 194 95 ?59 82 38 100 0 0 1 30 99 209 0 82 101 100 0 +3.
1115 -2615516171674025e-31 6.84773614491226 -1 0 0 30 101 185 0 58 102 99 0 +3.0
48 -289297421114022e-30 6.70522674715492 0 1946945561714115e-31 1 16 58 146 103
 ?57 88 104 101 0 0 1 30 102 186 0 104 105 101 0 +3.048 4.280000136400715 3.9084
58942805745 0 -.824331600923871 .566107244007959 16 104 150 106 ?79 58 93 102 0
 0 1 30 105 187 0 93 107 102 0 +3.048 4.306172664730045 3.890485037808495 0 -.56
6107244007959 -.824331600923871 16 93 158 108 ?48 104 109 105 0 0 1 30 107 188 0
 109 110 105 0 +3.048 4.146993239421045 3.714782233168685 0 -.824331600923871 .5
66107244007959 16 109 162 111 ?63 93 0 107 0 0 1 30 110 52 0 38 85 107 0 +3.1115
 -289297421114022e-30 6.70522674715492 0 1946945561714115e-31 1 16 38 50 112 ?28
 98 78 110 0 0 1 30 85 27 0 78 91 110 0 +3.1115 4.280000136400715 3.908458942805
745 0 -.824331600923871 .566107244007959 30 91 22 0 71 113 85 0 +3.1115 4.306172
664730045 3.890485037808495 0 -.566107244007959 -.824331600923871 30 113 17 0 88
 0 91 0 +3.1115 4.146993239421045 3.714782233168685 0 -.824331600923871 .5661072
44007959 16 88 15 114 ?87 71 58 113 0 0 1 81 1 114 316 31 88 0 0 111 106 115 17
 87 0 116 59 89 29 72 88 0 0 +15 116 203 0 117 17 0 17 59 0 116 117 87 52 36 98
 0 63 +17 89 0 116 87 117 60 25 11 0 0 -17 117 0 116 89 59 45 63 109 0 0 -17 25
 0 68 81 65 45 89 11 0 117 +17 63 0 62 57 48 52 117 109 0 0 +15 62 145 0 63 118
 0 17 48 0 62 63 51 45 81 93 0 25 +17 51 0 62 48 57 49 79 104 0 76 -17 79 0 75 7
7 76 21 51 104 0 0 +14 255 118 133 119 ?0 86 62 6 120 -0 0 0 86 23 81 1 119 338
 121 118 122 0 123 0 124 14 86 1 123 ?118 125 83 6 126 +0 0 118 125 23 50 120 18
4 0 118 126 127 0 +3.048 1.584070339951995 5.6173712124891 1 0 0 0 1 0 13 23 97
 0 0 0 0 0 0 10 17 14 17 204 128 ?92 0 116 6 7 +0 0 92 0 23 81 1 128 333 121 17
 129 0 0 130 131 14 92 202 130 ?80 17 68 6 19 +0 0 80 17 23 81 1 130 334 121 92
 132 0 128 133 134 14 80 200 133 ?125 92 75 6 135 -0 0 125 92 23 50 19 207 0 92
 135 7 0 +3.1115 4.306172664730045 3.890485037808495 0 .824331600923871 -.566107
24400796 0 -.56610724400796 -.824331600923871 50 135 206 0 80 127 19 0 +3.1115 4
.280000136400715 3.908458942805745 0 -.56610724400796 -.824331600923871 0 -.8243
31600923871 .56610724400796 50 127 205 0 125 120 135 0 +3.1115 -289297421114022e
-30 6.70522674715492 0 -1 1946945561714115e-31 0 1946945561714115e-31 1 14 125 1
98 136 ?86 80 34 6 127 +0 0 86 80 23 81 1 136 336 121 125 137 0 133 123 138 15 3
4 197 0 54 125 0 80 7 CCCCCDI12 legal_owners0 17 1 lCZ1 121 0 139 8001 0 0 0 0 3
 5 0 0 0 FFFFTFTFFFFFFFFFF2 81 1 137 328 31 125 0 136 132 140 141 81 1 133 335 1
21 80 142 0 130 136 143 81 1 123 337 121 86 144 0 136 119 145 83 255 3 138 .2313
72549019608 .380392156862745 .705882352941177 81 1 144 325 31 86 0 123 122 142 1
46 83 3 145 .231372549019608 .380392156862745 .705882352941177 80 1 31 147 148 9
000 0 0 0 0 3 6 0 0 0 FFTFTFTTFFFFFFFFF1 81 1 122 324 31 118 0 119 129 144 149 8
1 1 142 326 31 80 0 133 144 132 150 82 255 3 146 112 8 2 81 1 132 327 31 92 0 13
0 142 137 151 82 3 150 112 9 2 82 3 151 112 10 2 81 1 129 323 31 17 0 128 112 12
2 152 82 3 149 112 7 2 81 1 112 322 31 38 0 0 103 129 153 82 3 152 112 6 2 81 1
 103 321 31 58 0 0 90 112 154 82 3 153 112 23 1 81 1 90 320 31 71 0 0 108 103 15
5 82 3 154 112 22 1 81 1 108 319 31 93 0 0 84 90 156 82 3 155 112 21 1 81 1 84 3
18 31 78 0 0 106 108 157 82 3 156 112 20 1 81 1 106 317 31 104 0 0 114 84 158 82
 3 157 112 19 1 82 3 158 112 18 1 79 255 9 148 BTI/DetId83 3 143 .23137254901960
8 .380392156862745 .705882352941177 81 1 140 329 31 1 0 159 137 0 160 82 3 141 1
12 11 2 81 1 159 330 161 1 140 14 0 0 162 82 3 160 112 1 3 80 1 161 163 164 8038
 0 0 0 0 0 0 0 0 0 TTTTTTTTTTTTTFTFT10 81 1 14 331 163 1 159 2 0 0 165 98 255 39
 162 80 97 114 116 32 49 52 55 32 50 46 53 120 57 46 50 53 120 50 48 53 46 54 54
 51 32 97 110 103 108 101 100 32 51 52 46 52 55 57 80 1 163 166 167 8017 0 0 0 0
 0 0 0 0 0 TTTTTTTTTTTTTFTFT3 84 255 39 165 Part 147 2.5x9.25x205.663 angled 34.
47979 13 167 SDL/TYSA_NAME79 14 164 SDL/TYSA_UNAME79 15 139 SDL/TYSA_COLOUR83 3
 134 .231372549019608 .380392156862745 .705882352941177 83 3 131 .23137254901960
8 .380392156862745 .705882352941177 50 126 3 0 86 0 120 0 +3.1115 1.584070339951
995 5.6173712124891 1 0 0 0 1 0 83 3 124 .231372549019608 .380392156862745 .7058
82352941177 17 36 0 34 28 54 29 59 98 0 87 -81 1 111 315 31 109 0 0 97 114 168 8
2 3 115 112 17 1 81 1 97 314 31 82 0 0 95 111 169 82 3 168 112 16 1 81 1 95 313
 31 98 0 0 94 97 170 82 3 169 112 15 1 82 3 170 112 14 1 17 35 0 34 54 28 21 77
 82 0 79 +81 1 24 311 31 11 0 0 27 94 171 82 3 96 112 13 1 82 3 171 112 12 1 17
 37 0 83 72 39 29 28 38 0 36 -81 1 50 305 31 49 0 0 64 55 172 82 3 74 112 11 0 8
2 3 172 112 10 0 81 1 47 303 31 45 0 0 0 64 173 82 3 67 112 9 0 82 3 173 112 8 0
 81 1 40 308 31 29 0 0 53 32 174 82 3 61 112 14 0 82 3 174 112 13 0 82 3 56 112
 12 0 82 3 33 112 15 0 19 18 214 0 1 0 10 6 0 S0 74 4 CI16 index_map_offset0 0 1
 dCCZ20 16 5 0 0 140 159 14 2 119 0 0 0 0 0 0 0 0 0 0 0 0 0 0 0 80 1 13 121 175
 8040 0 0 0 0 3 5 0 0 0 TTTFFFFFFFFFFFFFF2 83 3 15 .231372549019608 .38039215686
2745 .705882352941177 79 17 175 SDL/TYSA_COLOUR_21 0 
