**ABCDEFGHIJKLMNOPQRSTUVWXYZabcdefghijklmnopqrstuvwxyz**************************
**PARASOLID !"#$%&'()*+,-./:;<=>?@[\]^_`{|}~0123456789**************************
**PART1;
MC=unknown;
MC_MODEL=unknown;
MC_ID=unknown;
OS=unknown;
OS_RELEASE=unknown;
FRU=Parasolid 36.0.180;
APPL=Onshape;
SITE=unknown;
USER=unknown;
FORMAT=text;
GUISE=transmit;
KEY=BTGapi::writeModels_.xmt;
FILE=BTGapi::writeModels_.xmt;
DATE=2024-05-15T00:06:35 (UTC);
**PART2;
SCH=SCH_3600180_36001;
USFLD_SIZE=0;
**PART3;
**END_OF_HEADER*****************************************************************
T51 : TRANSMIT FILE created by modeller version 360018023 SCH_3600180_36001_1300
6231 0 12 36 CCCI7 lattice222 0 CCCI4 mesh1006 0 I8 polyline1008 0 CCCCCCCDI5 ow
ner1040 0 CCCI16 boundary_lattice222 0 CCCI13 boundary_mesh1006 0 I17 boundary_p
olyline1008 0 CCCA16 index_map_offset0 0 1 dA9 index_map82 0 A17 node_id_index_m
ap82 0 A20 schema_embedding_map82 0 A5 child12 0 A14 lowest_node_id0 0 1 dA16 me
sh_offset_data206 0 Z1 174 2 3 0 0 0 0 0 0 0 1e3 1e-8 0 4 5 1 0 1 2 6 0 7 8 9 0
 0 10 11 12 0 0 0 0 0 0 0 81 255 1 2 168 13 1 14 0 0 0 15 70 11 CI9 list_type0 0
 1 uI10 notransmit0 0 1 lCCCDCCDI12 finger_index0 0 1 dI12 finger_block1012 0 CZ
3 0 4 T1 0 0 5 20 1 16 16 13 255 6 5 0 1 0 17 0 0 18 0 50 255 7 93 0 19 20 0 0 +
-1.6002 1.291098533405384 5.96108054215521 0 .824331600923871 -.56610724400796 0
 -.56610724400796 -.824331600923871 30 255 8 101 0 21 22 0 0 +-1.4732 1.29109853
3405384 5.96108054215521 0 -.56610724400796 -.824331600923871 29 255 9 88 0 12 2
3 0 -1.4732 1.048670415894616 5.49590161889644 19 9 CCCCCCI5 frame230 0 CA5 owne
r12 0 Z10 1 0 1 18 0 24 0 V0 16 255 11 30 25 ?26 0 27 28 0 0 1 18 255 12 56 29 3
0 0 31 9 ?1 81 1 29 143 32 12 0 0 33 34 35 17 255 30 0 36 26 37 12 38 27 0 39 +1
8 31 60 40 37 12 41 23 ?1 81 1 40 141 32 31 0 0 42 33 43 17 37 0 36 30 44 31 45
 46 0 47 -18 41 64 48 44 31 49 50 ?1 29 23 87 0 31 50 9 -1.6637 1.04867041589461
4 5.49590161889644 29 50 86 0 41 51 23 -1.6637 .996325359235949 5.53184942889095
 29 51 85 0 49 52 50 -1.4732 .996325359235949 5.53184942889095 18 49 68 53 54 41
 55 51 ?1 29 52 84 0 55 56 51 -1.6637 1.34344245784956 5.9251310834975 18 55 72
 33 57 49 58 52 ?1 29 56 83 0 58 59 52 -1.4732 1.34344245784956 5.9251310834975
 18 58 73 34 60 55 61 56 ?1 29 59 82 0 61 62 56 -1.4732 1.291097401190894 5.9610
7889349201 18 61 74 42 63 58 64 59 ?1 29 62 81 0 64 0 59 -1.6637 1.2910974011908
94 5.96107889349201 18 64 75 65 66 61 0 62 ?1 81 1 65 146 32 64 0 0 48 67 68 17
 66 0 69 70 45 64 71 72 0 73 -15 255 69 17 0 47 74 0 17 70 0 69 47 66 55 75 76 0
 77 -17 45 0 69 66 47 41 37 46 0 0 +17 71 0 78 54 73 41 66 72 0 45 +16 72 49 79
 ?71 21 80 22 0 0 1 17 73 0 78 71 63 64 81 82 0 75 +15 78 20 0 73 19 0 17 63 0 7
8 73 54 61 83 21 0 84 -17 81 0 85 86 75 61 73 82 0 0 -16 82 55 87 ?73 88 0 89 0
 0 1 17 75 0 85 81 77 64 70 76 0 0 +15 85 8 0 77 17 0 17 77 0 85 75 86 55 90 88
 0 0 -16 76 52 91 ?75 92 93 94 0 0 1 81 1 91 152 32 76 0 0 95 25 96 16 92 51 97
 ?39 80 76 98 0 0 1 16 93 53 99 ?84 76 88 100 0 0 1 30 94 94 0 76 101 100 0 +-1.
6637 1.53151446946731 5.79597319600098 0 -.824331600923871 .56610724400796 30 10
1 80 0 46 28 94 0 +-1.6637 1.236742427512362 5.36674373139991 0 -.82433160092387
1 .56610724400796 30 100 95 0 93 94 102 0 +-1.4732 1.317269929520228 5.943104988
49476 0 -.824331600923871 .56610724400796 30 102 96 0 88 100 89 0 +-1.56845 1.34
344245784956 5.9251310834975 1 0 0 16 88 54 103 ?90 93 82 102 0 0 1 30 89 97 0 8
2 102 98 0 +-1.6002 1.291097401190894 5.96107889349201 -1 0 0 30 98 98 0 92 89 1
04 0 +-1.4732 1.34344359006405 5.92513273216071 0 -.56610724400796 -.82433160092
3871 30 104 99 0 80 98 22 0 +-1.6637 1.34344359006405 5.92513273216071 0 -.56610
724400796 -.824331600923871 16 80 50 105 ?47 72 92 104 0 0 1 30 22 100 0 72 104
 8 0 +-1.6637 1.291098533405384 5.96108054215521 0 -.56610724400796 -.8243316009
23871 81 1 105 148 32 80 0 0 67 97 106 17 47 0 69 45 70 31 57 80 0 38 +17 57 0 1
07 90 38 55 47 80 0 70 -17 38 0 107 57 39 31 30 27 0 0 -15 107 14 0 90 108 0 17
 39 0 107 38 90 12 60 92 0 109 +16 27 34 110 ?30 11 46 111 0 0 1 81 1 110 157 32
 27 0 0 87 103 112 16 46 38 95 ?45 27 113 101 0 0 1 30 111 78 0 27 114 28 0 +-1.
56845 1.048670415894616 5.49590161889644 1 0 0 30 114 77 0 113 0 111 0 +-1.6002
 .99632535923595 5.53184942889095 -1 0 0 30 28 79 0 11 111 101 0 +-1.4732 1.0224
97887565282 5.5138755238937 0 -.824331600923871 .56610724400796 16 113 42 115 ?4
4 46 21 114 0 0 1 81 1 115 155 32 113 0 0 99 87 116 17 44 0 36 37 26 41 54 113 0
 71 +16 21 48 67 ?83 113 72 8 0 0 1 81 1 67 147 32 21 0 0 65 105 117 17 83 0 118
 109 84 49 63 21 0 0 +15 118 11 0 84 119 0 17 109 0 118 60 83 12 26 11 0 0 -17 8
4 0 118 83 60 61 86 93 0 81 +17 60 0 118 84 109 58 39 92 0 86 -17 86 0 85 77 81
 58 84 93 0 90 -17 90 0 107 39 57 58 77 88 0 0 +17 26 0 36 44 30 49 109 11 0 83
 +15 36 29 0 26 120 0 14 255 120 21 121 ?0 19 36 6 122 +0 0 0 19 24 81 1 121 174
 123 120 124 0 125 0 126 14 19 18 125 ?120 74 78 6 7 -0 0 120 74 24 50 122 76 0
 120 0 127 0 +-.0317500000000006 1.924817738899915 4.89421008382051 0 -.56610724
400796 -.824331600923871 1 0 0 13 24 3 0 0 0 0 0 0 10 17 14 17 6 128 ?119 0 85 6
 127 +0 0 119 0 24 81 1 128 169 123 17 129 0 0 130 131 14 119 9 130 ?108 17 118
 6 20 -0 0 108 17 24 50 127 89 0 17 122 132 0 +-1.78435 2.153086332365025 5.3691
1059136038 0 .56610724400796 .824331600923871 1 0 0 50 132 90 0 108 127 133 0 +-
1.56845 1.34344359006405 5.92513273216071 0 -.824331600923871 .56610724400796 0
 .56610724400796 .824331600923871 14 108 12 134 ?74 119 107 6 132 -0 0 74 119 24
 50 133 91 0 74 132 20 0 +-1.6637 1.5315156016818 5.79597484466418 -1 0 0 0 0 1
 14 74 15 135 ?19 108 69 6 133 +0 0 19 108 24 50 20 92 0 119 133 7 0 +-1.4732 1.
317271061734716 5.94310663715796 -1 0 0 0 0 1 81 1 135 172 123 74 136 0 134 125
 137 80 7 CCCCCDI12 legal_owners0 17 1 lCZ1 123 0 138 8001 0 0 0 0 3 5 0 0 0 FFF
FTFTFFFFFFFFFF2 81 1 136 159 32 74 0 135 103 124 139 81 1 134 171 123 108 140 0
 130 135 141 81 1 125 173 123 19 142 0 135 121 143 83 255 3 137 .498039215686275
 .498039215686275 .498039215686275 81 1 142 163 32 19 0 125 144 140 145 83 3 143
 .498039215686275 .498039215686275 .498039215686275 80 1 32 146 147 9000 0 0 0 0
 3 6 0 0 0 FFTFTFTTFFFFFFFFF1 81 1 144 162 32 119 0 130 129 142 148 81 1 140 164
 32 108 0 134 142 149 150 82 255 3 145 147 44 2 81 1 149 165 32 1 0 151 140 0 15
2 82 3 150 147 45 2 81 1 151 166 153 1 149 14 0 0 154 82 3 152 147 6 3 80 1 153
 155 156 8038 0 0 0 0 0 0 0 0 0 TTTTTTTTTTTTTFTFT10 81 1 14 167 155 1 151 2 0 0
 157 98 255 8 154 80 97 114 116 32 50 52 50 80 1 155 158 159 8017 0 0 0 0 0 0 0
 0 0 TTTTTTTTTTTTTFTFT3 84 255 8 157 Part 24279 255 13 159 SDL/TYSA_NAME79 14 15
6 SDL/TYSA_UNAME81 1 130 170 123 119 144 0 128 134 160 81 1 129 161 32 17 0 128
 124 144 161 82 3 148 147 30 2 81 1 124 160 32 120 0 121 136 129 162 82 3 161 14
7 20 2 82 3 162 147 19 2 83 3 160 .498039215686275 .498039215686275 .49803921568
6275 79 9 147 BTI/DetId83 3 141 .498039215686275 .498039215686275 .4980392156862
75 81 1 103 158 32 88 0 0 110 136 163 82 3 139 147 18 2 82 3 163 147 91 1 79 15
 138 SDL/TYSA_COLOUR83 3 131 .498039215686275 .498039215686275 .498039215686275
 83 3 126 .498039215686275 .498039215686275 .498039215686275 82 3 117 147 14 1 1
7 54 0 78 63 71 49 44 113 0 26 -81 1 99 154 32 93 0 0 25 115 164 81 1 87 156 32
 82 0 0 115 110 165 82 3 116 147 88 1 82 3 165 147 89 1 81 1 25 153 32 11 0 0 91
 99 166 82 3 164 147 61 1 82 3 166 147 60 1 81 1 95 151 32 46 0 0 79 91 167 81 1
 79 150 32 72 0 0 97 95 168 82 3 167 147 44 1 81 1 97 149 32 92 0 0 105 79 169 8
2 3 168 147 30 1 82 3 169 147 16 1 82 3 112 147 90 1 82 3 106 147 15 1 82 3 96 1
47 45 1 81 1 48 145 32 41 0 0 34 65 170 82 3 68 147 61 0 81 1 34 144 32 58 0 0 2
9 48 171 82 3 170 147 60 0 82 3 171 147 33 0 81 1 42 140 32 61 0 0 53 40 172 81
 1 53 139 32 49 0 0 0 42 173 82 3 172 147 29 0 82 3 173 147 28 0 81 1 33 142 32
 55 0 0 40 29 174 82 3 174 147 31 0 82 3 43 147 30 0 82 3 35 147 32 0 19 18 4 0
 1 0 10 6 0 S0 74 4 CI16 index_map_offset0 0 1 dCCZ20 16 5 0 0 149 151 14 2 121
 0 0 0 0 0 0 0 0 0 0 0 0 0 0 0 80 1 13 123 175 8040 0 0 0 0 3 5 0 0 0 TTTFFFFFFF
FFFFFFF2 83 3 15 .498039215686275 .498039215686275 .498039215686275 79 17 175 SD
L/TYSA_COLOUR_21 0 
