**ABCDEFGHIJKLMNOPQRSTUVWXYZabcdefghijklmnopqrstuvwxyz**************************
**PARASOLID !"#$%&'()*+,-./:;<=>?@[\]^_`{|}~0123456789**************************
**PART1;
MC=unknown;
MC_MODEL=unknown;
MC_ID=unknown;
OS=unknown;
OS_RELEASE=unknown;
FRU=Parasolid 36.0.180;
APPL=Onshape;
SITE=unknown;
USER=unknown;
FORMAT=text;
GUISE=transmit;
KEY=BTGapi::writeModels_.xmt;
FILE=BTGapi::writeModels_.xmt;
DATE=2024-05-15T00:06:35 (UTC);
**PART2;
SCH=SCH_3600180_36001;
USFLD_SIZE=0;
**PART3;
**END_OF_HEADER*****************************************************************
T51 : TRANSMIT FILE created by modeller version 360018023 SCH_3600180_36001_1300
6231 0 12 36 CCCI7 lattice222 0 CCCI4 mesh1006 0 I8 polyline1008 0 CCCCCCCDI5 ow
ner1040 0 CCCI16 boundary_lattice222 0 CCCI13 boundary_mesh1006 0 I17 boundary_p
olyline1008 0 CCCA16 index_map_offset0 0 1 dA9 index_map82 0 A17 node_id_index_m
ap82 0 A20 schema_embedding_map82 0 A5 child12 0 A14 lowest_node_id0 0 1 dA16 me
sh_offset_data206 0 Z1 170 2 3 0 0 0 0 0 0 0 1e3 1e-8 0 4 5 1 0 1 2 6 0 7 8 9 0
 0 10 11 12 0 0 0 0 0 0 0 81 255 1 2 164 13 1 14 0 0 0 15 70 11 CI9 list_type0 0
 1 uI10 notransmit0 0 1 lCCCDCCDI12 finger_index0 0 1 dI12 finger_block1012 0 CZ
3 0 4 T1 0 0 5 20 1 16 16 13 255 6 5 0 1 0 17 0 0 18 0 50 255 7 90 0 19 20 0 0 +
1.663702 -2.168525 3.825875 0 1 0 0 0 1 30 255 8 98 0 21 22 0 0 +1.663702 -2.168
525 3.6576 -1 0 0 29 255 9 85 0 12 23 0 1.4732 -2.168525 3.6576 19 9 CCCCCCI5 fr
ame230 0 CA5 owner12 0 Z10 1 0 1 18 0 24 0 V0 16 255 11 29 25 ?26 0 27 28 0 0 1
 18 255 12 53 29 30 0 31 9 ?1 81 1 29 139 32 12 0 0 33 34 35 17 255 30 0 36 26 3
7 12 38 21 0 39 +18 31 57 40 41 12 42 23 ?1 81 1 40 141 32 31 0 0 34 43 44 17 41
 0 45 46 47 31 48 49 0 26 +18 42 61 50 46 31 51 52 ?1 29 23 84 0 31 52 9 1.4732
 -2.168525 3.99415 29 52 83 0 42 53 23 1.4732 -2.232025 3.99415 29 53 82 0 51 54
 52 1.4732 -2.232025 3.6576 18 51 65 55 56 42 57 53 ?1 29 54 81 0 57 58 53 1.663
7 -2.168525 3.6576 18 57 69 34 38 51 59 54 ?1 29 58 80 0 59 60 54 1.6637 -2.1685
25 3.99415 18 59 70 43 48 57 61 58 ?1 29 60 79 0 61 62 58 1.6637 -2.232025 3.657
6 18 61 71 63 64 59 65 60 ?1 29 62 78 0 65 0 60 1.6637 -2.232025 3.99415 18 65 7
2 33 66 61 0 62 ?1 81 1 33 138 32 65 0 0 50 29 67 17 66 0 45 47 46 65 68 69 0 70
 -15 255 45 22 0 47 71 0 17 47 0 45 41 66 59 72 73 0 74 +17 46 0 45 66 41 42 75
 27 0 76 -17 68 0 77 78 70 42 66 69 0 0 +16 69 47 79 ?68 49 80 81 0 0 1 17 70 0
 77 68 64 65 82 83 0 72 +15 77 11 0 70 84 0 17 64 0 77 70 78 61 85 80 0 82 -17 8
2 0 86 87 72 61 70 83 0 88 -16 83 51 89 ?70 90 73 91 0 0 1 17 72 0 86 82 74 65 4
7 73 0 0 -15 86 8 0 87 17 0 17 74 0 86 72 87 59 37 92 0 0 +16 73 52 93 ?47 83 0
 94 0 0 1 81 1 93 150 32 73 0 0 95 96 97 30 94 94 0 73 91 98 0 +1.6637 0 3.99415
 0 1 0 30 91 93 0 83 99 94 0 +1.6637 -2.232025 3.825875 0 0 1 30 98 95 0 80 94 8
1 0 +1.663702 -2.232025 3.6576 -1 0 0 16 80 48 100 ?85 69 92 98 0 0 1 30 81 96 0
 69 98 22 0 +1.663702 -2.232025 3.99415 -1 0 0 30 22 97 0 49 81 8 0 +1.663702 -2
.168525 3.99415 -1 0 0 16 49 46 101 ?41 21 69 22 0 0 1 81 1 101 146 32 49 0 0 10
2 103 104 16 21 45 102 ?30 105 49 8 0 0 1 81 1 102 145 32 21 0 0 79 101 106 16 1
05 41 103 ?107 108 21 109 0 0 1 81 1 103 147 32 105 0 0 101 110 111 17 107 0 112
 38 85 12 56 105 0 0 +16 108 37 96 ?76 27 105 113 0 0 1 30 109 75 0 105 114 113
 0 +1.4732 0 3.6576 0 1 0 30 114 74 0 27 0 109 0 +1.4732 0 3.99415 0 1 0 30 113
 76 0 108 109 28 0 +1.4732 -2.232025 3.825875 0 0 1 30 28 77 0 11 113 115 0 +1.4
732 -2.168525 3.825875 0 0 1 30 115 91 0 92 28 99 0 +1.6637 -2.168525 3.825875 0
 0 1 16 92 49 116 ?74 80 90 115 0 0 1 30 99 92 0 90 115 91 0 +1.6637 0 3.6576 0
 1 0 16 90 50 110 ?87 92 83 99 0 0 1 81 1 110 148 32 90 0 0 103 95 117 17 87 0 8
6 74 82 57 88 90 0 0 +17 88 0 112 85 38 61 87 90 0 0 -15 112 25 0 85 118 0 17 85
 0 112 107 88 51 64 80 0 78 +17 38 0 112 88 107 57 30 21 0 37 -17 37 0 36 30 48
 57 74 92 0 87 -15 36 28 0 30 19 0 17 48 0 36 37 26 59 41 49 0 47 -17 26 0 36 48
 30 31 39 11 0 75 +17 39 0 119 56 75 12 26 11 0 107 -17 75 0 119 39 76 31 46 27
 0 0 +15 119 19 0 56 120 0 17 76 0 119 75 56 42 78 108 0 68 +16 27 33 95 ?75 11
 108 114 0 0 1 81 1 95 149 32 27 0 0 110 93 121 80 7 CCCCCDI12 legal_owners0 17
 1 lCZ1 32 122 123 9000 0 0 0 0 3 6 0 0 0 FFTFTFTTFFFFFFFFF1 82 255 3 121 124 72
 1 79 255 9 123 BTI/DetId17 56 0 119 76 39 51 107 105 0 85 -17 78 0 77 64 68 51
 76 108 0 0 -14 255 120 12 124 ?71 84 119 6 125 -0 0 71 84 24 81 1 124 167 126 1
20 127 0 128 129 130 14 71 20 129 ?118 120 45 6 20 -0 0 118 120 24 14 84 9 128 ?
120 17 77 6 131 -0 0 120 17 24 50 125 73 0 120 0 132 0 +1.4732 0 3.2813586746987
95 1 0 0 0 -1 0 13 24 3 0 0 0 0 0 0 10 17 14 17 6 133 ?84 0 86 6 132 +0 0 84 0 2
4 81 1 133 165 126 17 134 0 0 128 135 50 132 86 0 17 125 136 0 +1.6637 0 2.40919
 1 0 0 0 -1 0 50 136 87 0 118 132 131 0 +1.663702 0 3.6576 0 0 -1 1 0 0 14 118 2
3 137 ?19 71 112 6 136 +0 0 19 71 24 50 131 88 0 84 136 20 0 +1.663702 -2.232025
 3.825875 0 1 0 0 0 1 50 20 89 0 71 131 7 0 +1.663702 0 3.99415 0 0 -1 1 0 0 81
 1 137 169 126 118 138 0 129 139 140 14 19 26 139 ?0 118 36 6 7 +0 0 0 118 24 81
 1 139 170 126 19 141 0 137 0 142 80 1 126 0 143 8001 0 0 0 0 3 5 0 0 0 FFFFTFTF
FFFFFFFFF2 81 1 141 160 32 19 0 139 144 145 146 83 255 3 142 .980392156862745 .7
13725490196078 .00392156862745098 81 1 144 159 32 84 0 128 147 141 148 81 1 145
 161 32 1 0 149 141 0 150 82 3 146 124 49 2 81 1 149 162 151 1 145 14 0 0 152 82
 3 150 124 11 3 80 1 151 153 154 8038 0 0 0 0 0 0 0 0 0 TTTTTTTTTTTTTFTFT10 81 1
 14 163 153 1 149 2 0 0 155 98 255 26 152 80 97 114 116 32 50 48 49 32 50 46 53
 120 55 46 53 120 49 51 46 50 53 32 98 111 116 80 1 153 156 157 8017 0 0 0 0 0 0
 0 0 0 TTTTTTTTTTTTTFTFT3 84 255 26 155 Part 201 2.5x7.5x13.25 bot79 13 157 SDL/
TYSA_NAME79 14 154 SDL/TYSA_UNAME81 1 128 166 126 84 144 0 133 124 158 81 1 147
 158 32 71 0 129 134 144 159 82 3 148 124 48 2 81 1 129 168 126 71 147 0 124 137
 160 81 1 134 157 32 17 0 133 127 147 161 82 3 159 124 36 2 81 1 127 156 32 120
 0 124 138 134 162 82 3 161 124 35 2 81 1 138 155 32 118 0 137 116 127 163 82 3
 162 124 34 2 81 1 116 154 32 92 0 0 25 138 164 82 3 163 124 33 2 81 1 25 153 32
 11 0 0 89 116 165 82 3 164 124 99 1 81 1 89 152 32 83 0 0 96 25 166 82 3 165 12
4 98 1 81 1 96 151 32 108 0 0 93 89 167 82 3 166 124 97 1 82 3 167 124 96 1 83 3
 160 .980392156862745 .713725490196078 .00392156862745098 83 3 158 .980392156862
745 .713725490196078 .00392156862745098 79 15 143 SDL/TYSA_COLOUR83 3 140 .98039
2156862745 .713725490196078 .00392156862745098 83 3 135 .980392156862745 .713725
490196078 .00392156862745098 83 3 130 .980392156862745 .713725490196078 .0039215
6862745098 82 3 117 124 71 1 82 3 111 124 70 1 81 1 79 144 32 69 0 0 100 102 168
 82 3 106 124 3 1 81 1 100 143 32 80 0 0 43 79 169 82 3 168 124 2 1 81 1 43 142
 32 59 0 0 40 100 170 82 3 169 124 1 1 82 3 170 124 9 0 82 3 104 124 4 1 82 3 97
 124 73 1 81 1 50 137 32 42 0 0 63 33 171 82 3 67 124 5 0 81 1 63 136 32 61 0 0
 55 50 172 82 3 171 124 4 0 81 1 55 135 32 51 0 0 0 63 173 82 3 172 124 3 0 82 3
 173 124 2 0 81 1 34 140 32 57 0 0 29 40 174 82 3 174 124 7 0 82 3 44 124 8 0 82
 3 35 124 6 0 19 18 4 0 1 0 10 6 0 S0 74 4 CI16 index_map_offset0 0 1 dCCZ20 16
 5 0 0 145 149 14 2 139 0 0 0 0 0 0 0 0 0 0 0 0 0 0 0 80 1 13 126 175 8040 0 0 0
 0 3 5 0 0 0 TTTFFFFFFFFFFFFFF2 83 3 15 .980392156862745 .713725490196078 .00392
156862745098 79 17 175 SDL/TYSA_COLOUR_21 0 
