**ABCDEFGHIJKLMNOPQRSTUVWXYZabcdefghijklmnopqrstuvwxyz**************************
**PARASOLID !"#$%&'()*+,-./:;<=>?@[\]^_`{|}~0123456789**************************
**PART1;
MC=unknown;
MC_MODEL=unknown;
MC_ID=unknown;
OS=unknown;
OS_RELEASE=unknown;
FRU=Parasolid 36.0.180;
APPL=Onshape;
SITE=unknown;
USER=unknown;
FORMAT=text;
GUISE=transmit;
KEY=BTGapi::writeModels_.xmt;
FILE=BTGapi::writeModels_.xmt;
DATE=2024-05-15T00:06:35 (UTC);
**PART2;
SCH=SCH_3600180_36001;
USFLD_SIZE=0;
**PART3;
**END_OF_HEADER*****************************************************************
T51 : TRANSMIT FILE created by modeller version 360018023 SCH_3600180_36001_1300
6231 0 12 36 CCCI7 lattice222 0 CCCI4 mesh1006 0 I8 polyline1008 0 CCCCCCCDI5 ow
ner1040 0 CCCI16 boundary_lattice222 0 CCCI13 boundary_mesh1006 0 I17 boundary_p
olyline1008 0 CCCA16 index_map_offset0 0 1 dA9 index_map82 0 A17 node_id_index_m
ap82 0 A20 schema_embedding_map82 0 A5 child12 0 A14 lowest_node_id0 0 1 dA16 me
sh_offset_data206 0 Z1 2800 2 3 0 0 0 0 0 0 0 1e3 1e-8 0 4 5 1 0 1 2 6 0 7 8 9 0
 0 10 11 12 0 0 0 0 0 0 0 81 255 1 2 2793 13 1 14 0 0 0 15 70 11 CI9 list_type0
 0 1 uI10 notransmit0 0 1 lCCCDCCDI12 finger_index0 0 1 dI12 finger_block1012 0
 CZ3 0 4 T1 0 0 5 20 1 16 16 13 255 6 2299 0 1 0 17 0 0 18 0 50 255 7 2294 0 19
 20 0 0 +1.6637 -2.593975 4.81838 1 0 0 0 0 1 30 255 8 2412 0 11 21 0 0 +1.4732
 -2.609039494969425 4.77096733478004 0 -.824331600923872 -.566107244007958 29 25
5 9 2408 0 12 22 0 1.4732 -2.7284422039712 4.68896788401978 19 9 CCCCCCI5 frame2
30 0 CA5 owner12 0 Z10 861 0 1 18 0 23 0 V0 16 255 11 2410 24 ?25 0 26 8 0 0 1 1
8 255 12 2406 27 28 0 29 9 ?1 81 1 27 2708 30 12 0 0 31 32 33 17 255 28 0 34 35
 36 12 37 38 0 25 +18 29 2254 39 40 12 41 22 ?1 81 1 39 2367 30 29 0 0 42 43 44
 17 40 0 45 46 47 29 48 49 0 50 +18 41 2258 42 51 29 52 53 ?1 29 22 2275 0 29 53
 9 1.4732 -2.7305 0 29 53 2276 0 41 54 22 1.4732 -2.54 0 29 54 2277 0 52 55 53 1
.6637 -2.54 0 18 52 2262 56 57 41 58 54 ?1 29 55 2278 0 58 59 54 1.6637 -2.7305
 0 18 58 2266 60 61 52 62 55 ?1 29 59 2651 0 62 63 55 1.4732 -2.54 4.81838 18 62
 2553 64 65 58 66 59 ?1 29 63 2652 0 66 67 59 1.6637 -2.54 4.81838 18 66 2552 32
 68 62 69 63 ?1 29 67 2653 0 69 70 63 1.4732 -2.7305 4.6919643238512 18 69 2548
 71 35 66 72 67 ?1 29 70 2654 0 72 73 67 1.6637 -2.7305 4.6919643238512 18 72 25
66 74 75 69 76 70 ?1 29 73 2656 0 76 0 70 1.6637 -2.7284422039712 4.688967884019
78 18 76 2558 31 36 72 0 73 ?1 81 1 31 2707 30 76 0 0 71 27 77 17 36 0 34 28 75
 76 78 79 0 37 -15 255 34 2602 0 28 80 0 17 75 0 34 36 35 72 47 81 0 78 -17 78 0
 82 61 83 72 36 79 0 84 +16 79 2497 85 ?78 86 38 87 0 0 1 17 37 0 88 68 25 76 28
 38 0 83 -15 88 2594 0 65 89 0 17 68 0 88 65 37 66 83 86 0 90 -17 25 0 88 37 65
 12 91 11 0 92 +16 38 2485 93 ?28 79 81 94 0 0 1 17 83 0 82 78 95 76 68 86 0 0 +
15 82 2289 0 95 19 0 17 95 0 82 83 96 66 97 98 0 0 -16 86 2488 99 ?83 100 79 101
 0 0 1 81 1 99 2712 30 86 0 0 102 85 103 16 100 2240 104 ?96 105 86 106 0 0 1 30
 101 2635 0 86 87 107 0 +1.6637 -2.576677231702505 4.79319202160189 0 -.82433160
0923872 -.566107244007958 30 87 2636 0 79 94 101 0 +1.6637 -2.745739972268695 4.
71415586241789 0 -.566107244007923 .824331600923897 30 107 242 0 108 101 106 0 +
1.651 -2.54 4.81838 -1 0 0 16 108 240 109 ?65 98 110 107 0 0 1 30 106 2274 0 100
 107 111 0 +1.6637 -2.593975 0 0 1 0 30 111 2273 0 105 106 112 0 +1.651 -2.7305
 0 1 0 0 16 105 2226 113 ?46 114 100 111 0 0 1 30 112 2272 0 114 111 115 0 +1.65
1 -2.54 0 -1 0 0 16 114 2212 116 ?51 110 105 112 0 0 1 30 115 2271 0 110 112 117
 0 +1.4732 -2.6416 0 0 1 0 16 110 2198 118 ?119 108 114 115 0 0 1 30 117 2295 0
 49 115 120 0 +1.4732 -2.7305 4.81838 0 0 -1 16 49 2279 121 ?40 122 123 117 0 0
 1 30 120 2296 0 123 117 124 0 +1.4732 -2.54 4.81838 0 0 -1 16 123 2280 125 ?126
 49 98 120 0 0 1 30 124 2297 0 98 120 127 0 +1.6637 -2.54 4.81838 0 0 -1 16 98 2
281 43 ?97 123 108 124 0 0 1 30 127 2298 0 122 124 21 0 +1.6637 -2.7305 4.81838
 0 0 -1 16 122 2282 128 ?61 26 49 127 0 0 1 30 21 2409 0 26 127 8 0 +1.4732 -2.7
6100270900178 4.73638054923975 0 -.566107244007923 .824331600923897 16 26 2407 1
29 ?35 11 122 21 0 0 1 81 1 129 2715 30 26 0 0 24 109 130 17 35 0 34 75 28 69 92
 26 0 47 +17 92 0 131 91 48 12 35 26 0 0 -17 47 0 45 40 84 69 75 81 0 48 +15 45
 2287 0 84 17 0 17 84 0 45 47 46 72 61 122 0 0 -16 81 2494 102 ?47 38 0 132 0 0
 1 17 48 0 131 92 50 69 40 49 0 0 -15 131 2411 0 91 133 0 17 50 0 131 48 126 29
 119 110 0 134 -17 126 0 131 50 91 41 135 123 0 119 +17 119 0 136 57 134 41 50 1
10 0 0 +17 134 0 136 119 137 29 46 105 0 0 -15 136 2197 0 137 138 0 17 137 0 136
 134 57 58 96 100 0 0 -17 46 0 45 84 40 58 134 105 0 137 +17 57 0 136 137 119 52
 51 114 0 97 -17 96 0 82 95 61 52 137 100 0 0 +17 61 0 82 96 78 58 84 122 0 46 +
17 51 0 139 135 97 41 57 114 0 126 +17 97 0 139 51 90 52 95 98 0 96 +15 139 2285
 0 51 140 0 17 90 0 139 97 135 66 65 108 0 95 -17 135 0 139 90 51 62 126 123 0 0
 -17 65 0 88 25 68 62 90 108 0 91 +17 91 0 131 126 92 62 25 11 0 135 -14 255 140
 2286 141 ?138 133 139 6 142 +0 0 138 133 23 81 1 141 2797 143 140 144 0 145 146
 147 14 138 2133 146 ?89 140 136 6 148 -0 0 89 140 23 14 133 2284 145 ?140 19 13
1 6 149 -0 0 140 19 23 50 142 2292 0 140 149 20 0 +1.651 -2.54 4.81838 0 1 0 0 0
 1 13 23 862 0 0 0 0 0 0 10 17 14 17 2288 150 ?19 0 45 6 20 +0 0 19 0 23 81 1 15
0 2794 143 17 151 0 0 152 153 14 19 2290 152 ?133 17 82 6 7 +0 0 133 17 23 50 20
 2293 0 17 142 7 0 +1.651 -2.7305 4.81838 0 -1 0 0 0 -1 81 1 152 2795 143 19 154
 0 150 145 155 80 7 CCCCCDI12 legal_owners0 17 1 lCZ1 143 0 156 8001 0 0 0 0 3 5
 0 0 0 FFFFTFTFFFFFFFFFF2 81 1 154 2723 30 19 0 152 151 157 158 81 1 145 2796 14
3 133 157 0 152 141 159 83 255 3 155 .596078431372549 .176470588235294 .05098039
21568627 81 1 157 2724 30 133 0 145 154 0 160 83 3 159 .596078431372549 .1764705
88235294 .0509803921568627 80 1 30 161 162 9000 0 0 0 0 3 6 0 0 0 FFTFTFTTFFFFFF
FFF1 82 255 3 160 65 4 2 79 255 9 162 BTI/DetId81 1 151 2722 30 17 0 150 163 154
 164 82 3 158 65 3 2 81 1 163 2721 30 80 0 165 166 151 167 82 3 164 65 2 2 14 80
 2607 165 ?0 89 34 6 168 +0 0 0 89 23 81 1 165 2800 143 80 163 0 169 0 170 81 1
 166 2720 30 89 0 169 121 163 171 82 3 167 65 1 2 14 89 2603 169 ?80 138 88 6 17
2 +0 0 80 138 23 81 1 169 2799 143 89 166 0 146 165 173 81 1 121 2719 30 49 0 0
 128 166 174 82 3 171 65 0 2 81 1 128 2718 30 122 0 0 93 121 175 82 3 174 65 8 1
 81 1 93 2717 30 38 0 0 109 128 176 82 3 175 65 7 1 81 1 109 2716 30 108 0 0 129
 93 177 82 3 176 65 6 1 82 3 177 65 5 1 81 1 146 2798 143 138 178 0 141 169 179
 83 3 173 .596078431372549 .176470588235294 .0509803921568627 81 1 178 2382 30 1
38 0 146 118 144 180 83 3 179 .596078431372549 .176470588235294 .050980392156862
7 81 1 118 2379 30 110 0 0 116 178 181 81 1 144 2385 30 140 0 141 178 182 183 82
 3 180 8 1 2 81 1 182 2387 30 1 0 184 144 74 185 82 3 183 8 4 2 81 1 184 2791 18
6 1 182 14 0 0 187 81 1 74 2705 30 72 0 0 182 71 188 82 3 185 8 0 3 81 1 71 2706
 30 69 0 0 74 31 189 82 3 188 65 0 0 82 3 189 65 1 0 80 1 186 190 191 8038 0 0 0
 0 0 0 0 0 0 TTTTTTTTTTTTTFTFT10 81 1 14 2792 190 1 184 2 0 0 192 98 255 6 187 1
05 98 101 97 109 50 80 1 190 193 194 8017 0 0 0 0 0 0 0 0 0 TTTTTTTTTTTTTFTFT3 8
4 255 6 192 ibeam279 13 194 SDL/TYSA_NAME79 14 191 SDL/TYSA_UNAME81 1 116 2377 3
0 114 0 0 104 118 195 82 3 181 8 10 1 81 1 104 2375 30 100 0 0 113 116 196 82 3
 195 8 8 1 81 1 113 2373 30 105 0 0 125 104 197 82 3 196 8 6 1 81 1 125 2371 30
 123 0 0 43 113 198 82 3 197 8 4 1 81 1 43 2370 30 98 0 0 39 125 199 82 3 198 8
 2 1 82 3 199 8 1 1 50 172 2629 0 89 168 148 0 +2.12852 -2.6342211019856 4.75367
394200989 0 -.566107244007958 .824331600923872 0 -.824331600923872 -.56610724400
7958 50 168 2630 0 80 0 172 0 +2.12852 -2.7294711019856 4.69046610393549 0 .8243
31600923897 .566107244007923 0 -.566107244007923 .824331600923897 50 148 2270 0
 138 172 149 0 +1.4732 -2.565913819923475 0 0 0 1 -1 0 0 50 149 2291 0 133 148 1
42 0 +1.4732 -2.6416 4.81838 1 0 0 0 0 1 83 3 170 .596078431372549 .176470588235
294 .0509803921568627 79 15 156 SDL/TYSA_COLOUR83 3 153 .596078431372549 .176470
588235294 .0509803921568627 83 3 147 .596078431372549 .176470588235294 .05098039
21568627 81 1 102 2711 30 81 0 0 64 99 200 30 132 2638 0 81 0 94 0 +2.12852 -2.7
305 4.6919643238512 -1 0 0 30 94 2637 0 38 132 87 0 +2.12852 -2.7284422039712 4.
68896788401978 -1 0 0 81 1 64 2710 30 62 0 0 32 102 201 82 3 200 65 0 1 81 1 32
 2709 30 66 0 0 27 64 202 82 3 201 65 5 0 82 3 202 65 4 0 81 1 24 2714 30 11 0 0
 85 129 203 82 3 130 65 4 1 81 1 85 2713 30 79 0 0 99 24 204 82 3 203 65 3 1 82
 3 204 65 2 1 82 3 103 65 1 1 82 3 77 65 2 0 81 1 60 2361 30 58 0 0 0 56 205 81
 1 56 2363 30 52 0 0 60 42 206 82 3 205 8 0 0 81 1 42 2365 30 41 0 0 56 39 207 8
2 3 206 8 2 0 82 3 207 8 4 0 82 3 44 8 6 0 82 3 33 65 3 0 19 18 2300 0 1 0 10 6
 0 S0 74 4 CI16 index_map_offset0 0 1 dCCZ20 16 5 0 0 157 184 14 2 165 0 0 0 0 0
 0 0 0 0 0 0 0 0 0 0 80 1 13 143 208 8040 0 0 0 0 3 5 0 0 0 TTTFFFFFFFFFFFFFF2 8
3 3 15 .596078431372549 .176470588235294 .0509803921568627 79 17 208 SDL/TYSA_CO
LOUR_21 0 
