**ABCDEFGHIJKLMNOPQRSTUVWXYZabcdefghijklmnopqrstuvwxyz**************************
**PARASOLID !"#$%&'()*+,-./:;<=>?@[\]^_`{|}~0123456789**************************
**PART1;
MC=unknown;
MC_MODEL=unknown;
MC_ID=unknown;
OS=unknown;
OS_RELEASE=unknown;
FRU=Parasolid 36.0.180;
APPL=Onshape;
SITE=unknown;
USER=unknown;
FORMAT=text;
GUISE=transmit;
KEY=BTGapi::writeModels_.xmt;
FILE=BTGapi::writeModels_.xmt;
DATE=2024-05-15T00:06:35 (UTC);
**PART2;
SCH=SCH_3600180_36001;
USFLD_SIZE=0;
**PART3;
**END_OF_HEADER*****************************************************************
T51 : TRANSMIT FILE created by modeller version 360018023 SCH_3600180_36001_1300
6231 0 12 36 CCCI7 lattice222 0 CCCI4 mesh1006 0 I8 polyline1008 0 CCCCCCCDI5 ow
ner1040 0 CCCI16 boundary_lattice222 0 CCCI13 boundary_mesh1006 0 I17 boundary_p
olyline1008 0 CCCA16 index_map_offset0 0 1 dA9 index_map82 0 A17 node_id_index_m
ap82 0 A20 schema_embedding_map82 0 A5 child12 0 A14 lowest_node_id0 0 1 dA16 me
sh_offset_data206 0 Z1 346 2 3 0 0 0 0 0 0 0 1e3 1e-8 0 4 5 1 0 1 2 6 0 7 8 9 0
 0 10 11 12 0 0 0 0 0 0 0 81 255 1 2 338 13 1 14 0 0 0 15 70 11 CI9 list_type0 0
 1 uI10 notransmit0 0 1 lCCCDCCDI12 finger_index0 0 1 dI12 finger_block1012 0 CZ
3 0 4 T1 0 0 5 20 1 16 16 13 255 6 3 0 1 0 17 0 0 18 0 50 255 7 228 0 17 19 0 0
 +.09525 -2.54 4.174193118566045 1 0 0 0 0 -1 30 255 8 234 0 11 20 0 0 +.09525 -
2.54 4.07894311856604 0 -1 0 29 255 9 199 0 21 22 0 1.4732 -2.7305 2.70099311856
604 19 9 CCCCCCI5 frame230 0 CA5 owner12 0 Z10 1 0 1 18 0 23 0 V0 16 255 11 210
 24 ?25 0 26 8 0 0 1 18 255 12 48 27 28 0 29 30 ?1 81 1 27 260 31 12 0 0 32 33 3
4 17 255 28 0 35 36 37 12 38 26 0 39 -18 29 51 40 41 12 42 43 ?1 29 30 85 0 12 4
3 44 1.4732 -2.54 2.70099311856604 29 43 84 0 29 45 30 1.4732 -2.54 2.9704008021
9812 29 44 204 0 46 30 47 .09525 -2.7305 4.07894311856604 18 46 188 48 25 49 0 4
4 ?1 29 47 203 0 49 44 50 .09525 -2.7305 4.269443118566045 18 49 184 51 52 53 46
 47 ?1 29 50 202 0 53 47 54 .1057068814339582 -2.7305 4.2799 18 53 180 33 55 56
 49 50 ?1 29 54 201 0 56 50 22 .163700802198116 -2.7305 4.2799 18 56 176 57 58 5
9 53 54 ?1 29 22 200 0 59 54 9 1.4732 -2.7305 2.97040080219812 18 59 172 60 61 2
1 56 22 ?1 81 1 60 265 31 59 0 0 62 40 63 17 61 0 35 37 36 59 41 64 0 65 +18 21
 168 32 38 66 59 9 ?1 81 1 32 259 31 21 0 0 0 27 67 17 38 0 68 69 39 21 28 26 0
 37 +18 66 66 70 71 72 21 73 ?1 81 1 70 268 31 66 0 0 48 51 74 17 71 0 68 39 69
 66 25 11 0 75 -18 72 63 76 77 78 66 79 ?1 29 73 79 0 66 0 79 .09525 -2.54 4.078
94311856604 29 79 80 0 72 73 80 .09525 -2.54 4.269443118566045 29 80 81 0 78 79
 45 .1057068814339582 -2.54 4.2799 18 78 60 81 82 42 72 80 ?1 29 45 82 0 42 80 4
3 .163700802198116 -2.54 4.2799 18 42 57 62 83 29 78 45 ?1 81 1 62 264 31 42 0 0
 57 60 84 17 83 0 85 86 87 42 58 88 0 89 -15 255 85 217 0 87 90 0 17 86 0 85 55
 83 78 91 92 0 93 +17 87 0 85 83 55 56 94 95 0 96 -17 58 0 97 65 89 56 83 88 0 8
7 +16 88 207 98 ?58 64 99 100 0 0 1 17 89 0 97 58 41 42 101 102 0 91 -15 97 215
 0 65 103 0 17 41 0 97 89 65 29 61 64 0 36 -17 101 0 104 105 91 29 89 102 0 0 +1
6 102 24 106 ?101 107 92 108 0 0 1 17 91 0 104 101 93 42 86 92 0 0 -15 104 7 0 1
09 110 0 17 93 0 104 91 109 78 111 112 0 0 +16 92 33 113 ?86 102 112 114 0 0 1 8
1 1 113 278 31 92 0 0 115 116 117 16 112 36 118 ?93 92 119 120 0 0 1 30 114 71 0
 92 120 108 0 +.1347038418160374 -2.54 4.2799 -1 0 0 30 120 70 0 112 121 114 0 +
.10047844071698 -2.54 4.27467155928302 .707106781186555 0 .70710678118654 30 108
 74 0 102 114 122 0 +.961325401099059 -2.54 3.48227540109906 .707106781186548 0
 -.707106781186547 30 122 75 0 107 108 123 0 +1.4732 -2.54 4.81838 0 0 -1 16 107
 21 124 ?105 125 102 122 0 0 1 30 123 77 0 125 122 126 0 +.507140826477355 -2.54
 3.66705229208869 -.707106781186548 0 .707106781186548 16 125 15 127 ?75 128 107
 123 0 0 1 30 126 198 0 129 123 130 0 +.09525 -2.7305 4.174193118566045 0 0 1 16
 129 164 131 ?132 133 0 126 0 0 1 30 130 197 0 133 126 134 0 +.10047844071698 -2
.7305 4.27467155928302 .707106781186555 0 .70710678118654 16 133 160 135 ?136 95
 129 130 0 0 1 30 134 196 0 95 130 137 0 +.1347038418160374 -2.7305 4.2799 -1 0
 0 16 95 156 115 ?94 138 133 134 0 0 1 30 137 195 0 138 134 139 0 +.961325401099
059 -2.7305 3.48227540109906 .707106781186548 0 -.707106781186547 16 138 150 140
 ?65 141 95 137 0 0 1 30 139 194 0 141 137 142 0 +1.4732 -2.7305 4.81838 0 0 -1
 16 141 146 116 ?37 143 138 139 0 0 1 30 142 193 0 143 139 144 0 +.5071408264773
55 -2.7305 3.66705229208869 -.707106781186548 0 .707106781186548 16 143 138 145
 ?69 119 141 142 0 0 1 30 144 229 0 26 142 146 0 +1.4732 -2.54 2.70099311856604
 0 -1 0 16 26 205 147 ?38 11 64 144 0 0 1 30 146 230 0 64 144 100 0 +1.4732 -2.5
4 2.97040080219812 0 -1 0 16 64 206 148 ?61 26 88 146 0 0 1 30 100 231 0 88 146
 149 0 +.163700802198116 -2.54 4.2799 0 -1 0 30 149 232 0 99 100 20 0 +.10570688
14339582 -2.54 4.2799 0 -1 0 16 99 208 150 ?55 88 128 149 0 0 1 30 20 233 0 128
 149 8 0 +.09525 -2.54 4.269443118566045 0 -1 0 16 128 209 151 ?52 99 125 20 0 0
 1 81 1 151 276 31 128 0 0 24 115 152 17 52 0 153 136 111 49 77 128 0 154 +15 15
3 219 0 136 155 0 17 136 0 153 82 52 53 154 133 0 94 +17 111 0 153 52 82 72 93 1
12 0 109 -17 77 0 156 157 132 72 52 128 0 111 -17 154 0 158 159 94 49 136 133 0
 132 -15 158 137 0 159 160 0 17 159 0 158 161 154 46 132 129 0 0 -17 94 0 158 15
4 96 53 87 95 0 0 +17 132 0 156 77 25 49 159 129 0 0 +15 156 221 0 132 17 0 17 2
5 0 156 132 157 46 71 11 0 69 +17 157 0 156 25 77 66 109 119 0 0 -17 69 0 68 71
 38 46 161 143 0 159 +15 68 211 0 69 162 0 17 161 0 158 163 159 21 69 143 0 0 -1
7 163 0 158 96 161 59 37 141 0 0 -17 96 0 158 94 163 56 65 138 0 0 -17 37 0 35 2
8 61 21 163 141 0 161 +15 35 213 0 37 164 0 14 255 164 214 165 ?103 162 35 6 166
 -0 0 103 162 23 81 1 165 341 167 164 168 0 169 170 171 14 103 216 170 ?90 164 9
7 6 172 -0 0 90 164 23 14 162 212 169 ?164 17 68 6 173 -0 0 164 17 23 50 166 224
 0 164 173 172 0 +1.4732 -2.54 4.81838 -1 0 0 0 0 1 13 23 235 0 0 0 0 0 0 10 17
 14 17 222 174 ?162 0 156 6 7 -0 0 162 0 23 81 1 174 339 167 17 175 0 0 169 176
 80 7 CCCCCDI12 legal_owners0 17 1 lCZ1 167 0 177 8001 0 0 0 0 3 5 0 0 0 FFFFTFT
FFFFFFFFFF2 81 1 175 296 31 17 0 174 178 179 180 81 1 169 340 167 162 181 0 174
 165 182 83 255 3 176 .615686274509804 .811764705882353 .929411764705882 81 1 18
1 293 31 162 0 169 168 183 184 83 3 182 .615686274509804 .811764705882353 .92941
1764705882 80 1 31 185 186 9000 0 0 0 0 3 6 0 0 0 FFTFTFTTFFFFFFFFF1 81 1 168 29
2 31 164 0 165 187 181 188 81 1 183 294 31 103 0 170 181 178 189 82 255 3 184 19
0 7 2 81 1 170 342 167 103 183 0 165 190 191 81 1 178 295 31 155 0 192 183 175 1
93 82 3 189 190 9 2 14 155 220 192 ?110 90 153 6 19 -0 0 110 90 23 81 1 192 344
 167 155 178 0 190 194 195 82 3 193 190 11 2 81 1 190 343 167 90 196 0 170 192 1
97 81 1 194 345 167 110 187 0 192 198 199 83 3 195 .615686274509804 .81176470588
2353 .929411764705882 14 110 4 194 ?160 155 104 6 200 -0 0 160 155 23 81 1 187 2
91 31 110 0 194 201 168 202 81 1 198 346 167 160 201 0 194 0 203 83 3 199 .61568
6274509804 .811764705882353 .929411764705882 14 160 124 198 ?0 110 158 6 204 +0
 0 0 110 23 81 1 201 290 31 160 0 198 196 187 205 83 3 203 .615686274509804 .811
764705882353 .929411764705882 81 1 196 289 31 90 0 190 206 201 207 82 3 205 190
 1 2 14 90 218 190 ?155 103 85 6 208 +0 0 155 103 23 81 1 206 288 31 119 0 0 131
 196 209 82 3 207 190 0 2 16 119 39 206 ?109 112 143 121 0 0 1 81 1 131 287 31 1
29 0 0 118 206 210 82 3 209 190 35 1 81 1 118 286 31 112 0 0 135 131 211 82 3 21
0 190 34 1 81 1 135 285 31 133 0 0 106 118 212 82 3 211 190 27 1 81 1 106 284 31
 102 0 0 140 135 213 82 3 212 190 26 1 81 1 140 283 31 138 0 0 127 106 214 82 3
 213 190 23 1 81 1 127 282 31 125 0 0 145 140 215 82 3 214 190 22 1 81 1 145 281
 31 143 0 0 124 127 216 82 3 215 190 19 1 81 1 124 280 31 107 0 0 116 145 217 82
 3 216 190 18 1 81 1 116 279 31 141 0 0 113 124 218 82 3 217 190 17 1 82 3 218 1
90 16 1 17 109 0 104 93 75 72 157 119 0 0 +30 121 69 0 119 0 120 0 +.09525 -2.54
 4.174193118566045 0 0 1 17 75 0 104 109 105 66 39 125 0 157 +17 105 0 104 75 10
1 12 36 107 0 0 +17 39 0 68 38 71 12 75 125 0 105 -17 36 0 35 61 28 29 105 107 0
 101 -50 208 226 0 90 172 19 0 +.1347038418160374 -2.54 4.2799 0 0 1 1 0 0 50 17
2 225 0 103 166 208 0 +.961325401099059 -2.54 3.48227540109906 -.707106781186547
 0 -.707106781186548 -.707106781186548 0 .707106781186547 50 19 227 0 155 208 7
 0 +.10047844071698 -2.54 4.27467155928302 .70710678118654 0 -.707106781186555 -
.707106781186555 0 -.70710678118654 50 204 192 0 160 200 173 0 +-444089209850062
5e-31 -2.7305 2.345982161925595 0 -1 0 1 0 0 50 200 88 0 110 0 204 0 +-444089209
8500625e-31 -2.54 2.345982161925595 0 -1 0 1 0 0 50 173 223 0 162 204 166 0 +.50
7140826477355 -2.54 3.66705229208869 .707106781186547 0 .707106781186548 .707106
781186548 0 -.707106781186547 82 3 202 190 2 2 83 3 197 .615686274509804 .811764
705882353 .929411764705882 83 3 191 .615686274509804 .811764705882353 .929411764
705882 82 3 188 190 6 2 79 255 9 186 BTI/DetId81 1 179 297 31 1 0 219 175 0 220
 82 3 180 190 15 2 81 1 219 336 221 1 179 14 0 0 222 82 3 220 190 0 3 80 1 221 2
23 224 8038 0 0 0 0 0 0 0 0 0 TTTTTTTTTTTTTFTFT10 81 1 14 337 223 1 219 2 0 0 22
5 98 255 8 222 80 97 114 116 32 51 49 50 80 1 223 226 227 8017 0 0 0 0 0 0 0 0 0
 TTTTTTTTTTTTTFTFT3 84 255 8 225 Part 31279 13 227 SDL/TYSA_NAME79 14 224 SDL/TY
SA_UNAME79 15 177 SDL/TYSA_COLOUR83 3 171 .615686274509804 .811764705882353 .929
411764705882 17 65 0 97 41 58 59 96 138 0 163 +17 82 0 153 111 136 78 55 99 0 86
 -17 55 0 85 87 86 53 82 99 0 136 +81 1 24 275 31 11 0 0 148 151 228 81 1 115 27
7 31 95 0 0 151 113 229 82 3 152 190 10 1 82 3 229 190 12 1 81 1 148 274 31 64 0
 0 98 24 230 82 3 228 190 7 1 81 1 98 273 31 88 0 0 150 148 231 82 3 230 190 6 1
 81 1 150 272 31 99 0 0 147 98 232 82 3 231 190 4 1 81 1 147 271 31 26 0 0 76 15
0 233 82 3 232 190 3 1 81 1 76 270 31 72 0 0 51 147 234 82 3 233 190 0 1 81 1 51
 269 31 49 0 0 70 76 235 82 3 234 190 21 0 82 3 235 190 20 0 82 3 117 190 13 1 8
1 1 57 263 31 56 0 0 81 62 236 82 3 84 190 9 0 81 1 81 262 31 78 0 0 33 57 237 8
2 3 236 190 8 0 81 1 33 261 31 53 0 0 27 81 238 82 3 237 190 7 0 82 3 238 190 6
 0 81 1 48 267 31 46 0 0 40 70 239 82 3 74 190 15 0 81 1 40 266 31 29 0 0 60 48
 240 82 3 239 190 14 0 82 3 240 190 13 0 82 3 67 190 0 0 82 3 63 190 12 0 82 3 3
4 190 1 0 19 18 236 0 1 0 10 6 0 S0 74 4 CI16 index_map_offset0 0 1 dCCZ20 16 5
 0 0 179 219 14 2 198 0 0 0 0 0 0 0 0 0 0 0 0 0 0 0 80 1 13 167 241 8040 0 0 0 0
 3 5 0 0 0 TTTFFFFFFFFFFFFFF2 83 3 15 .615686274509804 .811764705882353 .9294117
64705882 79 17 241 SDL/TYSA_COLOUR_21 0 
