**ABCDEFGHIJKLMNOPQRSTUVWXYZabcdefghijklmnopqrstuvwxyz**************************
**PARASOLID !"#$%&'()*+,-./:;<=>?@[\]^_`{|}~0123456789**************************
**PART1;
MC=unknown;
MC_MODEL=unknown;
MC_ID=unknown;
OS=unknown;
OS_RELEASE=unknown;
FRU=Parasolid 36.0.180;
APPL=Onshape;
SITE=unknown;
USER=unknown;
FORMAT=text;
GUISE=transmit;
KEY=BTGapi::writeModels_.xmt;
FILE=BTGapi::writeModels_.xmt;
DATE=2024-05-15T00:06:35 (UTC);
**PART2;
SCH=SCH_3600180_36001;
USFLD_SIZE=0;
**PART3;
**END_OF_HEADER*****************************************************************
T51 : TRANSMIT FILE created by modeller version 360018023 SCH_3600180_36001_1300
6231 0 12 36 CCCI7 lattice222 0 CCCI4 mesh1006 0 I8 polyline1008 0 CCCCCCCDI5 ow
ner1040 0 CCCI16 boundary_lattice222 0 CCCI13 boundary_mesh1006 0 I17 boundary_p
olyline1008 0 CCCA16 index_map_offset0 0 1 dA9 index_map82 0 A17 node_id_index_m
ap82 0 A20 schema_embedding_map82 0 A5 child12 0 A14 lowest_node_id0 0 1 dA16 me
sh_offset_data206 0 Z1 673 2 3 0 0 0 0 0 0 0 1e3 1e-8 0 4 5 1 0 1 2 6 0 7 8 9 0
 0 10 11 12 0 0 0 0 0 0 0 81 255 1 2 666 13 1 14 0 0 0 15 70 11 CI9 list_type0 0
 1 uI10 notransmit0 0 1 lCCCDCCDI12 finger_index0 0 1 dI12 finger_block1012 0 CZ
3 0 4 T1 0 0 5 20 1 16 16 13 255 6 3 0 1 0 17 0 0 18 0 50 255 7 123 0 19 20 0 0
 +-1.56845 .09525 6.62813 0 1 0 0 0 1 30 255 8 208 0 11 21 0 0 +-1.4732 .0305254
734661673 6.58368062635628 0 .824331600923873 .566107244007958 29 255 9 443 0 12
 22 0 -1.6637 1665334536937735e-31 6.56271734939759 19 9 CCCCCCI5 frame230 0 CA5
 owner12 0 Z10 1 0 1 18 0 23 0 V0 16 255 11 206 24 ?25 0 26 8 0 0 1 18 255 12 43
9 27 28 0 29 9 ?1 81 1 27 650 30 12 0 0 31 32 33 17 255 28 0 34 35 36 12 37 38 0
 39 -18 29 201 40 41 12 42 22 ?1 81 1 40 407 30 29 0 0 43 44 45 17 41 0 46 25 47
 29 48 49 0 50 -18 42 83 51 52 29 53 54 ?1 29 22 205 0 29 54 9 -1.4732 -.09525 6
.49730469879518 29 54 104 0 42 55 22 -1.4732 -.09525 3.6576 29 55 105 0 53 56 54
 -1.6637 -.09525 3.6576 18 53 87 57 58 42 59 55 ?1 29 56 106 0 59 60 55 -1.6637
 .09525 3.6576 18 59 91 61 62 53 63 56 ?1 29 60 107 0 63 64 56 -1.4732 .09525 3.
6576 18 63 95 65 66 59 67 60 ?1 29 64 371 0 67 68 60 -1.6637 -.09525 6.497304698
79518 18 67 309 44 47 63 69 64 ?1 29 68 608 0 69 70 64 -1.4732 .09525 6.49730469
879518 18 69 542 71 72 67 73 68 ?1 29 70 609 0 73 74 68 -1.6637 .09525 6.4973046
9879518 18 73 543 75 36 69 76 70 ?1 29 74 611 0 76 0 70 -1.4732 -360822483003176
e-30 6.56271734939759 18 76 544 31 35 73 0 74 ?1 81 1 31 649 30 76 0 0 75 27 77
 17 35 0 34 72 28 76 39 78 0 79 -15 255 34 564 0 35 80 0 17 72 0 34 36 35 69 79
 81 0 82 +17 39 0 46 47 25 12 35 78 0 83 +16 78 490 84 ?39 85 0 86 0 0 1 17 79 0
 87 50 88 76 72 81 0 25 -15 87 466 0 79 89 0 17 50 0 87 52 79 29 25 11 0 90 -17
 88 0 87 79 91 69 66 92 0 0 -16 81 493 93 ?72 38 85 94 0 0 1 17 25 0 46 39 41 76
 50 11 0 0 +15 46 329 0 25 95 0 14 255 95 330 96 ?97 19 46 6 98 +0 0 97 19 23 81
 1 96 670 99 95 100 0 101 102 103 14 97 115 102 ?104 95 105 6 106 +0 0 104 95 23
 14 19 119 101 ?95 89 107 6 7 +0 0 95 89 23 50 98 352 0 95 108 109 0 +-1.439164
 .047625 6.5954236746988 0 -.566107244007958 .824331600923872 0 -.82433160092387
3 -.566107244007958 13 23 128 0 0 0 0 0 0 10 17 14 17 117 110 ?89 0 111 6 20 +0
 0 89 0 23 81 1 110 667 99 17 112 0 0 113 114 14 89 113 113 ?19 17 87 6 115 -0 0
 19 17 23 15 111 116 0 83 17 0 50 20 122 0 17 106 7 0 +-1.6637 0 6.62813 -1 0 0
 0 0 1 50 106 121 0 97 115 20 0 +-1.56845 -.09525 6.62813 0 -1 0 0 0 -1 50 115 1
20 0 89 109 106 0 +-1.4732 0 6.62813 -1 0 0 0 0 1 50 109 99 0 104 98 115 0 +4440
892098500625e-31 0 3.6576 0 0 -1 1 0 0 14 104 59 116 ?80 97 117 6 109 +0 0 80 97
 23 81 1 116 672 99 104 118 0 102 119 120 14 80 561 119 ?0 104 34 6 108 +0 0 0 1
04 23 15 117 66 0 121 104 0 17 121 0 117 122 123 42 91 124 0 0 -17 122 0 117 125
 121 53 126 127 0 0 +17 123 0 117 121 125 63 128 129 0 91 +17 91 0 87 88 52 63 1
21 124 0 0 +16 124 67 130 ?91 92 127 131 0 0 1 81 1 130 155 30 124 0 0 61 132 13
3 16 92 111 134 ?66 135 124 21 0 0 1 16 127 71 136 ?122 124 137 138 0 0 1 30 131
 100 0 124 138 139 0 +-1.4732 0 3.6576 0 1 0 30 138 101 0 127 140 131 0 +-1.5684
5 -.09525 3.6576 -1 0 0 30 139 124 0 26 131 141 0 +-1.4732 -.09525 6.62813 0 0 -
1 16 26 108 142 ?52 11 143 139 0 0 1 30 141 125 0 143 139 144 0 +-1.6637 -.09525
 6.62813 0 0 -1 16 143 109 145 ?58 26 135 141 0 0 1 30 144 126 0 135 141 21 0 +-
1.6637 .09525 6.62813 0 0 -1 16 135 110 146 ?62 143 92 144 0 0 1 30 21 127 0 92
 144 8 0 +-1.4732 .09525 6.62813 0 0 -1 81 1 146 656 30 135 0 0 134 24 147 17 62
 0 111 148 37 59 149 135 0 128 +17 148 0 111 150 62 53 125 137 0 122 -17 37 0 11
1 62 83 73 28 38 0 149 +17 149 0 107 82 128 73 62 135 0 0 -17 128 0 107 149 66 5
9 123 129 0 125 -15 107 118 0 149 19 0 17 66 0 107 128 82 63 88 92 0 123 +16 129
 79 151 ?123 137 49 152 0 0 1 17 125 0 117 123 122 59 148 137 0 0 +16 137 75 132
 ?125 127 129 140 0 0 1 81 1 132 157 30 137 0 0 130 151 153 30 140 102 0 137 152
 138 0 +-1.6637 0 3.6576 0 1 0 30 152 103 0 129 154 140 0 +-1.56845 .09525 3.657
6 1 0 0 30 154 357 0 49 155 152 0 +-1.439164 -.09525 6.49730469879518 -1 0 0 16
 49 273 156 ?48 129 157 154 0 0 1 30 155 362 0 157 158 154 0 +-1.6637 .047625 6.
5954236746988 0 .824331600923872 .566107244007958 16 157 268 159 ?83 49 38 155 0
 0 1 30 158 593 0 38 94 155 0 +-1.6637 -.03052547346616785 6.58368062635628 0 .8
24331600923871 -.56610724400796 16 38 501 160 ?37 157 81 158 0 0 1 30 94 594 0 8
1 161 158 0 +-1.4732 -.03052547346616785 6.58368062635628 0 .824331600923871 -.5
6610724400796 30 161 595 0 85 86 94 0 +-1.56845 .09525 6.49730469879518 1 0 0 16
 85 504 32 ?82 81 78 161 0 0 1 30 86 596 0 78 0 161 0 +2.13106 -360822483003176e
-30 6.56271734939759 -1 0 0 81 1 32 651 30 85 0 0 27 84 162 17 82 0 107 66 149 6
9 36 85 0 88 +17 36 0 34 28 72 73 82 85 0 37 -80 7 CCCCCDI12 legal_owners0 17 1
 lCZ1 30 163 164 9000 0 0 0 0 3 6 0 0 0 FFTFTFTTFFFFFFFFF1 81 1 84 652 30 78 0 0
 32 93 165 82 255 3 162 78 8 1 81 1 93 653 30 81 0 0 84 160 166 82 3 165 78 11 1
 81 1 160 654 30 38 0 0 93 134 167 82 3 166 78 12 1 81 1 134 655 30 92 0 0 160 1
46 168 82 3 167 78 13 1 82 3 168 78 25 1 79 255 9 164 BTI/DetId81 1 159 658 30 1
57 0 0 24 169 170 17 83 0 111 37 150 12 47 157 0 0 +17 150 0 111 83 148 67 58 14
3 0 0 -17 47 0 46 41 39 67 83 157 0 48 -17 48 0 105 58 90 67 41 49 0 150 +15 105
 114 0 90 97 0 17 58 0 105 126 48 53 150 143 0 148 +17 90 0 105 48 126 29 52 26
 0 0 -17 126 0 105 90 58 42 122 127 0 121 -17 52 0 87 91 50 42 90 26 0 126 +81 1
 24 657 30 11 0 0 146 159 171 81 1 169 659 30 19 0 101 159 100 172 82 3 170 78 3
1 1 81 1 101 669 99 19 169 0 113 96 173 81 1 100 660 30 95 0 96 169 174 175 82 3
 172 78 6 2 81 1 174 661 30 89 0 113 100 112 176 82 3 175 78 9 2 81 1 113 668 99
 89 174 0 110 101 177 81 1 112 662 30 17 0 110 174 178 179 82 3 176 78 10 2 81 1
 178 663 30 80 0 119 112 0 180 82 3 179 78 11 2 81 1 119 673 99 80 178 0 116 0 1
81 82 3 180 78 20 2 80 1 99 0 182 8001 0 0 0 0 3 5 0 0 0 FFFFTFTFFFFFFFFFF2 83 2
55 3 181 .768627450980392 .886274509803922 .952941176470588 79 15 182 SDL/TYSA_C
OLOUR83 3 177 .768627450980392 .886274509803922 .952941176470588 83 3 173 .76862
7450980392 .886274509803922 .952941176470588 82 3 171 78 30 1 81 1 156 413 30 49
 0 0 44 142 183 81 1 44 409 30 67 0 0 40 156 184 81 1 142 415 30 26 0 0 156 145
 185 82 3 183 67 2 1 81 1 145 416 30 143 0 0 142 186 187 82 3 185 67 4 1 81 1 18
6 420 30 97 0 102 145 71 188 82 3 187 67 5 1 81 1 102 671 99 97 186 0 96 116 189
 81 1 71 647 30 69 0 0 186 75 190 82 3 188 67 3 2 81 1 75 648 30 73 0 0 71 31 19
1 82 3 190 78 4 0 82 3 191 78 5 0 83 3 189 .768627450980392 .886274509803922 .95
2941176470588 82 3 184 67 2 0 81 1 151 159 30 129 0 0 132 136 192 82 3 153 30 10
 1 81 1 136 161 30 127 0 0 151 118 193 82 3 192 30 16 1 81 1 118 164 30 104 0 11
6 136 43 194 82 3 193 30 22 1 81 1 43 169 30 1 0 195 118 40 196 82 3 194 30 1 2
 81 1 195 664 197 1 43 14 0 0 198 82 3 196 30 0 3 80 1 197 199 200 8038 0 0 0 0
 0 0 0 0 0 TTTTTTTTTTTTTFTFT10 81 1 14 665 199 1 195 2 0 0 201 98 255 37 198 80
 97 114 116 32 50 48 32 55 46 53 120 55 46 53 120 49 49 52 46 51 55 53 32 97 110
 103 108 101 100 32 51 52 46 52 55 57 80 1 199 202 203 8017 0 0 0 0 0 0 0 0 0 TT
TTTTTTTTTTTFTFT3 84 255 37 201 Part 20 7.5x7.5x114.375 angled 34.47979 13 203 SD
L/TYSA_NAME79 14 200 SDL/TYSA_UNAME82 3 147 78 26 1 81 1 61 149 30 59 0 0 57 130
 204 82 3 133 30 8 1 81 1 57 147 30 53 0 0 65 61 205 82 3 204 30 10 0 81 1 65 14
5 30 63 0 0 51 57 206 82 3 205 30 8 0 81 1 51 143 30 42 0 0 0 65 207 82 3 206 30
 6 0 82 3 207 30 4 0 50 108 587 0 80 0 98 0 +2.13106 4.33742032019782 3.58400700
9020775 0 .56610724400796 .824331600923871 0 -.824331600923871 .56610724400796 8
3 3 120 .768627450980392 .886274509803922 .952941176470588 83 3 114 .76862745098
0392 .886274509803922 .952941176470588 83 3 103 .768627450980392 .88627450980392
2 .952941176470588 82 3 77 78 10 0 82 3 45 67 0 0 82 3 33 78 11 0 19 18 129 0 1
 0 10 6 0 S0 74 4 CI16 index_map_offset0 0 1 dCCZ20 16 5 0 0 178 195 14 2 119 0
 0 0 0 0 0 0 0 0 0 0 0 0 0 0 80 1 13 99 208 8040 0 0 0 0 3 5 0 0 0 TTTFFFFFFFFFF
FFFF2 83 3 15 .768627450980392 .886274509803922 .952941176470588 79 17 208 SDL/T
YSA_COLOUR_21 0 
