**ABCDEFGHIJKLMNOPQRSTUVWXYZabcdefghijklmnopqrstuvwxyz**************************
**PARASOLID !"#$%&'()*+,-./:;<=>?@[\]^_`{|}~0123456789**************************
**PART1;
MC=unknown;
MC_MODEL=unknown;
MC_ID=unknown;
OS=unknown;
OS_RELEASE=unknown;
FRU=Parasolid 36.0.180;
APPL=Onshape;
SITE=unknown;
USER=unknown;
FORMAT=text;
GUISE=transmit;
KEY=BTGapi::writeModels_.xmt;
FILE=BTGapi::writeModels_.xmt;
DATE=2024-05-15T00:06:35 (UTC);
**PART2;
SCH=SCH_3600180_36001;
USFLD_SIZE=0;
**PART3;
**END_OF_HEADER*****************************************************************
T51 : TRANSMIT FILE created by modeller version 360018023 SCH_3600180_36001_1300
6231 0 12 36 CCCI7 lattice222 0 CCCI4 mesh1006 0 I8 polyline1008 0 CCCCCCCDI5 ow
ner1040 0 CCCI16 boundary_lattice222 0 CCCI13 boundary_mesh1006 0 I17 boundary_p
olyline1008 0 CCCA16 index_map_offset0 0 1 dA9 index_map82 0 A17 node_id_index_m
ap82 0 A20 schema_embedding_map82 0 A5 child12 0 A14 lowest_node_id0 0 1 dA16 me
sh_offset_data206 0 Z1 2722 2 3 0 0 0 0 0 0 0 1e3 1e-8 0 4 5 1 0 1 2 6 0 7 8 9 0
 0 10 11 12 0 0 0 0 0 0 0 81 255 1 2 2715 13 1 14 0 0 0 15 70 11 CI9 list_type0
 0 1 uI10 notransmit0 0 1 lCCCDCCDI12 finger_index0 0 1 dI12 finger_block1012 0
 CZ3 0 4 T1 0 0 5 20 1 16 16 13 255 6 2299 0 1 0 17 0 0 18 0 50 255 7 2294 0 17
 19 0 0 +-1.6637 -2.593975 4.81838 -1 0 0 0 0 1 30 255 8 2439 0 11 20 0 0 +-1.47
32 -2.609039494969425 4.77096733478004 0 .824331600923872 .566107244007958 29 25
5 9 2432 0 12 21 0 -1.4732 -2.7305 4.69196432385119 19 9 CCCCCCI5 frame230 0 CA5
 owner12 0 Z10 861 0 1 18 0 22 0 V0 16 255 11 2437 23 ?24 0 25 8 0 0 1 18 255 12
 2428 26 27 0 28 9 ?1 81 1 26 2693 29 12 0 0 30 31 32 17 255 27 0 33 34 35 12 36
 37 0 38 -18 28 2254 39 40 12 41 21 ?1 81 1 39 2340 29 28 0 0 42 43 44 17 40 0 4
5 46 38 28 47 48 0 49 +18 41 2258 42 50 28 51 52 ?1 29 21 2275 0 28 52 9 -1.4732
 -2.7305 0 29 52 2276 0 41 53 21 -1.4732 -2.54 0 29 53 2277 0 51 54 52 -1.6637 -
2.54 0 18 51 2262 55 56 41 57 53 ?1 29 54 2278 0 57 58 53 -1.6637 -2.7305 0 18 5
7 2266 59 60 51 61 54 ?1 29 58 2639 0 61 62 54 -1.4732 -2.54 4.81838 18 61 2561
 63 24 57 64 58 ?1 29 62 2641 0 64 65 58 -1.4732 -2.7284422039712 4.688967884019
78 18 64 2564 31 34 61 66 62 ?1 29 65 2642 0 66 67 62 -1.6637 -2.54 4.81838 18 6
6 2562 68 69 64 70 65 ?1 29 67 2644 0 70 71 65 -1.6637 -2.7305 4.6919643238512 1
8 70 2567 72 35 66 73 67 ?1 29 71 2645 0 73 0 67 -1.6637 -2.7284422039712 4.6889
6788401978 18 73 2565 74 75 70 0 71 ?1 81 1 74 2697 29 73 0 0 72 63 76 17 75 0 3
3 35 34 73 77 78 0 79 +15 255 33 2593 0 34 80 0 17 35 0 33 27 75 70 81 82 0 36 -
17 34 0 33 75 27 64 38 25 0 77 +17 77 0 83 24 79 64 75 78 0 84 -16 78 2520 85 ?7
5 86 37 87 0 0 1 17 79 0 83 77 69 73 88 89 0 81 -15 83 2589 0 24 90 0 17 69 0 83
 79 24 66 91 92 0 88 -17 88 0 93 56 81 66 79 89 0 94 +16 89 2505 95 ?88 82 0 96
 0 0 1 17 81 0 93 88 97 73 35 82 0 0 +15 93 2289 0 81 17 0 17 97 0 93 81 98 70 6
0 99 0 0 -16 82 2515 100 ?81 37 89 101 0 0 1 81 1 100 2701 29 82 0 0 95 23 102 1
6 37 2526 103 ?36 78 82 104 0 0 1 30 101 2632 0 82 96 104 0 +-1.6637 -2.72947110
19856 4.69046610393549 0 .566107244007923 -.824331600923897 30 96 2633 0 89 0 10
1 0 +-1.6637 -2.6342211019856 4.75367394200989 0 .824331600923872 .5661072440079
58 30 104 2627 0 37 101 87 0 +-1.45288 -2.7305 4.6919643238512 -1 0 0 30 87 2626
 0 78 104 105 0 +-1.45288 -2.7284422039712 4.68896788401978 -1 0 0 30 105 242 0
 92 87 106 0 +-1.651 -2.54 4.81838 1 0 0 16 92 240 107 ?91 108 109 105 0 0 1 30
 106 2274 0 86 105 110 0 +-1.6637 -2.593975 0 0 1 0 16 86 2240 111 ?112 113 78 1
06 0 0 1 30 110 2273 0 113 106 114 0 +-1.651 -2.7305 0 -1 0 0 16 113 2226 115 ?1
16 117 86 110 0 0 1 30 114 2272 0 117 110 118 0 +-1.651 -2.54 0 1 0 0 16 117 221
2 119 ?120 109 113 114 0 0 1 30 118 2271 0 109 114 121 0 +-1.4732 -2.6416 0 0 1
 0 16 109 2198 122 ?46 92 117 118 0 0 1 30 121 2295 0 48 118 123 0 +-1.4732 -2.7
305 4.81838 0 0 -1 16 48 2279 124 ?40 99 125 121 0 0 1 30 123 2296 0 125 121 126
 0 +-1.4732 -2.54 4.81838 0 0 -1 16 125 2280 127 ?50 48 108 123 0 0 1 30 126 229
7 0 108 123 128 0 +-1.6637 -2.54 4.81838 0 0 -1 16 108 2281 43 ?56 125 92 126 0
 0 1 30 128 2298 0 99 126 20 0 +-1.6637 -2.7305 4.81838 0 0 -1 16 99 2282 129 ?6
0 25 48 128 0 0 1 30 20 2436 0 25 128 8 0 +-1.4732 -2.76100270900178 4.736380549
23975 0 .566107244007923 -.824331600923897 16 25 2434 130 ?34 11 99 20 0 0 1 81
 1 130 2703 29 25 0 0 23 107 131 80 7 CCCCCDI12 legal_owners0 17 1 lCZ1 29 132 1
33 9000 0 0 0 0 3 6 0 0 0 FFTFTFTTFFFFFFFFF1 81 1 23 2702 29 11 0 0 100 130 134
 81 1 107 2704 29 92 0 0 130 85 135 82 255 3 131 63 4 1 81 1 85 2705 29 78 0 0 1
07 129 136 82 3 135 63 5 1 81 1 129 2706 29 99 0 0 85 124 137 82 3 136 63 6 1 81
 1 124 2707 29 48 0 0 129 138 139 82 3 137 63 7 1 81 1 138 2708 29 90 0 140 124
 141 142 82 3 139 63 8 1 14 255 90 2594 140 ?80 143 83 6 144 +0 0 80 143 22 81 1
 140 2721 145 90 138 0 146 147 148 81 1 141 2709 29 80 0 147 138 149 150 82 3 14
2 63 0 2 14 80 2598 147 ?0 90 33 6 151 +0 0 0 90 22 81 1 147 2722 145 80 141 0 1
40 0 152 81 1 149 2710 29 153 0 154 141 155 156 82 3 150 63 1 2 14 153 2288 154
 ?157 17 158 6 19 +0 0 157 17 22 81 1 154 2717 145 153 149 0 159 160 161 81 1 15
5 2711 29 17 0 159 149 162 163 82 3 156 63 2 2 14 17 2290 159 ?153 0 93 6 7 +0 0
 153 0 22 81 1 159 2716 145 17 155 0 0 154 164 81 1 162 2712 29 157 0 160 155 0
 165 82 3 163 63 3 2 14 157 2284 160 ?166 153 45 6 167 -0 0 166 153 22 81 1 160
 2718 145 157 162 0 154 168 169 82 3 165 63 4 2 80 1 145 0 170 8001 0 0 0 0 3 5
 0 0 0 FFFFTFTFFFFFFFFFF2 81 1 168 2719 145 166 171 0 160 146 172 83 255 3 169 .
596078431372549 .176470588235294 .0509803921568627 14 166 2286 168 ?143 157 173
 6 174 +0 0 143 157 22 81 1 171 2358 29 166 0 168 175 30 176 81 1 146 2720 145 1
43 175 0 168 140 177 83 3 172 .596078431372549 .176470588235294 .050980392156862
7 14 143 2133 146 ?90 166 178 6 179 -0 0 90 166 22 81 1 175 2355 29 143 0 146 12
2 171 180 83 3 177 .596078431372549 .176470588235294 .0509803921568627 81 1 122
 2352 29 109 0 0 119 175 181 82 3 180 7 1 2 81 1 119 2350 29 117 0 0 111 122 182
 82 3 181 7 10 1 81 1 111 2348 29 86 0 0 115 119 183 82 3 182 7 8 1 81 1 115 234
6 29 113 0 0 127 111 184 82 3 183 7 6 1 81 1 127 2344 29 125 0 0 43 115 185 82 3
 184 7 4 1 81 1 43 2343 29 108 0 0 39 127 186 82 3 185 7 2 1 82 3 186 7 1 1 15 1
78 2197 0 112 143 0 50 179 2270 0 143 144 167 0 +-1.4732 -2.565913819923475 0 0
 0 1 1 0 0 13 22 862 0 0 0 0 0 0 10 17 50 144 2620 0 90 151 179 0 +-1.45288 -2.6
342211019856 4.75367394200989 0 -.566107244007958 .824331600923872 0 -.824331600
923872 -.566107244007958 50 167 2291 0 157 179 174 0 +-1.4732 -2.6416 4.81838 -1
 0 0 0 0 1 50 174 2292 0 166 167 19 0 +-1.651 -2.54 4.81838 0 1 0 0 0 1 50 19 22
93 0 153 174 7 0 +-1.651 -2.7305 4.81838 0 -1 0 0 0 -1 50 151 2621 0 80 0 144 0
 +-1.45288 -2.7294711019856 4.69046610393549 0 .824331600923897 .566107244007923
 0 -.566107244007923 .824331600923897 17 112 0 178 120 116 51 98 86 0 0 +17 120
 0 178 49 112 41 187 117 0 0 +17 116 0 178 112 49 57 188 113 0 0 +17 98 0 93 97
 56 57 112 86 0 116 -17 56 0 93 98 88 51 94 108 0 187 +17 94 0 173 91 187 66 56
 108 0 0 -17 187 0 173 94 50 51 120 117 0 112 -15 173 2285 0 187 166 0 17 50 0 1
73 187 91 41 189 125 0 46 +17 91 0 173 50 94 61 69 92 0 0 +17 189 0 45 84 46 61
 50 125 0 91 -17 46 0 45 189 40 41 49 109 0 120 +15 45 2438 0 84 157 0 17 49 0 1
78 116 120 28 46 109 0 188 -17 188 0 158 47 60 28 116 113 0 0 -15 158 2287 0 47
 153 0 17 47 0 158 36 188 12 40 48 0 0 -17 60 0 158 188 36 57 97 99 0 98 +17 36
 0 158 60 47 70 27 37 0 97 +17 84 0 45 38 189 64 24 11 0 0 -17 38 0 45 40 84 12
 34 25 0 47 -17 24 0 83 69 77 61 84 11 0 189 +81 1 30 2360 29 1 0 190 171 26 191
 82 3 176 7 4 2 81 1 190 2713 192 1 30 14 0 0 193 82 3 191 7 0 3 80 1 192 194 19
5 8038 0 0 0 0 0 0 0 0 0 TTTTTTTTTTTTTFTFT10 81 1 14 2714 194 1 190 2 0 0 196 98
 255 23 193 105 98 101 97 109 32 49 56 57 46 55 32 102 114 111 109 32 103 114 11
1 117 110 100 80 1 194 197 198 8017 0 0 0 0 0 0 0 0 0 TTTTTTTTTTTTTFTFT3 84 255
 23 196 ibeam 189.7 from ground79 255 13 198 SDL/TYSA_NAME79 14 195 SDL/TYSA_UNA
ME79 15 170 SDL/TYSA_COLOUR83 3 164 .596078431372549 .176470588235294 .050980392
1568627 83 3 161 .596078431372549 .176470588235294 .0509803921568627 83 3 152 .5
96078431372549 .176470588235294 .0509803921568627 83 3 148 .596078431372549 .176
470588235294 .0509803921568627 82 3 134 63 3 1 79 9 133 BTI/DetId81 1 103 2699 2
9 37 0 0 63 95 199 81 1 63 2698 29 61 0 0 74 103 200 81 1 95 2700 29 89 0 0 103
 100 201 82 3 199 63 0 1 82 3 201 63 1 1 82 3 200 63 5 0 82 3 102 63 2 1 81 1 72
 2696 29 70 0 0 68 74 202 82 3 76 63 4 0 81 1 68 2695 29 66 0 0 31 72 203 82 3 2
02 63 3 0 81 1 31 2694 29 64 0 0 26 68 204 82 3 203 63 2 0 82 3 204 63 1 0 81 1
 59 2334 29 57 0 0 0 55 205 81 1 55 2336 29 51 0 0 59 42 206 82 3 205 7 0 0 81 1
 42 2338 29 41 0 0 55 39 207 82 3 206 7 2 0 82 3 207 7 4 0 82 3 44 7 6 0 82 3 32
 63 0 0 19 18 2300 0 1 0 10 6 0 S0 74 4 CI16 index_map_offset0 0 1 dCCZ20 16 5 0
 0 162 190 14 2 147 0 0 0 0 0 0 0 0 0 0 0 0 0 0 0 80 1 13 145 208 8040 0 0 0 0 3
 5 0 0 0 TTTFFFFFFFFFFFFFF2 83 3 15 .596078431372549 .176470588235294 .050980392
1568627 79 17 208 SDL/TYSA_COLOUR_21 0 
