**ABCDEFGHIJKLMNOPQRSTUVWXYZabcdefghijklmnopqrstuvwxyz**************************
**PARASOLID !"#$%&'()*+,-./:;<=>?@[\]^_`{|}~0123456789**************************
**PART1;
MC=unknown;
MC_MODEL=unknown;
MC_ID=unknown;
OS=unknown;
OS_RELEASE=unknown;
FRU=Parasolid 36.0.180;
APPL=Onshape;
SITE=unknown;
USER=unknown;
FORMAT=text;
GUISE=transmit;
KEY=BTGapi::writeModels_.xmt;
FILE=BTGapi::writeModels_.xmt;
DATE=2024-05-15T00:06:35 (UTC);
**PART2;
SCH=SCH_3600180_36001;
USFLD_SIZE=0;
**PART3;
**END_OF_HEADER*****************************************************************
T51 : TRANSMIT FILE created by modeller version 360018023 SCH_3600180_36001_1300
6231 0 12 36 CCCI7 lattice222 0 CCCI4 mesh1006 0 I8 polyline1008 0 CCCCCCCDI5 ow
ner1040 0 CCCI16 boundary_lattice222 0 CCCI13 boundary_mesh1006 0 I17 boundary_p
olyline1008 0 CCCA16 index_map_offset0 0 1 dA9 index_map82 0 A17 node_id_index_m
ap82 0 A20 schema_embedding_map82 0 A5 child12 0 A14 lowest_node_id0 0 1 dA16 me
sh_offset_data206 0 Z1 624 2 3 0 0 0 0 0 0 0 1e3 1e-8 0 4 5 1 0 1 2 6 0 7 8 9 0
 0 10 11 12 0 0 0 0 0 0 0 81 255 1 2 618 13 1 14 0 0 0 15 70 11 CI9 list_type0 0
 1 uI10 notransmit0 0 1 lCCCDCCDI12 finger_index0 0 1 dI12 finger_block1012 0 CZ
3 0 4 T1 0 0 5 20 1 16 16 13 255 6 544 0 1 0 17 0 0 18 0 50 255 7 539 0 19 20 0
 0 +-1.8923 4.336278955600445 3.93432402276013 0 -.824331600923871 .566107244007
959 0 .56610724400796 .824331600923872 30 255 8 543 0 21 22 0 0 +-.6731 4.336278
955600445 3.93432402276013 0 -.566107244007959 -.824331600923871 29 255 9 520 0
 23 24 0 -3.1115 4.32774135072675 3.921892071803695 19 9 CCCCCCI5 frame230 0 CA5
 owner12 0 Z10 427 0 1 18 0 25 0 V0 16 255 11 525 26 ?27 0 28 29 0 0 1 18 255 12
 306 30 31 0 32 33 ?1 81 1 30 590 34 12 0 0 35 36 37 17 255 31 0 38 39 40 12 41
 42 0 43 -18 32 301 44 39 12 45 46 ?1 29 33 308 0 12 46 47 -3.1115 4.33627895560
0445 3.934324022760125 29 46 303 0 32 48 33 -3.1115 3.33125386775406 4.624521974
65463 29 47 523 0 49 33 50 -.6731 4.32774135072675 3.921892071803695 18 49 511 3
6 51 52 0 47 ?1 29 50 522 0 52 47 24 -.6731 3.322716262880365 4.6120900236982 18
 52 507 53 54 55 49 50 ?1 29 24 521 0 55 50 9 -3.1115 3.322716262880365 4.612090
0236982 18 55 503 56 57 23 52 24 ?1 81 1 56 593 34 55 0 0 58 44 59 17 57 0 60 61
 62 55 63 64 0 27 +18 23 499 35 65 66 55 9 ?1 81 1 35 589 34 23 0 0 0 30 67 17 6
5 0 68 43 69 23 70 71 0 62 -18 66 281 58 40 45 23 72 ?1 81 1 58 592 34 66 0 0 36
 56 73 17 40 0 38 31 74 66 75 76 0 77 -18 45 286 78 75 32 66 48 ?1 29 72 283 0 6
6 0 48 -.6731 4.336278955600445 3.93432402276013 29 48 288 0 45 72 46 -.6731 3.3
3125386775406 4.62452197465463 81 1 78 596 34 45 0 0 53 79 80 17 75 0 81 82 77 4
5 40 76 0 74 +15 255 81 532 0 51 83 0 17 82 0 81 51 75 52 84 85 0 86 +17 77 0 81
 75 51 66 69 21 0 41 -16 76 92 87 ?75 88 42 89 0 0 1 17 74 0 38 40 39 45 90 88 0
 84 +15 38 14 0 74 91 0 17 39 0 38 74 31 32 92 93 0 61 +17 90 0 94 27 84 32 74 8
8 0 0 -16 88 97 95 ?74 93 76 96 0 0 1 17 84 0 94 90 86 45 82 85 0 0 -15 94 530 0
 86 17 0 17 86 0 94 84 27 52 97 98 0 0 +16 85 526 99 ?82 21 93 22 0 0 1 81 1 99
 600 34 85 0 0 26 100 101 16 21 527 102 ?69 28 85 8 0 0 1 16 93 112 103 ?39 85 8
8 104 0 0 1 30 22 542 0 85 29 8 0 +-.6731 3.33125386775406 4.62452197465463 0 -.
566107244007959 -.824331600923871 30 29 541 0 11 105 22 0 +-3.1115 3.33125386775
406 4.62452197465463 0 -.566107244007959 -.824331600923871 30 105 540 0 28 106 2
9 0 +-3.1115 4.336278955600445 3.934324022760125 0 -.566107244007959 -.824331600
923871 16 28 524 79 ?62 11 21 105 0 0 1 30 106 516 0 98 107 105 0 +-1.1049 3.322
71626288037 4.6120900236982 1 0 0 16 98 481 108 ?86 64 109 106 0 0 1 30 107 517
 0 109 110 106 0 +-.6731 3.82522880680356 4.26699104775095 -1821231995776175e-31
 -.824331600923871 .566107244007959 16 109 489 111 ?54 98 71 107 0 0 1 30 110 51
8 0 71 112 107 0 +-1.8923 4.32774135072675 3.921892071803695 1 0 0 16 71 493 100
 ?70 109 0 110 0 0 1 30 112 519 0 64 96 110 0 +-3.1115 4.301568822397415 3.93986
5976800945 0 -.824331600923871 .566107244007959 16 64 477 113 ?57 42 98 112 0 0
 1 30 96 99 0 88 89 112 0 +-1.1049 3.331253867754065 4.62452197465463 1 0 0 30 8
9 94 0 76 114 96 0 +-.6731 3.833766411677255 4.27942299870738 -1821231995776175e
-31 -.824331600923871 .566107244007959 30 114 89 0 42 104 89 0 +-1.8923 4.336278
955600445 3.93432402276013 1 0 0 16 42 87 115 ?41 76 64 114 0 0 1 30 104 71 0 93
 0 114 0 +-3.1115 4.31010642727111 3.95229792775738 0 -.824331600923871 .5661072
44007959 81 1 115 602 34 42 0 0 100 108 116 17 41 0 68 69 43 66 31 42 0 0 +15 68
 534 0 65 19 0 17 69 0 68 65 41 49 77 21 0 70 +17 43 0 68 41 65 12 62 28 0 92 -1
7 62 0 60 57 92 23 43 28 0 63 +17 92 0 60 62 61 12 39 93 0 0 -15 60 528 0 57 117
 0 17 61 0 60 92 57 32 27 11 0 90 -17 27 0 94 86 90 55 61 11 0 97 +17 97 0 118 6
3 54 55 86 98 0 0 -15 118 476 0 97 119 0 17 63 0 118 70 97 23 57 64 0 0 -17 54 0
 118 97 70 52 51 109 0 82 +17 70 0 118 54 63 49 65 71 0 0 +17 51 0 81 77 82 49 5
4 109 0 69 -14 255 119 465 120 ?0 91 118 6 121 -0 0 0 91 25 81 1 120 624 122 119
 123 0 124 0 125 14 91 11 124 ?119 83 38 6 126 +0 0 119 83 25 50 121 515 0 119 1
26 127 0 +-.3175 2.17465501836173 5.40051762535558 0 .56610724400796 .8243316009
23871 1 0 0 13 25 433 0 0 0 0 0 0 10 17 14 17 531 128 ?117 0 94 6 129 +0 0 117 0
 25 81 1 128 619 122 17 130 0 0 131 132 14 117 529 131 ?19 17 60 6 127 +0 0 19 1
7 25 50 129 537 0 17 127 20 0 +-1.1049 3.331253867754065 4.62452197465463 0 -.82
4331600923871 .566107244007959 0 .56610724400796 .824331600923872 50 127 536 0 1
17 121 129 0 +-3.1115 4.31010642727111 3.95229792775738 -1 0 0 0 0 1 50 20 538 0
 83 129 7 0 +-.6731 3.833766411677255 4.27942299870738 -1 150129908673195e-30 -1
031012625827964e-31 150129908673195e-30 1 0 14 83 533 133 ?91 19 81 6 20 -0 0 91
 19 25 81 1 133 622 122 83 134 0 135 124 136 14 19 535 135 ?83 117 68 6 7 -0 0 8
3 117 25 81 1 135 621 122 19 137 0 131 133 138 80 7 CCCCCDI12 legal_owners0 17 1
 lCZ1 122 0 139 8001 0 0 0 0 3 5 0 0 0 FFFFTFTFFFFFFFFFF2 81 1 137 609 34 19 0 1
35 87 123 140 81 1 131 620 122 117 141 0 128 135 142 83 255 3 138 .5137254901960
78 .415686274509804 .733333333333333 81 1 141 613 34 117 0 131 130 134 143 83 3
 142 .513725490196078 .415686274509804 .733333333333333 80 1 34 144 145 9000 0 0
 0 0 3 6 0 0 0 FFTFTFTTFFFFFFFFF1 81 1 130 612 34 17 0 128 146 141 147 81 1 134
 614 34 83 0 133 141 148 149 82 255 3 143 120 58 2 81 1 148 615 34 1 0 150 134 0
 151 82 3 149 120 59 2 81 1 150 616 152 1 148 14 0 0 153 82 3 151 120 9 3 80 1 1
52 154 155 8038 0 0 0 0 0 0 0 0 0 TTTTTTTTTTTTTFTFT10 81 1 14 617 154 1 150 2 0
 0 156 98 255 8 153 80 97 114 116 32 49 56 48 80 1 154 157 158 8017 0 0 0 0 0 0
 0 0 0 TTTTTTTTTTTTTFTFT3 84 255 8 156 Part 18079 255 13 158 SDL/TYSA_NAME79 14
 155 SDL/TYSA_UNAME81 1 146 611 34 91 0 124 123 130 159 82 3 147 120 57 2 81 1 1
24 623 122 91 146 0 133 120 160 81 1 123 610 34 119 0 120 137 146 161 82 3 159 1
20 56 2 82 3 161 120 55 2 83 3 160 .513725490196078 .415686274509804 .7333333333
33333 79 9 145 BTI/DetId81 1 87 608 34 76 0 0 111 137 162 82 3 140 120 54 2 81 1
 111 607 34 109 0 0 103 87 163 82 3 162 120 139 1 81 1 103 606 34 93 0 0 113 111
 164 82 3 163 120 138 1 81 1 113 605 34 64 0 0 95 103 165 82 3 164 120 137 1 81
 1 95 604 34 88 0 0 108 113 166 82 3 165 120 136 1 81 1 108 603 34 98 0 0 115 95
 167 82 3 166 120 135 1 82 3 167 120 134 1 79 15 139 SDL/TYSA_COLOUR83 3 136 .51
3725490196078 .415686274509804 .733333333333333 83 3 132 .513725490196078 .41568
6274509804 .733333333333333 50 126 3 0 91 0 121 0 +-.3175 2.183192623235425 5.41
294957631201 0 .56610724400796 .824331600923871 1 0 0 83 3 125 .513725490196078
 .415686274509804 .733333333333333 81 1 100 601 34 71 0 0 99 115 168 82 3 116 12
0 133 1 82 3 168 120 132 1 81 1 79 597 34 28 0 0 78 102 169 81 1 102 598 34 21 0
 0 79 26 170 82 3 169 120 108 1 81 1 26 599 34 11 0 0 102 99 171 82 3 170 120 10
9 1 82 3 171 120 110 1 82 3 101 120 111 1 81 1 53 595 34 52 0 0 44 78 172 82 3 8
0 120 79 0 81 1 44 594 34 32 0 0 56 53 173 82 3 172 120 78 0 82 3 173 120 77 0 8
1 1 36 591 34 49 0 0 30 58 174 82 3 73 120 75 0 82 3 174 120 74 0 82 3 67 120 72
 0 82 3 59 120 76 0 82 3 37 120 73 0 19 18 545 0 1 0 10 6 0 S0 74 4 CI16 index_m
ap_offset0 0 1 dCCZ20 16 5 0 0 148 150 14 2 120 0 0 0 0 0 0 0 0 0 0 0 0 0 0 0 80
 1 13 122 175 8040 0 0 0 0 3 5 0 0 0 TTTFFFFFFFFFFFFFF2 83 3 15 .513725490196078
 .415686274509804 .733333333333333 79 17 175 SDL/TYSA_COLOUR_21 0 
