**ABCDEFGHIJKLMNOPQRSTUVWXYZabcdefghijklmnopqrstuvwxyz**************************
**PARASOLID !"#$%&'()*+,-./:;<=>?@[\]^_`{|}~0123456789**************************
**PART1;
MC=unknown;
MC_MODEL=unknown;
MC_ID=unknown;
OS=unknown;
OS_RELEASE=unknown;
FRU=Parasolid 36.0.180;
APPL=Onshape;
SITE=unknown;
USER=unknown;
FORMAT=text;
GUISE=transmit;
KEY=BTGapi::writeModels_.xmt;
FILE=BTGapi::writeModels_.xmt;
DATE=2024-05-15T00:06:35 (UTC);
**PART2;
SCH=SCH_3600180_36001;
USFLD_SIZE=0;
**PART3;
**END_OF_HEADER*****************************************************************
T51 : TRANSMIT FILE created by modeller version 360018023 SCH_3600180_36001_1300
6231 0 12 36 CCCI7 lattice222 0 CCCI4 mesh1006 0 I8 polyline1008 0 CCCCCCCDI5 ow
ner1040 0 CCCI16 boundary_lattice222 0 CCCI13 boundary_mesh1006 0 I17 boundary_p
olyline1008 0 CCCA16 index_map_offset0 0 1 dA9 index_map82 0 A17 node_id_index_m
ap82 0 A20 schema_embedding_map82 0 A5 child12 0 A14 lowest_node_id0 0 1 dA16 me
sh_offset_data206 0 Z1 342 2 3 0 0 0 0 0 0 0 1e3 1e-8 0 4 5 1 0 1 2 6 0 7 8 9 0
 0 10 11 12 0 0 0 0 0 0 0 81 255 1 2 336 13 1 14 0 0 0 15 70 11 CI9 list_type0 0
 1 uI10 notransmit0 0 1 lCCCDCCDI12 finger_index0 0 1 dI12 finger_block1012 0 CZ
3 0 4 T1 0 0 5 20 1 16 16 13 255 6 288 0 1 0 17 0 0 18 0 50 255 7 283 0 17 19 0
 0 +.4699 -3.331253867754065 4.62452197465463 0 -.824331600923871 -.566107244007
959 0 .56610724400796 -.824331600923872 30 255 8 287 0 11 20 0 0 +.9017 -3.33125
3867754065 4.62452197465463 0 .566107244007959 -.824331600923871 29 255 9 264 0
 21 22 0 -1.5367 -3.32271626288037 4.6120900236982 19 9 CCCCCCI5 frame230 0 CA5
 owner12 0 Z10 172 0 1 18 0 23 0 V0 16 255 11 271 24 ?25 0 26 8 0 0 1 18 255 12
 156 27 28 0 29 30 ?1 81 1 27 310 31 12 0 0 32 33 34 17 255 28 0 35 36 37 12 38
 39 0 40 -18 29 151 41 42 12 43 44 ?1 29 30 158 0 12 44 45 -1.5367 -3.3312538677
54065 4.62452197465463 29 44 153 0 29 46 30 -1.5367 -2.32622877990768 5.31471992
654914 29 45 267 0 47 30 48 .9017 -3.32271626288037 4.6120900236982 18 47 255 49
 25 50 0 45 ?1 29 48 266 0 50 45 22 .9017 -2.317691175033985 5.3022879755927 18
 50 251 33 51 52 47 48 ?1 29 22 265 0 52 48 9 -1.5367 -2.317691175033985 5.30228
797559271 18 52 247 53 54 21 50 22 ?1 81 1 53 307 31 52 0 0 0 41 55 17 54 0 35 3
7 36 52 56 57 0 58 +18 21 243 32 38 59 52 9 ?1 81 1 32 309 31 21 0 0 41 27 60 17
 38 0 61 62 40 21 28 39 0 63 +18 59 131 64 65 43 21 66 ?1 81 1 64 314 31 59 0 0
 49 67 68 17 65 0 61 40 62 59 25 11 0 69 -18 43 136 70 71 29 59 46 ?1 29 66 133
 0 59 0 46 .9017 -3.331253867754065 4.62452197465463 29 46 138 0 43 66 44 .9017
 -2.32622877990768 5.31471992654914 81 1 70 312 31 43 0 0 33 49 72 17 71 0 73 42
 74 43 69 75 0 76 +15 255 73 10 0 74 77 0 17 42 0 73 78 71 29 79 80 0 56 +17 74
 0 73 71 78 59 40 81 0 0 -17 69 0 82 25 76 59 71 75 0 74 -16 75 56 83 ?71 80 81
 84 0 0 1 17 76 0 82 69 51 43 85 26 0 79 -15 82 276 0 51 86 0 17 51 0 82 76 25 5
0 87 88 0 85 +17 85 0 89 58 79 50 76 26 0 90 +16 26 270 91 ?85 11 57 20 0 0 1 17
 79 0 89 85 56 43 42 80 0 0 -15 89 274 0 58 92 0 17 56 0 89 79 58 29 54 57 0 36
 -16 80 61 93 ?42 94 75 95 0 0 1 81 1 93 326 31 80 0 0 96 97 98 16 94 76 99 ?36
 39 80 100 0 0 1 30 95 63 0 80 84 100 0 +.4699 -2.32622877990768 5.3147199265491
4 -1 0 0 30 84 58 0 75 101 95 0 +.9017 -2.82874132383087 4.96962095060189 -18212
31995776175e-31 .824331600923871 .56610724400796 30 100 78 0 94 95 102 0 +-1.536
7 -2.82874132383087 4.96962095060189 -1821231995776175e-31 .824331600923871 .566
10724400796 30 102 263 0 103 100 104 0 +.4699 -3.32271626288037 4.6120900236982
 -1 0 0 16 103 235 105 ?63 88 0 102 0 0 1 30 104 262 0 88 102 106 0 +.9017 -2.82
0203718957175 4.95718899964545 -1821231995776175e-31 .824331600923871 .566107244
00796 16 88 231 107 ?51 108 103 104 0 0 1 30 106 261 0 108 104 109 0 +.4699 -2.3
17691175033985 5.3022879755927 -1 0 0 16 108 223 96 ?58 110 88 106 0 0 1 30 109
 260 0 110 106 111 0 +-1.5367 -2.820203718957175 4.95718899964545 -1821231995776
175e-31 .824331600923871 .56610724400796 16 110 219 112 ?113 81 108 109 0 0 1 30
 111 284 0 39 109 114 0 +-1.5367 -3.331253867754065 4.62452197465463 0 .56610724
4007959 -.824331600923871 16 39 268 115 ?38 57 94 111 0 0 1 30 114 285 0 57 111
 20 0 +-1.5367 -2.32622877990768 5.31471992654914 0 .566107244007959 -.824331600
923871 16 57 269 67 ?54 26 39 114 0 0 1 30 20 286 0 26 114 8 0 +.9017 -2.3262287
7990768 5.31471992654914 0 .566107244007959 -.824331600923871 81 1 67 315 31 57
 0 0 64 115 116 80 7 CCCCCDI12 legal_owners0 17 1 lCZ1 31 117 118 9000 0 0 0 0 3
 6 0 0 0 FFTFTFTTFFFFFFFFF1 81 1 115 316 31 39 0 0 67 91 119 82 255 3 116 118 0
 1 81 1 91 317 31 26 0 0 115 24 120 82 3 119 118 1 1 81 1 24 318 31 11 0 0 91 10
5 121 82 3 120 118 2 1 81 1 105 319 31 103 0 0 24 122 123 82 3 121 118 3 1 81 1
 122 320 31 81 0 0 105 112 124 82 3 123 118 8 1 16 81 51 122 ?40 75 110 101 0 0
 1 81 1 112 321 31 110 0 0 122 99 125 82 3 124 118 9 1 81 1 99 322 31 94 0 0 112
 107 126 82 3 125 118 10 1 81 1 107 323 31 88 0 0 99 83 127 82 3 126 118 11 1 81
 1 83 324 31 75 0 0 107 96 128 82 3 127 118 12 1 81 1 96 325 31 108 0 0 83 93 12
9 82 3 128 118 13 1 82 3 129 118 14 1 17 40 0 61 38 65 12 74 81 0 78 +30 101 53
 0 81 0 84 0 +.4699 -3.331253867754065 4.62452197465463 -1 0 0 15 61 278 0 62 17
 0 17 78 0 73 74 42 12 36 94 0 0 -17 36 0 35 54 28 29 78 94 0 0 +15 35 272 0 37
 130 0 17 37 0 35 28 54 21 113 110 0 0 -14 255 130 273 131 ?77 92 35 6 132 +0 0
 77 92 23 81 1 131 340 133 130 134 0 135 136 137 14 77 7 136 ?138 130 73 6 139 +
0 0 138 130 23 14 92 275 135 ?130 86 89 6 140 -0 0 130 86 23 50 132 280 0 130 14
1 140 0 +-1.5367 -2.82874132383087 4.96962095060189 -1 -150129908673195e-30 -103
1012625827964e-31 150129908673195e-30 -1 0 13 23 174 0 0 0 0 0 0 10 17 14 17 279
 142 ?86 0 61 6 7 +0 0 86 0 23 81 1 142 337 133 17 97 0 0 143 144 14 86 277 143
 ?92 17 82 6 19 -0 0 92 17 23 81 1 143 338 133 86 145 0 142 135 146 50 19 282 0
 86 140 7 0 +.9017 -2.82874132383087 4.96962095060189 -1 -150129908673195e-30 -1
031012625827964e-31 150129908673195e-30 -1 0 50 140 281 0 92 132 19 0 +.4699 -2.
32622877990768 5.31471992654914 0 -.824331600923871 -.566107244007959 0 .5661072
4400796 -.824331600923872 80 1 133 0 147 8001 0 0 0 0 3 5 0 0 0 FFFFTFTFFFFFFFFF
F2 81 1 145 331 31 86 0 143 134 148 149 81 1 135 339 133 92 148 0 143 131 150 83
 255 3 146 .941176470588235 .874509803921569 .67843137254902 81 1 148 332 31 92
 0 135 145 151 152 83 3 150 .941176470588235 .874509803921569 .67843137254902 81
 1 151 333 31 1 0 153 148 0 154 82 3 152 118 5 2 81 1 153 334 155 1 151 14 0 0 1
56 82 3 154 118 0 3 80 1 155 157 158 8038 0 0 0 0 0 0 0 0 0 TTTTTTTTTTTTTFTFT10
 81 1 14 335 157 1 153 2 0 0 159 98 255 8 156 80 97 114 116 32 49 54 51 80 1 157
 160 161 8017 0 0 0 0 0 0 0 0 0 TTTTTTTTTTTTTFTFT3 84 255 8 159 Part 16379 255 1
3 161 SDL/TYSA_NAME79 14 158 SDL/TYSA_UNAME81 1 134 330 31 130 0 131 162 145 163
 82 3 149 118 4 2 81 1 162 329 31 77 0 136 164 134 165 82 3 163 118 3 2 81 1 136
 341 133 77 162 0 131 166 167 81 1 164 328 31 138 0 166 97 162 168 82 3 165 118
 2 2 14 138 207 166 ?0 77 169 6 141 -0 0 0 77 23 81 1 166 342 133 138 164 0 136
 0 170 81 1 97 327 31 17 0 142 93 164 171 82 3 168 118 1 2 82 3 171 118 0 2 83 3
 170 .941176470588235 .874509803921569 .67843137254902 15 169 218 0 63 138 0 50
 141 259 0 138 139 132 0 +-.3175 -2.17465501836173 5.40051762535558 0 -.56610724
400796 .824331600923871 1 0 0 50 139 3 0 77 0 141 0 +-.3175 -2.183192623235425 5
.41294957631201 0 -.56610724400796 .824331600923871 1 0 0 17 63 0 169 113 87 21
 62 103 0 37 +17 113 0 169 90 63 52 37 110 0 0 +17 87 0 169 63 90 47 51 88 0 62
 -17 62 0 61 65 38 47 63 103 0 0 -17 90 0 169 87 113 50 58 108 0 0 -17 58 0 89 5
6 85 52 90 108 0 113 +83 3 167 .941176470588235 .874509803921569 .67843137254902
 79 15 147 SDL/TYSA_COLOUR83 3 144 .941176470588235 .874509803921569 .6784313725
4902 83 3 137 .941176470588235 .874509803921569 .67843137254902 79 9 118 BTI/Det
Id82 3 98 118 15 1 17 25 0 82 51 69 47 65 11 0 87 +81 1 33 311 31 50 0 0 27 70 1
72 81 1 49 313 31 47 0 0 70 64 173 82 3 72 118 5 0 82 3 173 118 6 0 82 3 172 118
 4 0 82 3 68 118 7 0 81 1 41 308 31 29 0 0 53 32 174 82 3 60 118 2 0 82 3 174 11
8 1 0 82 3 55 118 0 0 82 3 34 118 3 0 19 18 289 0 1 0 10 6 0 S0 74 4 CI16 index_
map_offset0 0 1 dCCZ20 16 5 0 0 151 153 14 2 166 0 0 0 0 0 0 0 0 0 0 0 0 0 0 0 8
0 1 13 133 175 8040 0 0 0 0 3 5 0 0 0 TTTFFFFFFFFFFFFFF2 83 3 15 .94117647058823
5 .874509803921569 .67843137254902 79 17 175 SDL/TYSA_COLOUR_21 0 
