**ABCDEFGHIJKLMNOPQRSTUVWXYZabcdefghijklmnopqrstuvwxyz**************************
**PARASOLID !"#$%&'()*+,-./:;<=>?@[\]^_`{|}~0123456789**************************
**PART1;
MC=unknown;
MC_MODEL=unknown;
MC_ID=unknown;
OS=unknown;
OS_RELEASE=unknown;
FRU=Parasolid 36.0.180;
APPL=Onshape;
SITE=unknown;
USER=unknown;
FORMAT=text;
GUISE=transmit;
KEY=BTGapi::writeModels_.xmt;
FILE=BTGapi::writeModels_.xmt;
DATE=2024-05-15T00:06:35 (UTC);
**PART2;
SCH=SCH_3600180_36001;
USFLD_SIZE=0;
**PART3;
**END_OF_HEADER*****************************************************************
T51 : TRANSMIT FILE created by modeller version 360018023 SCH_3600180_36001_1300
6231 0 12 36 CCCI7 lattice222 0 CCCI4 mesh1006 0 I8 polyline1008 0 CCCCCCCDI5 ow
ner1040 0 CCCI16 boundary_lattice222 0 CCCI13 boundary_mesh1006 0 I17 boundary_p
olyline1008 0 CCCA16 index_map_offset0 0 1 dA9 index_map82 0 A17 node_id_index_m
ap82 0 A20 schema_embedding_map82 0 A5 child12 0 A14 lowest_node_id0 0 1 dA16 me
sh_offset_data206 0 Z1 170 2 3 0 0 0 0 0 0 0 1e3 1e-8 0 4 5 1 0 1 2 6 0 7 8 9 0
 0 10 11 12 0 0 0 0 0 0 0 81 255 1 2 164 13 1 14 0 0 0 15 70 11 CI9 list_type0 0
 1 uI10 notransmit0 0 1 lCCCDCCDI12 finger_index0 0 1 dI12 finger_block1012 0 CZ
3 0 4 T1 0 0 5 20 1 16 16 13 255 6 5 0 1 0 17 0 0 18 0 50 255 7 90 0 19 20 0 0 +
-1.56845 3.803661253021345 4.23558566241895 0 .824331600923871 -.56610724400796
 0 -.56610724400796 -.824331600923871 30 255 8 98 0 21 22 0 0 +-1.4732 3.8036612
53021345 4.23558566241895 0 -.56610724400796 -.824331600923871 29 255 9 85 0 12
 23 0 -1.4732 3.50888807885191 3.806354549154685 19 9 CCCCCCI5 frame230 0 CA5 ow
ner12 0 Z10 1 0 1 18 0 24 0 V0 16 255 11 29 25 ?26 0 27 28 0 0 1 18 255 12 53 29
 30 0 31 9 ?1 81 1 29 139 32 12 0 0 33 34 35 17 255 30 0 36 37 38 12 26 11 0 39
 -18 31 57 40 26 12 41 23 ?1 81 1 40 141 32 31 0 0 34 42 43 17 26 0 44 45 39 31
 30 11 0 38 +18 41 61 46 45 31 47 48 ?1 29 23 84 0 31 48 9 -1.6637 3.50888807885
191 3.806354549154685 29 48 83 0 41 49 23 -1.6637 3.561233135510575 3.7704067391
6018 29 49 82 0 47 50 48 -1.4732 3.561233135510575 3.77040673916018 18 47 65 51
 52 41 53 49 ?1 29 50 81 0 53 54 49 -1.6637 3.85600517746552 4.199636203761245 1
8 53 69 55 56 47 57 50 ?1 29 54 80 0 57 58 50 -1.4732 3.85600517746552 4.1996362
03761245 18 57 70 33 59 53 60 54 ?1 29 58 79 0 60 61 54 -1.4732 3.80366012080685
5 4.23558401375575 18 60 71 34 37 57 62 58 ?1 29 61 78 0 62 0 58 -1.6637 3.80366
0120806855 4.23558401375575 18 62 72 42 63 60 0 61 ?1 81 1 42 142 32 62 0 0 40 6
4 65 17 63 0 66 67 68 62 38 69 0 70 -15 255 66 17 0 71 72 0 17 67 0 66 71 63 53
 73 74 0 75 -17 68 0 66 63 71 31 45 27 0 0 +17 38 0 36 30 70 31 63 69 0 68 +16 6
9 46 76 ?38 21 77 22 0 0 1 17 70 0 36 38 37 62 78 79 0 73 +15 36 20 0 70 19 0 17
 37 0 36 70 30 60 80 21 0 81 -17 78 0 82 83 73 60 70 79 0 0 -16 79 52 84 ?70 85
 0 86 0 0 1 17 73 0 82 78 75 62 67 74 0 0 +15 82 8 0 75 17 0 17 75 0 82 73 83 53
 87 85 0 0 -16 74 49 88 ?73 89 90 91 0 0 1 81 1 88 148 32 74 0 0 92 93 94 16 89
 48 95 ?96 77 74 97 0 0 1 16 90 50 98 ?81 74 85 99 0 0 1 30 91 91 0 74 28 99 0 +
-1.6637 1.53151446946731 5.79597319600098 0 -.824331600923871 .56610724400796 30
 28 77 0 11 100 91 0 +-1.56845 3.50888807885191 3.806354549154685 -1 0 0 30 99 9
2 0 90 91 101 0 +-1.4732 3.82983264913619 4.217610108758495 0 -.824331600923871
 .56610724400796 30 101 93 0 85 99 86 0 +-1.56845 3.85600517746552 4.19963620376
1245 1 0 0 16 85 51 102 ?87 90 79 101 0 0 1 30 86 94 0 79 101 97 0 +-1.56845 3.8
03660120806855 4.23558401375575 -1 0 0 30 97 95 0 89 86 103 0 +-1.4732 3.8560063
0968001 4.199637852424445 0 -.56610724400796 -.824331600923871 30 103 96 0 77 97
 22 0 +-1.6637 3.85600630968001 4.199637852424445 0 -.56610724400796 -.824331600
923871 16 77 47 64 ?71 69 89 103 0 0 1 30 22 97 0 69 103 8 0 +-1.6637 3.80366125
3021345 4.23558566241895 0 -.56610724400796 -.824331600923871 81 1 64 143 32 77
 0 0 42 95 104 17 71 0 66 68 67 41 56 77 0 105 +17 56 0 106 87 105 53 71 77 0 67
 -17 105 0 106 56 96 41 52 107 0 0 -15 106 14 0 87 108 0 17 96 0 106 105 87 47 5
9 89 0 109 +17 52 0 44 39 45 47 105 107 0 96 +16 107 37 110 ?52 27 111 100 0 0 1
 81 1 110 153 32 107 0 0 84 102 112 16 27 33 92 ?68 11 107 113 0 0 1 16 111 41 9
3 ?39 107 21 114 0 0 1 30 100 76 0 107 114 28 0 +-1.56845 3.561233135510575 3.77
040673916018 1 0 0 30 114 75 0 111 113 100 0 +-1.4732 3.53506060718124 3.7883806
44157435 0 -.824331600923871 .56610724400796 30 113 74 0 27 0 114 0 +-1.6637 1.2
36742427512362 5.36674373139991 0 -.824331600923871 .56610724400796 81 1 93 149
 32 111 0 0 88 98 115 17 39 0 44 26 52 12 109 111 0 80 +16 21 45 116 ?80 111 69
 8 0 0 1 81 1 116 145 32 21 0 0 95 76 117 17 80 0 118 109 81 12 37 21 0 0 +15 11
8 11 0 81 119 0 17 109 0 118 59 80 47 39 111 0 0 -17 81 0 118 80 59 60 83 90 0 7
8 +17 59 0 118 81 109 57 96 89 0 83 -17 83 0 82 75 78 57 81 90 0 87 -17 87 0 106
 96 56 57 75 85 0 0 +14 255 119 9 120 ?108 17 118 6 20 -0 0 108 17 24 81 1 120 1
66 121 119 122 0 123 124 125 14 108 12 124 ?72 119 106 6 126 -0 0 72 119 24 14 1
7 6 123 ?119 0 82 6 127 +0 0 119 0 24 50 20 89 0 119 128 7 0 +-1.4732 3.82983378
1350675 4.2176117574217 -1 0 0 0 0 1 13 24 3 0 0 0 0 0 0 10 17 50 128 88 0 72 12
6 20 0 +-1.6637 1.5315156016818 5.79597484466418 -1 0 0 0 0 1 14 72 15 129 ?19 1
08 66 6 128 +0 0 19 108 24 50 126 87 0 108 127 128 0 +-1.56845 3.85600630968001
 4.199637852424445 0 -.824331600923871 .56610724400796 0 .56610724400796 .824331
600923871 50 127 86 0 17 130 126 0 +-1.78435 2.153086332365025 5.36911059136038
 0 .56610724400796 .824331600923871 1 0 0 50 130 73 0 131 0 127 0 +-.03175000000
00006 1.924817738899915 4.89421008382051 0 -.56610724400796 -.824331600923871 1
 0 0 14 131 21 132 ?0 19 44 6 130 +0 0 0 19 24 81 1 132 170 121 131 133 0 134 0
 135 14 19 18 134 ?131 72 36 6 7 -0 0 131 72 24 15 44 28 0 39 131 0 81 1 134 169
 121 19 136 0 129 132 137 80 7 CCCCCDI12 legal_owners0 17 1 lCZ1 121 0 138 8001
 0 0 0 0 3 5 0 0 0 FFFFTFTFFFFFFFFFF2 81 1 136 159 32 19 0 134 122 139 140 81 1
 129 168 121 72 141 0 124 134 142 83 255 3 137 .647058823529412 .647058823529412
 .647058823529412 81 1 141 155 32 72 0 129 102 133 143 81 1 124 167 121 108 139
 0 120 129 144 83 3 142 .647058823529412 .647058823529412 .647058823529412 81 1
 139 160 32 108 0 124 136 145 146 83 3 144 .647058823529412 .647058823529412 .64
7058823529412 80 1 32 147 148 9000 0 0 0 0 3 6 0 0 0 FFTFTFTTFFFFFFFFF1 81 1 145
 161 32 1 0 149 139 0 150 82 255 3 146 147 35 2 81 1 149 162 151 1 145 14 0 0 15
2 82 3 150 147 1 3 80 1 151 153 154 8038 0 0 0 0 0 0 0 0 0 TTTTTTTTTTTTTFTFT10 8
1 1 14 163 153 1 149 2 0 0 155 98 255 8 152 80 97 114 116 32 50 51 55 80 1 153 1
56 157 8017 0 0 0 0 0 0 0 0 0 TTTTTTTTTTTTTFTFT3 84 255 8 155 Part 23779 255 13
 157 SDL/TYSA_NAME79 14 154 SDL/TYSA_UNAME79 9 148 BTI/DetId81 1 102 154 32 85 0
 0 110 141 158 81 1 133 156 32 131 0 132 141 159 160 82 3 143 147 3 2 81 1 159 1
57 32 17 0 123 133 122 161 82 3 160 147 4 2 81 1 123 165 121 17 159 0 0 120 162
 81 1 122 158 32 119 0 120 159 136 163 82 3 161 147 5 2 82 3 163 147 25 2 83 3 1
62 .647058823529412 .647058823529412 .647058823529412 82 3 158 147 71 1 82 3 140
 147 33 2 79 15 138 SDL/TYSA_COLOUR83 3 135 .647058823529412 .647058823529412 .6
47058823529412 83 3 125 .647058823529412 .647058823529412 .647058823529412 81 1
 95 144 32 89 0 0 64 116 164 81 1 76 146 32 69 0 0 116 92 165 82 3 117 147 19 1
 81 1 92 147 32 27 0 0 76 88 166 82 3 165 147 25 1 82 3 166 147 34 1 82 3 164 14
7 3 1 81 1 98 150 32 90 0 0 93 25 167 82 3 115 147 50 1 81 1 25 151 32 11 0 0 98
 84 168 82 3 167 147 51 1 81 1 84 152 32 79 0 0 25 110 169 82 3 168 147 66 1 82
 3 169 147 67 1 82 3 112 147 70 1 17 45 0 44 52 26 41 68 27 0 71 -82 3 104 147 2
 1 82 3 94 147 35 1 82 3 65 147 51 0 81 1 34 140 32 60 0 0 29 40 170 82 3 170 14
7 39 0 81 1 33 138 32 57 0 0 51 29 171 81 1 51 137 32 47 0 0 55 33 172 82 3 171
 147 7 0 81 1 55 136 32 53 0 0 46 51 173 82 3 172 147 6 0 81 1 46 135 32 41 0 0
 0 55 174 82 3 173 147 5 0 82 3 174 147 4 0 82 3 43 147 50 0 82 3 35 147 38 0 19
 18 4 0 1 0 10 6 0 S0 74 4 CI16 index_map_offset0 0 1 dCCZ20 16 5 0 0 145 149 14
 2 132 0 0 0 0 0 0 0 0 0 0 0 0 0 0 0 80 1 13 121 175 8040 0 0 0 0 3 5 0 0 0 TTTF
FFFFFFFFFFFFF2 83 3 15 .647058823529412 .647058823529412 .647058823529412 79 17
 175 SDL/TYSA_COLOUR_21 0 
