**ABCDEFGHIJKLMNOPQRSTUVWXYZabcdefghijklmnopqrstuvwxyz**************************
**PARASOLID !"#$%&'()*+,-./:;<=>?@[\]^_`{|}~0123456789**************************
**PART1;
MC=unknown;
MC_MODEL=unknown;
MC_ID=unknown;
OS=unknown;
OS_RELEASE=unknown;
FRU=Parasolid 36.0.180;
APPL=Onshape;
SITE=unknown;
USER=unknown;
FORMAT=text;
GUISE=transmit;
KEY=BTGapi::writeModels_.xmt;
FILE=BTGapi::writeModels_.xmt;
DATE=2024-05-15T00:06:35 (UTC);
**PART2;
SCH=SCH_3600180_36001;
USFLD_SIZE=0;
**PART3;
**END_OF_HEADER*****************************************************************
T51 : TRANSMIT FILE created by modeller version 360018023 SCH_3600180_36001_1300
6231 0 12 36 CCCI7 lattice222 0 CCCI4 mesh1006 0 I8 polyline1008 0 CCCCCCCDI5 ow
ner1040 0 CCCI16 boundary_lattice222 0 CCCI13 boundary_mesh1006 0 I17 boundary_p
olyline1008 0 CCCA16 index_map_offset0 0 1 dA9 index_map82 0 A17 node_id_index_m
ap82 0 A20 schema_embedding_map82 0 A5 child12 0 A14 lowest_node_id0 0 1 dA16 me
sh_offset_data206 0 Z1 369 2 3 0 0 0 0 0 0 0 1e3 1e-8 0 4 5 1 0 1 2 6 0 7 8 9 0
 0 10 11 12 0 0 0 0 0 0 0 81 255 1 2 363 13 1 14 0 0 0 15 70 11 CI9 list_type0 0
 1 uI10 notransmit0 0 1 lCCCDCCDI12 finger_index0 0 1 dI12 finger_block1012 0 CZ
3 0 4 T1 0 0 5 20 1 16 16 13 255 6 288 0 1 0 17 0 0 18 0 50 255 7 283 0 17 19 0
 0 +.4699 3.331253867754065 4.62452197465463 0 .824331600923871 -.56610724400795
9 0 -.56610724400796 -.824331600923872 30 255 8 287 0 11 20 0 0 +.9017 3.3312538
67754065 4.62452197465463 0 -.566107244007959 -.824331600923871 29 255 9 264 0 2
1 22 0 -1.5367 3.32271626288037 4.6120900236982 19 9 CCCCCCI5 frame230 0 CA5 own
er12 0 Z10 172 0 1 18 0 23 0 V0 16 255 11 271 24 ?25 0 26 8 0 0 1 18 255 12 156
 27 28 0 29 30 ?1 81 1 27 337 31 12 0 0 32 33 34 17 255 28 0 35 36 37 12 38 39 0
 40 -18 29 151 41 38 12 42 43 ?1 29 30 158 0 12 43 44 -1.5367 3.331253867754065
 4.62452197465463 29 43 153 0 29 45 30 -1.5367 2.32622877990768 5.31471992654914
 29 44 267 0 46 30 47 .9017 3.32271626288037 4.6120900236982 18 46 255 48 49 50
 0 44 ?1 29 47 266 0 50 44 22 .9017 2.317691175033985 5.3022879755927 18 50 251
 33 51 52 46 47 ?1 29 22 265 0 52 47 9 -1.5367 2.317691175033985 5.3022879755927
1 18 52 247 53 54 21 50 22 ?1 81 1 53 334 31 52 0 0 0 41 55 17 54 0 35 37 36 52
 56 57 0 58 +18 21 243 32 56 59 52 9 ?1 81 1 32 336 31 21 0 0 41 27 60 17 56 0 6
1 62 63 21 54 57 0 36 -18 59 131 64 65 42 21 66 ?1 81 1 64 341 31 59 0 0 48 67 6
8 17 65 0 69 40 70 59 71 72 0 73 -18 42 136 74 70 29 59 45 ?1 29 66 133 0 59 0 4
5 .9017 3.331253867754065 4.62452197465463 29 45 138 0 42 66 43 .9017 2.32622877
990768 5.31471992654914 81 1 74 339 31 42 0 0 33 48 75 17 70 0 69 65 38 42 76 77
 0 78 -15 255 69 10 0 40 79 0 17 38 0 69 70 40 29 28 39 0 37 +17 76 0 80 58 78 2
9 70 77 0 0 +16 77 61 81 ?76 39 72 82 0 0 1 17 78 0 80 76 51 42 83 26 0 71 -15 8
0 274 0 51 84 0 17 51 0 80 78 58 50 63 85 0 83 -17 83 0 86 49 71 50 78 26 0 87 +
16 26 270 88 ?83 11 89 20 0 0 1 17 71 0 86 83 73 42 65 72 0 0 +15 86 276 0 49 90
 0 17 73 0 86 71 49 59 25 11 0 91 -16 72 56 92 ?71 77 93 94 0 0 1 81 1 92 351 31
 72 0 0 95 96 97 16 93 51 98 ?40 72 57 99 0 0 1 30 94 58 0 72 99 82 0 +.9017 2.8
2874132383087 4.96962095060189 -1821231995776175e-31 -.824331600923871 .56610724
400796 30 99 53 0 93 0 94 0 +.4699 3.331253867754065 4.62452197465463 -1 0 0 30
 82 63 0 77 94 100 0 +.4699 2.32622877990768 5.31471992654914 -1 0 0 30 100 78 0
 39 82 101 0 +-1.5367 2.82874132383087 4.96962095060189 -1821231995776175e-31 -.
824331600923871 .56610724400796 16 39 76 102 ?38 103 77 100 0 0 1 30 101 263 0 1
04 100 105 0 +.4699 3.32271626288037 4.6120900236982 -1 0 0 16 104 235 106 ?107
 108 0 101 0 0 1 30 105 262 0 108 101 109 0 +.9017 2.820203718957175 4.957188999
64545 -1821231995776175e-31 -.824331600923871 .56610724400796 16 108 231 95 ?87
 85 104 105 0 0 1 30 109 261 0 85 105 110 0 +.4699 2.317691175033985 5.302287975
5927 -1 0 0 16 85 223 96 ?63 57 108 109 0 0 1 30 110 260 0 57 109 111 0 +-1.5367
 2.820203718957175 4.95718899964545 -1821231995776175e-31 -.824331600923871 .566
10724400796 16 57 219 112 ?54 93 85 110 0 0 1 30 111 284 0 103 110 113 0 +-1.536
7 3.331253867754065 4.62452197465463 0 -.566107244007959 -.824331600923871 16 10
3 268 114 ?36 89 39 111 0 0 1 30 113 285 0 89 111 20 0 +-1.5367 2.32622877990768
 5.31471992654914 0 -.566107244007959 -.824331600923871 16 89 269 67 ?58 26 103
 113 0 0 1 30 20 286 0 26 113 8 0 +.9017 2.32622877990768 5.31471992654914 0 -.5
66107244007959 -.824331600923871 81 1 67 342 31 89 0 0 64 114 115 17 58 0 80 51
 76 52 37 89 0 63 +17 37 0 35 28 54 29 58 89 0 76 -17 63 0 61 56 87 52 51 85 0 0
 +15 61 218 0 62 116 0 17 87 0 61 63 62 50 49 108 0 0 +17 62 0 61 87 56 46 107 1
04 0 0 -17 49 0 86 73 83 46 87 108 0 25 -17 25 0 117 107 91 46 73 11 0 62 +15 11
7 278 0 107 17 0 17 107 0 117 118 25 21 62 104 0 0 +17 91 0 117 25 118 59 40 93
 0 0 -17 118 0 117 91 107 12 36 103 0 0 -17 40 0 69 38 65 12 91 93 0 118 +17 36
 0 35 54 28 21 118 103 0 107 +15 35 272 0 54 119 0 14 255 119 273 120 ?79 84 35
 6 121 +0 0 79 84 23 81 1 120 367 122 119 123 0 124 125 126 14 79 7 125 ?116 119
 69 6 127 +0 0 116 119 23 14 84 275 124 ?119 90 80 6 128 -0 0 119 90 23 50 121 2
80 0 119 129 128 0 +-1.5367 2.82874132383087 4.96962095060189 -1 150129908673195
e-30 -1031012625827964e-31 150129908673195e-30 1 0 13 23 174 0 0 0 0 0 0 10 17 1
4 17 279 130 ?90 0 117 6 7 +0 0 90 0 23 81 1 130 364 122 17 131 0 0 132 133 14 9
0 277 132 ?84 17 86 6 19 -0 0 84 17 23 81 1 132 365 122 90 134 0 130 124 135 50
 19 282 0 90 128 7 0 +.9017 2.82874132383087 4.96962095060189 -1 150129908673195
e-30 -1031012625827964e-31 150129908673195e-30 1 0 50 128 281 0 84 121 19 0 +.46
99 2.32622877990768 5.31471992654914 0 .824331600923871 -.566107244007959 0 -.56
610724400796 -.824331600923872 80 7 CCCCCDI12 legal_owners0 17 1 lCZ1 122 0 136
 8001 0 0 0 0 3 5 0 0 0 FFFFTFTFFFFFFFFFF2 81 1 134 358 31 90 0 132 123 137 138
 81 1 124 366 122 84 137 0 132 120 139 83 255 3 135 .941176470588235 .8745098039
21569 .67843137254902 81 1 137 359 31 84 0 124 134 140 141 83 3 139 .94117647058
8235 .874509803921569 .67843137254902 80 1 31 142 143 9000 0 0 0 0 3 6 0 0 0 FFT
FTFTTFFFFFFFFF1 81 1 140 360 31 1 0 144 137 0 145 82 255 3 141 120 47 2 81 1 144
 361 146 1 140 14 0 0 147 82 3 145 120 7 3 80 1 146 148 149 8038 0 0 0 0 0 0 0 0
 0 TTTTTTTTTTTTTFTFT10 81 1 14 362 148 1 144 2 0 0 150 98 255 8 147 80 97 114 11
6 32 49 55 56 80 1 148 151 152 8017 0 0 0 0 0 0 0 0 0 TTTTTTTTTTTTTFTFT3 84 255
 8 150 Part 17879 255 13 152 SDL/TYSA_NAME79 14 149 SDL/TYSA_UNAME79 9 143 BTI/D
etId81 1 123 357 31 119 0 120 153 134 154 82 3 138 120 46 2 81 1 153 356 31 79 0
 125 155 123 156 82 3 154 120 45 2 81 1 125 368 122 79 153 0 120 157 158 81 1 15
5 355 31 116 0 157 131 153 159 82 3 156 120 44 2 14 116 207 157 ?0 79 61 6 129 -
0 0 0 79 23 81 1 157 369 122 116 155 0 125 0 160 81 1 131 354 31 17 0 130 81 155
 161 82 3 159 120 43 2 81 1 81 353 31 77 0 0 96 131 162 82 3 161 120 42 2 81 1 9
6 352 31 85 0 0 92 81 163 82 3 162 120 99 1 82 3 163 120 98 1 83 3 160 .94117647
0588235 .874509803921569 .67843137254902 50 129 259 0 116 127 121 0 +-.3175 2.17
465501836173 5.40051762535558 0 .56610724400796 .824331600923871 1 0 0 50 127 3
 0 79 0 129 0 +-.3175 2.183192623235425 5.41294957631201 0 .56610724400796 .8243
31600923871 1 0 0 83 3 158 .941176470588235 .874509803921569 .67843137254902 79
 15 136 SDL/TYSA_COLOUR83 3 133 .941176470588235 .874509803921569 .6784313725490
2 83 3 126 .941176470588235 .874509803921569 .67843137254902 81 1 114 343 31 103
 0 0 67 88 164 82 3 115 120 84 1 81 1 88 344 31 26 0 0 114 24 165 82 3 164 120 8
5 1 81 1 24 345 31 11 0 0 88 106 166 82 3 165 120 86 1 81 1 106 346 31 104 0 0 2
4 98 167 82 3 166 120 87 1 81 1 98 347 31 93 0 0 106 112 168 82 3 167 120 92 1 8
1 1 112 348 31 57 0 0 98 102 169 82 3 168 120 93 1 81 1 102 349 31 39 0 0 112 95
 170 82 3 169 120 94 1 81 1 95 350 31 108 0 0 102 92 171 82 3 170 120 95 1 82 3
 171 120 96 1 82 3 97 120 97 1 81 1 33 338 31 50 0 0 27 74 172 81 1 48 340 31 46
 0 0 74 64 173 82 3 75 120 61 0 82 3 173 120 62 0 82 3 172 120 60 0 82 3 68 120
 63 0 81 1 41 335 31 29 0 0 53 32 174 82 3 60 120 58 0 82 3 174 120 57 0 82 3 55
 120 56 0 82 3 34 120 59 0 19 18 289 0 1 0 10 6 0 S0 74 4 CI16 index_map_offset0
 0 1 dCCZ20 16 5 0 0 140 144 14 2 157 0 0 0 0 0 0 0 0 0 0 0 0 0 0 0 80 1 13 122
 175 8040 0 0 0 0 3 5 0 0 0 TTTFFFFFFFFFFFFFF2 83 3 15 .941176470588235 .8745098
03921569 .67843137254902 79 17 175 SDL/TYSA_COLOUR_21 0 
