**ABCDEFGHIJKLMNOPQRSTUVWXYZabcdefghijklmnopqrstuvwxyz**************************
**PARASOLID !"#$%&'()*+,-./:;<=>?@[\]^_`{|}~0123456789**************************
**PART1;
MC=unknown;
MC_MODEL=unknown;
MC_ID=unknown;
OS=unknown;
OS_RELEASE=unknown;
FRU=Parasolid 36.0.180;
APPL=Onshape;
SITE=unknown;
USER=unknown;
FORMAT=text;
GUISE=transmit;
KEY=BTGapi::writeModels_.xmt;
FILE=BTGapi::writeModels_.xmt;
DATE=2024-05-15T00:06:35 (UTC);
**PART2;
SCH=SCH_3600180_36001;
USFLD_SIZE=0;
**PART3;
**END_OF_HEADER*****************************************************************
T51 : TRANSMIT FILE created by modeller version 360018023 SCH_3600180_36001_1300
6231 0 12 36 CCCI7 lattice222 0 CCCI4 mesh1006 0 I8 polyline1008 0 CCCCCCCDI5 ow
ner1040 0 CCCI16 boundary_lattice222 0 CCCI13 boundary_mesh1006 0 I17 boundary_p
olyline1008 0 CCCA16 index_map_offset0 0 1 dA9 index_map82 0 A17 node_id_index_m
ap82 0 A20 schema_embedding_map82 0 A5 child12 0 A14 lowest_node_id0 0 1 dA16 me
sh_offset_data206 0 Z1 830 2 3 0 0 0 0 0 0 0 1e3 1e-8 0 4 5 1 0 1 2 6 0 7 8 9 0
 0 10 11 12 0 0 0 0 0 0 0 81 255 1 2 815 13 1 14 0 0 0 15 70 11 CI9 list_type0 0
 1 uI10 notransmit0 0 1 lCCCDCCDI12 finger_index0 0 1 dI12 finger_block1012 0 CZ
3 0 4 T1 0 0 5 20 1 16 16 13 255 6 181 0 1 0 17 0 0 18 0 50 255 7 176 0 17 19 0
 0 +.09525 .09525 5.8039 0 0 -1 -1 0 0 30 255 8 287 0 11 20 0 0 +.09525 .09525 4
.2799 -1 0 0 29 255 9 310 0 12 21 0 .09525 .09525 5.8039 19 9 CCCCCCI5 frame230
 0 CA5 owner12 0 Z10 77 0 1 18 0 22 0 V0 16 255 11 285 23 ?24 0 25 8 0 0 1 18 25
5 12 306 26 27 0 28 9 ?1 81 1 26 755 29 12 0 0 30 31 32 17 255 27 0 33 34 35 12
 36 37 0 38 -18 28 301 39 40 12 41 21 ?1 81 1 39 757 29 28 0 0 31 42 43 17 40 0
 44 45 46 28 47 48 0 49 -18 41 296 30 34 28 50 51 ?1 29 21 305 0 28 51 9 .09525
 -.09525 5.8039 29 51 300 0 41 52 21 .18415 .09525 5.8039 29 52 263 0 50 53 51 .
18415 -.09525 4.2799 18 50 259 54 55 41 56 52 ?1 29 53 157 0 57 58 52 .18415 -.1
8415 5.8039 18 57 136 59 60 61 62 53 ?1 29 58 158 0 62 63 53 .18415 -.18415 4.27
99 18 62 140 64 65 57 66 58 ?1 29 63 159 0 66 67 58 .18415 .18415 4.2799 18 66 1
44 68 69 62 70 63 ?1 29 67 160 0 70 71 63 .18415 .18415 5.8039 18 70 148 72 73 6
6 74 67 ?1 29 71 73 0 56 75 67 .09525 -.18415 5.8039 18 56 71 76 77 50 78 71 ?1
 29 75 68 0 78 79 71 .09525 -.18415 4.2799 18 78 66 80 81 56 82 75 ?1 29 79 53 0
 82 83 75 .09525 .18415 4.2799 18 82 51 84 85 78 61 79 ?1 29 83 48 0 61 86 79 .0
9525 .18415 5.8039 18 61 46 87 36 82 57 83 ?1 29 86 582 0 74 88 83 .18415 .09525
 4.2799 18 74 475 89 90 70 91 86 ?1 29 88 584 0 91 92 86 .09525 .09525 4.2799 18
 91 480 93 94 74 95 88 ?1 29 92 586 0 95 96 88 .18415 -.09525 5.8039 18 95 474 3
1 46 91 97 92 ?1 29 96 589 0 97 98 92 .09525 -.09525 4.2799 18 97 472 99 100 95
 101 96 ?1 29 98 590 0 101 102 96 .18415 .09525 6.15066021776383 18 101 476 103
 104 97 105 98 ?1 29 102 591 0 105 106 98 .18415 -.09525 6.15066021776383 18 105
 478 107 108 101 109 102 ?1 29 106 592 0 109 110 102 .18415 -2794325426156415e-3
2 6.21607286836624 18 109 485 111 112 105 113 106 ?1 29 110 593 0 113 114 106 .1
8415 .09525 3.99415 18 113 487 115 116 109 117 110 ?1 29 114 594 0 117 118 110 .
18415 -.09525 3.99415 18 117 491 119 120 113 121 114 ?1 29 118 595 0 121 122 114
 .09525 .09525 6.15066021776383 18 121 483 123 124 117 125 118 ?1 29 122 596 0 1
25 126 118 .09525 .09525 3.99415 18 125 481 127 128 121 129 122 ?1 29 126 597 0
 129 130 122 .09525 -.09525 3.99415 18 129 489 131 132 125 133 126 ?1 29 130 598
 0 133 134 126 .09525 -.09525 6.15066021776383 18 133 469 135 136 129 137 130 ?1
 29 134 599 0 137 0 130 .09525 -2794325426156415e-32 6.21607286836624 18 137 493
 138 139 133 0 134 ?1 81 1 138 743 29 137 0 0 111 107 140 17 139 0 141 142 143 1
37 112 144 0 145 -15 255 141 551 0 142 146 0 17 142 0 141 147 139 133 148 149 0
 0 -17 143 0 141 139 147 109 150 151 0 152 +17 112 0 153 154 145 109 139 144 0 1
43 +16 144 444 155 ?112 156 157 158 0 0 1 17 145 0 153 112 124 137 159 160 0 148
 +15 153 535 0 124 161 0 17 124 0 153 145 154 121 104 162 0 159 -17 159 0 163 16
4 148 121 145 160 0 165 -16 160 441 166 ?145 162 167 168 0 0 1 17 148 0 163 159
 136 137 142 149 0 0 +15 163 332 0 49 169 0 17 136 0 163 148 49 133 170 171 0 17
2 +16 149 370 173 ?148 171 0 174 0 0 1 81 1 173 772 29 149 0 0 175 176 177 16 17
1 367 178 ?136 179 149 180 179 179 1 30 174 572 0 149 180 181 0 +.09525 -.047625
 6.18336654306503 0 .824331600923871 .56610724400796 30 180 573 0 179 182 174 0
 +.09525 -.09525 4.90413010888191 0 0 1 30 181 571 0 162 174 183 0 +.095248 .095
25 6.15066021776383 1 0 0 16 162 404 184 ?104 185 160 181 0 0 1 30 183 570 0 185
 181 186 0 +.095248 .09525 3.99415 1 0 0 16 185 450 187 ?188 189 162 183 0 0 1 3
0 186 569 0 189 183 190 0 +.095248 -.09525 3.99415 1 0 0 16 189 456 191 ?120 157
 185 186 0 0 1 30 190 568 0 157 186 158 0 +.095248 -.09525 6.15066021776383 1 0
 0 16 157 462 192 ?147 144 189 190 0 0 1 30 158 567 0 144 190 193 0 +.095248 -27
94325426156415e-32 6.21607286836624 1 0 0 30 193 566 0 48 158 194 0 +.09525 -.09
525 5.8039 1 0 0 16 48 415 195 ?47 196 197 193 0 0 1 30 194 565 0 196 193 198 0
 +.09525 .09525 5.8039 -1 0 0 16 196 401 199 ?38 200 48 194 0 0 1 30 198 13 0 20
1 194 202 0 +.09525 .09525 5.8039 0 1 0 16 201 11 203 ?49 204 37 198 37 37 1 30
 202 18 0 204 198 205 0 +.09525 .18415 6.62813 0 0 -1 16 204 16 206 ?207 208 201
 202 0 0 1 30 205 23 0 209 202 210 0 +.09525 .09525 4.2799 0 1 0 16 209 21 211 ?
212 213 208 205 208 208 1 30 210 38 0 213 205 214 0 +.09525 -.18415 5.0419 0 182
1231995776175e-31 1 16 213 36 215 ?77 216 209 210 0 0 1 30 214 156 0 217 210 218
 0 +.18415 .09525 5.8039 0 1 0 16 217 130 219 ?46 220 200 214 200 200 1 30 218 1
55 0 220 214 221 0 +.18415 .18415 6.62813 0 0 -1 16 220 126 222 ?223 224 217 218
 0 0 1 30 221 154 0 225 218 226 0 +.18415 .09525 4.2799 0 1 0 16 225 120 227 ?22
8 229 224 221 224 224 1 30 226 153 0 229 221 230 0 +.18415 -.18415 5.0419 0 1821
231995776175e-31 1 16 229 116 231 ?60 37 225 226 0 0 1 30 230 177 0 216 226 232
 0 +.09525 -.18415 5.8039 1 0 0 16 216 161 233 ?234 235 213 230 0 0 1 30 232 178
 0 235 230 236 0 +.09525 -.18415 4.2799 1 0 0 16 235 162 237 ?65 238 216 232 0 0
 1 30 236 179 0 238 232 239 0 +.09525 .18415 4.2799 1 0 0 16 238 163 42 ?240 241
 235 236 0 0 1 30 239 180 0 241 236 20 0 +.09525 .18415 5.8039 1 0 0 16 241 164
 242 ?243 25 238 239 0 0 1 30 20 281 0 25 239 8 0 +.09525 -.09525 4.2799 1 0 0 1
6 25 279 244 ?245 11 241 20 0 0 1 81 1 244 778 29 25 0 0 23 199 246 17 245 0 247
 248 212 50 100 25 0 228 +15 247 167 0 212 249 0 17 248 0 247 81 245 62 228 225
 0 0 -17 212 0 247 245 81 97 250 209 0 0 +17 100 0 251 252 55 97 245 25 0 253 -1
7 228 0 254 255 256 50 248 225 0 0 +15 254 115 0 257 258 0 17 255 0 254 259 228
 117 55 260 0 0 -17 256 0 254 228 261 62 60 229 0 248 -17 261 0 254 256 262 57 4
6 217 0 0 -17 60 0 263 264 65 57 256 229 0 234 +15 263 165 0 60 265 0 17 264 0 2
63 266 60 56 234 216 0 45 -17 65 0 263 60 266 62 81 235 0 256 +17 234 0 44 46 45
 57 264 216 0 261 +15 44 312 0 40 267 0 17 46 0 44 40 234 95 261 217 0 47 +17 45
 0 44 234 40 56 49 201 0 0 -17 49 0 163 136 77 28 45 201 0 170 +17 77 0 163 49 2
50 56 266 213 0 264 +17 170 0 268 47 172 28 136 171 0 0 -15 268 523 0 170 269 0
 17 47 0 268 108 170 95 40 48 0 262 +17 172 0 268 170 108 133 147 157 0 142 -17
 108 0 268 172 47 105 262 270 0 147 +17 147 0 141 143 142 105 172 157 0 150 +17
 150 0 254 262 152 105 143 151 0 0 -17 262 0 254 261 150 95 108 270 0 0 -17 152
 0 254 150 271 109 154 197 0 0 +16 151 465 175 ?143 270 156 272 0 0 1 81 1 175 7
71 29 151 0 0 191 173 273 16 270 418 274 ?108 260 151 275 260 260 1 16 156 453 2
76 ?277 151 144 278 0 0 1 30 272 580 0 151 278 275 0 +.18415 -.047625 6.18336654
306503 0 .824331600923871 .56610724400796 30 278 581 0 156 0 272 0 +.18415 -1387
778780781446e-32 3.99415 0 -1 0 30 275 579 0 260 272 279 0 +.18415 -.09525 4.904
13010888191 0 0 1 16 260 459 280 ?55 281 270 275 270 270 1 30 279 578 0 282 275
 283 0 +.18415 .09525 4.96954275948432 0 0 -1 16 282 398 284 ?285 197 281 279 28
1 281 1 30 283 577 0 197 279 168 0 +.18415 .0476249999999994 6.18336654306503 0
 -.824331600923873 .566107244007957 16 197 392 176 ?152 48 282 283 0 0 1 30 168
 576 0 160 283 286 0 +.09525 .0476249999999994 6.18336654306503 0 -.824331600923
873 .566107244007957 30 286 575 0 167 168 182 0 +.09525 .09525 4.96954275948432
 0 0 -1 16 167 373 287 ?164 160 288 286 288 288 1 30 182 574 0 289 286 180 0 +.0
9525 -1387778780781446e-32 3.99415 0 -1 0 16 289 438 290 ?291 288 179 182 0 0 1
 81 1 290 776 29 289 0 0 276 23 292 17 291 0 163 253 128 129 293 289 0 252 +16 2
88 435 294 ?128 167 289 286 167 167 1 16 179 429 295 ?253 289 171 180 171 171 1
 81 1 295 796 29 179 0 0 178 296 297 17 253 0 163 250 291 97 252 179 0 212 +17 2
50 0 163 77 253 78 212 209 0 0 -17 252 0 251 120 100 129 253 179 0 0 -15 251 547
 0 100 298 0 17 120 0 251 55 252 117 132 189 0 277 +17 55 0 251 100 120 50 255 2
60 0 245 +17 132 0 299 293 277 129 120 189 0 291 -17 277 0 299 132 188 117 259 1
56 0 255 +15 299 543 0 293 300 0 17 188 0 299 277 293 113 301 185 0 259 +17 259
 0 254 302 255 113 277 156 0 0 -17 302 0 254 69 259 74 116 281 0 303 -17 69 0 25
4 304 302 66 303 224 0 240 +17 116 0 305 301 90 113 302 281 0 188 +16 281 447 30
6 ?116 282 260 279 282 282 1 17 303 0 307 24 240 74 69 224 0 0 -15 307 280 0 303
 308 0 17 24 0 307 85 303 91 90 11 0 309 +17 240 0 307 303 85 66 310 238 0 223 +
16 224 265 311 ?69 225 220 221 225 225 1 81 1 311 781 29 224 0 0 195 227 312 80
 7 CCCCCDI12 legal_owners0 17 1 lCZ1 29 313 314 9000 0 0 0 0 3 6 0 0 0 FFTFTFTTF
FFFFFFFF1 81 1 195 780 29 48 0 0 199 311 315 81 1 227 782 29 225 0 0 311 316 317
 82 255 3 312 136 62 1 81 1 316 783 29 208 0 0 227 211 318 82 3 317 136 63 1 16
 208 275 316 ?85 209 204 205 209 209 1 81 1 211 784 29 209 0 0 316 319 320 82 3
 318 136 64 1 81 1 319 785 29 200 0 0 211 219 321 82 3 320 136 65 1 16 200 297 3
19 ?73 217 196 214 217 217 1 81 1 219 786 29 217 0 0 319 322 323 82 3 321 136 66
 1 81 1 322 787 29 37 0 0 219 203 324 82 3 323 136 67 1 16 37 307 322 ?36 201 22
9 198 201 201 1 81 1 203 788 29 201 0 0 322 284 325 82 3 324 136 68 1 81 1 284 7
89 29 282 0 0 203 306 326 82 3 325 136 69 1 81 1 306 790 29 281 0 0 284 287 327
 82 3 326 136 70 1 81 1 287 791 29 167 0 0 306 294 328 82 3 327 136 71 1 81 1 29
4 792 29 288 0 0 287 274 329 82 3 328 136 72 1 81 1 274 793 29 270 0 0 294 280 3
30 82 3 329 136 73 1 81 1 280 794 29 260 0 0 274 178 331 82 3 330 136 74 1 81 1
 178 795 29 171 0 0 280 295 332 82 3 331 136 75 1 82 3 332 136 76 1 17 36 0 163
 207 164 61 27 37 0 333 +17 207 0 163 309 36 82 333 204 0 310 +17 164 0 163 36 1
59 12 165 167 0 0 +17 333 0 334 243 310 61 207 204 0 35 -15 334 169 0 223 335 0
 17 243 0 334 223 333 70 35 241 0 0 +17 310 0 334 333 223 82 240 238 0 0 -17 35
 0 33 27 73 61 243 241 0 0 -15 33 317 0 34 17 0 17 73 0 33 35 34 70 257 200 0 30
4 +17 34 0 33 73 27 41 38 196 0 257 -17 257 0 254 271 304 41 73 200 0 285 -17 30
4 0 254 257 69 70 223 220 0 243 -17 223 0 334 310 243 66 304 220 0 0 +17 271 0 2
54 152 257 101 285 282 0 154 -17 285 0 336 38 104 41 271 282 0 0 +15 336 515 0 2
85 337 0 17 38 0 336 165 285 12 34 196 0 164 +17 104 0 336 285 165 101 124 162 0
 271 +17 165 0 336 104 38 121 164 167 0 0 -14 255 337 512 338 ?269 298 336 6 339
 -340 340 269 298 22 81 1 338 827 341 337 342 0 343 344 345 14 269 520 344 ?161
 337 268 6 346 -298 298 161 337 22 14 298 544 343 ?337 340 251 6 346 -269 269 33
7 340 22 50 339 562 0 340 0 347 0 +.095248 .09525 4.96954275948432 0 -1 0 0 0 -1
 14 340 536 348 ?298 300 305 6 339 -337 337 298 300 22 13 22 78 0 0 0 0 0 0 10 1
7 14 17 318 349 ?267 0 33 6 7 -267 267 267 0 22 81 1 349 816 341 17 350 0 0 351
 352 14 267 172 351 ?308 17 44 6 7 -17 17 308 17 22 81 1 351 817 341 267 353 0 3
49 354 355 14 308 288 354 ?249 267 307 6 356 +249 249 249 267 22 81 1 354 818 34
1 308 357 0 351 358 359 14 249 168 358 ?335 308 247 6 356 +308 308 335 308 22 50
 356 174 0 308 360 19 0 +.09525 .09525 4.2799 0 0 -1 -1 0 0 50 360 173 0 265 361
 356 0 +.09525 -.18415 5.0419 0 1 -1821231995776175e-31 0 1821231995776175e-31 1
 50 19 175 0 335 356 7 0 +.09525 .18415 6.62813 0 -1 0 0 0 -1 14 335 170 362 ?26
5 249 334 6 19 -0 0 265 249 22 81 1 362 820 341 335 296 0 358 363 364 14 265 166
 363 ?169 335 263 6 360 -0 0 169 335 22 81 1 363 821 341 265 365 0 362 366 367 1
4 169 1 366 ?258 265 163 6 368 +0 0 258 265 22 81 1 366 822 341 169 369 0 363 37
0 371 14 258 105 370 ?300 169 254 6 361 -0 0 300 169 22 50 368 3 0 169 372 361 0
 +.09525 277555756156289e-31 5.0419 -1 0 0 0 -1 0 50 372 558 0 146 346 368 0 +.0
95248 -.047625 6.18336654306503 0 .56610724400796 -.824331600923871 0 .824331600
923871 .56610724400796 50 361 152 0 258 368 360 0 +.18415 277555756156289e-31 5.
0419 -1 0 0 0 -1 0 14 146 548 373 ?0 161 141 6 372 -0 0 0 161 22 50 346 559 0 29
8 374 372 0 +.095248 -.09525 4.90413010888191 0 1 0 0 0 1 50 374 560 0 161 347 3
46 0 +.095248 .0476249999999994 6.18336654306503 0 .566107244007957 .82433160092
3873 0 -.824331600923873 .566107244007957 14 161 532 375 ?146 269 153 6 374 +0 0
 146 269 22 50 347 561 0 300 339 374 0 +.095248 -1387778780781446e-32 3.99415 0
 0 1 1 0 0 14 300 540 376 ?340 258 299 6 347 -0 0 340 258 22 81 1 376 824 341 30
0 377 0 370 348 378 80 1 341 0 379 8001 0 0 0 0 3 5 0 0 0 FFFFTFTFFFFFFFFFF2 81
 1 377 801 29 300 0 376 380 381 382 81 1 370 823 341 258 381 0 366 376 383 81 1
 348 825 341 340 384 0 376 343 385 83 255 3 378 .764705882352941 .54509803921568
6 .803921568627451 81 1 384 809 29 340 0 348 342 386 387 81 1 343 826 341 298 38
8 0 348 338 389 83 3 385 .764705882352941 .545098039215686 .803921568627451 81 1
 388 811 29 298 0 343 386 390 391 83 3 389 .764705882352941 .545098039215686 .80
3921568627451 81 1 386 810 29 269 0 344 384 388 392 81 1 390 812 29 1 0 393 388
 0 394 82 3 391 136 29 2 81 1 393 813 395 1 390 14 0 0 396 82 3 394 136 1 3 80 1
 395 397 398 8038 0 0 0 0 0 0 0 0 0 TTTTTTTTTTTTTFTFT10 81 1 14 814 397 1 393 2
 0 0 399 98 255 8 396 80 97 114 116 32 50 50 52 80 1 397 400 401 8017 0 0 0 0 0
 0 0 0 0 TTTTTTTTTTTTTFTFT3 84 255 8 399 Part 22479 255 13 401 SDL/TYSA_NAME79 1
4 398 SDL/TYSA_UNAME81 1 344 828 341 269 386 0 338 375 402 82 3 392 136 28 2 81
 1 375 829 341 161 380 0 344 373 403 83 3 402 .764705882352941 .545098039215686
 .803921568627451 81 1 380 800 29 161 0 375 404 377 405 81 1 373 830 341 146 404
 0 375 0 406 83 3 403 .764705882352941 .545098039215686 .803921568627451 81 1 40
4 799 29 146 0 373 365 380 407 83 3 406 .764705882352941 .545098039215686 .80392
1568627451 81 1 365 798 29 265 0 363 296 404 408 82 3 407 136 17 2 81 1 296 797
 29 335 0 362 295 365 409 82 3 408 136 16 2 82 3 409 136 15 2 82 3 405 136 18 2
 81 1 342 808 29 337 0 338 353 384 410 82 3 387 136 27 2 81 1 353 807 29 267 0 3
51 350 342 411 82 3 410 136 26 2 81 1 350 806 29 17 0 349 412 353 413 82 3 411 1
36 25 2 81 1 412 805 29 249 0 358 357 350 414 82 3 413 136 24 2 81 1 358 819 341
 249 412 0 354 362 415 81 1 357 804 29 308 0 354 369 412 416 82 3 414 136 23 2 8
1 1 369 803 29 169 0 366 381 357 417 82 3 416 136 22 2 81 1 381 802 29 258 0 370
 377 369 418 82 3 417 136 21 2 82 3 418 136 20 2 83 3 415 .764705882352941 .5450
98039215686 .803921568627451 83 3 383 .764705882352941 .545098039215686 .8039215
68627451 82 3 382 136 19 2 79 15 379 SDL/TYSA_COLOUR83 3 371 .764705882352941 .5
45098039215686 .803921568627451 83 3 367 .764705882352941 .545098039215686 .8039
21568627451 83 3 364 .764705882352941 .545098039215686 .803921568627451 83 3 359
 .764705882352941 .545098039215686 .803921568627451 83 3 355 .764705882352941 .5
45098039215686 .803921568627451 83 3 352 .764705882352941 .545098039215686 .8039
21568627451 15 305 539 0 90 340 0 17 90 0 305 116 94 74 24 11 0 302 -17 94 0 305
 90 301 91 128 288 0 24 -17 301 0 305 94 116 125 188 185 0 293 -17 128 0 163 291
 309 125 94 288 0 301 +17 309 0 163 128 207 91 85 208 0 0 -17 85 0 307 240 24 82
 309 208 0 207 +17 293 0 299 188 132 125 291 289 0 0 -83 3 345 .764705882352941
 .545098039215686 .803921568627451 17 154 0 153 124 112 101 152 197 0 0 -81 1 19
9 779 29 196 0 0 244 195 419 82 3 315 136 61 1 82 3 419 136 60 1 79 9 314 BTI/De
tId82 3 297 136 77 1 81 1 276 775 29 156 0 0 166 290 420 81 1 23 777 29 11 0 0 2
90 244 421 82 3 292 136 57 1 82 3 421 136 58 1 81 1 166 774 29 160 0 0 176 276 4
22 82 3 420 136 56 1 81 1 176 773 29 197 0 0 173 166 423 82 3 422 136 55 1 82 3
 423 136 54 1 81 1 191 770 29 189 0 0 187 175 424 82 3 273 136 52 1 81 1 187 769
 29 185 0 0 192 191 425 82 3 424 136 51 1 81 1 192 768 29 157 0 0 155 187 426 82
 3 425 136 50 1 81 1 155 767 29 144 0 0 184 192 427 82 3 426 136 49 1 81 1 184 7
66 29 162 0 0 215 155 428 82 3 427 136 48 1 81 1 215 765 29 213 0 0 231 184 429
 82 3 428 136 47 1 81 1 231 764 29 229 0 0 206 215 430 82 3 429 136 46 1 81 1 20
6 763 29 204 0 0 222 231 431 82 3 430 136 45 1 81 1 222 762 29 220 0 0 233 206 4
32 82 3 431 136 44 1 81 1 233 761 29 216 0 0 237 222 433 82 3 432 136 43 1 81 1
 237 760 29 235 0 0 242 233 434 82 3 433 136 42 1 81 1 242 759 29 241 0 0 42 237
 435 82 3 434 136 41 1 81 1 42 758 29 238 0 0 39 242 436 82 3 435 136 40 1 82 3
 436 136 39 1 17 266 0 263 65 264 78 77 213 0 250 -17 81 0 247 212 248 78 65 235
 0 266 -82 3 246 136 59 1 82 3 177 136 53 1 81 1 111 742 29 109 0 0 123 138 437
 81 1 107 744 29 105 0 0 138 135 438 82 3 140 136 37 0 81 1 135 745 29 133 0 0 1
07 115 439 82 3 438 136 38 0 81 1 115 746 29 113 0 0 135 127 440 82 3 439 136 39
 0 81 1 127 747 29 125 0 0 115 119 441 82 3 440 136 40 0 81 1 119 748 29 117 0 0
 127 131 442 82 3 441 136 41 0 81 1 131 749 29 129 0 0 119 89 443 82 3 442 136 4
2 0 81 1 89 750 29 74 0 0 131 93 444 82 3 443 136 43 0 81 1 93 751 29 91 0 0 89
 54 445 82 3 444 136 44 0 81 1 54 752 29 50 0 0 93 99 446 82 3 445 136 45 0 81 1
 99 753 29 97 0 0 54 30 447 82 3 446 136 46 0 81 1 30 754 29 41 0 0 99 26 448 82
 3 447 136 47 0 82 3 448 136 48 0 81 1 123 741 29 121 0 0 103 111 449 82 3 437 1
36 36 0 81 1 103 740 29 101 0 0 76 123 450 82 3 449 136 35 0 81 1 76 739 29 56 0
 0 59 103 451 82 3 450 136 34 0 81 1 59 738 29 57 0 0 80 76 452 82 3 451 136 33
 0 81 1 80 737 29 78 0 0 64 59 453 82 3 452 136 32 0 81 1 64 736 29 62 0 0 87 80
 454 82 3 453 136 31 0 81 1 87 735 29 61 0 0 72 64 455 82 3 454 136 30 0 81 1 72
 734 29 70 0 0 84 87 456 82 3 455 136 29 0 81 1 84 733 29 82 0 0 68 72 457 82 3
 456 136 28 0 81 1 68 732 29 66 0 0 0 84 458 82 3 457 136 27 0 82 3 458 136 26 0
 81 1 31 756 29 95 0 0 26 39 459 82 3 459 136 50 0 82 3 43 136 51 0 82 3 32 136
 49 0 19 18 182 0 1 0 10 6 0 S0 74 4 CI16 index_map_offset0 0 1 dCCZ20 16 5 0 0
 390 393 14 2 373 0 0 0 0 0 0 0 0 0 0 0 0 0 0 0 80 1 13 341 460 8040 0 0 0 0 3 5
 0 0 0 TTTFFFFFFFFFFFFFF2 83 3 15 .764705882352941 .545098039215686 .80392156862
7451 79 17 460 SDL/TYSA_COLOUR_21 0 
