**ABCDEFGHIJKLMNOPQRSTUVWXYZabcdefghijklmnopqrstuvwxyz**************************
**PARASOLID !"#$%&'()*+,-./:;<=>?@[\]^_`{|}~0123456789**************************
**PART1;
MC=unknown;
MC_MODEL=unknown;
MC_ID=unknown;
OS=unknown;
OS_RELEASE=unknown;
FRU=Parasolid 36.0.180;
APPL=Onshape;
SITE=unknown;
USER=unknown;
FORMAT=text;
GUISE=transmit;
KEY=BTGapi::writeModels_.xmt;
FILE=BTGapi::writeModels_.xmt;
DATE=2024-05-15T00:06:35 (UTC);
**PART2;
SCH=SCH_3600180_36001;
USFLD_SIZE=0;
**PART3;
**END_OF_HEADER*****************************************************************
T51 : TRANSMIT FILE created by modeller version 360018023 SCH_3600180_36001_1300
6231 0 12 36 CCCI7 lattice222 0 CCCI4 mesh1006 0 I8 polyline1008 0 CCCCCCCDI5 ow
ner1040 0 CCCI16 boundary_lattice222 0 CCCI13 boundary_mesh1006 0 I17 boundary_p
olyline1008 0 CCCA16 index_map_offset0 0 1 dA9 index_map82 0 A17 node_id_index_m
ap82 0 A20 schema_embedding_map82 0 A5 child12 0 A14 lowest_node_id0 0 1 dA16 me
sh_offset_data206 0 Z1 698 2 3 0 0 0 0 0 0 0 1e3 1e-8 0 4 5 1 0 1 2 6 0 7 8 9 0
 0 10 11 12 0 0 0 0 0 0 0 81 255 1 2 679 13 1 14 0 0 0 15 70 11 CI9 list_type0 0
 1 uI10 notransmit0 0 1 lCCCDCCDI12 finger_index0 0 1 dI12 finger_block1012 0 CZ
3 0 4 T1 0 0 6 20 1 16 16 13 255 6 518 0 1 0 17 0 0 18 0 67 255 7 500 0 19 20 0
 0 +21 -1 0 0 ?30 255 8 517 0 22 23 0 0 +5.0466220607938 1.142035544152488 .2102
12121010506 -1 0 0 29 255 9 416 0 24 25 0 4.9958220607938 1.42039638116492 .3288
995352150395 19 9 CCCCCCI5 frame230 0 CA5 owner12 0 Z10 1 0 1 18 0 26 0 V0 16 25
5 11 442 27 ?28 0 29 30 0 0 1 18 255 12 77 31 32 0 33 34 ?1 81 1 31 573 35 12 0
 0 36 37 38 17 255 32 0 39 40 41 12 42 43 0 44 -18 33 80 45 46 12 47 48 ?1 29 34
 161 0 12 48 49 5.0466220607938 1.42039638116492 .3288995352150395 29 48 160 0 3
3 50 34 5.0466220607938 1.370157380749506 .482344982764829 29 49 432 0 51 34 52
 4.9958220607938 1.142035544152488 .210212121010506 18 51 394 53 54 55 0 49 ?1 2
9 52 431 0 55 49 56 4.9958220607938 1.23355712342165 .1694633686074505 18 55 390
 57 58 59 51 52 ?1 29 56 430 0 59 52 60 4.9958220607938 1.3253752729412 .2100341
788602745 18 59 386 61 62 63 55 56 ?1 29 60 429 0 63 56 64 4.9958220607938 1.356
693091381976 .3288995352150395 18 63 382 65 66 67 59 60 ?1 29 64 428 0 67 60 68
 4.9958220607938 1.3253752729412 .44657861056826 18 67 378 69 70 71 63 64 ?1 29
 68 427 0 71 64 72 4.9958220607938 1.232845354820722 .486793536520621 18 71 374
 73 74 75 67 68 ?1 29 72 426 0 75 68 76 4.9958220607938 1.141679659852024 .44711
2437018955 18 75 370 77 78 79 71 72 ?1 29 76 425 0 79 72 80 4.9958220607938 1.11
0895667861942 .3288995352150395 18 79 366 81 28 82 75 76 ?1 29 80 424 0 82 76 83
 4.9958220607938 1.370394636949814 .173674666162934 18 82 362 37 84 85 79 80 ?1
 29 83 423 0 85 80 86 4.9958220607938 1.232133586219796 .1178601450402622 18 85
 358 87 88 89 82 83 ?1 29 86 422 0 89 83 90 4.9958220607938 1.13533305649376 .14
34838146736246 18 89 354 91 92 93 85 86 ?1 29 90 421 0 93 86 94 4.9958220607938
 1.07008760140881 .216914608669233 18 93 350 95 96 97 89 90 ?1 29 94 420 0 97 90
 98 4.9958220607938 1.047073749978844 .3288995352150395 18 97 346 99 100 101 93
 94 ?1 29 98 419 0 101 94 102 4.9958220607938 1.096778923943562 .483649891866528
 18 101 342 103 104 105 97 98 ?1 29 102 418 0 105 98 25 4.9958220607938 1.234743
404423194 .539108528688736 18 105 338 106 107 108 101 102 ?1 29 25 417 0 108 102
 9 4.9958220607938 1.370157380749506 .482344982764829 18 108 334 109 110 24 105
 25 ?1 81 1 109 588 35 108 0 0 111 45 112 17 110 0 113 114 115 108 46 116 0 117
 +18 24 330 36 42 118 108 9 ?1 81 1 36 572 35 24 0 0 0 31 119 17 42 0 120 117 44
 24 32 43 0 121 +18 118 125 122 123 124 24 125 ?1 81 1 122 593 35 118 0 0 53 57
 126 17 123 0 127 128 129 118 54 22 0 130 -18 124 122 131 132 133 118 134 ?1 29
 125 145 0 118 0 134 5.0466220607938 1.142035544152488 .210212121010506 29 134 1
46 0 124 125 135 5.0466220607938 1.23355712342165 .1694633686074505 29 135 147 0
 133 134 136 5.0466220607938 1.3253752729412 .2100341788602745 18 133 119 137 13
8 139 124 135 ?1 29 136 148 0 139 135 140 5.0466220607938 1.356693091381976 .328
8995352150395 18 139 116 141 142 143 133 136 ?1 29 140 149 0 143 136 144 5.04662
20607938 1.3253752729412 .44657861056826 18 143 113 145 146 147 139 140 ?1 29 14
4 150 0 147 140 148 5.0466220607938 1.232845354820722 .486793536520621 18 147 11
0 149 150 151 143 144 ?1 29 148 151 0 151 144 152 5.0466220607938 1.141679659852
024 .447112437018955 18 151 107 153 154 155 147 148 ?1 29 152 152 0 155 148 156
 5.0466220607938 1.110895667861942 .3288995352150395 18 155 104 157 158 159 151
 152 ?1 29 156 153 0 159 152 160 5.0466220607938 1.370394636949814 .173674666162
934 18 159 101 161 162 163 155 156 ?1 29 160 154 0 163 156 164 5.0466220607938 1
.232133586219796 .1178601450402622 18 163 98 165 166 167 159 160 ?1 29 164 155 0
 167 160 168 5.0466220607938 1.13533305649376 .1434838146736246 18 167 95 169 17
0 171 163 164 ?1 29 168 156 0 171 164 172 5.0466220607938 1.07008760140881 .2169
14608669233 18 171 92 173 174 175 167 168 ?1 29 172 157 0 175 168 176 5.04662206
07938 1.047073749978844 .3288995352150395 18 175 89 177 178 179 171 172 ?1 29 17
6 158 0 179 172 50 5.0466220607938 1.096778923943562 .483649891866528 18 179 86
 180 181 47 175 176 ?1 29 50 159 0 47 176 48 5.0466220607938 1.234743404423194 .
539108528688736 18 47 83 111 182 33 179 50 ?1 81 1 111 587 35 47 0 0 106 109 183
 17 182 0 113 115 114 47 107 184 0 185 -15 255 113 454 0 114 186 0 17 115 0 113
 110 182 33 185 187 0 0 +17 114 0 113 182 110 105 188 189 0 190 -17 107 0 191 19
2 193 105 182 184 0 114 +16 184 435 194 ?107 116 195 196 0 0 1 17 185 0 197 198
 199 47 115 187 0 193 -15 197 7 0 200 201 202 17 198 0 197 203 185 179 193 204 0
 205 -17 199 0 197 185 200 33 44 206 0 115 -16 187 17 207 ?115 206 204 208 0 0 1
 17 193 0 191 107 181 47 198 204 0 0 +15 191 456 0 192 209 0 17 181 0 191 193 19
2 179 104 195 0 198 -16 204 21 210 ?193 187 211 212 0 0 1 81 1 210 636 35 204 21
3 0 214 215 216 16 211 25 217 ?205 204 218 219 0 0 1 134 255 212 141 0 204 219 2
08 220 +221 222 134 219 140 0 211 223 212 224 +225 226 134 208 142 0 187 212 227
 228 +229 230 141 255 220 231 220 220 212 136 255 221 2 3 3 2 5 FFF2 232 233 234
 135 255 222 2 0 45 255 9 232 5.0466220607938 1.096778923943562 .483649891866528
 5.0466220607938 1.14648409790828 .539108528688736 5.0466220607938 1.23474340442
3194 .539108528688736 127 255 4 233 3 3 0 0 128 255 4 234 0 1 ??67 231 487 0 209
 235 236 0 +212 -1 0 0 ?14 255 209 457 237 ?238 186 191 6 231 +0 0 238 186 26 67
 235 486 0 186 239 231 0 +208 -1 0 0 ?67 236 488 0 238 231 240 0 +219 -1 0 0 ?14
 238 459 241 ?242 209 243 6 236 +0 0 242 209 26 67 240 489 0 242 236 244 0 +223
 -1 0 0 ?14 242 461 245 ?246 238 247 6 240 +0 0 246 238 26 67 244 490 0 246 240
 248 0 +249 -1 0 0 ?134 223 139 0 218 249 219 250 +251 252 16 218 29 253 ?254 21
1 255 223 0 0 1 134 249 138 0 255 256 223 257 +258 259 141 250 240 250 250 223 1
36 251 2 3 3 2 5 FFF2 260 261 262 135 252 2 0 45 9 260 5.0466220607938 1.0700876
0140881 .216914608669233 5.0466220607938 1.047073749978844 .264721733031479 5.04
66220607938 1.047073749978844 .3288995352150395 127 4 261 3 3 0 0 128 4 262 0 1
 ??16 255 33 263 ?264 218 265 249 0 0 1 134 256 137 0 265 266 249 267 +268 269 1
41 257 244 257 257 249 136 258 2 3 3 2 5 FFF2 270 271 272 135 259 2 0 45 9 270 5
.0466220607938 1.13533305649376 .1434838146736246 5.0466220607938 1.093101452838
774 .169107484306987 5.0466220607938 1.07008760140881 .216914608669233 127 4 271
 3 3 0 0 128 4 272 0 1 ??16 265 37 273 ?274 255 275 256 0 0 1 134 266 136 0 275
 276 256 277 +278 279 141 267 248 267 267 256 136 268 2 3 3 2 5 FFF2 280 281 282
 135 269 2 0 45 9 280 5.0466220607938 1.232133586219796 .1178601450402622 5.0466
220607938 1.177564660148746 .1178601450402622 5.0466220607938 1.13533305649376 .
1434838146736246 127 4 281 3 3 0 0 128 4 282 0 1 ??67 248 491 0 283 244 284 0 +2
56 -1 0 0 ?14 283 465 285 ?286 246 287 6 248 +0 0 286 246 26 67 284 492 0 286 24
8 288 0 +266 -1 0 0 ?14 286 467 289 ?19 283 290 6 284 +0 0 19 283 26 67 288 493
 0 17 284 291 0 +276 -1 0 0 ?14 17 469 292 ?293 0 294 6 288 +0 0 293 0 26 67 291
 494 0 293 288 295 0 +296 -1 0 0 ?134 276 135 0 297 296 266 298 +299 300 16 297
 45 301 ?302 275 303 276 0 0 1 134 296 134 0 303 304 276 305 +306 307 141 298 28
8 298 298 276 136 299 2 3 3 2 5 FFF2 308 309 310 135 300 2 0 45 9 308 5.04662206
07938 1.110895667861942 .3288995352150395 5.0466220607938 1.110895667861942 .250
960873413562 5.0466220607938 1.142035544152488 .210212121010506 127 4 309 3 3 0
 0 128 4 310 0 1 ??16 303 49 311 ?312 297 313 296 0 0 1 134 304 133 0 313 314 29
6 315 +316 317 141 305 291 305 305 296 136 306 2 3 3 2 5 FFF2 318 319 320 135 30
7 2 0 45 9 318 5.0466220607938 1.141679659852024 .447112437018955 5.046622060793
8 1.110895667861942 .4074313375172895 5.0466220607938 1.110895667861942 .3288995
352150395 127 4 319 3 3 0 0 128 4 320 0 1 ??16 313 53 321 ?322 303 323 304 0 0 1
 134 314 132 0 323 324 304 325 +326 327 141 315 295 315 315 304 136 316 2 3 3 2
 5 FFF2 328 329 330 135 317 2 0 45 9 328 5.0466220607938 1.232845354820722 .4867
93536520621 5.0466220607938 1.172463651842104 .486793536520621 5.0466220607938 1
.141679659852024 .447112437018955 127 4 329 3 3 0 0 128 4 330 0 1 ??67 295 495 0
 331 291 332 0 +304 -1 0 0 ?14 331 473 333 ?334 293 335 6 295 +0 0 334 293 26 67
 332 496 0 334 295 336 0 +314 -1 0 0 ?14 334 475 337 ?338 331 339 6 332 +0 0 338
 331 26 67 336 497 0 338 332 340 0 +324 -1 0 0 ?14 338 477 341 ?342 334 343 6 33
6 +0 0 342 334 26 67 340 498 0 342 336 20 0 +344 -1 0 0 ?134 324 131 0 345 344 3
14 346 +347 348 16 345 61 349 ?350 323 351 324 0 0 1 134 344 130 0 351 352 324 3
53 +354 355 141 346 336 346 346 324 136 347 2 3 3 2 5 FFF2 356 357 358 135 348 2
 0 45 9 356 5.0466220607938 1.356693091381976 .3288995352150395 5.0466220607938
 1.356693091381976 .4063636846158995 5.0466220607938 1.3253752729412 .4465786105
6826 127 4 357 3 3 0 0 128 4 358 0 1 ??16 351 65 359 ?360 345 361 344 0 0 1 134
 352 129 0 361 21 344 362 +363 364 141 353 340 353 353 344 136 354 2 3 3 2 5 FFF
2 365 366 367 135 355 2 0 45 9 365 5.0466220607938 1.3253752729412 .210034178860
2745 5.0466220607938 1.356693091381976 .2506049891130985 5.0466220607938 1.35669
3091381976 .3288995352150395 127 4 366 3 3 0 0 128 4 367 0 1 ??16 361 69 368 ?36
9 351 370 352 0 0 1 134 21 128 0 370 0 352 371 +372 373 141 362 20 362 362 352 1
36 363 2 3 3 2 5 FFF2 374 375 376 135 364 2 0 45 9 374 5.0466220607938 1.2335571
2342165 .1694633686074505 5.0466220607938 1.294057454500422 .1694633686074505 5.
0466220607938 1.3253752729412 .2100341788602745 127 4 375 3 3 0 0 128 4 376 0 1
 ??67 20 499 0 377 340 7 0 +352 -1 0 0 ?14 377 481 378 ?379 342 380 6 20 +0 0 37
9 342 26 81 1 378 686 381 377 382 0 383 384 385 14 379 451 384 ?386 377 39 6 387
 +0 0 386 377 26 14 342 479 383 ?377 338 388 6 340 +0 0 377 338 26 15 380 480 0
 389 377 0 13 26 3 0 0 0 0 0 0 10 17 17 389 0 380 132 62 55 390 391 0 392 -17 13
2 0 380 369 389 124 58 393 0 394 -17 62 0 380 389 369 59 138 395 0 396 +17 390 0
 397 398 392 59 389 391 0 0 +16 391 320 399 ?390 400 401 402 0 0 1 17 392 0 397
 390 403 55 129 401 0 0 +15 397 244 0 403 404 0 17 403 0 397 392 405 51 406 407
 0 0 +17 129 0 127 123 58 51 392 401 0 403 -16 401 325 408 ?392 391 0 409 0 0 1
 81 1 408 643 35 401 410 0 301 411 412 134 409 415 0 401 413 402 0 +414 415 134
 413 144 0 416 227 409 417 +418 419 134 402 414 0 391 409 420 0 +421 422 136 414
 2 3 3 2 5 FFF2 423 424 425 135 415 2 0 45 9 423 4.9958220607938 1.1420355441524
88 .210212121010506 4.9958220607938 1.173175420443032 .1694633686074505 4.995822
0607938 1.23355712342165 .1694633686074505 127 4 424 3 3 0 0 128 4 425 0 1 ??134
 420 413 0 400 402 426 0 +427 428 136 421 2 3 3 2 5 FFF2 429 430 431 135 422 2 0
 45 9 429 4.9958220607938 1.23355712342165 .1694633686074505 4.9958220607938 1.2
94057454500422 .1694633686074505 4.9958220607938 1.3253752729412 .21003417886027
45 127 4 430 3 3 0 0 128 4 431 0 1 ??16 400 315 432 ?398 433 391 420 0 0 1 134 4
26 412 0 433 420 434 0 +435 436 136 427 2 3 3 2 5 FFF2 437 438 439 135 428 2 0 4
5 9 437 4.9958220607938 1.3253752729412 .2100341788602745 4.9958220607938 1.3566
93091381976 .2506049891130985 4.9958220607938 1.356693091381976 .328899535215039
5 127 4 438 3 3 0 0 128 4 439 0 1 ??16 433 310 440 ?441 442 400 426 0 0 1 134 43
4 411 0 442 426 443 0 +444 445 136 435 2 3 3 2 5 FFF2 446 447 448 135 436 2 0 45
 9 446 4.9958220607938 1.356693091381976 .3288995352150395 4.9958220607938 1.356
693091381976 .4063636846158995 4.9958220607938 1.3253752729412 .44657861056826 1
27 4 447 3 3 0 0 128 4 448 0 1 ??16 442 305 449 ?450 451 433 434 0 0 1 134 443 4
10 0 451 434 452 0 +453 454 136 444 2 3 3 2 5 FFF2 455 456 457 135 445 2 0 45 9
 455 4.9958220607938 1.3253752729412 .44657861056826 4.9958220607938 1.294057454
500422 .486793536520621 4.9958220607938 1.232845354820722 .486793536520621 127 4
 456 3 3 0 0 128 4 457 0 1 ??16 451 300 458 ?459 460 442 443 0 0 1 134 452 409 0
 460 443 461 0 +462 463 136 453 2 3 3 2 5 FFF2 464 465 466 135 454 2 0 45 9 464
 4.9958220607938 1.232845354820722 .486793536520621 4.9958220607938 1.1724636518
42104 .486793536520621 4.9958220607938 1.141679659852024 .447112437018955 127 4
 465 3 3 0 0 128 4 466 0 1 ??16 460 295 467 ?405 407 451 452 0 0 1 134 461 408 0
 407 452 468 0 +469 470 136 462 2 3 3 2 5 FFF2 471 472 473 135 463 2 0 45 9 471
 4.9958220607938 1.141679659852024 .447112437018955 4.9958220607938 1.1108956678
61942 .4074313375172895 4.9958220607938 1.110895667861942 .3288995352150395 127
 4 472 3 3 0 0 128 4 473 0 1 ??16 407 290 474 ?403 475 460 461 0 0 1 134 468 407
 0 475 461 476 0 +477 478 136 469 2 3 3 2 5 FFF2 479 480 481 135 470 2 0 45 9 47
9 4.9958220607938 1.110895667861942 .3288995352150395 4.9958220607938 1.11089566
7861942 .250960873413562 4.9958220607938 1.142035544152488 .210212121010506 127
 4 480 3 3 0 0 128 4 481 0 1 ??16 475 285 482 ?483 484 407 468 0 0 1 134 476 406
 0 484 468 485 0 +486 487 136 477 2 3 3 2 5 FFF2 488 489 490 135 478 2 0 45 9 48
8 4.9958220607938 1.370394636949814 .173674666162934 4.9958220607938 1.320392892
734712 .1178601450402622 4.9958220607938 1.232133586219796 .1178601450402622 127
 4 489 3 3 0 0 128 4 490 0 1 ??16 484 280 491 ?492 493 475 476 0 0 1 134 485 405
 0 493 476 494 0 +495 496 136 486 2 3 3 2 5 FFF2 497 498 499 135 487 2 0 45 9 49
7 4.9958220607938 1.232133586219796 .1178601450402622 4.9958220607938 1.17756466
0148746 .1178601450402622 4.9958220607938 1.13533305649376 .1434838146736246 127
 4 498 3 3 0 0 128 4 499 0 1 ??16 493 275 500 ?501 502 484 485 0 0 1 134 494 404
 0 502 485 503 0 +504 505 136 495 2 3 3 2 5 FFF2 506 507 508 135 496 2 0 45 9 50
6 4.9958220607938 1.13533305649376 .1434838146736246 4.9958220607938 1.093101452
838774 .169107484306987 4.9958220607938 1.07008760140881 .216914608669233 127 4
 507 3 3 0 0 128 4 508 0 1 ??16 502 270 509 ?510 511 493 494 0 0 1 134 503 403 0
 511 494 512 0 +513 514 136 504 2 3 3 2 5 FFF2 515 516 517 135 505 2 0 45 9 515
 4.9958220607938 1.07008760140881 .216914608669233 4.9958220607938 1.04707374997
8844 .264721733031479 4.9958220607938 1.047073749978844 .3288995352150395 127 4
 516 3 3 0 0 128 4 517 0 1 ??16 511 265 518 ?519 520 502 503 0 0 1 134 512 402 0
 520 503 521 0 +522 523 136 513 2 3 3 2 5 FFF2 524 525 526 135 514 2 0 45 9 524
 4.9958220607938 1.047073749978844 .3288995352150395 4.9958220607938 1.047073749
978844 .4281912550443195 4.9958220607938 1.096778923943562 .483649891866528 127
 4 525 3 3 0 0 128 4 526 0 1 ??16 520 260 214 ?190 189 511 512 0 0 1 134 521 401
 0 189 512 527 0 +528 529 136 522 2 3 3 2 5 FFF2 530 531 532 135 523 2 0 45 9 53
0 4.9958220607938 1.096778923943562 .483649891866528 4.9958220607938 1.146484097
90828 .539108528688736 4.9958220607938 1.234743404423194 .539108528688736 127 4
 531 3 3 0 0 128 4 532 0 1 ??16 189 255 215 ?188 533 520 521 0 0 1 134 527 400 0
 533 521 534 0 +535 536 136 528 2 3 3 2 5 FFF2 537 538 539 135 529 2 0 45 9 537
 4.9958220607938 1.234743404423194 .539108528688736 4.9958220607938 1.3199183803
34094 .539108528688736 4.9958220607938 1.370157380749506 .482344982764829 127 4
 538 3 3 0 0 128 4 539 0 1 ??16 533 250 540 ?121 541 189 527 0 0 1 134 534 399 0
 541 527 542 0 +543 544 136 535 2 3 3 2 5 FFF2 545 546 547 135 536 2 0 45 9 545
 4.9958220607938 1.370157380749506 .482344982764829 4.9958220607938 1.4203963811
6492 .425581436840921 4.9958220607938 1.42039638116492 .3288995352150395 127 4 5
46 3 3 0 0 128 4 547 0 1 ??16 541 245 548 ?549 370 533 534 0 0 1 30 542 501 0 43
 534 550 0 +5.0466220607938 1.42039638116492 .3288995352150395 -1 0 0 136 543 2
 3 3 2 5 FFF2 551 552 553 135 544 2 0 45 9 551 4.9958220607938 1.42039638116492
 .3288995352150395 4.9958220607938 1.42039638116492 .2294891872856055 4.99582206
07938 1.370394636949814 .173674666162934 127 4 552 3 3 0 0 128 4 553 0 1 ??16 43
 433 554 ?42 22 116 542 0 0 1 30 550 502 0 116 542 196 0 +5.0466220607938 1.3701
57380749506 .482344982764829 -1 0 0 16 116 434 555 ?110 43 184 550 0 0 1 30 196
 503 0 184 550 556 0 +5.0466220607938 1.234743404423194 .539108528688736 -1 0 0
 30 556 504 0 195 196 557 0 +5.0466220607938 1.096778923943562 .483649891866528
 -1 0 0 16 195 436 558 ?104 184 559 556 0 0 1 30 557 505 0 559 556 560 0 +5.0466
220607938 1.047073749978844 .3288995352150395 -1 0 0 16 559 437 561 ?100 195 562
 557 0 0 1 30 560 506 0 562 557 563 0 +5.0466220607938 1.07008760140881 .2169146
08669233 -1 0 0 16 562 438 564 ?96 559 565 560 0 0 1 30 563 507 0 565 560 566 0
 +5.0466220607938 1.13533305649376 .1434838146736246 -1 0 0 16 565 439 567 ?92 5
62 568 563 0 0 1 30 566 508 0 568 563 569 0 +5.0466220607938 1.232133586219796 .
1178601450402622 -1 0 0 16 568 440 570 ?88 565 571 566 0 0 1 30 569 509 0 571 56
6 30 0 +5.0466220607938 1.370394636949814 .173674666162934 -1 0 0 16 571 441 572
 ?84 568 416 569 0 0 1 30 30 510 0 11 569 573 0 +5.0466220607938 1.1108956678619
42 .3288995352150395 -1 0 0 30 573 511 0 29 30 574 0 +5.0466220607938 1.14167965
9852024 .447112437018955 -1 0 0 16 29 443 575 ?78 11 576 573 0 0 1 30 574 512 0
 576 573 577 0 +5.0466220607938 1.232845354820722 .486793536520621 -1 0 0 16 576
 444 578 ?74 29 579 574 0 0 1 30 577 513 0 579 574 580 0 +5.0466220607938 1.3253
752729412 .44657861056826 -1 0 0 16 579 445 581 ?70 576 582 577 0 0 1 30 580 514
 0 582 577 583 0 +5.0466220607938 1.356693091381976 .3288995352150395 -1 0 0 16
 582 446 584 ?66 579 395 580 0 0 1 30 583 515 0 395 580 23 0 +5.0466220607938 1.
3253752729412 .2100341788602745 -1 0 0 16 395 447 585 ?62 582 393 583 0 0 1 30 2
3 516 0 393 583 8 0 +5.0466220607938 1.23355712342165 .1694633686074505 -1 0 0 1
6 393 448 586 ?58 395 22 23 0 0 1 81 1 586 617 35 393 0 0 587 585 588 17 58 0 12
7 129 128 55 132 393 0 389 +16 22 449 587 ?54 393 43 8 0 0 1 81 1 587 616 35 22
 0 0 27 586 589 17 54 0 294 406 302 51 123 22 0 129 +15 294 468 0 406 17 0 17 40
6 0 294 158 54 79 403 407 0 0 -17 302 0 294 54 158 118 590 297 0 0 +17 158 0 294
 302 406 155 28 11 0 312 -17 590 0 202 591 130 155 302 297 0 0 -15 202 8 0 590 2
01 0 17 591 0 202 592 590 151 312 303 0 322 -17 130 0 202 590 394 118 128 370 0
 302 -17 394 0 202 130 593 124 369 361 0 128 -17 128 0 127 58 123 124 130 370 0
 0 +16 370 73 411 ?128 361 541 21 0 0 1 81 1 411 644 35 370 594 0 408 399 595 80
 7 CCCCCDI12 legal_owners0 17 1 lCZ1 35 596 597 9000 0 0 0 0 3 6 0 0 0 FFTFTFTTF
FFFFFFFF1 81 1 594 74 598 370 0 411 599 600 601 81 1 399 645 35 391 602 0 411 36
8 603 82 255 3 595 159 398 1 81 1 602 322 598 391 0 399 604 410 605 81 1 368 646
 35 361 599 0 399 432 606 82 3 603 159 399 1 81 1 599 70 598 361 0 368 607 594 6
08 81 1 432 647 35 400 604 0 368 359 609 82 3 606 159 400 1 81 1 604 317 598 400
 0 432 610 602 611 81 1 359 648 35 351 607 0 432 440 612 82 3 609 159 401 1 81 1
 607 66 598 351 0 359 613 599 614 81 1 440 649 35 433 610 0 359 349 615 82 3 612
 159 402 1 81 1 610 312 598 433 0 440 616 604 617 81 1 349 650 35 345 613 0 440
 449 618 82 3 615 159 403 1 81 1 613 62 598 345 0 349 619 607 620 81 1 449 651 3
5 442 616 0 349 621 622 82 3 618 159 404 1 81 1 616 307 598 442 0 449 623 610 62
4 81 1 621 652 35 323 619 0 449 458 625 82 3 622 159 405 1 16 323 57 621 ?626 31
3 345 314 0 0 1 81 1 619 58 598 323 0 621 627 613 628 81 1 458 653 35 451 623 0
 621 321 629 82 3 625 159 406 1 81 1 623 302 598 451 0 458 630 616 631 81 1 321
 654 35 313 627 0 458 467 632 82 3 629 159 407 1 81 1 627 54 598 313 0 321 633 6
19 634 81 1 467 655 35 460 630 0 321 311 635 82 3 632 159 408 1 81 1 630 297 598
 460 0 467 636 623 637 81 1 311 656 35 303 633 0 467 638 639 82 3 635 159 409 1
 81 1 633 50 598 303 0 311 640 627 641 81 1 638 657 35 379 0 384 311 642 643 82
 3 639 159 410 1 81 1 384 687 381 379 638 0 378 644 645 81 1 642 658 35 404 0 64
6 638 647 648 82 3 643 159 126 2 14 404 223 646 ?0 201 649 6 650 -0 0 0 201 26 8
1 1 646 698 381 404 642 0 651 0 652 81 1 647 659 35 201 0 651 642 653 654 82 3 6
48 159 127 2 14 201 4 651 ?404 19 197 6 655 +0 0 404 19 26 81 1 651 697 381 201
 647 0 656 646 657 81 1 653 660 35 286 0 289 647 658 659 82 3 654 159 128 2 81 1
 289 695 381 286 653 0 285 656 660 81 1 658 661 35 283 0 285 653 661 662 82 3 65
9 159 129 2 81 1 285 694 381 283 658 0 663 289 664 81 1 661 662 35 246 0 663 658
 665 666 82 3 662 159 130 2 14 246 463 663 ?283 242 667 6 244 +0 0 283 242 26 81
 1 663 693 381 246 661 0 245 285 668 81 1 665 663 35 242 0 245 661 669 670 82 3
 666 159 131 2 81 1 245 692 381 242 665 0 241 663 671 81 1 669 664 35 238 0 241
 665 672 673 82 3 670 159 132 2 81 1 241 691 381 238 669 0 237 245 674 81 1 672
 665 35 209 0 237 669 675 676 82 3 673 159 133 2 81 1 237 690 381 209 672 0 677
 241 678 81 1 675 666 35 186 0 677 672 679 680 82 3 676 159 134 2 14 186 455 677
 ?209 386 113 6 235 +0 0 209 386 26 81 1 677 689 381 186 675 0 644 237 681 81 1
 679 667 35 386 0 644 675 682 683 82 3 680 159 135 2 14 386 453 644 ?186 379 120
 6 239 +0 0 186 379 26 81 1 644 688 381 386 679 0 384 677 684 81 1 682 668 35 17
 0 292 679 685 686 82 3 683 159 136 2 81 1 292 680 381 17 682 0 0 687 688 81 1 6
85 669 35 19 0 656 682 382 689 82 3 686 159 137 2 14 19 483 656 ?201 286 127 6 7
 +0 0 201 286 26 81 1 656 696 381 19 685 0 289 651 690 81 1 382 670 35 377 0 378
 685 691 692 82 3 689 159 138 2 81 1 691 671 35 342 0 383 382 693 694 82 3 692 1
59 139 2 81 1 383 685 381 342 691 0 341 378 695 81 1 693 672 35 338 0 341 691 69
6 697 82 3 694 159 140 2 81 1 341 684 381 338 693 0 337 383 698 81 1 696 673 35
 334 0 337 693 699 700 82 3 697 159 141 2 81 1 337 683 381 334 696 0 333 341 701
 81 1 699 674 35 331 0 333 696 702 703 82 3 700 159 142 2 81 1 333 682 381 331 6
99 0 687 337 704 81 1 702 675 35 293 0 687 699 705 706 82 3 703 159 143 2 14 293
 471 687 ?331 17 707 6 291 +0 0 331 17 26 81 1 687 681 381 293 702 0 292 333 708
 81 1 705 676 35 1 0 709 702 0 710 82 3 706 159 144 2 81 1 709 677 711 1 705 14
 0 0 712 82 3 710 159 5 3 80 1 711 713 714 8038 0 0 0 0 0 0 0 0 0 TTTTTTTTTTTTTF
TFT10 81 1 14 678 713 1 709 2 0 0 715 98 255 8 712 80 97 114 116 32 51 48 48 80
 1 713 716 717 8017 0 0 0 0 0 0 0 0 0 TTTTTTTTTTTTTFTFT3 84 255 8 715 Part 30079
 255 13 717 SDL/TYSA_NAME79 14 714 SDL/TYSA_UNAME80 1 381 0 718 8001 0 0 0 0 3 5
 0 0 0 FFFFTFTFFFFFFFFFF2 83 255 3 708 .917647058823529 .917647058823529 .917647
058823529 79 15 718 SDL/TYSA_COLOUR15 707 470 0 719 293 0 17 719 0 707 154 28 75
 405 460 0 459 -17 154 0 707 312 719 151 78 29 0 591 -17 28 0 707 719 312 79 158
 11 0 405 +17 405 0 397 403 459 79 719 460 0 406 +17 459 0 397 405 450 75 720 45
1 0 0 +17 450 0 397 459 441 71 721 442 0 0 +17 720 0 335 150 78 71 459 451 0 450
 -15 335 472 0 720 331 0 17 150 0 335 322 720 147 74 576 0 592 -17 78 0 335 720
 322 75 154 29 0 719 +17 322 0 335 78 150 151 592 313 0 0 +17 592 0 202 722 591
 147 322 313 0 626 -17 722 0 202 723 592 143 626 323 0 350 -17 626 0 339 74 146
 147 722 323 0 0 +15 339 474 0 721 334 0 17 74 0 339 721 626 71 150 576 0 720 +1
7 146 0 339 626 721 143 70 579 0 722 -17 721 0 339 146 74 67 450 442 0 441 -17 7
0 0 343 724 350 67 146 579 0 721 +15 343 476 0 724 338 0 17 724 0 343 142 70 63
 441 433 0 398 -17 350 0 343 70 142 143 723 345 0 0 +17 142 0 343 350 724 139 66
 582 0 723 -17 723 0 202 593 722 139 350 345 0 360 -17 593 0 202 394 723 133 360
 351 0 369 -17 360 0 388 66 138 139 593 351 0 0 +15 388 478 0 396 342 0 17 66 0
 388 396 360 63 142 582 0 724 +17 138 0 388 360 396 133 62 395 0 593 -17 396 0 3
88 138 66 59 398 400 0 390 -17 398 0 397 441 390 63 396 400 0 0 +17 441 0 397 45
0 398 67 724 433 0 0 +17 369 0 380 62 132 133 394 361 0 0 +17 312 0 707 28 154 1
55 591 303 0 590 +83 3 704 .917647058823529 .917647058823529 .917647058823529 83
 3 701 .917647058823529 .917647058823529 .917647058823529 83 3 698 .917647058823
529 .917647058823529 .917647058823529 83 3 695 .917647058823529 .917647058823529
 .917647058823529 83 3 690 .917647058823529 .917647058823529 .917647058823529 15
 127 482 0 129 19 0 83 3 688 .917647058823529 .917647058823529 .917647058823529
 83 3 684 .917647058823529 .917647058823529 .917647058823529 15 120 452 0 117 38
6 0 67 239 485 0 386 387 235 0 +227 -1 0 0 ?67 387 484 0 379 650 239 0 +413 -1 0
 0 ?134 227 143 0 206 208 413 725 +726 727 16 206 13 728 ?44 416 187 227 0 0 1 1
41 725 239 725 725 227 136 726 2 3 3 2 5 FFF2 729 730 731 135 727 2 0 45 9 729 5
.0466220607938 1.370157380749506 .482344982764829 5.0466220607938 1.420396381164
92 .425581436840921 5.0466220607938 1.42039638116492 .3288995352150395 127 4 730
 3 3 0 0 128 4 731 0 1 ??81 1 728 640 35 206 732 0 540 474 733 17 44 0 120 42 46
 12 199 206 0 200 +16 416 9 734 ?40 571 206 413 0 0 1 81 1 734 624 35 416 735 0
 548 482 736 17 40 0 39 84 32 159 200 416 0 0 +15 39 450 0 41 379 0 17 84 0 39 4
1 40 82 162 571 0 737 +17 200 0 197 199 738 12 40 416 0 0 -17 738 0 197 200 739
 159 740 275 0 40 -17 739 0 197 738 741 163 274 265 0 740 -17 740 0 290 88 162 1
63 738 275 0 0 +16 275 41 742 ?740 265 297 266 0 0 1 81 1 742 626 35 275 743 0 4
82 491 744 81 1 743 42 598 275 0 742 745 640 746 81 1 482 625 35 475 747 0 734 7
42 748 81 1 491 627 35 484 749 0 742 273 750 82 3 744 159 380 1 81 1 749 282 598
 484 0 491 751 747 752 81 1 273 628 35 265 745 0 491 500 753 82 3 750 159 381 1
 81 1 745 38 598 265 0 273 754 743 755 81 1 500 629 35 493 751 0 273 263 756 82
 3 753 159 382 1 81 1 751 277 598 493 0 500 757 749 758 81 1 263 630 35 255 754
 0 500 509 759 82 3 756 159 383 1 81 1 754 34 598 255 0 263 760 745 761 81 1 509
 631 35 502 757 0 263 253 762 82 3 759 159 384 1 81 1 757 272 598 502 0 509 763
 751 764 81 1 253 632 35 218 760 0 509 518 765 82 3 762 159 385 1 81 1 760 30 59
8 218 0 253 766 754 767 81 1 518 633 35 511 763 0 253 217 768 82 3 765 159 386 1
 81 1 763 267 598 511 0 518 769 757 770 81 1 217 634 35 211 766 0 518 214 771 82
 3 768 159 387 1 81 1 766 26 598 211 0 217 213 760 772 81 1 214 635 35 520 769 0
 217 210 773 82 3 771 159 388 1 81 1 769 262 598 520 0 214 774 763 775 82 3 773
 159 389 1 80 1 598 776 777 9000 0 0 0 0 3 5 0 0 0 FFTFTFTTFFFFFFFFF3 81 1 774 2
57 598 189 0 215 778 769 779 84 35 775 PQoVoHnCctcR.sketch_text.stroke-12281 1 2
15 637 35 189 774 0 210 207 780 81 1 778 252 598 533 0 540 600 774 781 84 35 779
 PQoVoHnCctcR.sketch_text.stroke-12381 1 540 639 35 533 778 0 207 728 782 81 1 6
00 247 598 541 0 548 594 778 783 84 35 781 PQoVoHnCctcR.sketch_text.stroke-12481
 1 548 623 35 541 600 0 575 734 784 84 35 783 PQoVoHnCctcR.sketch_text.stroke-11
681 1 575 622 35 29 0 0 578 548 785 82 3 784 159 377 1 81 1 578 621 35 576 0 0 5
81 575 786 82 3 785 159 132 1 81 1 581 620 35 579 0 0 584 578 787 82 3 786 159 1
31 1 81 1 584 619 35 582 0 0 585 581 788 82 3 787 159 130 1 81 1 585 618 35 395
 0 0 586 584 789 82 3 788 159 129 1 82 3 789 159 128 1 81 1 207 638 35 187 790 0
 215 540 791 82 3 782 159 393 1 81 1 790 18 598 187 0 207 732 213 792 82 3 791 1
59 392 1 81 1 732 14 598 206 0 728 735 790 793 81 1 213 22 598 204 0 210 790 766
 794 84 35 792 PQoVoHnCctcR.sketch_text.stroke-12384 35 794 PQoVoHnCctcR.sketch_
text.stroke-12281 1 735 10 598 416 0 734 0 732 795 84 35 793 PQoVoHnCctcR.sketch
_text.stroke-12484 35 795 PQoVoHnCctcR.sketch_text.stroke-11682 3 780 159 391 1
 79 27 777 BTI/ImprintedSketchEntityId84 35 772 PQoVoHnCctcR.sketch_text.stroke-
12184 35 770 PQoVoHnCctcR.sketch_text.stroke-12184 35 767 PQoVoHnCctcR.sketch_te
xt.stroke-12084 35 764 PQoVoHnCctcR.sketch_text.stroke-12084 35 761 PQoVoHnCctcR
.sketch_text.stroke-11984 35 758 PQoVoHnCctcR.sketch_text.stroke-11984 35 755 PQ
oVoHnCctcR.sketch_text.stroke-11881 1 747 287 598 475 0 482 749 636 796 84 35 75
2 PQoVoHnCctcR.sketch_text.stroke-11881 1 636 292 598 407 0 474 747 630 797 84 3
5 796 PQoVoHnCctcR.sketch_text.stroke-11781 1 474 641 35 407 636 0 728 301 798 8
4 35 797 PQoVoHnCctcR.sketch_text.stroke-12581 1 301 642 35 297 640 0 474 408 79
9 82 3 798 159 395 1 81 1 640 46 598 297 0 301 743 633 800 82 3 799 159 396 1 84
 35 800 PQoVoHnCctcR.sketch_text.stroke-12582 3 748 159 379 1 84 35 746 PQoVoHnC
ctcR.sketch_text.stroke-11715 290 466 0 737 286 0 17 88 0 290 737 740 85 166 568
 0 801 +17 162 0 290 740 737 159 84 571 0 738 -17 737 0 290 162 88 82 483 475 0
 549 -17 483 0 649 492 549 85 737 475 0 0 +17 549 0 649 483 121 82 41 541 0 0 +1
5 649 243 0 549 404 397 17 121 0 649 549 188 24 117 533 0 41 +17 41 0 39 32 84 2
4 549 541 0 0 -17 188 0 649 121 190 108 114 189 0 0 +17 117 0 120 46 42 108 121
 533 0 188 -17 46 0 120 44 117 33 110 116 0 199 -17 190 0 649 188 519 105 192 52
0 0 0 +17 519 0 649 190 510 101 802 511 0 0 +17 192 0 191 181 107 101 190 520 0
 519 -17 510 0 649 519 501 97 803 502 0 0 +17 802 0 243 178 104 97 519 511 0 510
 -15 243 458 0 802 238 0 17 178 0 243 205 802 175 100 559 0 203 -17 104 0 243 80
2 205 101 181 195 0 192 +17 205 0 243 104 178 179 203 211 0 0 +17 203 0 197 804
 198 175 205 211 0 254 -17 804 0 197 741 203 171 254 218 0 264 -17 254 0 247 100
 174 175 804 218 0 0 +15 247 460 0 803 242 0 17 100 0 247 803 254 97 178 559 0 8
02 +17 174 0 247 254 803 171 96 562 0 804 -17 803 0 247 174 100 93 510 502 0 501
 -17 96 0 667 805 264 93 174 562 0 803 +15 667 462 0 805 246 0 17 805 0 667 170
 96 89 501 493 0 492 -17 264 0 667 96 170 171 741 255 0 0 +17 170 0 667 264 805
 167 92 565 0 741 -17 741 0 197 739 804 167 264 255 0 274 -17 274 0 287 92 166 1
67 739 265 0 0 +15 287 464 0 801 283 0 17 92 0 287 801 274 89 170 565 0 805 +17
 166 0 287 274 801 163 88 568 0 739 -17 801 0 287 166 92 85 492 484 0 483 -17 49
2 0 649 501 483 89 801 484 0 0 +17 501 0 649 510 492 93 805 493 0 0 +82 3 736 15
9 378 1 82 3 733 159 394 1 50 255 650 398 0 404 655 387 0 +4.9958220607938 0 .40
64 1 0 0 0 1 0 50 655 162 0 201 0 650 0 +5.0466220607938 0 .4064 1 0 0 0 1 0 83
 3 681 .917647058823529 .917647058823529 .917647058823529 83 3 678 .917647058823
529 .917647058823529 .917647058823529 83 3 674 .917647058823529 .917647058823529
 .917647058823529 83 3 671 .917647058823529 .917647058823529 .917647058823529 83
 3 668 .917647058823529 .917647058823529 .917647058823529 83 3 664 .917647058823
529 .917647058823529 .917647058823529 83 3 660 .917647058823529 .917647058823529
 .917647058823529 83 3 657 .917647058823529 .917647058823529 .917647058823529 83
 3 652 .917647058823529 .917647058823529 .917647058823529 83 3 645 .917647058823
529 .917647058823529 .917647058823529 84 35 641 PQoVoHnCctcR.sketch_text.stroke-
13284 35 637 PQoVoHnCctcR.sketch_text.stroke-13284 35 634 PQoVoHnCctcR.sketch_te
xt.stroke-13184 35 631 PQoVoHnCctcR.sketch_text.stroke-13184 35 628 PQoVoHnCctcR
.sketch_text.stroke-13084 35 624 PQoVoHnCctcR.sketch_text.stroke-13084 35 620 PQ
oVoHnCctcR.sketch_text.stroke-12984 35 617 PQoVoHnCctcR.sketch_text.stroke-12984
 35 614 PQoVoHnCctcR.sketch_text.stroke-12884 35 611 PQoVoHnCctcR.sketch_text.st
roke-12884 35 608 PQoVoHnCctcR.sketch_text.stroke-12781 1 410 327 598 401 0 408
 602 0 806 84 35 605 PQoVoHnCctcR.sketch_text.stroke-12784 35 806 PQoVoHnCctcR.s
ketch_text.stroke-12684 35 601 PQoVoHnCctcR.sketch_text.stroke-12679 9 597 BTI/D
etId81 1 27 615 35 11 0 0 555 587 807 82 3 589 159 126 1 81 1 555 614 35 116 0 0
 194 27 808 82 3 807 159 125 1 81 1 194 613 35 184 0 0 558 555 809 82 3 808 159
 124 1 81 1 558 612 35 195 0 0 561 194 810 82 3 809 159 123 1 81 1 561 611 35 55
9 0 0 564 558 811 82 3 810 159 122 1 81 1 564 610 35 562 0 0 567 561 812 82 3 81
1 159 121 1 81 1 567 609 35 565 0 0 570 564 813 82 3 812 159 120 1 81 1 570 608
 35 568 0 0 572 567 814 82 3 813 159 119 1 81 1 572 607 35 571 0 0 554 570 815 8
2 3 814 159 118 1 81 1 554 606 35 43 0 0 153 572 816 82 3 815 159 117 1 81 1 153
 605 35 151 0 0 77 554 817 82 3 816 159 116 1 81 1 77 604 35 75 0 0 149 153 818
 82 3 817 159 265 0 81 1 149 603 35 147 0 0 73 77 819 82 3 818 159 264 0 81 1 73
 602 35 71 0 0 145 149 820 82 3 819 159 263 0 81 1 145 601 35 143 0 0 69 73 821
 82 3 820 159 262 0 81 1 69 600 35 67 0 0 141 145 822 82 3 821 159 261 0 81 1 14
1 599 35 139 0 0 65 69 823 82 3 822 159 260 0 81 1 65 598 35 63 0 0 137 141 824
 82 3 823 159 259 0 81 1 137 597 35 133 0 0 61 65 825 82 3 824 159 258 0 81 1 61
 596 35 59 0 0 131 137 826 82 3 825 159 257 0 81 1 131 595 35 124 0 0 57 61 827
 82 3 826 159 256 0 81 1 57 594 35 55 0 0 122 131 828 82 3 827 159 255 0 82 3 82
8 159 254 0 82 3 588 159 127 1 141 417 387 417 417 413 136 418 2 3 3 2 5 FFF2 82
9 830 831 135 419 2 0 45 9 829 5.0466220607938 1.42039638116492 .328899535215039
5 5.0466220607938 1.42039638116492 .2294891872856055 5.0466220607938 1.370394636
949814 .173674666162934 127 4 830 3 3 0 0 128 4 831 0 1 ??82 3 412 159 397 1 83
 3 385 .917647058823529 .917647058823529 .917647058823529 141 371 7 371 371 21 1
36 372 2 3 3 2 5 FFF2 832 833 834 135 373 2 0 45 9 832 5.0466220607938 1.1420355
44152488 .210212121010506 5.0466220607938 1.173175420443032 .1694633686074505 5.
0466220607938 1.23355712342165 .1694633686074505 127 4 833 3 3 0 0 128 4 834 0 1
 ??141 325 332 325 325 314 136 326 2 3 3 2 5 FFF2 835 836 837 135 327 2 0 45 9 8
35 5.0466220607938 1.3253752729412 .44657861056826 5.0466220607938 1.29405745450
0422 .486793536520621 5.0466220607938 1.232845354820722 .486793536520621 127 4 8
36 3 3 0 0 128 4 837 0 1 ??141 277 284 277 277 266 136 278 2 3 3 2 5 FFF2 838 83
9 840 135 279 2 0 45 9 838 5.0466220607938 1.370394636949814 .173674666162934 5.
0466220607938 1.320392892734712 .1178601450402622 5.0466220607938 1.232133586219
796 .1178601450402622 127 4 839 3 3 0 0 128 4 840 0 1 ??141 228 235 228 228 208
 136 229 2 3 3 2 5 FFF2 841 842 843 135 230 2 0 45 9 841 5.0466220607938 1.23474
3404423194 .539108528688736 5.0466220607938 1.319918380334094 .539108528688736 5
.0466220607938 1.370157380749506 .482344982764829 127 4 842 3 3 0 0 128 4 843 0
 1 ??141 224 236 224 224 219 136 225 2 3 3 2 5 FFF2 844 845 846 135 226 2 0 45 9
 844 5.0466220607938 1.047073749978844 .3288995352150395 5.0466220607938 1.04707
3749978844 .4281912550443195 5.0466220607938 1.096778923943562 .483649891866528
 127 4 845 3 3 0 0 128 4 846 0 1 ??82 3 216 159 390 1 81 1 106 586 35 105 0 0 18
0 111 847 82 3 183 159 247 0 81 1 180 585 35 179 0 0 103 106 848 82 3 847 159 24
6 0 81 1 103 584 35 101 0 0 177 180 849 82 3 848 159 245 0 81 1 177 583 35 175 0
 0 99 103 850 82 3 849 159 244 0 81 1 99 582 35 97 0 0 173 177 851 82 3 850 159
 243 0 81 1 173 581 35 171 0 0 95 99 852 82 3 851 159 242 0 81 1 95 580 35 93 0
 0 169 173 853 82 3 852 159 241 0 81 1 169 579 35 167 0 0 91 95 854 82 3 853 159
 240 0 81 1 91 578 35 89 0 0 165 169 855 82 3 854 159 239 0 81 1 165 577 35 163
 0 0 87 91 856 82 3 855 159 238 0 81 1 87 576 35 85 0 0 161 165 857 82 3 856 159
 237 0 81 1 161 575 35 159 0 0 37 87 858 82 3 857 159 236 0 81 1 37 574 35 82 0
 0 31 161 859 82 3 858 159 235 0 82 3 859 159 234 0 81 1 157 591 35 155 0 0 81 5
3 860 81 1 81 590 35 79 0 0 45 157 861 81 1 53 592 35 51 0 0 157 122 862 82 3 86
0 159 251 0 82 3 862 159 252 0 81 1 45 589 35 33 0 0 109 81 863 82 3 861 159 250
 0 82 3 863 159 249 0 82 3 126 159 253 0 82 3 119 159 232 0 82 3 112 159 248 0 8
2 3 38 159 233 0 19 18 519 0 1 0 10 6 0 S0 74 4 CI16 index_map_offset0 0 1 dCCZ2
0 16 6 0 0 410 705 709 14 2 646 0 0 0 0 0 0 0 0 0 0 0 0 0 0 80 1 13 381 864 8040
 0 0 0 0 3 5 0 0 0 TTTFFFFFFFFFFFFFF2 83 3 15 .917647058823529 .917647058823529
 .917647058823529 79 17 864 SDL/TYSA_COLOUR_21 0 
