**ABCDEFGHIJKLMNOPQRSTUVWXYZabcdefghijklmnopqrstuvwxyz**************************
**PARASOLID !"#$%&'()*+,-./:;<=>?@[\]^_`{|}~0123456789**************************
**PART1;
MC=unknown;
MC_MODEL=unknown;
MC_ID=unknown;
OS=unknown;
OS_RELEASE=unknown;
FRU=Parasolid 36.0.180;
APPL=Onshape;
SITE=unknown;
USER=unknown;
FORMAT=text;
GUISE=transmit;
KEY=BTGapi::writeModels_.xmt;
FILE=BTGapi::writeModels_.xmt;
DATE=2024-05-15T00:06:35 (UTC);
**PART2;
SCH=SCH_3600180_36001;
USFLD_SIZE=0;
**PART3;
**END_OF_HEADER*****************************************************************
T51 : TRANSMIT FILE created by modeller version 360018023 SCH_3600180_36001_1300
6231 0 12 36 CCCI7 lattice222 0 CCCI4 mesh1006 0 I8 polyline1008 0 CCCCCCCDI5 ow
ner1040 0 CCCI16 boundary_lattice222 0 CCCI13 boundary_mesh1006 0 I17 boundary_p
olyline1008 0 CCCA16 index_map_offset0 0 1 dA9 index_map82 0 A17 node_id_index_m
ap82 0 A20 schema_embedding_map82 0 A5 child12 0 A14 lowest_node_id0 0 1 dA16 me
sh_offset_data206 0 Z1 284 2 3 0 0 0 0 0 0 0 1e3 1e-8 0 4 5 1 0 1 2 6 0 7 8 9 0
 0 10 11 12 0 0 0 0 0 0 0 81 255 1 2 278 13 1 14 0 0 0 15 70 11 CI9 list_type0 0
 1 uI10 notransmit0 0 1 lCCCDCCDI12 finger_index0 0 1 dI12 finger_block1012 0 CZ
3 0 4 T1 0 0 5 20 1 16 16 13 255 6 213 0 1 0 17 0 0 18 0 50 255 7 208 0 17 19 0
 0 +-3.1115 -4.146993239421045 3.714782233168685 0 .56610724400796 -.82433160092
3871 0 .824331600923871 .56610724400796 30 255 8 212 0 11 20 0 0 +-3.1115 -4.173
165767750375 3.69680832817143 1 0 0 29 255 9 189 0 21 22 0 -3.048 26155161716740
25e-31 6.84773614491226 19 9 CCCCCCI5 frame230 0 CA5 owner12 0 Z10 96 0 1 18 0 2
3 0 V0 16 255 11 196 24 ?25 0 26 8 0 0 1 18 255 12 90 27 28 0 29 30 ?1 81 1 27 2
38 31 12 0 0 32 24 33 17 255 28 0 34 35 36 12 37 38 0 39 +18 29 85 40 41 12 42 4
3 ?1 29 30 92 0 12 43 44 -3.1115 2615516171674025e-31 6.84773614491226 29 43 87
 0 29 45 30 -3.1115 317043225060641e-30 6.56271734939759 29 44 192 0 46 30 47 -3
.048 -4.173165767750375 3.69680832817143 18 46 180 48 25 49 0 44 ?1 29 47 191 0
 49 44 22 -3.048 -4.306172664730045 3.890485037808495 18 49 176 50 51 52 46 47 ?
1 29 22 190 0 52 47 9 -3.048 317043225060641e-30 6.56271734939759 18 52 172 53 5
4 21 49 22 ?1 81 1 53 235 31 52 0 0 55 40 56 17 54 0 57 58 59 52 41 60 0 61 +18
 21 168 32 62 63 52 9 ?1 81 1 32 237 31 21 0 0 40 27 64 17 62 0 65 66 67 21 39 6
8 0 69 +18 63 60 70 71 42 21 72 ?1 81 1 70 232 31 63 0 0 48 50 73 17 71 0 57 59
 58 63 25 11 0 74 -18 42 65 55 75 29 63 45 ?1 29 72 62 0 63 0 45 -3.1115 -4.1731
65767750375 3.69680832817143 29 45 67 0 42 72 43 -3.1115 -4.306172664730045 3.89
0485037808495 81 1 55 234 31 42 0 0 50 53 76 17 75 0 77 78 79 42 51 26 0 37 -15
 255 77 201 0 79 80 0 17 78 0 77 25 75 63 36 81 0 0 +17 79 0 77 75 25 49 82 83 0
 0 -17 51 0 84 69 37 49 75 26 0 85 +16 26 195 86 ?51 11 68 20 0 0 1 17 37 0 84 5
1 39 42 28 38 0 36 -15 84 199 0 69 87 0 17 39 0 84 37 69 12 62 68 0 67 -16 38 25
 88 ?28 89 81 90 0 0 1 17 36 0 34 28 74 42 78 81 0 0 -15 34 6 0 74 91 0 17 74 0
 34 36 35 63 59 92 0 78 -16 81 20 93 ?78 38 92 94 0 0 1 81 1 93 248 31 81 0 0 95
 96 97 16 92 15 98 ?59 81 99 100 0 0 1 30 94 22 0 81 100 90 0 +-3.1115 -4.306172
664730045 3.890485037808495 0 .566107244007959 -.824331600923871 30 100 17 0 92
 0 94 0 +-3.1115 -4.146993239421045 3.714782233168685 0 .824331600923871 .566107
244007959 30 90 27 0 38 94 101 0 +-3.1115 -4.280000136400715 3.908458942805745 0
 .824331600923871 .566107244007959 30 101 52 0 89 90 102 0 +-3.1115 289297421114
022e-30 6.70522674715492 0 -1946945561714115e-31 1 16 89 50 103 ?67 60 38 101 0
 0 1 30 102 188 0 104 101 105 0 +-3.048 -4.146993239421045 3.714782233168685 0 .
824331600923871 .566107244007959 16 104 162 106 ?61 83 0 102 0 0 1 30 105 187 0
 83 102 107 0 +-3.048 -4.306172664730045 3.890485037808495 0 .566107244007959 -.
824331600923871 16 83 158 95 ?82 108 104 105 0 0 1 30 107 186 0 108 105 109 0 +-
3.048 -4.280000136400715 3.908458942805745 0 .824331600923871 .566107244007959 1
6 108 150 110 ?69 99 83 107 0 0 1 30 109 185 0 99 107 111 0 +-3.048 289297421114
022e-30 6.70522674715492 0 -1946945561714115e-31 1 16 99 146 96 ?112 92 108 109
 0 0 1 30 111 209 0 68 109 113 0 +-3.1115 2615516171674025e-31 6.84773614491226
 1 0 0 16 68 193 114 ?62 26 60 111 0 0 1 30 113 210 0 60 111 20 0 +-3.1115 31704
3225060641e-30 6.56271734939759 1 0 0 16 60 194 115 ?54 68 89 113 0 0 1 30 20 21
1 0 26 113 8 0 +-3.1115 -4.306172664730045 3.890485037808495 1 0 0 81 1 115 241
 31 60 0 0 86 114 116 80 7 CCCCCDI12 legal_owners0 17 1 lCZ1 31 117 118 9000 0 0
 0 0 3 6 0 0 0 FFTFTFTTFFFFFFFFF1 81 1 86 240 31 26 0 0 24 115 119 81 1 114 242
 31 68 0 0 115 106 120 82 255 3 116 103 2 1 81 1 106 243 31 104 0 0 114 98 121 8
2 3 120 103 3 1 81 1 98 244 31 92 0 0 106 110 122 82 3 121 103 4 1 81 1 110 245
 31 108 0 0 98 88 123 82 3 122 103 5 1 81 1 88 246 31 38 0 0 110 95 124 82 3 123
 103 6 1 81 1 95 247 31 83 0 0 88 93 125 82 3 124 103 7 1 82 3 125 103 8 1 81 1
 24 239 31 11 0 0 27 86 126 82 3 119 103 1 1 82 3 126 103 0 1 79 255 9 118 BTI/D
etId81 1 96 249 31 99 0 0 93 103 127 17 112 0 128 85 61 21 66 99 0 0 +15 128 145
 0 61 129 0 17 85 0 128 82 112 49 69 108 0 79 -17 61 0 128 112 82 52 58 104 0 66
 +17 66 0 65 41 62 52 112 99 0 0 -15 65 197 0 66 130 0 17 41 0 65 67 66 29 54 60
 0 59 -17 67 0 65 62 41 12 35 89 0 0 +17 59 0 57 54 71 29 74 92 0 35 +15 57 203
 0 58 17 0 17 35 0 34 74 28 29 67 89 0 0 -17 58 0 57 71 54 46 61 104 0 82 -14 25
5 17 204 131 ?80 0 57 6 7 +0 0 80 0 23 81 1 131 279 132 17 133 0 0 134 135 14 80
 202 134 ?87 17 77 6 19 +0 0 87 17 23 13 23 97 0 0 0 0 0 0 10 17 81 1 134 280 13
2 80 136 0 131 137 138 14 87 200 137 ?130 80 84 6 139 -0 0 130 80 23 50 19 207 0
 80 139 7 0 +-3.1115 -4.306172664730045 3.890485037808495 0 -.824331600923871 -.
56610724400796 0 .56610724400796 -.824331600923871 50 139 206 0 87 140 19 0 +-3.
1115 -4.280000136400715 3.908458942805745 0 .56610724400796 -.824331600923871 0
 .824331600923871 .56610724400796 50 140 205 0 130 141 139 0 +-3.1115 2892974211
14022e-30 6.70522674715492 0 1 1946945561714115e-31 0 -1946945561714115e-31 1 14
 130 198 142 ?91 87 65 6 140 +0 0 91 87 23 50 141 184 0 129 143 140 0 +-3.048 -1
.584070339951995 5.6173712124891 -1 0 0 0 -1 0 14 129 133 144 ?0 91 128 6 141 -0
 0 0 91 23 50 143 3 0 91 0 141 0 +-3.1115 -1.584070339951995 5.6173712124891 -1
 0 0 0 -1 0 14 91 1 145 ?129 130 34 6 143 +0 0 129 130 23 81 1 145 283 132 91 14
6 0 142 144 147 80 1 132 0 148 8001 0 0 0 0 3 5 0 0 0 FFFFTFTFFFFFFFFFF2 81 1 14
6 253 31 91 0 145 149 150 151 81 1 142 282 132 130 152 0 137 145 153 81 1 144 28
4 132 129 149 0 145 0 154 83 255 3 147 .231372549019608 .380392156862745 .705882
352941177 81 1 149 252 31 129 0 144 133 146 155 83 3 154 .231372549019608 .38039
2156862745 .705882352941177 81 1 133 251 31 17 0 131 103 149 156 82 3 155 103 1
 2 81 1 103 250 31 89 0 0 96 133 157 82 3 156 103 0 2 82 3 157 103 11 1 81 1 152
 256 31 130 0 142 136 158 159 81 1 137 281 132 87 150 0 134 142 160 83 3 153 .23
1372549019608 .380392156862745 .705882352941177 81 1 150 254 31 87 0 137 146 136
 161 83 3 160 .231372549019608 .380392156862745 .705882352941177 81 1 136 255 31
 80 0 134 150 152 162 82 3 161 103 3 2 82 3 162 103 4 2 81 1 158 257 31 1 0 163
 152 0 164 82 3 159 103 5 2 81 1 163 276 165 1 158 14 0 0 166 82 3 164 103 0 3 8
0 1 165 167 168 8038 0 0 0 0 0 0 0 0 0 TTTTTTTTTTTTTFTFT10 81 1 14 277 167 1 163
 2 0 0 169 98 255 39 166 80 97 114 116 32 54 52 32 32 50 46 53 120 57 46 50 53 1
20 50 48 53 46 54 54 51 32 97 110 103 108 101 100 32 51 52 46 52 55 57 80 1 167
 170 171 8017 0 0 0 0 0 0 0 0 0 TTTTTTTTTTTTTFTFT3 84 255 39 169 Part 64  2.5x9.
25x205.663 angled 34.47979 13 171 SDL/TYSA_NAME79 14 168 SDL/TYSA_UNAME82 3 151
 103 2 2 79 15 148 SDL/TYSA_COLOUR83 3 138 .231372549019608 .380392156862745 .70
5882352941177 83 3 135 .231372549019608 .380392156862745 .705882352941177 17 82
 0 128 61 85 46 79 83 0 0 +17 69 0 84 39 51 21 85 108 0 112 +82 3 127 103 10 1 8
2 3 97 103 9 1 17 25 0 77 79 78 46 71 11 0 58 +81 1 50 233 31 49 0 0 70 55 172 8
2 3 76 103 3 0 82 3 172 103 2 0 81 1 48 231 31 46 0 0 0 70 173 82 3 73 103 1 0 8
2 3 173 103 0 0 81 1 40 236 31 29 0 0 53 32 174 82 3 64 103 6 0 82 3 174 103 5 0
 82 3 56 103 4 0 82 3 33 103 7 0 19 18 214 0 1 0 10 6 0 S0 74 4 CI16 index_map_o
ffset0 0 1 dCCZ20 16 5 0 0 158 163 14 2 144 0 0 0 0 0 0 0 0 0 0 0 0 0 0 0 80 1 1
3 132 175 8040 0 0 0 0 3 5 0 0 0 TTTFFFFFFFFFFFFFF2 83 3 15 .231372549019608 .38
0392156862745 .705882352941177 79 17 175 SDL/TYSA_COLOUR_21 0 
