**ABCDEFGHIJKLMNOPQRSTUVWXYZabcdefghijklmnopqrstuvwxyz**************************
**PARASOLID !"#$%&'()*+,-./:;<=>?@[\]^_`{|}~0123456789**************************
**PART1;
MC=unknown;
MC_MODEL=unknown;
MC_ID=unknown;
OS=unknown;
OS_RELEASE=unknown;
FRU=Parasolid 36.0.180;
APPL=Onshape;
SITE=unknown;
USER=unknown;
FORMAT=text;
GUISE=transmit;
KEY=BTGapi::writeModels_.xmt;
FILE=BTGapi::writeModels_.xmt;
DATE=2024-05-15T00:06:35 (UTC);
**PART2;
SCH=SCH_3600180_36001;
USFLD_SIZE=0;
**PART3;
**END_OF_HEADER*****************************************************************
T51 : TRANSMIT FILE created by modeller version 360018023 SCH_3600180_36001_1300
6231 0 12 36 CCCI7 lattice222 0 CCCI4 mesh1006 0 I8 polyline1008 0 CCCCCCCDI5 ow
ner1040 0 CCCI16 boundary_lattice222 0 CCCI13 boundary_mesh1006 0 I17 boundary_p
olyline1008 0 CCCA16 index_map_offset0 0 1 dA9 index_map82 0 A17 node_id_index_m
ap82 0 A20 schema_embedding_map82 0 A5 child12 0 A14 lowest_node_id0 0 1 dA16 me
sh_offset_data206 0 Z1 337 2 3 0 0 0 0 0 0 0 1e3 1e-8 0 4 5 1 0 1 2 6 0 7 8 9 0
 0 10 11 12 0 0 0 0 0 0 0 81 255 1 2 331 13 1 14 0 0 0 15 70 11 CI9 list_type0 0
 1 uI10 notransmit0 0 1 lCCCDCCDI12 finger_index0 0 1 dI12 finger_block1012 0 CZ
3 0 4 T1 0 0 5 20 1 16 16 13 255 6 213 0 1 0 17 0 0 18 0 50 255 7 208 0 17 19 0
 0 +3.1115 -4.146993239421045 3.714782233168685 0 .56610724400796 -.824331600923
871 0 .824331600923871 .56610724400796 30 255 8 212 0 11 20 0 0 +3.1115 -4.17316
5767750375 3.69680832817143 -1 0 0 29 255 9 189 0 21 22 0 3.048 2615516171674025
e-31 6.84773614491226 19 9 CCCCCCI5 frame230 0 CA5 owner12 0 Z10 96 0 1 18 0 23
 0 V0 16 255 11 196 24 ?25 0 26 8 0 0 1 18 255 12 90 27 28 0 29 30 ?1 81 1 27 28
3 31 12 0 0 32 24 33 17 255 28 0 34 35 36 12 37 38 0 39 +18 29 85 40 37 12 41 42
 ?1 29 30 92 0 12 42 43 3.1115 2615516171674025e-31 6.84773614491226 29 42 87 0
 29 44 30 3.1115 317043225060641e-30 6.56271734939759 29 43 192 0 45 30 46 3.048
 -4.173165767750375 3.69680832817143 18 45 180 47 48 49 0 43 ?1 29 46 191 0 49 4
3 22 3.048 -4.306172664730045 3.890485037808495 18 49 176 50 51 52 45 46 ?1 29 2
2 190 0 52 46 9 3.048 317043225060641e-30 6.56271734939759 18 52 172 53 54 21 49
 22 ?1 81 1 53 280 31 52 0 0 55 40 56 17 54 0 57 58 59 52 60 61 0 62 -18 21 168
 32 60 63 52 9 ?1 81 1 32 282 31 21 0 0 40 27 64 17 60 0 65 39 62 21 54 61 0 66
 +18 63 60 67 68 41 21 69 ?1 81 1 67 277 31 63 0 0 47 50 70 17 68 0 34 36 35 63
 71 72 0 73 +18 41 65 55 35 29 63 44 ?1 29 69 62 0 63 0 44 3.1115 -4.17316576775
0375 3.69680832817143 29 44 67 0 41 69 42 3.1115 -4.306172664730045 3.8904850378
08495 81 1 55 279 31 41 0 0 50 53 74 17 35 0 34 68 28 41 75 76 0 77 -15 255 34 6
 0 36 78 0 17 75 0 79 66 77 12 35 76 0 0 +16 76 25 80 ?75 38 72 81 0 0 1 17 77 0
 79 75 51 41 82 26 0 71 -15 79 199 0 51 83 0 17 51 0 79 77 66 49 59 84 0 82 -17
 82 0 85 48 71 49 77 26 0 86 +16 26 195 87 ?82 11 88 20 0 0 1 17 71 0 85 82 73 4
1 68 72 0 0 -15 85 201 0 48 89 0 17 73 0 85 71 48 63 25 11 0 90 -16 72 20 91 ?68
 76 92 93 0 0 1 81 1 91 293 31 72 0 0 94 95 96 16 92 15 97 ?36 72 61 98 0 0 1 30
 93 22 0 72 98 81 0 +3.1115 -4.306172664730045 3.890485037808495 0 .566107244007
959 -.824331600923871 30 98 17 0 92 0 93 0 +3.1115 -4.146993239421045 3.71478223
3168685 0 .824331600923871 .566107244007959 30 81 27 0 76 93 99 0 +3.1115 -4.280
000136400715 3.908458942805745 0 .824331600923871 .566107244007959 30 99 52 0 38
 81 100 0 +3.1115 289297421114022e-30 6.70522674715492 0 -1946945561714115e-31 1
 16 38 50 101 ?28 102 76 99 0 0 1 30 100 188 0 103 99 104 0 +3.048 -4.1469932394
21045 3.714782233168685 0 .824331600923871 .566107244007959 16 103 162 105 ?106
 107 0 100 0 0 1 30 104 187 0 107 100 108 0 +3.048 -4.306172664730045 3.89048503
7808495 0 .566107244007959 -.824331600923871 16 107 158 94 ?48 84 103 104 0 0 1
 30 108 186 0 84 104 109 0 +3.048 -4.280000136400715 3.908458942805745 0 .824331
600923871 .566107244007959 16 84 150 110 ?59 61 107 108 0 0 1 30 109 185 0 61 10
8 111 0 +3.048 289297421114022e-30 6.70522674715492 0 -1946945561714115e-31 1 16
 61 146 95 ?60 92 84 109 0 0 1 30 111 209 0 88 109 112 0 +3.1115 261551617167402
5e-31 6.84773614491226 -1 0 0 16 88 193 113 ?66 26 102 111 0 0 1 30 112 210 0 10
2 111 20 0 +3.1115 317043225060641e-30 6.56271734939759 -1 0 0 16 102 194 114 ?6
2 88 38 112 0 0 1 30 20 211 0 26 112 8 0 +3.1115 -4.306172664730045 3.8904850378
08495 -1 0 0 81 1 114 286 31 102 0 0 87 113 115 17 62 0 65 60 37 52 116 102 0 10
6 +15 65 197 0 60 117 0 17 37 0 65 62 39 29 28 38 0 36 -17 116 0 118 90 106 29 6
2 102 0 0 -17 106 0 118 116 25 52 58 103 0 0 +15 118 203 0 106 17 0 17 25 0 118
 106 90 45 73 11 0 58 +17 58 0 57 86 54 45 106 103 0 0 -15 57 145 0 58 119 0 17
 86 0 57 59 58 49 48 107 0 0 -17 59 0 57 54 86 21 51 84 0 0 +17 48 0 85 73 82 45
 86 107 0 25 +14 255 119 133 120 ?0 78 57 6 121 -0 0 0 78 23 81 1 120 337 122 11
9 123 0 124 0 125 14 78 1 124 ?119 117 34 6 126 +0 0 119 117 23 50 121 184 0 119
 126 127 0 +3.048 -1.584070339951995 5.6173712124891 1 0 0 0 -1 0 13 23 97 0 0 0
 0 0 0 10 17 14 17 204 128 ?89 0 118 6 7 +0 0 89 0 23 81 1 128 332 122 17 129 0
 0 130 131 14 89 202 130 ?83 17 85 6 19 +0 0 83 17 23 81 1 130 333 122 89 132 0
 128 133 134 14 83 200 133 ?117 89 79 6 135 -0 0 117 89 23 50 19 207 0 89 135 7
 0 +3.1115 -4.306172664730045 3.890485037808495 0 -.824331600923871 -.5661072440
0796 0 .56610724400796 -.824331600923871 50 135 206 0 83 127 19 0 +3.1115 -4.280
000136400715 3.908458942805745 0 .56610724400796 -.824331600923871 0 .8243316009
23871 .56610724400796 50 127 205 0 117 121 135 0 +3.1115 289297421114022e-30 6.7
0522674715492 0 1 1946945561714115e-31 0 -1946945561714115e-31 1 14 117 198 136
 ?78 83 65 6 127 +0 0 78 83 23 81 1 136 335 122 117 137 0 133 124 138 80 7 CCCCC
DI12 legal_owners0 17 1 lCZ1 122 0 139 8001 0 0 0 0 3 5 0 0 0 FFFFTFTFFFFFFFFFF2
 81 1 137 301 31 117 0 136 132 140 141 81 1 133 334 122 83 142 0 130 136 143 81
 1 124 336 122 78 144 0 136 120 145 83 255 3 138 .231372549019608 .3803921568627
45 .705882352941177 81 1 144 298 31 78 0 124 123 142 146 83 3 145 .2313725490196
08 .380392156862745 .705882352941177 80 1 31 147 148 9000 0 0 0 0 3 6 0 0 0 FFTF
TFTTFFFFFFFFF1 81 1 123 297 31 119 0 120 129 144 149 81 1 142 299 31 83 0 133 14
4 132 150 82 255 3 146 109 2 2 81 1 132 300 31 89 0 130 142 137 151 82 3 150 109
 3 2 82 3 151 109 4 2 81 1 129 296 31 17 0 128 101 123 152 82 3 149 109 1 2 81 1
 101 295 31 38 0 0 95 129 153 82 3 152 109 0 2 81 1 95 294 31 61 0 0 91 101 154
 82 3 153 109 11 1 82 3 154 109 10 1 79 255 9 148 BTI/DetId83 3 143 .23137254901
9608 .380392156862745 .705882352941177 81 1 140 302 31 1 0 155 137 0 156 82 3 14
1 109 5 2 81 1 155 329 157 1 140 14 0 0 158 82 3 156 109 0 3 80 1 157 159 160 80
38 0 0 0 0 0 0 0 0 0 TTTTTTTTTTTTTFTFT10 81 1 14 330 159 1 155 2 0 0 161 98 255
 39 158 80 97 114 116 32 49 48 53 32 50 46 53 120 57 46 50 53 120 50 48 53 46 54
 54 51 32 97 110 103 108 101 100 32 51 52 46 52 55 57 80 1 159 162 163 8017 0 0
 0 0 0 0 0 0 0 TTTTTTTTTTTTTFTFT3 84 255 39 161 Part 105 2.5x9.25x205.663 angled
 34.47979 13 163 SDL/TYSA_NAME79 14 160 SDL/TYSA_UNAME79 15 139 SDL/TYSA_COLOUR8
3 3 134 .231372549019608 .380392156862745 .705882352941177 83 3 131 .23137254901
9608 .380392156862745 .705882352941177 50 126 3 0 78 0 121 0 +3.1115 -1.58407033
9951995 5.6173712124891 1 0 0 0 -1 0 83 3 125 .231372549019608 .380392156862745
 .705882352941177 17 90 0 118 25 116 63 36 92 0 0 -17 36 0 34 28 68 29 90 92 0 1
16 +17 39 0 65 37 60 12 66 88 0 75 -17 66 0 79 51 75 21 39 88 0 59 +81 1 87 285
 31 26 0 0 24 114 164 81 1 113 287 31 88 0 0 114 105 165 82 3 115 109 2 1 81 1 1
05 288 31 103 0 0 113 97 166 82 3 165 109 3 1 81 1 97 289 31 92 0 0 105 110 167
 82 3 166 109 4 1 81 1 110 290 31 84 0 0 97 80 168 82 3 167 109 5 1 81 1 80 291
 31 76 0 0 110 94 169 82 3 168 109 6 1 81 1 94 292 31 107 0 0 80 91 170 82 3 169
 109 7 1 82 3 170 109 8 1 81 1 24 284 31 11 0 0 27 87 171 82 3 164 109 1 1 82 3
 171 109 0 1 82 3 96 109 9 1 81 1 50 278 31 49 0 0 67 55 172 82 3 74 109 3 0 82
 3 172 109 2 0 81 1 47 276 31 45 0 0 0 67 173 82 3 70 109 1 0 82 3 173 109 0 0 8
1 1 40 281 31 29 0 0 53 32 174 82 3 64 109 6 0 82 3 174 109 5 0 82 3 56 109 4 0
 82 3 33 109 7 0 19 18 214 0 1 0 10 6 0 S0 74 4 CI16 index_map_offset0 0 1 dCCZ2
0 16 5 0 0 140 155 14 2 120 0 0 0 0 0 0 0 0 0 0 0 0 0 0 0 80 1 13 122 175 8040 0
 0 0 0 3 5 0 0 0 TTTFFFFFFFFFFFFFF2 83 3 15 .231372549019608 .380392156862745 .7
05882352941177 79 17 175 SDL/TYSA_COLOUR_21 0 
