**ABCDEFGHIJKLMNOPQRSTUVWXYZabcdefghijklmnopqrstuvwxyz**************************
**PARASOLID !"#$%&'()*+,-./:;<=>?@[\]^_`{|}~0123456789**************************
**PART1;
MC=unknown;
MC_MODEL=unknown;
MC_ID=unknown;
OS=unknown;
OS_RELEASE=unknown;
FRU=Parasolid 36.0.180;
APPL=Onshape;
SITE=unknown;
USER=unknown;
FORMAT=text;
GUISE=transmit;
KEY=BTGapi::writeModels_.xmt;
FILE=BTGapi::writeModels_.xmt;
DATE=2024-05-15T00:06:35 (UTC);
**PART2;
SCH=SCH_3600180_36001;
USFLD_SIZE=0;
**PART3;
**END_OF_HEADER*****************************************************************
T51 : TRANSMIT FILE created by modeller version 360018023 SCH_3600180_36001_1300
6231 0 12 36 CCCI7 lattice222 0 CCCI4 mesh1006 0 I8 polyline1008 0 CCCCCCCDI5 ow
ner1040 0 CCCI16 boundary_lattice222 0 CCCI13 boundary_mesh1006 0 I17 boundary_p
olyline1008 0 CCCA16 index_map_offset0 0 1 dA9 index_map82 0 A17 node_id_index_m
ap82 0 A20 schema_embedding_map82 0 A5 child12 0 A14 lowest_node_id0 0 1 dA16 me
sh_offset_data206 0 Z1 326 2 3 0 0 0 0 0 0 0 1e3 1e-8 0 4 5 1 0 1 2 6 0 7 8 9 0
 0 10 11 12 0 0 0 0 0 0 0 81 255 1 2 320 13 1 14 0 0 0 15 70 11 CI9 list_type0 0
 1 uI10 notransmit0 0 1 lCCCDCCDI12 finger_index0 0 1 dI12 finger_block1012 0 CZ
3 0 4 T1 0 0 5 20 1 16 16 13 255 6 227 0 1 0 17 0 0 18 0 50 255 7 222 0 17 19 0
 0 +1.7526 0 3.6576 0 0 -1 1 0 0 30 255 8 226 0 11 20 0 0 +1.7526 -3.048 3.6576
 -1 0 0 29 255 9 203 0 21 22 0 1.6637 3.048 3.6576 19 9 CCCCCCI5 frame230 0 CA5
 owner12 0 Z10 102 0 1 18 0 23 0 V0 16 255 11 210 24 ?25 0 26 8 0 0 1 18 255 12
 96 27 28 0 29 30 ?1 81 1 27 276 31 12 0 0 32 33 34 17 255 28 0 35 36 37 12 38 3
9 0 40 -18 29 91 41 38 12 42 43 ?1 29 30 98 0 12 43 44 1.7526 3.048 3.6576 29 43
 93 0 29 45 30 1.7526 3.048 3.99415 29 44 206 0 46 30 47 1.6637 -3.048 3.6576 18
 46 194 48 49 50 0 44 ?1 29 47 205 0 50 44 22 1.6637 -3.048 3.99415 18 50 190 33
 51 52 46 47 ?1 29 22 204 0 52 47 9 1.6637 3.048 3.99415 18 52 186 53 54 21 50 2
2 ?1 81 1 53 279 31 52 0 0 55 41 56 17 54 0 35 37 36 52 57 58 0 59 +18 21 182 32
 57 60 52 9 ?1 81 1 32 275 31 21 0 0 61 27 62 17 57 0 63 64 65 21 54 58 0 36 -18
 60 61 61 66 42 21 67 ?1 81 1 61 274 31 60 0 0 48 32 68 17 66 0 69 40 70 60 71 7
2 0 73 -18 42 66 55 70 29 60 45 ?1 29 67 63 0 60 0 45 1.7526 -3.048 3.6576 29 45
 68 0 42 67 43 1.7526 -3.048 3.99415 81 1 55 278 31 42 0 0 33 53 74 17 70 0 69 6
6 38 42 75 76 0 77 -15 255 69 6 0 40 78 0 17 38 0 69 70 40 29 28 39 0 37 +17 75
 0 79 59 77 29 70 76 0 0 +16 76 25 80 ?75 39 72 81 0 0 1 17 77 0 79 75 51 42 82
 26 0 71 -15 79 213 0 51 83 0 17 51 0 79 77 59 50 65 84 0 82 -17 82 0 85 49 71 5
0 77 26 0 86 +16 26 209 87 ?82 11 88 20 0 0 1 17 71 0 85 82 73 42 66 72 0 0 +15
 85 215 0 49 89 0 17 73 0 85 71 49 60 25 11 0 90 -16 72 20 91 ?71 76 92 93 0 0 1
 81 1 91 290 31 72 0 0 94 95 96 16 92 15 97 ?40 72 58 98 0 0 1 30 93 22 0 72 98
 81 0 +1.7526 -3.048 3.825875 0 0 1 30 98 17 0 92 0 93 0 +1.7526 0 3.6576 0 1 0
 30 81 27 0 76 93 99 0 +1.7526 0 3.99415 0 1 0 30 99 48 0 39 81 100 0 +1.7526 3.
048 3.825875 0 0 1 16 39 46 101 ?38 102 76 99 0 0 1 30 100 202 0 103 99 104 0 +1
.6637 0 3.6576 0 1 0 16 103 174 105 ?106 107 0 100 0 0 1 30 104 201 0 107 100 10
8 0 +1.6637 -3.048 3.825875 0 0 1 16 107 170 94 ?86 84 103 104 0 0 1 30 108 200
 0 84 104 109 0 +1.6637 0 3.99415 0 1 0 16 84 162 110 ?65 58 107 108 0 0 1 30 10
9 199 0 58 108 111 0 +1.6637 3.048 3.825875 0 0 1 16 58 158 95 ?54 92 84 109 0 0
 1 30 111 223 0 102 109 112 0 +1.7526 3.048 3.6576 -1 0 0 16 102 207 113 ?36 88
 39 111 0 0 1 30 112 224 0 88 111 20 0 +1.7526 3.048 3.99415 -1 0 0 16 88 208 11
4 ?59 26 102 112 0 0 1 30 20 225 0 26 112 8 0 +1.7526 -3.048 3.99415 -1 0 0 81 1
 114 284 31 88 0 0 87 105 115 17 59 0 79 51 75 52 37 88 0 65 +17 37 0 35 28 54 2
9 59 88 0 75 -17 65 0 63 57 86 52 51 84 0 0 +15 63 157 0 64 116 0 17 86 0 63 65
 64 50 49 107 0 0 +17 64 0 63 86 57 46 106 103 0 0 -17 49 0 85 73 82 46 86 107 0
 25 -17 25 0 117 106 90 46 73 11 0 64 +15 117 217 0 106 17 0 17 106 0 117 118 25
 21 64 103 0 0 +17 90 0 117 25 118 60 40 92 0 0 -17 118 0 117 90 106 12 36 102 0
 0 -17 40 0 69 38 66 12 90 92 0 118 +17 36 0 35 54 28 21 118 102 0 106 +15 35 21
1 0 54 119 0 14 255 119 212 120 ?78 83 35 6 121 +0 0 78 83 23 81 1 120 324 122 1
19 123 0 124 125 126 14 78 1 125 ?116 119 69 6 127 +0 0 116 119 23 14 83 214 124
 ?119 89 79 6 128 -0 0 119 89 23 50 121 219 0 119 129 128 0 +1.7526 3.048 3.8258
75 0 1 0 0 0 1 13 23 103 0 0 0 0 0 0 10 17 14 17 218 130 ?89 0 117 6 7 +0 0 89 0
 23 81 1 130 321 122 17 131 0 0 132 133 14 89 216 132 ?83 17 85 6 19 -0 0 83 17
 23 81 1 132 322 122 89 134 0 130 124 135 50 19 221 0 89 128 7 0 +1.7526 -3.048
 3.825875 0 1 0 0 0 1 50 128 220 0 83 121 19 0 +1.7526 0 3.99415 0 0 -1 1 0 0 80
 7 CCCCCDI12 legal_owners0 17 1 lCZ1 122 0 136 8001 0 0 0 0 3 5 0 0 0 FFFFTFTFFF
FFFFFFF2 81 1 134 297 31 89 0 132 137 123 138 81 1 124 323 122 83 137 0 132 120
 139 83 255 3 135 .647058823529412 .647058823529412 .647058823529412 81 1 137 29
6 31 83 0 124 140 134 141 83 3 139 .647058823529412 .647058823529412 .6470588235
29412 80 1 31 142 143 9000 0 0 0 0 3 6 0 0 0 FFTFTFTTFFFFFFFFF1 81 1 140 295 31
 78 0 125 144 137 145 82 255 3 141 16 3 2 81 1 125 325 122 78 140 0 120 146 147
 81 1 144 294 31 116 0 146 131 140 148 82 3 145 16 2 2 14 116 144 146 ?0 78 63 6
 129 -0 0 0 78 23 81 1 146 326 122 116 144 0 125 0 149 81 1 131 293 31 17 0 130
 101 144 150 82 3 148 16 1 2 81 1 101 292 31 39 0 0 95 131 151 82 3 150 16 0 2 8
1 1 95 291 31 58 0 0 91 101 152 82 3 151 16 11 1 82 3 152 16 10 1 83 3 149 .6470
58823529412 .647058823529412 .647058823529412 50 129 198 0 116 127 121 0 +1.6637
 0 2.40919 1 0 0 0 -1 0 50 127 3 0 78 0 129 0 +1.7526 0 2.40919 1 0 0 0 -1 0 83
 3 147 .647058823529412 .647058823529412 .647058823529412 79 255 9 143 BTI/DetId
81 1 123 298 31 119 0 120 134 153 154 82 3 138 16 4 2 81 1 153 299 31 1 0 155 12
3 0 156 82 3 154 16 5 2 81 1 155 318 157 1 153 14 0 0 158 82 3 156 16 0 3 80 1 1
57 159 160 8038 0 0 0 0 0 0 0 0 0 TTTTTTTTTTTTTFTFT10 81 1 14 319 159 1 155 2 0
 0 161 98 255 7 158 80 97 114 116 32 49 48 80 1 159 162 163 8017 0 0 0 0 0 0 0 0
 0 TTTTTTTTTTTTTFTFT3 84 255 7 161 Part 1079 13 163 SDL/TYSA_NAME79 14 160 SDL/T
YSA_UNAME79 15 136 SDL/TYSA_COLOUR83 3 133 .647058823529412 .647058823529412 .64
7058823529412 83 3 126 .647058823529412 .647058823529412 .647058823529412 81 1 8
7 283 31 26 0 0 113 114 164 81 1 105 285 31 103 0 0 114 97 165 82 3 115 16 3 1 8
1 1 97 286 31 92 0 0 105 110 166 82 3 165 16 4 1 81 1 110 287 31 84 0 0 97 80 16
7 82 3 166 16 5 1 81 1 80 288 31 76 0 0 110 94 168 82 3 167 16 6 1 81 1 94 289 3
1 107 0 0 80 91 169 82 3 168 16 7 1 82 3 169 16 8 1 81 1 113 282 31 102 0 0 24 8
7 170 82 3 164 16 2 1 81 1 24 281 31 11 0 0 41 113 171 82 3 170 16 1 1 81 1 41 2
80 31 29 0 0 53 24 172 82 3 171 16 0 1 82 3 172 16 7 0 82 3 96 16 9 1 81 1 33 27
7 31 50 0 0 27 55 173 82 3 74 16 5 0 82 3 173 16 4 0 81 1 48 273 31 46 0 0 0 61
 174 82 3 68 16 1 0 82 3 174 16 0 0 82 3 62 16 2 0 82 3 56 16 6 0 82 3 34 16 3 0
 19 18 228 0 1 0 10 6 0 S0 74 4 CI16 index_map_offset0 0 1 dCCZ20 16 5 0 0 153 1
55 14 2 146 0 0 0 0 0 0 0 0 0 0 0 0 0 0 0 80 1 13 122 175 8040 0 0 0 0 3 5 0 0 0
 TTTFFFFFFFFFFFFFF2 83 3 15 .647058823529412 .647058823529412 .647058823529412 7
9 17 175 SDL/TYSA_COLOUR_21 0 
