**ABCDEFGHIJKLMNOPQRSTUVWXYZabcdefghijklmnopqrstuvwxyz**************************
**PARASOLID !"#$%&'()*+,-./:;<=>?@[\]^_`{|}~0123456789**************************
**PART1;
MC=unknown;
MC_MODEL=unknown;
MC_ID=unknown;
OS=unknown;
OS_RELEASE=unknown;
FRU=Parasolid 36.0.180;
APPL=Onshape;
SITE=unknown;
USER=unknown;
FORMAT=text;
GUISE=transmit;
KEY=BTGapi::writeModels_.xmt;
FILE=BTGapi::writeModels_.xmt;
DATE=2024-05-15T00:06:35 (UTC);
**PART2;
SCH=SCH_3600180_36001;
USFLD_SIZE=0;
**PART3;
**END_OF_HEADER*****************************************************************
T51 : TRANSMIT FILE created by modeller version 360018023 SCH_3600180_36001_1300
6231 0 12 36 CCCI7 lattice222 0 CCCI4 mesh1006 0 I8 polyline1008 0 CCCCCCCDI5 ow
ner1040 0 CCCI16 boundary_lattice222 0 CCCI13 boundary_mesh1006 0 I17 boundary_p
olyline1008 0 CCCA16 index_map_offset0 0 1 dA9 index_map82 0 A17 node_id_index_m
ap82 0 A20 schema_embedding_map82 0 A5 child12 0 A14 lowest_node_id0 0 1 dA16 me
sh_offset_data206 0 Z1 709 2 3 0 0 0 0 0 0 0 1e3 1e-8 0 4 5 1 0 1 2 6 0 7 8 9 0
 0 10 11 12 0 0 0 0 0 0 0 81 255 1 2 703 13 1 14 0 0 0 15 70 11 CI9 list_type0 0
 1 uI10 notransmit0 0 1 lCCCDCCDI12 finger_index0 0 1 dI12 finger_block1012 0 CZ
3 0 4 T1 0 0 5 20 1 16 16 13 255 6 213 0 1 0 17 0 0 18 0 50 255 7 208 0 17 19 0
 0 +-1.86055 -.18415 3.99415 0 0 1 1 0 0 30 255 8 186 0 20 21 0 0 +4440892098500
625e-31 -.09525 4.2799 -1 0 0 29 255 9 460 0 12 22 0 -2.1336 -.09525 4.2799 19 9
 CCCCCCI5 frame230 0 CA5 owner12 0 Z10 88 0 1 18 0 23 0 V0 16 255 11 37 24 ?25 0
 26 27 0 0 1 18 255 12 410 28 29 0 30 9 ?1 81 1 28 411 31 12 0 0 32 33 34 17 255
 29 0 35 36 37 12 38 20 0 39 +18 30 400 40 25 12 41 22 ?1 81 1 40 401 31 30 0 0
 42 32 43 17 25 0 44 45 46 30 47 11 0 36 +18 41 396 42 48 30 49 50 ?1 29 22 461
 0 30 50 9 -2.1336 -.18415 4.2799 29 50 462 0 41 51 22 -2.1336 -.18415 3.99415 2
9 51 463 0 49 52 50 -2.1336 -.09525 3.99415 18 49 408 32 53 41 54 51 ?1 29 52 65
9 0 54 55 51 2.1336 -.09525 3.99415 18 54 609 56 57 49 58 52 ?1 29 55 660 0 58 5
9 52 2.1336 -.18415 3.99415 18 58 607 60 61 54 62 55 ?1 29 59 661 0 62 63 55 2.1
336 -.18415 4.2799 18 62 599 64 47 58 65 59 ?1 29 63 662 0 65 0 59 2.1336 -.0952
5 4.2799 18 65 595 66 38 62 0 63 ?1 81 1 66 596 31 65 0 0 67 64 68 17 38 0 69 70
 71 65 29 20 0 72 -15 255 69 143 0 53 73 0 17 70 0 69 53 38 54 72 74 0 0 +17 71
 0 69 38 53 12 75 76 0 0 -16 20 148 77 ?29 26 78 8 0 0 1 17 72 0 79 80 81 65 70
 74 0 37 -15 79 630 0 72 82 0 17 80 0 79 83 72 62 37 84 0 0 -17 81 0 79 72 83 54
 85 86 0 70 +16 74 551 87 ?70 84 0 88 0 0 1 17 37 0 35 29 47 65 80 84 0 0 +15 35
 199 0 29 89 0 17 47 0 35 37 36 62 25 11 0 46 -16 84 557 90 ?37 91 74 92 0 0 1 8
1 1 90 559 31 84 0 0 87 93 94 16 91 579 93 ?83 86 84 95 0 0 1 30 92 653 0 84 88
 95 0 +2.1336 -.18415 4.2799 0 1 0 30 88 654 0 74 0 92 0 +2.1336 -.09525 4.13702
5 0 0 -1 30 95 652 0 91 92 96 0 +2.1336 -.18415 4.137025 0 0 -1 30 96 651 0 86 9
5 97 0 +2.1336 -.18415 3.99415 0 1 0 16 86 582 67 ?81 76 91 96 0 0 1 30 97 455 0
 76 96 98 0 +-2.1336 -.09525 4.137025 0 0 -1 16 76 380 99 ?75 100 86 97 0 0 1 30
 98 454 0 100 97 101 0 +-2.1336 -.18415 3.99415 0 1 0 16 100 360 102 ?103 104 76
 98 0 0 1 30 101 453 0 104 98 105 0 +-2.1336 -.18415 4.137025 0 0 -1 16 104 366
 106 ?45 107 100 101 0 0 1 30 105 452 0 107 101 108 0 +-2.1336 -.18415 4.2799 0
 1 0 16 107 383 109 ?39 78 104 105 0 0 1 30 108 9 0 26 105 27 0 +-1.86055 -.1841
5 3.99415 1 0 0 16 26 7 110 ?61 11 20 108 0 0 1 30 27 39 0 11 108 21 0 +44408920
98500625e-31 -.18415 4.2799 -1 0 0 30 21 188 0 78 27 8 0 +-1.86055 -.09525 3.994
15 1 0 0 16 78 156 111 ?57 20 107 21 0 0 1 81 1 111 693 31 78 0 0 112 110 113 17
 57 0 114 85 103 54 53 78 0 81 +15 114 203 0 57 17 0 17 85 0 114 48 57 58 81 86
 0 0 -17 103 0 114 57 48 49 115 100 0 0 +17 53 0 69 71 70 49 57 78 0 75 -17 75 0
 116 115 39 49 71 76 0 103 +15 116 431 0 75 117 0 17 115 0 116 118 75 41 103 100
 0 45 -17 39 0 116 75 118 12 36 107 0 71 +17 118 0 116 39 115 30 45 104 0 0 -17
 36 0 35 47 29 30 39 107 0 118 -17 45 0 44 61 25 41 118 104 0 0 +15 44 6 0 61 11
9 0 17 61 0 44 46 45 58 48 26 0 83 +17 46 0 44 25 61 62 83 91 0 80 -17 48 0 114
 103 85 41 61 26 0 115 -17 83 0 79 81 80 58 46 91 0 85 +14 255 119 1 120 ?73 89
 44 6 121 +0 0 73 89 23 81 1 120 706 122 119 123 0 124 125 126 14 73 132 125 ?11
7 119 69 6 127 -0 0 117 119 23 14 89 200 124 ?119 17 35 6 19 -0 0 119 17 23 50 1
21 3 0 119 128 127 0 +0 -.18415 3.96875 0 -1 0 1 0 0 13 23 89 0 0 0 0 0 0 10 17
 14 17 204 129 ?89 0 114 6 7 -0 0 89 0 23 81 1 129 704 122 17 130 0 0 124 131 80
 7 CCCCCDI12 legal_owners0 17 1 lCZ1 122 0 132 8001 0 0 0 0 3 5 0 0 0 FFFFTFTFFF
FFFFFFF2 81 1 130 697 31 17 0 129 24 133 134 81 1 124 705 122 89 135 0 129 120 1
36 83 255 3 131 .917647058823529 .917647058823529 .917647058823529 81 1 135 700
 31 89 0 124 123 0 137 83 3 136 .917647058823529 .917647058823529 .9176470588235
29 80 1 31 138 139 9000 0 0 0 0 3 6 0 0 0 FFTFTFTTFFFFFFFFF1 81 1 123 699 31 119
 0 120 133 135 140 82 255 3 137 177 3 2 81 1 133 698 31 73 0 125 130 123 141 82
 3 140 177 2 2 81 1 125 707 122 73 133 0 120 142 143 82 3 141 177 1 2 81 1 142 7
08 122 117 33 0 125 144 145 83 3 143 .917647058823529 .917647058823529 .91764705
8823529 14 117 428 142 ?82 73 116 6 128 -0 0 82 73 23 81 1 33 430 31 117 0 142 2
8 87 146 81 1 144 709 122 82 147 0 142 0 148 83 3 145 .917647058823529 .91764705
8823529 .917647058823529 14 82 627 144 ?0 117 79 6 149 +0 0 0 117 23 81 1 147 62
9 31 82 0 144 56 112 150 83 3 148 .917647058823529 .917647058823529 .91764705882
3529 81 1 56 610 31 54 0 0 60 147 151 81 1 112 692 31 1 0 152 147 111 153 82 3 1
50 176 5 2 81 1 152 701 154 1 112 14 0 0 155 82 3 153 26 0 3 80 1 154 156 157 80
38 0 0 0 0 0 0 0 0 0 TTTTTTTTTTTTTFTFT10 81 1 14 702 156 1 152 2 0 0 158 98 255
 7 155 80 97 114 116 32 49 56 80 1 156 159 160 8017 0 0 0 0 0 0 0 0 0 TTTTTTTTTT
TTTFTFT3 84 255 7 158 Part 1879 255 13 160 SDL/TYSA_NAME79 14 157 SDL/TYSA_UNAME
81 1 60 608 31 58 0 0 64 56 161 82 3 151 176 5 0 81 1 64 600 31 62 0 0 66 60 162
 82 3 161 176 7 0 82 3 162 176 3 0 50 149 642 0 82 0 128 0 +2.1336 -.18415 4.137
025 1 0 0 0 0 -1 50 128 443 0 117 149 121 0 +-2.1336 -.18415 4.137025 1 0 0 0 0
 -1 81 1 87 553 31 74 0 0 33 90 163 82 3 146 174 5 2 82 3 163 176 9 1 79 9 139 B
TI/DetId81 1 24 696 31 11 0 0 77 130 164 82 3 134 177 0 2 81 1 77 695 31 20 0 0
 110 24 165 82 3 164 177 3 1 81 1 110 694 31 26 0 0 111 77 166 82 3 165 177 2 1
 82 3 166 177 1 1 79 15 132 SDL/TYSA_COLOUR50 127 184 0 73 121 19 0 +0 -.09525 3
.96875 0 -1 0 1 0 0 50 19 206 0 89 127 7 0 +4440892098500625e-31 -.18415 4.2799
 0 0 -1 -1 0 0 83 3 126 .917647058823529 .917647058823529 .917647058823529 82 3
 113 177 0 1 81 1 109 385 31 107 0 0 99 42 167 81 1 99 382 31 76 0 0 106 109 168
 81 1 42 397 31 41 0 0 109 40 169 82 3 167 174 5 1 82 3 169 174 7 0 81 1 106 368
 31 104 0 0 102 99 170 82 3 168 174 9 1 81 1 102 362 31 100 0 0 0 106 171 82 3 1
70 174 11 1 82 3 171 174 7 1 81 1 67 584 31 86 0 0 93 66 172 81 1 93 581 31 91 0
 0 90 67 173 82 3 172 176 7 1 82 3 173 176 11 1 82 3 94 176 5 1 82 3 68 176 1 0
 81 1 32 409 31 49 0 0 40 28 174 82 3 174 174 5 0 82 3 43 174 3 0 82 3 34 174 1
 0 19 18 214 0 1 0 10 6 0 S0 74 4 CI16 index_map_offset0 0 1 dCCZ20 16 5 0 0 135
 152 14 2 144 0 0 0 0 0 0 0 0 0 0 0 0 0 0 0 80 1 13 122 175 8040 0 0 0 0 3 5 0 0
 0 TTTFFFFFFFFFFFFFF2 83 3 15 .917647058823529 .917647058823529 .917647058823529
 79 17 175 SDL/TYSA_COLOUR_21 0 
