**ABCDEFGHIJKLMNOPQRSTUVWXYZabcdefghijklmnopqrstuvwxyz**************************
**PARASOLID !"#$%&'()*+,-./:;<=>?@[\]^_`{|}~0123456789**************************
**PART1;
MC=unknown;
MC_MODEL=unknown;
MC_ID=unknown;
OS=unknown;
OS_RELEASE=unknown;
FRU=Parasolid 36.0.180;
APPL=Onshape;
SITE=unknown;
USER=unknown;
FORMAT=text;
GUISE=transmit;
KEY=BTGapi::writeModels_.xmt;
FILE=BTGapi::writeModels_.xmt;
DATE=2024-05-15T00:06:35 (UTC);
**PART2;
SCH=SCH_3600180_36001;
USFLD_SIZE=0;
**PART3;
**END_OF_HEADER*****************************************************************
T51 : TRANSMIT FILE created by modeller version 360018023 SCH_3600180_36001_1300
6231 0 12 36 CCCI7 lattice222 0 CCCI4 mesh1006 0 I8 polyline1008 0 CCCCCCCDI5 ow
ner1040 0 CCCI16 boundary_lattice222 0 CCCI13 boundary_mesh1006 0 I17 boundary_p
olyline1008 0 CCCA16 index_map_offset0 0 1 dA9 index_map82 0 A17 node_id_index_m
ap82 0 A20 schema_embedding_map82 0 A5 child12 0 A14 lowest_node_id0 0 1 dA16 me
sh_offset_data206 0 Z1 475 2 3 0 0 0 0 0 0 0 1e3 1e-8 0 4 5 1 0 1 2 6 0 7 8 9 0
 0 10 11 12 0 0 0 0 0 0 0 81 255 1 2 468 13 1 14 0 0 0 15 70 11 CI9 list_type0 0
 1 uI10 notransmit0 0 1 lCCCDCCDI12 finger_index0 0 1 dI12 finger_block1012 0 CZ
3 0 4 T1 0 0 5 20 1 16 16 13 255 6 49 0 1 0 17 0 0 18 0 50 255 7 132 0 17 19 0 0
 +.09525 -2.63525 5.72135 -1 0 0 0 0 1 30 255 8 216 0 11 20 0 0 +-.09525 -3.1803
477395798 5.34700576920424 0 -.56610724400796 .824331600923871 29 255 9 201 0 12
 21 0 .09525 -2.54 4.81838 19 9 CCCCCCI5 frame230 0 CA5 owner12 0 Z10 48 0 1 18
 0 22 0 V0 16 255 11 214 23 ?24 0 25 8 0 0 1 18 255 12 197 26 27 0 28 9 ?1 81 1
 26 443 29 12 0 0 30 31 32 17 255 27 0 33 34 35 12 36 37 0 38 +18 28 92 39 40 12
 41 21 ?1 81 1 39 152 29 28 0 0 0 42 43 17 40 0 44 45 38 28 46 47 0 48 +18 41 96
 42 49 28 50 51 ?1 29 21 113 0 28 51 9 .09525 -2.54 3.99415 29 51 114 0 41 52 21
 -.09525 -2.54 3.99415 29 52 115 0 50 53 51 -.09525 -2.7305 3.99415 18 50 100 54
 55 41 56 52 ?1 29 53 116 0 56 57 52 .09525 -2.7305 3.99415 18 56 104 58 59 50 6
0 53 ?1 29 57 391 0 60 61 53 .09525 -2.7305 4.69196432385119 18 60 313 62 63 56
 64 57 ?1 29 61 392 0 64 65 57 -.09525 -2.7305 4.69196432385119 18 64 314 66 24
 60 67 61 ?1 29 65 393 0 67 68 61 -.09525 -2.54 4.81838 18 67 316 31 34 64 69 65
 ?1 29 68 395 0 69 70 65 -.09525 -2.7284422039712 4.68896788401978 18 69 315 71
 72 67 73 68 ?1 29 70 396 0 73 0 68 .09525 -2.7284422039712 4.68896788401978 18
 73 322 74 75 69 0 70 ?1 81 1 74 447 29 73 0 0 66 71 76 17 75 0 77 78 63 73 79 8
0 0 35 +15 255 77 338 0 75 81 0 17 78 0 77 24 75 69 35 82 0 83 +17 63 0 77 75 24
 60 84 85 0 79 +17 79 0 86 59 36 60 75 80 0 87 -16 80 277 88 ?75 89 85 90 0 0 1
 17 35 0 33 27 72 73 78 82 0 36 -15 33 342 0 27 91 0 17 72 0 33 35 34 69 92 93 0
 78 +16 82 256 94 ?78 93 0 95 0 0 1 17 36 0 86 79 46 73 27 37 0 0 -15 86 236 0 3
6 17 0 17 46 0 86 36 96 12 40 47 0 0 -16 37 259 97 ?27 85 93 98 0 0 1 81 1 97 45
1 29 37 0 0 99 88 100 16 85 274 99 ?63 80 37 101 0 0 1 16 93 265 102 ?72 37 82 1
03 0 0 1 30 98 377 0 37 103 101 0 +.09525 -2.1833444643914 5.06331211481555 0 .8
24331600923872 .566107244007959 30 103 378 0 93 95 98 0 +-.09525 -2.183344464391
4 5.06331211481555 0 -.824331600923872 -.566107244007959 30 101 376 0 85 98 90 0
 +0 -2.7305 4.69196432385119 1 0 0 30 90 375 0 80 101 104 0 +.09525 -3.180347739
5798 5.34700576920424 0 .56610724400796 -.824331600923871 30 104 112 0 89 90 105
 0 +.09525 -2.63525 3.99415 0 1 0 16 89 88 106 ?96 107 80 104 0 0 1 30 105 111 0
 107 104 108 0 +0 -2.7305 3.99415 1 0 0 16 107 84 109 ?110 111 89 105 0 0 1 30 1
08 110 0 111 105 112 0 +-.09525 -2.63525 3.99415 0 -1 0 16 111 80 113 ?114 115 1
07 108 0 0 1 30 112 109 0 115 108 116 0 +0 -2.54 3.99415 -1 0 0 16 115 76 117 ?4
5 47 111 112 0 0 1 30 116 133 0 47 112 118 0 +.09525 -2.54 5.72135 0 0 -1 16 47
 117 119 ?40 120 115 116 0 0 1 30 118 134 0 120 116 121 0 +-.09525 -2.54 5.72135
 0 0 -1 16 120 118 122 ?49 123 47 118 0 0 1 30 121 135 0 123 118 124 0 +-.09525
 -2.7305 5.72135 0 0 -1 16 123 119 125 ?55 126 120 121 0 0 1 30 124 136 0 126 12
1 20 0 +.09525 -2.7305 5.72135 0 0 -1 16 126 120 127 ?59 25 123 124 0 0 1 30 20
 204 0 25 124 8 0 +0 -2.54 4.81838 -1 0 0 16 25 202 128 ?34 11 126 20 0 0 1 81 1
 128 449 29 25 0 0 71 99 129 17 34 0 33 72 27 67 38 25 0 92 +17 38 0 44 40 130 1
2 34 25 0 46 -17 92 0 131 49 83 67 72 93 0 130 -15 131 218 0 92 132 0 17 49 0 13
1 114 92 41 130 120 0 45 +17 83 0 131 92 133 69 24 11 0 0 -17 130 0 44 38 45 67
 49 120 0 0 -15 44 203 0 38 134 0 17 45 0 44 130 40 41 48 115 0 135 +17 48 0 136
 137 135 28 45 115 0 96 -17 135 0 136 48 138 41 114 111 0 0 -15 136 75 0 137 139
 0 17 138 0 136 135 137 50 110 107 0 0 -17 114 0 131 133 49 50 135 111 0 138 +17
 133 0 131 83 114 64 55 123 0 0 -17 55 0 140 110 84 50 133 123 0 114 +15 140 228
 0 84 141 0 17 110 0 140 87 55 56 138 107 0 137 +17 84 0 140 55 87 64 63 85 0 13
3 -17 87 0 140 84 110 60 59 126 0 0 -17 59 0 86 96 79 56 87 126 0 110 +17 96 0 8
6 46 59 28 137 89 0 0 +17 137 0 136 138 48 56 96 89 0 0 -14 255 141 126 142 ?132
 17 140 6 19 -0 0 132 17 22 81 1 142 470 143 141 144 0 145 146 147 14 132 124 14
6 ?134 141 131 6 148 -0 0 134 141 22 14 17 128 145 ?141 0 86 6 7 -0 0 141 0 22 5
0 19 131 0 141 148 7 0 +0 -2.7305 5.72135 0 1 0 0 0 1 13 22 137 0 0 0 0 0 0 10 1
7 50 148 130 0 132 149 19 0 +-.09525 -2.63525 5.72135 1 0 0 0 0 -1 50 149 129 0
 134 150 148 0 +0 -2.54 5.72135 0 -1 0 0 0 -1 14 134 122 151 ?139 132 44 6 149 -
0 0 139 132 22 50 150 108 0 139 152 149 0 +0 -.64045031138755 3.99415 0 0 -1 1 0
 0 14 139 68 153 ?81 134 136 6 150 +0 0 81 134 22 50 152 369 0 81 154 150 0 +1.6
129 -3.19576373389977 5.36945362058244 0 .824331600923871 .56610724400796 0 -.56
610724400796 .824331600923871 14 81 347 155 ?91 139 77 6 152 +0 0 91 139 22 50 1
54 372 0 91 0 152 0 +1.6129 -2.00608042208161 5.18504766194396 0 -.5661072440079
59 .824331600923872 0 -.824331600923872 -.566107244007959 14 91 343 156 ?0 81 33
 6 154 +0 0 0 81 22 81 1 156 475 143 91 157 0 155 0 158 80 7 CCCCCDI12 legal_own
ers0 17 1 lCZ1 143 0 159 8001 0 0 0 0 3 5 0 0 0 FFFFTFTFFFFFFFFFF2 81 1 157 460
 29 91 0 156 127 160 161 81 1 155 474 143 81 160 0 153 156 162 83 255 3 158 .647
058823529412 .647058823529412 .647058823529412 81 1 160 461 29 81 0 155 157 163
 164 81 1 153 473 143 139 165 0 151 155 166 83 3 162 .647058823529412 .647058823
529412 .647058823529412 81 1 165 173 29 139 0 153 113 30 167 81 1 151 472 143 13
4 163 0 146 153 168 83 3 166 .647058823529412 .647058823529412 .647058823529412
 81 1 163 462 29 134 0 151 160 144 169 81 1 146 471 143 132 170 0 142 151 171 83
 3 168 .647058823529412 .647058823529412 .647058823529412 81 1 170 465 29 132 0
 146 172 0 173 83 3 171 .647058823529412 .647058823529412 .647058823529412 80 1
 29 174 175 9000 0 0 0 0 3 6 0 0 0 FFTFTFTTFFFFFFFFF1 81 1 172 464 29 17 0 145 1
44 170 176 82 255 3 173 94 11 2 81 1 145 469 143 17 172 0 0 142 177 81 1 144 463
 29 141 0 142 163 172 178 82 3 176 94 10 2 82 3 178 94 9 2 83 3 177 .64705882352
9412 .647058823529412 .647058823529412 79 255 9 175 BTI/DetId82 3 169 94 8 2 81
 1 113 170 29 111 0 0 106 165 179 81 1 30 178 29 1 0 180 165 26 181 82 3 167 92
 1 2 81 1 180 466 182 1 30 14 0 0 183 82 3 181 92 0 3 80 1 182 184 185 8038 0 0
 0 0 0 0 0 0 0 TTTTTTTTTTTTTFTFT10 81 1 14 467 184 1 180 2 0 0 186 98 255 35 183
 80 97 114 116 32 52 53 32 55 46 53 120 55 46 53 120 51 50 46 52 53 32 97 110 10
3 108 101 100 32 51 52 46 52 55 57 80 1 184 187 188 8017 0 0 0 0 0 0 0 0 0 TTTTT
TTTTTTTTFTFT3 84 255 35 186 Part 45 7.5x7.5x32.45 angled 34.47979 13 188 SDL/TYS
A_NAME79 14 185 SDL/TYSA_UNAME81 1 106 168 29 89 0 0 109 113 189 82 3 179 92 10
 1 81 1 109 166 29 107 0 0 117 106 190 82 3 189 92 8 1 81 1 117 164 29 115 0 0 5
8 109 191 82 3 190 92 6 1 81 1 58 158 29 56 0 0 54 117 192 82 3 191 92 4 1 81 1
 54 156 29 50 0 0 42 58 193 82 3 192 92 6 0 81 1 42 154 29 41 0 0 39 54 194 82 3
 193 92 4 0 82 3 194 92 2 0 82 3 164 94 1 2 81 1 127 459 29 126 0 0 125 157 195
 82 3 161 94 0 2 81 1 125 458 29 123 0 0 122 127 196 82 3 195 94 21 1 81 1 122 4
57 29 120 0 0 119 125 197 82 3 196 94 20 1 81 1 119 456 29 47 0 0 94 122 198 82
 3 197 94 19 1 81 1 94 455 29 82 0 0 23 119 199 82 3 198 94 18 1 81 1 23 454 29
 11 0 0 102 94 200 82 3 199 94 12 1 81 1 102 453 29 93 0 0 88 23 201 82 3 200 94
 11 1 81 1 88 452 29 80 0 0 97 102 202 82 3 201 94 10 1 82 3 202 94 9 1 79 15 15
9 SDL/TYSA_COLOUR83 3 147 .647058823529412 .647058823529412 .647058823529412 17
 24 0 77 63 78 64 83 11 0 84 +81 1 71 448 29 69 0 0 74 128 203 81 1 99 450 29 85
 0 0 128 97 204 82 3 129 94 6 1 82 3 204 94 7 1 82 3 203 94 11 0 30 95 382 0 82
 0 103 0 +1.6129 -2.7284422039712 4.68896788401978 -1 0 0 82 3 100 94 8 1 81 1 6
6 446 29 64 0 0 62 74 205 82 3 76 94 10 0 81 1 62 445 29 60 0 0 31 66 206 82 3 2
05 94 9 0 81 1 31 444 29 67 0 0 26 62 207 82 3 206 94 8 0 82 3 207 94 7 0 82 3 4
3 92 0 0 82 3 32 94 6 0 19 18 138 0 1 0 10 6 0 S0 74 4 CI16 index_map_offset0 0
 1 dCCZ20 16 5 0 0 170 180 14 2 156 0 0 0 0 0 0 0 0 0 0 0 0 0 0 0 80 1 13 143 20
8 8040 0 0 0 0 3 5 0 0 0 TTTFFFFFFFFFFFFFF2 83 3 15 .647058823529412 .6470588235
29412 .647058823529412 79 17 208 SDL/TYSA_COLOUR_21 0 
