**ABCDEFGHIJKLMNOPQRSTUVWXYZabcdefghijklmnopqrstuvwxyz**************************
**PARASOLID !"#$%&'()*+,-./:;<=>?@[\]^_`{|}~0123456789**************************
**PART1;
MC=unknown;
MC_MODEL=unknown;
MC_ID=unknown;
OS=unknown;
OS_RELEASE=unknown;
FRU=Parasolid 36.0.180;
APPL=Onshape;
SITE=unknown;
USER=unknown;
FORMAT=text;
GUISE=transmit;
KEY=BTGapi::writeModels_.xmt;
FILE=BTGapi::writeModels_.xmt;
DATE=2024-05-15T00:06:35 (UTC);
**PART2;
SCH=SCH_3600180_36001;
USFLD_SIZE=0;
**PART3;
**END_OF_HEADER*****************************************************************
T51 : TRANSMIT FILE created by modeller version 360018023 SCH_3600180_36001_1300
6231 0 12 36 CCCI7 lattice222 0 CCCI4 mesh1006 0 I8 polyline1008 0 CCCCCCCDI5 ow
ner1040 0 CCCI16 boundary_lattice222 0 CCCI13 boundary_mesh1006 0 I17 boundary_p
olyline1008 0 CCCA16 index_map_offset0 0 1 dA9 index_map82 0 A17 node_id_index_m
ap82 0 A20 schema_embedding_map82 0 A5 child12 0 A14 lowest_node_id0 0 1 dA16 me
sh_offset_data206 0 Z1 450 2 3 0 0 0 0 0 0 0 1e3 1e-8 0 4 5 1 0 1 2 6 0 7 8 9 0
 0 10 11 12 0 0 0 0 0 0 0 81 255 1 2 444 13 1 14 0 0 0 15 70 11 CI9 list_type0 0
 1 uI10 notransmit0 0 1 lCCCDCCDI12 finger_index0 0 1 dI12 finger_block1012 0 CZ
3 0 4 T1 0 0 5 20 1 16 16 13 255 6 142 0 1 0 17 0 0 18 0 50 255 7 137 0 19 20 0
 0 +.0381 .2646710684627825 6.73048847537274 -1 1373139408596308e-31 -9429993528
9144e-30 1373139408596308e-31 1 0 30 255 8 141 0 21 22 0 0 +.0381 .3161786042149
09 6.69511583033815 0 -.566107244007959 -.824331600923871 29 255 9 118 0 23 24 0
 2.4765 .307640999341214 6.68268387938171 19 9 CCCCCCI5 frame230 0 CA5 owner12 0
 Z10 1 0 1 18 0 25 0 V0 16 255 11 122 26 ?27 0 21 22 0 0 1 18 255 12 26 28 29 0
 30 31 ?1 81 1 28 186 32 12 0 0 33 34 35 17 255 29 0 36 37 38 12 39 40 0 41 -18
 30 35 42 43 12 23 44 ?1 29 31 46 0 12 44 24 2.4765 .316178604214909 6.695115830
33815 29 44 43 0 30 45 31 .0381 .316178604214909 6.69511583033815 29 24 121 0 46
 31 9 .0381 .307640999341214 6.68268387938171 18 46 109 34 47 23 48 24 ?1 81 1 3
4 191 32 46 0 0 28 42 49 17 47 0 50 51 52 46 53 54 0 55 -18 23 97 33 56 30 46 9
 ?1 18 48 309 57 58 46 59 45 ?1 81 1 57 310 32 48 0 0 60 61 62 17 58 0 50 52 51
 48 56 63 0 64 +18 59 307 60 39 48 65 66 ?1 29 45 369 0 48 66 44 2.4765 0 6.8939
5540904978 29 66 370 0 59 67 45 2.4765 1110223024625156e-31 6.91225053443754 29
 67 371 0 65 68 66 .0381 -555111512312578e-31 6.91225053443754 18 65 315 61 69 5
9 70 67 ?1 29 68 372 0 70 0 67 .0381 0 6.89395540904978 18 70 319 71 53 65 0 68
 ?1 81 1 71 320 32 70 0 0 61 72 73 17 53 0 74 75 55 70 47 54 0 52 +15 255 74 132
 0 53 19 0 17 75 0 74 43 53 65 76 77 0 0 -17 55 0 74 53 43 46 78 21 0 79 +16 54
 93 80 ?53 63 81 82 0 0 1 17 52 0 50 47 58 70 83 84 0 76 +15 50 78 0 51 85 0 17
 83 0 86 87 76 48 52 84 0 0 -16 84 267 88 ?52 81 89 90 0 0 1 17 76 0 86 83 91 70
 75 77 0 0 +15 86 324 0 83 92 0 17 91 0 86 76 87 65 38 89 0 75 +16 77 264 93 ?76
 89 0 94 0 0 1 81 1 93 266 32 77 0 0 95 88 96 16 89 261 95 ?91 84 77 97 0 0 1 30
 94 357 0 77 97 98 0 +.0381 0 7.32629228744631 478066662237089e-31 0 -1 30 97 35
8 0 89 90 94 0 +1.2573 0 6.91225053443754 -1 0 -1510410316744865e-47 30 98 38 0
 99 94 100 0 +.0381 .2646710684627825 6.73048847537274 -1665760971746515e-31 -.8
24331600923871 .56610724400796 16 99 20 101 ?69 40 102 98 0 0 1 30 100 40 0 40 9
8 103 0 +2.4765 .2646710684627825 6.73048847537274 0 -.824331600923871 .56610724
400796 16 40 14 104 ?39 105 99 100 0 0 1 30 103 42 0 105 100 82 0 +.4699 .316178
604214909 6.69511583033815 -1 873577609151503e-31 -599926791826936e-31 16 105 8
 106 ?37 21 40 103 0 0 1 30 82 117 0 54 103 107 0 +.0381 .2561334635890875 6.718
05652441631 -1665760971746515e-31 -.824331600923871 .56610724400796 30 107 115 0
 63 82 108 0 +2.4765 .2561334635890875 6.71805652441631 0 -.824331600923871 .566
10724400796 16 63 85 109 ?58 102 54 107 0 0 1 30 108 114 0 102 107 22 0 +.4699 .
307640999341214 6.68268387938171 -1 873577609151503e-31 -599926791826936e-31 16
 102 79 110 ?79 99 63 108 0 0 1 30 22 138 0 11 108 8 0 +2.4765 .316178604214909
 6.69511583033815 0 -.566107244007959 -.824331600923871 81 1 110 197 32 102 0 0
 111 106 112 17 79 0 113 78 27 46 51 102 0 0 +15 113 126 0 79 17 0 17 78 0 113 1
14 79 30 55 21 0 0 -17 27 0 113 79 114 23 41 11 0 51 +17 51 0 50 58 47 23 79 102
 0 0 -17 114 0 113 27 78 12 37 105 0 0 -17 41 0 115 39 56 12 27 11 0 114 -15 115
 128 0 56 116 0 17 39 0 115 64 41 59 29 40 0 87 +17 56 0 115 41 64 23 58 63 0 27
 -17 64 0 115 56 39 48 87 81 0 83 +17 87 0 86 91 83 59 64 81 0 38 -16 81 273 117
 ?64 54 84 118 0 0 1 81 1 117 275 32 81 0 0 88 60 119 30 118 360 0 81 0 90 0 +2.
4765 0 7.32629228744631 478066662237089e-31 0 -1 30 90 359 0 84 118 97 0 +1.2573
 0 6.89395540904978 -1 0 -1510410316744865e-47 80 7 CCCCCDI12 legal_owners0 17 1
 lCZ1 32 120 121 9000 0 0 0 0 3 6 0 0 0 FFTFTFTTFFFFFFFFF1 81 1 88 269 32 84 0 0
 93 117 122 81 1 60 308 32 59 0 0 117 57 123 82 255 3 119 160 5 1 82 3 123 160 3
 0 82 3 122 160 9 1 79 255 9 121 BTI/DetId17 38 0 36 29 69 59 91 89 0 0 -15 36 7
 0 37 124 0 17 69 0 36 38 37 65 43 99 0 91 +17 37 0 36 69 29 30 114 105 0 78 +17
 43 0 74 55 75 30 69 99 0 37 -14 255 124 4 125 ?85 19 36 6 126 +0 0 85 19 25 81
 1 125 448 127 124 128 0 129 130 131 14 85 70 130 ?92 124 50 6 132 -0 0 92 124 2
5 14 19 133 129 ?124 116 74 6 7 +0 0 124 116 25 50 126 48 0 124 133 132 0 +-.317
5 2.183192623235425 5.41294957631201 0 .56610724400796 .824331600923871 1 0 0 13
 25 3 0 0 0 0 0 0 10 17 14 17 127 134 ?116 0 113 6 135 +0 0 116 0 25 81 1 134 44
5 127 17 136 0 0 137 138 14 116 129 137 ?19 17 115 6 20 -0 0 19 17 25 50 135 134
 0 17 132 20 0 +.4699 .316178604214909 6.69511583033815 105974053181079e-30 .824
331600923871 -.566107244007959 0 -.56610724400796 -.824331600923872 50 132 113 0
 85 126 135 0 +-.3175 2.17465501836173 5.40051762535558 0 .56610724400796 .82433
1600923871 1 0 0 50 20 135 0 116 135 7 0 +2.4765 .2646710684627825 6.73048847537
274 -1 0 0 0 0 1 81 1 137 446 127 116 139 0 134 129 140 80 1 127 0 141 8001 0 0
 0 0 3 5 0 0 0 FFFFTFTFFFFFFFFFF2 81 1 139 409 32 116 0 137 128 142 143 81 1 129
 447 127 19 142 0 137 125 144 83 255 3 140 .917647058823529 .917647058823529 .91
7647058823529 81 1 142 410 32 19 0 129 139 0 145 83 3 144 .917647058823529 .9176
47058823529 .917647058823529 82 3 145 161 3 2 81 1 128 408 32 124 0 125 146 139
 147 82 3 143 161 2 2 81 1 146 407 32 85 0 130 101 128 148 82 3 147 161 1 2 81 1
 130 449 127 85 146 0 125 149 150 81 1 101 406 32 99 0 0 80 146 151 82 3 148 161
 0 2 81 1 80 405 32 54 0 0 104 101 152 82 3 151 161 3 1 81 1 104 404 32 40 0 0 1
09 80 153 82 3 152 161 2 1 81 1 109 403 32 63 0 0 154 104 155 82 3 153 161 1 1 8
1 1 154 402 32 1 0 156 72 109 157 82 3 155 161 0 1 81 1 156 442 158 1 154 14 0 0
 159 81 1 72 323 32 92 0 149 71 154 160 82 3 157 120 14 3 14 92 321 149 ?0 85 86
 6 133 +0 0 0 85 25 81 1 149 450 127 92 72 0 130 0 161 82 3 160 160 5 2 83 3 161
 .917647058823529 .917647058823529 .917647058823529 50 133 351 0 92 0 126 0 +0 0
 0 0 -1 0 0 0 -1 80 1 158 162 163 8038 0 0 0 0 0 0 0 0 0 TTTTTTTTTTTTTFTFT10 81
 1 14 443 162 1 156 2 0 0 164 98 255 20 159 80 97 114 116 32 49 55 55 32 112 108
 121 119 111 111 100 32 98 111 116 80 1 162 165 166 8017 0 0 0 0 0 0 0 0 0 TTTTT
TTTTTTTTFTFT3 84 255 20 164 Part 177 plywood bot79 13 166 SDL/TYSA_NAME79 14 163
 SDL/TYSA_UNAME83 3 150 .917647058823529 .917647058823529 .917647058823529 79 15
 141 SDL/TYSA_COLOUR81 1 136 205 32 17 0 134 106 95 167 83 3 138 .91764705882352
9 .917647058823529 .917647058823529 81 1 106 198 32 105 0 0 110 136 168 81 1 95
 263 32 89 0 0 136 93 169 82 3 167 120 81 2 82 3 169 160 11 1 82 3 168 120 167 1
 83 3 131 .917647058823529 .917647058823529 .917647058823529 16 21 125 111 ?55 1
1 105 8 0 0 1 81 1 111 196 32 21 0 0 26 110 170 81 1 26 193 32 11 0 0 42 111 171
 82 3 170 120 131 1 81 1 42 192 32 30 0 0 34 26 172 82 3 171 120 125 1 82 3 172
 120 119 0 82 3 112 120 166 1 82 3 96 160 7 1 81 1 61 316 32 65 0 0 57 71 173 82
 3 73 160 5 0 82 3 173 160 7 0 82 3 62 160 1 0 81 1 33 185 32 23 0 0 0 28 174 82
 3 174 120 106 0 82 3 49 120 118 0 82 3 35 120 107 0 19 18 143 0 1 0 10 6 0 S0 7
4 4 CI16 index_map_offset0 0 1 dCCZ20 16 5 0 0 142 156 14 2 149 0 0 0 0 0 0 0 0
 0 0 0 0 0 0 0 80 1 13 127 175 8040 0 0 0 0 3 5 0 0 0 TTTFFFFFFFFFFFFFF2 83 3 15
 .917647058823529 .917647058823529 .917647058823529 79 17 175 SDL/TYSA_COLOUR_21
 0 
