**ABCDEFGHIJKLMNOPQRSTUVWXYZabcdefghijklmnopqrstuvwxyz**************************
**PARASOLID !"#$%&'()*+,-./:;<=>?@[\]^_`{|}~0123456789**************************
**PART1;
MC=unknown;
MC_MODEL=unknown;
MC_ID=unknown;
OS=unknown;
OS_RELEASE=unknown;
FRU=Parasolid 36.0.180;
APPL=Onshape;
SITE=unknown;
USER=unknown;
FORMAT=text;
GUISE=transmit;
KEY=BTGapi::writeModels_.xmt;
FILE=BTGapi::writeModels_.xmt;
DATE=2024-05-15T00:06:35 (UTC);
**PART2;
SCH=SCH_3600180_36001;
USFLD_SIZE=0;
**PART3;
**END_OF_HEADER*****************************************************************
T51 : TRANSMIT FILE created by modeller version 360018023 SCH_3600180_36001_1300
6231 0 12 36 CCCI7 lattice222 0 CCCI4 mesh1006 0 I8 polyline1008 0 CCCCCCCDI5 ow
ner1040 0 CCCI16 boundary_lattice222 0 CCCI13 boundary_mesh1006 0 I17 boundary_p
olyline1008 0 CCCA16 index_map_offset0 0 1 dA9 index_map82 0 A17 node_id_index_m
ap82 0 A20 schema_embedding_map82 0 A5 child12 0 A14 lowest_node_id0 0 1 dA16 me
sh_offset_data206 0 Z1 324 2 3 0 0 0 0 0 0 0 1e3 1e-8 0 4 5 1 0 1 2 6 0 7 8 9 0
 0 10 11 12 0 0 0 0 0 0 0 81 255 1 2 318 13 1 14 0 0 0 15 70 11 CI9 list_type0 0
 1 uI10 notransmit0 0 1 lCCCDCCDI12 finger_index0 0 1 dI12 finger_block1012 0 CZ
3 0 4 T1 0 0 5 20 1 16 16 13 255 6 94 0 1 0 17 0 0 18 0 50 255 7 183 0 17 19 0 0
 +1.26365 -2.63525 1.2192 1 -364246399155235e-30 0 3642463991552355e-31 1 0 30 2
55 8 187 0 11 20 0 0 +1.26365 -2.33045 1.2192 0 0 -1 29 255 9 164 0 21 22 0 1.26
365 -2.94005 0 19 9 CCCCCCI5 frame230 0 CA5 owner12 0 Z10 93 0 1 18 0 23 0 V0 16
 255 11 171 24 ?25 0 26 8 0 0 1 18 255 12 67 27 28 0 29 30 ?1 81 1 27 208 31 12
 0 0 32 33 34 17 255 28 0 35 36 37 12 38 39 0 40 -18 29 62 41 42 12 43 44 ?1 29
 30 69 0 12 44 45 1.26365 -2.94005 1.2192 29 44 64 0 29 46 30 1.87325 -2.94005 1
.2192 29 45 167 0 47 30 48 1.26365 -2.33045 0 18 47 155 49 25 50 0 45 ?1 29 48 1
66 0 50 45 22 1.87325 -2.33045 0 18 50 151 51 52 53 47 48 ?1 29 22 165 0 53 48 9
 1.87325 -2.94005 0 18 53 147 33 54 21 50 22 ?1 81 1 33 209 31 53 0 0 27 41 55 1
7 54 0 56 57 58 53 42 59 0 60 +18 21 143 32 38 61 53 9 ?1 81 1 32 207 31 21 0 0
 62 27 63 17 38 0 64 60 40 21 28 39 0 65 +18 61 52 66 67 43 21 68 ?1 81 1 66 204
 31 61 0 0 49 51 69 17 67 0 70 71 72 61 25 11 0 73 -18 43 57 62 74 29 61 46 ?1 2
9 68 54 0 61 0 46 1.26365 -2.33045 1.2192 29 46 59 0 43 68 44 1.87325 -2.33045 1
.2192 81 1 62 206 31 43 0 0 51 32 75 17 74 0 56 58 57 43 52 26 0 71 -15 255 56 1
74 0 57 76 0 17 58 0 56 54 74 29 77 78 0 79 +17 57 0 56 74 54 50 80 81 0 82 -17
 52 0 70 72 71 50 74 26 0 57 +16 26 170 83 ?52 11 59 20 0 0 1 17 71 0 70 52 67 4
3 73 84 0 77 +15 70 176 0 72 85 0 17 73 0 86 87 77 61 71 84 0 36 -16 84 17 88 ?7
1 78 89 90 0 0 1 17 77 0 86 73 79 43 58 78 0 0 -15 86 6 0 87 91 0 17 79 0 86 77
 87 29 40 92 0 0 +16 78 22 93 ?58 92 84 94 0 0 1 81 1 93 222 31 78 0 0 95 96 97
 16 92 27 98 ?79 39 78 99 0 0 1 30 94 24 0 78 90 99 0 +1.87325 -2.63525 1.2192 -
364246399155235e-30 -1 0 30 90 19 0 84 100 94 0 +1.56845 -2.33045 1.2192 1 0 0 3
0 99 29 0 92 94 101 0 +1.56845 -2.94005 1.2192 1 0 0 30 101 163 0 102 99 103 0 +
1.26365 -2.63525 0 -364246399155235e-30 -1 0 16 102 139 104 ?37 105 0 101 0 0 1
 30 103 162 0 105 101 106 0 +1.56845 -2.33045 0 1 0 0 16 105 135 107 ?82 81 102
 103 0 0 1 30 106 161 0 81 103 108 0 +1.87325 -2.63525 0 -364246399155235e-30 -1
 0 16 81 131 95 ?80 109 105 106 0 0 1 30 108 160 0 109 106 110 0 +1.56845 -2.940
05 0 1 0 0 16 109 127 111 ?60 89 81 108 0 0 1 30 110 184 0 39 108 112 0 +1.26365
 -2.94005 1.2192 0 0 -1 16 39 168 113 ?38 59 92 110 0 0 1 30 112 185 0 59 110 20
 0 +1.87325 -2.94005 1.2192 0 0 -1 16 59 169 114 ?54 26 39 112 0 0 1 30 20 186 0
 26 112 8 0 +1.87325 -2.33045 1.2192 0 0 -1 81 1 114 214 31 59 0 0 113 107 115 8
0 7 CCCCCDI12 legal_owners0 17 1 lCZ1 31 116 117 9000 0 0 0 0 3 6 0 0 0 FFTFTFTT
FFFFFFFFF1 81 1 113 213 31 39 0 0 83 114 118 81 1 107 215 31 105 0 0 114 88 119
 82 255 3 115 187 3 1 81 1 88 216 31 84 0 0 107 111 120 82 3 119 187 4 1 81 1 11
1 217 31 109 0 0 88 98 121 82 3 120 187 5 1 81 1 98 218 31 92 0 0 111 104 122 82
 3 121 187 6 1 81 1 104 219 31 102 0 0 98 123 124 82 3 122 187 7 1 81 1 123 220
 31 89 0 0 104 95 125 82 3 124 187 8 1 16 89 12 123 ?87 84 109 100 0 0 1 81 1 95
 221 31 81 0 0 123 93 126 82 3 125 187 9 1 82 3 126 187 10 1 17 87 0 86 79 73 12
 36 89 0 0 +30 100 14 0 89 0 90 0 +1.26365 -2.63525 1.2192 -364246399155235e-30
 -1 0 17 36 0 35 25 28 61 87 89 0 0 -15 35 178 0 37 17 0 17 25 0 35 37 36 47 67
 11 0 72 +17 37 0 35 28 25 21 127 102 0 0 +17 72 0 70 67 52 47 82 105 0 127 -17
 82 0 128 80 127 50 72 105 0 0 +17 127 0 128 82 65 47 37 102 0 0 -15 128 126 0 1
27 129 0 17 65 0 128 127 80 21 60 109 0 37 -17 80 0 128 65 82 53 57 81 0 0 +17 6
0 0 64 42 38 53 65 109 0 80 +15 64 172 0 60 130 0 17 42 0 64 40 60 29 54 59 0 58
 -17 40 0 64 38 42 12 79 92 0 87 -14 255 130 173 131 ?91 76 64 6 132 -0 0 91 76
 23 81 1 131 322 133 130 134 0 135 136 137 14 91 1 136 ?129 130 86 6 138 -0 0 12
9 130 23 14 76 175 135 ?130 85 56 6 139 +0 0 130 85 23 50 132 180 0 130 140 139
 0 +1.56845 -2.94005 1.2192 0 1 0 0 0 1 13 23 188 0 0 0 0 0 0 10 17 14 17 179 14
1 ?85 0 35 6 7 -0 0 85 0 23 81 1 141 319 133 17 142 0 0 143 144 14 85 177 143 ?7
6 17 70 6 19 +0 0 76 17 23 81 1 143 320 133 85 96 0 141 135 145 50 19 182 0 85 1
39 7 0 +1.56845 -2.33045 1.2192 0 1 0 0 0 1 50 139 181 0 76 132 19 0 +1.87325 -2
.63525 1.2192 1 -364246399155235e-30 0 3642463991552355e-31 1 0 80 1 133 0 146 8
001 0 0 0 0 3 5 0 0 0 FFFFTFTFFFFFFFFFF2 81 1 96 223 31 85 0 143 93 147 148 81 1
 135 321 133 76 149 0 143 131 150 83 255 3 145 .768627450980392 .886274509803922
 .952941176470588 81 1 149 228 31 76 0 135 142 151 152 83 3 150 .768627450980392
 .886274509803922 .952941176470588 81 1 142 227 31 17 0 141 134 149 153 81 1 151
 229 31 1 0 154 149 0 155 82 3 152 187 5 2 81 1 154 316 156 1 151 14 0 0 157 82
 3 155 187 0 3 80 1 156 158 159 8038 0 0 0 0 0 0 0 0 0 TTTTTTTTTTTTTFTFT10 81 1
 14 317 158 1 154 2 0 0 160 98 255 8 157 80 97 114 116 32 51 48 56 80 1 158 161
 162 8017 0 0 0 0 0 0 0 0 0 TTTTTTTTTTTTTFTFT3 84 255 8 160 Part 30879 255 13 16
2 SDL/TYSA_NAME79 14 159 SDL/TYSA_UNAME81 1 134 226 31 130 0 131 163 142 164 82
 3 153 187 4 2 81 1 163 225 31 91 0 136 147 134 165 82 3 164 187 3 2 81 1 136 32
3 133 91 163 0 131 166 167 81 1 147 224 31 129 0 166 96 163 168 82 3 165 187 2 2
 14 129 118 166 ?0 91 128 6 140 +0 0 0 91 23 81 1 166 324 133 129 147 0 136 0 16
9 82 3 168 187 1 2 83 3 169 .768627450980392 .886274509803922 .952941176470588 5
0 140 159 0 129 138 132 0 +1.56845 -2.63525 0 0 0 -1 1 0 0 50 138 3 0 91 0 140 0
 +1.56845 -2.63525 1.2192 0 0 -1 1 0 0 83 3 167 .768627450980392 .88627450980392
2 .952941176470588 82 3 148 187 0 2 79 15 146 SDL/TYSA_COLOUR83 3 144 .768627450
980392 .886274509803922 .952941176470588 83 3 137 .768627450980392 .886274509803
922 .952941176470588 81 1 83 212 31 26 0 0 24 113 170 82 3 118 187 2 1 81 1 24 2
11 31 11 0 0 41 83 171 82 3 170 187 1 1 81 1 41 210 31 29 0 0 33 24 172 82 3 171
 187 0 1 82 3 172 187 7 0 79 9 117 BTI/DetId82 3 97 187 11 1 81 1 51 205 31 50 0
 0 66 62 173 82 3 75 187 3 0 82 3 173 187 2 0 81 1 49 203 31 47 0 0 0 66 174 82
 3 69 187 1 0 82 3 174 187 0 0 82 3 63 187 4 0 82 3 55 187 6 0 82 3 34 187 5 0 1
9 18 189 0 1 0 10 6 0 S0 74 4 CI16 index_map_offset0 0 1 dCCZ20 16 5 0 0 151 154
 14 2 166 0 0 0 0 0 0 0 0 0 0 0 0 0 0 0 80 1 13 133 175 8040 0 0 0 0 3 5 0 0 0 T
TTFFFFFFFFFFFFFF2 83 3 15 .768627450980392 .886274509803922 .952941176470588 79
 17 175 SDL/TYSA_COLOUR_21 0 
