**ABCDEFGHIJKLMNOPQRSTUVWXYZabcdefghijklmnopqrstuvwxyz**************************
**PARASOLID !"#$%&'()*+,-./:;<=>?@[\]^_`{|}~0123456789**************************
**PART1;
MC=unknown;
MC_MODEL=unknown;
MC_ID=unknown;
OS=unknown;
OS_RELEASE=unknown;
FRU=Parasolid 36.0.180;
APPL=Onshape;
SITE=unknown;
USER=unknown;
FORMAT=text;
GUISE=transmit;
KEY=BTGapi::writeModels_.xmt;
FILE=BTGapi::writeModels_.xmt;
DATE=2024-05-15T00:06:35 (UTC);
**PART2;
SCH=SCH_3600180_36001;
USFLD_SIZE=0;
**PART3;
**END_OF_HEADER*****************************************************************
T51 : TRANSMIT FILE created by modeller version 360018023 SCH_3600180_36001_1300
6231 0 12 36 CCCI7 lattice222 0 CCCI4 mesh1006 0 I8 polyline1008 0 CCCCCCCDI5 ow
ner1040 0 CCCI16 boundary_lattice222 0 CCCI13 boundary_mesh1006 0 I17 boundary_p
olyline1008 0 CCCA16 index_map_offset0 0 1 dA9 index_map82 0 A17 node_id_index_m
ap82 0 A20 schema_embedding_map82 0 A5 child12 0 A14 lowest_node_id0 0 1 dA16 me
sh_offset_data206 0 Z1 325 2 3 0 0 0 0 0 0 0 1e3 1e-8 0 4 5 1 0 1 2 6 0 7 8 9 0
 0 10 11 12 0 0 0 0 0 0 0 81 255 1 2 319 13 1 14 0 0 0 15 70 11 CI9 list_type0 0
 1 uI10 notransmit0 0 1 lCCCDCCDI12 finger_index0 0 1 dI12 finger_block1012 0 CZ
3 0 4 T1 0 0 5 20 1 16 16 13 255 6 227 0 1 0 17 0 0 18 0 50 255 7 222 0 17 19 0
 0 +-1.7526 0 3.6576 0 0 -1 -1 0 0 30 255 8 226 0 11 20 0 0 +-1.7526 -3.048 3.65
76 1 0 0 29 255 9 203 0 21 22 0 -1.6637 3.048 3.6576 19 9 CCCCCCI5 frame230 0 CA
5 owner12 0 Z10 102 0 1 18 0 23 0 V0 16 255 11 210 24 ?25 0 26 8 0 0 1 18 255 12
 96 27 28 0 29 30 ?1 81 1 27 249 31 12 0 0 32 33 34 17 255 28 0 35 36 37 12 38 3
9 0 40 -18 29 91 41 42 12 43 44 ?1 29 30 98 0 12 44 45 -1.7526 3.048 3.6576 29 4
4 93 0 29 46 30 -1.7526 3.048 3.99415 29 45 206 0 47 30 48 -1.6637 -3.048 3.6576
 18 47 194 49 25 50 0 45 ?1 29 48 205 0 50 45 22 -1.6637 -3.048 3.99415 18 50 19
0 33 51 52 47 48 ?1 29 22 204 0 52 48 9 -1.6637 3.048 3.99415 18 52 186 53 54 21
 50 22 ?1 81 1 53 252 31 52 0 0 55 41 56 17 54 0 35 37 36 52 57 58 0 59 +18 21 1
82 32 38 60 52 9 ?1 81 1 32 248 31 21 0 0 61 27 62 17 38 0 63 64 40 21 28 39 0 6
5 +18 60 61 61 66 43 21 67 ?1 81 1 61 247 31 60 0 0 49 32 68 17 66 0 63 40 64 60
 25 11 0 69 -18 43 66 55 70 29 60 46 ?1 29 67 63 0 60 0 46 -1.7526 -3.048 3.6576
 29 46 68 0 43 67 44 -1.7526 -3.048 3.99415 81 1 55 251 31 43 0 0 33 53 71 17 70
 0 72 42 73 43 69 74 0 75 +15 255 72 6 0 73 76 0 17 42 0 72 77 70 29 78 79 0 57
 +17 73 0 72 70 77 60 40 80 0 0 -17 69 0 81 25 75 60 70 74 0 73 -16 74 20 82 ?70
 79 80 83 0 0 1 17 75 0 81 69 51 43 84 26 0 78 -15 81 215 0 51 85 0 17 51 0 81 7
5 25 50 86 87 0 84 +17 84 0 88 59 78 50 75 26 0 89 +16 26 209 90 ?84 11 58 20 0
 0 1 17 78 0 88 84 57 43 42 79 0 0 -15 88 213 0 59 91 0 17 57 0 88 78 59 29 54 5
8 0 36 -16 79 25 92 ?42 93 74 94 0 0 1 81 1 92 261 31 79 0 0 95 96 97 16 93 46 9
8 ?36 39 79 99 0 0 1 30 94 27 0 79 83 99 0 +-1.7526 0 3.99415 0 1 0 30 83 22 0 7
4 100 94 0 +-1.7526 -3.048 3.825875 0 0 1 30 99 48 0 93 94 101 0 +-1.7526 3.048
 3.825875 0 0 1 30 101 202 0 102 99 103 0 +-1.6637 0 3.6576 0 1 0 16 102 174 104
 ?65 87 0 101 0 0 1 30 103 201 0 87 101 105 0 +-1.6637 -3.048 3.825875 0 0 1 16
 87 170 96 ?51 106 102 103 0 0 1 30 105 200 0 106 103 107 0 +-1.6637 0 3.99415 0
 1 0 16 106 162 95 ?59 108 87 105 0 0 1 30 107 199 0 108 105 109 0 +-1.6637 3.04
8 3.825875 0 0 1 16 108 158 110 ?111 80 106 107 0 0 1 30 109 223 0 39 107 112 0
 +-1.7526 3.048 3.6576 1 0 0 16 39 207 113 ?38 58 93 109 0 0 1 30 112 224 0 58 1
09 20 0 +-1.7526 3.048 3.99415 1 0 0 16 58 208 114 ?54 26 39 112 0 0 1 30 20 225
 0 26 112 8 0 +-1.7526 -3.048 3.99415 1 0 0 81 1 114 257 31 58 0 0 90 104 115 80
 7 CCCCCDI12 legal_owners0 17 1 lCZ1 31 116 117 9000 0 0 0 0 3 6 0 0 0 FFTFTFTTF
FFFFFFFF1 81 1 90 256 31 26 0 0 113 114 118 81 1 104 258 31 102 0 0 114 119 120
 82 255 3 115 12 3 1 81 1 119 259 31 80 0 0 104 95 121 82 3 120 12 4 1 16 80 15
 119 ?40 74 108 100 0 0 1 81 1 95 260 31 106 0 0 119 92 122 82 3 121 12 5 1 82 3
 122 12 6 1 17 40 0 63 38 66 12 73 80 0 77 +30 100 17 0 80 0 83 0 +-1.7526 0 3.6
576 0 1 0 15 63 217 0 64 17 0 17 77 0 72 73 42 12 36 93 0 0 -17 36 0 35 54 28 29
 77 93 0 0 +15 35 211 0 37 123 0 17 37 0 35 28 54 21 111 108 0 0 -14 255 123 212
 124 ?76 91 35 6 125 +0 0 76 91 23 81 1 124 323 126 123 127 0 128 129 130 14 76
 1 129 ?131 123 72 6 132 +0 0 131 123 23 14 91 214 128 ?123 85 88 6 133 -0 0 123
 85 23 50 125 219 0 123 134 133 0 +-1.7526 3.048 3.825875 0 1 0 0 0 1 13 23 103
 0 0 0 0 0 0 10 17 14 17 218 135 ?85 0 63 6 7 +0 0 85 0 23 81 1 135 320 126 17 1
36 0 0 137 138 14 85 216 137 ?91 17 81 6 19 -0 0 91 17 23 81 1 137 321 126 85 13
9 0 135 128 140 50 19 221 0 85 133 7 0 +-1.7526 -3.048 3.825875 0 1 0 0 0 1 50 1
33 220 0 91 125 19 0 +-1.7526 0 3.99415 0 0 -1 -1 0 0 80 1 126 0 141 8001 0 0 0
 0 3 5 0 0 0 FFFFTFTFFFFFFFFFF2 81 1 139 270 31 85 0 137 142 127 143 81 1 128 32
2 126 91 142 0 137 124 144 83 255 3 140 .647058823529412 .647058823529412 .64705
8823529412 81 1 142 269 31 91 0 128 145 139 146 83 3 144 .647058823529412 .64705
8823529412 .647058823529412 81 1 145 268 31 76 0 129 147 142 148 82 3 146 12 3 2
 81 1 129 324 126 76 145 0 124 149 150 81 1 147 267 31 131 0 149 136 145 151 82
 3 148 12 2 2 14 131 144 149 ?0 76 152 6 134 -0 0 0 76 23 81 1 149 325 126 131 1
47 0 129 0 153 81 1 136 266 31 17 0 135 98 147 154 82 3 151 12 1 2 81 1 98 265 3
1 93 0 0 110 136 155 82 3 154 12 0 2 81 1 110 264 31 108 0 0 82 98 156 82 3 155
 12 11 1 81 1 82 263 31 74 0 0 96 110 157 82 3 156 12 10 1 81 1 96 262 31 87 0 0
 92 82 158 82 3 157 12 9 1 82 3 158 12 8 1 83 3 153 .647058823529412 .6470588235
29412 .647058823529412 15 152 157 0 65 131 0 50 134 198 0 131 132 125 0 +-1.6637
 0 2.40919 -1 0 0 0 -1 0 50 132 3 0 76 0 134 0 +-1.7526 0 2.40919 -1 0 0 0 -1 0
 17 65 0 152 111 86 21 64 102 0 37 +17 111 0 152 89 65 52 37 108 0 0 +17 86 0 15
2 65 89 47 51 87 0 64 -17 64 0 63 66 38 47 65 102 0 0 -17 89 0 152 86 111 50 59
 106 0 0 -17 59 0 88 57 84 52 89 106 0 111 +83 3 150 .647058823529412 .647058823
529412 .647058823529412 81 1 127 271 31 123 0 124 139 159 160 82 3 143 12 4 2 81
 1 159 272 31 1 0 161 127 0 162 82 3 160 12 5 2 81 1 161 317 163 1 159 14 0 0 16
4 82 3 162 12 0 3 80 1 163 165 166 8038 0 0 0 0 0 0 0 0 0 TTTTTTTTTTTTTFTFT10 81
 1 14 318 165 1 161 2 0 0 167 98 255 25 164 80 97 114 116 32 54 32 51 46 53 120
 49 51 46 50 53 120 50 48 102 116 32 116 111 112 80 1 165 168 169 8017 0 0 0 0 0
 0 0 0 0 TTTTTTTTTTTTTFTFT3 84 255 25 167 Part 6 3.5x13.25x20ft top79 255 13 169
 SDL/TYSA_NAME79 14 166 SDL/TYSA_UNAME79 15 141 SDL/TYSA_COLOUR83 3 138 .6470588
23529412 .647058823529412 .647058823529412 83 3 130 .647058823529412 .6470588235
29412 .647058823529412 81 1 113 255 31 39 0 0 24 90 170 82 3 118 12 2 1 81 1 24
 254 31 11 0 0 41 113 171 82 3 170 12 1 1 81 1 41 253 31 29 0 0 53 24 172 82 3 1
71 12 0 1 82 3 172 12 7 0 79 9 117 BTI/DetId82 3 97 12 7 1 17 25 0 81 51 69 47 6
6 11 0 86 +81 1 33 250 31 50 0 0 27 55 173 82 3 71 12 5 0 82 3 173 12 4 0 81 1 4
9 246 31 47 0 0 0 61 174 82 3 68 12 1 0 82 3 174 12 0 0 82 3 62 12 2 0 82 3 56 1
2 6 0 82 3 34 12 3 0 19 18 228 0 1 0 10 6 0 S0 74 4 CI16 index_map_offset0 0 1 d
CCZ20 16 5 0 0 159 161 14 2 149 0 0 0 0 0 0 0 0 0 0 0 0 0 0 0 80 1 13 126 175 80
40 0 0 0 0 3 5 0 0 0 TTTFFFFFFFFFFFFFF2 83 3 15 .647058823529412 .64705882352941
2 .647058823529412 79 17 175 SDL/TYSA_COLOUR_21 0 
