**ABCDEFGHIJKLMNOPQRSTUVWXYZabcdefghijklmnopqrstuvwxyz**************************
**PARASOLID !"#$%&'()*+,-./:;<=>?@[\]^_`{|}~0123456789**************************
**PART1;
MC=unknown;
MC_MODEL=unknown;
MC_ID=unknown;
OS=unknown;
OS_RELEASE=unknown;
FRU=Parasolid 36.0.180;
APPL=Onshape;
SITE=unknown;
USER=unknown;
FORMAT=text;
GUISE=transmit;
KEY=BTGapi::writeModels_.xmt;
FILE=BTGapi::writeModels_.xmt;
DATE=2024-05-15T00:06:35 (UTC);
**PART2;
SCH=SCH_3600180_36001;
USFLD_SIZE=0;
**PART3;
**END_OF_HEADER*****************************************************************
T51 : TRANSMIT FILE created by modeller version 360018023 SCH_3600180_36001_1300
6231 0 12 36 CCCI7 lattice222 0 CCCI4 mesh1006 0 I8 polyline1008 0 CCCCCCCDI5 ow
ner1040 0 CCCI16 boundary_lattice222 0 CCCI13 boundary_mesh1006 0 I17 boundary_p
olyline1008 0 CCCA16 index_map_offset0 0 1 dA9 index_map82 0 A17 node_id_index_m
ap82 0 A20 schema_embedding_map82 0 A5 child12 0 A14 lowest_node_id0 0 1 dA16 me
sh_offset_data206 0 Z1 215 2 3 0 0 0 0 0 0 0 1e3 1e-8 0 4 5 1 0 1 2 6 0 7 8 9 0
 0 10 11 12 0 0 0 0 0 0 0 81 255 1 2 209 13 1 14 0 0 0 15 70 11 CI9 list_type0 0
 1 uI10 notransmit0 0 1 lCCCDCCDI12 finger_index0 0 1 dI12 finger_block1012 0 CZ
3 0 4 T1 0 0 5 20 1 16 16 13 255 6 5 0 1 0 17 0 0 18 0 50 255 7 90 0 19 20 0 0 +
0 4.2014836836272 3.962382306460715 0 -.824331600923871 .56610724400796 0 .56610
724400796 .824331600923871 30 255 8 98 0 21 22 0 0 +.09525 4.2014836836272 3.962
382306460715 0 -.56610724400796 -.824331600923871 29 255 9 85 0 12 23 0 .09525 3
.906710509457765 3.53315119319645 19 9 CCCCCCI5 frame230 0 CA5 owner12 0 Z10 1 0
 1 18 0 24 0 V0 16 255 11 29 25 ?26 0 27 28 0 0 1 18 255 12 53 29 30 0 31 9 ?1 8
1 1 29 186 32 12 0 0 33 34 35 17 255 30 0 36 37 38 12 39 21 0 26 +18 31 57 40 41
 12 42 23 ?1 81 1 40 184 32 31 0 0 43 33 44 17 41 0 45 26 46 31 47 48 0 49 +18 4
2 61 50 51 31 52 53 ?1 29 23 84 0 31 53 9 -.09525 3.906710509457765 3.5331511931
9645 29 53 83 0 42 54 23 -.09525 3.95905556611643 3.497203383201945 29 54 82 0 5
2 55 53 .09525 3.95905556611643 3.497203383201945 18 52 65 56 37 42 57 54 ?1 29
 55 81 0 57 58 54 -.09525 4.20148255141271 3.962380657797515 18 57 69 33 47 52 5
9 55 ?1 29 58 80 0 59 60 55 .09525 4.20148255141271 3.962380657797515 18 59 70 3
4 39 57 61 58 ?1 29 60 79 0 61 62 58 -.09525 4.253827608071375 3.926432847803005
 18 61 71 43 63 59 64 60 ?1 29 62 78 0 64 0 60 .09525 4.253827608071375 3.926432
84780301 18 64 72 65 66 61 0 62 ?1 81 1 65 181 32 64 0 0 56 50 67 17 66 0 36 38
 37 64 68 69 0 70 -15 255 36 22 0 38 71 0 17 38 0 36 30 66 59 70 72 0 73 +17 37
 0 36 66 30 52 74 75 0 76 -17 68 0 77 78 79 52 66 69 0 0 +16 69 48 80 ?68 81 82
 83 0 0 1 17 70 0 84 85 73 64 38 72 0 79 -15 84 8 0 85 17 0 17 85 0 84 86 70 61
 79 87 0 0 +17 73 0 84 70 86 59 46 82 0 0 +16 72 52 88 ?38 87 0 89 0 0 1 17 79 0
 77 68 63 64 85 87 0 0 -15 77 11 0 68 90 0 17 63 0 77 79 78 61 91 81 0 92 -16 87
 51 93 ?85 94 72 95 0 0 1 81 1 93 197 32 87 0 0 96 25 97 16 94 50 98 ?86 82 87 9
9 0 0 1 30 95 93 0 87 99 89 0 +0 4.253827608071375 3.92643284780301 -1 0 0 30 99
 92 0 94 100 95 0 +-.09525 1.531514469467305 5.79597319600098 0 -.82433160092387
1 .56610724400796 30 89 94 0 72 95 83 0 +.09525 4.227655079742045 3.944406752800
26 0 -.824331600923871 .56610724400796 30 83 95 0 69 89 101 0 +.09525 4.25382874
0285865 3.92643449646621 0 -.56610724400796 -.824331600923871 30 101 96 0 81 83
 22 0 +-.09525 4.253828740285865 3.92643449646621 0 -.56610724400796 -.824331600
923871 16 81 47 102 ?91 48 69 101 0 0 1 30 22 97 0 48 101 8 0 +-.09525 4.2014836
83627195 3.962382306460715 0 -.56610724400796 -.824331600923871 16 48 46 103 ?41
 21 81 22 0 0 1 81 1 103 190 32 48 0 0 102 104 105 16 21 45 104 ?30 75 48 8 0 0
 1 81 1 104 191 32 21 0 0 103 106 107 16 75 41 108 ?74 109 21 110 0 0 1 81 1 108
 194 32 75 0 0 98 88 111 17 74 0 112 113 76 12 37 75 0 0 +16 109 37 96 ?78 27 75
 114 0 0 1 30 110 75 0 75 115 114 0 +.09525 3.932883037787095 3.5151772881992 0
 -.824331600923871 .56610724400796 30 115 74 0 27 0 110 0 +-.09525 1.23674242751
2356 5.36674373139992 0 -.824331600923871 .56610724400796 30 114 76 0 109 110 28
 0 +0 3.95905556611643 3.497203383201945 -1 0 0 30 28 77 0 11 114 100 0 +0 3.906
710509457765 3.53315119319645 1 0 0 30 100 91 0 82 28 99 0 +0 4.20148255141271 3
.962380657797515 1 0 0 16 82 49 116 ?73 69 94 100 0 0 1 81 1 116 199 32 82 0 0 2
5 117 118 80 7 CCCCCDI12 legal_owners0 17 1 lCZ1 32 119 120 9000 0 0 0 0 3 6 0 0
 0 FFTFTFTTFFFFFFFFF1 81 1 25 198 32 11 0 0 93 116 121 81 1 117 200 32 122 0 123
 116 124 125 82 255 3 118 152 181 1 14 255 122 23 123 ?19 71 126 6 20 +0 0 19 71
 24 81 1 123 214 127 122 117 0 128 129 130 81 1 124 201 32 131 0 132 117 133 134
 82 3 125 152 54 2 14 131 12 132 ?71 90 112 6 135 +0 0 71 90 24 81 1 132 212 127
 131 124 0 136 128 137 81 1 133 202 32 17 0 138 124 139 140 82 3 134 152 55 2 14
 17 6 138 ?90 0 84 6 141 +0 0 90 0 24 81 1 138 210 127 17 133 0 0 136 142 81 1 1
39 203 32 71 0 128 133 143 144 82 3 140 152 56 2 14 71 20 128 ?122 131 36 6 145
 -0 0 122 131 24 81 1 128 213 127 71 139 0 132 123 146 81 1 143 204 32 90 0 136
 139 147 148 82 3 144 152 78 2 14 90 9 136 ?131 17 77 6 149 +0 0 131 17 24 81 1
 136 211 127 90 143 0 138 132 150 81 1 147 205 32 19 0 129 143 151 152 82 3 148
 152 86 2 14 19 26 129 ?0 122 45 6 7 +0 0 0 122 24 81 1 129 215 127 19 147 0 123
 0 153 81 1 151 206 32 1 0 154 147 0 155 82 3 152 152 90 2 81 1 154 207 156 1 15
1 14 0 0 157 82 3 155 152 9 3 80 1 156 158 159 8038 0 0 0 0 0 0 0 0 0 TTTTTTTTTT
TTTFTFT10 81 1 14 208 158 1 154 2 0 0 160 98 255 8 157 80 97 114 116 32 50 53 54
 80 1 158 161 162 8017 0 0 0 0 0 0 0 0 0 TTTTTTTTTTTTTFTFT3 84 255 8 160 Part 25
679 255 13 162 SDL/TYSA_NAME79 14 159 SDL/TYSA_UNAME80 1 127 0 163 8001 0 0 0 0
 3 5 0 0 0 FFFFTFTFFFFFFFFFF2 83 255 3 153 .615686274509804 .811764705882353 .92
9411764705882 79 15 163 SDL/TYSA_COLOUR15 45 28 0 41 19 0 13 24 3 0 0 0 0 0 0 10
 17 83 3 150 .615686274509804 .811764705882353 .929411764705882 50 149 88 0 90 1
45 20 0 +0 4.253828740285865 3.92643449646621 0 .824331600923871 -.5661072440079
6 0 -.56610724400796 -.824331600923871 50 145 87 0 71 141 149 0 +.09525 4.227656
21195653 3.94440840146346 -1 0 0 0 0 1 50 20 89 0 122 149 7 0 +-.09525 1.5315156
0168179 5.79597484466419 -1 0 0 0 0 1 50 141 86 0 17 135 145 0 +-.21590000000000
4 2.153086332365015 5.36911059136039 0 .56610724400796 .824331600923871 1 0 0 50
 135 73 0 131 0 141 0 +1.5367 1.924817738899905 4.89421008382052 0 -.56610724400
796 -.824331600923871 1 0 0 83 3 146 .615686274509804 .811764705882353 .92941176
4705882 83 3 142 .615686274509804 .811764705882353 .929411764705882 83 3 137 .61
5686274509804 .811764705882353 .929411764705882 15 112 19 0 74 131 0 83 3 130 .6
15686274509804 .811764705882353 .929411764705882 15 126 25 0 91 122 0 17 91 0 12
6 49 92 42 63 81 0 78 +17 49 0 126 47 91 31 51 27 0 113 +17 92 0 126 91 47 61 86
 94 0 85 -17 78 0 77 63 68 42 76 109 0 0 +17 76 0 112 74 51 52 78 109 0 68 -17 5
1 0 112 76 113 42 49 27 0 91 -17 113 0 112 51 74 31 26 11 0 0 -16 27 33 106 ?49
 11 109 115 0 0 1 81 1 106 192 32 27 0 0 104 98 164 81 1 98 193 32 94 0 0 106 10
8 165 82 3 164 152 140 1 82 3 165 152 141 1 17 26 0 45 39 41 12 113 11 0 74 +17
 39 0 45 46 26 59 30 21 0 38 -17 46 0 45 41 39 57 73 82 0 86 -17 86 0 84 73 85 5
7 92 94 0 0 +17 47 0 126 92 49 57 41 48 0 46 -82 3 121 152 180 1 79 9 120 BTI/De
tId81 1 96 196 32 109 0 0 88 93 166 81 1 88 195 32 72 0 0 108 96 167 82 3 166 15
2 172 1 82 3 167 152 157 1 82 3 111 152 156 1 82 3 107 152 113 1 81 1 102 189 32
 81 0 0 80 103 168 82 3 105 152 112 1 81 1 80 188 32 69 0 0 34 102 169 82 3 168
 152 109 1 81 1 34 187 32 59 0 0 29 80 170 82 3 169 152 108 1 82 3 170 152 83 0
 82 3 97 152 173 1 81 1 56 180 32 52 0 0 0 65 171 81 1 50 182 32 42 0 0 65 43 17
2 82 3 67 152 73 0 81 1 43 183 32 61 0 0 50 40 173 82 3 172 152 74 0 82 3 173 15
2 75 0 82 3 171 152 72 0 81 1 33 185 32 57 0 0 40 29 174 82 3 174 152 81 0 82 3
 44 152 80 0 82 3 35 152 82 0 19 18 4 0 1 0 10 6 0 S0 74 4 CI16 index_map_offset
0 0 1 dCCZ20 16 5 0 0 151 154 14 2 129 0 0 0 0 0 0 0 0 0 0 0 0 0 0 0 80 1 13 127
 175 8040 0 0 0 0 3 5 0 0 0 TTTFFFFFFFFFFFFFF2 83 3 15 .615686274509804 .8117647
05882353 .929411764705882 79 17 175 SDL/TYSA_COLOUR_21 0 
