**ABCDEFGHIJKLMNOPQRSTUVWXYZabcdefghijklmnopqrstuvwxyz**************************
**PARASOLID !"#$%&'()*+,-./:;<=>?@[\]^_`{|}~0123456789**************************
**PART1;
MC=unknown;
MC_MODEL=unknown;
MC_ID=unknown;
OS=unknown;
OS_RELEASE=unknown;
FRU=Parasolid 36.0.180;
APPL=Onshape;
SITE=unknown;
USER=unknown;
FORMAT=text;
GUISE=transmit;
KEY=BTGapi::writeModels_.xmt;
FILE=BTGapi::writeModels_.xmt;
DATE=2024-05-15T00:06:35 (UTC);
**PART2;
SCH=SCH_3600180_36001;
USFLD_SIZE=0;
**PART3;
**END_OF_HEADER*****************************************************************
T51 : TRANSMIT FILE created by modeller version 360018023 SCH_3600180_36001_1300
6231 0 12 36 CCCI7 lattice222 0 CCCI4 mesh1006 0 I8 polyline1008 0 CCCCCCCDI5 ow
ner1040 0 CCCI16 boundary_lattice222 0 CCCI13 boundary_mesh1006 0 I17 boundary_p
olyline1008 0 CCCA16 index_map_offset0 0 1 dA9 index_map82 0 A17 node_id_index_m
ap82 0 A20 schema_embedding_map82 0 A5 child12 0 A14 lowest_node_id0 0 1 dA16 me
sh_offset_data206 0 Z1 170 2 3 0 0 0 0 0 0 0 1e3 1e-8 0 4 5 1 0 1 2 6 0 7 8 9 0
 0 10 11 12 0 0 0 0 0 0 0 81 255 1 2 164 13 1 14 0 0 0 15 70 11 CI9 list_type0 0
 1 uI10 notransmit0 0 1 lCCCDCCDI12 finger_index0 0 1 dI12 finger_block1012 0 CZ
3 0 4 T1 0 0 5 20 1 16 16 13 255 6 5 0 1 0 17 0 0 18 0 50 255 7 90 0 19 20 0 0 +
-.62865 2.730502 4.137025 -1 2449293598294705e-31 0 2449293598294705e-31 1 0 30
 255 8 98 0 21 22 0 0 +-.62865 2.730502 3.99415 -2449293598294705e-31 -1 0 29 25
5 9 85 0 12 23 0 -.56515 2.54 3.99415 19 9 CCCCCCI5 frame230 0 CA5 owner12 0 Z10
 1 0 1 18 0 24 0 V0 16 255 11 29 25 ?26 0 27 28 0 0 1 18 255 12 53 29 30 0 31 9
 ?1 81 1 29 135 32 12 0 0 0 33 34 17 255 30 0 35 36 37 12 26 11 0 38 -18 31 57 3
9 40 12 41 23 ?1 81 1 39 137 32 31 0 0 33 42 43 17 40 0 44 45 46 31 47 48 0 36 -
18 41 61 49 46 31 50 51 ?1 29 23 84 0 31 51 9 -.56515 2.54 4.2799 29 51 83 0 41
 52 23 -.62865 2.54 4.2799 29 52 82 0 50 53 51 -.62865 2.54 3.99415 18 50 65 54
 55 41 56 52 ?1 29 53 81 0 56 57 52 -.62865 2.7305 3.99415 18 56 69 58 59 50 60
 53 ?1 29 57 80 0 60 61 53 -.62865 2.7305 4.2799 18 60 70 62 63 56 64 57 ?1 29 6
1 79 0 64 65 57 -.56515 2.7305 3.99415 18 64 71 33 66 60 67 61 ?1 29 65 78 0 67
 0 61 -.56515 2.7305 4.2799 18 67 72 42 45 64 0 65 ?1 81 1 42 138 32 67 0 0 39 5
4 68 17 45 0 44 69 40 67 70 71 0 72 -15 255 44 22 0 69 73 0 17 69 0 44 46 45 60
 74 75 0 76 +17 70 0 77 78 72 31 45 71 0 0 +16 71 47 79 ?70 80 81 82 0 0 1 17 72
 0 77 70 66 67 83 84 0 74 +15 77 11 0 72 85 0 17 66 0 77 72 78 64 38 81 0 83 -17
 83 0 86 87 74 64 72 84 0 88 -16 84 51 89 ?72 90 75 91 0 0 1 17 74 0 86 83 76 67
 69 75 0 0 -15 86 8 0 87 17 0 17 76 0 86 74 87 60 92 93 0 0 +16 75 52 94 ?69 84
 0 95 0 0 1 81 1 94 148 32 75 0 0 96 25 97 30 95 94 0 75 91 98 0 +-2.1209 2.7305
 4.2799 -1 0 0 30 91 93 0 84 99 95 0 +-.56515 2.7305 4.137025 0 0 1 30 98 95 0 8
1 95 82 0 +-.56515 2.730502 3.99415 -2449293598294705e-31 -1 0 16 81 48 100 ?38
 71 93 98 0 0 1 30 82 96 0 71 98 22 0 +-.56515 2.730502 4.2799 -2449293598294705
e-31 -1 0 30 22 97 0 80 82 8 0 +-.62865 2.730502 4.2799 -2449293598294705e-31 -1
 0 16 80 46 101 ?46 21 71 22 0 0 1 81 1 101 146 32 80 0 0 102 96 103 17 46 0 44
 40 69 41 63 80 0 104 +16 21 45 102 ?55 105 80 8 0 0 1 81 1 102 145 32 21 0 0 79
 101 106 17 55 0 107 104 92 50 59 21 0 37 +16 105 41 108 ?104 48 21 109 0 0 1 81
 1 108 153 32 105 0 0 89 110 111 17 104 0 107 63 55 41 37 105 0 47 +16 48 37 96
 ?47 27 105 112 0 0 1 30 109 74 0 105 0 113 0 +-.62865 2.54 4.137025 0 0 1 30 11
3 75 0 27 109 112 0 +-.56515 2.54 4.137025 0 0 1 16 27 33 114 ?36 11 48 113 0 0
 1 30 112 76 0 48 113 28 0 +-2.1209 2.54 4.2799 -1 2449293598294705e-31 0 30 28
 77 0 11 112 115 0 +-2.1209 2.54 3.99415 -1 2449293598294705e-31 0 30 115 91 0 9
3 28 99 0 +-.62865 2.7305 4.137025 0 0 1 16 93 49 110 ?76 81 90 115 0 0 1 30 99
 92 0 90 115 91 0 +-2.1209 2.7305 3.99415 -1 0 0 16 90 50 116 ?87 93 84 99 0 0 1
 81 1 116 150 32 90 0 0 25 114 117 17 87 0 86 76 83 56 88 90 0 0 +17 88 0 118 38
 59 64 87 90 0 0 -15 118 25 0 38 119 0 17 38 0 118 26 88 12 66 81 0 78 +17 59 0
 118 88 26 56 55 21 0 92 -17 26 0 118 59 38 50 30 11 0 0 +17 92 0 107 55 63 56 7
6 93 0 87 -15 107 28 0 55 19 0 17 63 0 107 92 104 60 46 80 0 69 -14 255 19 26 12
0 ?0 119 107 6 7 +0 0 0 119 24 81 1 120 170 121 19 122 0 123 0 124 14 119 23 123
 ?19 73 118 6 125 +0 0 19 73 24 13 24 3 0 0 0 0 0 0 10 17 14 17 6 126 ?85 0 86 6
 127 +0 0 85 0 24 81 1 126 165 121 17 128 0 0 129 130 14 85 9 129 ?131 17 77 6 1
32 -0 0 131 17 24 50 127 86 0 17 133 125 0 +4440892098500625e-31 2.7305 2.40919
 0 1 0 1 0 0 50 133 73 0 131 0 127 0 +178031364116793e-30 2.54 4.137025 24492935
98294705e-31 1 0 1 -2449293598294705e-31 0 50 125 87 0 119 127 132 0 +-2.1209 2.
730502 3.99415 0 0 -1 -1 0 0 50 132 88 0 85 125 20 0 +-.56515 2.730502 4.137025
 -1 2449293598294705e-31 0 2449293598294705e-31 1 0 50 20 89 0 73 132 7 0 +-2.12
09 2.730502 4.2799 0 0 -1 -1 0 0 14 73 20 134 ?119 131 44 6 20 -0 0 119 131 24 8
1 1 134 168 121 73 135 0 136 123 137 14 131 12 136 ?73 85 35 6 133 -0 0 73 85 24
 81 1 136 167 121 131 138 0 129 134 139 15 35 19 0 30 131 0 80 7 CCCCCDI12 legal
_owners0 17 1 lCZ1 121 0 140 8001 0 0 0 0 3 5 0 0 0 FFFFTFTFFFFFFFFFF2 81 1 138
 156 32 131 0 136 135 128 141 81 1 129 166 121 85 142 0 126 136 143 83 255 3 139
 .498039215686275 .498039215686275 .498039215686275 81 1 142 159 32 85 0 129 144
 122 145 83 3 143 .498039215686275 .498039215686275 .498039215686275 80 1 32 146
 147 9000 0 0 0 0 3 6 0 0 0 FFTFTFTTFFFFFFFFF1 81 1 144 158 32 119 0 123 128 142
 148 81 1 122 160 32 19 0 120 142 149 150 82 255 3 145 128 26 2 81 1 149 161 32
 1 0 151 122 0 152 82 3 150 128 27 2 81 1 151 162 153 1 149 14 0 0 154 82 3 152
 128 4 3 80 1 153 155 156 8038 0 0 0 0 0 0 0 0 0 TTTTTTTTTTTTTFTFT10 81 1 14 163
 155 1 151 2 0 0 157 98 255 8 154 80 97 114 116 32 50 50 48 80 1 155 158 159 801
7 0 0 0 0 0 0 0 0 0 TTTTTTTTTTTTTFTFT3 84 255 8 157 Part 22079 255 13 159 SDL/TY
SA_NAME79 14 156 SDL/TYSA_UNAME81 1 123 169 121 119 144 0 134 120 160 81 1 128 1
57 32 17 0 126 138 144 161 82 3 148 128 19 2 82 3 161 128 14 2 83 3 160 .4980392
15686275 .498039215686275 .498039215686275 79 9 147 BTI/DetId81 1 135 155 32 73
 0 134 110 138 162 82 3 141 128 13 2 81 1 110 154 32 93 0 0 108 135 163 82 3 162
 128 12 2 82 3 163 128 55 1 79 15 140 SDL/TYSA_COLOUR83 3 137 .498039215686275 .
498039215686275 .498039215686275 83 3 130 .498039215686275 .498039215686275 .498
039215686275 83 3 124 .498039215686275 .498039215686275 .498039215686275 17 78 0
 77 66 70 12 36 27 0 0 -17 36 0 35 47 30 31 78 27 0 70 +17 47 0 35 37 36 41 40 4
8 0 0 +17 37 0 35 30 47 50 104 105 0 26 -81 1 25 149 32 11 0 0 94 116 164 81 1 1
14 151 32 27 0 0 116 89 165 82 3 117 128 39 1 81 1 89 152 32 84 0 0 114 108 166
 82 3 165 128 52 1 82 3 166 128 53 1 82 3 164 128 38 1 81 1 96 147 32 48 0 0 101
 94 167 82 3 167 128 32 1 82 3 111 128 54 1 81 1 79 144 32 71 0 0 100 102 168 82
 3 106 128 8 1 81 1 100 143 32 81 0 0 62 79 169 82 3 168 128 7 1 81 1 62 142 32
 60 0 0 49 100 170 82 3 169 128 6 1 81 1 49 141 32 41 0 0 58 62 171 82 3 170 128
 19 0 81 1 58 140 32 56 0 0 54 49 172 82 3 171 128 18 0 81 1 54 139 32 50 0 0 42
 58 173 82 3 172 128 17 0 82 3 173 128 16 0 82 3 103 128 9 1 82 3 97 128 33 1 82
 3 68 128 15 0 81 1 33 136 32 64 0 0 29 39 174 82 3 174 128 13 0 82 3 43 128 14
 0 82 3 34 128 12 0 19 18 4 0 1 0 10 6 0 S0 74 4 CI16 index_map_offset0 0 1 dCCZ
20 16 5 0 0 149 151 14 2 120 0 0 0 0 0 0 0 0 0 0 0 0 0 0 0 80 1 13 121 175 8040
 0 0 0 0 3 5 0 0 0 TTTFFFFFFFFFFFFFF2 83 3 15 .498039215686275 .498039215686275
 .498039215686275 79 17 175 SDL/TYSA_COLOUR_21 0 
