**ABCDEFGHIJKLMNOPQRSTUVWXYZabcdefghijklmnopqrstuvwxyz**************************
**PARASOLID !"#$%&'()*+,-./:;<=>?@[\]^_`{|}~0123456789**************************
**PART1;
MC=unknown;
MC_MODEL=unknown;
MC_ID=unknown;
OS=unknown;
OS_RELEASE=unknown;
FRU=Parasolid 36.0.180;
APPL=Onshape;
SITE=unknown;
USER=unknown;
FORMAT=text;
GUISE=transmit;
KEY=BTGapi::writeModels_.xmt;
FILE=BTGapi::writeModels_.xmt;
DATE=2024-05-15T00:06:35 (UTC);
**PART2;
SCH=SCH_3600180_36001;
USFLD_SIZE=0;
**PART3;
**END_OF_HEADER*****************************************************************
T51 : TRANSMIT FILE created by modeller version 360018023 SCH_3600180_36001_1300
6231 0 12 36 CCCI7 lattice222 0 CCCI4 mesh1006 0 I8 polyline1008 0 CCCCCCCDI5 ow
ner1040 0 CCCI16 boundary_lattice222 0 CCCI13 boundary_mesh1006 0 I17 boundary_p
olyline1008 0 CCCA16 index_map_offset0 0 1 dA9 index_map82 0 A17 node_id_index_m
ap82 0 A20 schema_embedding_map82 0 A5 child12 0 A14 lowest_node_id0 0 1 dA16 me
sh_offset_data206 0 Z1 265 2 3 0 0 0 0 0 0 0 1e3 1e-8 0 4 5 1 0 1 2 6 0 7 8 9 0
 0 10 11 12 0 0 0 0 0 0 0 81 255 1 2 259 13 1 14 0 0 0 15 70 11 CI9 list_type0 0
 1 uI10 notransmit0 0 1 lCCCDCCDI12 finger_index0 0 1 dI12 finger_block1012 0 CZ
3 0 4 T1 0 0 5 20 1 16 16 13 255 6 94 0 1 0 17 0 0 18 0 50 255 7 183 0 17 19 0 0
 +1.26365 2.63525 1.2192 1 364246399155235e-30 0 3642463991552355e-31 -1 0 30 25
5 8 187 0 11 20 0 0 +1.26365 2.33045 1.2192 0 0 -1 29 255 9 164 0 21 22 0 1.2636
5 2.94005 0 19 9 CCCCCCI5 frame230 0 CA5 owner12 0 Z10 93 0 1 18 0 23 0 V0 16 25
5 11 171 24 ?25 0 26 8 0 0 1 18 255 12 67 27 28 0 29 30 ?1 81 1 27 235 31 12 0 0
 32 33 34 17 255 28 0 35 36 37 12 38 39 0 40 -18 29 62 41 38 12 42 43 ?1 29 30 6
9 0 12 43 44 1.26365 2.94005 1.2192 29 43 64 0 29 45 30 1.87325 2.94005 1.2192 2
9 44 167 0 46 30 47 1.26365 2.33045 0 18 46 155 48 49 50 0 44 ?1 29 47 166 0 50
 44 22 1.87325 2.33045 0 18 50 151 51 52 53 46 47 ?1 29 22 165 0 53 47 9 1.87325
 2.94005 0 18 53 147 33 54 21 50 22 ?1 81 1 33 236 31 53 0 0 27 41 55 17 54 0 56
 52 57 53 58 59 0 60 +18 21 143 32 58 61 53 9 ?1 81 1 32 234 31 21 0 0 62 27 63
 17 58 0 64 40 60 21 54 59 0 65 -18 61 52 66 67 42 21 68 ?1 81 1 66 231 31 61 0
 0 48 51 69 17 67 0 70 25 71 61 72 73 0 36 -18 42 57 62 74 29 61 45 ?1 29 68 54
 0 61 0 45 1.26365 2.33045 1.2192 29 45 59 0 42 68 43 1.87325 2.33045 1.2192 81
 1 62 233 31 42 0 0 51 32 75 17 74 0 76 77 78 42 37 79 0 72 -15 255 76 174 0 80
 81 0 17 77 0 76 80 74 50 71 26 0 82 +17 78 0 76 74 80 29 60 83 0 0 -17 37 0 35
 28 72 29 74 79 0 78 +16 79 22 84 ?37 39 73 85 0 0 1 17 72 0 35 37 36 42 67 73 0
 71 +15 35 6 0 36 86 0 17 36 0 35 72 28 61 87 88 0 89 -16 73 17 90 ?72 79 88 91
 0 0 1 17 71 0 70 67 82 42 77 26 0 0 -15 70 176 0 82 92 0 17 82 0 70 71 25 50 49
 93 0 0 +16 26 170 94 ?77 11 83 20 0 0 1 81 1 94 239 31 26 0 0 24 95 96 16 83 16
9 97 ?60 26 98 99 0 0 1 30 20 186 0 26 99 8 0 +1.87325 2.33045 1.2192 0 0 -1 30
 99 185 0 83 100 20 0 +1.87325 2.94005 1.2192 0 0 -1 30 100 184 0 98 101 99 0 +1
.26365 2.94005 1.2192 0 0 -1 16 98 168 95 ?65 83 39 100 0 0 1 30 101 160 0 59 10
2 100 0 +1.56845 2.94005 0 1 0 0 16 59 127 103 ?54 88 104 101 0 0 1 30 102 161 0
 104 105 101 0 +1.87325 2.63525 0 -364246399155235e-30 1 0 16 104 131 106 ?80 59
 93 102 0 0 1 30 105 162 0 93 107 102 0 +1.56845 2.33045 0 1 0 0 16 93 135 108 ?
82 104 109 105 0 0 1 30 107 163 0 109 110 105 0 +1.26365 2.63525 0 -364246399155
235e-30 1 0 16 109 139 111 ?57 93 0 107 0 0 1 30 110 29 0 39 85 107 0 +1.56845 2
.94005 1.2192 1 0 0 16 39 27 112 ?38 98 79 110 0 0 1 30 85 24 0 79 91 110 0 +1.8
7325 2.63525 1.2192 -364246399155235e-30 1 0 30 91 19 0 73 113 85 0 +1.56845 2.3
3045 1.2192 1 0 0 30 113 14 0 88 0 91 0 +1.26365 2.63525 1.2192 -364246399155235
e-30 1 0 16 88 12 114 ?87 73 59 113 0 0 1 81 1 114 247 31 88 0 0 111 106 115 17
 87 0 116 65 89 12 36 88 0 0 +15 116 178 0 117 17 0 17 65 0 116 117 87 21 40 98
 0 57 +17 89 0 116 87 117 61 25 11 0 0 -17 117 0 116 89 65 46 57 109 0 0 -17 25
 0 70 82 67 46 89 11 0 117 +17 57 0 56 54 49 21 117 109 0 0 +15 56 126 0 57 118
 0 17 49 0 56 57 52 46 82 93 0 25 -17 52 0 56 49 54 50 80 104 0 77 -17 80 0 76 7
8 77 53 52 104 0 0 +14 255 118 118 119 ?0 86 56 6 120 +0 0 0 86 23 81 1 119 265
 121 118 122 0 123 0 124 14 86 1 123 ?118 125 35 6 126 -0 0 118 125 23 50 120 15
9 0 118 126 127 0 +1.56845 2.63525 0 0 0 -1 1 0 0 13 23 188 0 0 0 0 0 0 10 17 14
 17 179 128 ?92 0 116 6 7 -0 0 92 0 23 81 1 128 260 121 17 129 0 0 130 131 14 92
 177 130 ?81 17 70 6 19 +0 0 81 17 23 81 1 130 261 121 92 132 0 128 133 134 14 8
1 175 133 ?125 92 76 6 135 +0 0 125 92 23 50 19 182 0 92 135 7 0 +1.56845 2.3304
5 1.2192 0 -1 0 0 0 1 50 135 181 0 81 127 19 0 +1.87325 2.63525 1.2192 1 3642463
99155235e-30 0 3642463991552355e-31 -1 0 50 127 180 0 125 120 135 0 +1.56845 2.9
4005 1.2192 0 -1 0 0 0 1 14 125 173 136 ?86 81 64 6 127 -0 0 86 81 23 81 1 136 2
63 121 125 137 0 133 123 138 15 64 172 0 58 125 0 80 7 CCCCCDI12 legal_owners0 1
7 1 lCZ1 121 0 139 8001 0 0 0 0 3 5 0 0 0 FFFFTFTFFFFFFFFFF2 81 1 137 253 31 125
 0 136 140 129 141 81 1 133 262 121 81 142 0 130 136 143 81 1 123 264 121 86 140
 0 136 119 144 83 255 3 138 .768627450980392 .886274509803922 .952941176470588 8
1 1 140 252 31 86 0 123 122 137 145 83 3 144 .768627450980392 .886274509803922 .
952941176470588 80 1 31 146 147 9000 0 0 0 0 3 6 0 0 0 FFTFTFTTFFFFFFFFF1 81 1 1
22 251 31 118 0 119 132 140 148 82 255 3 145 188 2 2 81 1 132 250 31 92 0 130 84
 122 149 82 3 148 188 1 2 81 1 84 249 31 79 0 0 106 132 150 82 3 149 188 0 2 81
 1 106 248 31 104 0 0 114 84 151 82 3 150 188 11 1 82 3 151 188 10 1 79 255 9 14
7 BTI/DetId81 1 142 255 31 81 0 133 129 152 153 83 3 143 .768627450980392 .88627
4509803922 .952941176470588 81 1 129 254 31 17 0 128 137 142 154 81 1 152 256 31
 1 0 155 142 0 156 82 3 153 188 5 2 81 1 155 257 157 1 152 14 0 0 158 82 3 156 1
88 0 3 80 1 157 159 160 8038 0 0 0 0 0 0 0 0 0 TTTTTTTTTTTTTFTFT10 81 1 14 258 1
59 1 155 2 0 0 161 98 255 8 158 80 97 114 116 32 51 48 57 80 1 159 162 163 8017
 0 0 0 0 0 0 0 0 0 TTTTTTTTTTTTTFTFT3 84 255 8 161 Part 30979 13 163 SDL/TYSA_NA
ME79 14 160 SDL/TYSA_UNAME82 3 154 188 4 2 82 3 141 188 3 2 79 15 139 SDL/TYSA_C
OLOUR83 3 134 .768627450980392 .886274509803922 .952941176470588 83 3 131 .76862
7450980392 .886274509803922 .952941176470588 50 126 3 0 86 0 120 0 +1.56845 2.63
525 1.2192 0 0 -1 1 0 0 83 3 124 .768627450980392 .886274509803922 .952941176470
588 17 40 0 64 38 58 12 65 98 0 87 -17 38 0 64 60 40 29 28 39 0 37 +17 60 0 64 5
8 38 53 78 83 0 80 +81 1 111 246 31 109 0 0 112 114 164 82 3 115 188 9 1 81 1 11
2 245 31 39 0 0 103 111 165 82 3 164 188 8 1 81 1 103 244 31 59 0 0 90 112 166 8
2 3 165 188 7 1 81 1 90 243 31 73 0 0 108 103 167 82 3 166 188 6 1 81 1 108 242
 31 93 0 0 97 90 168 82 3 167 188 5 1 81 1 97 241 31 83 0 0 95 108 169 82 3 168
 188 4 1 81 1 95 240 31 98 0 0 94 97 170 82 3 169 188 3 1 82 3 170 188 2 1 81 1
 24 238 31 11 0 0 41 94 171 82 3 96 188 1 1 81 1 41 237 31 29 0 0 33 24 172 82 3
 171 188 0 1 82 3 172 188 7 0 81 1 51 232 31 50 0 0 66 62 173 82 3 75 188 3 0 82
 3 173 188 2 0 81 1 48 230 31 46 0 0 0 66 174 82 3 69 188 1 0 82 3 174 188 0 0 8
2 3 63 188 4 0 82 3 55 188 6 0 82 3 34 188 5 0 19 18 189 0 1 0 10 6 0 S0 74 4 CI
16 index_map_offset0 0 1 dCCZ20 16 5 0 0 152 155 14 2 119 0 0 0 0 0 0 0 0 0 0 0
 0 0 0 0 80 1 13 121 175 8040 0 0 0 0 3 5 0 0 0 TTTFFFFFFFFFFFFFF2 83 3 15 .7686
27450980392 .886274509803922 .952941176470588 79 17 175 SDL/TYSA_COLOUR_21 0 
