**ABCDEFGHIJKLMNOPQRSTUVWXYZabcdefghijklmnopqrstuvwxyz**************************
**PARASOLID !"#$%&'()*+,-./:;<=>?@[\]^_`{|}~0123456789**************************
**PART1;
MC=unknown;
MC_MODEL=unknown;
MC_ID=unknown;
OS=unknown;
OS_RELEASE=unknown;
FRU=Parasolid 36.0.180;
APPL=Onshape;
SITE=unknown;
USER=unknown;
FORMAT=text;
GUISE=transmit;
KEY=BTGapi::writeModels_.xmt;
FILE=BTGapi::writeModels_.xmt;
DATE=2024-05-15T00:06:35 (UTC);
**PART2;
SCH=SCH_3600180_36001;
USFLD_SIZE=0;
**PART3;
**END_OF_HEADER*****************************************************************
T51 : TRANSMIT FILE created by modeller version 360018023 SCH_3600180_36001_1300
6231 0 12 36 CCCI7 lattice222 0 CCCI4 mesh1006 0 I8 polyline1008 0 CCCCCCCDI5 ow
ner1040 0 CCCI16 boundary_lattice222 0 CCCI13 boundary_mesh1006 0 I17 boundary_p
olyline1008 0 CCCA16 index_map_offset0 0 1 dA9 index_map82 0 A17 node_id_index_m
ap82 0 A20 schema_embedding_map82 0 A5 child12 0 A14 lowest_node_id0 0 1 dA16 me
sh_offset_data206 0 Z1 392 2 3 0 0 0 0 0 0 0 1e3 1e-8 0 4 5 1 0 1 2 6 0 7 8 9 0
 0 10 11 12 0 0 0 0 0 0 0 81 255 1 2 386 13 1 14 0 0 0 15 70 11 CI9 list_type0 0
 1 uI10 notransmit0 0 1 lCCCDCCDI12 finger_index0 0 1 dI12 finger_block1012 0 CZ
3 0 4 T1 0 0 5 20 1 16 16 13 255 6 142 0 1 0 17 0 0 18 0 50 255 7 137 0 19 20 0
 0 +.0381 -.2646710684627825 6.73048847537274 -1 -1373139408596308e-31 -94299935
289144e-30 1373139408596308e-31 -1 0 30 255 8 141 0 21 22 0 0 +.0381 -.316178604
214909 6.69511583033815 0 .566107244007959 -.824331600923871 29 255 9 118 0 23 2
4 0 2.4765 -.307640999341214 6.68268387938171 19 9 CCCCCCI5 frame230 0 CA5 owner
12 0 Z10 1 0 1 18 0 25 0 V0 16 255 11 122 26 ?27 0 21 22 0 0 1 18 255 12 26 28 2
9 0 30 31 ?1 81 1 28 159 32 12 0 0 33 34 35 17 255 29 0 36 37 38 12 27 11 0 39 -
18 30 35 40 41 12 23 42 ?1 29 31 46 0 12 42 24 2.4765 -.316178604214909 6.695115
83033815 29 42 43 0 30 43 31 .0381 -.316178604214909 6.69511583033815 29 24 121
 0 44 31 9 .0381 -.307640999341214 6.68268387938171 18 44 109 34 45 23 46 24 ?1
 81 1 34 164 32 44 0 0 28 40 47 17 45 0 36 38 37 44 41 21 0 48 +18 23 97 33 27 3
0 44 9 ?1 18 46 290 49 50 44 51 43 ?1 81 1 49 291 32 46 0 0 52 53 54 17 50 0 55
 56 57 46 39 58 0 59 +18 51 280 60 61 46 62 63 ?1 29 43 338 0 46 63 42 2.4765 0
 6.91225053443754 29 63 339 0 51 64 43 .0381 0 6.89395540904978 29 64 340 0 62 6
5 63 .0381 -1387778780781446e-32 6.91225053443754 18 62 284 52 66 51 67 64 ?1 29
 65 341 0 67 0 64 2.4765 -693889390390723e-32 6.89395540904978 18 67 278 68 69 6
2 0 65 ?1 81 1 68 279 32 67 0 0 70 60 71 17 69 0 72 59 27 67 73 74 0 75 +15 255
 72 128 0 69 76 0 17 59 0 72 39 69 46 75 77 0 78 +17 27 0 72 69 39 23 29 11 0 73
 +17 73 0 79 80 81 23 69 74 0 38 -16 74 85 82 ?69 83 84 85 0 0 1 17 75 0 86 87 7
8 67 59 77 0 81 -15 86 297 0 87 88 0 17 87 0 86 89 75 51 81 90 0 0 -17 78 0 86 7
5 89 46 56 91 0 0 +16 77 267 70 ?59 90 0 92 0 0 1 17 81 0 79 73 61 67 87 90 0 0
 +15 79 78 0 80 93 0 17 61 0 79 81 80 51 48 84 0 94 +16 90 256 95 ?81 96 77 97 0
 0 1 81 1 95 258 32 90 0 0 98 70 99 16 96 234 100 ?89 91 90 101 0 0 1 30 97 326
 0 90 101 102 0 +1.2573 0 6.89395540904978 1 0 0 30 101 327 0 96 103 97 0 +.0381
 0 6.99021283482344 -478066662237089e-31 0 1 30 102 38 0 104 97 105 0 +.0381 -.2
646710684627825 6.73048847537274 -1665760971746515e-31 .824331600923871 .5661072
4400796 16 104 20 106 ?66 58 83 102 0 0 1 30 105 40 0 58 102 107 0 +2.4765 -.264
6710684627825 6.73048847537274 0 .824331600923871 .56610724400796 16 58 14 108 ?
50 109 104 105 0 0 1 30 107 42 0 109 105 110 0 +.4699 -.316178604214909 6.695115
83033815 -1 -873577609151503e-31 -599926791826936e-31 16 109 8 111 ?37 21 58 107
 0 0 1 30 110 117 0 84 107 85 0 +.0381 -.2561334635890875 6.71805652441631 -1665
760971746515e-31 .824331600923871 .56610724400796 16 84 93 112 ?61 74 91 110 0 0
 1 30 85 115 0 74 110 113 0 +2.4765 -.2561334635890875 6.71805652441631 0 .82433
1600923871 .56610724400796 30 113 114 0 83 85 22 0 +.4699 -.307640999341214 6.68
268387938171 -1 -873577609151503e-31 -599926791826936e-31 16 83 79 114 ?80 104 7
4 113 0 0 1 30 22 138 0 11 113 8 0 +2.4765 -.316178604214909 6.69511583033815 0
 .566107244007959 -.824331600923871 81 1 114 170 32 83 0 0 115 111 116 17 80 0 7
9 61 73 44 38 83 0 0 +17 38 0 36 29 45 23 80 83 0 0 -15 36 126 0 38 17 0 14 255
 17 127 117 ?76 0 36 6 118 +0 0 76 0 25 81 1 117 387 119 17 120 0 0 121 122 14 7
6 129 121 ?19 17 72 6 20 -0 0 19 17 25 50 118 134 0 17 123 20 0 +.4699 -.3161786
04214909 6.69511583033815 105974053181079e-30 -.824331600923871 -.56610724400795
9 0 .56610724400796 -.824331600923872 13 25 3 0 0 0 0 0 0 10 17 50 123 113 0 93
 124 118 0 +-.3175 -2.17465501836173 5.40051762535558 0 -.56610724400796 .824331
600923871 1 0 0 50 20 135 0 76 118 7 0 +2.4765 -.2646710684627825 6.730488475372
74 -1 0 0 0 0 1 14 93 70 125 ?88 126 79 6 123 -0 0 88 126 25 50 124 48 0 126 127
 123 0 +-.3175 -2.183192623235425 5.41294957631201 0 -.56610724400796 .824331600
923871 1 0 0 14 126 4 128 ?93 19 55 6 124 +0 0 93 19 25 50 127 320 0 88 0 124 0
 +0 0 0 0 -1 0 0 0 -1 14 88 294 129 ?0 93 86 6 127 -0 0 0 93 25 81 1 129 392 119
 88 53 0 125 0 130 80 7 CCCCCDI12 legal_owners0 17 1 lCZ1 119 0 131 8001 0 0 0 0
 3 5 0 0 0 FFFFTFTFFFFFFFFFF2 81 1 53 296 32 88 0 129 49 132 133 81 1 125 391 11
9 93 134 0 128 129 135 83 255 3 130 .231372549019608 .380392156862745 .705882352
941177 81 1 134 380 32 93 0 125 106 136 137 81 1 128 390 119 126 136 0 138 125 1
39 83 3 135 .231372549019608 .380392156862745 .705882352941177 81 1 136 381 32 1
26 0 128 134 140 141 81 1 138 389 119 19 142 0 121 128 143 83 3 139 .23137254901
9608 .380392156862745 .705882352941177 14 19 133 138 ?126 76 144 6 7 +0 0 126 76
 25 81 1 142 383 32 19 0 138 140 0 145 81 1 121 388 119 76 140 0 117 138 146 83
 3 143 .231372549019608 .380392156862745 .705882352941177 81 1 140 382 32 76 0 1
21 136 142 147 83 3 146 .231372549019608 .380392156862745 .705882352941177 80 1
 32 148 149 9000 0 0 0 0 3 6 0 0 0 FFTFTFTTFFFFFFFFF1 82 255 3 147 171 2 2 79 25
5 9 149 BTI/DetId82 3 145 171 3 2 15 144 132 0 48 19 0 17 48 0 144 41 94 44 61 8
4 0 80 -17 41 0 144 66 48 30 45 21 0 150 -17 94 0 144 48 66 51 89 96 0 87 -17 66
 0 144 94 41 62 150 104 0 56 +17 89 0 86 78 87 62 94 96 0 0 +17 150 0 55 57 56 3
0 66 104 0 37 -17 56 0 55 150 50 62 78 91 0 89 -15 55 7 0 57 126 0 16 91 237 98
 ?78 84 96 103 0 0 1 81 1 98 239 32 91 0 0 100 95 151 30 103 328 0 91 92 101 0 +
1.2573 1387778780781446e-32 6.91225053443754 1 0 0 30 92 329 0 77 0 103 0 +2.476
5 0 6.99021283482344 -478066662237089e-31 0 1 81 1 100 236 32 96 0 0 120 98 152
 82 3 151 170 11 1 81 1 120 178 32 17 0 117 111 100 153 82 3 152 170 9 1 81 1 11
1 171 32 109 0 0 114 120 154 82 3 153 119 27 2 82 3 154 119 59 1 17 57 0 55 50 1
50 12 37 109 0 0 -17 37 0 36 45 29 30 57 109 0 0 +16 21 125 115 ?45 11 109 8 0 0
 1 81 1 115 169 32 21 0 0 26 114 155 81 1 26 166 32 11 0 0 40 115 156 82 3 155 1
19 23 1 81 1 40 165 32 30 0 0 34 26 157 82 3 156 119 17 1 82 3 157 119 47 0 82 3
 141 171 1 2 81 1 106 379 32 104 0 0 112 134 158 82 3 137 171 0 2 81 1 112 378 3
2 84 0 0 108 106 159 82 3 158 171 3 1 81 1 108 377 32 58 0 0 82 112 160 82 3 159
 171 2 1 81 1 82 376 32 74 0 0 132 108 161 82 3 160 171 1 1 81 1 132 375 32 1 0
 162 53 82 163 82 3 161 171 0 1 81 1 162 384 164 1 132 14 0 0 165 82 3 163 119 5
 3 80 1 164 166 167 8038 0 0 0 0 0 0 0 0 0 TTTTTTTTTTTTTFTFT10 81 1 14 385 166 1
 162 2 0 0 168 98 255 8 165 80 97 114 116 32 49 55 48 80 1 166 169 170 8017 0 0
 0 0 0 0 0 0 0 TTTTTTTTTTTTTFTFT3 84 255 8 168 Part 17079 13 170 SDL/TYSA_NAME79
 14 167 SDL/TYSA_UNAME82 3 133 170 5 2 79 15 131 SDL/TYSA_COLOUR83 3 122 .231372
549019608 .380392156862745 .705882352941177 82 3 116 119 58 1 81 1 70 269 32 77
 0 0 95 68 171 82 3 99 170 10 1 82 3 171 170 8 1 17 39 0 72 27 59 12 50 58 0 57
 -81 1 60 281 32 51 0 0 68 52 172 82 3 71 170 4 0 81 1 52 285 32 62 0 0 60 49 17
3 82 3 172 170 6 0 82 3 173 170 7 0 82 3 54 170 5 0 81 1 33 158 32 23 0 0 0 28 1
74 82 3 174 119 34 0 82 3 47 119 46 0 82 3 35 119 35 0 19 18 143 0 1 0 10 6 0 S0
 74 4 CI16 index_map_offset0 0 1 dCCZ20 16 5 0 0 142 162 14 2 129 0 0 0 0 0 0 0
 0 0 0 0 0 0 0 0 80 1 13 119 175 8040 0 0 0 0 3 5 0 0 0 TTTFFFFFFFFFFFFFF2 83 3
 15 .231372549019608 .380392156862745 .705882352941177 79 17 175 SDL/TYSA_COLOUR
_21 0 
