**ABCDEFGHIJKLMNOPQRSTUVWXYZabcdefghijklmnopqrstuvwxyz**************************
**PARASOLID !"#$%&'()*+,-./:;<=>?@[\]^_`{|}~0123456789**************************
**PART1;
MC=unknown;
MC_MODEL=unknown;
MC_ID=unknown;
OS=unknown;
OS_RELEASE=unknown;
FRU=Parasolid 36.0.180;
APPL=Onshape;
SITE=unknown;
USER=unknown;
FORMAT=text;
GUISE=transmit;
KEY=BTGapi::writeModels_.xmt;
FILE=BTGapi::writeModels_.xmt;
DATE=2024-05-15T00:06:35 (UTC);
**PART2;
SCH=SCH_3600180_36001;
USFLD_SIZE=0;
**PART3;
**END_OF_HEADER*****************************************************************
T51 : TRANSMIT FILE created by modeller version 360018023 SCH_3600180_36001_1300
6231 0 12 36 CCCI7 lattice222 0 CCCI4 mesh1006 0 I8 polyline1008 0 CCCCCCCDI5 ow
ner1040 0 CCCI16 boundary_lattice222 0 CCCI13 boundary_mesh1006 0 I17 boundary_p
olyline1008 0 CCCA16 index_map_offset0 0 1 dA9 index_map82 0 A17 node_id_index_m
ap82 0 A20 schema_embedding_map82 0 A5 child12 0 A14 lowest_node_id0 0 1 dA16 me
sh_offset_data206 0 Z1 292 2 3 0 0 0 0 0 0 0 1e3 1e-8 0 4 5 1 0 1 2 6 0 7 8 9 0
 0 10 11 12 0 0 0 0 0 0 0 81 255 1 2 286 13 1 14 0 0 0 15 70 11 CI9 list_type0 0
 1 uI10 notransmit0 0 1 lCCCDCCDI12 finger_index0 0 1 dI12 finger_block1012 0 CZ
3 0 4 T1 0 0 5 20 1 16 16 13 255 6 94 0 1 0 17 0 0 18 0 50 255 7 183 0 17 19 0 0
 +-1.26365 2.63525 1.2192 -1 364246399155235e-30 0 -3642463991552355e-31 -1 0 30
 255 8 187 0 11 20 0 0 +-1.26365 2.33045 1.2192 0 0 -1 29 255 9 164 0 21 22 0 -1
.26365 2.94005 0 19 9 CCCCCCI5 frame230 0 CA5 owner12 0 Z10 93 0 1 18 0 23 0 V0
 16 255 11 171 24 ?25 0 26 8 0 0 1 18 255 12 67 27 28 0 29 30 ?1 81 1 27 262 31
 12 0 0 32 33 34 17 255 28 0 35 36 37 12 38 39 0 40 -18 29 62 41 38 12 42 43 ?1
 29 30 69 0 12 43 44 -1.26365 2.94005 1.2192 29 43 64 0 29 45 30 -1.87325 2.9400
5 1.2192 29 44 167 0 46 30 47 -1.26365 2.33045 0 18 46 155 48 49 50 0 44 ?1 29 4
7 166 0 50 44 22 -1.87325 2.33045 0 18 50 151 51 52 53 46 47 ?1 29 22 165 0 53 4
7 9 -1.87325 2.94005 0 18 53 147 33 54 21 50 22 ?1 81 1 33 263 31 53 0 0 27 41 5
5 17 54 0 35 37 36 53 56 57 0 58 +18 21 143 32 56 59 53 9 ?1 81 1 32 261 31 21 0
 0 60 27 61 17 56 0 62 63 64 21 54 57 0 36 -18 59 52 65 66 42 21 67 ?1 81 1 65 2
58 31 59 0 0 48 51 68 17 66 0 69 40 70 59 71 72 0 73 -18 42 57 60 70 29 59 45 ?1
 29 67 54 0 59 0 45 -1.26365 2.33045 1.2192 29 45 59 0 42 67 43 -1.87325 2.33045
 1.2192 81 1 60 260 31 42 0 0 51 32 74 17 70 0 69 66 38 42 75 76 0 77 -15 255 69
 6 0 40 78 0 17 38 0 69 70 40 29 28 39 0 37 +17 75 0 79 58 77 29 70 76 0 0 +16 7
6 22 80 ?75 39 72 81 0 0 1 17 77 0 79 75 52 42 82 26 0 71 -15 79 174 0 52 83 0 1
7 52 0 79 77 58 50 64 84 0 82 -17 82 0 85 49 71 50 77 26 0 86 +16 26 170 87 ?82
 11 88 20 0 0 1 17 71 0 85 82 73 42 66 72 0 0 +15 85 176 0 49 89 0 17 73 0 85 71
 49 59 25 11 0 90 -16 72 17 91 ?71 76 92 93 0 0 1 81 1 91 270 31 72 0 0 94 95 96
 16 92 12 97 ?40 72 57 98 0 0 1 30 93 19 0 72 98 81 0 +-1.56845 2.33045 1.2192 -
1 0 0 30 98 14 0 92 0 93 0 +-1.26365 2.63525 1.2192 364246399155235e-30 1 0 30 8
1 24 0 76 93 99 0 +-1.87325 2.63525 1.2192 364246399155235e-30 1 0 30 99 29 0 39
 81 100 0 +-1.56845 2.94005 1.2192 -1 0 0 16 39 27 101 ?38 102 76 99 0 0 1 30 10
0 163 0 103 99 104 0 +-1.26365 2.63525 0 364246399155235e-30 1 0 16 103 139 105
 ?106 107 0 100 0 0 1 30 104 162 0 107 100 108 0 +-1.56845 2.33045 0 -1 0 0 16 1
07 135 94 ?86 84 103 104 0 0 1 30 108 161 0 84 104 109 0 +-1.87325 2.63525 0 364
246399155235e-30 1 0 16 84 131 110 ?64 57 107 108 0 0 1 30 109 160 0 57 108 111
 0 +-1.56845 2.94005 0 -1 0 0 16 57 127 95 ?54 92 84 109 0 0 1 30 111 184 0 102
 109 112 0 +-1.26365 2.94005 1.2192 0 0 -1 16 102 168 113 ?36 88 39 111 0 0 1 30
 112 185 0 88 111 20 0 +-1.87325 2.94005 1.2192 0 0 -1 16 88 169 114 ?58 26 102
 112 0 0 1 30 20 186 0 26 112 8 0 +-1.87325 2.33045 1.2192 0 0 -1 81 1 114 268 3
1 88 0 0 113 94 115 17 58 0 79 52 75 53 37 88 0 64 +17 37 0 35 28 54 29 58 88 0
 75 -17 64 0 62 56 86 53 52 84 0 0 +15 62 126 0 63 116 0 17 86 0 62 64 63 50 49
 107 0 0 +17 63 0 62 86 56 46 106 103 0 0 -17 49 0 85 73 82 46 86 107 0 25 -17 2
5 0 117 106 90 46 73 11 0 63 +15 117 178 0 106 17 0 17 106 0 117 118 25 21 63 10
3 0 0 +17 90 0 117 25 118 59 40 92 0 0 -17 118 0 117 90 106 12 36 102 0 0 -17 40
 0 69 38 66 12 90 92 0 118 +17 36 0 35 54 28 21 118 102 0 106 +15 35 172 0 54 11
9 0 14 255 119 173 120 ?78 83 35 6 121 -0 0 78 83 23 81 1 120 290 122 119 123 0
 124 125 126 14 78 1 125 ?116 119 69 6 127 -0 0 116 119 23 14 83 175 124 ?119 89
 79 6 128 +0 0 119 89 23 50 121 180 0 119 129 128 0 +-1.56845 2.94005 1.2192 0 -
1 0 0 0 1 13 23 188 0 0 0 0 0 0 10 17 14 17 179 130 ?89 0 117 6 7 -0 0 89 0 23 8
1 1 130 287 122 17 131 0 0 132 133 14 89 177 132 ?83 17 85 6 19 +0 0 83 17 23 81
 1 132 288 122 89 134 0 130 124 135 50 19 182 0 89 128 7 0 +-1.56845 2.33045 1.2
192 0 -1 0 0 0 1 50 128 181 0 83 121 19 0 +-1.87325 2.63525 1.2192 -1 3642463991
55235e-30 0 -3642463991552355e-31 -1 0 80 7 CCCCCDI12 legal_owners0 17 1 lCZ1 12
2 0 136 8001 0 0 0 0 3 5 0 0 0 FFFFTFTFFFFFFFFFF2 81 1 134 277 31 89 0 132 80 13
7 138 81 1 124 289 122 83 139 0 132 120 140 83 255 3 135 .768627450980392 .88627
4509803922 .952941176470588 81 1 139 282 31 83 0 124 131 141 142 83 3 140 .76862
7450980392 .886274509803922 .952941176470588 80 1 31 143 144 9000 0 0 0 0 3 6 0
 0 0 FFTFTFTTFFFFFFFFF1 81 1 131 281 31 17 0 130 123 139 145 81 1 141 283 31 1 0
 146 139 0 147 82 255 3 142 189 11 2 81 1 146 284 148 1 141 14 0 0 149 82 3 147
 189 1 3 80 1 148 150 151 8038 0 0 0 0 0 0 0 0 0 TTTTTTTTTTTTTFTFT10 81 1 14 285
 150 1 146 2 0 0 152 98 255 8 149 80 97 114 116 32 51 49 49 80 1 150 153 154 801
7 0 0 0 0 0 0 0 0 0 TTTTTTTTTTTTTFTFT3 84 255 8 152 Part 31179 255 13 154 SDL/TY
SA_NAME79 14 151 SDL/TYSA_UNAME81 1 123 280 31 119 0 120 155 131 156 82 3 145 18
9 10 2 81 1 155 279 31 78 0 125 137 123 157 82 3 156 189 9 2 81 1 125 291 122 78
 155 0 120 158 159 81 1 137 278 31 116 0 158 134 155 160 82 3 157 189 8 2 14 116
 118 158 ?0 78 62 6 129 +0 0 0 78 23 81 1 158 292 122 116 137 0 125 0 161 82 3 1
60 189 7 2 83 3 161 .768627450980392 .886274509803922 .952941176470588 50 129 15
9 0 116 127 121 0 +-1.56845 2.63525 0 0 0 -1 -1 0 0 50 127 3 0 78 0 129 0 +-1.56
845 2.63525 1.2192 0 0 -1 -1 0 0 83 3 159 .768627450980392 .886274509803922 .952
941176470588 79 9 144 BTI/DetId81 1 80 276 31 76 0 0 110 134 162 82 3 138 189 6
 2 81 1 110 275 31 84 0 0 97 80 163 82 3 162 189 23 1 81 1 97 274 31 92 0 0 105
 110 164 82 3 163 189 22 1 81 1 105 273 31 103 0 0 101 97 165 82 3 164 189 21 1
 81 1 101 272 31 39 0 0 95 105 166 82 3 165 189 20 1 81 1 95 271 31 57 0 0 91 10
1 167 82 3 166 189 19 1 82 3 167 189 18 1 79 15 136 SDL/TYSA_COLOUR83 3 133 .768
627450980392 .886274509803922 .952941176470588 83 3 126 .768627450980392 .886274
509803922 .952941176470588 81 1 113 267 31 102 0 0 87 114 168 81 1 94 269 31 107
 0 0 114 91 169 82 3 115 189 15 1 82 3 169 189 16 1 81 1 87 266 31 26 0 0 24 113
 170 82 3 168 189 14 1 81 1 24 265 31 11 0 0 41 87 171 82 3 170 189 13 1 81 1 41
 264 31 29 0 0 33 24 172 82 3 171 189 12 1 82 3 172 189 15 0 82 3 96 189 17 1 81
 1 51 259 31 50 0 0 65 60 173 82 3 74 189 11 0 82 3 173 189 10 0 81 1 48 257 31
 46 0 0 0 65 174 82 3 68 189 9 0 82 3 174 189 8 0 82 3 61 189 12 0 82 3 55 189 1
4 0 82 3 34 189 13 0 19 18 189 0 1 0 10 6 0 S0 74 4 CI16 index_map_offset0 0 1 d
CCZ20 16 5 0 0 141 146 14 2 158 0 0 0 0 0 0 0 0 0 0 0 0 0 0 0 80 1 13 122 175 80
40 0 0 0 0 3 5 0 0 0 TTTFFFFFFFFFFFFFF2 83 3 15 .768627450980392 .88627450980392
2 .952941176470588 79 17 175 SDL/TYSA_COLOUR_21 0 
