**ABCDEFGHIJKLMNOPQRSTUVWXYZabcdefghijklmnopqrstuvwxyz**************************
**PARASOLID !"#$%&'()*+,-./:;<=>?@[\]^_`{|}~0123456789**************************
**PART1;
MC=unknown;
MC_MODEL=unknown;
MC_ID=unknown;
OS=unknown;
OS_RELEASE=unknown;
FRU=Parasolid 36.0.180;
APPL=Onshape;
SITE=unknown;
USER=unknown;
FORMAT=text;
GUISE=transmit;
KEY=BTGapi::writeModels_.xmt;
FILE=BTGapi::writeModels_.xmt;
DATE=2024-05-15T00:06:35 (UTC);
**PART2;
SCH=SCH_3600180_36001;
USFLD_SIZE=0;
**PART3;
**END_OF_HEADER*****************************************************************
T51 : TRANSMIT FILE created by modeller version 360018023 SCH_3600180_36001_1300
6231 0 12 36 CCCI7 lattice222 0 CCCI4 mesh1006 0 I8 polyline1008 0 CCCCCCCDI5 ow
ner1040 0 CCCI16 boundary_lattice222 0 CCCI13 boundary_mesh1006 0 I17 boundary_p
olyline1008 0 CCCA16 index_map_offset0 0 1 dA9 index_map82 0 A17 node_id_index_m
ap82 0 A20 schema_embedding_map82 0 A5 child12 0 A14 lowest_node_id0 0 1 dA16 me
sh_offset_data206 0 Z1 67 2 3 0 0 0 0 0 0 0 1e3 1e-8 0 4 5 1 0 3 2 6 0 7 8 9 0 0
 10 11 12 0 0 0 0 0 0 0 81 255 1 2 66 13 1 14 0 0 0 15 70 11 CI9 list_type0 0 1
 uI10 notransmit0 0 1 lCCCDCCDI12 finger_index0 0 1 dI12 finger_block1012 0 CZ3
 0 4 T1 0 0 5 20 1 16 16 13 255 6 3 0 1 0 17 0 0 10 17 50 255 7 38 0 17 0 0 0 +5
.0212220607938 0 0 1 0 0 0 0 -1 30 255 8 40 0 18 19 0 0 +5.0212220607938 -3.7702
7267635732 0 0 0 1 29 255 9 32 0 20 21 0 5.0212220607938 3.77027267635732 .8128
 19 9 CCCCCCI5 frame230 0 CA5 owner12 0 Z10 1 0 1 0 0 6 0 V0 16 255 11 34 22 ?23
 0 24 19 0 0 1 18 255 12 5 25 26 0 27 28 ?1 81 1 25 47 29 12 0 0 30 31 32 17 255
 26 0 33 23 34 12 35 24 0 36 +18 27 2 37 34 12 20 38 ?1 29 28 8 0 12 38 21 5.021
2220607938 3.77027267635732 0 29 38 4 0 27 0 28 5.0212220607938 -3.7702726763573
2 0 29 21 33 0 39 28 9 5.0212220607938 -3.77027267635732 .8128 18 39 27 30 40 20
 0 21 ?1 81 1 30 46 29 39 0 0 37 25 41 17 40 0 33 34 23 39 42 43 0 44 -18 20 23
 31 42 27 39 9 ?1 81 1 31 48 29 20 0 0 25 45 46 17 42 0 0 0 0 20 40 43 0 23 +16
 43 19 47 ?42 18 0 48 0 0 1 17 23 0 33 40 26 20 36 11 0 0 +15 255 33 36 0 40 17
 0 17 36 0 0 0 0 12 23 11 0 0 -14 255 17 37 49 ?0 0 33 6 7 +0 0 0 0 6 81 1 49 67
 50 17 51 0 0 0 52 80 7 CCCCCDI12 legal_owners0 17 1 lCZ1 50 0 53 8001 0 0 0 0 3
 5 0 0 0 FFFFTFTFFFFFFFFFF2 81 1 51 53 29 17 0 49 47 54 55 83 255 3 52 .97254901
9607843 .529411764705882 .00392156862745098 80 1 29 56 57 9000 0 0 0 0 3 6 0 0 0
 FFTFTFTTFFFFFFFFF1 81 1 47 52 29 43 0 0 58 51 59 81 1 54 54 29 1 0 60 51 0 61 8
2 255 3 55 156 0 2 81 1 60 64 62 1 54 14 0 0 63 82 3 61 156 0 3 80 1 62 64 65 80
38 0 0 0 0 0 0 0 0 0 TTTTTTTTTTTTTFTFT10 81 1 14 65 64 1 60 2 0 0 66 98 255 9 63
 83 117 114 102 97 99 101 32 53 80 1 64 67 68 8017 0 0 0 0 0 0 0 0 0 TTTTTTTTTTT
TTFTFT3 84 255 9 66 Surface 579 255 13 68 SDL/TYSA_NAME79 14 65 SDL/TYSA_UNAME81
 1 58 51 29 24 0 0 22 47 69 82 3 59 156 3 1 16 24 6 58 ?26 11 18 70 0 0 1 81 1 2
2 50 29 11 0 0 45 58 71 82 3 69 156 2 1 81 1 45 49 29 18 0 0 31 22 72 82 3 71 15
6 1 1 16 18 35 45 ?44 24 43 8 0 0 1 82 3 72 156 0 1 17 44 0 0 0 0 39 34 18 0 0 +
17 34 0 33 26 40 27 44 18 0 35 -17 35 0 0 0 0 27 26 24 0 0 -30 70 7 0 24 0 48 0
 +5.0212220607938 0 0 0 1 0 30 48 31 0 43 70 19 0 +5.0212220607938 0 .8128 0 1 0
 30 19 39 0 11 48 8 0 +5.0212220607938 3.77027267635732 0 0 0 1 79 9 57 BTI/DetI
d79 15 53 SDL/TYSA_COLOUR82 3 46 156 3 0 81 1 37 45 29 27 0 0 0 30 73 82 3 41 15
6 1 0 82 3 73 156 0 0 82 3 32 156 2 0 74 4 CI16 index_map_offset0 0 1 dCCZ20 16
 5 0 0 54 60 14 2 49 0 0 0 0 0 0 0 0 0 0 0 0 0 0 0 80 1 13 50 74 8040 0 0 0 0 3
 5 0 0 0 TTTFFFFFFFFFFFFFF2 83 3 15 .972549019607843 .529411764705882 .003921568
62745098 79 17 74 SDL/TYSA_COLOUR_21 0 
