**ABCDEFGHIJKLMNOPQRSTUVWXYZabcdefghijklmnopqrstuvwxyz**************************
**PARASOLID !"#$%&'()*+,-./:;<=>?@[\]^_`{|}~0123456789**************************
**PART1;
MC=unknown;
MC_MODEL=unknown;
MC_ID=unknown;
OS=unknown;
OS_RELEASE=unknown;
FRU=Parasolid 36.0.180;
APPL=Onshape;
SITE=unknown;
USER=unknown;
FORMAT=text;
GUISE=transmit;
KEY=BTGapi::writeModels_.xmt;
FILE=BTGapi::writeModels_.xmt;
DATE=2024-05-15T00:06:35 (UTC);
**PART2;
SCH=SCH_3600180_36001;
USFLD_SIZE=0;
**PART3;
**END_OF_HEADER*****************************************************************
T51 : TRANSMIT FILE created by modeller version 360018023 SCH_3600180_36001_1300
6231 0 12 36 CCCI7 lattice222 0 CCCI4 mesh1006 0 I8 polyline1008 0 CCCCCCCDI5 ow
ner1040 0 CCCI16 boundary_lattice222 0 CCCI13 boundary_mesh1006 0 I17 boundary_p
olyline1008 0 CCCA16 index_map_offset0 0 1 dA9 index_map82 0 A17 node_id_index_m
ap82 0 A20 schema_embedding_map82 0 A5 child12 0 A14 lowest_node_id0 0 1 dA16 me
sh_offset_data206 0 Z1 161 2 3 0 0 0 0 0 0 0 1e3 1e-8 0 4 5 1 0 1 2 6 0 7 8 9 0
 0 10 11 12 0 0 0 0 0 0 0 81 255 1 2 155 13 1 14 0 0 0 15 70 11 CI9 list_type0 0
 1 uI10 notransmit0 0 1 lCCCDCCDI12 finger_index0 0 1 dI12 finger_block1012 0 CZ
3 0 4 T1 0 0 5 20 1 16 16 13 255 6 5 0 1 0 17 0 0 18 0 50 255 7 90 0 19 20 0 0 +
-1.56845 -4.201483683627205 3.96238230646071 0 .824331600923871 .56610724400796
 0 -.56610724400796 .824331600923871 30 255 8 98 0 21 22 0 0 +-1.4732 -4.2014836
83627205 3.96238230646071 0 .56610724400796 -.824331600923871 29 255 9 85 0 12 2
3 0 -1.4732 -3.90671050945777 3.533151193196445 19 9 CCCCCCI5 frame230 0 CA5 own
er12 0 Z10 1 0 1 18 0 24 0 V0 16 255 11 29 25 ?26 0 27 28 0 0 1 18 255 12 53 29
 30 0 31 9 ?1 81 1 29 114 32 12 0 0 33 34 35 17 255 30 0 36 37 38 12 39 21 0 26
 +18 31 57 40 41 12 42 23 ?1 81 1 40 112 32 31 0 0 43 33 44 17 41 0 45 46 47 31
 48 49 0 37 +18 42 61 50 51 31 52 53 ?1 29 23 84 0 31 53 9 -1.6637 -3.9067105094
5777 3.53315119319644 29 53 83 0 42 54 23 -1.6637 -3.959055566116435 3.497203383
201935 29 54 82 0 52 55 53 -1.4732 -3.959055566116435 3.49720338320194 18 52 65
 56 57 42 58 54 ?1 29 55 81 0 58 59 54 -1.6637 -4.20148255141272 3.9623806577975
05 18 58 69 33 60 52 61 55 ?1 29 59 80 0 61 62 55 -1.4732 -4.20148255141272 3.96
2380657797505 18 61 70 34 38 58 63 59 ?1 29 62 79 0 63 64 59 -1.6637 -4.25382760
8071385 3.926432847803 18 63 71 43 65 61 66 62 ?1 29 64 78 0 66 0 62 -1.4732 -4.
253827608071385 3.926432847803 18 66 72 67 68 63 0 64 ?1 81 1 67 109 32 66 0 0 5
6 50 69 17 68 0 70 71 65 66 72 73 0 74 -15 255 70 8 0 68 17 0 17 71 0 70 60 68 6
1 74 75 0 39 +17 65 0 70 68 60 63 47 76 0 72 -17 72 0 77 51 78 63 68 73 0 79 +16
 73 51 80 ?72 76 75 81 0 0 1 17 74 0 82 57 39 66 71 75 0 78 -15 82 22 0 74 83 0
 17 57 0 82 84 74 52 78 85 0 86 +17 39 0 82 74 84 61 30 21 0 0 -16 75 52 87 ?71
 73 0 88 0 0 1 17 78 0 77 72 86 66 57 85 0 0 -15 77 11 0 78 89 0 17 86 0 77 78 5
1 52 90 91 0 92 -16 85 48 93 ?57 94 95 96 0 0 1 81 1 93 116 32 85 0 0 34 97 98 1
6 94 47 97 ?51 49 85 99 0 0 1 16 95 49 100 ?38 85 76 101 0 0 1 30 96 95 0 85 88
 99 0 +-1.4732 -4.25382874028587 3.9264344964662 0 .56610724400796 -.82433160092
3871 30 88 94 0 75 81 96 0 +-1.4732 -4.22765507974205 3.944406752800255 0 .82433
1600923871 .56610724400796 30 99 96 0 94 96 22 0 +-1.6637 -4.25382874028587 3.92
64344964662 0 .56610724400796 -.824331600923871 30 22 97 0 49 99 8 0 +-1.6637 -4
.201483683627205 3.962382306460705 0 .56610724400796 -.824331600923871 16 49 46
 102 ?41 21 94 22 0 0 1 81 1 102 118 32 49 0 0 97 103 104 16 21 45 103 ?30 105 4
9 8 0 0 1 81 1 103 119 32 21 0 0 102 106 107 16 105 41 108 ?84 91 21 109 0 0 1 8
1 1 108 122 32 105 0 0 110 87 111 17 84 0 82 39 57 12 92 105 0 0 +16 91 37 112 ?
90 27 105 113 0 0 1 30 109 75 0 105 114 113 0 +-1.4732 -3.932883037787105 3.5151
7728819919 0 .824331600923871 .56610724400796 30 114 74 0 27 0 109 0 +-1.6637 -1
.236742427512362 5.36674373139991 0 .824331600923871 .56610724400796 30 113 76 0
 91 109 28 0 +-1.56845 -3.959055566116435 3.49720338320194 -1 0 0 30 28 77 0 11
 113 101 0 +-1.56845 -3.90671050945777 3.533151193196445 1 0 0 30 101 91 0 95 28
 115 0 +-1.56845 -4.20148255141272 3.962380657797505 1 0 0 30 115 92 0 76 101 81
 0 +-1.6637 -1.53151446946731 5.79597319600098 0 .824331600923871 .5661072440079
6 16 76 50 110 ?47 95 73 115 0 0 1 30 81 93 0 73 115 88 0 +-1.56845 -4.253827608
071385 3.926432847803 -1 0 0 81 1 110 121 32 76 0 0 106 108 116 17 47 0 45 41 79
 58 65 76 0 48 +15 45 25 0 79 117 0 17 79 0 45 47 46 63 51 94 0 0 -17 48 0 36 38
 37 58 41 49 0 0 -15 36 28 0 48 19 0 17 38 0 36 30 48 61 60 95 0 71 +17 37 0 36
 48 30 31 26 11 0 118 -17 26 0 119 92 118 12 37 11 0 84 +17 118 0 119 26 90 31 4
6 27 0 0 +15 119 19 0 92 120 0 17 90 0 119 118 92 42 86 91 0 0 +17 46 0 45 79 41
 42 118 27 0 90 -16 27 33 106 ?118 11 91 114 0 0 1 81 1 106 120 32 27 0 0 103 11
0 121 80 7 CCCCCDI12 legal_owners0 17 1 lCZ1 32 122 123 9000 0 0 0 0 3 6 0 0 0 F
FTFTFTTFFFFFFFFF1 82 255 3 121 143 32 1 79 255 9 123 BTI/DetId17 92 0 119 90 26
 52 84 105 0 0 -14 255 120 12 124 ?83 89 119 6 125 +0 0 83 89 24 81 1 124 158 12
6 120 127 0 128 129 130 14 83 20 129 ?117 120 82 6 131 -0 0 117 120 24 14 89 9 1
28 ?120 17 77 6 132 +0 0 120 0 24 50 125 73 0 120 0 133 0 +-.0317500000000006 -1
.924817738899915 4.89421008382051 0 .56610724400796 -.824331600923871 1 0 0 13 2
4 3 0 0 0 0 0 0 10 89 50 133 86 0 17 125 131 0 +-1.78435 -2.153086332365025 5.36
911059136038 0 -.56610724400796 .824331600923871 1 0 0 14 17 6 134 ?89 0 70 6 13
3 +0 0 0 19 24 50 131 87 0 83 133 132 0 +-1.4732 -4.22765621195654 3.94440840146
3455 -1 0 0 0 0 1 50 132 88 0 89 131 20 0 +-1.56845 -4.25382874028587 3.92643449
64662 0 -.824331600923871 -.56610724400796 0 .56610724400796 -.824331600923871 5
0 20 89 0 117 132 7 0 +-1.6637 -1.5315156016818 5.79597484466418 -1 0 0 0 0 1 14
 117 23 135 ?19 83 45 6 20 +0 0 19 83 24 81 1 135 160 126 117 136 0 129 137 138
 14 19 26 137 ?0 117 36 6 7 +0 0 17 117 24 81 1 137 161 126 19 139 0 135 0 140 8
0 1 126 0 141 8001 0 0 0 0 3 5 0 0 0 FFFFTFTFFFFFFFFFF2 81 1 139 133 32 19 0 137
 142 143 144 83 255 3 140 .615686274509804 .811764705882353 .929411764705882 81
 1 142 132 32 89 0 128 145 139 146 81 1 143 134 32 1 0 147 139 0 148 82 3 144 14
3 36 2 81 1 147 153 149 1 143 14 0 0 150 82 3 148 143 0 3 80 1 149 151 152 8038
 0 0 0 0 0 0 0 0 0 TTTTTTTTTTTTTFTFT10 81 1 14 154 151 1 147 2 0 0 153 98 255 25
 150 80 97 114 116 32 50 49 57 32 50 46 53 120 55 46 53 120 50 48 46 53 32 116 1
11 112 80 1 151 154 155 8017 0 0 0 0 0 0 0 0 0 TTTTTTTTTTTTTFTFT3 84 255 25 153
 Part 219 2.5x7.5x20.5 top79 13 155 SDL/TYSA_NAME79 14 152 SDL/TYSA_UNAME81 1 12
8 157 126 89 142 0 134 124 156 81 1 145 131 32 83 0 129 157 142 158 82 3 146 143
 32 2 81 1 129 159 126 83 145 0 124 135 159 81 1 157 130 32 17 0 134 127 145 160
 82 3 158 143 24 2 81 1 134 156 126 17 157 0 0 128 161 81 1 127 129 32 120 0 124
 136 157 162 82 3 160 143 2 2 81 1 136 128 32 117 0 135 100 127 163 82 3 162 143
 1 2 81 1 100 127 32 95 0 0 25 136 164 82 3 163 143 0 2 81 1 25 126 32 11 0 0 80
 100 165 82 3 164 143 73 1 81 1 80 125 32 73 0 0 112 25 166 82 3 165 143 72 1 81
 1 112 124 32 91 0 0 87 80 167 82 3 166 143 65 1 81 1 87 123 32 75 0 0 108 112 1
68 82 3 167 143 64 1 82 3 168 143 49 1 83 3 161 .615686274509804 .81176470588235
3 .929411764705882 83 3 159 .615686274509804 .811764705882353 .929411764705882 8
3 3 156 .615686274509804 .811764705882353 .929411764705882 79 15 141 SDL/TYSA_CO
LOUR83 3 138 .615686274509804 .811764705882353 .929411764705882 83 3 130 .615686
274509804 .811764705882353 .929411764705882 17 60 0 70 65 71 58 38 95 0 47 -17 5
1 0 77 86 72 42 79 94 0 46 +82 3 116 143 33 1 82 3 111 143 48 1 82 3 107 143 5 1
 81 1 97 117 32 94 0 0 93 102 169 82 3 104 143 4 1 82 3 169 143 1 1 81 1 34 115
 32 61 0 0 29 93 170 82 3 98 143 0 1 82 3 170 143 11 0 81 1 56 108 32 52 0 0 0 6
7 171 81 1 50 110 32 42 0 0 67 43 172 82 3 69 143 1 0 81 1 43 111 32 63 0 0 50 4
0 173 82 3 172 143 2 0 82 3 173 143 3 0 82 3 171 143 0 0 81 1 33 113 32 58 0 0 4
0 29 174 82 3 174 143 9 0 82 3 44 143 8 0 82 3 35 143 10 0 19 18 4 0 1 0 10 6 0
 S0 74 4 CI16 index_map_offset0 0 1 dCCZ20 16 5 0 0 143 147 14 2 137 0 0 0 0 0 0
 0 0 0 0 0 0 0 0 0 80 1 13 126 175 8040 0 0 0 0 3 5 0 0 0 TTTFFFFFFFFFFFFFF2 83
 3 15 .615686274509804 .811764705882353 .929411764705882 79 17 175 SDL/TYSA_COLO
UR_21 0 
