**ABCDEFGHIJKLMNOPQRSTUVWXYZabcdefghijklmnopqrstuvwxyz**************************
**PARASOLID !"#$%&'()*+,-./:;<=>?@[\]^_`{|}~0123456789**************************
**PART1;
MC=unknown;
MC_MODEL=unknown;
MC_ID=unknown;
OS=unknown;
OS_RELEASE=unknown;
FRU=Parasolid 36.0.180;
APPL=Onshape;
SITE=unknown;
USER=unknown;
FORMAT=text;
GUISE=transmit;
KEY=BTGapi::writeModels_.xmt;
FILE=BTGapi::writeModels_.xmt;
DATE=2024-05-15T00:06:35 (UTC);
**PART2;
SCH=SCH_3600180_36001;
USFLD_SIZE=0;
**PART3;
**END_OF_HEADER*****************************************************************
T51 : TRANSMIT FILE created by modeller version 360018023 SCH_3600180_36001_1300
6231 0 12 36 CCCI7 lattice222 0 CCCI4 mesh1006 0 I8 polyline1008 0 CCCCCCCDI5 ow
ner1040 0 CCCI16 boundary_lattice222 0 CCCI13 boundary_mesh1006 0 I17 boundary_p
olyline1008 0 CCCA16 index_map_offset0 0 1 dA9 index_map82 0 A17 node_id_index_m
ap82 0 A20 schema_embedding_map82 0 A5 child12 0 A14 lowest_node_id0 0 1 dA16 me
sh_offset_data206 0 Z1 238 2 3 0 0 0 0 0 0 0 1e3 1e-8 0 4 5 1 0 1 2 6 0 7 8 9 0
 0 10 11 12 0 0 0 0 0 0 0 81 255 1 2 232 13 1 14 0 0 0 15 70 11 CI9 list_type0 0
 1 uI10 notransmit0 0 1 lCCCDCCDI12 finger_index0 0 1 dI12 finger_block1012 0 CZ
3 0 4 T1 0 0 5 20 1 16 16 13 255 6 184 0 1 0 17 0 0 18 0 50 255 7 179 0 19 20 0
 0 +-1.5367 -.818691148138101 6.3500168543909 -1 -150129908673195e-30 -103101262
5827964e-31 150129908673195e-30 -1 0 30 255 8 183 0 21 22 0 0 +-1.5367 -1.321203
692061294 6.00491787844364 0 .566107244007959 -.824331600923871 29 255 9 160 0 2
3 24 0 .9017 -1.3126660871876 5.99248592748721 19 9 CCCCCCI5 frame230 0 CA5 owne
r12 0 Z10 1 0 1 18 0 25 0 V0 16 255 11 164 26 ?27 0 28 29 0 0 1 18 255 12 38 30
 31 0 32 33 ?1 81 1 30 210 34 12 0 0 35 36 37 17 255 31 0 38 39 40 12 27 11 0 41
 -18 32 41 42 43 12 44 45 ?1 29 33 69 0 12 45 46 .9017 -1.321203692061294 6.0049
1787844364 29 45 68 0 32 47 33 .9017 -.316178604214909 6.69511583033815 29 46 16
3 0 48 33 49 -1.5367 -1.3126660871876 5.99248592748721 18 48 151 50 51 52 0 46 ?
1 29 49 162 0 52 46 24 -1.5367 -.307640999341214 6.68268387938171 18 52 147 53 5
4 55 48 49 ?1 29 24 161 0 55 49 9 .9017 -.307640999341214 6.68268387938171 18 55
 143 56 57 23 52 24 ?1 81 1 56 207 34 55 0 0 58 42 59 17 57 0 60 61 27 55 62 63
 0 64 +18 23 139 35 27 65 55 9 ?1 81 1 35 209 34 23 0 0 42 30 66 17 27 0 60 57 4
1 23 31 11 0 62 +18 65 53 58 67 44 23 68 ?1 81 1 58 206 34 65 0 0 50 56 69 17 67
 0 70 71 72 65 51 21 0 73 -18 44 50 74 75 32 65 47 ?1 29 68 64 0 65 0 47 -1.5367
 -1.321203692061294 6.00491787844364 29 47 65 0 44 68 45 -1.5367 -.3161786042149
09 6.69511583033815 81 1 74 204 34 44 0 0 53 50 76 17 75 0 77 73 43 44 78 79 0 8
0 +15 255 77 7 0 81 82 0 17 73 0 77 81 75 65 71 83 0 39 -17 43 0 77 75 81 32 41
 84 0 61 +17 78 0 85 64 80 32 75 79 0 0 -16 79 20 86 ?75 84 83 87 0 0 1 17 80 0
 85 78 88 44 54 89 0 71 -15 85 172 0 88 90 0 17 88 0 85 80 64 52 91 92 0 93 +17
 54 0 70 72 71 52 80 89 0 88 +16 89 166 36 ?54 28 21 22 0 0 1 17 71 0 70 54 67 4
4 73 83 0 0 +15 70 174 0 72 19 0 16 83 29 94 ?71 79 95 96 0 0 1 81 1 94 218 34 8
3 0 0 97 98 99 16 95 115 100 ?101 83 63 102 0 0 1 30 96 56 0 83 0 87 0 +-1.5367
 -.818691148138101 6.3500168543909 -182123199577617e-30 .824331600923871 .566107
24400796 30 87 59 0 79 96 103 0 +.4699 -.316178604214909 6.69511583033815 -1 -87
3577609151503e-31 -599926791826936e-31 30 103 60 0 84 87 104 0 +.9017 -.81869114
8138101 6.3500168543909 -182123199577617e-30 .824331600923871 .56610724400796 16
 84 17 105 ?43 106 79 103 0 0 1 30 104 63 0 106 103 107 0 +-1.1049 -1.3212036920
61294 6.00491787844364 -1 0 0 16 106 8 108 ?39 21 84 104 0 0 1 30 107 159 0 109
 104 110 0 +-1.5367 -.810153543264406 6.33758490343446 -182123199577617e-30 .824
331600923871 .56610724400796 16 109 135 97 ?93 92 0 107 0 0 1 30 110 158 0 92 10
7 111 0 +.4699 -.307640999341214 6.68268387938171 -1 -873577609151503e-31 -59992
6791826936e-31 16 92 127 112 ?88 63 109 110 0 0 1 30 111 157 0 63 110 102 0 +.90
17 -.810153543264406 6.33758490343446 -182123199577617e-30 .824331600923871 .566
10724400796 16 63 123 98 ?57 95 92 111 0 0 1 30 102 156 0 95 111 29 0 +-1.1049 -
1.3126660871876 5.99248592748721 -1 0 0 30 29 180 0 11 102 113 0 +.9017 -1.32120
3692061294 6.00491787844364 0 .566107244007959 -.824331600923871 30 113 181 0 28
 29 22 0 +.9017 -.316178604214909 6.69511583033815 0 .566107244007959 -.82433160
0923871 16 28 165 114 ?64 11 89 113 0 0 1 30 22 182 0 89 113 8 0 +-1.5367 -.3161
78604214909 6.69511583033815 0 .566107244007959 -.824331600923871 81 1 114 213 3
4 28 0 0 115 26 116 17 64 0 85 88 78 55 61 28 0 91 +17 61 0 60 41 57 32 64 28 0
 78 -17 91 0 117 62 93 55 88 92 0 0 -15 117 114 0 101 118 0 17 62 0 117 101 91 2
3 57 63 0 40 -17 93 0 117 91 101 52 72 109 0 0 +17 101 0 117 93 62 48 40 95 0 0
 +17 72 0 70 67 54 48 93 109 0 101 -17 40 0 38 31 51 23 101 95 0 0 -15 38 168 0
 40 17 0 17 51 0 38 40 39 48 67 21 0 72 +17 39 0 38 51 31 65 81 106 0 0 +16 21 1
67 115 ?51 89 106 8 0 0 1 81 1 115 212 34 21 0 0 36 114 119 80 7 CCCCCDI12 legal
_owners0 17 1 lCZ1 34 120 121 9000 0 0 0 0 3 6 0 0 0 FFTFTFTTFFFFFFFFF1 81 1 36
 211 34 89 0 0 30 115 122 82 255 3 119 118 5 1 82 3 122 118 4 1 79 255 9 121 BTI
/DetId17 81 0 77 43 73 12 39 106 0 0 -14 255 17 169 123 ?124 0 38 6 125 +0 0 124
 0 25 81 1 123 233 126 17 127 0 0 128 129 14 124 171 128 ?90 17 60 6 130 -0 0 90
 17 25 50 125 176 0 17 131 130 0 +-1.1049 -1.321203692061294 6.00491787844364 0
 -.824331600923871 -.566107244007959 0 .56610724400796 -.824331600923872 13 25 3
 0 0 0 0 0 0 10 17 50 131 155 0 118 132 125 0 +-.3175 -2.17465501836173 5.400517
62535558 0 -.56610724400796 .824331600923871 1 0 0 50 130 177 0 124 125 20 0 +.9
017 -.818691148138101 6.3500168543909 -1 -150129908673195e-30 -1031012625827964e
-31 150129908673195e-30 -1 0 50 20 178 0 90 130 7 0 +.4699 -.316178604214909 6.6
9511583033815 105974053181079e-30 -.824331600923871 -.566107244007959 0 .5661072
4400796 -.824331600923872 14 90 173 133 ?19 124 85 6 20 -0 0 19 124 25 81 1 133
 235 126 90 134 0 128 135 136 14 19 175 135 ?82 90 70 6 7 +0 0 82 90 25 81 1 135
 236 126 19 137 0 133 138 139 14 82 4 138 ?118 19 77 6 132 +0 0 118 19 25 81 1 1
38 237 126 82 140 0 135 141 142 14 118 103 141 ?0 82 117 6 131 -0 0 0 82 25 50 1
32 72 0 82 0 131 0 +-.3175 -2.183192623235425 5.41294957631201 0 -.5661072440079
6 .824331600923871 1 0 0 81 1 141 238 126 118 143 0 138 0 144 80 1 126 0 145 800
1 0 0 0 0 3 5 0 0 0 FFFFTFTFFFFFFFFFF2 81 1 143 224 34 118 0 141 127 140 146 83
 255 3 144 .498039215686275 .498039215686275 .498039215686275 81 1 127 223 34 17
 0 123 86 143 147 81 1 140 225 34 82 0 138 143 137 148 82 3 146 118 7 2 81 1 137
 226 34 19 0 135 140 149 150 82 3 148 118 8 2 81 1 149 227 34 124 0 128 137 134
 151 82 3 150 118 9 2 81 1 128 234 126 124 149 0 123 133 152 81 1 134 228 34 90
 0 133 149 153 154 82 3 151 118 10 2 81 1 153 229 34 1 0 155 134 0 156 82 3 154
 118 11 2 81 1 155 230 157 1 153 14 0 0 158 82 3 156 118 1 3 80 1 157 159 160 80
38 0 0 0 0 0 0 0 0 0 TTTTTTTTTTTTTFTFT10 81 1 14 231 159 1 155 2 0 0 161 98 255
 8 158 80 97 114 116 32 49 54 52 80 1 159 162 163 8017 0 0 0 0 0 0 0 0 0 TTTTTTT
TTTTTTFTFT3 84 255 8 161 Part 16479 13 163 SDL/TYSA_NAME79 14 160 SDL/TYSA_UNAME
83 3 152 .498039215686275 .498039215686275 .498039215686275 81 1 86 222 34 79 0
 0 112 127 164 82 3 147 118 6 2 81 1 112 221 34 92 0 0 105 86 165 82 3 164 118 2
3 1 81 1 105 220 34 84 0 0 98 112 166 82 3 165 118 22 1 81 1 98 219 34 63 0 0 94
 105 167 82 3 166 118 21 1 82 3 167 118 20 1 79 15 145 SDL/TYSA_COLOUR83 3 142 .
498039215686275 .498039215686275 .498039215686275 83 3 139 .498039215686275 .498
039215686275 .498039215686275 83 3 136 .498039215686275 .498039215686275 .498039
215686275 15 60 170 0 57 124 0 83 3 129 .498039215686275 .498039215686275 .49803
9215686275 17 41 0 60 27 61 12 43 84 0 81 -81 1 26 214 34 11 0 0 114 100 168 82
 3 116 118 6 1 81 1 100 215 34 95 0 0 26 108 169 82 3 168 118 7 1 81 1 108 216 3
4 106 0 0 100 97 170 82 3 169 118 16 1 81 1 97 217 34 109 0 0 108 94 171 82 3 17
0 118 17 1 82 3 171 118 18 1 82 3 99 118 19 1 81 1 53 203 34 52 0 0 0 74 172 81
 1 50 205 34 48 0 0 74 58 173 82 3 76 118 9 0 82 3 173 118 10 0 82 3 172 118 8 0
 82 3 69 118 11 0 81 1 42 208 34 32 0 0 56 35 174 82 3 66 118 14 0 82 3 174 118
 13 0 82 3 59 118 12 0 82 3 37 118 15 0 19 18 185 0 1 0 10 6 0 S0 74 4 CI16 inde
x_map_offset0 0 1 dCCZ20 16 5 0 0 153 155 14 2 141 0 0 0 0 0 0 0 0 0 0 0 0 0 0 0
 80 1 13 126 175 8040 0 0 0 0 3 5 0 0 0 TTTFFFFFFFFFFFFFF2 83 3 15 .498039215686
275 .498039215686275 .498039215686275 79 17 175 SDL/TYSA_COLOUR_21 0 
