**ABCDEFGHIJKLMNOPQRSTUVWXYZabcdefghijklmnopqrstuvwxyz**************************
**PARASOLID !"#$%&'()*+,-./:;<=>?@[\]^_`{|}~0123456789**************************
**PART1;
MC=unknown;
MC_MODEL=unknown;
MC_ID=unknown;
OS=unknown;
OS_RELEASE=unknown;
FRU=Parasolid 36.0.180;
APPL=Onshape;
SITE=unknown;
USER=unknown;
FORMAT=text;
GUISE=transmit;
KEY=BTGapi::writeModels_.xmt;
FILE=BTGapi::writeModels_.xmt;
DATE=2024-05-15T00:06:35 (UTC);
**PART2;
SCH=SCH_3600180_36001;
USFLD_SIZE=0;
**PART3;
**END_OF_HEADER*****************************************************************
T51 : TRANSMIT FILE created by modeller version 360018023 SCH_3600180_36001_1300
6231 0 12 36 CCCI7 lattice222 0 CCCI4 mesh1006 0 I8 polyline1008 0 CCCCCCCDI5 ow
ner1040 0 CCCI16 boundary_lattice222 0 CCCI13 boundary_mesh1006 0 I17 boundary_p
olyline1008 0 CCCA16 index_map_offset0 0 1 dA9 index_map82 0 A17 node_id_index_m
ap82 0 A20 schema_embedding_map82 0 A5 child12 0 A14 lowest_node_id0 0 1 dA16 me
sh_offset_data206 0 Z1 188 2 3 0 0 0 0 0 0 0 1e3 1e-8 0 4 5 1 0 1 2 6 0 7 8 9 0
 0 10 11 12 0 0 0 0 0 0 0 81 255 1 2 182 13 1 14 0 0 0 15 70 11 CI9 list_type0 0
 1 uI10 notransmit0 0 1 lCCCDCCDI12 finger_index0 0 1 dI12 finger_block1012 0 CZ
3 0 4 T1 0 0 5 20 1 16 16 13 255 6 5 0 1 0 17 0 0 18 0 50 255 7 90 0 19 20 0 0 +
0 -4.201483683627215 3.962382306460715 0 .824331600923871 .56610724400796 0 -.56
610724400796 .824331600923871 30 255 8 98 0 21 22 0 0 +.09525 -4.201483683627215
 3.962382306460715 0 .56610724400796 -.824331600923871 29 255 9 85 0 12 23 0 .09
525 -3.90671050945778 3.53315119319645 19 9 CCCCCCI5 frame230 0 CA5 owner12 0 Z1
0 1 0 1 18 0 24 0 V0 16 255 11 29 25 ?26 0 27 28 0 0 1 18 255 12 53 29 30 0 31 9
 ?1 81 1 29 159 32 12 0 0 33 34 35 17 255 30 0 36 37 38 12 39 21 0 26 +18 31 57
 40 41 12 42 23 ?1 81 1 40 157 32 31 0 0 43 33 44 17 41 0 45 46 47 31 48 49 0 37
 +18 42 61 50 51 31 52 53 ?1 29 23 84 0 31 53 9 -.09525 -3.906710509457775 3.533
15119319645 29 53 83 0 42 54 23 -.09525 -3.959055566116445 3.497203383201945 29
 54 82 0 52 55 53 .09525 -3.959055566116445 3.497203383201945 18 52 65 56 57 42
 58 54 ?1 29 55 81 0 58 59 54 -.09525 -4.201482551412725 3.962380657797515 18 58
 69 33 60 52 61 55 ?1 29 59 80 0 61 62 55 .09525 -4.201482551412725 3.9623806577
97515 18 61 70 34 38 58 63 59 ?1 29 62 79 0 63 64 59 -.09525 -4.25382760807139 3
.926432847803005 18 63 71 43 65 61 66 62 ?1 29 64 78 0 66 0 62 .09525 -4.2538276
0807139 3.92643284780301 18 66 72 67 68 63 0 64 ?1 81 1 67 154 32 66 0 0 56 50 6
9 17 68 0 70 71 65 66 72 73 0 74 -15 255 70 8 0 68 17 0 17 71 0 70 60 68 61 74 7
5 0 39 +17 65 0 70 68 60 63 47 76 0 72 -17 72 0 77 51 78 63 68 73 0 79 +16 73 51
 80 ?72 76 75 81 0 0 1 17 74 0 82 57 39 66 71 75 0 78 -15 82 22 0 74 83 0 17 57
 0 82 84 74 52 78 85 0 86 +17 39 0 82 74 84 61 30 21 0 0 -16 75 52 87 ?71 73 0 8
8 0 0 1 17 78 0 77 72 86 66 57 85 0 0 -15 77 11 0 78 89 0 17 86 0 77 78 51 52 90
 91 0 92 -16 85 48 93 ?57 94 95 96 0 0 1 81 1 93 161 32 85 0 0 34 97 98 16 94 47
 97 ?51 49 85 99 0 0 1 16 95 49 100 ?38 85 76 101 0 0 1 30 96 95 0 85 88 99 0 +.
09525 -4.25382874028588 3.92643449646621 0 .56610724400796 -.824331600923871 30
 88 94 0 75 81 96 0 +.09525 -4.22765507974206 3.94440675280026 0 .82433160092387
1 .56610724400796 30 99 96 0 94 96 22 0 +-.09525 -4.25382874028588 3.92643449646
621 0 .56610724400796 -.824331600923871 30 22 97 0 49 99 8 0 +-.09525 -4.2014836
8362721 3.962382306460715 0 .56610724400796 -.824331600923871 16 49 46 102 ?41 2
1 94 22 0 0 1 81 1 102 163 32 49 0 0 97 103 104 16 21 45 103 ?30 105 49 8 0 0 1
 81 1 103 164 32 21 0 0 102 106 107 16 105 41 108 ?84 91 21 109 0 0 1 81 1 108 1
67 32 105 0 0 110 87 111 17 84 0 82 39 57 12 92 105 0 0 +16 91 37 112 ?90 27 105
 113 0 0 1 30 109 75 0 105 114 113 0 +.09525 -3.93288303778711 3.5151772881992 0
 .824331600923871 .56610724400796 30 114 74 0 27 0 109 0 +-.09525 -1.23674242751
237 5.36674373139992 0 .824331600923871 .56610724400796 30 113 76 0 91 109 28 0
 +0 -3.959055566116445 3.497203383201945 -1 0 0 30 28 77 0 11 113 101 0 +0 -3.90
671050945778 3.53315119319645 1 0 0 30 101 91 0 95 28 115 0 +0 -4.20148255141272
5 3.962380657797515 1 0 0 30 115 92 0 76 101 81 0 +-.09525 -1.531514469467315 5.
79597319600098 0 .824331600923871 .56610724400796 16 76 50 110 ?47 95 73 115 0 0
 1 30 81 93 0 73 115 88 0 +0 -4.25382760807139 3.92643284780301 -1 0 0 81 1 110
 166 32 76 0 0 106 108 116 17 47 0 45 41 79 58 65 76 0 48 +15 45 25 0 79 117 0 1
7 79 0 45 47 46 63 51 94 0 0 -17 48 0 36 38 37 58 41 49 0 0 -15 36 28 0 48 19 0
 17 38 0 36 30 48 61 60 95 0 71 +17 37 0 36 48 30 31 26 11 0 118 -17 26 0 119 92
 118 12 37 11 0 84 +17 118 0 119 26 90 31 46 27 0 0 +15 119 19 0 92 120 0 17 90
 0 119 118 92 42 86 91 0 0 +17 46 0 45 79 41 42 118 27 0 90 -16 27 33 106 ?118 1
1 91 114 0 0 1 81 1 106 165 32 27 0 0 103 110 121 80 7 CCCCCDI12 legal_owners0 1
7 1 lCZ1 32 122 123 9000 0 0 0 0 3 6 0 0 0 FFTFTFTTFFFFFFFFF1 82 255 3 121 152 3
2 1 79 255 9 123 BTI/DetId17 92 0 119 90 26 52 84 105 0 0 -14 255 120 12 124 ?83
 89 119 6 125 +0 0 83 89 24 81 1 124 185 126 120 127 0 128 129 130 14 83 20 129
 ?117 120 82 6 131 -0 0 117 120 24 14 89 9 128 ?120 17 77 6 132 +0 0 120 0 24 50
 125 73 0 120 0 133 0 +1.5367 -1.92481773889992 4.89421008382052 0 .566107244007
96 -.824331600923871 1 0 0 13 24 3 0 0 0 0 0 0 10 89 50 133 86 0 17 125 131 0 +-
.215900000000004 -2.15308633236503 5.36911059136039 0 -.56610724400796 .82433160
0923871 1 0 0 14 17 6 134 ?89 0 70 6 133 +0 0 0 19 24 50 131 87 0 83 133 132 0 +
.09525 -4.227656211956545 3.94440840146346 -1 0 0 0 0 1 50 132 88 0 89 131 20 0
 +0 -4.25382874028588 3.92643449646621 0 -.824331600923871 -.56610724400796 0 .5
6610724400796 -.824331600923871 50 20 89 0 117 132 7 0 +-.09525 -1.5315156016818
05 5.79597484466419 -1 0 0 0 0 1 14 117 23 135 ?19 83 45 6 20 +0 0 19 83 24 81 1
 135 187 126 117 136 0 129 137 138 14 19 26 137 ?0 117 36 6 7 +0 0 17 117 24 81
 1 137 188 126 19 139 0 135 0 140 80 1 126 0 141 8001 0 0 0 0 3 5 0 0 0 FFFFTFTF
FFFFFFFFF2 81 1 139 178 32 19 0 137 142 143 144 83 255 3 140 .615686274509804 .8
11764705882353 .929411764705882 81 1 142 177 32 89 0 128 145 139 146 81 1 143 17
9 32 1 0 147 139 0 148 82 3 144 152 36 2 81 1 147 180 149 1 143 14 0 0 150 82 3
 148 152 0 3 80 1 149 151 152 8038 0 0 0 0 0 0 0 0 0 TTTTTTTTTTTTTFTFT10 81 1 14
 181 151 1 147 2 0 0 153 98 255 8 150 80 97 114 116 32 50 52 55 80 1 151 154 155
 8017 0 0 0 0 0 0 0 0 0 TTTTTTTTTTTTTFTFT3 84 255 8 153 Part 24779 13 155 SDL/TY
SA_NAME79 14 152 SDL/TYSA_UNAME81 1 128 184 126 89 142 0 134 124 156 81 1 145 17
6 32 83 0 129 157 142 158 82 3 146 152 32 2 81 1 129 186 126 83 145 0 124 135 15
9 81 1 157 175 32 17 0 134 127 145 160 82 3 158 152 24 2 81 1 134 183 126 17 157
 0 0 128 161 81 1 127 174 32 120 0 124 136 157 162 82 3 160 152 2 2 81 1 136 173
 32 117 0 135 100 127 163 82 3 162 152 1 2 81 1 100 172 32 95 0 0 25 136 164 82
 3 163 152 0 2 81 1 25 171 32 11 0 0 80 100 165 82 3 164 152 73 1 81 1 80 170 32
 73 0 0 112 25 166 82 3 165 152 72 1 81 1 112 169 32 91 0 0 87 80 167 82 3 166 1
52 65 1 81 1 87 168 32 75 0 0 108 112 168 82 3 167 152 64 1 82 3 168 152 49 1 83
 3 161 .615686274509804 .811764705882353 .929411764705882 83 3 159 .615686274509
804 .811764705882353 .929411764705882 83 3 156 .615686274509804 .811764705882353
 .929411764705882 79 15 141 SDL/TYSA_COLOUR83 3 138 .615686274509804 .8117647058
82353 .929411764705882 83 3 130 .615686274509804 .811764705882353 .9294117647058
82 17 60 0 70 65 71 58 38 95 0 47 -17 51 0 77 86 72 42 79 94 0 46 +82 3 116 152
 33 1 82 3 111 152 48 1 82 3 107 152 5 1 81 1 97 162 32 94 0 0 93 102 169 82 3 1
04 152 4 1 82 3 169 152 1 1 81 1 34 160 32 61 0 0 29 93 170 82 3 98 152 0 1 82 3
 170 152 11 0 81 1 56 153 32 52 0 0 0 67 171 81 1 50 155 32 42 0 0 67 43 172 82
 3 69 152 1 0 81 1 43 156 32 63 0 0 50 40 173 82 3 172 152 2 0 82 3 173 152 3 0
 82 3 171 152 0 0 81 1 33 158 32 58 0 0 40 29 174 82 3 174 152 9 0 82 3 44 152 8
 0 82 3 35 152 10 0 19 18 4 0 1 0 10 6 0 S0 74 4 CI16 index_map_offset0 0 1 dCCZ
20 16 5 0 0 143 147 14 2 137 0 0 0 0 0 0 0 0 0 0 0 0 0 0 0 80 1 13 126 175 8040
 0 0 0 0 3 5 0 0 0 TTTFFFFFFFFFFFFFF2 83 3 15 .615686274509804 .811764705882353
 .929411764705882 79 17 175 SDL/TYSA_COLOUR_21 0 
