**ABCDEFGHIJKLMNOPQRSTUVWXYZabcdefghijklmnopqrstuvwxyz**************************
**PARASOLID !"#$%&'()*+,-./:;<=>?@[\]^_`{|}~0123456789**************************
**PART1;
MC=unknown;
MC_MODEL=unknown;
MC_ID=unknown;
OS=unknown;
OS_RELEASE=unknown;
FRU=Parasolid 36.0.180;
APPL=Onshape;
SITE=unknown;
USER=unknown;
FORMAT=text;
GUISE=transmit;
KEY=BTGapi::writeModels_.xmt;
FILE=BTGapi::writeModels_.xmt;
DATE=2024-05-15T00:06:35 (UTC);
**PART2;
SCH=SCH_3600180_36001;
USFLD_SIZE=0;
**PART3;
**END_OF_HEADER*****************************************************************
T51 : TRANSMIT FILE created by modeller version 360018023 SCH_3600180_36001_1300
6231 0 12 36 CCCI7 lattice222 0 CCCI4 mesh1006 0 I8 polyline1008 0 CCCCCCCDI5 ow
ner1040 0 CCCI16 boundary_lattice222 0 CCCI13 boundary_mesh1006 0 I17 boundary_p
olyline1008 0 CCCA16 index_map_offset0 0 1 dA9 index_map82 0 A17 node_id_index_m
ap82 0 A20 schema_embedding_map82 0 A5 child12 0 A14 lowest_node_id0 0 1 dA16 me
sh_offset_data206 0 Z1 143 2 3 0 0 0 0 0 0 0 1e3 1e-8 0 4 5 1 0 1 2 6 0 7 8 9 0
 0 10 11 12 0 0 0 0 0 0 0 81 255 1 2 137 13 1 14 0 0 0 15 70 11 CI9 list_type0 0
 1 uI10 notransmit0 0 1 lCCCDCCDI12 finger_index0 0 1 dI12 finger_block1012 0 CZ
3 0 4 T1 0 0 5 20 1 16 16 13 255 6 5 0 1 0 17 0 0 18 0 50 255 7 90 0 19 20 0 0 +
-1.663702 0 3.99415 0 0 -1 -1 0 0 30 255 8 98 0 21 22 0 0 +-1.663702 -.09525 3.9
9415 1 0 0 29 255 9 85 0 12 23 0 -1.4732 -.09525 3.99415 19 9 CCCCCCI5 frame230
 0 CA5 owner12 0 Z10 1 0 1 18 0 24 0 V0 16 255 11 29 25 ?26 0 27 28 0 0 1 18 255
 12 53 29 30 0 31 9 ?1 81 1 29 114 32 12 0 0 33 34 35 17 255 30 0 36 37 38 12 39
 21 0 26 +18 31 57 40 41 12 42 23 ?1 81 1 40 112 32 31 0 0 43 33 44 17 41 0 45 2
6 46 31 47 48 0 49 +18 42 61 50 51 31 52 53 ?1 29 23 84 0 31 53 9 -1.4732 -.1587
5 3.99415 29 53 83 0 42 54 23 -1.4732 -.15875 3.6576 29 54 82 0 52 55 53 -1.4732
 -.09525 3.6576 18 52 65 56 57 42 58 54 ?1 29 55 81 0 58 59 54 -1.6637 -.09525 3
.6576 18 58 69 60 61 52 62 55 ?1 29 59 80 0 62 63 55 -1.6637 -.15875 3.6576 18 6
2 70 43 64 58 65 59 ?1 29 63 79 0 65 66 59 -1.6637 -.15875 3.99415 18 65 71 33 4
7 62 67 63 ?1 29 66 78 0 67 0 63 -1.6637 -.09525 3.99415 18 67 72 34 39 65 0 66
 ?1 81 1 34 115 32 67 0 0 29 68 69 17 39 0 45 46 26 67 30 21 0 38 -15 255 45 20
 0 46 19 0 17 46 0 45 41 39 65 70 71 0 0 -17 26 0 45 39 41 12 72 11 0 73 +16 21
 45 74 ?30 75 48 8 0 0 1 17 38 0 36 30 76 67 77 78 0 70 +15 36 11 0 76 79 0 17 7
6 0 36 38 37 58 57 80 0 0 -17 77 0 81 82 70 58 38 78 0 76 -16 78 50 83 ?38 84 85
 86 0 0 1 17 70 0 81 77 87 67 46 71 0 0 +15 81 8 0 77 17 0 17 87 0 81 70 82 65 8
8 85 0 46 +16 71 52 89 ?70 85 0 90 0 0 1 81 1 89 123 32 71 0 0 25 91 92 16 85 51
 93 ?87 78 71 94 0 0 1 30 90 94 0 71 94 95 0 +-1.6637 0 3.99415 0 1 0 30 94 93 0
 85 86 90 0 +-1.6637 -.15875 3.825875 0 0 1 30 95 95 0 80 90 96 0 +-1.663702 -.0
9525 3.6576 1 0 0 16 80 48 68 ?57 97 84 95 0 0 1 30 96 96 0 97 95 22 0 +-1.66370
2 -.15875 3.6576 1 0 0 16 97 47 98 ?51 48 80 96 0 0 1 30 22 97 0 48 96 8 0 +-1.6
63702 -.15875 3.99415 1 0 0 16 48 46 99 ?41 21 97 22 0 0 1 81 1 99 118 32 48 0 0
 98 74 100 80 7 CCCCCDI12 legal_owners0 17 1 lCZ1 32 101 102 9000 0 0 0 0 3 6 0
 0 0 FFTFTFTTFFFFFFFFF1 81 1 98 117 32 97 0 0 68 99 103 81 1 74 119 32 21 0 0 99
 104 105 82 255 3 100 123 43 1 81 1 104 120 32 106 0 0 74 107 108 82 3 105 123 4
6 1 16 106 37 104 ?109 27 75 110 0 0 1 81 1 107 121 32 84 0 0 104 25 111 82 3 10
8 123 60 1 16 84 49 107 ?61 80 78 112 0 0 1 81 1 25 122 32 11 0 0 107 89 113 82
 3 111 123 61 1 82 3 113 123 82 1 17 61 0 114 57 64 58 82 84 0 77 +30 112 91 0 8
4 115 86 0 +-1.6637 0 3.6576 0 1 0 30 115 77 0 27 116 112 0 +-1.4732 -.15875 3.8
25875 0 0 1 30 86 92 0 78 112 94 0 +-1.6637 -.09525 3.825875 0 0 1 16 27 33 117
 ?49 11 106 115 0 0 1 30 116 76 0 75 110 115 0 +-1.4732 -.09525 3.825875 0 0 1 1
6 75 41 91 ?73 106 21 116 0 0 1 30 110 75 0 106 28 116 0 +-1.4732 0 3.6576 0 1 0
 30 28 74 0 11 0 110 0 +-1.4732 0 3.99415 0 1 0 81 1 91 124 32 75 0 0 89 83 118
 17 73 0 119 72 109 12 37 75 0 0 +15 119 28 0 73 120 0 17 72 0 119 121 73 31 26
 11 0 0 -17 109 0 119 73 121 52 122 106 0 37 +17 37 0 36 76 30 52 73 75 0 0 -17
 121 0 119 109 72 42 49 27 0 122 -17 122 0 114 64 57 42 109 106 0 0 -15 114 14 0
 64 123 0 17 64 0 114 61 122 62 51 97 0 82 -17 57 0 114 122 61 52 76 80 0 109 +1
7 51 0 124 49 88 42 64 97 0 121 +17 82 0 81 87 77 62 61 84 0 88 -17 88 0 124 51
 47 62 87 85 0 0 -15 124 17 0 88 125 0 17 47 0 124 88 49 65 41 48 0 87 -17 49 0
 124 47 51 31 121 27 0 72 +14 255 125 15 126 ?19 123 124 6 20 -0 0 19 123 24 81
 1 126 141 127 125 128 0 129 130 131 14 19 18 130 ?120 125 45 6 7 -0 0 120 125 2
4 14 123 12 129 ?125 79 114 6 132 +0 0 125 79 24 50 20 89 0 125 133 7 0 +-1.6637
02 -.15875 3.825875 0 1 0 0 0 1 13 24 3 0 0 0 0 0 0 10 79 14 79 9 134 ?123 17 36
 6 133 +0 0 123 0 24 81 1 134 139 127 79 135 0 136 129 137 14 17 6 136 ?79 0 81
 6 138 +0 0 0 120 24 50 133 88 0 79 132 20 0 +-1.663702 -.09525 3.825875 0 1 0 0
 0 1 50 132 87 0 123 138 133 0 +-1.663702 0 3.6576 0 0 -1 -1 0 0 50 138 86 0 17
 139 132 0 +-1.6637 0 2.40919 -1 0 0 0 -1 0 50 139 73 0 120 0 138 0 +-1.4732 0 3
.281358674698795 -1 0 0 0 -1 0 14 120 21 140 ?0 19 119 6 139 -0 0 17 19 24 81 1
 140 143 127 120 141 0 130 0 142 80 1 127 0 143 8001 0 0 0 0 3 5 0 0 0 FFFFTFTFF
FFFFFFFF2 81 1 141 129 32 120 0 140 144 145 146 81 1 130 142 127 19 147 0 126 14
0 148 83 255 3 142 .231372549019608 .380392156862745 .705882352941177 81 1 147 1
31 32 19 0 130 145 135 149 83 3 148 .231372549019608 .380392156862745 .705882352
941177 81 1 145 130 32 17 0 136 141 147 150 81 1 135 132 32 79 0 134 147 128 151
 82 3 149 123 41 2 81 1 128 133 32 125 0 126 135 152 153 82 3 151 123 69 2 81 1
 152 134 32 1 0 154 128 0 155 82 3 153 123 70 2 81 1 154 135 156 1 152 14 0 0 15
7 82 3 155 123 6 3 80 1 156 158 159 8038 0 0 0 0 0 0 0 0 0 TTTTTTTTTTTTTFTFT10 8
1 1 14 136 158 1 154 2 0 0 160 98 255 8 157 80 97 114 116 32 49 57 50 80 1 158 1
61 162 8017 0 0 0 0 0 0 0 0 0 TTTTTTTTTTTTTFTFT3 84 255 8 160 Part 19279 255 13
 162 SDL/TYSA_NAME79 14 159 SDL/TYSA_UNAME81 1 136 138 127 17 145 0 0 134 163 82
 3 150 123 20 2 83 3 163 .231372549019608 .380392156862745 .705882352941177 81 1
 144 128 32 123 0 129 93 141 164 82 3 146 123 19 2 81 1 129 140 127 123 144 0 13
4 126 165 81 1 93 127 32 85 0 0 117 144 166 82 3 164 123 18 2 81 1 117 126 32 27
 0 0 83 93 167 82 3 166 123 141 1 81 1 83 125 32 78 0 0 91 117 168 82 3 167 123
 140 1 82 3 168 123 139 1 83 3 165 .231372549019608 .380392156862745 .7058823529
41177 79 15 143 SDL/TYSA_COLOUR83 3 137 .231372549019608 .380392156862745 .70588
2352941177 83 3 131 .231372549019608 .380392156862745 .705882352941177 82 3 118
 123 138 1 81 1 68 116 32 80 0 0 34 98 169 82 3 103 123 42 1 82 3 169 123 41 1 7
9 9 102 BTI/DetId82 3 92 123 83 1 82 3 69 123 93 0 81 1 33 113 32 65 0 0 40 29 1
70 82 3 170 123 87 0 81 1 43 111 32 62 0 0 50 40 171 81 1 50 110 32 42 0 0 60 43
 172 82 3 171 123 85 0 81 1 60 109 32 58 0 0 56 50 173 82 3 172 123 84 0 81 1 56
 108 32 52 0 0 0 60 174 82 3 173 123 83 0 82 3 174 123 82 0 82 3 44 123 86 0 82
 3 35 123 92 0 19 18 4 0 1 0 10 6 0 S0 74 4 CI16 index_map_offset0 0 1 dCCZ20 16
 5 0 0 152 154 14 2 140 0 0 0 0 0 0 0 0 0 0 0 0 0 0 0 80 1 13 127 175 8040 0 0 0
 0 3 5 0 0 0 TTTFFFFFFFFFFFFFF2 83 3 15 .231372549019608 .380392156862745 .70588
2352941177 79 17 175 SDL/TYSA_COLOUR_21 0 
