**ABCDEFGHIJKLMNOPQRSTUVWXYZabcdefghijklmnopqrstuvwxyz**************************
**PARASOLID !"#$%&'()*+,-./:;<=>?@[\]^_`{|}~0123456789**************************
**PART1;
MC=unknown;
MC_MODEL=unknown;
MC_ID=unknown;
OS=unknown;
OS_RELEASE=unknown;
FRU=Parasolid 36.0.180;
APPL=Onshape;
SITE=unknown;
USER=unknown;
FORMAT=text;
GUISE=transmit;
KEY=BTGapi::writeModels_.xmt;
FILE=BTGapi::writeModels_.xmt;
DATE=2024-05-15T00:06:35 (UTC);
**PART2;
SCH=SCH_3600180_36001;
USFLD_SIZE=0;
**PART3;
**END_OF_HEADER*****************************************************************
T51 : TRANSMIT FILE created by modeller version 360018023 SCH_3600180_36001_1300
6231 0 12 36 CCCI7 lattice222 0 CCCI4 mesh1006 0 I8 polyline1008 0 CCCCCCCDI5 ow
ner1040 0 CCCI16 boundary_lattice222 0 CCCI13 boundary_mesh1006 0 I17 boundary_p
olyline1008 0 CCCA16 index_map_offset0 0 1 dA9 index_map82 0 A17 node_id_index_m
ap82 0 A20 schema_embedding_map82 0 A5 child12 0 A14 lowest_node_id0 0 1 dA16 me
sh_offset_data206 0 Z1 170 2 3 0 0 0 0 0 0 0 1e3 1e-8 0 4 5 1 0 1 2 6 0 7 8 9 0
 0 10 11 12 0 0 0 0 0 0 0 81 255 1 2 164 13 1 14 0 0 0 15 70 11 CI9 list_type0 0
 1 uI10 notransmit0 0 1 lCCCDCCDI12 finger_index0 0 1 dI12 finger_block1012 0 CZ
3 0 4 T1 0 0 5 20 1 16 16 13 255 6 5 0 1 0 17 0 0 18 0 50 255 7 90 0 19 20 0 0 +
-1.4732 4.30617544560774 3.89048555425721 1 0 0 0 0 -1 30 255 8 98 0 21 22 0 0 +
-1.4732 4.17316741641358 3.69680719595694 0 -.824331600923871 .56610724400796 29
 255 9 85 0 12 23 0 -1.6637 4.12082071109171 3.732756138165935 19 9 CCCCCCI5 fra
me230 0 CA5 owner12 0 Z10 1 0 1 18 0 24 0 V0 16 255 11 29 25 ?26 0 27 28 0 0 1 1
8 255 12 53 29 30 0 31 9 ?1 81 1 29 135 32 12 0 0 0 33 34 17 255 30 0 35 36 37 1
2 26 11 0 38 -18 31 57 39 40 12 41 23 ?1 81 1 39 139 32 31 0 0 42 43 44 17 40 0
 45 46 47 31 48 49 0 36 +18 41 61 50 47 31 51 52 ?1 29 23 84 0 31 52 9 -1.6637 3
.959055566116435 3.497203383201935 29 52 83 0 41 53 23 -1.4732 3.959055566116435
 3.49720338320194 29 53 82 0 51 54 52 -1.4732 4.12082071109171 3.732756138165935
 18 51 65 55 56 41 57 53 ?1 29 54 81 0 57 58 53 -1.4732 4.173165767750375 3.6968
0832817143 18 57 69 59 60 51 61 54 ?1 29 58 80 0 61 62 54 -1.4732 4.011400622775
1 3.461255573207435 18 61 70 42 63 57 64 58 ?1 29 62 79 0 64 65 58 -1.6637 4.011
4006227751 3.46125557320743 18 64 71 43 46 61 66 62 ?1 29 65 78 0 66 0 62 -1.663
7 4.173165767750375 3.69680832817143 18 66 72 33 67 64 0 65 ?1 81 1 33 136 32 66
 0 0 29 50 68 17 67 0 69 70 71 66 38 72 0 73 -15 255 69 11 0 70 74 0 17 70 0 69
 75 67 64 73 76 0 77 +17 71 0 69 67 75 12 36 27 0 0 -17 38 0 78 26 79 12 67 72 0
 71 +16 72 48 80 ?38 81 82 83 0 0 1 17 73 0 84 85 77 66 70 76 0 79 -15 84 8 0 85
 17 0 17 85 0 84 86 73 57 79 87 0 0 +17 77 0 84 73 86 64 88 89 0 0 +16 76 52 90
 ?70 87 0 91 0 0 1 17 79 0 78 38 60 66 85 87 0 0 -15 78 25 0 38 92 0 17 60 0 78
 79 26 57 56 21 0 93 -16 87 51 94 ?85 89 76 95 0 0 1 81 1 94 154 32 87 0 0 25 96
 97 16 89 50 98 ?77 82 87 99 0 0 1 30 95 93 0 87 99 91 0 +-1.56845 4.17316576775
0375 3.69680832817143 1 0 0 30 99 92 0 89 100 95 0 +-1.56845 4.0114006227751 3.4
61255573207435 -1 0 0 30 91 94 0 76 95 83 0 +-1.6637 4.306173796944535 3.8904866
86471695 0 -.566107244007959 -.824331600923871 30 83 95 0 72 91 101 0 +-1.6637 4
.17316741641358 3.69680719595694 0 -.824331600923871 .56610724400796 30 101 96 0
 81 83 22 0 +-1.6637 4.011402271438305 3.461254440992945 0 -.824331600923871 .56
610724400796 16 81 47 102 ?75 103 72 101 0 0 1 30 22 97 0 103 101 8 0 +-1.4732 4
.011402271438305 3.461254440992945 0 -.824331600923871 .56610724400796 16 103 46
 104 ?47 21 81 22 0 0 1 81 1 104 144 32 103 0 0 80 102 105 17 47 0 45 40 88 41 6
3 103 0 106 +16 21 45 107 ?56 108 103 8 0 0 1 81 1 107 146 32 21 0 0 102 109 110
 17 56 0 111 106 93 51 60 21 0 37 +16 108 41 109 ?106 49 21 112 0 0 1 81 1 109 1
47 32 108 0 0 107 113 114 17 106 0 111 63 56 41 37 108 0 48 +16 49 37 115 ?40 27
 108 116 0 0 1 30 112 74 0 108 0 116 0 +-1.4732 4.25382874028587 3.9264344964662
 0 -.56610724400796 -.824331600923871 30 116 75 0 49 112 117 0 +-1.56845 3.95905
5566116435 3.49720338320194 -1 0 0 30 117 76 0 27 116 28 0 +-1.6637 4.2538287402
8587 3.9264344964662 0 -.56610724400796 -.824331600923871 16 27 33 118 ?36 11 49
 117 0 0 1 30 28 77 0 11 117 100 0 +-1.56845 4.12082071109171 3.732756138165935
 1 0 0 30 100 91 0 82 28 99 0 +-1.4732 4.306173796944535 3.8904866864717 0 -.566
107244007959 -.824331600923871 16 82 49 113 ?86 72 89 100 0 0 1 81 1 113 148 32
 82 0 0 109 118 119 17 86 0 84 77 85 61 93 82 0 0 +17 93 0 111 56 63 57 86 82 0
 85 -15 111 28 0 56 19 0 17 63 0 111 93 106 61 47 103 0 88 -17 88 0 45 47 46 61
 77 89 0 86 -15 45 22 0 47 120 0 17 46 0 45 88 40 64 75 81 0 70 -17 75 0 69 71 7
0 31 46 81 0 0 +14 255 120 20 121 ?92 122 45 6 20 +0 0 92 122 24 81 1 121 168 12
3 120 124 0 125 126 127 14 92 23 126 ?19 120 78 6 128 +0 0 19 120 24 14 122 12 1
25 ?120 74 35 6 129 -0 0 120 74 24 50 20 89 0 120 130 7 0 +-1.56845 4.0114022714
38305 3.461254440992945 0 -.56610724400796 -.824331600923871 0 -.824331600923871
 .56610724400796 13 24 3 0 0 0 0 0 0 10 17 14 17 6 131 ?74 0 84 6 132 +0 0 74 0
 24 81 1 131 165 123 17 133 0 0 134 135 14 74 9 134 ?122 17 69 6 130 -0 0 122 17
 24 50 132 86 0 17 129 128 0 +-2.44475 4.306172664730045 3.890485037808495 0 .82
4331600923871 -.566107244007959 0 -.566107244007959 -.824331600923871 50 129 73
 0 122 0 132 0 +0 4.10644158709391 3.71181811550247 0 .824331600923871 -.5661072
4400796 1 0 0 50 128 87 0 92 132 130 0 +-1.56845 4.17316741641358 3.696807195956
94 0 .56610724400796 .824331600923871 0 .824331600923871 -.56610724400796 50 130
 88 0 74 128 20 0 +-1.6637 4.306175445607735 3.89048555425721 1 0 0 0 0 -1 81 1
 134 166 123 74 136 0 131 125 137 80 7 CCCCCDI12 legal_owners0 17 1 lCZ1 123 0 1
38 8001 0 0 0 0 3 5 0 0 0 FFFFTFTFFFFFFFFFF2 81 1 136 158 32 74 0 134 133 124 13
9 81 1 125 167 123 122 140 0 134 121 141 83 255 3 137 .972549019607843 .52941176
4705882 .00392156862745098 81 1 140 156 32 122 0 125 96 133 142 83 3 141 .972549
019607843 .529411764705882 .00392156862745098 80 1 32 143 144 9000 0 0 0 0 3 6 0
 0 0 FFTFTFTTFFFFFFFFF1 81 1 96 155 32 19 0 145 94 140 146 81 1 133 157 32 17 0
 131 140 136 147 82 255 3 142 147 49 2 82 3 147 147 50 2 14 19 26 145 ?0 92 111
 6 7 +0 0 0 92 24 81 1 145 170 123 19 96 0 126 0 148 82 3 146 147 48 2 81 1 126
 169 123 92 149 0 121 145 150 83 3 148 .972549019607843 .529411764705882 .003921
56862745098 81 1 149 160 32 92 0 126 124 151 152 83 3 150 .972549019607843 .5294
11764705882 .00392156862745098 81 1 124 159 32 120 0 121 136 149 153 81 1 151 16
1 32 1 0 154 149 0 155 82 3 152 147 53 2 81 1 154 162 156 1 151 14 0 0 157 82 3
 155 147 8 3 80 1 156 158 159 8038 0 0 0 0 0 0 0 0 0 TTTTTTTTTTTTTFTFT10 81 1 14
 163 158 1 154 2 0 0 160 98 255 8 157 80 97 114 116 32 50 52 52 80 1 158 161 162
 8017 0 0 0 0 0 0 0 0 0 TTTTTTTTTTTTTFTFT3 84 255 8 160 Part 24479 255 13 162 SD
L/TYSA_NAME79 14 159 SDL/TYSA_UNAME82 3 153 147 52 2 79 9 144 BTI/DetId82 3 139
 147 51 2 79 15 138 SDL/TYSA_COLOUR83 3 135 .972549019607843 .529411764705882 .0
0392156862745098 15 35 19 0 30 122 0 83 3 127 .972549019607843 .529411764705882
 .00392156862745098 81 1 118 149 32 27 0 0 113 90 163 82 3 119 147 101 1 81 1 90
 150 32 76 0 0 118 115 164 82 3 163 147 102 1 81 1 115 151 32 49 0 0 90 98 165 8
2 3 164 147 103 1 81 1 98 152 32 89 0 0 115 25 166 82 3 165 147 104 1 81 1 25 15
3 32 11 0 0 98 94 167 82 3 166 147 105 1 82 3 167 147 106 1 17 36 0 35 48 30 31
 71 27 0 75 +17 48 0 35 37 36 41 40 49 0 0 -17 37 0 35 30 48 51 106 108 0 26 -17
 26 0 78 60 38 51 30 11 0 0 +82 3 114 147 100 1 81 1 102 145 32 81 0 0 104 107 1
68 82 3 110 147 99 1 82 3 168 147 98 1 81 1 80 143 32 72 0 0 59 104 169 82 3 105
 147 97 1 81 1 59 142 32 57 0 0 55 80 170 82 3 169 147 96 1 81 1 55 141 32 51 0
 0 43 59 171 82 3 170 147 71 0 81 1 43 140 32 64 0 0 39 55 172 82 3 171 147 70 0
 82 3 172 147 69 0 82 3 97 147 107 1 81 1 50 137 32 41 0 0 33 42 173 82 3 68 147
 65 0 81 1 42 138 32 61 0 0 50 39 174 82 3 173 147 66 0 82 3 174 147 67 0 82 3 4
4 147 68 0 82 3 34 147 64 0 19 18 4 0 1 0 10 6 0 S0 74 4 CI16 index_map_offset0
 0 1 dCCZ20 16 5 0 0 151 154 14 2 145 0 0 0 0 0 0 0 0 0 0 0 0 0 0 0 80 1 13 123
 175 8040 0 0 0 0 3 5 0 0 0 TTTFFFFFFFFFFFFFF2 83 3 15 .972549019607843 .5294117
64705882 .00392156862745098 79 17 175 SDL/TYSA_COLOUR_21 0 
