**ABCDEFGHIJKLMNOPQRSTUVWXYZabcdefghijklmnopqrstuvwxyz**************************
**PARASOLID !"#$%&'()*+,-./:;<=>?@[\]^_`{|}~0123456789**************************
**PART1;
MC=unknown;
MC_MODEL=unknown;
MC_ID=unknown;
OS=unknown;
OS_RELEASE=unknown;
FRU=Parasolid 36.0.180;
APPL=Onshape;
SITE=unknown;
USER=unknown;
FORMAT=text;
GUISE=transmit;
KEY=BTGapi::writeModels_.xmt;
FILE=BTGapi::writeModels_.xmt;
DATE=2024-05-15T00:06:35 (UTC);
**PART2;
SCH=SCH_3600180_36001;
USFLD_SIZE=0;
**PART3;
**END_OF_HEADER*****************************************************************
T51 : TRANSMIT FILE created by modeller version 360018023 SCH_3600180_36001_1300
6231 0 12 36 CCCI7 lattice222 0 CCCI4 mesh1006 0 I8 polyline1008 0 CCCCCCCDI5 ow
ner1040 0 CCCI16 boundary_lattice222 0 CCCI13 boundary_mesh1006 0 I17 boundary_p
olyline1008 0 CCCA16 index_map_offset0 0 1 dA9 index_map82 0 A17 node_id_index_m
ap82 0 A20 schema_embedding_map82 0 A5 child12 0 A14 lowest_node_id0 0 1 dA16 me
sh_offset_data206 0 Z1 170 2 3 0 0 0 0 0 0 0 1e3 1e-8 0 4 5 1 0 1 2 6 0 7 8 9 0
 0 10 11 12 0 0 0 0 0 0 0 81 255 1 2 164 13 1 14 0 0 0 15 70 11 CI9 list_type0 0
 1 uI10 notransmit0 0 1 lCCCDCCDI12 finger_index0 0 1 dI12 finger_block1012 0 CZ
3 0 4 T1 0 0 5 20 1 16 16 13 255 6 5 0 1 0 17 0 0 18 0 50 255 7 90 0 19 20 0 0 +
1.663702 0 3.6576 0 0 -1 1 0 0 30 255 8 98 0 21 22 0 0 +1.663702 .09525 3.6576 -
1 0 0 29 255 9 85 0 12 23 0 1.4732 .09525 3.6576 19 9 CCCCCCI5 frame230 0 CA5 ow
ner12 0 Z10 1 0 1 18 0 24 0 V0 16 255 11 29 25 ?26 0 27 28 0 0 1 18 255 12 53 29
 30 0 31 9 ?1 81 1 29 135 32 12 0 0 0 33 34 17 255 30 0 35 26 36 12 37 21 0 38 +
18 31 57 39 40 12 41 23 ?1 81 1 39 137 32 31 0 0 33 42 43 17 40 0 44 45 46 31 47
 48 0 26 +18 41 61 49 45 31 50 51 ?1 29 23 84 0 31 51 9 1.4732 .15875 3.6576 29
 51 83 0 41 52 23 1.4732 .15875 3.99415 29 52 82 0 50 53 51 1.4732 .09525 3.9941
5 18 50 65 54 55 41 56 52 ?1 29 53 81 0 56 57 52 1.6637 .09525 3.6576 18 56 69 3
3 37 50 58 53 ?1 29 57 80 0 58 59 53 1.6637 .15875 3.6576 18 58 70 42 47 56 60 5
7 ?1 29 59 79 0 60 61 57 1.6637 .15875 3.99415 18 60 71 62 63 58 64 59 ?1 29 61
 78 0 64 0 59 1.6637 .09525 3.99415 18 64 72 65 66 60 0 61 ?1 81 1 65 142 32 64
 0 0 54 67 68 17 66 0 69 70 71 64 72 73 0 74 -15 255 69 11 0 70 75 0 17 70 0 69
 76 66 60 74 77 0 78 +17 71 0 69 66 76 50 79 80 0 0 -17 72 0 81 82 83 50 66 73 0
 71 +16 73 48 84 ?72 85 86 87 0 0 1 17 74 0 88 89 78 64 70 77 0 83 -15 88 8 0 89
 17 0 17 89 0 88 90 74 56 83 91 0 0 +17 78 0 88 74 90 60 46 92 0 0 +16 77 52 93
 ?70 91 0 94 0 0 1 17 83 0 81 72 37 64 89 91 0 0 -15 81 25 0 72 95 0 17 37 0 81
 83 82 56 30 21 0 36 -16 91 51 96 ?89 92 77 97 0 0 1 81 1 96 152 32 91 0 0 98 99
 100 16 92 50 101 ?78 86 91 102 0 0 1 30 97 93 0 91 102 94 0 +1.6637 .09525 3.82
5875 0 0 -1 30 102 92 0 92 103 97 0 +1.6637 .15875 3.825875 0 164941765655201e-3
0 1 30 94 94 0 77 97 87 0 +1.6637 0 3.99415 0 1 0 30 87 95 0 73 94 104 0 +1.6637
02 .09525 3.99415 -1 0 0 30 104 96 0 85 87 22 0 +1.663702 .15875 3.99415 -1 0 0
 16 85 47 105 ?76 48 73 104 0 0 1 30 22 97 0 48 104 8 0 +1.663702 .15875 3.6576
 -1 0 0 16 48 46 106 ?40 21 85 22 0 0 1 81 1 106 144 32 48 0 0 67 105 107 16 21
 45 67 ?30 108 48 8 0 0 1 81 1 67 143 32 21 0 0 65 106 109 16 108 41 98 ?82 80 2
1 110 0 0 1 81 1 98 151 32 108 0 0 93 96 111 17 82 0 81 37 72 12 55 108 0 0 +16
 80 37 112 ?79 27 108 113 0 0 1 30 110 76 0 108 113 114 0 +1.4732 .09525 3.82587
5 0 0 -1 30 113 75 0 80 28 110 0 +1.4732 0 3.99415 0 1 0 30 114 77 0 27 110 103
 0 +1.4732 .15875 3.825875 0 164941765655201e-30 1 16 27 33 99 ?45 11 80 114 0 0
 1 30 103 91 0 86 114 102 0 +1.6637 0 3.6576 0 1 0 16 86 49 115 ?90 73 92 103 0
 0 1 81 1 115 148 32 86 0 0 25 112 116 17 90 0 88 78 89 58 36 86 0 0 +17 36 0 35
 30 47 56 90 86 0 89 -15 35 28 0 30 19 0 17 47 0 35 36 26 58 40 48 0 46 -17 26 0
 35 47 30 31 38 11 0 117 +17 46 0 44 40 63 58 78 92 0 90 -15 44 22 0 40 118 0 17
 63 0 44 46 45 60 76 85 0 70 -17 45 0 44 63 40 41 117 27 0 79 +17 76 0 69 71 70
 41 63 85 0 0 +17 117 0 119 38 79 31 45 27 0 0 -17 79 0 119 117 55 41 71 80 0 76
 +15 119 19 0 55 120 0 17 55 0 119 79 38 50 82 108 0 72 -17 38 0 119 55 117 12 2
6 11 0 82 -14 255 120 12 121 ?118 75 119 6 122 -0 0 118 75 24 81 1 121 167 123 1
20 124 0 125 126 127 14 118 20 126 ?95 120 44 6 20 +0 0 95 120 24 14 75 9 125 ?1
20 17 69 6 128 -0 0 120 17 24 50 122 73 0 120 0 129 0 +1.4732 0 3.28135867469879
5 1 0 0 0 -1 0 13 24 3 0 0 0 0 0 0 10 17 14 17 6 130 ?75 0 88 6 129 +0 0 75 0 24
 81 1 130 165 123 17 131 0 0 125 132 50 129 86 0 17 122 133 0 +1.6637 0 2.40919
 1 0 0 0 -1 0 50 133 87 0 95 129 128 0 +1.663702 .09525 3.825875 0 -1 0 0 0 -1 1
4 95 23 134 ?19 118 81 6 133 +0 0 19 118 24 50 128 88 0 75 133 20 0 +1.663702 0
 3.99415 0 0 -1 1 0 0 50 20 89 0 118 128 7 0 +1.663702 .15875 3.825875 0 1 -1649
41765655201e-30 0 164941765655201e-30 1 81 1 134 169 123 95 135 0 126 136 137 14
 19 26 136 ?0 95 35 6 7 +0 0 0 95 24 81 1 136 170 123 19 138 0 134 0 139 80 7 CC
CCCDI12 legal_owners0 17 1 lCZ1 123 0 140 8001 0 0 0 0 3 5 0 0 0 FFFFTFTFFFFFFFF
FF2 81 1 138 155 32 19 0 136 101 124 141 83 255 3 139 .647058823529412 .64705882
3529412 .647058823529412 80 1 32 142 143 9000 0 0 0 0 3 6 0 0 0 FFTFTFTTFFFFFFFF
F1 81 1 101 154 32 92 0 0 99 138 144 81 1 124 156 32 120 0 121 138 131 145 82 25
5 3 141 124 15 2 81 1 131 157 32 17 0 130 124 146 147 82 3 145 124 16 2 81 1 146
 158 32 75 0 125 131 135 148 82 3 147 124 17 2 81 1 125 166 123 75 146 0 130 121
 149 81 1 135 159 32 95 0 134 146 150 151 82 3 148 124 42 2 81 1 150 160 32 118
 0 126 135 152 153 82 3 151 124 68 2 81 1 126 168 123 118 150 0 121 134 154 81 1
 152 161 32 1 0 155 150 0 156 82 3 153 124 71 2 81 1 155 162 157 1 152 14 0 0 15
8 82 3 156 124 5 3 80 1 157 159 160 8038 0 0 0 0 0 0 0 0 0 TTTTTTTTTTTTTFTFT10 8
1 1 14 163 159 1 155 2 0 0 161 98 255 8 158 80 97 114 116 32 50 48 51 80 1 159 1
62 163 8017 0 0 0 0 0 0 0 0 0 TTTTTTTTTTTTTFTFT3 84 255 8 161 Part 20379 255 13
 163 SDL/TYSA_NAME79 14 160 SDL/TYSA_UNAME83 3 154 .647058823529412 .64705882352
9412 .647058823529412 83 3 149 .647058823529412 .647058823529412 .64705882352941
2 81 1 99 153 32 27 0 0 96 101 164 82 3 144 124 143 1 82 3 164 124 142 1 79 9 14
3 BTI/DetId79 15 140 SDL/TYSA_COLOUR83 3 137 .647058823529412 .647058823529412 .
647058823529412 83 3 132 .647058823529412 .647058823529412 .647058823529412 83 3
 127 .647058823529412 .647058823529412 .647058823529412 81 1 25 147 32 11 0 0 84
 115 165 81 1 112 149 32 80 0 0 115 93 166 82 3 116 124 59 1 81 1 93 150 32 77 0
 0 112 98 167 82 3 166 124 84 1 82 3 167 124 85 1 81 1 84 146 32 73 0 0 105 25 1
68 82 3 165 124 58 1 81 1 105 145 32 85 0 0 106 84 169 82 3 168 124 47 1 82 3 16
9 124 45 1 30 28 74 0 11 0 113 0 +1.4732 0 3.6576 0 1 0 82 3 111 124 136 1 82 3
 109 124 40 1 82 3 107 124 44 1 82 3 100 124 137 1 81 1 54 141 32 50 0 0 62 65 1
70 82 3 68 124 95 0 81 1 62 140 32 60 0 0 49 54 171 82 3 170 124 94 0 81 1 49 13
9 32 41 0 0 42 62 172 82 3 171 124 91 0 81 1 42 138 32 58 0 0 39 49 173 82 3 172
 124 90 0 82 3 173 124 89 0 81 1 33 136 32 56 0 0 29 39 174 82 3 174 124 81 0 82
 3 43 124 88 0 82 3 34 124 80 0 19 18 4 0 1 0 10 6 0 S0 74 4 CI16 index_map_offs
et0 0 1 dCCZ20 16 5 0 0 152 155 14 2 136 0 0 0 0 0 0 0 0 0 0 0 0 0 0 0 80 1 13 1
23 175 8040 0 0 0 0 3 5 0 0 0 TTTFFFFFFFFFFFFFF2 83 3 15 .647058823529412 .64705
8823529412 .647058823529412 79 17 175 SDL/TYSA_COLOUR_21 0 
