**ABCDEFGHIJKLMNOPQRSTUVWXYZabcdefghijklmnopqrstuvwxyz**************************
**PARASOLID !"#$%&'()*+,-./:;<=>?@[\]^_`{|}~0123456789**************************
**PART1;
MC=unknown;
MC_MODEL=unknown;
MC_ID=unknown;
OS=unknown;
OS_RELEASE=unknown;
FRU=Parasolid 36.0.180;
APPL=Onshape;
SITE=unknown;
USER=unknown;
FORMAT=text;
GUISE=transmit;
KEY=BTGapi::writeModels_.xmt;
FILE=BTGapi::writeModels_.xmt;
DATE=2024-05-15T00:06:35 (UTC);
**PART2;
SCH=SCH_3600180_36001;
USFLD_SIZE=0;
**PART3;
**END_OF_HEADER*****************************************************************
T51 : TRANSMIT FILE created by modeller version 360018023 SCH_3600180_36001_1300
6231 0 12 36 CCCI7 lattice222 0 CCCI4 mesh1006 0 I8 polyline1008 0 CCCCCCCDI5 ow
ner1040 0 CCCI16 boundary_lattice222 0 CCCI13 boundary_mesh1006 0 I17 boundary_p
olyline1008 0 CCCA16 index_map_offset0 0 1 dA9 index_map82 0 A17 node_id_index_m
ap82 0 A20 schema_embedding_map82 0 A5 child12 0 A14 lowest_node_id0 0 1 dA16 me
sh_offset_data206 0 Z1 193 2 3 0 0 0 0 0 0 0 1e3 1e-8 0 4 5 1 0 1 2 6 0 7 8 9 0
 0 10 11 12 0 0 0 0 0 0 0 81 255 1 2 187 13 1 14 0 0 0 15 70 11 CI9 list_type0 0
 1 uI10 notransmit0 0 1 lCCCDCCDI12 finger_index0 0 1 dI12 finger_block1012 0 CZ
3 0 4 T1 0 0 5 20 1 16 16 13 255 6 142 0 1 0 17 0 0 18 0 50 255 7 137 0 19 20 0
 0 +2.4765 -3.833766411677255 4.27942299870738 -1 -30025981734639e-29 -206202525
165593e-30 30025981734639e-29 -1 0 30 255 8 141 0 21 22 0 0 +2.4765 -3.331253867
754065 4.62452197465463 0 .566107244007959 -.824331600923871 29 255 9 118 0 23 2
4 0 .0381000000000014 -3.32271626288037 4.6120900236982 19 9 CCCCCCI5 frame230 0
 CA5 owner12 0 Z10 1 0 1 18 0 25 0 V0 16 255 11 122 26 ?27 0 28 29 0 0 1 18 255
 12 26 30 31 0 32 33 ?1 81 1 30 165 34 12 0 0 35 36 37 17 255 31 0 38 39 40 12 4
1 42 0 43 +18 32 29 44 45 12 46 47 ?1 29 33 46 0 12 47 48 .0381000000000014 -3.3
31253867754065 4.62452197465463 29 47 45 0 32 49 33 .03810000000000135 -4.336278
955600445 3.93432402276013 29 48 121 0 50 33 51 2.4765 -3.32271626288037 4.61209
00236982 18 50 109 52 53 54 0 48 ?1 29 51 120 0 54 48 24 2.4765 -4.3277413507267
5 3.921892071803695 18 54 105 55 56 57 50 51 ?1 29 24 119 0 57 51 9 .03810000000
000135 -4.32774135072675 3.921892071803695 18 57 101 58 59 23 54 24 ?1 81 1 58 1
60 34 57 0 0 60 44 61 17 59 0 62 63 64 57 45 28 0 65 +18 23 97 35 27 66 57 9 ?1
 81 1 35 164 34 23 0 0 67 30 68 17 27 0 69 65 70 23 43 11 0 71 +18 66 35 67 40 4
6 23 72 ?1 81 1 67 163 34 66 0 0 52 35 73 17 40 0 38 31 74 66 75 76 0 77 +18 46
 32 60 78 32 66 49 ?1 29 72 43 0 66 0 49 2.4765 -3.331253867754065 4.62452197465
463 29 49 44 0 46 72 47 2.4765 -4.336278955600445 3.93432402276013 81 1 60 159 3
4 46 0 0 55 58 79 17 78 0 62 64 63 46 56 80 0 75 -15 255 62 130 0 63 81 0 17 64
 0 62 59 78 32 74 82 0 0 +17 63 0 62 78 59 54 83 84 0 0 -17 56 0 85 53 75 54 78
 80 0 86 +16 80 124 36 ?56 28 21 22 0 0 1 17 75 0 85 56 77 46 40 76 0 74 -15 85
 132 0 53 19 0 17 77 0 85 75 53 66 87 21 0 41 -16 76 20 88 ?40 82 89 90 0 0 1 17
 74 0 38 40 39 46 64 82 0 0 -15 38 7 0 31 91 0 17 39 0 38 74 31 32 70 92 0 64 -1
6 82 17 93 ?64 92 76 94 0 0 1 81 1 93 171 34 82 0 0 95 96 97 16 92 14 98 ?70 42
 82 99 0 0 1 30 94 39 0 82 90 99 0 +1.2573 -4.336278955600445 3.93432402276013 -
1 0 0 30 90 38 0 76 0 94 0 +2.4765 -3.833766411677255 4.27942299870738 -36424639
9155235e-30 .824331600923871 .56610724400796 30 99 40 0 92 94 100 0 +.0381000000
000013 -3.833766411677255 4.27942299870738 -187814549564418e-30 .824331600923871
 .56610724400796 30 100 42 0 42 99 101 0 +1.6891 -3.331253867754065 4.6245219746
5463 -1 0 0 16 42 8 102 ?31 21 92 100 0 0 1 30 101 117 0 103 100 104 0 +2.4765 -
3.82522880680356 4.266991047750945 -364246399155235e-30 .824331600923871 .566107
24400796 16 103 93 105 ?53 84 0 101 0 0 1 30 104 116 0 84 101 106 0 +1.2573 -4.3
2774135072675 3.921892071803695 -1 0 0 16 84 89 95 ?83 107 103 104 0 0 1 30 106
 115 0 107 104 108 0 +.0381000000000013 -3.82522880680356 4.266991047750945 -187
814549564418e-30 .824331600923871 .56610724400796 16 107 85 109 ?110 89 84 106 0
 0 1 30 108 114 0 89 106 29 0 +1.6891 -3.32271626288037 4.6120900236982 -1 0 0 1
6 89 79 96 ?71 76 107 108 0 0 1 30 29 138 0 11 108 111 0 +.0381000000000014 -3.3
31253867754065 4.62452197465463 0 .566107244007959 -.824331600923871 30 111 139
 0 28 29 22 0 +.03810000000000135 -4.336278955600445 3.93432402276013 0 .5661072
44007959 -.824331600923871 16 28 123 112 ?59 11 80 111 0 0 1 30 22 140 0 80 111
 8 0 +2.4765 -4.336278955600445 3.93432402276013 0 .566107244007959 -.8243316009
23871 81 1 112 167 34 28 0 0 36 113 114 80 7 CCCCCDI12 legal_owners0 17 1 lCZ1 3
4 115 116 9000 0 0 0 0 3 6 0 0 0 FFTFTFTTFFFFFFFFF1 81 1 36 166 34 80 0 0 30 112
 117 81 1 113 168 34 21 0 0 112 26 118 82 255 3 114 119 5 1 16 21 125 113 ?87 80
 42 8 0 0 1 81 1 26 169 34 11 0 0 113 95 119 82 3 118 119 6 1 81 1 95 170 34 84
 0 0 26 93 120 82 3 119 119 7 1 82 3 120 119 32 1 17 87 0 121 71 41 50 77 21 0 1
22 +15 121 126 0 71 17 0 17 71 0 121 43 87 23 122 89 0 110 +17 41 0 121 87 43 66
 31 42 0 0 -17 122 0 123 86 110 50 71 89 0 0 -15 123 78 0 122 124 0 17 86 0 123
 83 122 54 53 103 0 63 -17 110 0 123 122 83 23 65 107 0 0 +17 83 0 123 110 86 57
 63 84 0 0 +17 65 0 69 45 27 57 110 107 0 83 -15 69 128 0 65 125 0 17 45 0 69 70
 65 32 59 28 0 39 -17 70 0 69 27 45 12 39 92 0 0 +14 255 125 129 126 ?81 17 69 6
 127 +0 0 81 17 25 81 1 126 189 128 125 129 0 130 131 132 14 81 131 131 ?19 125
 62 6 20 +0 0 19 125 25 14 17 127 130 ?125 0 121 6 133 -0 0 125 0 25 50 127 135
 0 125 133 20 0 +.0381000000000013 -3.833766411677255 4.27942299870738 -1 -15482
14683192325e-31 -106323177038509e-30 1548214683192325e-31 -1 0 13 25 3 0 0 0 0 0
 0 10 17 50 133 134 0 17 134 127 0 +1.6891 -3.331253867754065 4.62452197465463 0
 -.824331600923871 -.566107244007959 0 .56610724400796 -.824331600923872 50 20 1
36 0 81 127 7 0 +1.2573 -4.336278955600445 3.93432402276013 0 -.824331600923871
 -.566107244007959 0 .56610724400796 -.824331600923872 50 134 113 0 124 135 133
 0 +-.3175 -2.17465501836173 5.40051762535558 0 -.56610724400796 .82433160092387
1 1 0 0 14 124 70 136 ?0 91 123 6 134 -0 0 0 91 25 50 135 48 0 91 0 134 0 +-.317
5 -2.183192623235425 5.41294957631201 0 -.56610724400796 .824331600923871 1 0 0
 14 91 4 137 ?124 19 38 6 135 +0 0 124 19 25 81 1 137 192 128 91 138 0 139 136 1
40 14 19 133 139 ?91 81 85 6 7 -0 0 91 81 25 81 1 139 191 128 19 141 0 131 137 1
42 80 1 128 0 143 8001 0 0 0 0 3 5 0 0 0 FFFFTFTFFFFFFFFFF2 81 1 141 182 34 19 0
 139 144 129 145 81 1 131 190 128 81 146 0 126 139 147 83 255 3 142 .49803921568
6275 .498039215686275 .498039215686275 81 1 146 178 34 81 0 131 98 148 149 83 3
 147 .498039215686275 .498039215686275 .498039215686275 81 1 98 177 34 92 0 0 10
9 146 150 81 1 148 179 34 124 0 136 146 138 151 82 3 149 119 6 2 81 1 136 193 12
8 124 148 0 137 0 152 81 1 138 180 34 91 0 137 148 144 153 82 3 151 119 7 2 81 1
 144 181 34 17 0 130 138 141 154 82 3 153 119 8 2 81 1 130 188 128 17 144 0 0 12
6 155 82 3 154 119 9 2 83 3 155 .498039215686275 .498039215686275 .4980392156862
75 83 3 152 .498039215686275 .498039215686275 .498039215686275 81 1 109 176 34 1
07 0 0 88 98 156 82 3 150 119 39 1 81 1 88 175 34 76 0 0 105 109 157 82 3 156 11
9 38 1 81 1 105 174 34 103 0 0 102 88 158 82 3 157 119 37 1 81 1 102 173 34 42 0
 0 96 105 159 82 3 158 119 36 1 81 1 96 172 34 89 0 0 93 102 160 82 3 159 119 35
 1 82 3 160 119 34 1 81 1 129 183 34 125 0 126 141 161 162 82 3 145 119 10 2 81
 1 161 184 34 1 0 163 129 0 164 82 3 162 119 11 2 81 1 163 185 165 1 161 14 0 0
 166 82 3 164 119 1 3 80 1 165 167 168 8038 0 0 0 0 0 0 0 0 0 TTTTTTTTTTTTTFTFT1
0 81 1 14 186 167 1 163 2 0 0 169 98 255 8 166 80 97 114 116 32 49 54 54 80 1 16
7 170 171 8017 0 0 0 0 0 0 0 0 0 TTTTTTTTTTTTTFTFT3 84 255 8 169 Part 16679 255
 13 171 SDL/TYSA_NAME79 14 168 SDL/TYSA_UNAME79 15 143 SDL/TYSA_COLOUR83 3 140 .
498039215686275 .498039215686275 .498039215686275 83 3 132 .498039215686275 .498
039215686275 .498039215686275 17 53 0 85 77 56 50 86 103 0 87 +17 43 0 121 41 71
 12 27 11 0 70 -82 3 117 119 4 1 79 9 116 BTI/DetId82 3 97 119 33 1 81 1 55 158
 34 54 0 0 0 60 172 82 3 79 119 9 0 82 3 172 119 8 0 81 1 52 162 34 50 0 0 44 67
 173 82 3 73 119 13 0 81 1 44 161 34 32 0 0 58 52 174 82 3 173 119 12 0 82 3 174
 119 11 0 82 3 68 119 14 0 82 3 61 119 10 0 82 3 37 119 15 0 19 18 143 0 1 0 10
 6 0 S0 74 4 CI16 index_map_offset0 0 1 dCCZ20 16 5 0 0 161 163 14 2 136 0 0 0 0
 0 0 0 0 0 0 0 0 0 0 0 80 1 13 128 175 8040 0 0 0 0 3 5 0 0 0 TTTFFFFFFFFFFFFFF2
 83 3 15 .498039215686275 .498039215686275 .498039215686275 79 17 175 SDL/TYSA_C
OLOUR_21 0 
