**ABCDEFGHIJKLMNOPQRSTUVWXYZabcdefghijklmnopqrstuvwxyz**************************
**PARASOLID !"#$%&'()*+,-./:;<=>?@[\]^_`{|}~0123456789**************************
**PART1;
MC=unknown;
MC_MODEL=unknown;
MC_ID=unknown;
OS=unknown;
OS_RELEASE=unknown;
FRU=Parasolid 36.0.180;
APPL=Onshape;
SITE=unknown;
USER=unknown;
FORMAT=text;
GUISE=transmit;
KEY=BTGapi::writeModels_.xmt;
FILE=BTGapi::writeModels_.xmt;
DATE=2024-05-15T00:06:35 (UTC);
**PART2;
SCH=SCH_3600180_36001;
USFLD_SIZE=0;
**PART3;
**END_OF_HEADER*****************************************************************
T51 : TRANSMIT FILE created by modeller version 360018023 SCH_3600180_36001_1300
6231 0 12 36 CCCI7 lattice222 0 CCCI4 mesh1006 0 I8 polyline1008 0 CCCCCCCDI5 ow
ner1040 0 CCCI16 boundary_lattice222 0 CCCI13 boundary_mesh1006 0 I17 boundary_p
olyline1008 0 CCCA16 index_map_offset0 0 1 dA9 index_map82 0 A17 node_id_index_m
ap82 0 A20 schema_embedding_map82 0 A5 child12 0 A14 lowest_node_id0 0 1 dA16 me
sh_offset_data206 0 Z1 503 2 3 0 0 0 0 0 0 0 1e3 1e-8 0 4 5 1 0 1 2 6 0 7 8 9 0
 0 10 11 12 0 0 0 0 0 0 0 81 255 1 2 497 13 1 14 0 0 0 15 70 11 CI9 list_type0 0
 1 uI10 notransmit0 0 1 lCCCDCCDI12 finger_index0 0 1 dI12 finger_block1012 0 CZ
3 0 4 T1 0 0 5 20 1 16 16 13 255 6 397 0 1 0 17 0 0 18 0 50 255 7 392 0 19 20 0
 0 +1.3843 -2.00608042208161 5.18504766194396 0 .566107244007959 -.8243316009238
71 0 .824331600923871 .566107244007959 30 255 8 396 0 21 22 0 0 +1.3843 -4.17316
5767750375 3.69680832817143 1 0 0 29 255 9 373 0 23 24 0 1.4732 -4.0114006227751
 3.46125557320743 19 9 CCCCCCI5 frame230 0 CA5 owner12 0 Z10 203 0 1 18 0 25 0 V
0 16 255 11 377 26 ?27 0 21 28 0 0 1 18 255 12 197 29 30 0 31 32 ?1 81 1 29 469
 33 12 0 0 34 35 36 17 255 30 0 37 38 39 12 27 11 0 40 -18 31 182 41 42 12 43 44
 ?1 29 32 199 0 12 44 45 1.3843 -4.0114006227751 3.46125557320743 29 44 184 0 31
 46 32 1.3843 -2794325426156415e-32 6.21607286836624 29 45 376 0 47 32 48 1.4732
 -4.173165767750375 3.69680832817143 18 47 364 35 49 50 0 45 ?1 29 48 375 0 50 4
5 24 1.4732 360822483003176e-30 6.56271734939759 18 50 360 51 52 53 47 48 ?1 29
 24 374 0 53 48 9 1.4732 -2794325426156415e-32 6.21607286836624 18 53 356 54 55
 23 50 24 ?1 81 1 54 474 33 53 0 0 56 41 57 17 55 0 37 39 38 53 58 59 0 60 +18 2
3 352 34 27 61 53 9 ?1 81 1 34 468 33 23 0 0 0 29 62 17 27 0 63 49 40 23 30 11 0
 64 +18 61 167 65 66 43 23 67 ?1 81 1 65 471 33 61 0 0 35 51 68 17 66 0 69 70 71
 61 40 72 0 73 +18 43 177 56 70 31 61 46 ?1 29 67 169 0 61 0 46 1.3843 -4.173165
767750375 3.69680832817143 29 46 179 0 43 67 44 1.3843 360822483003176e-30 6.562
71734939759 81 1 56 473 33 43 0 0 51 54 74 17 70 0 69 42 66 43 75 76 0 77 +15 25
5 69 6 0 71 78 0 17 42 0 69 71 70 31 79 80 0 58 +17 75 0 81 82 77 61 70 76 0 0 -
16 76 32 83 ?70 84 85 86 0 0 1 17 77 0 81 75 52 43 87 88 0 79 -15 81 387 0 52 19
 0 17 52 0 81 77 82 50 89 90 0 87 +17 87 0 91 60 79 50 77 88 0 92 +16 88 379 93
 ?87 21 59 22 0 0 1 17 79 0 91 87 58 43 42 80 0 0 -15 91 381 0 60 94 0 17 58 0 9
1 79 60 31 55 59 0 38 -16 80 82 95 ?42 59 72 96 0 0 1 81 1 95 487 33 80 0 0 97 9
8 99 16 59 378 100 ?55 88 80 101 0 0 1 16 72 67 102 ?66 80 84 103 0 0 1 30 96 84
 0 80 103 104 0 +1.3843 -671740155470698e-32 6.38939510888191 0 -122464679914735
4e-31 -1 30 103 69 0 72 105 96 0 +1.3843 -4.1597026671132 3.677204164085715 0 -.
566107244007961 .82433160092387 30 104 372 0 90 96 106 0 +1.4732 -2.006080422081
61 5.18504766194396 0 .824331600923871 .566107244007959 16 90 338 107 ?52 108 0
 104 0 0 1 30 106 371 0 108 104 109 0 +1.4732 -1.236742427512362 5.3667437313999
1 0 .824331600923871 .56610724400796 16 108 324 110 ?111 112 90 106 0 0 1 30 109
 370 0 112 106 113 0 +1.4732 -4.1597026671132 3.677204164085715 0 -.566107244007
961 .82433160092387 16 112 318 114 ?49 85 108 109 0 0 1 30 113 369 0 85 109 28 0
 +1.4732 -671740155470698e-32 6.38939510888191 0 -1224646799147354e-31 -1 16 85
 314 97 ?60 76 112 113 0 0 1 30 28 393 0 11 113 101 0 +1.3843 -4.0114006227751 3
.46125557320743 1 0 0 30 101 394 0 59 28 22 0 +1.3843 -2794325426156415e-32 6.21
607286836624 1 0 0 30 22 395 0 88 101 8 0 +1.3843 360822483003176e-30 6.56271734
939759 1 0 0 81 1 97 486 33 85 0 0 102 95 115 17 60 0 91 58 87 53 92 85 0 111 +1
7 92 0 116 89 111 50 60 85 0 0 -17 111 0 116 92 64 53 39 108 0 0 +15 116 313 0 1
11 117 0 17 64 0 116 111 89 23 49 112 0 39 -17 39 0 37 30 55 23 111 108 0 0 -15
 37 385 0 39 17 0 14 255 17 386 118 ?119 0 37 6 20 +0 0 119 0 25 81 1 118 498 12
0 17 121 0 0 122 123 14 119 384 122 ?19 17 63 6 124 -0 0 19 17 25 50 20 391 0 17
 124 7 0 +1.3843 -1.236742427512362 5.36674373139991 0 .56610724400796 -.8243316
00923871 0 .824331600923871 .56610724400796 13 25 204 0 0 0 0 0 0 10 17 50 124 3
90 0 119 125 20 0 +1.3843 -4.1597026671132 3.677204164085715 0 .82433160092387 .
566107244007961 0 -.566107244007961 .82433160092387 50 125 389 0 94 126 124 0 +1
.3843 -671740155470698e-32 6.38939510888191 0 -1 1224646799147354e-31 0 -1224646
799147354e-31 -1 14 94 382 127 ?78 19 91 6 125 -0 0 78 19 25 50 126 368 0 117 12
8 125 0 +1.4732 -2.12066116461942 3.403998341847945 -1 0 0 0 -1 0 14 117 290 129
 ?0 78 116 6 126 -0 0 0 78 25 50 128 3 0 78 0 126 0 +1.3843 -2.12066116461942 3.
403998341847945 -1 0 0 0 -1 0 14 78 1 130 ?117 94 69 6 128 +0 0 117 94 25 81 1 1
30 502 120 78 131 0 127 129 132 80 7 CCCCCDI12 legal_owners0 17 1 lCZ1 120 0 133
 8001 0 0 0 0 3 5 0 0 0 FFFFTFTFFFFFFFFFF2 81 1 131 490 33 78 0 130 134 121 135
 81 1 127 501 120 94 136 0 137 130 138 81 1 129 503 120 117 134 0 130 0 139 83 2
55 3 132 .980392156862745 .713725490196078 .00392156862745098 81 1 134 489 33 11
7 0 129 98 131 140 83 3 139 .980392156862745 .713725490196078 .00392156862745098
 80 1 33 141 142 9000 0 0 0 0 3 6 0 0 0 FFTFTFTTFFFFFFFFF1 81 1 98 488 33 19 0 1
37 95 134 143 82 255 3 140 73 25 2 14 19 388 137 ?94 119 81 6 7 -0 0 94 119 25 8
1 1 137 500 120 19 98 0 122 127 144 82 3 143 73 24 2 81 1 122 499 120 119 145 0
 118 137 146 83 3 144 .980392156862745 .713725490196078 .00392156862745098 81 1
 145 492 33 119 0 122 121 136 147 83 3 146 .980392156862745 .713725490196078 .00
392156862745098 81 1 121 491 33 17 0 118 131 145 148 81 1 136 493 33 94 0 127 14
5 149 150 82 3 147 73 28 2 81 1 149 494 33 1 0 151 136 0 152 82 3 150 73 29 2 81
 1 151 495 153 1 149 14 0 0 154 82 3 152 73 4 3 80 1 153 155 156 8038 0 0 0 0 0
 0 0 0 0 TTTTTTTTTTTTTFTFT10 81 1 14 496 155 1 151 2 0 0 157 98 255 7 154 80 97
 114 116 32 51 54 80 1 155 158 159 8017 0 0 0 0 0 0 0 0 0 TTTTTTTTTTTTTFTFT3 84
 255 7 157 Part 3679 255 13 159 SDL/TYSA_NAME79 14 156 SDL/TYSA_UNAME82 3 148 73
 27 2 79 9 142 BTI/DetId83 3 138 .980392156862745 .713725490196078 .003921568627
45098 82 3 135 73 26 2 79 15 133 SDL/TYSA_COLOUR15 63 383 0 49 119 0 17 49 0 63
 73 27 47 64 112 0 82 +17 73 0 63 40 49 61 82 21 0 75 -17 82 0 81 52 75 47 73 21
 0 89 +16 21 380 160 ?82 11 88 8 0 0 1 17 89 0 116 64 92 47 52 90 0 0 -81 1 160
 477 33 21 0 0 26 93 161 81 1 26 476 33 11 0 0 41 160 162 81 1 93 478 33 88 0 0
 160 100 163 82 3 161 73 49 1 81 1 100 479 33 59 0 0 93 107 164 82 3 163 73 50 1
 81 1 107 480 33 90 0 0 100 83 165 82 3 164 73 51 1 81 1 83 481 33 76 0 0 107 11
0 166 82 3 165 73 52 1 81 1 110 482 33 108 0 0 83 167 168 82 3 166 73 53 1 81 1
 167 483 33 84 0 0 110 114 169 82 3 168 73 54 1 16 84 47 167 ?38 72 76 105 0 0 1
 81 1 114 484 33 112 0 0 167 102 170 82 3 169 73 55 1 81 1 102 485 33 72 0 0 114
 97 171 82 3 170 73 56 1 82 3 171 73 57 1 17 38 0 37 55 30 31 71 84 0 0 +30 105
 49 0 84 86 103 0 +1.3843 -1.236742427512362 5.36674373139991 0 .824331600923871
 .56610724400796 30 86 34 0 76 0 105 0 +1.3843 -2.00608042208161 5.1850476619439
6 0 .824331600923871 .566107244007959 17 71 0 69 66 42 12 38 84 0 0 -81 1 41 475
 33 31 0 0 54 26 172 82 3 162 73 48 1 82 3 172 73 39 0 17 40 0 63 27 73 12 66 72
 0 71 -83 3 123 .980392156862745 .713725490196078 .00392156862745098 82 3 115 73
 58 1 82 3 99 73 59 1 81 1 51 472 33 50 0 0 65 56 173 82 3 74 73 37 0 82 3 173 7
3 36 0 81 1 35 470 33 47 0 0 29 65 174 82 3 68 73 35 0 82 3 174 73 34 0 82 3 62
 73 32 0 82 3 57 73 38 0 82 3 36 73 33 0 19 18 398 0 1 0 10 6 0 S0 74 4 CI16 ind
ex_map_offset0 0 1 dCCZ20 16 5 0 0 149 151 14 2 129 0 0 0 0 0 0 0 0 0 0 0 0 0 0
 0 80 1 13 120 175 8040 0 0 0 0 3 5 0 0 0 TTTFFFFFFFFFFFFFF2 83 3 15 .9803921568
62745 .713725490196078 .00392156862745098 79 17 175 SDL/TYSA_COLOUR_21 0 
