**ABCDEFGHIJKLMNOPQRSTUVWXYZabcdefghijklmnopqrstuvwxyz**************************
**PARASOLID !"#$%&'()*+,-./:;<=>?@[\]^_`{|}~0123456789**************************
**PART1;
MC=unknown;
MC_MODEL=unknown;
MC_ID=unknown;
OS=unknown;
OS_RELEASE=unknown;
FRU=Parasolid 36.0.180;
APPL=Onshape;
SITE=unknown;
USER=unknown;
FORMAT=text;
GUISE=transmit;
KEY=BTGapi::writeModels_.xmt;
FILE=BTGapi::writeModels_.xmt;
DATE=2024-05-15T00:06:35 (UTC);
**PART2;
SCH=SCH_3600180_36001;
USFLD_SIZE=0;
**PART3;
**END_OF_HEADER*****************************************************************
T51 : TRANSMIT FILE created by modeller version 360018023 SCH_3600180_36001_1300
6231 0 12 36 CCCI7 lattice222 0 CCCI4 mesh1006 0 I8 polyline1008 0 CCCCCCCDI5 ow
ner1040 0 CCCI16 boundary_lattice222 0 CCCI13 boundary_mesh1006 0 I17 boundary_p
olyline1008 0 CCCA16 index_map_offset0 0 1 dA9 index_map82 0 A17 node_id_index_m
ap82 0 A20 schema_embedding_map82 0 A5 child12 0 A14 lowest_node_id0 0 1 dA16 me
sh_offset_data206 0 Z1 1497 2 3 0 0 0 0 0 0 0 1e3 1e-8 0 4 5 1 0 1 2 6 0 7 8 9 0
 0 10 11 12 0 0 0 0 0 0 0 81 255 1 2 1491 13 1 14 0 0 0 15 70 11 CI9 list_type0
 0 1 uI10 notransmit0 0 1 lCCCDCCDI12 finger_index0 0 1 dI12 finger_block1012 0
 CZ3 0 4 T1 0 0 5 20 1 16 16 13 255 6 287 0 1 0 17 0 0 18 0 50 255 7 282 0 19 20
 0 0 +-2.1209 -2.8194 3.99415 0 0 -1 -1 0 0 30 255 8 261 0 21 22 0 0 +-2.1209 -2
.7305 4.2799 -1 0 0 29 255 9 1248 0 12 23 0 -2.1336 -2.8194 4.2799 19 9 CCCCCCI5
 frame230 0 CA5 owner12 0 Z10 135 0 1 18 0 24 0 V0 16 255 11 29 25 ?26 0 27 28 0
 0 1 18 255 12 1192 29 26 0 30 9 ?1 81 1 29 1193 31 12 0 0 32 33 34 17 255 26 0
 35 36 37 12 38 11 0 39 +18 30 1188 32 40 12 41 23 ?1 81 1 32 1189 31 30 0 0 42
 29 43 17 40 0 44 45 46 30 47 27 0 48 +18 41 1196 33 49 30 50 51 ?1 29 23 1249 0
 30 51 9 -2.1336 -2.8194 3.99415 29 51 1250 0 41 52 23 -2.1336 -2.7305 3.99415 2
9 52 1251 0 50 53 51 -2.1336 -2.7305 4.2799 18 50 1186 42 54 41 55 52 ?1 29 53 1
447 0 55 56 52 2.1336 -2.8194 3.99415 18 55 1391 57 47 50 58 53 ?1 29 56 1448 0
 58 59 53 2.1336 -2.8194 4.2799 18 58 1387 60 38 55 61 56 ?1 29 59 1449 0 61 62
 56 2.1336 -2.7305 4.2799 18 61 1395 63 64 58 65 59 ?1 29 62 1450 0 65 0 59 2.13
36 -2.7305 3.99415 18 65 1385 66 67 61 0 62 ?1 81 1 66 1386 31 65 0 0 68 60 69 1
7 67 0 44 46 45 65 49 70 0 71 -15 255 44 759 0 67 19 0 17 46 0 44 40 67 55 72 73
 0 74 -17 45 0 44 67 40 41 48 75 0 0 +17 49 0 76 77 71 41 67 70 0 78 +16 70 232
 79 ?49 21 80 22 0 0 1 17 71 0 76 49 64 65 81 82 0 72 -15 76 733 0 64 83 0 17 64
 0 76 71 77 61 54 21 0 81 -17 81 0 84 85 72 61 71 82 0 86 +16 82 1370 68 ?81 87
 73 88 0 0 1 17 72 0 84 81 74 65 46 73 0 0 +15 84 1418 0 72 89 0 17 74 0 84 72 8
5 55 37 90 0 0 -16 73 1367 91 ?72 82 0 92 0 0 1 81 1 91 1369 31 73 0 0 93 68 94
 30 92 1442 0 73 0 88 0 +2.1336 -2.9083 3.99415 0 1 0 30 88 1441 0 82 92 95 0 +2
.1336 -2.7305 2.40919 -1554117969729e-27 0 1 30 95 1440 0 87 88 96 0 +2.1336 -2.
9083 4.2799 0 1 0 16 87 1355 97 ?86 90 82 95 0 0 1 30 96 1439 0 90 95 98 0 +2.13
36 -2.8194 2.40919 -1554117969729e-27 0 1 16 90 1361 93 ?37 99 87 96 0 0 1 30 98
 1243 0 99 96 100 0 +-2.1336 -2.9083 4.2799 0 1 0 16 99 1168 101 ?102 103 90 98
 0 0 1 30 100 1242 0 103 98 104 0 +-2.1336 -2.7305 2.40919 1554117969729e-27 0 -
1 16 103 1171 105 ?78 75 99 100 0 0 1 30 104 1241 0 75 100 106 0 +-2.1336 -2.908
3 3.99415 0 1 0 16 75 1156 107 ?45 80 103 104 0 0 1 30 106 1240 0 80 104 108 0 +
-2.1336 -2.8194 2.40919 1554117969729e-27 0 -1 16 80 1162 109 ?36 70 75 106 0 0
 1 30 108 21 0 27 106 28 0 +-2.1209 -2.8194 3.99415 -1 0 0 16 27 19 110 ?40 11 2
1 108 0 0 1 30 28 31 0 11 108 22 0 +-2.1209 -2.8194 4.2799 -1 0 0 30 22 262 0 70
 28 8 0 +-2.1209 -2.7305 3.99415 -1 0 0 81 1 110 1482 31 27 0 0 79 111 112 16 21
 222 111 ?54 27 70 8 0 0 1 81 1 111 1483 31 21 0 0 110 25 113 17 54 0 114 39 86
 50 64 21 0 77 +15 114 398 0 38 115 0 17 39 0 114 38 54 12 102 99 0 116 -17 86 0
 114 54 38 61 85 87 0 0 +17 77 0 76 64 49 50 78 103 0 102 -17 78 0 117 48 102 41
 77 103 0 45 +17 102 0 117 78 116 50 39 99 0 0 +15 117 1219 0 102 118 0 17 116 0
 117 102 48 12 36 80 0 0 -17 48 0 117 116 78 30 45 75 0 36 -17 36 0 35 47 26 30
 116 80 0 0 +15 35 6 0 47 17 0 17 47 0 35 37 36 55 40 27 0 46 -17 37 0 35 26 47
 58 74 90 0 0 +14 255 17 1 119 ?83 0 35 6 120 +0 0 83 0 24 81 1 119 1492 121 17
 122 0 0 123 124 14 83 197 123 ?19 17 76 6 125 -0 0 19 17 24 50 120 3 0 17 126 1
25 0 +4440892098500625e-31 -2.8194 2.40919 0 -1 0 1 0 0 13 24 136 0 0 0 0 0 0 10
 17 50 126 1231 0 118 127 120 0 +-2.1336 0 4.137025 -1 0 -1554117969729e-27 0 -1
 0 50 125 258 0 83 120 20 0 +4440892098500625e-31 -2.7305 2.40919 0 -1 0 1 0 0 5
0 20 281 0 115 125 7 0 +-2.1209 -2.8194 4.2799 0 0 -1 -1 0 0 14 115 276 128 ?118
 19 114 6 20 -0 0 118 19 24 81 1 128 1495 121 115 129 0 130 131 132 14 118 1216
 131 ?89 115 117 6 126 +0 0 89 115 24 14 19 278 130 ?115 83 44 6 7 +0 0 115 83 2
4 81 1 130 1494 121 19 133 0 123 128 134 80 7 CCCCCDI12 legal_owners0 17 1 lCZ1
 121 0 135 8001 0 0 0 0 3 5 0 0 0 FFFFTFTFFFFFFFFFF2 81 1 133 1487 31 19 0 130 1
22 129 136 81 1 123 1493 121 83 137 0 119 130 138 83 255 3 134 .231372549019608
 .380392156862745 .705882352941177 81 1 137 1485 31 83 0 123 25 122 139 83 3 138
 .231372549019608 .380392156862745 .705882352941177 80 1 31 140 141 9000 0 0 0 0
 3 6 0 0 0 FFTFTFTTFFFFFFFFF1 81 1 25 1484 31 11 0 0 111 137 142 81 1 122 1486 3
1 17 0 119 137 133 143 82 255 3 139 177 16 2 82 3 143 177 17 2 82 3 142 177 19 1
 79 255 9 141 BTI/DetId81 1 129 1488 31 115 0 128 133 0 144 82 3 136 177 18 2 82
 3 144 177 19 2 79 15 135 SDL/TYSA_COLOUR81 1 131 1496 121 118 145 0 128 146 147
 14 89 1415 146 ?0 118 84 6 127 +0 0 0 118 24 81 1 146 1497 121 89 148 0 131 0 1
49 50 127 1430 0 89 0 126 0 +2.1336 0 4.137025 1 0 1554117969729e-27 0 1 0 81 1
 148 1417 31 89 0 146 63 150 151 83 3 149 .231372549019608 .380392156862745 .705
882352941177 81 1 63 1396 31 61 0 0 57 148 152 81 1 150 1480 31 1 0 153 148 79 1
54 82 3 151 176 41 2 81 1 153 1489 155 1 150 14 0 0 156 81 1 79 1481 31 70 0 0 1
50 110 157 82 3 154 19 0 3 82 3 157 177 16 1 80 1 155 158 159 8038 0 0 0 0 0 0 0
 0 0 TTTTTTTTTTTTTFTFT10 81 1 14 1490 158 1 153 2 0 0 160 98 255 26 156 80 97 11
4 116 32 49 52 32 51 46 53 120 49 49 46 50 53 120 49 52 102 116 32 116 111 112 8
0 1 158 161 162 8017 0 0 0 0 0 0 0 0 0 TTTTTTTTTTTTTFTFT3 84 255 26 160 Part 14
 3.5x11.25x14ft top79 13 162 SDL/TYSA_NAME79 14 159 SDL/TYSA_UNAME81 1 57 1392 3
1 55 0 0 60 63 163 82 3 152 176 35 0 81 1 60 1388 31 58 0 0 66 57 164 82 3 163 1
76 37 0 82 3 164 176 39 0 81 1 145 1218 31 118 0 131 33 97 165 83 3 147 .2313725
49019608 .380392156862745 .705882352941177 81 1 33 1197 31 41 0 0 29 145 166 81
 1 97 1357 31 87 0 0 145 93 167 82 3 165 174 41 2 81 1 93 1363 31 90 0 0 97 91 1
68 82 3 167 176 71 1 82 3 168 176 67 1 82 3 166 174 33 0 83 3 132 .2313725490196
08 .380392156862745 .705882352941177 83 3 124 .231372549019608 .380392156862745
 .705882352941177 17 38 0 114 86 39 58 26 11 0 85 -17 85 0 84 74 81 58 86 87 0 3
7 -82 3 113 177 18 1 82 3 112 177 17 1 81 1 109 1164 31 80 0 0 107 101 169 81 1
 107 1158 31 75 0 0 0 109 170 81 1 101 1170 31 99 0 0 109 105 171 82 3 169 174 6
7 1 81 1 105 1173 31 103 0 0 101 42 172 82 3 171 174 71 1 81 1 42 1187 31 50 0 0
 105 32 173 82 3 172 174 65 1 82 3 173 174 35 0 82 3 170 174 69 1 81 1 68 1372 3
1 82 0 0 91 66 174 82 3 94 176 69 1 82 3 174 176 65 1 82 3 69 176 33 0 82 3 43 1
74 37 0 82 3 34 174 39 0 19 18 288 0 1 0 10 6 0 S0 74 4 CI16 index_map_offset0 0
 1 dCCZ20 16 5 0 0 129 153 14 2 146 0 0 0 0 0 0 0 0 0 0 0 0 0 0 0 80 1 13 121 17
5 8040 0 0 0 0 3 5 0 0 0 TTTFFFFFFFFFFFFFF2 83 3 15 .231372549019608 .3803921568
62745 .705882352941177 79 17 175 SDL/TYSA_COLOUR_21 0 
