**ABCDEFGHIJKLMNOPQRSTUVWXYZabcdefghijklmnopqrstuvwxyz**************************
**PARASOLID !"#$%&'()*+,-./:;<=>?@[\]^_`{|}~0123456789**************************
**PART1;
MC=unknown;
MC_MODEL=unknown;
MC_ID=unknown;
OS=unknown;
OS_RELEASE=unknown;
FRU=Parasolid 36.0.180;
APPL=Onshape;
SITE=unknown;
USER=unknown;
FORMAT=text;
GUISE=transmit;
KEY=BTGapi::writeModels_.xmt;
FILE=BTGapi::writeModels_.xmt;
DATE=2024-05-15T00:06:35 (UTC);
**PART2;
SCH=SCH_3600180_36001;
USFLD_SIZE=0;
**PART3;
**END_OF_HEADER*****************************************************************
T51 : TRANSMIT FILE created by modeller version 360018023 SCH_3600180_36001_1300
6231 0 12 36 CCCI7 lattice222 0 CCCI4 mesh1006 0 I8 polyline1008 0 CCCCCCCDI5 ow
ner1040 0 CCCI16 boundary_lattice222 0 CCCI13 boundary_mesh1006 0 I17 boundary_p
olyline1008 0 CCCA16 index_map_offset0 0 1 dA9 index_map82 0 A17 node_id_index_m
ap82 0 A20 schema_embedding_map82 0 A5 child12 0 A14 lowest_node_id0 0 1 dA16 me
sh_offset_data206 0 Z1 449 2 3 0 0 0 0 0 0 0 1e3 1e-8 0 4 5 1 0 1 2 6 0 7 8 9 0
 0 10 11 12 0 0 0 0 0 0 0 81 255 1 2 443 13 1 14 0 0 0 15 70 11 CI9 list_type0 0
 1 uI10 notransmit0 0 1 lCCCDCCDI12 finger_index0 0 1 dI12 finger_block1012 0 CZ
3 0 4 T1 0 0 5 20 1 16 16 13 255 6 5 0 1 0 17 0 0 18 0 50 255 7 93 0 19 20 0 0 +
1.3843 -2.77495 -1999999999835465e-21 1 0 0 0 0 -1 30 255 8 100 0 21 22 0 0 +1.3
843 -2.77495 1.2192 0 1 0 29 255 9 184 0 12 23 0 1.4732 -2.8082875 3.6576 19 9 C
CCCCCI5 frame230 0 CA5 owner12 0 Z10 1 0 1 18 0 24 0 V0 16 255 11 31 25 ?26 0 27
 28 0 0 1 18 255 12 180 29 30 0 31 9 ?1 81 1 29 424 32 12 0 0 33 34 35 17 255 30
 0 36 37 38 12 39 40 0 41 +18 31 55 42 26 12 43 23 ?1 81 1 42 115 32 31 0 0 44 4
5 46 17 26 0 47 48 49 31 50 11 0 51 +18 43 67 52 53 31 54 55 ?1 29 23 89 0 31 55
 9 1.3843 -2.7305 3.6576 29 55 86 0 43 56 23 1.4732 -2.7305 3.6576 29 56 85 0 54
 57 55 1.4732 -2.7305 1.2192 18 54 71 44 58 43 59 56 ?1 29 57 82 0 59 60 56 1.38
43 -2.7305 1.2192 18 59 74 45 61 54 62 57 ?1 29 60 364 0 62 63 57 1.3843 -2.8082
875 1.2192 18 62 300 64 65 59 66 60 ?1 29 63 365 0 66 67 60 1.3843 -2.8082875 3.
6576 18 66 312 68 37 62 69 63 ?1 29 67 367 0 69 0 63 1.4732 -2.8082875 1.2192 18
 69 304 34 38 66 0 67 ?1 81 1 34 425 32 69 0 0 29 68 70 17 38 0 36 30 65 69 71 7
2 0 39 -15 255 36 335 0 38 73 0 17 65 0 36 38 37 62 49 74 0 71 -17 71 0 75 61 76
 62 38 72 0 77 +16 72 280 78 ?71 40 0 79 0 0 1 17 39 0 80 81 82 69 30 40 0 76 -1
5 80 206 0 39 83 0 17 81 0 80 53 39 54 76 84 0 85 -17 82 0 80 39 53 12 86 27 0 0
 +16 40 250 87 ?30 88 72 89 0 0 1 17 76 0 75 71 58 69 81 84 0 0 +15 75 10 0 76 1
7 0 17 58 0 75 76 61 54 90 91 0 81 -16 84 52 92 ?76 91 21 22 0 0 1 81 1 92 433 3
2 84 0 0 93 25 94 16 91 51 95 ?90 96 84 97 0 0 1 16 21 54 98 ?61 84 74 8 0 0 1 3
0 22 98 0 84 99 8 0 +1.4732 -2.77495 1.2192 0 -1 0 30 99 97 0 100 101 22 0 +1.38
43 -2.7305 -1999999999835465e-21 0 0 1 16 100 47 102 ?51 103 96 99 0 0 1 30 101
 94 0 96 28 99 0 +1.4732 -2.7305 -1999999999835465e-21 0 0 1 16 96 50 104 ?53 10
0 91 101 0 0 1 30 28 81 0 11 105 101 0 +1.3843 -2.77495 3.6576 0 1 0 30 105 79 0
 27 106 28 0 +1.4732 -2.77495 3.6576 0 -1 0 16 27 39 93 ?82 11 103 105 0 0 1 30
 106 78 0 103 97 105 0 +1.42875 -2.7305 3.6576 -1 0 0 16 103 43 107 ?108 27 100
 106 0 0 1 30 97 77 0 91 109 106 0 +1.42875 -2.7305 1.2192 -1 0 0 30 109 356 0 7
4 110 97 0 +1.3843 -2.8082875 -1999999999835465e-21 0 0 1 16 74 285 111 ?49 21 8
8 109 0 0 1 30 110 357 0 88 89 109 0 +1.42875 -2.8082875 3.6576 -1 0 0 16 88 260
 112 ?37 74 40 110 0 0 1 30 89 358 0 40 79 110 0 +1.4732 -2.8082875 -19999999998
35465e-21 0 0 1 30 79 359 0 72 0 89 0 +1.42875 -2.8082875 1.2192 -1 0 0 81 1 112
 429 32 88 0 0 87 78 113 17 37 0 36 65 30 66 41 88 0 49 +17 41 0 114 86 50 12 37
 88 0 82 -17 49 0 47 26 77 66 65 74 0 50 +15 47 22 0 77 19 0 17 77 0 47 49 48 62
 61 21 0 0 -17 50 0 114 41 108 66 26 11 0 0 -15 114 186 0 41 115 0 17 108 0 114
 50 86 31 116 103 0 0 +17 86 0 114 108 41 43 82 27 0 116 -17 116 0 117 85 51 43
 108 103 0 0 -15 117 13 0 85 118 0 17 85 0 117 90 116 54 53 96 0 0 -17 51 0 117
 116 90 31 48 100 0 108 +17 90 0 117 51 85 59 58 91 0 48 +17 48 0 47 77 26 59 51
 100 0 0 -17 53 0 80 82 81 43 85 96 0 86 +14 255 118 11 119 ?19 115 117 6 20 +0
 0 73 19 24 81 1 119 447 120 118 121 0 122 123 124 14 19 20 123 ?73 118 47 6 7 -
0 0 118 115 24 14 115 23 122 ?118 83 114 6 125 -0 0 19 83 24 50 20 91 0 118 126
 7 0 +1.42875 -2.7305 -1999999999835465e-21 0 1 0 0 0 1 14 73 332 127 ?0 19 36 6
 128 -0 0 0 118 24 13 24 3 0 0 0 0 0 0 10 17 14 17 6 129 ?83 0 75 6 130 +0 0 83
 0 24 81 1 129 444 120 17 131 0 0 132 133 14 83 14 132 ?115 17 80 6 126 -0 0 115
 17 24 50 130 75 0 17 128 125 0 +1.56845 -2.63525 1.2192 0 0 -1 1 0 0 50 128 347
 0 73 0 130 0 +1.42875 -2.8082875 -1999999999835465e-21 0 1 0 0 0 1 50 125 76 0
 115 130 126 0 +1.56845 0 3.6576 0 0 -1 1 0 0 50 126 90 0 83 125 20 0 +1.4732 -2
.77495 -1999999999835465e-21 -1 0 0 0 0 1 81 1 132 445 120 83 134 0 129 122 135
 80 7 CCCCCDI12 legal_owners0 17 1 lCZ1 120 0 136 8001 0 0 0 0 3 5 0 0 0 FFFFTFT
FFFFFFFFFF2 81 1 134 437 32 83 0 132 137 138 139 81 1 122 446 120 115 138 0 132
 119 140 83 255 3 135 .980392156862745 .713725490196078 .00392156862745098 81 1
 138 438 32 115 0 122 134 131 141 83 3 140 .980392156862745 .713725490196078 .00
392156862745098 80 1 32 142 143 9000 0 0 0 0 3 6 0 0 0 FFTFTFTTFFFFFFFFF1 81 1 1
31 439 32 17 0 129 138 144 145 82 255 3 141 198 2 2 81 1 144 440 32 19 0 123 131
 0 146 82 3 145 198 3 2 81 1 123 448 120 19 144 0 119 127 147 82 3 146 198 4 2 8
1 1 127 449 120 73 137 0 123 0 148 83 3 147 .980392156862745 .713725490196078 .0
0392156862745098 81 1 137 436 32 73 0 127 98 134 149 83 3 148 .980392156862745 .
713725490196078 .00392156862745098 81 1 98 435 32 21 0 0 25 137 150 82 3 149 198
 0 2 81 1 25 434 32 11 0 0 92 98 151 82 3 150 198 7 1 82 3 151 198 6 1 79 255 9
 143 BTI/DetId82 3 139 198 1 2 79 15 136 SDL/TYSA_COLOUR83 3 133 .98039215686274
5 .713725490196078 .00392156862745098 81 1 121 134 32 118 0 119 95 33 152 83 3 1
24 .980392156862745 .713725490196078 .00392156862745098 81 1 95 128 32 91 0 0 10
7 121 153 81 1 33 135 32 1 0 154 121 29 155 82 3 152 194 17 2 81 1 154 441 156 1
 33 14 0 0 157 82 3 155 194 2 3 80 1 156 158 159 8038 0 0 0 0 0 0 0 0 0 TTTTTTTT
TTTTTFTFT10 81 1 14 442 158 1 154 2 0 0 160 98 255 8 157 80 97 114 116 32 51 49
 56 80 1 158 161 162 8017 0 0 0 0 0 0 0 0 0 TTTTTTTTTTTTTFTFT3 84 255 8 160 Part
 31879 13 162 SDL/TYSA_NAME79 14 159 SDL/TYSA_UNAME81 1 107 127 32 103 0 0 102 9
5 163 82 3 153 194 35 1 81 1 102 120 32 100 0 0 104 107 164 82 3 163 194 34 1 81
 1 104 117 32 96 0 0 45 102 165 82 3 164 194 11 1 81 1 45 116 32 59 0 0 42 104 1
66 82 3 165 194 7 1 82 3 166 194 23 0 17 61 0 75 58 71 59 77 21 0 90 +81 1 87 42
8 32 40 0 0 64 112 167 81 1 78 430 32 72 0 0 112 111 168 82 3 113 198 1 1 81 1 1
11 431 32 74 0 0 78 93 169 82 3 168 198 2 1 81 1 93 432 32 27 0 0 111 92 170 82
 3 169 198 3 1 82 3 170 198 4 1 81 1 64 427 32 62 0 0 68 87 171 82 3 167 198 0 1
 81 1 68 426 32 66 0 0 34 64 172 82 3 171 198 3 0 82 3 172 198 2 0 82 3 94 198 5
 1 82 3 70 198 1 0 81 1 44 110 32 54 0 0 52 42 173 81 1 52 109 32 43 0 0 0 44 17
4 82 3 173 194 15 0 82 3 174 194 14 0 82 3 46 194 22 0 82 3 35 198 0 0 19 18 4 0
 1 0 10 6 0 S0 74 4 CI16 index_map_offset0 0 1 dCCZ20 16 5 0 0 144 154 14 2 127
 0 0 0 0 0 0 0 0 0 0 0 0 0 0 0 80 1 13 120 175 8040 0 0 0 0 3 5 0 0 0 TTTFFFFFFF
FFFFFFF2 83 3 15 .980392156862745 .713725490196078 .00392156862745098 79 17 175
 SDL/TYSA_COLOUR_21 0 
