**ABCDEFGHIJKLMNOPQRSTUVWXYZabcdefghijklmnopqrstuvwxyz**************************
**PARASOLID !"#$%&'()*+,-./:;<=>?@[\]^_`{|}~0123456789**************************
**PART1;
MC=unknown;
MC_MODEL=unknown;
MC_ID=unknown;
OS=unknown;
OS_RELEASE=unknown;
FRU=Parasolid 36.0.180;
APPL=Onshape;
SITE=unknown;
USER=unknown;
FORMAT=text;
GUISE=transmit;
KEY=BTGapi::writeModels_.xmt;
FILE=BTGapi::writeModels_.xmt;
DATE=2024-05-15T00:06:35 (UTC);
**PART2;
SCH=SCH_3600180_36001;
USFLD_SIZE=0;
**PART3;
**END_OF_HEADER*****************************************************************
T51 : TRANSMIT FILE created by modeller version 360018023 SCH_3600180_36001_1300
6231 0 12 36 CCCI7 lattice222 0 CCCI4 mesh1006 0 I8 polyline1008 0 CCCCCCCDI5 ow
ner1040 0 CCCI16 boundary_lattice222 0 CCCI13 boundary_mesh1006 0 I17 boundary_p
olyline1008 0 CCCA16 index_map_offset0 0 1 dA9 index_map82 0 A17 node_id_index_m
ap82 0 A20 schema_embedding_map82 0 A5 child12 0 A14 lowest_node_id0 0 1 dA16 me
sh_offset_data206 0 Z1 170 2 3 0 0 0 0 0 0 0 1e3 1e-8 0 4 5 1 0 1 2 6 0 7 8 9 0
 0 10 11 12 0 0 0 0 0 0 0 81 255 1 2 164 13 1 14 0 0 0 15 70 11 CI9 list_type0 0
 1 uI10 notransmit0 0 1 lCCCDCCDI12 finger_index0 0 1 dI12 finger_block1012 0 CZ
3 0 4 T1 0 0 5 20 1 16 16 13 255 6 5 0 1 0 17 0 0 18 0 50 255 7 90 0 19 20 0 0 +
1.663702 0 3.99415 0 0 -1 1 0 0 30 255 8 98 0 21 22 0 0 +1.663702 -1.304925 3.99
415 -1 0 0 29 255 9 85 0 12 23 0 1.4732 -1.304925 3.99415 19 9 CCCCCCI5 frame230
 0 CA5 owner12 0 Z10 1 0 1 18 0 24 0 V0 16 255 11 29 25 ?26 0 27 28 0 0 1 18 255
 12 53 29 26 0 30 9 ?1 81 1 29 137 31 12 0 0 32 33 34 17 255 26 0 35 36 37 12 38
 11 0 39 +18 30 57 40 38 12 41 23 ?1 81 1 40 141 31 30 0 0 42 43 44 17 38 0 45 4
6 39 30 26 11 0 37 -18 41 61 47 48 30 49 50 ?1 29 23 84 0 30 50 9 1.4732 -1.3684
25 3.99415 29 50 83 0 41 51 23 1.4732 -1.368425 3.6576 29 51 82 0 49 52 50 1.473
2 -1.304925 3.6576 18 49 65 53 54 41 55 51 ?1 29 52 81 0 55 56 51 1.6637 -1.3049
25 3.6576 18 55 69 32 57 49 58 52 ?1 29 56 80 0 58 59 52 1.6637 -1.368425 3.6576
 18 58 70 42 60 55 61 56 ?1 29 59 79 0 61 62 56 1.6637 -1.368425 3.99415 18 61 7
1 43 46 58 63 59 ?1 29 62 78 0 63 0 59 1.6637 -1.304925 3.99415 18 63 72 33 64 6
1 0 62 ?1 81 1 33 138 31 63 0 0 29 47 65 17 64 0 66 67 68 63 39 21 0 69 -15 255
 66 11 0 70 71 0 17 67 0 66 70 64 55 72 73 0 0 -17 68 0 66 64 70 12 36 74 0 0 +1
7 39 0 45 38 69 12 64 21 0 68 +16 21 45 75 ?39 74 76 8 0 0 1 17 69 0 45 39 46 63
 77 78 0 72 +15 45 20 0 69 19 0 17 46 0 45 69 38 61 79 76 0 80 -17 77 0 81 82 72
 61 69 78 0 0 -16 78 52 83 ?69 84 0 85 0 0 1 17 72 0 81 77 86 63 67 73 0 0 +15 8
1 8 0 72 17 0 17 86 0 81 72 82 55 87 88 0 67 +16 73 50 89 ?72 88 84 90 0 0 1 81
 1 89 152 31 73 0 0 91 92 93 16 88 49 94 ?86 95 73 96 0 0 1 16 84 51 97 ?80 73 7
8 98 0 0 1 30 90 92 0 73 96 98 0 +1.6637 -1.304925 3.825875 0 0 1 30 96 91 0 88
 99 90 0 +1.6637 0 3.6576 0 1 0 30 98 93 0 84 90 85 0 +1.6637 -1.368425 3.825875
 0 0 1 30 85 94 0 78 98 100 0 +1.6637 0 3.99415 0 1 0 30 100 95 0 95 85 101 0 +1
.663702 -1.304925 3.6576 -1 0 0 16 95 48 102 ?70 103 88 100 0 0 1 30 101 96 0 10
3 100 22 0 +1.663702 -1.368425 3.6576 -1 0 0 16 103 47 104 ?105 76 95 101 0 0 1
 30 22 97 0 76 101 8 0 +1.663702 -1.368425 3.99415 -1 0 0 16 76 46 106 ?79 21 10
3 22 0 0 1 81 1 106 146 31 76 0 0 104 107 108 17 79 0 109 48 80 30 46 76 0 0 +15
 109 17 0 80 110 0 17 48 0 109 60 79 41 37 27 0 111 -17 80 0 109 79 60 61 82 84
 0 77 +17 60 0 109 80 48 58 105 103 0 87 -17 82 0 81 86 77 58 80 84 0 0 -17 105
 0 112 54 87 41 60 103 0 0 +17 87 0 112 105 57 58 86 88 0 82 -15 112 14 0 105 11
3 0 17 57 0 112 87 54 55 70 95 0 86 -17 54 0 112 57 105 49 111 114 0 36 +17 70 0
 66 68 67 49 57 95 0 0 +17 111 0 35 37 36 41 54 114 0 105 -16 114 37 107 ?54 27
 74 115 0 0 1 17 36 0 35 111 26 49 68 74 0 70 -15 35 28 0 36 116 0 16 74 41 91 ?
68 114 21 117 0 0 1 81 1 91 151 31 74 0 0 83 89 118 30 117 76 0 74 115 99 0 +1.4
732 -1.304925 3.825875 0 0 1 30 115 75 0 114 28 117 0 +1.4732 0 3.6576 0 1 0 30
 99 77 0 27 117 96 0 +1.4732 -1.368425 3.825875 0 0 1 16 27 33 92 ?37 11 114 99
 0 0 1 81 1 92 153 31 27 0 0 89 97 119 17 37 0 35 26 111 30 48 27 0 79 +80 7 CCC
CCDI12 legal_owners0 17 1 lCZ1 31 120 121 9000 0 0 0 0 3 6 0 0 0 FFTFTFTTFFFFFFF
FF1 81 1 97 154 31 84 0 0 92 122 123 82 255 3 119 124 106 1 81 1 122 155 31 113
 0 124 97 125 126 82 3 123 124 107 1 14 255 113 12 124 ?110 71 112 6 127 +0 0 11
0 71 24 81 1 124 167 128 113 122 0 129 130 131 81 1 125 156 31 116 0 132 122 133
 134 82 3 126 124 27 2 14 116 21 132 ?0 19 35 6 135 -0 0 0 19 24 81 1 132 170 12
8 116 125 0 136 0 137 81 1 133 157 31 17 0 138 125 139 140 82 3 134 124 28 2 14
 17 6 138 ?71 0 81 6 141 +0 0 71 0 24 81 1 138 165 128 17 133 0 0 129 142 81 1 1
39 158 31 19 0 136 133 143 144 82 3 140 124 29 2 14 19 18 136 ?116 110 45 6 7 -0
 0 116 110 24 81 1 136 169 128 19 139 0 130 132 145 81 1 143 159 31 71 0 129 139
 146 147 82 3 144 124 38 2 14 71 9 129 ?113 17 66 6 148 +0 0 113 17 24 81 1 129
 166 128 71 143 0 138 124 149 81 1 146 160 31 110 0 130 143 150 151 82 3 147 124
 52 2 14 110 15 130 ?19 113 109 6 20 -0 0 19 113 24 81 1 130 168 128 110 146 0 1
24 136 152 81 1 150 161 31 1 0 153 146 0 154 82 3 151 124 53 2 81 1 153 162 155
 1 150 14 0 0 156 82 3 154 124 9 3 80 1 155 157 158 8038 0 0 0 0 0 0 0 0 0 TTTTT
TTTTTTTTFTFT10 81 1 14 163 157 1 153 2 0 0 159 98 255 8 156 80 97 114 116 32 50
 48 55 80 1 157 160 161 8017 0 0 0 0 0 0 0 0 0 TTTTTTTTTTTTTFTFT3 84 255 8 159 P
art 20779 255 13 161 SDL/TYSA_NAME79 14 158 SDL/TYSA_UNAME80 1 128 0 162 8001 0
 0 0 0 3 5 0 0 0 FFFFTFTFFFFFFFFFF2 83 255 3 152 .972549019607843 .5294117647058
82 .00392156862745098 79 15 162 SDL/TYSA_COLOUR50 20 89 0 110 148 7 0 +1.663702
 -1.368425 3.825875 0 1 0 0 0 1 13 24 3 0 0 0 0 0 0 10 17 50 148 88 0 71 127 20
 0 +1.663702 -1.304925 3.825875 0 1 0 0 0 1 50 127 87 0 113 141 148 0 +1.663702
 0 3.6576 0 0 -1 1 0 0 50 141 86 0 17 135 127 0 +1.6637 0 2.40919 1 0 0 0 -1 0 5
0 135 73 0 116 0 141 0 +1.4732 0 3.281358674698795 1 0 0 0 -1 0 83 3 149 .972549
019607843 .529411764705882 .00392156862745098 83 3 145 .972549019607843 .5294117
64705882 .00392156862745098 83 3 142 .972549019607843 .529411764705882 .00392156
862745098 83 3 137 .972549019607843 .529411764705882 .00392156862745098 83 3 131
 .972549019607843 .529411764705882 .00392156862745098 79 9 121 BTI/DetId30 28 74
 0 11 0 115 0 +1.4732 0 3.99415 0 1 0 81 1 83 150 31 78 0 0 25 91 163 82 3 118 1
24 104 1 81 1 25 149 31 11 0 0 94 83 164 82 3 163 124 77 1 81 1 94 148 31 88 0 0
 107 25 165 82 3 164 124 76 1 81 1 107 147 31 114 0 0 106 94 166 82 3 165 124 67
 1 82 3 166 124 66 1 81 1 104 145 31 103 0 0 75 106 167 82 3 108 124 12 1 81 1 7
5 144 31 21 0 0 102 104 168 82 3 167 124 11 1 81 1 102 143 31 95 0 0 43 75 169 8
2 3 168 124 10 1 81 1 43 142 31 61 0 0 40 102 170 82 3 169 124 9 1 82 3 170 124
 25 0 82 3 93 124 105 1 81 1 47 139 31 41 0 0 33 42 171 82 3 65 124 21 0 81 1 42
 140 31 58 0 0 47 40 172 82 3 171 124 22 0 82 3 172 124 23 0 81 1 32 136 31 55 0
 0 53 29 173 81 1 53 135 31 49 0 0 0 32 174 82 3 173 124 19 0 82 3 174 124 18 0
 82 3 44 124 24 0 82 3 34 124 20 0 19 18 4 0 1 0 10 6 0 S0 74 4 CI16 index_map_o
ffset0 0 1 dCCZ20 16 5 0 0 150 153 14 2 132 0 0 0 0 0 0 0 0 0 0 0 0 0 0 0 80 1 1
3 128 175 8040 0 0 0 0 3 5 0 0 0 TTTFFFFFFFFFFFFFF2 83 3 15 .972549019607843 .52
9411764705882 .00392156862745098 79 17 175 SDL/TYSA_COLOUR_21 0 
