**ABCDEFGHIJKLMNOPQRSTUVWXYZabcdefghijklmnopqrstuvwxyz**************************
**PARASOLID !"#$%&'()*+,-./:;<=>?@[\]^_`{|}~0123456789**************************
**PART1;
MC=unknown;
MC_MODEL=unknown;
MC_ID=unknown;
OS=unknown;
OS_RELEASE=unknown;
FRU=Parasolid 36.0.180;
APPL=Onshape;
SITE=unknown;
USER=unknown;
FORMAT=text;
GUISE=transmit;
KEY=BTGapi::writeModels_.xmt;
FILE=BTGapi::writeModels_.xmt;
DATE=2024-05-15T00:06:35 (UTC);
**PART2;
SCH=SCH_3600180_36001;
USFLD_SIZE=0;
**PART3;
**END_OF_HEADER*****************************************************************
T51 : TRANSMIT FILE created by modeller version 360018023 SCH_3600180_36001_1300
6231 0 12 36 CCCI7 lattice222 0 CCCI4 mesh1006 0 I8 polyline1008 0 CCCCCCCDI5 ow
ner1040 0 CCCI16 boundary_lattice222 0 CCCI13 boundary_mesh1006 0 I17 boundary_p
olyline1008 0 CCCA16 index_map_offset0 0 1 dA9 index_map82 0 A17 node_id_index_m
ap82 0 A20 schema_embedding_map82 0 A5 child12 0 A14 lowest_node_id0 0 1 dA16 me
sh_offset_data206 0 Z1 718 2 3 0 0 0 0 0 0 0 1e3 1e-8 0 4 5 1 0 1 2 6 0 7 8 9 0
 0 10 11 12 0 0 0 0 0 0 0 81 255 1 2 712 13 1 14 0 0 0 15 70 11 CI9 list_type0 0
 1 uI10 notransmit0 0 1 lCCCDCCDI12 finger_index0 0 1 dI12 finger_block1012 0 CZ
3 0 4 T1 0 0 5 20 1 16 16 13 255 6 213 0 1 0 17 0 0 18 0 50 255 7 208 0 17 19 0
 0 +-1.86055 .18415 3.99415 0 0 1 1 0 0 30 255 8 186 0 20 21 0 0 +44408920985006
25e-31 .09525 4.2799 -1 0 0 29 255 9 469 0 12 22 0 -2.1336 .09525 3.99415 19 9 C
CCCCCI5 frame230 0 CA5 owner12 0 Z10 88 0 1 18 0 23 0 V0 16 255 11 37 24 ?25 0 2
6 27 0 0 1 18 255 12 419 28 29 0 30 9 ?1 81 1 28 420 31 12 0 0 32 33 34 17 255 2
9 0 35 36 37 12 38 39 0 40 -18 30 417 32 41 12 42 22 ?1 81 1 32 418 31 30 0 0 43
 28 44 17 41 0 45 46 47 30 48 26 0 49 -18 42 409 43 25 30 50 51 ?1 29 22 470 0 3
0 51 9 -2.1336 .18415 3.99415 29 51 471 0 42 52 22 -2.1336 .18415 4.2799 29 52 4
72 0 50 53 51 -2.1336 .09525 4.2799 18 50 405 54 55 42 56 52 ?1 29 53 668 0 56 5
7 52 2.1336 .09525 4.2799 18 56 618 58 59 50 60 53 ?1 29 57 669 0 60 61 53 2.133
6 .18415 4.2799 18 60 608 62 63 56 64 57 ?1 29 61 670 0 64 65 57 2.1336 .18415 3
.99415 18 64 604 66 48 60 67 61 ?1 29 65 671 0 67 0 61 2.1336 .09525 3.99415 18
 67 616 68 38 64 0 65 ?1 81 1 68 617 31 67 0 0 62 58 69 17 38 0 70 71 72 67 29 3
9 0 73 +15 255 70 143 0 38 74 0 17 71 0 70 55 38 56 73 75 0 0 -17 72 0 70 38 55
 12 76 77 0 0 +16 39 156 78 ?38 20 79 21 0 0 1 17 73 0 80 81 82 67 71 75 0 37 +1
5 80 639 0 73 83 0 17 81 0 80 84 73 64 37 85 0 47 -17 82 0 80 73 84 56 86 87 0 7
1 +16 75 588 88 ?73 85 0 89 0 0 1 17 37 0 35 29 48 67 81 85 0 0 +15 35 203 0 29
 17 0 17 48 0 35 37 36 64 41 26 0 81 +16 85 568 90 ?37 91 75 92 0 0 1 81 1 90 57
0 31 85 0 0 33 93 94 16 91 574 93 ?47 87 85 95 0 0 1 30 92 662 0 85 89 95 0 +2.1
336 .18415 3.99415 0 -1 0 30 89 663 0 75 0 92 0 +2.1336 .09525 4.137025 0 0 -1 3
0 95 661 0 91 92 96 0 +2.1336 .18415 4.137025 0 0 -1 30 96 660 0 87 95 97 0 +2.1
336 .18415 4.2799 0 -1 0 16 87 591 98 ?82 77 91 96 0 0 1 30 97 464 0 77 96 99 0
 +-2.1336 .09525 4.137025 0 0 -1 16 77 361 100 ?72 101 87 97 0 0 1 30 99 463 0 1
01 97 102 0 +-2.1336 .18415 4.2799 0 -1 0 16 101 367 103 ?104 105 77 99 0 0 1 30
 102 462 0 105 99 106 0 +-2.1336 .18415 4.137025 0 0 -1 16 105 389 107 ?49 79 10
1 102 0 0 1 30 106 461 0 79 102 108 0 +-2.1336 .18415 3.99415 0 -1 0 16 79 392 1
09 ?40 39 105 106 0 0 1 30 108 9 0 26 106 27 0 +-1.86055 .18415 3.99415 1 0 0 16
 26 7 110 ?48 11 20 108 0 0 1 30 27 39 0 11 108 21 0 +4440892098500625e-31 .1841
5 4.2799 -1 0 0 30 21 188 0 39 27 8 0 +-1.86055 .09525 3.99415 1 0 0 81 1 110 70
3 31 26 0 0 78 111 112 16 20 148 111 ?55 26 39 8 0 0 1 81 1 111 704 31 20 0 0 11
0 24 113 17 55 0 70 72 71 50 59 20 0 76 +17 59 0 114 86 104 56 55 20 0 82 -17 76
 0 115 116 40 50 72 77 0 104 -15 115 440 0 76 117 0 17 116 0 115 49 76 42 104 10
1 0 0 -17 40 0 115 76 49 12 36 79 0 72 +17 104 0 114 59 25 50 116 101 0 0 +15 11
4 199 0 59 118 0 17 25 0 114 104 86 42 63 11 0 46 +17 86 0 114 25 59 60 82 87 0
 84 -17 63 0 45 47 46 60 25 11 0 86 -17 46 0 45 63 41 42 49 105 0 116 -15 45 6 0
 41 119 0 17 49 0 115 40 116 30 46 105 0 36 +17 36 0 35 48 29 30 40 79 0 0 -14 2
55 119 1 120 ?74 118 45 6 121 +0 0 74 118 23 81 1 120 715 122 119 123 0 124 125
 126 14 74 132 125 ?117 119 70 6 127 -0 0 117 119 23 14 118 200 124 ?119 17 114
 6 19 -0 0 119 17 23 50 121 3 0 119 128 127 0 +0 .18415 3.96875 0 1 0 1 0 0 13 2
3 89 0 0 0 0 0 0 10 17 14 17 204 129 ?118 0 35 6 7 -0 0 118 0 23 81 1 129 713 12
2 17 130 0 0 124 131 80 7 CCCCCDI12 legal_owners0 17 1 lCZ1 122 0 132 8001 0 0 0
 0 3 5 0 0 0 FFFFTFTFFFFFFFFFF2 81 1 130 706 31 17 0 129 24 133 134 81 1 124 714
 122 118 135 0 129 120 136 83 255 3 131 .917647058823529 .917647058823529 .91764
7058823529 81 1 135 709 31 118 0 124 123 0 137 83 3 136 .917647058823529 .917647
058823529 .917647058823529 80 1 31 138 139 9000 0 0 0 0 3 6 0 0 0 FFTFTFTTFFFFFF
FFF1 81 1 123 708 31 119 0 120 133 135 140 82 255 3 137 177 7 2 81 1 133 707 31
 74 0 125 130 123 141 82 3 140 177 6 2 81 1 125 716 122 74 133 0 120 142 143 82
 3 141 177 5 2 81 1 142 717 122 117 33 0 125 144 145 83 3 143 .917647058823529 .
917647058823529 .917647058823529 14 117 437 142 ?83 74 115 6 128 -0 0 83 74 23 8
1 1 33 439 31 117 0 142 28 90 146 81 1 144 718 122 83 147 0 142 0 148 83 3 145 .
917647058823529 .917647058823529 .917647058823529 14 83 636 144 ?0 117 80 6 149
 +0 0 0 117 23 81 1 147 638 31 83 0 144 58 150 151 83 3 148 .917647058823529 .91
7647058823529 .917647058823529 81 1 58 619 31 56 0 0 68 147 152 81 1 150 701 31
 1 0 153 147 78 154 82 3 151 176 11 2 81 1 153 710 155 1 150 14 0 0 156 81 1 78
 702 31 39 0 0 150 110 157 82 3 154 27 0 3 82 3 157 177 4 1 80 1 155 158 159 803
8 0 0 0 0 0 0 0 0 0 TTTTTTTTTTTTTFTFT10 81 1 14 711 158 1 153 2 0 0 160 98 255 2
6 156 80 97 114 116 32 49 57 32 51 46 53 120 49 49 46 50 53 120 49 52 102 116 32
 98 111 116 80 1 158 161 162 8017 0 0 0 0 0 0 0 0 0 TTTTTTTTTTTTTFTFT3 84 255 26
 160 Part 19 3.5x11.25x14ft bot79 255 13 162 SDL/TYSA_NAME79 14 159 SDL/TYSA_UNA
ME82 3 152 176 9 0 50 149 651 0 83 0 128 0 +2.1336 .18415 4.137025 1 0 0 0 0 -1
 50 128 452 0 117 149 121 0 +-2.1336 .18415 4.137025 1 0 0 0 0 -1 82 3 146 174 1
1 2 79 9 139 BTI/DetId81 1 24 705 31 11 0 0 111 130 163 82 3 134 177 4 2 82 3 16
3 177 7 1 79 15 132 SDL/TYSA_COLOUR50 127 184 0 74 121 19 0 +0 .09525 3.96875 0
 1 0 1 0 0 50 19 206 0 118 127 7 0 +4440892098500625e-31 .18415 4.2799 0 0 -1 -1
 0 0 83 3 126 .917647058823529 .917647058823529 .917647058823529 17 47 0 45 41 6
3 64 84 91 0 0 +17 84 0 80 82 81 60 47 91 0 0 -82 3 113 177 6 1 82 3 112 177 5 1
 81 1 109 394 31 79 0 0 107 54 164 81 1 107 391 31 105 0 0 103 109 165 81 1 54 4
06 31 50 0 0 109 43 166 82 3 164 174 19 1 81 1 43 410 31 42 0 0 54 32 167 82 3 1
66 174 9 0 82 3 167 174 11 0 81 1 103 369 31 101 0 0 100 107 168 82 3 165 174 23
 1 81 1 100 363 31 77 0 0 0 103 169 82 3 168 174 17 1 82 3 169 174 21 1 81 1 98
 593 31 87 0 0 88 66 170 81 1 88 590 31 75 0 0 93 98 171 81 1 66 605 31 64 0 0 9
8 62 172 82 3 170 176 17 1 81 1 62 609 31 60 0 0 66 68 173 82 3 172 176 15 0 82
 3 173 176 11 0 81 1 93 576 31 91 0 0 90 88 174 82 3 171 176 21 1 82 3 174 176 2
3 1 82 3 94 176 19 1 82 3 69 176 13 0 82 3 44 174 15 0 82 3 34 174 13 0 19 18 21
4 0 1 0 10 6 0 S0 74 4 CI16 index_map_offset0 0 1 dCCZ20 16 5 0 0 135 153 14 2 1
44 0 0 0 0 0 0 0 0 0 0 0 0 0 0 0 80 1 13 122 175 8040 0 0 0 0 3 5 0 0 0 TTTFFFFF
FFFFFFFFF2 83 3 15 .917647058823529 .917647058823529 .917647058823529 79 17 175
 SDL/TYSA_COLOUR_21 0 
