**ABCDEFGHIJKLMNOPQRSTUVWXYZabcdefghijklmnopqrstuvwxyz**************************
**PARASOLID !"#$%&'()*+,-./:;<=>?@[\]^_`{|}~0123456789**************************
**PART1;
MC=unknown;
MC_MODEL=unknown;
MC_ID=unknown;
OS=unknown;
OS_RELEASE=unknown;
FRU=Parasolid 36.0.180;
APPL=Onshape;
SITE=unknown;
USER=unknown;
FORMAT=text;
GUISE=transmit;
KEY=BTGapi::writeModels_.xmt;
FILE=BTGapi::writeModels_.xmt;
DATE=2024-05-15T00:06:35 (UTC);
**PART2;
SCH=SCH_3600180_36001;
USFLD_SIZE=0;
**PART3;
**END_OF_HEADER*****************************************************************
T51 : TRANSMIT FILE created by modeller version 360018023 SCH_3600180_36001_1300
6231 0 12 36 CCCI7 lattice222 0 CCCI4 mesh1006 0 I8 polyline1008 0 CCCCCCCDI5 ow
ner1040 0 CCCI16 boundary_lattice222 0 CCCI13 boundary_mesh1006 0 I17 boundary_p
olyline1008 0 CCCA16 index_map_offset0 0 1 dA9 index_map82 0 A17 node_id_index_m
ap82 0 A20 schema_embedding_map82 0 A5 child12 0 A14 lowest_node_id0 0 1 dA16 me
sh_offset_data206 0 Z1 144 2 3 0 0 0 0 0 0 0 1e3 1e-8 0 4 5 1 0 1 2 6 0 7 8 9 0
 0 10 11 12 0 0 0 0 0 0 0 81 255 1 2 138 13 1 14 0 0 0 15 70 11 CI9 list_type0 0
 1 uI10 notransmit0 0 1 lCCCDCCDI12 finger_index0 0 1 dI12 finger_block1012 0 CZ
3 0 4 T1 0 0 5 20 1 16 16 13 255 6 5 0 1 0 17 0 0 18 0 50 255 7 95 0 19 20 0 0 +
1.56845 -2.8194 -1999999999835465e-21 0 1 0 0 0 1 30 255 8 100 0 21 22 0 0 +1.56
845 -2.8194 1.2192 -1 0 0 29 255 9 91 0 12 23 0 1.4732 -2.7305 3.6576 19 9 CCCCC
CI5 frame230 0 CA5 owner12 0 Z10 1 0 1 18 0 24 0 V0 16 255 11 31 25 ?26 0 27 28
 0 0 1 18 255 12 55 29 30 0 31 9 ?1 81 1 29 111 32 12 0 0 33 34 35 17 255 30 0 3
6 37 38 12 39 40 0 41 +18 31 59 42 43 12 44 23 ?1 81 1 42 109 32 31 0 0 0 33 45
 17 43 0 46 47 48 31 49 50 0 37 +18 44 63 51 52 31 53 54 ?1 29 23 90 0 31 54 9 1
.6637 -2.7305 3.6576 29 54 89 0 44 55 23 1.6637 -2.8194 3.6576 29 55 88 0 53 56
 54 1.4732 -2.8194 3.6576 18 53 67 57 58 44 59 55 ?1 29 56 87 0 59 60 55 1.6637
 -2.7305 1.2192 18 59 71 33 48 53 61 56 ?1 29 60 86 0 61 62 56 1.4732 -2.7305 1.
2192 18 61 72 34 63 59 64 60 ?1 29 62 85 0 64 65 60 1.6637 -2.8194 1.2192 18 64
 73 66 67 61 68 62 ?1 29 65 84 0 68 0 62 1.4732 -2.8194 1.2192 18 68 74 69 70 64
 0 65 ?1 81 1 69 116 32 68 0 0 57 71 72 17 70 0 73 58 39 68 63 74 0 75 +15 255 7
3 13 0 39 76 0 17 58 0 73 41 70 53 77 78 0 79 +17 39 0 73 70 41 61 30 40 0 0 -17
 63 0 80 81 75 61 70 74 0 38 -16 74 53 82 ?70 83 21 84 0 0 1 17 75 0 80 63 85 68
 67 21 0 77 +15 80 10 0 81 17 0 17 85 0 80 75 81 64 48 86 0 87 -17 67 0 88 52 77
 64 75 21 0 85 -16 21 54 89 ?75 74 0 8 0 0 1 17 77 0 88 67 79 68 58 78 0 0 -15 8
8 22 0 67 19 0 17 79 0 88 77 52 53 90 91 0 26 +16 78 47 92 ?58 91 93 22 0 0 1 81
 1 92 120 32 78 0 0 94 95 96 16 91 43 97 ?79 98 78 99 0 0 1 16 93 48 94 ?52 78 5
0 100 0 0 1 30 22 99 0 78 100 8 0 +1.4732 -2.8194 -1999999999835465e-21 0 0 1 30
 100 98 0 93 101 22 0 +1.6637 -2.8194 -1999999999835465e-21 0 0 1 30 101 97 0 50
 102 100 0 +1.6637 -2.7305 -1999999999835465e-21 0 0 1 16 50 49 71 ?43 93 40 101
 0 0 1 30 102 96 0 40 28 101 0 +1.4732 -2.7305 -1999999999835465e-21 0 0 1 16 40
 50 103 ?30 50 86 102 0 0 1 30 28 83 0 11 104 102 0 +1.4732 -2.77495 3.6576 0 -1
 0 30 104 82 0 27 105 28 0 +1.56845 -2.7305 3.6576 -1 0 0 16 27 35 106 ?107 11 9
8 104 0 0 1 30 105 81 0 98 99 104 0 +1.6637 0 3.6576 0 1 0 16 98 39 95 ?108 27 9
1 105 0 0 1 30 99 80 0 91 109 105 0 +1.56845 -2.8194 3.6576 -1 0 0 30 109 79 0 8
6 110 99 0 +1.6637 0 1.2192 0 1 0 16 86 51 111 ?48 40 83 109 0 0 1 30 110 78 0 8
3 84 109 0 +1.56845 -2.7305 1.2192 -1 0 0 16 83 52 112 ?38 86 74 110 0 0 1 30 84
 77 0 74 0 110 0 +1.4732 -2.77495 1.2192 0 -1 0 81 1 112 126 32 83 0 0 106 97 11
3 17 38 0 36 30 49 61 81 83 0 39 +15 36 16 0 49 114 0 17 49 0 36 38 37 59 43 50
 0 0 -17 81 0 80 85 63 59 38 83 0 49 -17 37 0 36 49 30 31 107 27 0 108 -17 107 0
 115 26 108 12 37 27 0 0 +17 108 0 115 107 90 31 47 98 0 0 +15 115 30 0 26 116 0
 17 90 0 115 108 26 44 79 91 0 47 -17 47 0 46 87 43 44 108 98 0 0 -15 46 19 0 87
 117 0 17 87 0 46 48 47 64 52 93 0 0 -17 48 0 46 43 87 59 85 86 0 81 +17 52 0 88
 79 67 44 87 93 0 90 +14 255 117 17 118 ?19 114 46 6 20 +0 0 114 19 24 81 1 118
 142 119 117 120 0 121 122 123 14 19 20 122 ?116 117 88 6 7 -0 0 117 116 24 14 1
14 14 121 ?117 76 36 6 124 +0 0 76 117 24 50 20 94 0 117 125 7 0 +1.6637 0 -1999
999999835465e-21 1 0 0 0 0 -1 13 24 3 0 0 0 0 0 0 10 17 14 17 6 126 ?76 0 80 6 1
27 +0 0 116 0 24 81 1 126 139 119 17 128 0 0 129 130 14 76 11 129 ?114 17 73 6 1
25 +0 0 0 114 24 50 127 75 0 17 0 131 0 +1.56845 -2.63525 1.2192 0 0 -1 1 0 0 14
 116 23 132 ?0 19 115 6 131 -0 0 19 17 24 81 1 132 144 119 116 133 0 122 0 134 5
0 131 76 0 116 127 124 0 +1.56845 0 3.6576 0 0 -1 1 0 0 50 124 92 0 114 131 125
 0 +1.56845 -2.7305 -1999999999835465e-21 0 1 0 0 0 1 50 125 93 0 76 124 20 0 +1
.4732 -2.77495 -1999999999835465e-21 -1 0 0 0 0 1 80 7 CCCCCDI12 legal_owners0 1
7 1 lCZ1 119 0 135 8001 0 0 0 0 3 5 0 0 0 FFFFTFTFFFFFFFFFF2 81 1 133 130 32 116
 0 132 120 128 136 81 1 122 143 119 19 137 0 118 132 138 83 255 3 134 .615686274
509804 .811764705882353 .929411764705882 81 1 137 134 32 19 0 122 139 140 141 83
 3 138 .615686274509804 .811764705882353 .929411764705882 80 1 32 142 143 9000 0
 0 0 0 3 6 0 0 0 FFTFTFTTFFFFFFFFF1 81 1 139 133 32 114 0 121 144 137 145 81 1 1
40 135 32 1 0 146 137 0 147 82 255 3 141 196 5 2 81 1 146 136 148 1 140 14 0 0 1
49 82 3 147 196 0 3 80 1 148 150 151 8038 0 0 0 0 0 0 0 0 0 TTTTTTTTTTTTTFTFT10
 81 1 14 137 150 1 146 2 0 0 152 98 255 8 149 80 97 114 116 32 51 50 48 80 1 150
 153 154 8017 0 0 0 0 0 0 0 0 0 TTTTTTTTTTTTTFTFT3 84 255 8 152 Part 32079 255 1
3 154 SDL/TYSA_NAME79 14 151 SDL/TYSA_UNAME81 1 121 141 119 114 139 0 129 118 15
5 81 1 144 132 32 76 0 129 128 139 156 82 3 145 196 4 2 81 1 129 140 119 76 144
 0 126 121 157 81 1 128 131 32 17 0 126 133 144 158 82 3 156 196 3 2 82 3 158 19
6 2 2 83 3 157 .615686274509804 .811764705882353 .929411764705882 83 3 155 .6156
86274509804 .811764705882353 .929411764705882 79 9 143 BTI/DetId81 1 120 129 32
 117 0 118 89 133 159 82 3 136 196 1 2 81 1 89 128 32 21 0 0 97 120 160 82 3 159
 196 0 2 81 1 97 127 32 91 0 0 112 89 161 82 3 160 196 11 1 82 3 161 196 10 1 79
 15 135 SDL/TYSA_COLOUR83 3 130 .615686274509804 .811764705882353 .9294117647058
82 83 3 123 .615686274509804 .811764705882353 .929411764705882 17 26 0 115 90 10
7 53 41 11 0 0 +17 41 0 73 39 58 12 26 11 0 107 -81 1 106 125 32 27 0 0 82 112 1
62 82 3 113 196 9 1 81 1 82 124 32 74 0 0 25 106 163 82 3 162 196 8 1 81 1 25 12
3 32 11 0 0 111 82 164 82 3 163 196 7 1 81 1 111 122 32 86 0 0 95 25 165 82 3 16
4 196 6 1 81 1 95 121 32 98 0 0 92 111 166 82 3 165 196 5 1 82 3 166 196 4 1 81
 1 103 118 32 40 0 0 71 94 167 81 1 71 117 32 50 0 0 69 103 168 81 1 94 119 32 9
3 0 0 103 92 169 82 3 167 196 1 1 82 3 169 196 2 1 82 3 168 196 0 1 82 3 96 196
 3 1 81 1 57 115 32 53 0 0 66 69 170 82 3 72 196 7 0 81 1 66 114 32 64 0 0 51 57
 171 82 3 170 196 6 0 81 1 51 113 32 44 0 0 34 66 172 82 3 171 196 5 0 81 1 34 1
12 32 61 0 0 29 51 173 82 3 172 196 4 0 82 3 173 196 3 0 81 1 33 110 32 59 0 0 4
2 29 174 82 3 174 196 1 0 82 3 45 196 0 0 82 3 35 196 2 0 19 18 4 0 1 0 10 6 0 S
0 74 4 CI16 index_map_offset0 0 1 dCCZ20 16 5 0 0 140 146 14 2 132 0 0 0 0 0 0 0
 0 0 0 0 0 0 0 0 80 1 13 119 175 8040 0 0 0 0 3 5 0 0 0 TTTFFFFFFFFFFFFFF2 83 3
 15 .615686274509804 .811764705882353 .929411764705882 79 17 175 SDL/TYSA_COLOUR
_21 0 
