**ABCDEFGHIJKLMNOPQRSTUVWXYZabcdefghijklmnopqrstuvwxyz**************************
**PARASOLID !"#$%&'()*+,-./:;<=>?@[\]^_`{|}~0123456789**************************
**PART1;
MC=unknown;
MC_MODEL=unknown;
MC_ID=unknown;
OS=unknown;
OS_RELEASE=unknown;
FRU=Parasolid 36.0.180;
APPL=Onshape;
SITE=unknown;
USER=unknown;
FORMAT=text;
GUISE=transmit;
KEY=BTGapi::writeModels_.xmt;
FILE=BTGapi::writeModels_.xmt;
DATE=2024-05-15T00:06:35 (UTC);
**PART2;
SCH=SCH_3600180_36001;
USFLD_SIZE=0;
**PART3;
**END_OF_HEADER*****************************************************************
T51 : TRANSMIT FILE created by modeller version 360018023 SCH_3600180_36001_1300
6231 0 12 36 CCCI7 lattice222 0 CCCI4 mesh1006 0 I8 polyline1008 0 CCCCCCCDI5 ow
ner1040 0 CCCI16 boundary_lattice222 0 CCCI13 boundary_mesh1006 0 I17 boundary_p
olyline1008 0 CCCA16 index_map_offset0 0 1 dA9 index_map82 0 A17 node_id_index_m
ap82 0 A20 schema_embedding_map82 0 A5 child12 0 A14 lowest_node_id0 0 1 dA16 me
sh_offset_data206 0 Z1 146 2 3 0 0 0 0 0 0 0 1e3 1e-8 0 4 5 1 0 1 2 6 0 7 8 9 0
 0 10 11 12 0 0 0 0 0 0 0 81 255 1 2 140 13 1 14 0 0 0 15 70 11 CI9 list_type0 0
 1 uI10 notransmit0 0 1 lCCCDCCDI12 finger_index0 0 1 dI12 finger_block1012 0 CZ
3 0 4 T1 0 0 5 20 1 16 16 13 255 6 5 0 1 0 17 0 0 18 0 50 255 7 93 0 19 20 0 0 +
1.4732 -2.6342211019856 2.97039880219812 -1 0 0 0 0 1 30 255 8 101 0 21 22 0 0 +
1.4732 -2.7305 2.97039880219812 0 0 1 29 255 9 88 0 12 23 0 1.3843 -2.7305 3.657
6 19 9 CCCCCCI5 frame230 0 CA5 owner12 0 Z10 1 0 1 18 0 24 0 V0 16 255 11 30 25
 ?26 0 27 28 0 0 1 18 255 12 56 29 30 0 31 9 ?1 81 1 29 117 32 12 0 0 33 34 35 1
7 255 30 0 36 37 38 12 39 40 0 41 +18 31 60 42 43 12 44 23 ?1 81 1 42 113 32 31
 0 0 45 46 47 17 43 0 48 49 50 31 51 52 0 37 +18 44 64 53 54 31 55 56 ?1 29 23 8
7 0 31 56 9 1.3843 -2.54 3.6576 29 56 86 0 44 57 23 1.4732 -2.54 3.6576 29 57 85
 0 55 58 56 1.4732 -2.7305 3.6576 18 55 68 59 60 44 61 57 ?1 29 58 84 0 61 62 57
 1.3843 -2.54 3.05930080219812 18 61 72 46 50 55 63 58 ?1 29 62 83 0 63 64 58 1.
3843 -2.7305 3.05930080219812 18 63 73 34 39 61 65 62 ?1 29 64 82 0 65 66 62 1.4
732 -2.54 2.97040080219812 18 65 74 45 67 63 68 64 ?1 29 66 81 0 68 0 64 1.4732
 -2.7305 2.97040080219812 18 68 75 33 69 65 0 66 ?1 81 1 33 116 32 68 0 0 59 29
 70 17 69 0 71 72 73 68 60 21 0 74 -15 255 71 20 0 72 19 0 17 72 0 71 54 69 65 7
5 76 0 0 -17 73 0 71 69 54 55 77 78 0 79 +17 60 0 80 26 74 55 69 21 0 73 +16 21
 48 81 ?60 78 82 8 0 0 1 17 74 0 80 60 39 68 83 84 0 75 -15 80 11 0 74 85 0 17 3
9 0 80 74 26 63 30 40 0 83 -17 83 0 86 87 75 63 74 84 0 38 +16 84 53 88 ?83 89 9
0 91 0 0 1 17 75 0 86 83 92 68 72 76 0 0 +15 86 8 0 75 17 0 17 92 0 86 75 87 65
 50 89 0 72 -16 76 55 93 ?75 90 0 94 0 0 1 81 1 93 124 32 76 0 0 95 96 97 16 90
 54 98 ?87 84 76 99 0 0 1 30 94 97 0 76 99 100 0 +1.4732 -2.6342211019856 2.9704
0080219812 0 -1 0 30 99 96 0 90 91 94 0 +1.3843 -2.63525 3.05930080219812 0 1 0
 30 100 98 0 40 94 101 0 +1.3843 -2.7305 2.97039880219812 0 0 1 16 40 51 102 ?30
 52 89 100 0 0 1 30 101 99 0 52 100 22 0 +1.3843 -2.54 2.97039880219812 0 0 1 16
 52 50 103 ?43 82 40 101 0 0 1 30 22 100 0 82 101 8 0 +1.4732 -2.54 2.9703988021
9812 0 0 1 16 82 49 104 ?54 21 52 22 0 0 1 81 1 104 119 32 82 0 0 34 103 105 17
 54 0 71 73 72 44 67 82 0 77 +17 67 0 48 50 49 65 54 82 0 92 -17 77 0 106 107 79
 44 73 78 0 49 -15 106 29 0 79 108 0 17 107 0 106 41 77 31 49 109 0 0 +17 79 0 1
06 77 41 55 26 11 0 0 -16 78 42 95 ?73 109 21 110 0 0 1 17 49 0 48 67 43 44 107
 109 0 0 -15 48 17 0 67 111 0 16 109 38 112 ?107 27 78 113 0 0 1 81 1 112 127 32
 109 0 0 98 114 115 16 27 34 96 ?37 11 109 116 0 0 1 30 113 78 0 109 110 116 0 +
1.42875 -2.54 3.6576 -1 0 0 30 110 77 0 78 0 113 0 +1.4732 -2.6342211019856 3.65
76 0 -1 0 30 116 79 0 27 113 28 0 +1.3843 -2.63525 3.6576 0 1 0 30 28 80 0 11 11
6 117 0 +1.42875 -2.7305 3.6576 -1 0 0 30 117 94 0 89 28 91 0 +1.450976 -2.54 2.
99262480219812 -.707106781186548 0 .707106781186547 16 89 52 114 ?50 40 84 117 0
 0 1 30 91 95 0 84 117 99 0 +1.450976 -2.7305 2.99262480219812 -.707106781186548
 0 .707106781186547 81 1 114 128 32 89 0 0 112 25 118 17 50 0 48 43 67 61 92 89
 0 87 +17 87 0 86 92 83 61 38 90 0 51 +17 38 0 36 30 51 63 87 90 0 0 -17 51 0 36
 38 37 61 43 52 0 0 -15 36 14 0 38 119 0 17 37 0 36 51 30 31 41 27 0 107 +17 41
 0 106 79 107 12 37 27 0 26 -17 26 0 80 39 60 12 79 11 0 0 +14 255 119 12 120 ?1
11 85 36 6 121 -0 0 111 85 24 81 1 120 143 122 119 123 0 124 125 126 14 111 15 1
25 ?19 119 48 6 20 +0 0 19 119 24 14 85 9 124 ?119 17 80 6 127 -0 0 119 0 24 50
 121 90 0 119 128 127 0 +1.3843 -2.63525 2.97039880219812 1 0 0 0 0 -1 13 24 3 0
 0 0 0 0 0 10 85 50 128 89 0 17 129 121 0 +.961325401099059 -2.54 3.482275401099
06 -.707106781186547 0 -.707106781186548 -.707106781186548 0 .707106781186547 50
 127 91 0 85 121 20 0 +1.42875 -2.7305 2.97039880219812 0 1 0 0 0 1 50 20 92 0 1
11 127 7 0 +1.42875 -2.54 2.97039880219812 0 1 0 0 0 1 14 17 6 130 ?85 0 86 6 12
8 +0 0 0 108 24 50 129 76 0 108 0 128 0 +1.56845 0 3.6576 0 0 -1 1 0 0 14 108 21
 131 ?0 19 106 6 129 -0 0 17 19 24 81 1 131 146 122 108 132 0 133 0 134 14 19 18
 133 ?108 111 71 6 7 -0 0 108 111 24 81 1 133 145 122 19 135 0 125 131 136 80 7
 CCCCCDI12 legal_owners0 17 1 lCZ1 122 0 137 8001 0 0 0 0 3 5 0 0 0 FFFFTFTFFFFF
FFFFF2 81 1 135 131 32 19 0 133 88 132 138 81 1 125 144 122 111 139 0 120 133 14
0 83 255 3 136 .498039215686275 .498039215686275 .498039215686275 81 1 139 135 3
2 111 0 125 123 141 142 83 3 140 .498039215686275 .498039215686275 .498039215686
275 80 1 32 143 144 9000 0 0 0 0 3 6 0 0 0 FFTFTFTTFFFFFFFFF1 81 1 123 134 32 11
9 0 120 145 139 146 81 1 141 136 32 85 0 124 139 147 148 82 255 3 142 195 4 2 81
 1 124 142 122 85 141 0 130 120 149 81 1 147 137 32 1 0 150 141 0 151 82 3 148 1
95 5 2 81 1 150 138 152 1 147 14 0 0 153 82 3 151 195 0 3 80 1 152 154 155 8038
 0 0 0 0 0 0 0 0 0 TTTTTTTTTTTTTFTFT10 81 1 14 139 154 1 150 2 0 0 156 98 255 8
 153 80 97 114 116 32 51 49 57 80 1 154 157 158 8017 0 0 0 0 0 0 0 0 0 TTTTTTTTT
TTTTFTFT3 84 255 8 156 Part 31979 255 13 158 SDL/TYSA_NAME79 14 155 SDL/TYSA_UNA
ME81 1 130 141 122 17 145 0 0 124 159 83 3 149 .498039215686275 .498039215686275
 .498039215686275 81 1 145 133 32 17 0 130 132 123 160 83 3 159 .498039215686275
 .498039215686275 .498039215686275 81 1 132 132 32 108 0 131 135 145 161 82 3 16
0 195 2 2 82 3 161 195 1 2 82 3 146 195 3 2 79 9 144 BTI/DetId81 1 88 130 32 84
 0 0 25 135 162 82 3 138 195 0 2 81 1 25 129 32 11 0 0 114 88 163 82 3 162 195 1
1 1 82 3 163 195 10 1 79 15 137 SDL/TYSA_COLOUR83 3 134 .498039215686275 .498039
215686275 .498039215686275 83 3 126 .498039215686275 .498039215686275 .498039215
686275 82 3 118 195 9 1 81 1 96 125 32 27 0 0 93 98 164 81 1 98 126 32 90 0 0 96
 112 165 82 3 164 195 6 1 82 3 165 195 7 1 82 3 115 195 8 1 81 1 95 123 32 78 0
 0 102 93 166 81 1 102 122 32 40 0 0 81 95 167 82 3 166 195 4 1 81 1 81 121 32 2
1 0 0 103 102 168 82 3 167 195 3 1 81 1 103 120 32 52 0 0 104 81 169 82 3 168 19
5 2 1 82 3 169 195 1 1 81 1 34 118 32 63 0 0 29 104 170 82 3 105 195 0 1 82 3 17
0 195 7 0 82 3 97 195 5 1 81 1 59 115 32 55 0 0 46 33 171 82 3 70 195 5 0 81 1 4
6 114 32 61 0 0 42 59 172 82 3 171 195 4 0 82 3 172 195 3 0 81 1 45 112 32 65 0
 0 53 42 173 81 1 53 111 32 44 0 0 0 45 174 82 3 173 195 1 0 82 3 174 195 0 0 82
 3 47 195 2 0 82 3 35 195 6 0 19 18 4 0 1 0 10 6 0 S0 74 4 CI16 index_map_offset
0 0 1 dCCZ20 16 5 0 0 147 150 14 2 131 0 0 0 0 0 0 0 0 0 0 0 0 0 0 0 80 1 13 122
 175 8040 0 0 0 0 3 5 0 0 0 TTTFFFFFFFFFFFFFF2 83 3 15 .498039215686275 .4980392
15686275 .498039215686275 79 17 175 SDL/TYSA_COLOUR_21 0 
