**ABCDEFGHIJKLMNOPQRSTUVWXYZabcdefghijklmnopqrstuvwxyz**************************
**PARASOLID !"#$%&'()*+,-./:;<=>?@[\]^_`{|}~0123456789**************************
**PART1;
MC=unknown;
MC_MODEL=unknown;
MC_ID=unknown;
OS=unknown;
OS_RELEASE=unknown;
FRU=Parasolid 36.0.180;
APPL=Onshape;
SITE=unknown;
USER=unknown;
FORMAT=text;
GUISE=transmit;
KEY=BTGapi::writeModels_.xmt;
FILE=BTGapi::writeModels_.xmt;
DATE=2024-05-15T00:06:35 (UTC);
**PART2;
SCH=SCH_3600180_36001;
USFLD_SIZE=0;
**PART3;
**END_OF_HEADER*****************************************************************
T51 : TRANSMIT FILE created by modeller version 360018023 SCH_3600180_36001_1300
6231 0 12 36 CCCI7 lattice222 0 CCCI4 mesh1006 0 I8 polyline1008 0 CCCCCCCDI5 ow
ner1040 0 CCCI16 boundary_lattice222 0 CCCI13 boundary_mesh1006 0 I17 boundary_p
olyline1008 0 CCCA16 index_map_offset0 0 1 dA9 index_map82 0 A17 node_id_index_m
ap82 0 A20 schema_embedding_map82 0 A5 child12 0 A14 lowest_node_id0 0 1 dA16 me
sh_offset_data206 0 Z1 205 2 3 0 0 0 0 0 0 0 1e3 1e-8 0 4 5 1 0 1 2 6 0 7 8 9 0
 0 10 11 12 0 0 0 0 0 0 0 81 255 1 2 199 13 1 14 0 0 0 15 70 11 CI9 list_type0 0
 1 uI10 notransmit0 0 1 lCCCDCCDI12 finger_index0 0 1 dI12 finger_block1012 0 CZ
3 0 4 T1 0 0 5 20 1 16 16 13 255 6 128 0 1 0 17 0 0 18 0 50 255 7 123 0 19 20 0
 0 +1.6891 3.331253867754065 4.62452197465463 0 .824331600923871 -.5661072440079
59 0 -.56610724400796 -.824331600923872 30 255 8 127 0 21 22 0 0 +2.4765 3.33125
3867754065 4.62452197465463 0 -.566107244007959 -.824331600923871 29 255 9 104 0
 23 24 0 2.4765 2.31769117503398 5.30228797559271 19 9 CCCCCCI5 frame230 0 CA5 o
wner12 0 Z10 1 0 1 18 0 25 0 V0 16 255 11 108 26 ?27 0 28 29 0 0 1 18 255 12 20
 30 31 0 32 33 ?1 81 1 30 173 34 12 0 0 35 36 37 17 255 31 0 38 39 40 12 41 42 0
 43 -18 32 23 44 40 12 45 46 ?1 29 33 39 0 12 46 47 2.4765 2.326228779907675 5.3
1471992654914 29 46 38 0 32 48 33 .9017 2.32622877990768 5.31471992654914 29 47
 107 0 49 33 50 2.4765 3.32271626288037 4.6120900236982 18 49 95 51 52 53 0 47 ?
1 29 50 106 0 53 47 24 .9017 3.32271626288037 4.6120900236982 18 53 91 54 55 56
 49 50 ?1 29 24 105 0 56 50 9 .9017 2.317691175033985 5.3022879755927 18 56 87 3
6 57 23 53 24 ?1 81 1 36 174 34 56 0 0 30 44 58 17 57 0 59 60 61 56 62 63 0 64 +
18 23 83 35 65 66 56 9 ?1 81 1 35 172 34 23 0 0 67 30 68 17 65 0 69 43 64 23 70
 71 0 27 -18 66 29 67 72 45 23 73 ?1 81 1 67 171 34 66 0 0 51 35 74 17 72 0 75 7
6 77 66 78 79 0 39 -18 45 26 80 78 32 66 48 ?1 29 73 36 0 66 0 48 2.4765 3.33125
3867754065 4.62452197465463 29 48 37 0 45 73 46 .9017 3.331253867754065 4.624521
97465463 81 1 80 177 34 45 0 0 54 81 82 17 78 0 38 40 39 45 72 79 0 77 +15 255 3
8 7 0 39 83 0 17 40 0 38 31 78 32 84 85 0 60 +17 39 0 38 78 31 66 86 87 0 88 -16
 79 17 89 ?78 85 90 91 0 0 1 17 77 0 75 72 55 45 61 92 0 84 -15 75 118 0 55 19 0
 17 55 0 75 77 76 53 52 93 0 61 +17 61 0 59 57 84 53 77 92 0 62 +16 92 110 94 ?6
1 28 21 22 0 0 1 17 84 0 59 61 60 45 40 85 0 0 -15 59 116 0 57 95 0 17 60 0 59 8
4 57 32 64 28 0 41 -16 85 14 96 ?40 42 79 97 0 0 1 81 1 96 189 34 85 0 0 98 99 1
00 16 42 11 101 ?41 87 85 102 0 0 1 30 97 33 0 85 91 102 0 +.9017 2.828741323830
87 4.96962095060189 -1821231995776175e-31 -.824331600923871 .56610724400796 30 9
1 32 0 79 0 97 0 +1.6891 3.331253867754065 4.62452197465463 -1 0 0 30 102 34 0 4
2 97 103 0 +1.6891 2.32622877990768 5.31471992654914 -1 0 0 30 103 35 0 87 102 1
04 0 +2.4765 2.82874132383087 4.96962095060189 -364246399155235e-30 -.8243316009
23871 .56610724400796 16 87 8 105 ?86 21 42 103 0 0 1 30 104 103 0 93 103 106 0
 +1.6891 3.32271626288037 4.6120900236982 -1 0 0 16 93 79 107 ?55 63 0 104 0 0 1
 30 106 102 0 63 104 108 0 +.9017 2.820203718957175 4.95718899964545 -1821231995
776175e-31 -.824331600923871 .56610724400796 16 63 75 98 ?57 71 93 106 0 0 1 30
 108 101 0 71 106 109 0 +1.6891 2.317691175033985 5.30228797559271 -1 0 0 16 71
 71 110 ?70 90 63 108 0 0 1 30 109 100 0 90 108 29 0 +2.4765 2.820203718957175 4
.95718899964545 -364246399155235e-30 -.824331600923871 .56610724400796 16 90 67
 111 ?112 79 71 109 0 0 1 30 29 124 0 11 109 113 0 +2.4765 2.326228779907675 5.3
1471992654914 0 -.566107244007959 -.824331600923871 30 113 125 0 28 29 22 0 +.90
17 2.32622877990768 5.31471992654914 0 -.566107244007959 -.824331600923871 16 28
 109 114 ?64 11 92 113 0 0 1 30 22 126 0 92 113 8 0 +.9017 3.331253867754065 4.6
2452197465463 0 -.566107244007959 -.824331600923871 81 1 114 180 34 28 0 0 26 94
 115 17 64 0 69 65 41 56 60 28 0 70 +15 69 114 0 65 116 0 17 41 0 69 64 43 32 31
 42 0 0 +17 70 0 117 62 112 56 65 71 0 0 +15 117 66 0 112 118 0 17 62 0 117 52 7
0 53 57 63 0 0 -17 112 0 117 70 52 23 119 90 0 0 +17 52 0 117 112 62 49 55 93 0
 76 -17 119 0 120 88 27 49 112 90 0 0 -15 120 112 0 119 17 0 17 88 0 120 86 119
 66 76 21 0 0 -17 27 0 120 119 86 23 43 11 0 112 +17 86 0 120 27 88 12 39 87 0 0
 +17 43 0 69 41 65 12 27 11 0 86 -17 76 0 75 55 72 49 88 21 0 119 +16 21 111 81
 ?76 92 87 8 0 0 1 81 1 81 178 34 21 0 0 80 26 121 80 7 CCCCCDI12 legal_owners0
 17 1 lCZ1 34 122 123 9000 0 0 0 0 3 6 0 0 0 FFTFTFTTFFFFFFFFF1 81 1 26 179 34 1
1 0 0 81 114 124 82 255 3 121 120 4 1 82 3 124 120 9 1 79 255 9 123 BTI/DetId14
 255 17 113 125 ?116 0 120 6 126 -0 0 116 0 25 81 1 125 200 127 17 128 0 0 129 1
30 14 116 115 129 ?95 17 69 6 131 -0 0 95 17 25 50 126 120 0 17 132 131 0 +2.476
5 2.82874132383087 4.96962095060189 -1 30025981734639e-29 -206202525165593e-30 3
0025981734639e-29 1 0 13 25 3 0 0 0 0 0 0 10 17 50 132 99 0 118 133 126 0 +-.317
5 2.17465501836173 5.40051762535558 0 .56610724400796 .824331600923871 1 0 0 50
 131 121 0 116 126 20 0 +1.6891 2.32622877990768 5.31471992654914 0 .82433160092
3871 -.566107244007959 0 -.56610724400796 -.824331600923872 50 20 122 0 95 131 7
 0 +.9017 2.82874132383087 4.96962095060189 -1 150129908673195e-30 -103101262582
7964e-31 150129908673195e-30 1 0 14 95 117 134 ?19 116 59 6 20 +0 0 19 116 25 81
 1 134 202 127 95 135 0 129 136 137 14 19 119 136 ?83 95 75 6 7 +0 0 83 95 25 81
 1 136 203 127 19 99 0 134 138 139 14 83 4 138 ?118 19 38 6 133 +0 0 118 19 25 8
1 1 138 204 127 83 140 0 136 141 142 14 118 59 141 ?0 83 117 6 132 -0 0 0 83 25
 50 133 40 0 83 0 132 0 +-.3175 2.183192623235425 5.41294957631201 0 .5661072440
0796 .824331600923871 1 0 0 81 1 141 205 127 118 143 0 138 0 144 80 1 127 0 145
 8001 0 0 0 0 3 5 0 0 0 FFFFTFTFFFFFFFFFF2 81 1 143 191 34 118 0 141 99 140 146
 83 255 3 144 .980392156862745 .713725490196078 .00392156862745098 81 1 99 190 3
4 19 0 136 96 143 147 81 1 140 192 34 83 0 138 143 148 149 82 3 146 120 7 2 81 1
 148 193 34 116 0 129 140 128 150 82 3 149 120 8 2 81 1 129 201 127 116 148 0 12
5 134 151 81 1 128 194 34 17 0 125 148 135 152 82 3 150 120 15 2 81 1 135 195 34
 95 0 134 128 153 154 82 3 152 120 16 2 81 1 153 196 34 1 0 155 135 0 156 82 3 1
54 120 17 2 81 1 155 197 157 1 153 14 0 0 158 82 3 156 120 2 3 80 1 157 159 160
 8038 0 0 0 0 0 0 0 0 0 TTTTTTTTTTTTTFTFT10 81 1 14 198 159 1 155 2 0 0 161 98 2
55 8 158 80 97 114 116 32 49 55 51 80 1 159 162 163 8017 0 0 0 0 0 0 0 0 0 TTTTT
TTTTTTTTFTFT3 84 255 8 161 Part 17379 13 163 SDL/TYSA_NAME79 14 160 SDL/TYSA_UNA
ME83 3 151 .980392156862745 .713725490196078 .00392156862745098 82 3 147 120 6 2
 79 15 145 SDL/TYSA_COLOUR83 3 142 .980392156862745 .713725490196078 .0039215686
2745098 83 3 139 .980392156862745 .713725490196078 .00392156862745098 83 3 137 .
980392156862745 .713725490196078 .00392156862745098 83 3 130 .980392156862745 .7
13725490196078 .00392156862745098 81 1 94 181 34 92 0 0 114 107 164 82 3 115 120
 10 1 81 1 107 182 34 93 0 0 94 89 165 82 3 164 120 11 1 81 1 89 183 34 79 0 0 1
07 110 166 82 3 165 120 32 1 81 1 110 184 34 71 0 0 89 101 167 82 3 166 120 33 1
 81 1 101 185 34 42 0 0 110 111 168 82 3 167 120 46 1 81 1 111 186 34 90 0 0 101
 105 169 82 3 168 120 47 1 81 1 105 187 34 87 0 0 111 98 170 82 3 169 120 48 1 8
1 1 98 188 34 63 0 0 105 96 171 82 3 170 120 49 1 82 3 171 120 50 1 82 3 100 120
 51 1 81 1 54 176 34 53 0 0 44 80 172 82 3 82 120 23 0 81 1 44 175 34 32 0 0 36
 54 173 82 3 172 120 22 0 82 3 173 120 21 0 81 1 51 170 34 49 0 0 0 67 174 82 3
 74 120 9 0 82 3 174 120 8 0 82 3 68 120 18 0 82 3 58 120 20 0 82 3 37 120 19 0
 19 18 129 0 1 0 10 6 0 S0 74 4 CI16 index_map_offset0 0 1 dCCZ20 16 5 0 0 153 1
55 14 2 141 0 0 0 0 0 0 0 0 0 0 0 0 0 0 0 80 1 13 127 175 8040 0 0 0 0 3 5 0 0 0
 TTTFFFFFFFFFFFFFF2 83 3 15 .980392156862745 .713725490196078 .00392156862745098
 79 17 175 SDL/TYSA_COLOUR_21 0 
