**ABCDEFGHIJKLMNOPQRSTUVWXYZabcdefghijklmnopqrstuvwxyz**************************
**PARASOLID !"#$%&'()*+,-./:;<=>?@[\]^_`{|}~0123456789**************************
**PART1;
MC=unknown;
MC_MODEL=unknown;
MC_ID=unknown;
OS=unknown;
OS_RELEASE=unknown;
FRU=Parasolid 36.0.180;
APPL=Onshape;
SITE=unknown;
USER=unknown;
FORMAT=text;
GUISE=transmit;
KEY=BTGapi::writeModels_.xmt;
FILE=BTGapi::writeModels_.xmt;
DATE=2024-05-15T00:06:35 (UTC);
**PART2;
SCH=SCH_3600180_36001;
USFLD_SIZE=0;
**PART3;
**END_OF_HEADER*****************************************************************
T51 : TRANSMIT FILE created by modeller version 360018023 SCH_3600180_36001_1300
6231 0 12 36 CCCI7 lattice222 0 CCCI4 mesh1006 0 I8 polyline1008 0 CCCCCCCDI5 ow
ner1040 0 CCCI16 boundary_lattice222 0 CCCI13 boundary_mesh1006 0 I17 boundary_p
olyline1008 0 CCCA16 index_map_offset0 0 1 dA9 index_map82 0 A17 node_id_index_m
ap82 0 A20 schema_embedding_map82 0 A5 child12 0 A14 lowest_node_id0 0 1 dA16 me
sh_offset_data206 0 Z1 220 2 3 0 0 0 0 0 0 0 1e3 1e-8 0 4 5 1 0 1 2 6 0 7 8 9 0
 0 10 11 12 0 0 0 0 0 0 0 81 255 1 2 214 13 1 14 0 0 0 15 70 11 CI9 list_type0 0
 1 uI10 notransmit0 0 1 lCCCDCCDI12 finger_index0 0 1 dI12 finger_block1012 0 CZ
3 0 4 T1 0 0 5 20 1 16 16 13 255 6 142 0 1 0 17 0 0 18 0 50 255 7 137 0 19 20 0
 0 +2.4765 3.833766411677255 4.27942299870738 -1 30025981734639e-29 -20620252516
5593e-30 30025981734639e-29 1 0 30 255 8 141 0 21 22 0 0 +2.4765 3.3312538677540
65 4.62452197465463 0 -.566107244007959 -.824331600923871 29 255 9 118 0 23 24 0
 .0381000000000014 3.32271626288037 4.6120900236982 19 9 CCCCCCI5 frame230 0 CA5
 owner12 0 Z10 1 0 1 18 0 25 0 V0 16 255 11 122 26 ?27 0 28 29 0 0 1 18 255 12 2
6 30 31 0 32 33 ?1 81 1 30 192 34 12 0 0 35 36 37 17 255 31 0 38 39 40 12 41 42
 0 43 +18 32 29 44 40 12 45 46 ?1 29 33 46 0 12 46 47 .0381000000000014 3.331253
867754065 4.62452197465463 29 46 45 0 32 48 33 .03810000000000135 4.336278955600
445 3.93432402276013 29 47 121 0 49 33 50 2.4765 3.32271626288037 4.612090023698
2 18 49 109 51 52 53 0 47 ?1 29 50 120 0 53 47 24 2.4765 4.32774135072675 3.9218
92071803695 18 53 105 54 55 56 49 50 ?1 29 24 119 0 56 50 9 .03810000000000135 4
.32774135072675 3.921892071803695 18 56 101 57 58 23 53 24 ?1 81 1 57 187 34 56
 0 0 59 44 60 17 58 0 61 62 63 56 64 65 0 66 +18 23 97 35 67 68 56 9 ?1 81 1 35
 191 34 23 0 0 69 30 70 17 67 0 71 43 66 23 72 73 0 27 +18 68 35 69 74 45 23 75
 ?1 81 1 69 190 34 68 0 0 51 35 76 17 74 0 77 78 79 68 80 81 0 39 +18 45 32 59 8
0 32 68 48 ?1 29 75 43 0 68 0 48 2.4765 3.331253867754065 4.62452197465463 29 48
 44 0 45 75 46 2.4765 4.336278955600445 3.93432402276013 81 1 59 186 34 45 0 0 5
4 57 82 17 80 0 38 40 39 45 74 81 0 79 -15 255 38 7 0 39 83 0 17 40 0 38 31 80 3
2 84 85 0 62 +17 39 0 38 80 31 68 86 87 0 88 -16 81 20 89 ?74 85 90 91 0 0 1 17
 79 0 77 74 55 45 63 92 0 84 -15 77 132 0 55 19 0 17 55 0 77 79 78 53 52 93 0 63
 -17 63 0 61 58 84 53 79 92 0 64 +16 92 124 36 ?63 28 21 22 0 0 1 17 84 0 61 63
 62 45 40 85 0 0 -15 61 130 0 58 94 0 17 62 0 61 84 58 32 66 28 0 41 -16 85 17 9
5 ?40 42 81 96 0 0 1 81 1 95 198 34 85 0 0 97 98 99 16 42 14 100 ?31 87 85 101 0
 0 1 30 96 39 0 85 91 101 0 +1.2573 4.336278955600445 3.93432402276013 -1 0 0 30
 91 38 0 81 0 96 0 +2.4765 3.833766411677255 4.27942299870738 -364246399155235e-
30 -.824331600923871 .56610724400796 30 101 40 0 42 96 102 0 +.0381000000000013
 3.833766411677255 4.27942299870738 -187814549564418e-30 -.824331600923871 .5661
0724400796 30 102 42 0 87 101 103 0 +1.6891 3.331253867754065 4.62452197465463 -
1 0 0 16 87 8 104 ?86 21 42 102 0 0 1 30 103 117 0 93 102 105 0 +2.4765 3.825228
80680356 4.266991047750945 -364246399155235e-30 -.824331600923871 .5661072440079
6 16 93 93 106 ?52 65 0 103 0 0 1 30 105 116 0 65 103 107 0 +1.2573 4.3277413507
2675 3.921892071803695 -1 0 0 16 65 89 97 ?58 73 93 105 0 0 1 30 107 115 0 73 10
5 108 0 +.0381000000000013 3.82522880680356 4.266991047750945 -187814549564418e-
30 -.824331600923871 .56610724400796 16 73 85 109 ?67 90 65 107 0 0 1 30 108 114
 0 90 107 29 0 +1.6891 3.32271626288037 4.6120900236982 -1 0 0 16 90 79 98 ?110
 81 73 108 0 0 1 30 29 138 0 11 108 111 0 +.0381000000000014 3.331253867754065 4
.62452197465463 0 -.566107244007959 -.824331600923871 30 111 139 0 28 29 22 0 +.
03810000000000135 4.336278955600445 3.93432402276013 0 -.566107244007959 -.82433
1600923871 16 28 123 112 ?66 11 92 111 0 0 1 30 22 140 0 92 111 8 0 +2.4765 4.33
6278955600445 3.93432402276013 0 -.566107244007959 -.824331600923871 81 1 112 19
4 34 28 0 0 36 113 114 17 66 0 71 67 41 56 62 28 0 72 +15 71 128 0 67 115 0 17 4
1 0 71 66 43 32 31 42 0 0 -17 72 0 116 64 110 56 67 73 0 0 -15 116 78 0 110 117
 0 17 64 0 116 52 72 53 58 65 0 0 -17 110 0 116 72 52 23 118 90 0 0 +17 52 0 116
 110 64 49 55 93 0 78 +17 118 0 119 88 27 49 110 90 0 0 -15 119 126 0 118 17 0 1
7 88 0 119 86 118 68 78 21 0 0 -17 27 0 119 118 86 23 43 11 0 110 +17 86 0 119 2
7 88 12 39 87 0 0 +17 43 0 71 41 67 12 27 11 0 86 -17 78 0 77 55 74 49 88 21 0 1
18 +16 21 125 113 ?78 92 87 8 0 0 1 81 1 113 195 34 21 0 0 112 26 120 80 7 CCCCC
DI12 legal_owners0 17 1 lCZ1 34 121 122 9000 0 0 0 0 3 6 0 0 0 FFTFTFTTFFFFFFFFF
1 81 1 26 196 34 11 0 0 113 97 123 82 255 3 120 120 114 1 81 1 97 197 34 65 0 0
 26 95 124 82 3 123 120 115 1 82 3 124 120 140 1 79 255 9 122 BTI/DetId14 255 17
 127 125 ?115 0 119 6 126 -0 0 115 0 25 81 1 125 215 127 17 128 0 0 129 130 14 1
15 129 129 ?94 17 71 6 131 +0 0 94 17 25 50 126 134 0 17 132 131 0 +1.6891 3.331
253867754065 4.62452197465463 0 .824331600923871 -.566107244007959 0 -.566107244
00796 -.824331600923872 13 25 3 0 0 0 0 0 0 10 17 50 132 113 0 117 133 126 0 +-.
3175 2.17465501836173 5.40051762535558 0 .56610724400796 .824331600923871 1 0 0
 50 131 135 0 115 126 20 0 +.0381000000000013 3.833766411677255 4.27942299870738
 -1 1548214683192325e-31 -106323177038509e-30 1548214683192325e-31 1 0 50 20 136
 0 94 131 7 0 +1.2573 4.336278955600445 3.93432402276013 0 .824331600923871 -.56
6107244007959 0 -.56610724400796 -.824331600923872 14 94 131 134 ?19 115 61 6 20
 +0 0 19 115 25 81 1 134 217 127 94 135 0 129 136 137 14 19 133 136 ?83 94 77 6
 7 -0 0 83 94 25 81 1 136 218 127 19 138 0 134 139 140 14 83 4 139 ?117 19 38 6
 133 +0 0 117 19 25 81 1 139 219 127 83 141 0 136 142 143 14 117 70 142 ?0 83 11
6 6 132 -0 0 0 83 25 50 133 48 0 83 0 132 0 +-.3175 2.183192623235425 5.41294957
631201 0 .56610724400796 .824331600923871 1 0 0 81 1 142 220 127 117 144 0 139 0
 145 80 1 127 0 146 8001 0 0 0 0 3 5 0 0 0 FFFFTFTFFFFFFFFFF2 81 1 144 206 34 11
7 0 142 135 141 147 83 255 3 145 .498039215686275 .498039215686275 .498039215686
275 81 1 135 205 34 94 0 134 100 144 148 81 1 141 207 34 83 0 139 144 128 149 82
 3 147 120 61 2 81 1 128 208 34 17 0 125 141 138 150 82 3 149 120 62 2 81 1 138
 209 34 19 0 136 128 151 152 82 3 150 120 63 2 81 1 151 210 34 115 0 129 138 153
 154 82 3 152 120 64 2 81 1 129 216 127 115 151 0 125 134 155 81 1 153 211 34 1
 0 156 151 0 157 82 3 154 120 65 2 81 1 156 212 158 1 153 14 0 0 159 82 3 157 12
0 10 3 80 1 158 160 161 8038 0 0 0 0 0 0 0 0 0 TTTTTTTTTTTTTFTFT10 81 1 14 213 1
60 1 156 2 0 0 162 98 255 8 159 80 97 114 116 32 49 56 49 80 1 160 163 164 8017
 0 0 0 0 0 0 0 0 0 TTTTTTTTTTTTTFTFT3 84 255 8 162 Part 18179 13 164 SDL/TYSA_NA
ME79 14 161 SDL/TYSA_UNAME83 3 155 .498039215686275 .498039215686275 .4980392156
86275 81 1 100 204 34 42 0 0 109 135 165 82 3 148 120 60 2 81 1 109 203 34 73 0
 0 89 100 166 82 3 165 120 147 1 81 1 89 202 34 81 0 0 106 109 167 82 3 166 120
 146 1 81 1 106 201 34 93 0 0 104 89 168 82 3 167 120 145 1 81 1 104 200 34 87 0
 0 98 106 169 82 3 168 120 144 1 81 1 98 199 34 90 0 0 95 104 170 82 3 169 120 1
43 1 82 3 170 120 142 1 79 15 146 SDL/TYSA_COLOUR83 3 143 .498039215686275 .4980
39215686275 .498039215686275 83 3 140 .498039215686275 .498039215686275 .4980392
15686275 83 3 137 .498039215686275 .498039215686275 .498039215686275 83 3 130 .4
98039215686275 .498039215686275 .498039215686275 81 1 36 193 34 92 0 0 30 112 17
1 82 3 114 120 113 1 82 3 171 120 112 1 82 3 99 120 141 1 81 1 54 185 34 53 0 0
 0 59 172 82 3 82 120 81 0 82 3 172 120 80 0 81 1 51 189 34 49 0 0 44 69 173 82
 3 76 120 85 0 81 1 44 188 34 32 0 0 57 51 174 82 3 173 120 84 0 82 3 174 120 83
 0 82 3 70 120 86 0 82 3 60 120 82 0 82 3 37 120 87 0 19 18 143 0 1 0 10 6 0 S0
 74 4 CI16 index_map_offset0 0 1 dCCZ20 16 5 0 0 153 156 14 2 142 0 0 0 0 0 0 0
 0 0 0 0 0 0 0 0 80 1 13 127 175 8040 0 0 0 0 3 5 0 0 0 TTTFFFFFFFFFFFFFF2 83 3
 15 .498039215686275 .498039215686275 .498039215686275 79 17 175 SDL/TYSA_COLOUR
_21 0 
