**ABCDEFGHIJKLMNOPQRSTUVWXYZabcdefghijklmnopqrstuvwxyz**************************
**PARASOLID !"#$%&'()*+,-./:;<=>?@[\]^_`{|}~0123456789**************************
**PART1;
MC=unknown;
MC_MODEL=unknown;
MC_ID=unknown;
OS=unknown;
OS_RELEASE=unknown;
FRU=Parasolid 36.0.180;
APPL=Onshape;
SITE=unknown;
USER=unknown;
FORMAT=text;
GUISE=transmit;
KEY=BTGapi::writeModels_.xmt;
FILE=BTGapi::writeModels_.xmt;
DATE=2024-05-15T00:06:35 (UTC);
**PART2;
SCH=SCH_3600180_36001;
USFLD_SIZE=0;
**PART3;
**END_OF_HEADER*****************************************************************
T51 : TRANSMIT FILE created by modeller version 360018023 SCH_3600180_36001_1300
6231 0 12 36 CCCI7 lattice222 0 CCCI4 mesh1006 0 I8 polyline1008 0 CCCCCCCDI5 ow
ner1040 0 CCCI16 boundary_lattice222 0 CCCI13 boundary_mesh1006 0 I17 boundary_p
olyline1008 0 CCCA16 index_map_offset0 0 1 dA9 index_map82 0 A17 node_id_index_m
ap82 0 A20 schema_embedding_map82 0 A5 child12 0 A14 lowest_node_id0 0 1 dA16 me
sh_offset_data206 0 Z1 208 2 3 0 0 0 0 0 0 0 1e3 1e-8 0 4 5 1 0 1 2 6 0 7 8 9 0
 0 10 11 12 0 0 0 0 0 0 0 81 255 1 2 202 13 1 14 0 0 0 15 70 11 CI9 list_type0 0
 1 uI10 notransmit0 0 1 lCCCDCCDI12 finger_index0 0 1 dI12 finger_block1012 0 CZ
3 0 4 T1 0 0 5 20 1 16 16 13 255 6 156 0 1 0 17 0 0 18 0 50 255 7 151 0 19 20 0
 0 +.03810000000000085 -1.823716235984485 5.65981890249639 -1 -1548214683192325e
-31 -106323177038509e-30 1548214683192325e-31 -1 0 30 255 8 155 0 21 22 0 0 +.03
8100000000001 -2.32622877990768 5.31471992654914 0 .566107244007959 -.8243316009
23871 29 255 9 132 0 23 24 0 2.4765 -2.31769117503398 5.30228797559271 19 9 CCCC
CCI5 frame230 0 CA5 owner12 0 Z10 1 0 1 18 0 25 0 V0 16 255 11 136 26 ?27 0 28 2
9 0 0 1 18 255 12 26 30 31 0 32 33 ?1 81 1 30 174 34 12 0 0 35 36 37 17 255 31 0
 38 39 40 12 27 11 0 41 -18 32 29 42 43 12 44 45 ?1 29 33 55 0 12 45 46 2.4765 -
2.326228779907675 5.31471992654914 29 45 54 0 32 47 33 2.4765 -1.321203692061294
 6.00491787844364 29 46 135 0 48 33 49 .038100000000001 -2.317691175033985 5.302
2879755927 18 48 123 50 51 52 0 46 ?1 29 49 134 0 52 46 24 .0381000000000007 -1.
3126660871876 5.99248592748721 18 52 119 36 53 54 48 49 ?1 29 24 133 0 54 49 9 2
.4765 -1.3126660871876 5.99248592748721 18 54 115 55 56 23 52 24 ?1 81 1 55 177
 34 54 0 0 57 42 58 17 56 0 59 60 61 54 62 28 0 63 +18 23 111 35 27 64 54 9 ?1 8
1 1 35 173 34 23 0 0 0 30 65 17 27 0 66 63 41 23 31 11 0 67 +18 64 38 68 69 44 2
3 70 ?1 81 1 68 180 34 64 0 0 50 26 71 17 69 0 72 73 74 64 51 21 0 75 -18 44 35
 57 76 32 64 47 ?1 29 70 51 0 64 0 47 .038100000000001 -2.32622877990768 5.31471
992654914 29 47 52 0 44 70 45 .0381000000000007 -1.321203692061294 6.00491787844
364 81 1 57 176 34 44 0 0 36 55 77 17 76 0 59 61 60 44 53 78 0 79 -15 255 59 144
 0 60 80 0 17 61 0 59 56 76 32 79 81 0 0 +17 60 0 59 76 56 52 82 83 0 84 -17 53
 0 72 74 73 52 76 78 0 60 +16 78 138 85 ?53 28 21 22 0 0 1 17 79 0 86 75 43 44 6
1 81 0 73 -15 86 7 0 87 88 0 17 75 0 86 87 79 64 73 89 0 39 -17 43 0 86 79 87 32
 41 90 0 62 +16 81 14 91 ?61 90 89 92 0 0 1 17 73 0 72 53 69 44 75 89 0 0 +15 72
 146 0 74 19 0 16 89 20 93 ?73 81 94 95 0 0 1 81 1 93 190 34 89 0 0 96 97 98 16
 94 91 99 ?100 89 101 102 0 0 1 30 95 45 0 89 0 92 0 +.03810000000000085 -1.8237
16235984485 5.65981890249639 -187814549564418e-30 .824331600923871 .566107244007
959 30 92 47 0 81 95 103 0 +1.6891 -1.321203692061294 6.00491787844364 1 0 0 30
 103 48 0 90 92 104 0 +2.4765 -1.823716235984485 5.65981890249639 -3642463991552
35e-30 .824331600923871 .566107244007959 16 90 11 105 ?43 106 81 103 0 0 1 30 10
4 49 0 106 103 107 0 +1.6891 -2.32622877990768 5.31471992654914 -1 0 0 16 106 8
 108 ?39 21 90 104 0 0 1 30 107 131 0 109 104 110 0 +.03810000000000085 -1.81517
863111079 5.64738695153996 -187814549564418e-30 .824331600923871 .56610724400795
9 16 109 107 96 ?84 83 0 107 0 0 1 30 110 130 0 83 107 111 0 +1.6891 -1.31266608
71876 5.99248592748721 1 0 0 16 83 101 112 ?82 101 109 110 0 0 1 30 111 129 0 10
1 110 102 0 +2.4765 -1.81517863111079 5.64738695153996 -364246399155235e-30 .824
331600923871 .566107244007959 16 101 97 97 ?63 94 83 111 0 0 1 30 102 128 0 94 1
11 29 0 +1.6891 -2.317691175033985 5.30228797559271 -1 0 0 30 29 152 0 11 102 11
3 0 +2.4765 -2.326228779907675 5.31471992654914 0 .566107244007959 -.82433160092
3871 30 113 153 0 28 29 22 0 +2.4765 -1.321203692061294 6.00491787844364 0 .5661
07244007959 -.824331600923871 16 28 137 114 ?56 11 78 113 0 0 1 30 22 154 0 78 1
13 8 0 +.0381000000000007 -1.321203692061294 6.00491787844364 0 .566107244007959
 -.824331600923871 81 1 114 183 34 28 0 0 85 115 116 80 7 CCCCCDI12 legal_owners
0 17 1 lCZ1 34 117 118 9000 0 0 0 0 3 6 0 0 0 FFTFTFTTFFFFFFFFF1 81 1 85 182 34
 78 0 0 26 114 119 81 1 115 184 34 21 0 0 114 99 120 82 255 3 116 119 14 1 16 21
 139 115 ?51 78 106 8 0 0 1 81 1 99 185 34 94 0 0 115 108 121 82 3 120 119 15 1
 81 1 108 186 34 106 0 0 99 112 122 82 3 121 119 42 1 81 1 112 187 34 83 0 0 108
 91 123 82 3 122 119 43 1 81 1 91 188 34 81 0 0 112 96 124 82 3 123 119 50 1 81
 1 96 189 34 109 0 0 91 93 125 82 3 124 119 51 1 82 3 125 119 52 1 17 51 0 38 40
 39 48 69 21 0 74 +15 38 140 0 40 17 0 17 40 0 38 31 51 23 100 94 0 0 -17 39 0 3
8 51 31 64 87 106 0 0 +17 74 0 72 69 53 48 84 109 0 100 -17 84 0 126 82 100 52 7
4 109 0 0 +17 100 0 126 84 67 48 40 94 0 0 +15 126 90 0 100 127 0 17 67 0 126 10
0 82 23 63 101 0 40 -17 82 0 126 67 84 54 60 83 0 0 +17 63 0 66 62 27 54 67 101
 0 82 +15 66 142 0 63 128 0 17 62 0 66 41 63 32 56 28 0 61 -17 41 0 66 27 62 12
 43 90 0 87 -17 87 0 86 43 75 12 39 106 0 0 -14 255 128 143 129 ?80 17 66 6 130
 -0 0 80 17 25 81 1 129 204 131 128 132 0 133 134 135 14 80 145 134 ?19 128 59 6
 20 +0 0 19 128 25 14 17 141 133 ?128 0 38 6 136 +0 0 128 0 25 50 130 149 0 128
 136 20 0 +2.4765 -1.823716235984485 5.65981890249639 -1 -3002598173463905e-31 -
2062025251655935e-31 3002598173463905e-31 -1 0 13 25 3 0 0 0 0 0 0 10 17 50 136
 148 0 17 137 130 0 +1.6891 -2.32622877990768 5.31471992654914 0 -.8243316009238
71 -.566107244007959 0 .56610724400796 -.824331600923872 50 20 150 0 80 130 7 0
 +1.6891 -1.321203692061294 6.00491787844364 0 .824331600923871 .566107244007959
 0 -.56610724400796 .824331600923872 50 137 127 0 127 138 136 0 +-.3175 -2.17465
501836173 5.40051762535558 0 -.56610724400796 .824331600923871 1 0 0 14 127 81 1
39 ?0 88 126 6 137 -0 0 0 88 25 50 138 56 0 88 0 137 0 +-.3175 -2.18319262323542
5 5.41294957631201 0 -.56610724400796 .824331600923871 1 0 0 14 88 4 140 ?127 19
 86 6 138 +0 0 127 19 25 81 1 140 207 131 88 141 0 142 139 143 14 19 147 142 ?88
 80 72 6 7 +0 0 88 80 25 81 1 142 206 131 19 144 0 134 140 145 80 1 131 0 146 80
01 0 0 0 0 3 5 0 0 0 FFFFTFTFFFFFFFFFF2 81 1 144 197 34 19 0 142 147 132 148 81
 1 134 205 131 80 147 0 129 142 149 83 255 3 145 .615686274509804 .8117647058823
53 .929411764705882 81 1 147 196 34 80 0 134 141 144 150 83 3 149 .6156862745098
04 .811764705882353 .929411764705882 81 1 141 195 34 88 0 140 151 147 152 82 3 1
50 119 21 2 81 1 151 194 34 127 0 139 153 141 154 82 3 152 119 17 2 81 1 139 208
 131 127 151 0 140 0 155 81 1 153 193 34 17 0 133 105 151 156 82 3 154 119 16 2
 81 1 133 203 131 17 153 0 0 129 157 81 1 105 192 34 90 0 0 97 153 158 82 3 156
 119 15 2 81 1 97 191 34 101 0 0 93 105 159 82 3 158 119 55 1 82 3 159 119 54 1
 83 3 157 .615686274509804 .811764705882353 .929411764705882 83 3 155 .615686274
509804 .811764705882353 .929411764705882 81 1 132 198 34 128 0 129 144 160 161 8
2 3 148 119 22 2 81 1 160 199 34 1 0 162 132 0 163 82 3 161 119 23 2 81 1 162 20
0 164 1 160 14 0 0 165 82 3 163 119 3 3 80 1 164 166 167 8038 0 0 0 0 0 0 0 0 0
 TTTTTTTTTTTTTFTFT10 81 1 14 201 166 1 162 2 0 0 168 98 255 8 165 80 97 114 116
 32 49 54 56 80 1 166 169 170 8017 0 0 0 0 0 0 0 0 0 TTTTTTTTTTTTTFTFT3 84 255 8
 168 Part 16879 255 13 170 SDL/TYSA_NAME79 14 167 SDL/TYSA_UNAME79 15 146 SDL/TY
SA_COLOUR83 3 143 .615686274509804 .811764705882353 .929411764705882 83 3 135 .6
15686274509804 .811764705882353 .929411764705882 81 1 26 181 34 11 0 0 68 85 171
 82 3 119 119 13 1 82 3 171 119 9 1 79 9 118 BTI/DetId82 3 98 119 53 1 81 1 36 1
75 34 52 0 0 30 57 172 82 3 77 119 27 0 82 3 172 119 26 0 81 1 50 179 34 48 0 0
 42 68 173 82 3 71 119 31 0 81 1 42 178 34 32 0 0 55 50 174 82 3 173 119 30 0 82
 3 174 119 29 0 82 3 65 119 18 0 82 3 58 119 28 0 82 3 37 119 19 0 19 18 157 0 1
 0 10 6 0 S0 74 4 CI16 index_map_offset0 0 1 dCCZ20 16 5 0 0 160 162 14 2 139 0
 0 0 0 0 0 0 0 0 0 0 0 0 0 0 80 1 13 131 175 8040 0 0 0 0 3 5 0 0 0 TTTFFFFFFFFF
FFFFF2 83 3 15 .615686274509804 .811764705882353 .929411764705882 79 17 175 SDL/
TYSA_COLOUR_21 0 
