**ABCDEFGHIJKLMNOPQRSTUVWXYZabcdefghijklmnopqrstuvwxyz**************************
**PARASOLID !"#$%&'()*+,-./:;<=>?@[\]^_`{|}~0123456789**************************
**PART1;
MC=unknown;
MC_MODEL=unknown;
MC_ID=unknown;
OS=unknown;
OS_RELEASE=unknown;
FRU=Parasolid 36.0.180;
APPL=Onshape;
SITE=unknown;
USER=unknown;
FORMAT=text;
GUISE=transmit;
KEY=BTGapi::writeModels_.xmt;
FILE=BTGapi::writeModels_.xmt;
DATE=2024-05-15T00:06:35 (UTC);
**PART2;
SCH=SCH_3600180_36001;
USFLD_SIZE=0;
**PART3;
**END_OF_HEADER*****************************************************************
T51 : TRANSMIT FILE created by modeller version 360018023 SCH_3600180_36001_1300
6231 0 12 36 CCCI7 lattice222 0 CCCI4 mesh1006 0 I8 polyline1008 0 CCCCCCCDI5 ow
ner1040 0 CCCI16 boundary_lattice222 0 CCCI13 boundary_mesh1006 0 I17 boundary_p
olyline1008 0 CCCA16 index_map_offset0 0 1 dA9 index_map82 0 A17 node_id_index_m
ap82 0 A20 schema_embedding_map82 0 A5 child12 0 A14 lowest_node_id0 0 1 dA16 me
sh_offset_data206 0 Z1 178 2 3 0 0 0 0 0 0 0 1e3 1e-8 0 4 5 1 0 1 2 6 0 7 8 9 0
 0 10 11 12 0 0 0 0 0 0 0 81 255 1 2 172 13 1 14 0 0 0 15 70 11 CI9 list_type0 0
 1 uI10 notransmit0 0 1 lCCCDCCDI12 finger_index0 0 1 dI12 finger_block1012 0 CZ
3 0 4 T1 0 0 5 20 1 16 16 13 255 6 128 0 1 0 17 0 0 18 0 50 255 7 123 0 19 20 0
 0 +-.6731 -1.823716235984485 5.65981890249639 -1 -150129908673195e-30 -10310126
25827964e-31 150129908673195e-30 -1 0 30 255 8 127 0 21 22 0 0 +-.6731 -2.326228
77990768 5.31471992654914 0 .566107244007959 -.824331600923871 29 255 9 104 0 23
 24 0 .038100000000001 -2.317691175033985 5.3022879755927 19 9 CCCCCCI5 frame230
 0 CA5 owner12 0 Z10 1 0 1 18 0 25 0 V0 16 255 11 108 26 ?27 0 28 29 0 0 1 18 25
5 12 20 30 31 0 32 33 ?1 81 1 30 150 34 12 0 0 35 36 37 17 255 31 0 38 39 40 12
 27 11 0 41 -18 32 23 42 43 12 44 45 ?1 29 33 39 0 12 45 46 .038100000000001 -2.
32622877990768 5.31471992654914 29 45 38 0 32 47 33 .0381000000000007 -1.3212036
92061294 6.00491787844364 29 46 107 0 48 33 49 -.6731 -2.317691175033985 5.30228
79755927 18 48 95 50 51 52 0 46 ?1 29 49 106 0 52 46 24 -.6731 -1.3126660871876
 5.99248592748721 18 52 91 53 54 55 48 49 ?1 29 24 105 0 55 49 9 .03810000000000
07 -1.3126660871876 5.99248592748721 18 55 87 56 57 23 52 24 ?1 81 1 56 147 34 5
5 0 0 58 42 59 17 57 0 60 61 27 55 62 63 0 64 +18 23 83 35 27 65 55 9 ?1 81 1 35
 149 34 23 0 0 42 30 66 17 27 0 60 57 41 23 31 11 0 62 +18 65 29 58 67 44 23 68
 ?1 81 1 58 146 34 65 0 0 50 56 69 17 67 0 70 71 72 65 51 21 0 73 -18 44 26 74 7
5 32 65 47 ?1 29 68 36 0 65 0 47 -.6731 -2.32622877990768 5.31471992654914 29 47
 37 0 44 68 45 -.6731 -1.321203692061294 6.00491787844364 81 1 74 144 34 44 0 0
 53 50 76 17 75 0 77 73 43 44 78 79 0 80 +15 255 77 7 0 81 82 0 17 73 0 77 81 75
 65 71 83 0 39 -17 43 0 77 75 81 32 41 84 0 61 +17 78 0 85 64 80 32 75 79 0 0 -1
6 79 14 86 ?75 84 83 87 0 0 1 17 80 0 85 78 88 44 54 89 0 71 -15 85 116 0 88 90
 0 17 88 0 85 80 64 52 91 92 0 93 +17 54 0 70 72 71 52 80 89 0 88 +16 89 110 36
 ?54 28 21 22 0 0 1 17 71 0 70 54 67 44 73 83 0 0 +15 70 118 0 72 19 0 16 83 17
 94 ?71 79 95 96 0 0 1 81 1 94 158 34 83 0 0 97 98 99 16 95 67 100 ?101 83 63 10
2 0 0 1 30 96 32 0 83 0 87 0 +-.6731 -1.823716235984485 5.65981890249639 -182123
1995776175e-31 .824331600923871 .566107244007959 30 87 33 0 79 96 103 0 +-.3175
 -1.321203692061294 6.00491787844364 -1 0 0 30 103 34 0 84 87 104 0 +.0381000000
0000085 -1.823716235984485 5.65981890249639 -187814549564418e-30 .82433160092387
1 .566107244007959 16 84 11 105 ?43 106 79 103 0 0 1 30 104 35 0 106 103 107 0 +
-.3175 -2.32622877990768 5.31471992654914 -1 0 0 16 106 8 108 ?39 21 84 104 0 0
 1 30 107 103 0 109 104 110 0 +-.6731 -1.81517863111079 5.64738695153996 -182123
1995776175e-31 .824331600923871 .566107244007959 16 109 79 97 ?93 92 0 107 0 0 1
 30 110 102 0 92 107 111 0 +-.3175 -1.3126660871876 5.99248592748721 -1 0 0 16 9
2 75 112 ?88 63 109 110 0 0 1 30 111 101 0 63 110 102 0 +.03810000000000085 -1.8
1517863111079 5.64738695153996 -187814549564418e-30 .824331600923871 .5661072440
07959 16 63 71 98 ?57 95 92 111 0 0 1 30 102 100 0 95 111 29 0 +-.3175 -2.317691
175033985 5.3022879755927 -1 0 0 30 29 124 0 11 102 113 0 +.038100000000001 -2.3
2622877990768 5.31471992654914 0 .566107244007959 -.824331600923871 30 113 125 0
 28 29 22 0 +.0381000000000007 -1.321203692061294 6.00491787844364 0 .5661072440
07959 -.824331600923871 16 28 109 114 ?64 11 89 113 0 0 1 30 22 126 0 89 113 8 0
 +-.6731 -1.321203692061294 6.00491787844364 0 .566107244007959 -.82433160092387
1 81 1 114 153 34 28 0 0 115 26 116 17 64 0 85 88 78 55 61 28 0 91 +17 61 0 60 4
1 57 32 64 28 0 78 -17 91 0 117 62 93 55 88 92 0 0 -15 117 66 0 101 118 0 17 62
 0 117 101 91 23 57 63 0 40 -17 93 0 117 91 101 52 72 109 0 0 +17 101 0 117 93 6
2 48 40 95 0 0 +17 72 0 70 67 54 48 93 109 0 101 -17 40 0 38 31 51 23 101 95 0 0
 -15 38 112 0 40 17 0 17 51 0 38 40 39 48 67 21 0 72 +17 39 0 38 51 31 65 81 106
 0 0 +16 21 111 115 ?51 89 106 8 0 0 1 81 1 115 152 34 21 0 0 36 114 119 80 7 CC
CCCDI12 legal_owners0 17 1 lCZ1 34 120 121 9000 0 0 0 0 3 6 0 0 0 FFTFTFTTFFFFFF
FFF1 81 1 36 151 34 89 0 0 30 115 122 82 255 3 119 117 14 1 82 3 122 117 12 1 79
 255 9 121 BTI/DetId17 81 0 77 43 73 12 39 106 0 0 -14 255 17 113 123 ?124 0 38
 6 125 +0 0 124 0 25 81 1 123 173 126 17 127 0 0 128 129 14 124 115 128 ?90 17 6
0 6 130 -0 0 90 17 25 50 125 120 0 17 131 130 0 +-.3175 -2.32622877990768 5.3147
1992654914 0 -.824331600923871 -.566107244007959 0 .56610724400796 -.82433160092
3872 13 25 3 0 0 0 0 0 0 10 17 50 131 99 0 118 132 125 0 +-.3175 -2.174655018361
73 5.40051762535558 0 -.56610724400796 .824331600923871 1 0 0 50 130 121 0 124 1
25 20 0 +.03810000000000085 -1.823716235984485 5.65981890249639 -1 -154821468319
2325e-31 -106323177038509e-30 1548214683192325e-31 -1 0 50 20 122 0 90 130 7 0 +
-.3175 -1.321203692061294 6.00491787844364 0 -.824331600923871 -.566107244007959
 0 .56610724400796 -.824331600923872 14 90 117 133 ?19 124 85 6 20 -0 0 19 124 2
5 81 1 133 175 126 90 134 0 128 135 136 14 19 119 135 ?82 90 70 6 7 +0 0 82 90 2
5 81 1 135 176 126 19 137 0 133 138 139 14 82 4 138 ?118 19 77 6 132 +0 0 118 19
 25 81 1 138 177 126 82 140 0 135 141 142 14 118 59 141 ?0 82 117 6 131 -0 0 0 8
2 25 50 132 40 0 82 0 131 0 +-.3175 -2.183192623235425 5.41294957631201 0 -.5661
0724400796 .824331600923871 1 0 0 81 1 141 178 126 118 143 0 138 0 144 80 1 126
 0 145 8001 0 0 0 0 3 5 0 0 0 FFFFTFTFFFFFFFFFF2 81 1 143 164 34 118 0 141 127 1
40 146 83 255 3 144 .917647058823529 .917647058823529 .917647058823529 81 1 127
 163 34 17 0 123 86 143 147 81 1 140 165 34 82 0 138 143 137 148 82 3 146 117 19
 2 81 1 137 166 34 19 0 135 140 149 150 82 3 148 117 20 2 81 1 149 167 34 124 0
 128 137 134 151 82 3 150 117 24 2 81 1 128 174 126 124 149 0 123 133 152 81 1 1
34 168 34 90 0 133 149 153 154 82 3 151 117 28 2 81 1 153 169 34 1 0 155 134 0 1
56 82 3 154 117 29 2 81 1 155 170 157 1 153 14 0 0 158 82 3 156 117 3 3 80 1 157
 159 160 8038 0 0 0 0 0 0 0 0 0 TTTTTTTTTTTTTFTFT10 81 1 14 171 159 1 155 2 0 0
 161 98 255 8 158 80 97 114 116 32 49 53 57 80 1 159 162 163 8017 0 0 0 0 0 0 0
 0 0 TTTTTTTTTTTTTFTFT3 84 255 8 161 Part 15979 13 163 SDL/TYSA_NAME79 14 160 SD
L/TYSA_UNAME83 3 152 .917647058823529 .917647058823529 .917647058823529 81 1 86
 162 34 79 0 0 112 127 164 82 3 147 117 18 2 81 1 112 161 34 92 0 0 105 86 165 8
2 3 164 117 63 1 81 1 105 160 34 84 0 0 98 112 166 82 3 165 117 62 1 81 1 98 159
 34 63 0 0 94 105 167 82 3 166 117 61 1 82 3 167 117 60 1 79 15 145 SDL/TYSA_COL
OUR83 3 142 .917647058823529 .917647058823529 .917647058823529 83 3 139 .9176470
58823529 .917647058823529 .917647058823529 83 3 136 .917647058823529 .9176470588
23529 .917647058823529 15 60 114 0 57 124 0 83 3 129 .917647058823529 .917647058
823529 .917647058823529 17 41 0 60 27 61 12 43 84 0 81 -81 1 26 154 34 11 0 0 11
4 100 168 82 3 116 117 15 1 81 1 100 155 34 95 0 0 26 108 169 82 3 168 117 17 1
 81 1 108 156 34 106 0 0 100 97 170 82 3 169 117 52 1 81 1 97 157 34 109 0 0 108
 94 171 82 3 170 117 53 1 82 3 171 117 56 1 82 3 99 117 57 1 81 1 53 143 34 52 0
 0 0 74 172 81 1 50 145 34 48 0 0 74 58 173 82 3 76 117 25 0 82 3 173 117 28 0 8
2 3 172 117 24 0 82 3 69 117 29 0 81 1 42 148 34 32 0 0 56 35 174 82 3 66 117 34
 0 82 3 174 117 31 0 82 3 59 117 30 0 82 3 37 117 35 0 19 18 129 0 1 0 10 6 0 S0
 74 4 CI16 index_map_offset0 0 1 dCCZ20 16 5 0 0 153 155 14 2 141 0 0 0 0 0 0 0
 0 0 0 0 0 0 0 0 80 1 13 126 175 8040 0 0 0 0 3 5 0 0 0 TTTFFFFFFFFFFFFFF2 83 3
 15 .917647058823529 .917647058823529 .917647058823529 79 17 175 SDL/TYSA_COLOUR
_21 0 
