**ABCDEFGHIJKLMNOPQRSTUVWXYZabcdefghijklmnopqrstuvwxyz**************************
**PARASOLID !"#$%&'()*+,-./:;<=>?@[\]^_`{|}~0123456789**************************
**PART1;
MC=unknown;
MC_MODEL=unknown;
MC_ID=unknown;
OS=unknown;
OS_RELEASE=unknown;
FRU=Parasolid 36.0.180;
APPL=Onshape;
SITE=unknown;
USER=unknown;
FORMAT=text;
GUISE=transmit;
KEY=BTGapi::writeModels_.xmt;
FILE=BTGapi::writeModels_.xmt;
DATE=2024-05-15T00:06:35 (UTC);
**PART2;
SCH=SCH_3600180_36001;
USFLD_SIZE=0;
**PART3;
**END_OF_HEADER*****************************************************************
T51 : TRANSMIT FILE created by modeller version 360018023 SCH_3600180_36001_1300
6231 0 12 36 CCCI7 lattice222 0 CCCI4 mesh1006 0 I8 polyline1008 0 CCCCCCCDI5 ow
ner1040 0 CCCI16 boundary_lattice222 0 CCCI13 boundary_mesh1006 0 I17 boundary_p
olyline1008 0 CCCA16 index_map_offset0 0 1 dA9 index_map82 0 A17 node_id_index_m
ap82 0 A20 schema_embedding_map82 0 A5 child12 0 A14 lowest_node_id0 0 1 dA16 me
sh_offset_data206 0 Z1 335 2 3 0 0 0 0 0 0 0 1e3 1e-8 0 4 5 1 0 1 2 6 0 7 8 9 0
 0 10 11 12 0 0 0 0 0 0 0 81 255 1 2 329 13 1 14 0 0 0 15 70 11 CI9 list_type0 0
 1 uI10 notransmit0 0 1 lCCCDCCDI12 finger_index0 0 1 dI12 finger_block1012 0 CZ
3 0 4 T1 0 0 5 20 1 16 16 13 255 6 227 0 1 0 17 0 0 18 0 50 255 7 222 0 17 19 0
 0 +1.3843 0 3.6576 0 0 -1 -1 0 0 30 255 8 226 0 11 20 0 0 +1.3843 -3.048 3.6576
 1 0 0 29 255 9 203 0 21 22 0 1.4732 3.048 3.6576 19 9 CCCCCCI5 frame230 0 CA5 o
wner12 0 Z10 102 0 1 18 0 23 0 V0 16 255 11 210 24 ?25 0 26 8 0 0 1 18 255 12 96
 27 28 0 29 30 ?1 81 1 27 303 31 12 0 0 32 33 34 17 255 28 0 35 36 37 12 38 39 0
 40 -18 29 91 41 38 12 42 43 ?1 29 30 98 0 12 43 44 1.3843 3.048 3.6576 29 43 93
 0 29 45 30 1.3843 3.048 3.99415 29 44 206 0 46 30 47 1.4732 -3.048 3.6576 18 46
 194 48 49 50 0 44 ?1 29 47 205 0 50 44 22 1.4732 -3.048 3.99415 18 50 190 33 51
 52 46 47 ?1 29 22 204 0 52 47 9 1.4732 3.048 3.99415 18 52 186 53 54 21 50 22 ?
1 81 1 53 306 31 52 0 0 55 41 56 17 54 0 57 51 58 52 59 60 0 61 +18 21 182 32 59
 62 52 9 ?1 81 1 32 302 31 21 0 0 63 27 64 17 59 0 65 40 61 21 54 60 0 66 -18 62
 61 63 67 42 21 68 ?1 81 1 63 301 31 62 0 0 48 32 69 17 67 0 70 25 71 62 72 73 0
 36 -18 42 66 55 74 29 62 45 ?1 29 68 63 0 62 0 45 1.3843 -3.048 3.6576 29 45 68
 0 42 68 43 1.3843 -3.048 3.99415 81 1 55 305 31 42 0 0 33 53 75 17 74 0 76 77 7
8 42 37 79 0 72 -15 255 76 213 0 80 81 0 17 77 0 76 80 74 50 71 26 0 82 +17 78 0
 76 74 80 29 61 83 0 0 -17 37 0 35 28 72 29 74 79 0 78 +16 79 25 84 ?37 39 73 85
 0 0 1 17 72 0 35 37 36 42 67 73 0 71 +15 35 6 0 36 86 0 17 36 0 35 72 28 62 87
 88 0 89 -16 73 20 90 ?72 79 88 91 0 0 1 17 71 0 70 67 82 42 77 26 0 0 -15 70 21
5 0 82 92 0 17 82 0 70 71 25 50 49 93 0 0 +16 26 209 94 ?77 11 83 20 0 0 1 81 1
 94 310 31 26 0 0 95 96 97 16 83 208 96 ?61 26 98 99 0 0 1 30 20 225 0 26 99 8 0
 +1.3843 -3.048 3.99415 1 0 0 30 99 224 0 83 100 20 0 +1.3843 3.048 3.99415 1 0
 0 30 100 223 0 98 101 99 0 +1.3843 3.048 3.6576 1 0 0 16 98 207 95 ?66 83 39 10
0 0 0 1 30 101 199 0 60 102 100 0 +1.4732 3.048 3.825875 0 0 1 16 60 158 103 ?54
 88 104 101 0 0 1 30 102 200 0 104 105 101 0 +1.4732 0 3.99415 0 1 0 16 104 162
 106 ?80 60 93 102 0 0 1 30 105 201 0 93 107 102 0 +1.4732 -3.048 3.825875 0 0 1
 16 93 170 108 ?82 104 109 105 0 0 1 30 107 202 0 109 110 105 0 +1.4732 0 3.6576
 0 1 0 16 109 174 111 ?58 93 0 107 0 0 1 30 110 48 0 39 85 107 0 +1.3843 3.048 3
.825875 0 0 1 16 39 46 112 ?38 98 79 110 0 0 1 30 85 27 0 79 91 110 0 +1.3843 0
 3.99415 0 1 0 30 91 22 0 73 113 85 0 +1.3843 -3.048 3.825875 0 0 1 30 113 17 0
 88 0 91 0 +1.3843 0 3.6576 0 1 0 16 88 15 114 ?87 73 60 113 0 0 1 81 1 114 313
 31 88 0 0 111 106 115 17 87 0 116 66 89 12 36 88 0 0 +15 116 217 0 117 17 0 17
 66 0 116 117 87 21 40 98 0 58 +17 89 0 116 87 117 62 25 11 0 0 -17 117 0 116 89
 66 46 58 109 0 0 -17 25 0 70 82 67 46 89 11 0 117 +17 58 0 57 54 49 21 117 109
 0 0 +15 57 157 0 58 118 0 17 49 0 57 58 51 46 82 93 0 25 -17 51 0 57 49 54 50 8
0 104 0 77 -17 80 0 76 78 77 52 51 104 0 0 +14 255 118 144 119 ?0 86 57 6 120 -0
 0 0 86 23 81 1 119 335 121 118 122 0 123 0 124 14 86 1 123 ?118 125 35 6 126 +0
 0 118 125 23 50 120 198 0 118 126 127 0 +1.4732 0 2.40919 -1 0 0 0 -1 0 13 23 1
03 0 0 0 0 0 0 10 17 14 17 218 128 ?92 0 116 6 7 +0 0 92 0 23 81 1 128 330 121 1
7 129 0 0 130 131 14 92 216 130 ?81 17 70 6 19 -0 0 81 17 23 81 1 130 331 121 92
 132 0 128 133 134 14 81 214 133 ?125 92 76 6 135 -0 0 125 92 23 50 19 221 0 92
 135 7 0 +1.3843 -3.048 3.825875 0 1 0 0 0 1 50 135 220 0 81 127 19 0 +1.3843 0
 3.99415 0 0 -1 -1 0 0 50 127 219 0 125 120 135 0 +1.3843 3.048 3.825875 0 1 0 0
 0 1 14 125 212 136 ?86 81 65 6 127 +0 0 86 81 23 81 1 136 333 121 125 137 0 133
 123 138 15 65 211 0 59 125 0 80 7 CCCCCDI12 legal_owners0 17 1 lCZ1 121 0 139 8
001 0 0 0 0 3 5 0 0 0 FFFFTFTFFFFFFFFFF2 81 1 137 325 31 125 0 136 132 140 141 8
1 1 133 332 121 81 142 0 130 136 143 81 1 123 334 121 86 144 0 136 119 145 83 25
5 3 138 .647058823529412 .647058823529412 .647058823529412 81 1 144 322 31 86 0
 123 122 142 146 83 3 145 .647058823529412 .647058823529412 .647058823529412 80
 1 31 147 148 9000 0 0 0 0 3 6 0 0 0 FFTFTFTTFFFFFFFFF1 81 1 122 321 31 118 0 11
9 129 144 149 81 1 142 323 31 81 0 133 144 132 150 82 255 3 146 16 14 2 81 1 132
 324 31 92 0 130 142 137 151 82 3 150 16 15 2 82 3 151 16 16 2 81 1 129 320 31 1
7 0 128 112 122 152 82 3 149 16 13 2 81 1 112 319 31 39 0 0 103 129 153 82 3 152
 16 12 2 81 1 103 318 31 60 0 0 90 112 154 82 3 153 16 35 1 81 1 90 317 31 73 0
 0 108 103 155 82 3 154 16 34 1 81 1 108 316 31 93 0 0 84 90 156 82 3 155 16 33
 1 81 1 84 315 31 79 0 0 106 108 157 82 3 156 16 32 1 81 1 106 314 31 104 0 0 11
4 84 158 82 3 157 16 31 1 82 3 158 16 30 1 79 255 9 148 BTI/DetId83 3 143 .64705
8823529412 .647058823529412 .647058823529412 81 1 140 326 31 1 0 159 137 0 160 8
2 3 141 16 17 2 81 1 159 327 161 1 140 14 0 0 162 82 3 160 16 2 3 80 1 161 163 1
64 8038 0 0 0 0 0 0 0 0 0 TTTTTTTTTTTTTFTFT10 81 1 14 328 163 1 159 2 0 0 165 98
 255 26 162 80 97 114 116 32 49 50 32 51 46 53 120 49 51 46 50 53 120 50 48 102
 116 32 98 111 116 80 1 163 166 167 8017 0 0 0 0 0 0 0 0 0 TTTTTTTTTTTTTFTFT3 84
 255 26 165 Part 12 3.5x13.25x20ft bot79 13 167 SDL/TYSA_NAME79 14 164 SDL/TYSA_
UNAME79 15 139 SDL/TYSA_COLOUR83 3 134 .647058823529412 .647058823529412 .647058
823529412 83 3 131 .647058823529412 .647058823529412 .647058823529412 50 126 3 0
 86 0 120 0 +1.3843 0 2.40919 -1 0 0 0 -1 0 83 3 124 .647058823529412 .647058823
529412 .647058823529412 17 40 0 65 38 59 12 66 98 0 87 -17 38 0 65 61 40 29 28 3
9 0 37 +17 61 0 65 59 38 52 78 83 0 80 +81 1 111 312 31 109 0 0 96 114 168 82 3
 115 16 29 1 81 1 96 311 31 83 0 0 94 111 169 82 3 168 16 28 1 82 3 169 16 27 1
 81 1 95 309 31 98 0 0 24 94 170 81 1 24 308 31 11 0 0 41 95 171 82 3 170 16 25
 1 81 1 41 307 31 29 0 0 53 24 172 82 3 171 16 24 1 82 3 172 16 23 0 82 3 97 16
 26 1 81 1 33 304 31 50 0 0 27 55 173 82 3 75 16 21 0 82 3 173 16 20 0 81 1 48 3
00 31 46 0 0 0 63 174 82 3 69 16 17 0 82 3 174 16 16 0 82 3 64 16 18 0 82 3 56 1
6 22 0 82 3 34 16 19 0 19 18 228 0 1 0 10 6 0 S0 74 4 CI16 index_map_offset0 0 1
 dCCZ20 16 5 0 0 140 159 14 2 119 0 0 0 0 0 0 0 0 0 0 0 0 0 0 0 80 1 13 121 175
 8040 0 0 0 0 3 5 0 0 0 TTTFFFFFFFFFFFFFF2 83 3 15 .647058823529412 .64705882352
9412 .647058823529412 79 17 175 SDL/TYSA_COLOUR_21 0 
