**ABCDEFGHIJKLMNOPQRSTUVWXYZabcdefghijklmnopqrstuvwxyz**************************
**PARASOLID !"#$%&'()*+,-./:;<=>?@[\]^_`{|}~0123456789**************************
**PART1;
MC=unknown;
MC_MODEL=unknown;
MC_ID=unknown;
OS=unknown;
OS_RELEASE=unknown;
FRU=Parasolid 36.0.180;
APPL=Onshape;
SITE=unknown;
USER=unknown;
FORMAT=text;
GUISE=transmit;
KEY=BTGapi::writeModels_.xmt;
FILE=BTGapi::writeModels_.xmt;
DATE=2024-05-15T00:06:35 (UTC);
**PART2;
SCH=SCH_3600180_36001;
USFLD_SIZE=0;
**PART3;
**END_OF_HEADER*****************************************************************
T51 : TRANSMIT FILE created by modeller version 360018023 SCH_3600180_36001_1300
6231 0 12 36 CCCI7 lattice222 0 CCCI4 mesh1006 0 I8 polyline1008 0 CCCCCCCDI5 ow
ner1040 0 CCCI16 boundary_lattice222 0 CCCI13 boundary_mesh1006 0 I17 boundary_p
olyline1008 0 CCCA16 index_map_offset0 0 1 dA9 index_map82 0 A17 node_id_index_m
ap82 0 A20 schema_embedding_map82 0 A5 child12 0 A14 lowest_node_id0 0 1 dA16 me
sh_offset_data206 0 Z1 143 2 3 0 0 0 0 0 0 0 1e3 1e-8 0 4 5 1 0 1 2 6 0 7 8 9 0
 0 10 11 12 0 0 0 0 0 0 0 81 255 1 2 137 13 1 14 0 0 0 15 70 11 CI9 list_type0 0
 1 uI10 notransmit0 0 1 lCCCDCCDI12 finger_index0 0 1 dI12 finger_block1012 0 CZ
3 0 4 T1 0 0 5 20 1 16 16 13 255 6 5 0 1 0 17 0 0 18 0 50 255 7 90 0 19 20 0 0 +
-1.663702 1.800225 3.825875 0 1 0 0 0 1 30 255 8 98 0 21 22 0 0 +-1.663702 1.800
225 3.6576 1 0 0 29 255 9 85 0 12 23 0 -1.4732 1.736725 3.6576 19 9 CCCCCCI5 fra
me230 0 CA5 owner12 0 Z10 1 0 1 18 0 24 0 V0 16 255 11 29 25 ?26 0 27 28 0 0 1 1
8 255 12 53 29 30 0 31 9 ?1 81 1 29 108 32 12 0 0 0 33 34 17 255 30 0 35 36 37 1
2 38 39 0 40 +18 31 57 41 42 12 43 23 ?1 81 1 41 110 32 31 0 0 33 44 45 17 42 0
 46 47 48 31 49 50 0 36 +18 43 61 51 52 31 53 54 ?1 29 23 84 0 31 54 9 -1.4732 1
.736725 3.99415 29 54 83 0 43 55 23 -1.4732 1.800225 3.99415 29 55 82 0 53 56 54
 -1.4732 1.800225 3.6576 18 53 65 57 58 43 59 55 ?1 29 56 81 0 59 60 55 -1.6637
 1.800225 3.6576 18 59 69 61 62 53 63 56 ?1 29 60 80 0 63 64 56 -1.6637 1.800225
 3.99415 18 63 70 65 66 59 67 60 ?1 29 64 79 0 67 68 60 -1.6637 1.736725 3.6576
 18 67 71 33 38 63 69 64 ?1 29 68 78 0 69 0 64 -1.6637 1.736725 3.99415 18 69 72
 44 49 67 0 68 ?1 81 1 44 111 32 69 0 0 41 57 70 17 49 0 35 37 36 69 42 50 0 71
 -15 255 35 11 0 37 72 0 17 37 0 35 30 49 67 71 73 0 0 -17 36 0 35 49 30 31 40 2
7 0 74 +16 50 47 75 ?42 76 39 77 0 0 1 17 71 0 78 79 80 69 37 73 0 48 +15 78 8 0
 80 17 0 17 79 0 78 62 71 63 48 81 0 82 +17 80 0 78 71 62 67 83 84 0 37 -16 73 5
1 85 ?71 84 81 86 0 0 1 17 48 0 46 42 82 69 79 81 0 0 -15 46 22 0 48 87 0 17 82
 0 46 48 47 63 52 76 0 0 -16 81 52 88 ?79 73 0 89 0 0 1 81 1 88 123 32 81 0 0 90
 91 92 30 89 94 0 81 86 93 0 +-1.6637 0 3.99415 0 1 0 30 86 93 0 73 94 89 0 +-1.
6637 1.736725 3.825875 0 0 1 30 93 95 0 39 89 77 0 +-1.663702 1.736725 3.6576 1
 0 0 16 39 48 95 ?30 50 96 93 0 0 1 30 77 96 0 50 93 22 0 +-1.663702 1.736725 3.
99415 1 0 0 30 22 97 0 76 77 8 0 +-1.663702 1.800225 3.99415 1 0 0 16 76 46 97 ?
52 21 50 22 0 0 1 81 1 97 119 32 76 0 0 98 25 99 17 52 0 100 101 66 43 82 76 0 4
7 +16 21 45 98 ?58 102 76 8 0 0 1 81 1 98 118 32 21 0 0 75 97 103 17 58 0 104 10
5 83 53 106 21 0 26 +16 102 41 107 ?108 109 21 110 0 0 1 81 1 107 126 32 102 0 0
 85 111 112 17 108 0 113 74 26 43 101 102 0 0 +16 109 37 90 ?47 27 102 114 0 0 1
 30 110 74 0 102 0 115 0 +-1.4732 1.800225 3.825875 0 0 1 30 115 75 0 27 110 114
 0 +-1.4732 1.736725 3.825875 0 0 1 16 27 33 91 ?36 11 109 115 0 0 1 30 114 76 0
 109 115 28 0 +-1.4732 0 3.99415 0 1 0 30 28 77 0 11 114 116 0 +-1.4732 0 3.6576
 0 1 0 30 116 91 0 96 28 94 0 +-1.6637 1.800225 3.825875 0 0 1 16 96 49 111 ?66
 39 84 116 0 0 1 30 94 92 0 84 116 86 0 +-1.6637 0 3.6576 0 1 0 16 84 50 117 ?83
 96 73 94 0 0 1 81 1 117 121 32 84 0 0 25 90 118 17 83 0 104 58 38 59 80 84 0 10
6 +15 104 25 0 38 119 0 17 38 0 104 83 105 67 30 39 0 80 -17 106 0 100 66 101 59
 58 21 0 0 -15 100 28 0 106 19 0 17 66 0 100 52 106 63 62 96 0 79 +17 101 0 100
 106 52 53 108 102 0 0 -17 62 0 78 80 79 59 66 96 0 83 -14 255 19 26 120 ?0 119
 100 6 7 +0 0 17 119 24 81 1 120 143 121 19 122 0 123 0 124 14 119 23 123 ?19 87
 104 6 125 +0 0 19 87 24 14 17 6 126 ?72 0 78 6 127 +0 0 0 19 24 13 24 3 0 0 0 0
 0 0 10 72 14 72 9 128 ?129 17 35 6 130 -0 0 129 0 24 81 1 128 139 121 72 131 0
 126 132 133 14 129 12 132 ?87 72 113 6 134 -0 0 87 72 24 50 130 88 0 72 125 20
 0 +-1.663702 1.736725 3.825875 0 1 0 0 0 1 50 125 87 0 119 127 130 0 +-1.663702
 0 3.6576 0 0 -1 -1 0 0 50 20 89 0 87 130 7 0 +-1.663702 0 3.99415 0 0 -1 -1 0 0
 14 87 20 135 ?119 129 46 6 20 -0 0 119 129 24 81 1 135 141 121 87 136 0 132 123
 137 80 7 CCCCCDI12 legal_owners0 17 1 lCZ1 121 0 138 8001 0 0 0 0 3 5 0 0 0 FFF
FTFTFFFFFFFFFF2 81 1 136 131 32 87 0 135 139 131 140 81 1 132 140 121 129 141 0
 128 135 142 81 1 123 142 121 119 143 0 135 120 144 83 255 3 137 .97254901960784
3 .529411764705882 .00392156862745098 81 1 143 128 32 119 0 123 111 141 145 83 3
 144 .972549019607843 .529411764705882 .00392156862745098 80 1 32 146 147 9000 0
 0 0 0 3 6 0 0 0 FFTFTFTTFFFFFFFFF1 81 1 111 127 32 96 0 0 107 143 148 81 1 141
 129 32 129 0 132 143 139 149 82 255 3 145 123 3 2 81 1 139 130 32 17 0 126 141
 136 150 82 3 149 123 4 2 81 1 126 138 121 17 139 0 0 128 151 82 3 150 123 5 2 8
3 3 151 .972549019607843 .529411764705882 .00392156862745098 82 3 148 123 131 1
 79 255 9 147 BTI/DetId83 3 142 .972549019607843 .529411764705882 .0039215686274
5098 81 1 131 132 32 72 0 128 136 122 152 82 3 140 123 46 2 81 1 122 133 32 19 0
 120 131 153 154 82 3 152 123 64 2 81 1 153 134 32 1 0 155 122 0 156 82 3 154 12
3 65 2 81 1 155 135 157 1 153 14 0 0 158 82 3 156 123 1 3 80 1 157 159 160 8038
 0 0 0 0 0 0 0 0 0 TTTTTTTTTTTTTFTFT10 81 1 14 136 159 1 155 2 0 0 161 98 255 8
 158 80 97 114 116 32 49 56 55 80 1 159 162 163 8017 0 0 0 0 0 0 0 0 0 TTTTTTTTT
TTTTFTFT3 84 255 8 161 Part 18779 13 163 SDL/TYSA_NAME79 14 160 SDL/TYSA_UNAME79
 15 138 SDL/TYSA_COLOUR50 127 86 0 17 134 125 0 +-1.6637 0 2.40919 -1 0 0 0 -1 0
 50 134 73 0 129 0 127 0 +-1.4732 0 3.281358674698795 -1 0 0 0 -1 0 15 113 19 0
 26 129 0 17 26 0 113 108 40 53 105 11 0 101 +17 40 0 113 26 74 12 36 27 0 105 -
17 105 0 104 38 58 12 26 11 0 0 -17 74 0 113 40 108 31 47 109 0 0 -17 47 0 46 82
 42 43 74 109 0 108 +83 3 133 .972549019607843 .529411764705882 .003921568627450
98 83 3 124 .972549019607843 .529411764705882 .00392156862745098 81 1 25 120 32
 11 0 0 97 117 164 81 1 90 122 32 109 0 0 117 88 165 82 3 118 123 51 1 82 3 165
 123 92 1 82 3 164 123 50 1 81 1 91 124 32 27 0 0 88 85 166 81 1 85 125 32 73 0
 0 91 107 167 82 3 166 123 128 1 82 3 167 123 129 1 82 3 112 123 130 1 81 1 75 1
17 32 50 0 0 95 98 168 82 3 103 123 35 1 81 1 95 116 32 39 0 0 65 75 169 82 3 16
8 123 34 1 81 1 65 115 32 63 0 0 51 95 170 82 3 169 123 33 1 81 1 51 114 32 43 0
 0 61 65 171 82 3 170 123 73 0 81 1 61 113 32 59 0 0 57 51 172 82 3 171 123 72 0
 81 1 57 112 32 53 0 0 44 61 173 82 3 172 123 71 0 82 3 173 123 70 0 82 3 99 123
 36 1 82 3 92 123 93 1 82 3 70 123 69 0 81 1 33 109 32 67 0 0 29 41 174 82 3 174
 123 67 0 82 3 45 123 68 0 82 3 34 123 66 0 19 18 4 0 1 0 10 6 0 S0 74 4 CI16 in
dex_map_offset0 0 1 dCCZ20 16 5 0 0 153 155 14 2 120 0 0 0 0 0 0 0 0 0 0 0 0 0 0
 0 80 1 13 121 175 8040 0 0 0 0 3 5 0 0 0 TTTFFFFFFFFFFFFFF2 83 3 15 .9725490196
07843 .529411764705882 .00392156862745098 79 17 175 SDL/TYSA_COLOUR_21 0 
