**ABCDEFGHIJKLMNOPQRSTUVWXYZabcdefghijklmnopqrstuvwxyz**************************
**PARASOLID !"#$%&'()*+,-./:;<=>?@[\]^_`{|}~0123456789**************************
**PART1;
MC=unknown;
MC_MODEL=unknown;
MC_ID=unknown;
OS=unknown;
OS_RELEASE=unknown;
FRU=Parasolid 36.0.180;
APPL=Onshape;
SITE=unknown;
USER=unknown;
FORMAT=text;
GUISE=transmit;
KEY=BTGapi::writeModels_.xmt;
FILE=BTGapi::writeModels_.xmt;
DATE=2024-05-15T00:06:35 (UTC);
**PART2;
SCH=SCH_3600180_36001;
USFLD_SIZE=0;
**PART3;
**END_OF_HEADER*****************************************************************
T51 : TRANSMIT FILE created by modeller version 360018023 SCH_3600180_36001_1300
6231 0 12 36 CCCI7 lattice222 0 CCCI4 mesh1006 0 I8 polyline1008 0 CCCCCCCDI5 ow
ner1040 0 CCCI16 boundary_lattice222 0 CCCI13 boundary_mesh1006 0 I17 boundary_p
olyline1008 0 CCCA16 index_map_offset0 0 1 dA9 index_map82 0 A17 node_id_index_m
ap82 0 A20 schema_embedding_map82 0 A5 child12 0 A14 lowest_node_id0 0 1 dA16 me
sh_offset_data206 0 Z1 454 2 3 0 0 0 0 0 0 0 1e3 1e-8 0 4 5 1 0 1 2 6 0 7 8 9 0
 0 10 11 12 0 0 0 0 0 0 0 81 255 1 2 446 13 1 14 0 0 0 15 70 11 CI9 list_type0 0
 1 uI10 notransmit0 0 1 lCCCDCCDI12 finger_index0 0 1 dI12 finger_block1012 0 CZ
3 0 4 T1 0 0 5 20 1 16 16 13 255 6 202 0 1 0 17 0 0 18 0 50 255 7 336 0 17 19 0
 0 +-.09525 2.54 4.174193118566045 -1 0 0 0 0 1 30 255 8 342 0 11 20 0 0 +-.0952
5 2.54 4.269443118566045 0 1 0 29 255 9 307 0 21 22 0 -1.4732 2.7305 2.970400802
19812 19 9 CCCCCCI5 frame230 0 CA5 owner12 0 Z10 200 0 1 18 0 23 0 V0 16 255 11
 318 24 ?25 0 26 8 0 0 1 18 255 12 194 27 28 0 29 30 ?1 81 1 27 416 31 12 0 0 32
 33 34 17 255 28 0 35 36 37 12 38 39 0 40 +18 29 189 41 42 12 43 44 ?1 29 30 196
 0 12 44 45 -1.4732 2.54 2.97040080219812 29 44 191 0 29 46 30 -1.4732 2.54 2.70
099311856604 29 45 312 0 47 30 48 -.09525 2.7305 4.269443118566045 18 47 296 49
 50 51 0 45 ?1 29 48 311 0 51 45 52 -.105706881433958 2.7305 4.2799 18 51 292 53
 54 55 47 48 ?1 29 52 310 0 55 48 56 -.163700802198117 2.7305 4.2799 18 55 288 5
7 58 59 51 52 ?1 29 56 309 0 59 52 22 -.09525 2.7305 4.07894311856604 18 59 284
 60 61 62 55 56 ?1 29 22 308 0 62 56 9 -1.4732 2.7305 2.70099311856604 18 62 280
 63 64 21 59 22 ?1 81 1 63 407 31 62 0 0 65 41 66 17 64 0 67 68 69 62 61 70 0 71
 -18 21 276 32 68 72 62 9 ?1 81 1 32 415 31 21 0 0 73 27 74 17 68 0 67 58 64 21
 75 76 0 36 +18 72 159 77 78 79 21 80 ?1 81 1 77 412 31 72 0 0 49 60 81 17 78 0
 82 25 83 72 84 85 0 86 -18 79 164 65 87 88 72 89 ?1 29 80 161 0 72 0 89 -.09525
 2.54 4.269443118566045 29 89 166 0 79 80 90 -.105706881433958 2.54 4.2799 29 90
 171 0 88 89 46 -.163700802198117 2.54 4.2799 18 88 169 91 92 43 79 90 ?1 29 46
 186 0 43 90 44 -.09525 2.54 4.07894311856604 18 43 184 73 93 29 88 46 ?1 81 1 7
3 414 31 43 0 0 60 32 94 17 93 0 95 86 38 43 42 96 0 97 +15 255 95 14 0 86 98 0
 17 86 0 95 84 93 72 99 100 0 101 -17 38 0 95 93 40 29 28 39 0 37 -17 42 0 102 7
1 97 29 93 96 0 38 -16 96 94 103 ?93 39 104 105 0 0 1 17 97 0 102 42 61 43 106 1
07 0 99 -15 102 321 0 61 108 0 17 61 0 102 97 71 59 64 70 0 106 +17 106 0 109 11
0 99 59 97 107 0 69 +16 107 315 111 ?106 112 39 113 0 0 1 17 99 0 109 106 101 43
 86 100 0 0 +15 109 329 0 110 17 0 17 101 0 109 99 110 72 25 11 0 0 -16 100 69 1
14 ?99 85 76 115 0 0 1 81 1 114 434 31 100 0 0 116 117 118 16 85 74 119 ?84 120
 100 121 0 0 1 16 76 248 122 ?68 100 70 123 0 0 1 30 115 71 0 100 0 121 0 +-.095
25 2.54 4.174193118566045 0 0 -1 30 121 76 0 85 115 124 0 +-.1004784407169796 2.
54 4.27467155928302 -.707106781186551 0 .707106781186544 30 124 81 0 120 121 125
 0 +-.1347038418160374 2.54 4.2799 -1 0 0 16 120 79 126 ?127 104 85 124 0 0 1 30
 125 86 0 104 124 105 0 +-.306575802198117 2.54 4.137025 -.707106781186548 0 -.7
07106781186547 16 104 84 128 ?40 96 120 125 0 0 1 30 105 96 0 96 125 129 0 +-.13
76465592830214 2.54 4.03654655928302 .707106781186547 0 .707106781186548 30 129
 101 0 39 105 130 0 +-1.4732 2.54 2.83569696038208 0 0 1 16 39 99 131 ?28 107 96
 129 0 0 1 30 130 306 0 132 129 133 0 +-.09525 2.7305 4.174193118566045 0 0 -1 1
6 132 272 116 ?69 134 0 130 0 0 1 30 133 305 0 134 130 135 0 +-.1004784407169796
 2.7305 4.27467155928302 -.707106781186551 0 .707106781186544 16 134 268 136 ?13
7 138 132 133 0 0 1 30 135 304 0 138 133 139 0 +-.1347038418160374 2.7305 4.2799
 -1 0 0 16 138 264 140 ?141 142 134 135 0 0 1 30 139 303 0 142 135 143 0 +-.3065
75802198117 2.7305 4.137025 -.707106781186548 0 -.707106781186547 16 142 258 144
 ?145 70 138 139 0 0 1 30 143 302 0 70 139 123 0 +-.1376465592830214 2.7305 4.03
654655928302 .707106781186547 0 .707106781186548 16 70 252 146 ?61 76 142 143 0
 0 1 30 123 301 0 76 143 147 0 +-1.4732 2.7305 2.83569696038208 0 0 1 30 147 337
 0 148 123 149 0 +-1.4732 2.54 2.97040080219812 0 1 0 16 148 313 150 ?36 151 112
 147 0 0 1 30 149 338 0 112 147 113 0 +-1.4732 2.54 2.70099311856604 0 1 0 16 11
2 314 152 ?71 148 107 149 0 0 1 30 113 339 0 107 149 153 0 +-.09525 2.54 4.07894
311856604 0 1 0 30 153 340 0 151 113 20 0 +-.163700802198117 2.54 4.2799 0 1 0 1
6 151 316 154 ?155 26 148 153 0 0 1 30 20 341 0 26 153 8 0 +-.105706881433958 2.
54 4.2799 0 1 0 16 26 317 33 ?156 11 151 20 0 0 1 81 1 33 417 31 26 0 0 27 152 1
57 17 156 0 158 141 87 51 83 26 0 137 +15 158 325 0 141 159 0 17 141 0 158 160 1
56 55 54 138 0 0 +17 87 0 158 156 160 79 127 120 0 84 -17 83 0 82 78 137 79 156
 26 0 0 -17 137 0 82 83 25 51 50 134 0 0 +15 82 327 0 137 161 0 17 25 0 82 137 7
8 47 101 11 0 110 +17 50 0 67 69 54 47 137 134 0 25 -15 67 247 0 69 162 0 17 69
 0 67 64 50 59 110 132 0 0 +17 54 0 67 50 58 51 141 138 0 156 -17 58 0 67 54 68
 55 145 142 0 155 -17 145 0 163 164 155 21 58 142 0 0 +17 155 0 163 145 92 55 16
0 151 0 141 +15 163 323 0 145 165 0 17 92 0 163 155 164 88 40 104 0 127 -17 160
 0 158 87 141 88 155 151 0 0 -17 164 0 163 92 145 12 36 148 0 0 -17 40 0 95 38 1
27 12 92 104 0 164 +17 127 0 95 40 84 88 87 120 0 160 +17 84 0 95 127 86 79 78 8
5 0 83 +17 36 0 35 75 28 21 164 148 0 145 +15 35 319 0 75 166 0 17 75 0 35 37 36
 62 68 76 0 0 -17 37 0 35 28 75 29 71 112 0 0 -17 71 0 102 61 42 62 37 112 0 75
 +14 255 166 320 167 ?108 165 35 6 168 -0 0 108 165 23 81 1 167 451 169 166 170
 0 171 172 173 14 108 322 172 ?98 166 102 6 174 +0 0 98 166 23 14 165 324 171 ?1
66 159 163 6 175 +0 0 166 159 23 50 168 331 0 166 176 174 0 +-1.4732 2.54 2.8356
9696038208 1 0 0 0 0 -1 13 23 343 0 0 0 0 0 0 10 17 14 17 330 177 ?161 0 109 6 7
 -0 0 161 0 23 81 1 177 447 169 17 178 0 0 179 180 14 161 328 179 ?159 17 82 6 1
9 +0 0 159 17 23 81 1 179 448 169 161 181 0 177 182 183 14 159 326 182 ?165 161
 158 6 184 +0 0 165 161 23 50 19 335 0 161 184 7 0 +-.1004784407169796 2.54 4.27
467155928302 .707106781186544 0 .707106781186551 .707106781186551 0 -.7071067811
86544 50 184 334 0 159 175 19 0 +-.1347038418160374 2.54 4.2799 0 0 1 1 0 0 50 1
75 333 0 165 174 184 0 +-.306575802198117 2.54 4.137025 -.707106781186547 0 .707
106781186548 .707106781186548 0 .707106781186547 50 174 332 0 108 168 175 0 +-.1
376465592830214 2.54 4.03654655928302 .707106781186548 0 -.707106781186547 -.707
106781186547 0 -.707106781186548 81 1 182 449 169 159 117 0 179 171 185 80 7 CCC
CCDI12 legal_owners0 17 1 lCZ1 169 0 186 8001 0 0 0 0 3 5 0 0 0 FFFFTFTFFFFFFFFF
F2 81 1 117 435 31 159 0 182 114 187 188 81 1 171 450 169 165 189 0 182 167 190
 83 255 3 185 .647058823529412 .647058823529412 .647058823529412 81 1 189 440 31
 165 0 171 191 170 192 83 3 190 .647058823529412 .647058823529412 .6470588235294
12 80 1 31 193 194 9000 0 0 0 0 3 6 0 0 0 FFTFTFTTFFFFFFFFF1 81 1 191 439 31 108
 0 172 181 189 195 81 1 170 441 31 166 0 167 189 178 196 82 255 3 192 191 12 2 8
1 1 178 442 31 17 0 177 170 197 198 82 3 196 191 13 2 81 1 197 443 31 1 0 199 17
8 0 200 82 3 198 191 14 2 81 1 199 444 201 1 197 14 0 0 202 82 3 200 191 1 3 80
 1 201 203 204 8038 0 0 0 0 0 0 0 0 0 TTTTTTTTTTTTTFTFT10 81 1 14 445 203 1 199
 2 0 0 205 98 255 8 202 80 97 114 116 32 51 49 53 80 1 203 206 207 8017 0 0 0 0
 0 0 0 0 0 TTTTTTTTTTTTTFTFT3 84 255 8 205 Part 31579 255 13 207 SDL/TYSA_NAME79
 14 204 SDL/TYSA_UNAME81 1 172 452 169 108 191 0 167 208 209 81 1 181 438 31 161
 0 179 210 191 211 82 3 195 191 10 2 81 1 210 437 31 98 0 208 187 181 212 82 3 2
11 191 8 2 14 98 11 208 ?162 108 95 6 213 -0 0 162 108 23 81 1 208 453 169 98 21
0 0 172 214 215 81 1 187 436 31 162 0 214 117 210 216 82 3 212 191 5 2 14 162 23
5 214 ?0 98 67 6 176 +0 0 0 98 23 81 1 214 454 169 162 187 0 208 0 217 82 3 216
 191 4 2 83 3 217 .647058823529412 .647058823529412 .647058823529412 50 176 300
 0 162 213 168 0 +-4440892098500625e-31 2.7305 2.345982161925595 0 1 0 1 0 0 50
 213 3 0 98 0 176 0 +-4440892098500625e-31 2.54 2.345982161925595 0 1 0 1 0 0 83
 3 215 .647058823529412 .647058823529412 .647058823529412 83 3 209 .647058823529
412 .647058823529412 .647058823529412 79 9 194 BTI/DetId82 3 188 191 3 2 79 15 1
86 SDL/TYSA_COLOUR83 3 183 .647058823529412 .647058823529412 .647058823529412 83
 3 180 .647058823529412 .647058823529412 .647058823529412 83 3 173 .647058823529
412 .647058823529412 .647058823529412 17 110 0 109 101 106 47 69 132 0 0 -81 1 1
52 418 31 112 0 0 33 154 218 82 3 157 191 1 1 81 1 154 419 31 151 0 0 152 24 219
 82 3 218 191 2 1 81 1 24 420 31 11 0 0 154 111 220 82 3 219 191 5 1 81 1 111 42
1 31 107 0 0 24 150 221 82 3 220 191 8 1 81 1 150 422 31 148 0 0 111 140 222 82
 3 221 191 9 1 81 1 140 423 31 138 0 0 150 126 223 82 3 222 191 11 1 81 1 126 42
4 31 120 0 0 140 136 224 82 3 223 191 14 1 81 1 136 425 31 134 0 0 126 119 225 8
2 3 224 191 15 1 81 1 119 426 31 85 0 0 136 146 226 82 3 225 191 20 1 81 1 146 4
27 31 70 0 0 119 103 227 82 3 226 191 21 1 81 1 103 428 31 96 0 0 146 144 228 82
 3 227 191 24 1 81 1 144 429 31 142 0 0 103 128 229 82 3 228 191 25 1 81 1 128 4
30 31 104 0 0 144 122 230 82 3 229 191 28 1 81 1 122 431 31 76 0 0 128 131 231 8
2 3 230 191 29 1 81 1 131 432 31 39 0 0 122 116 232 82 3 231 191 30 1 81 1 116 4
33 31 132 0 0 131 114 233 82 3 232 191 31 1 82 3 233 191 32 1 82 3 118 191 33 1
 81 1 60 413 31 59 0 0 77 73 234 82 3 94 191 19 0 82 3 234 191 18 0 81 1 91 410
 31 88 0 0 57 49 235 81 1 57 409 31 55 0 0 41 91 236 81 1 49 411 31 47 0 0 91 77
 237 82 3 235 191 11 0 82 3 237 191 16 0 81 1 41 408 31 29 0 0 63 57 238 82 3 23
6 191 10 0 82 3 238 191 5 0 81 1 65 406 31 79 0 0 53 63 239 81 1 53 405 31 51 0
 0 0 65 240 82 3 239 191 3 0 82 3 240 191 2 0 82 3 81 191 17 0 82 3 74 191 22 0
 82 3 66 191 4 0 82 3 34 191 23 0 19 18 344 0 1 0 10 6 0 S0 74 4 CI16 index_map_
offset0 0 1 dCCZ20 16 5 0 0 197 199 14 2 214 0 0 0 0 0 0 0 0 0 0 0 0 0 0 0 80 1
 13 169 241 8040 0 0 0 0 3 5 0 0 0 TTTFFFFFFFFFFFFFF2 83 3 15 .647058823529412 .
647058823529412 .647058823529412 79 17 241 SDL/TYSA_COLOUR_21 0 
