**ABCDEFGHIJKLMNOPQRSTUVWXYZabcdefghijklmnopqrstuvwxyz**************************
**PARASOLID !"#$%&'()*+,-./:;<=>?@[\]^_`{|}~0123456789**************************
**PART1;
MC=unknown;
MC_MODEL=unknown;
MC_ID=unknown;
OS=unknown;
OS_RELEASE=unknown;
FRU=Parasolid 36.0.180;
APPL=Onshape;
SITE=unknown;
USER=unknown;
FORMAT=text;
GUISE=transmit;
KEY=BTGapi::writeModels_.xmt;
FILE=BTGapi::writeModels_.xmt;
DATE=2024-05-15T00:06:35 (UTC);
**PART2;
SCH=SCH_3600180_36001;
USFLD_SIZE=0;
**PART3;
**END_OF_HEADER*****************************************************************
T51 : TRANSMIT FILE created by modeller version 360018023 SCH_3600180_36001_1300
6231 0 12 36 CCCI7 lattice222 0 CCCI4 mesh1006 0 I8 polyline1008 0 CCCCCCCDI5 ow
ner1040 0 CCCI16 boundary_lattice222 0 CCCI13 boundary_mesh1006 0 I17 boundary_p
olyline1008 0 CCCA16 index_map_offset0 0 1 dA9 index_map82 0 A17 node_id_index_m
ap82 0 A20 schema_embedding_map82 0 A5 child12 0 A14 lowest_node_id0 0 1 dA16 me
sh_offset_data206 0 Z1 2618 2 3 0 0 0 0 0 0 0 1e3 1e-8 0 4 5 1 0 1 2 6 0 7 8 9 0
 0 10 11 12 0 0 0 0 0 0 0 81 255 1 2 2612 13 1 14 0 0 0 15 70 11 CI9 list_type0
 0 1 uI10 notransmit0 0 1 lCCCDCCDI12 finger_index0 0 1 dI12 finger_block1012 0
 CZ3 0 4 T1 0 0 5 20 1 16 16 13 255 6 2299 0 1 0 17 0 0 18 0 50 255 7 2294 0 17
 19 0 0 +-1.6637 2.593975 4.81838 -1 0 0 0 0 1 30 255 8 2298 0 11 20 0 0 +-1.663
7 2.7305 4.81838 0 0 -1 29 255 9 2275 0 21 22 0 -1.4732 2.7305 0 19 9 CCCCCCI5 f
rame230 0 CA5 owner12 0 Z10 861 0 1 18 0 23 0 V0 16 255 11 2282 24 ?25 0 26 8 0
 0 1 18 255 12 665 27 28 0 21 29 ?1 81 1 27 2598 30 12 0 0 31 32 33 17 255 28 0
 34 35 36 12 37 38 0 39 -18 21 2254 40 41 12 42 9 ?1 29 29 667 0 12 43 44 -1.663
7 2.54 4.81838 29 43 2556 0 45 46 29 -1.6637 2.7305 4.68755469879518 29 44 2278
 0 47 29 48 -1.6637 2.7305 0 18 47 2266 49 25 50 45 44 ?1 29 48 2277 0 50 44 22
 -1.6637 2.54 0 18 50 2262 51 52 42 47 48 ?1 29 22 2276 0 42 48 9 -1.4732 2.54 0
 18 42 2258 53 54 21 50 22 ?1 81 1 53 2365 30 42 0 0 51 40 55 17 54 0 56 57 58 4
2 52 59 0 60 +15 255 56 2285 0 54 61 0 17 57 0 56 39 54 62 60 63 0 0 -17 58 0 56
 54 39 50 64 65 0 66 +17 52 0 67 68 69 50 54 59 0 58 -16 59 2212 70 ?54 71 72 73
 0 0 1 17 60 0 74 75 76 42 57 63 0 69 +15 74 2407 0 76 77 0 17 75 0 74 78 60 21
 69 71 0 79 -17 76 0 74 60 78 62 80 81 0 57 -16 63 2280 82 ?60 26 65 83 0 0 1 17
 69 0 67 52 79 42 75 71 0 0 +15 67 2197 0 68 84 0 17 79 0 67 69 68 21 85 72 0 0
 -16 71 2198 86 ?69 87 59 88 0 0 1 81 1 86 2379 30 71 0 0 70 89 90 16 87 240 91
 ?35 65 71 92 0 0 1 30 88 2271 0 71 73 93 0 +-1.4732 2.6416 0 0 -1 0 30 73 2272
 0 59 94 88 0 +-1.651 2.54 0 1 0 0 30 93 2295 0 26 88 83 0 +-1.4732 2.7305 4.818
38 0 0 -1 16 26 2279 95 ?41 11 63 93 0 0 1 30 83 2296 0 63 93 20 0 +-1.4732 2.54
 4.81838 0 0 -1 30 20 2297 0 65 83 8 0 +-1.6637 2.54 4.81838 0 0 -1 16 65 2281 9
6 ?58 63 87 20 0 0 1 81 1 96 2370 30 65 0 0 40 82 97 80 7 CCCCCDI12 legal_owners
0 17 1 lCZ1 30 98 99 9000 0 0 0 0 3 6 0 0 0 FFTFTFTTFFFFFFFFF1 81 1 40 2367 30 2
1 0 0 53 96 100 81 1 82 2371 30 63 0 0 96 101 102 82 255 3 97 9 1 1 81 1 101 237
3 30 72 0 0 82 103 104 82 3 102 9 2 1 16 72 2226 101 ?85 59 105 94 0 0 1 81 1 10
3 2375 30 105 0 0 101 70 106 82 3 104 9 4 1 16 105 2240 103 ?66 72 38 107 0 0 1
 81 1 70 2377 30 59 0 0 103 86 108 82 3 106 9 6 1 82 3 108 9 8 1 17 66 0 109 64
 25 50 68 105 0 0 +16 38 2447 110 ?37 105 111 112 0 0 1 30 107 2274 0 105 92 94
 0 +-1.6637 2.593975 0 0 -1 0 30 92 242 0 87 112 107 0 +-1.651 2.54 4.81838 1 0
 0 30 94 2273 0 72 107 73 0 +-1.651 2.7305 0 -1 0 0 30 112 2540 0 38 113 92 0 +-
1.6637 2.576677231702505 4.79319202160189 0 .824331600923871 -.56610724400796 30
 113 2541 0 111 114 112 0 +-1.651 2.7305 4.68755469879518 1 0 0 16 111 2450 115
 ?116 38 81 113 0 0 1 30 114 2542 0 81 0 113 0 +-1.4732 2.60903949496942 4.77096
733478004 0 .824331600923871 -.56610724400796 16 81 2441 117 ?80 111 0 114 0 0 1
 81 1 117 2603 30 81 0 0 91 24 118 17 80 0 34 36 35 119 76 81 0 116 +15 34 2511
 0 35 120 0 17 36 0 34 28 80 45 116 111 0 37 -17 35 0 34 80 28 62 39 87 0 76 +18
 119 2489 31 80 45 62 46 ?1 17 116 0 121 41 122 119 36 111 0 78 +15 121 2287 0 1
22 123 0 17 41 0 121 85 116 21 78 26 0 75 +17 122 0 121 116 85 45 25 11 0 0 -17
 78 0 74 76 75 119 41 26 0 0 -17 85 0 121 122 41 47 79 72 0 68 +18 45 2488 124 3
6 47 119 43 ?1 17 25 0 109 66 37 47 122 11 0 85 +15 109 2289 0 64 17 0 17 37 0 1
09 25 64 45 28 38 0 122 +17 64 0 109 37 66 12 58 65 0 0 -14 255 17 2290 125 ?123
 0 109 6 7 +0 0 123 0 23 81 1 125 2613 126 17 127 0 0 128 129 14 123 2288 128 ?7
7 17 121 6 19 +0 0 77 17 23 13 23 862 0 0 0 0 0 0 10 17 81 1 128 2614 126 123 13
0 0 125 131 132 14 77 2284 131 ?61 123 74 6 133 -0 0 61 123 23 50 19 2293 0 123
 134 7 0 +-1.651 2.7305 4.81838 0 1 0 0 0 -1 50 134 2292 0 61 133 19 0 +-1.651 2
.54 4.81838 0 -1 0 0 0 1 14 61 2286 135 ?84 77 56 6 134 +0 0 84 77 23 50 133 229
1 0 77 136 134 0 +-1.4732 2.6416 4.81838 -1 0 0 0 0 1 50 136 2270 0 84 137 133 0
 +-1.4732 2.565913819923475 0 0 0 1 1 0 0 14 84 2133 138 ?120 61 67 6 136 -0 0 1
20 61 23 50 137 2534 0 120 0 136 0 +2.13106 4.33742032019782 3.584007009020775 0
 .56610724400796 .824331600923871 0 -.824331600923871 .56610724400796 14 120 250
8 139 ?0 84 34 6 137 +0 0 0 84 23 81 1 139 2618 126 120 140 0 138 0 141 80 1 126
 0 142 8001 0 0 0 0 3 5 0 0 0 FFFFTFTFFFFFFFFFF2 81 1 140 2609 30 120 0 139 143
 0 144 81 1 138 2617 126 84 89 0 135 139 145 83 255 3 141 .596078431372549 .1764
70588235294 .0509803921568627 81 1 89 2382 30 84 0 138 86 146 147 81 1 135 2616
 126 61 146 0 131 138 148 83 3 145 .596078431372549 .176470588235294 .0509803921
568627 81 1 146 2385 30 61 0 135 89 149 150 81 1 131 2615 126 77 143 0 128 135 1
51 83 3 148 .596078431372549 .176470588235294 .0509803921568627 81 1 143 2608 30
 77 0 131 127 140 152 83 3 151 .596078431372549 .176470588235294 .05098039215686
27 81 1 127 2607 30 17 0 125 130 143 153 82 3 152 78 2 2 81 1 130 2606 30 123 0
 128 95 127 154 82 3 153 78 1 2 81 1 95 2605 30 26 0 0 24 130 155 82 3 154 78 0
 2 81 1 24 2604 30 11 0 0 117 95 156 82 3 155 78 21 1 82 3 156 78 20 1 81 1 149
 2387 30 1 0 157 146 124 158 82 3 150 9 4 2 81 1 157 2610 159 1 149 14 0 0 160 8
1 1 124 2596 30 45 0 0 149 31 161 82 3 158 9 0 3 81 1 31 2597 30 119 0 0 124 27
 162 82 3 161 78 0 0 82 3 162 78 1 0 80 1 159 163 164 8038 0 0 0 0 0 0 0 0 0 TTT
TTTTTTTTTTFTFT10 81 1 14 2611 163 1 157 2 0 0 165 98 255 6 160 105 98 101 97 109
 51 80 1 163 166 167 8017 0 0 0 0 0 0 0 0 0 TTTTTTTTTTTTTFTFT3 84 255 6 165 ibea
m379 255 13 167 SDL/TYSA_NAME79 14 164 SDL/TYSA_UNAME82 3 147 9 1 2 82 3 144 78
 18 2 79 15 142 SDL/TYSA_COLOUR83 3 132 .596078431372549 .176470588235294 .05098
03921568627 83 3 129 .596078431372549 .176470588235294 .0509803921568627 17 68 0
 67 79 52 47 66 105 0 0 -18 62 2490 32 35 119 0 168 ?1 29 46 2557 0 119 168 43 -
1.4732 2.7305 4.68755469879518 29 168 2559 0 62 0 46 -1.4732 2.54 4.81838 81 1 3
2 2599 30 62 0 0 27 115 169 81 1 115 2600 30 111 0 0 32 110 170 82 3 169 78 17 0
 81 1 110 2601 30 38 0 0 115 91 171 82 3 170 78 0 1 81 1 91 2602 30 87 0 0 110 1
17 172 82 3 171 78 1 1 82 3 172 78 2 1 17 39 0 56 58 57 12 35 87 0 64 -82 3 118
 78 3 1 82 3 100 9 6 0 79 9 99 BTI/DetId82 3 90 9 10 1 81 1 51 2363 30 50 0 0 49
 53 173 82 3 55 9 4 0 81 1 49 2361 30 47 0 0 0 51 174 82 3 173 9 2 0 82 3 174 9
 0 0 82 3 33 78 16 0 19 18 2300 0 1 0 10 6 0 S0 74 4 CI16 index_map_offset0 0 1
 dCCZ20 16 5 0 0 140 157 14 2 139 0 0 0 0 0 0 0 0 0 0 0 0 0 0 0 80 1 13 126 175
 8040 0 0 0 0 3 5 0 0 0 TTTFFFFFFFFFFFFFF2 83 3 15 .596078431372549 .17647058823
5294 .0509803921568627 79 17 175 SDL/TYSA_COLOUR_21 0 
