**ABCDEFGHIJKLMNOPQRSTUVWXYZabcdefghijklmnopqrstuvwxyz**************************
**PARASOLID !"#$%&'()*+,-./:;<=>?@[\]^_`{|}~0123456789**************************
**PART1;
MC=unknown;
MC_MODEL=unknown;
MC_ID=unknown;
OS=unknown;
OS_RELEASE=unknown;
FRU=Parasolid 36.0.180;
APPL=Onshape;
SITE=unknown;
USER=unknown;
FORMAT=text;
GUISE=transmit;
KEY=BTGapi::writeModels_.xmt;
FILE=BTGapi::writeModels_.xmt;
DATE=2024-05-15T00:06:35 (UTC);
**PART2;
SCH=SCH_3600180_36001;
USFLD_SIZE=0;
**PART3;
**END_OF_HEADER*****************************************************************
T51 : TRANSMIT FILE created by modeller version 360018023 SCH_3600180_36001_1300
6231 0 12 36 CCCI7 lattice222 0 CCCI4 mesh1006 0 I8 polyline1008 0 CCCCCCCDI5 ow
ner1040 0 CCCI16 boundary_lattice222 0 CCCI13 boundary_mesh1006 0 I17 boundary_p
olyline1008 0 CCCA16 index_map_offset0 0 1 dA9 index_map82 0 A17 node_id_index_m
ap82 0 A20 schema_embedding_map82 0 A5 child12 0 A14 lowest_node_id0 0 1 dA16 me
sh_offset_data206 0 Z1 184 2 3 0 0 0 0 0 0 0 1e3 1e-8 0 4 5 1 0 1 2 6 0 7 8 9 0
 0 10 11 12 0 0 0 0 0 0 0 81 255 1 2 178 13 1 14 0 0 0 15 70 11 CI9 list_type0 0
 1 uI10 notransmit0 0 1 lCCCDCCDI12 finger_index0 0 1 dI12 finger_block1012 0 CZ
3 0 4 T1 0 0 5 20 1 16 16 13 255 6 5 0 1 0 17 0 0 18 0 50 255 7 101 0 19 20 0 0
 +.095252 .211524481967662 6.70247234404291 0 .56610724400796 .824331600923871 0
 -.824331600923871 .56610724400796 30 255 8 109 0 21 22 0 0 +.095252 .1853519536
38328 6.72044624904016 -1 0 0 29 255 9 96 0 12 23 0 -.09525 .2376970102969955 6.
68449843904565 19 9 CCCCCCI5 frame230 0 CA5 owner12 0 Z10 1 0 1 18 0 24 0 V0 16
 255 11 34 25 ?26 0 27 28 0 0 1 18 255 12 64 29 30 0 31 9 ?1 81 1 29 155 32 12 0
 0 33 34 35 17 255 30 0 36 37 38 12 39 40 0 41 +18 31 68 42 43 12 44 23 ?1 81 1
 42 153 32 31 0 0 45 33 46 17 43 0 47 48 49 31 50 21 0 37 +18 44 72 51 52 31 53
 54 ?1 29 23 95 0 31 54 9 -.09525 .185351953638328 6.72044624904016 29 54 94 0 4
4 55 23 -.09525 -721687337668911e-29 6.45054779023346 29 55 93 0 53 56 54 -.0952
5 -724976263340837e-29 6.33837823106932 18 53 76 57 58 44 59 55 ?1 29 56 92 0 59
 60 55 .09525 .185351953638328 6.72044624904016 18 59 80 33 61 53 62 56 ?1 29 60
 91 0 62 63 56 .09525 .2376970102969955 6.68449843904565 18 62 81 34 38 59 64 60
 ?1 29 63 90 0 64 65 60 .09525 -724976263340837e-29 6.33837823106932 18 64 82 66
 67 62 68 63 ?1 29 65 89 0 68 0 63 .09525 -721687337668911e-29 6.45054779023346
 18 68 83 45 69 64 0 65 ?1 81 1 45 152 32 68 0 0 51 42 70 17 69 0 47 49 48 68 52
 71 0 72 -15 255 47 30 0 69 73 0 17 49 0 47 43 69 59 72 74 0 50 +17 48 0 47 69 4
3 44 75 76 0 0 -17 52 0 77 78 79 44 69 71 0 80 +16 71 59 81 ?52 82 83 84 0 0 1 1
7 72 0 85 86 61 68 49 74 0 79 -15 85 8 0 72 17 0 17 86 0 85 87 72 64 79 88 0 89
 +17 61 0 85 72 87 59 38 83 0 49 -16 74 62 90 ?49 91 88 92 0 0 1 17 79 0 77 52 8
9 68 86 88 0 0 -15 77 11 0 79 93 0 17 89 0 77 79 78 64 58 82 0 0 -16 88 63 94 ?8
6 74 0 95 0 0 1 81 1 94 162 32 88 0 0 96 97 98 30 95 105 0 88 92 84 0 +.09525 -7
31938639041901e-29 6.38939510888192 0 -1224646799147354e-31 -1 30 92 104 0 74 99
 95 0 +.09525 .1188485051484926 6.62360789422162 0 .56610724400796 .824331600923
871 30 84 106 0 71 95 100 0 +.095252 -721687337668911e-29 6.45054779023346 -1 0
 0 30 100 107 0 82 84 22 0 +.095252 -724976263340837e-29 6.33837823106932 -1 0 0
 16 82 58 101 ?58 40 71 100 0 0 1 30 22 108 0 40 100 8 0 +.095252 .2376970102969
955 6.68449843904565 -1 0 0 16 40 57 102 ?30 21 82 22 0 0 1 81 1 102 160 32 40 0
 0 103 96 104 16 21 56 103 ?43 105 40 8 0 0 1 81 1 103 159 32 21 0 0 81 102 106
 16 105 52 96 ?78 76 21 107 0 0 1 81 1 96 161 32 105 0 0 102 94 108 17 78 0 77 8
9 52 53 80 105 0 26 +16 76 46 109 ?75 27 105 110 0 0 1 30 107 85 0 105 0 110 0 +
-.09525 -731938639041901e-29 6.38939510888192 0 -1224646799147354e-31 -1 30 110
 86 0 76 107 111 0 +-.09525 .1188485051484926 6.62360789422162 0 .56610724400796
 .824331600923871 30 111 87 0 27 110 28 0 +-.09525 .211524481967662 6.7024723440
4291 0 .824331600923871 -.56610724400796 16 27 42 97 ?112 11 76 111 0 0 1 30 28
 88 0 11 111 113 0 +-.09525 .114465394982496 6.50505591148244 0 -.56610724400796
2 -.82433160092387 30 113 102 0 83 28 99 0 +.09525 .211524481967662 6.7024723440
4291 0 .824331600923871 -.56610724400796 16 83 60 114 ?38 71 91 113 0 0 1 30 99
 103 0 91 113 92 0 +.09525 .114465394982496 6.50505591148244 0 -.566107244007962
 -.82433160092387 16 91 61 115 ?67 83 74 99 0 0 1 81 1 115 168 32 91 0 0 25 116
 117 17 67 0 118 58 39 64 87 91 0 86 +15 118 27 0 39 119 0 17 58 0 118 41 67 53
 89 82 0 78 +17 39 0 118 67 41 62 30 40 0 0 -17 87 0 85 61 86 62 67 91 0 39 -17
 41 0 118 39 58 12 26 11 0 112 -17 26 0 120 80 112 53 41 11 0 0 +17 112 0 120 26
 75 12 37 27 0 0 +15 120 24 0 75 121 0 17 75 0 120 112 80 31 48 76 0 0 +17 37 0
 36 50 30 31 112 27 0 75 -15 36 33 0 50 19 0 17 50 0 36 38 37 59 43 21 0 0 -17 3
8 0 36 30 50 62 61 83 0 87 +14 255 19 31 122 ?0 73 36 6 7 +0 0 17 73 24 81 1 122
 184 123 19 124 0 125 0 126 14 73 28 125 ?19 119 47 6 127 +0 0 19 119 24 14 17 6
 128 ?93 0 85 6 129 +0 0 0 19 24 13 24 3 0 0 0 0 0 0 10 93 14 93 9 130 ?121 17 7
7 6 131 -0 0 121 0 24 81 1 130 180 123 93 116 0 128 132 133 14 121 12 132 ?119 9
3 120 6 134 -0 0 119 93 24 50 131 99 0 93 127 20 0 +.095252 -731938639041901e-29
 6.38939510888192 0 1 -1224646799147354e-31 0 1224646799147354e-31 1 50 127 98 0
 73 129 131 0 +.095252 .1188485051484926 6.62360789422162 0 -.824331600923871 .5
6610724400796 0 -.56610724400796 -.824331600923871 50 20 100 0 119 131 7 0 +.095
252 .114465394982496 6.50505591148244 0 .82433160092387 -.566107244007962 0 .566
107244007962 .82433160092387 14 119 25 135 ?73 121 118 6 20 +0 0 73 121 24 81 1
 135 182 123 119 136 0 132 125 137 80 7 CCCCCDI12 legal_owners0 17 1 lCZ1 123 0
 138 8001 0 0 0 0 3 5 0 0 0 FFFFTFTFFFFFFFFFF2 81 1 136 174 32 119 0 135 139 140
 141 81 1 132 181 123 121 142 0 130 135 143 81 1 125 183 123 73 139 0 135 122 14
4 83 255 3 137 .8 .749019607843137 .913725490196078 81 1 139 173 32 73 0 125 124
 136 145 83 3 144 .8 .749019607843137 .913725490196078 80 1 32 146 147 9000 0 0
 0 0 3 6 0 0 0 FFTFTFTTFFFFFFFFF1 81 1 124 172 32 19 0 122 148 139 149 82 255 3
 145 152 118 2 81 1 148 171 32 17 0 128 142 124 150 82 3 149 152 117 2 81 1 128
 179 123 17 148 0 0 130 151 81 1 142 170 32 121 0 132 116 148 152 82 3 150 152 1
16 2 81 1 116 169 32 93 0 130 115 142 153 82 3 152 152 115 2 82 3 153 152 114 2
 83 3 151 .8 .749019607843137 .913725490196078 79 255 9 147 BTI/DetId83 3 143 .8
 .749019607843137 .913725490196078 81 1 140 175 32 1 0 154 136 0 155 82 3 141 15
2 119 2 81 1 154 176 156 1 140 14 0 0 157 82 3 155 152 19 3 80 1 156 158 159 803
8 0 0 0 0 0 0 0 0 0 TTTTTTTTTTTTTFTFT10 81 1 14 177 158 1 154 2 0 0 160 98 255 8
 157 80 97 114 116 32 50 54 54 80 1 158 161 162 8017 0 0 0 0 0 0 0 0 0 TTTTTTTTT
TTTTFTFT3 84 255 8 160 Part 26679 13 162 SDL/TYSA_NAME79 14 159 SDL/TYSA_UNAME79
 15 138 SDL/TYSA_COLOUR50 129 97 0 17 134 127 0 +.09525 -2.12066116461943 3.4039
9834184795 1 0 0 0 -1 0 50 134 84 0 121 0 129 0 +-.09525 -73126689888643e-28 5.1
5377690285996 1 0 0 0 1 0 83 3 133 .8 .749019607843137 .913725490196078 83 3 126
 .8 .749019607843137 .913725490196078 17 80 0 120 75 26 44 78 105 0 48 -81 1 25
 167 32 11 0 0 90 115 163 82 3 117 152 239 1 81 1 90 166 32 74 0 0 109 25 164 82
 3 163 152 238 1 81 1 109 165 32 76 0 0 114 90 165 82 3 164 152 237 1 81 1 114 1
64 32 83 0 0 97 109 166 82 3 165 152 236 1 81 1 97 163 32 27 0 0 94 114 167 82 3
 166 152 235 1 82 3 167 152 234 1 82 3 108 152 232 1 81 1 81 158 32 71 0 0 101 1
03 168 82 3 106 152 230 1 81 1 101 157 32 82 0 0 34 81 169 82 3 168 152 229 1 81
 1 34 156 32 62 0 0 29 101 170 82 3 169 152 228 1 82 3 170 152 159 0 82 3 104 15
2 231 1 82 3 98 152 233 1 81 1 51 151 32 44 0 0 66 45 171 82 3 70 152 155 0 81 1
 66 150 32 64 0 0 57 51 172 82 3 171 152 154 0 81 1 57 149 32 53 0 0 0 66 173 82
 3 172 152 153 0 82 3 173 152 152 0 81 1 33 154 32 59 0 0 42 29 174 82 3 174 152
 157 0 82 3 46 152 156 0 82 3 35 152 158 0 19 18 4 0 1 0 10 6 0 S0 74 4 CI16 ind
ex_map_offset0 0 1 dCCZ20 16 5 0 0 140 154 14 2 122 0 0 0 0 0 0 0 0 0 0 0 0 0 0
 0 80 1 13 123 175 8040 0 0 0 0 3 5 0 0 0 TTTFFFFFFFFFFFFFF2 83 3 15 .8 .7490196
07843137 .913725490196078 79 17 175 SDL/TYSA_COLOUR_21 0 
