**ABCDEFGHIJKLMNOPQRSTUVWXYZabcdefghijklmnopqrstuvwxyz**************************
**PARASOLID !"#$%&'()*+,-./:;<=>?@[\]^_`{|}~0123456789**************************
**PART1;
MC=unknown;
MC_MODEL=unknown;
MC_ID=unknown;
OS=unknown;
OS_RELEASE=unknown;
FRU=Parasolid 36.0.180;
APPL=Onshape;
SITE=unknown;
USER=unknown;
FORMAT=text;
GUISE=transmit;
KEY=BTGapi::writeModels_.xmt;
FILE=BTGapi::writeModels_.xmt;
DATE=2024-05-15T00:06:35 (UTC);
**PART2;
SCH=SCH_3600180_36001;
USFLD_SIZE=0;
**PART3;
**END_OF_HEADER*****************************************************************
T51 : TRANSMIT FILE created by modeller version 360018023 SCH_3600180_36001_1300
6231 0 12 36 CCCI7 lattice222 0 CCCI4 mesh1006 0 I8 polyline1008 0 CCCCCCCDI5 ow
ner1040 0 CCCI16 boundary_lattice222 0 CCCI13 boundary_mesh1006 0 I17 boundary_p
olyline1008 0 CCCA16 index_map_offset0 0 1 dA9 index_map82 0 A17 node_id_index_m
ap82 0 A20 schema_embedding_map82 0 A5 child12 0 A14 lowest_node_id0 0 1 dA16 me
sh_offset_data206 0 Z1 252 2 3 0 0 0 0 0 0 0 1e3 1e-8 0 4 5 1 0 1 2 6 0 7 8 9 0
 0 10 11 12 0 0 0 0 0 0 0 81 255 1 2 246 13 1 14 0 0 0 15 70 11 CI9 list_type0 0
 1 uI10 notransmit0 0 1 lCCCDCCDI12 finger_index0 0 1 dI12 finger_block1012 0 CZ
3 0 4 T1 0 0 5 20 1 16 16 13 255 6 88 0 1 0 17 0 0 18 0 50 255 7 194 0 17 19 0 0
 +1.4732 -2.54 4.81838 0 -1 0 0 0 -1 30 255 8 198 0 11 20 0 0 +1.4732 -2.54 2.70
099311856604 1 0 0 29 255 9 175 0 21 22 0 1.6637 -1.516250802198115 3.99415 19 9
 CCCCCCI5 frame230 0 CA5 owner12 0 Z10 87 0 1 18 0 23 0 V0 16 255 11 182 24 ?25
 0 26 8 0 0 1 18 255 12 81 27 28 0 29 30 ?1 81 1 27 222 31 12 0 0 32 33 34 17 25
5 28 0 35 36 37 12 38 39 0 40 -18 29 76 41 42 12 43 44 ?1 29 30 83 0 12 44 45 1.
4732 -1.516250802198115 3.99415 29 44 78 0 29 46 30 1.4732 -1.246843118566042 3.
99415 29 45 178 0 47 30 48 1.6637 -2.54 2.70099311856604 18 47 166 49 25 50 0 45
 ?1 29 48 177 0 50 45 22 1.6637 -2.54 2.97040080219812 18 50 162 33 51 52 47 48
 ?1 29 22 176 0 52 48 9 1.6637 -1.246843118566042 3.99415 18 52 158 53 54 21 50
 22 ?1 81 1 53 219 31 52 0 0 55 41 56 17 54 0 57 58 59 52 42 26 0 60 +18 21 154
 32 38 61 52 9 ?1 81 1 32 221 31 21 0 0 41 27 62 17 38 0 63 60 40 21 28 39 0 37
 +18 61 51 55 64 43 21 65 ?1 81 1 55 218 31 61 0 0 49 53 66 17 64 0 57 59 58 61
 25 11 0 67 -18 43 71 68 69 29 61 46 ?1 29 65 53 0 61 0 46 1.4732 -2.54 2.700993
11856604 29 46 73 0 43 65 44 1.4732 -2.54 2.97040080219812 81 1 68 224 31 43 0 0
 33 24 70 17 69 0 71 72 73 43 51 74 0 36 -15 255 71 189 0 73 17 0 17 72 0 71 25
 69 61 75 76 0 0 +17 73 0 71 69 25 50 77 78 0 0 -17 51 0 35 37 36 50 69 74 0 79
 +16 74 181 80 ?51 39 81 20 0 0 1 17 36 0 35 51 28 43 82 83 0 75 +15 35 185 0 37
 84 0 17 82 0 85 86 75 12 36 83 0 0 -16 83 31 87 ?36 81 88 89 0 0 1 17 75 0 85 8
2 67 43 72 76 0 0 -15 85 6 0 75 90 0 17 67 0 85 75 86 61 59 88 0 72 -16 76 11 91
 ?72 88 92 93 0 0 1 81 1 91 232 31 76 0 0 94 95 96 16 88 16 97 ?59 83 76 98 0 0
 1 16 92 132 99 ?100 76 101 102 0 0 1 30 93 13 0 76 0 98 0 +1.4732 -2.54 4.81838
 0 0 -1 30 98 18 0 88 93 89 0 +1.4732 -2.23582252440755 3.005170594158495 0 .707
106781186548 .707106781186548 30 89 33 0 83 98 103 0 +1.4732 -2.19640040109906 3
.31400040109906 0 -.707106781186548 -.707106781186548 30 103 43 0 81 89 104 0 +1
.4732 -1.38154696038208 3.99415 0 -1 0 16 81 41 105 ?40 74 83 103 0 0 1 30 104 1
74 0 78 103 106 0 +1.6637 -2.54 4.81838 0 0 -1 16 78 150 94 ?77 107 0 104 0 0 1
 30 106 173 0 107 104 108 0 +1.6637 -2.23582252440755 3.005170594158495 0 .70710
6781186548 .707106781186548 16 107 142 95 ?109 101 78 106 0 0 1 30 108 172 0 101
 106 102 0 +1.6637 -2.19640040109906 3.31400040109906 0 -.707106781186548 -.7071
06781186548 16 101 136 110 ?79 92 107 108 0 0 1 30 102 171 0 92 108 111 0 +1.663
7 -1.38154696038208 3.99415 0 -1 0 30 111 195 0 39 102 112 0 +1.4732 -1.51625080
2198115 3.99415 1 0 0 16 39 179 113 ?38 26 74 111 0 0 1 30 112 196 0 26 111 20 0
 +1.4732 -1.246843118566042 3.99415 1 0 0 16 26 180 114 ?54 11 39 112 0 0 1 30 2
0 197 0 74 112 8 0 +1.4732 -2.54 2.97040080219812 1 0 0 81 1 114 226 31 26 0 0 2
4 113 115 80 7 CCCCCDI12 legal_owners0 17 1 lCZ1 31 116 117 9000 0 0 0 0 3 6 0 0
 0 FFTFTFTTFFFFFFFFF1 81 1 24 225 31 11 0 0 68 114 118 81 1 113 227 31 39 0 0 11
4 80 119 82 255 3 115 180 1 1 81 1 80 228 31 74 0 0 113 99 120 82 3 119 180 2 1
 81 1 99 229 31 92 0 0 80 105 121 82 3 120 180 3 1 81 1 105 230 31 81 0 0 99 94
 122 82 3 121 180 4 1 81 1 94 231 31 78 0 0 105 91 123 82 3 122 180 5 1 82 3 123
 180 6 1 82 3 118 180 0 1 79 255 9 117 BTI/DetId81 1 110 235 31 101 0 0 97 87 12
4 17 79 0 125 77 100 50 37 101 0 73 +15 125 131 0 77 126 0 17 77 0 125 109 79 47
 73 78 0 0 +17 100 0 125 79 109 21 60 92 0 0 +17 37 0 35 28 51 21 79 101 0 100 -
17 109 0 125 100 77 52 58 107 0 0 +17 60 0 63 42 38 52 100 92 0 109 -15 63 183 0
 60 127 0 17 42 0 63 40 60 29 54 26 0 59 -17 40 0 63 38 42 12 86 81 0 82 +17 59
 0 57 54 64 29 67 88 0 86 +15 57 187 0 58 128 0 17 86 0 85 67 82 29 40 81 0 0 -1
7 58 0 57 64 54 47 109 107 0 77 -14 255 128 188 129 ?127 17 57 6 19 +0 0 127 17
 23 81 1 129 248 130 128 131 0 132 133 134 14 127 184 133 ?84 128 63 6 135 +0 0
 84 128 23 14 17 190 132 ?128 0 71 6 7 +0 0 128 0 23 50 19 193 0 128 136 7 0 +1.
4732 -2.23582252440755 3.005170594158495 0 .707106781186548 -.707106781186548 0
 .707106781186548 .707106781186548 13 23 199 0 0 0 0 0 0 10 17 50 136 192 0 84 1
35 19 0 +1.4732 -2.19640040109906 3.31400040109906 0 -.707106781186548 .70710678
1186548 0 -.707106781186548 -.707106781186548 14 84 186 137 ?90 127 35 6 136 +0
 0 90 127 23 50 135 191 0 127 138 136 0 +1.4732 -1.38154696038208 3.99415 0 0 1
 1 0 0 50 138 170 0 126 139 135 0 +1.6637 0 2.40919 1 0 0 0 1 0 14 126 120 140 ?
0 90 125 6 138 +0 0 0 90 23 50 139 3 0 90 0 138 0 +1.4732 0 2.40919 1 0 0 0 1 0
 14 90 1 141 ?126 84 85 6 139 -0 0 126 84 23 81 1 141 251 130 90 142 0 137 140 1
43 80 1 130 0 144 8001 0 0 0 0 3 5 0 0 0 FFFFTFTFFFFFFFFFF2 81 1 142 239 31 90 0
 141 145 146 147 81 1 137 250 130 84 148 0 133 141 149 81 1 140 252 130 126 145
 0 141 0 150 83 255 3 143 .972549019607843 .529411764705882 .00392156862745098 8
1 1 145 238 31 126 0 140 151 142 152 83 3 150 .972549019607843 .529411764705882
 .00392156862745098 81 1 151 237 31 127 0 133 87 145 153 82 3 152 180 1 2 81 1 1
33 249 130 127 151 0 129 137 154 81 1 87 236 31 83 0 0 110 151 155 82 3 153 180
 0 2 82 3 155 180 11 1 83 3 154 .972549019607843 .529411764705882 .0039215686274
5098 81 1 148 242 31 84 0 137 131 156 157 83 3 149 .972549019607843 .52941176470
5882 .00392156862745098 81 1 131 241 31 128 0 129 146 148 158 81 1 156 243 31 1
 0 159 148 0 160 82 3 157 180 5 2 81 1 159 244 161 1 156 14 0 0 162 82 3 160 180
 0 3 80 1 161 163 164 8038 0 0 0 0 0 0 0 0 0 TTTTTTTTTTTTTFTFT10 81 1 14 245 163
 1 159 2 0 0 165 98 255 8 162 80 97 114 116 32 51 48 52 80 1 163 166 167 8017 0
 0 0 0 0 0 0 0 0 TTTTTTTTTTTTTFTFT3 84 255 8 165 Part 30479 13 167 SDL/TYSA_NAME
79 14 164 SDL/TYSA_UNAME81 1 146 240 31 17 0 132 142 131 168 82 3 158 180 4 2 81
 1 132 247 130 17 146 0 0 129 169 82 3 168 180 3 2 83 3 169 .972549019607843 .52
9411764705882 .00392156862745098 82 3 147 180 2 2 79 15 144 SDL/TYSA_COLOUR83 3
 134 .972549019607843 .529411764705882 .00392156862745098 81 1 97 234 31 88 0 0
 95 110 170 82 3 124 180 10 1 81 1 95 233 31 107 0 0 91 97 171 82 3 170 180 9 1
 82 3 171 180 8 1 82 3 96 180 7 1 17 25 0 71 73 72 47 64 11 0 58 +81 1 33 223 31
 50 0 0 27 68 172 82 3 70 180 7 0 82 3 172 180 6 0 81 1 49 217 31 47 0 0 0 55 17
3 82 3 66 180 1 0 82 3 173 180 0 0 81 1 41 220 31 29 0 0 53 32 174 82 3 62 180 4
 0 82 3 174 180 3 0 82 3 56 180 2 0 82 3 34 180 5 0 19 18 200 0 1 0 10 6 0 S0 74
 4 CI16 index_map_offset0 0 1 dCCZ20 16 5 0 0 156 159 14 2 140 0 0 0 0 0 0 0 0 0
 0 0 0 0 0 0 80 1 13 130 175 8040 0 0 0 0 3 5 0 0 0 TTTFFFFFFFFFFFFFF2 83 3 15 .
972549019607843 .529411764705882 .00392156862745098 79 17 175 SDL/TYSA_COLOUR_21
 0 
