**ABCDEFGHIJKLMNOPQRSTUVWXYZabcdefghijklmnopqrstuvwxyz**************************
**PARASOLID !"#$%&'()*+,-./:;<=>?@[\]^_`{|}~0123456789**************************
**PART1;
MC=unknown;
MC_MODEL=unknown;
MC_ID=unknown;
OS=unknown;
OS_RELEASE=unknown;
FRU=Parasolid 36.0.180;
APPL=Onshape;
SITE=unknown;
USER=unknown;
FORMAT=text;
GUISE=transmit;
KEY=BTGapi::writeModels_.xmt;
FILE=BTGapi::writeModels_.xmt;
DATE=2024-05-15T00:06:35 (UTC);
**PART2;
SCH=SCH_3600180_36001;
USFLD_SIZE=0;
**PART3;
**END_OF_HEADER*****************************************************************
T51 : TRANSMIT FILE created by modeller version 360018023 SCH_3600180_36001_1300
6231 0 12 36 CCCI7 lattice222 0 CCCI4 mesh1006 0 I8 polyline1008 0 CCCCCCCDI5 ow
ner1040 0 CCCI16 boundary_lattice222 0 CCCI13 boundary_mesh1006 0 I17 boundary_p
olyline1008 0 CCCA16 index_map_offset0 0 1 dA9 index_map82 0 A17 node_id_index_m
ap82 0 A20 schema_embedding_map82 0 A5 child12 0 A14 lowest_node_id0 0 1 dA16 me
sh_offset_data206 0 Z1 188 2 3 0 0 0 0 0 0 0 1e3 1e-8 0 4 5 1 0 1 2 6 0 7 8 9 0
 0 10 11 12 0 0 0 0 0 0 0 81 255 1 2 182 13 1 14 0 0 0 15 70 11 CI9 list_type0 0
 1 uI10 notransmit0 0 1 lCCCDCCDI12 finger_index0 0 1 dI12 finger_block1012 0 CZ
3 0 4 T1 0 0 5 20 1 16 16 13 255 6 5 0 1 0 17 0 0 18 0 50 255 7 90 0 19 20 0 0 +
1.56845 -4.20148368362722 3.96238230646072 0 .824331600923871 .56610724400796 0
 -.56610724400796 .824331600923871 30 255 8 98 0 21 22 0 0 +1.6637 -4.2014836836
2722 3.96238230646072 0 .56610724400796 -.824331600923871 29 255 9 85 0 12 23 0
 1.6637 -3.906710509457785 3.53315119319646 19 9 CCCCCCI5 frame230 0 CA5 owner12
 0 Z10 1 0 1 18 0 24 0 V0 16 255 11 29 25 ?26 0 27 28 0 0 1 18 255 12 53 29 30 0
 31 9 ?1 81 1 29 159 32 12 0 0 33 34 35 17 255 30 0 36 37 38 12 39 21 0 26 +18 3
1 57 40 41 12 42 23 ?1 81 1 40 157 32 31 0 0 43 33 44 17 41 0 45 46 47 31 48 49
 0 37 +18 42 61 50 51 31 52 53 ?1 29 23 84 0 31 53 9 1.4732 -3.906710509457785 3
.533151193196455 29 53 83 0 42 54 23 1.4732 -3.95905556611645 3.49720338320195 2
9 54 82 0 52 55 53 1.6637 -3.95905556611645 3.49720338320195 18 52 65 56 57 42 5
8 54 ?1 29 55 81 0 58 59 54 1.4732 -4.20148255141273 3.96238065779752 18 58 69 3
3 60 52 61 55 ?1 29 59 80 0 61 62 55 1.6637 -4.20148255141273 3.96238065779752 1
8 61 70 34 38 58 63 59 ?1 29 62 79 0 63 64 59 1.4732 -4.253827608071395 3.926432
847803015 18 63 71 43 65 61 66 62 ?1 29 64 78 0 66 0 62 1.6637 -4.2538276080714
 3.926432847803015 18 66 72 67 68 63 0 64 ?1 81 1 67 154 32 66 0 0 56 50 69 17 6
8 0 70 71 65 66 72 73 0 74 -15 255 70 8 0 68 17 0 17 71 0 70 60 68 61 74 75 0 39
 +17 65 0 70 68 60 63 47 76 0 72 -17 72 0 77 51 78 63 68 73 0 79 +16 73 51 80 ?7
2 76 75 81 0 0 1 17 74 0 82 57 39 66 71 75 0 78 -15 82 22 0 74 83 0 17 57 0 82 8
4 74 52 78 85 0 86 +17 39 0 82 74 84 61 30 21 0 0 -16 75 52 87 ?71 73 0 88 0 0 1
 17 78 0 77 72 86 66 57 85 0 0 -15 77 11 0 78 89 0 17 86 0 77 78 51 52 90 91 0 9
2 -16 85 48 93 ?57 94 95 96 0 0 1 81 1 93 161 32 85 0 0 34 97 98 16 94 47 97 ?51
 49 85 99 0 0 1 16 95 49 100 ?38 85 76 101 0 0 1 30 96 95 0 85 88 99 0 +1.6637 -
4.253828740285885 3.926434496466215 0 .56610724400796 -.824331600923871 30 88 94
 0 75 81 96 0 +1.6637 -4.227655079742065 3.94440675280027 0 .824331600923871 .56
610724400796 30 99 96 0 94 96 22 0 +1.4732 -4.253828740285885 3.926434496466215
 0 .56610724400796 -.824331600923871 30 22 97 0 49 99 8 0 +1.4732 -4.20148368362
722 3.96238230646072 0 .56610724400796 -.824331600923871 16 49 46 102 ?41 21 94
 22 0 0 1 81 1 102 163 32 49 0 0 97 103 104 16 21 45 103 ?30 105 49 8 0 0 1 81 1
 103 164 32 21 0 0 102 106 107 16 105 41 108 ?84 91 21 109 0 0 1 81 1 108 167 32
 105 0 0 110 87 111 17 84 0 82 39 57 12 92 105 0 0 +16 91 37 112 ?90 27 105 113
 0 0 1 30 109 75 0 105 114 113 0 +1.6637 -3.93288303778712 3.515177288199205 0 .
824331600923871 .56610724400796 30 114 74 0 27 0 109 0 +1.4732 -1.23674242751237
8 5.36674373139993 0 .824331600923871 .56610724400796 30 113 76 0 91 109 28 0 +1
.56845 -3.95905556611645 3.497203383201955 -1 0 0 30 28 77 0 11 113 101 0 +1.568
45 -3.906710509457785 3.53315119319646 1 0 0 30 101 91 0 95 28 115 0 +1.56845 -4
.20148255141273 3.96238065779752 1 0 0 30 115 92 0 76 101 81 0 +1.4732 -1.531514
469467325 5.79597319600099 0 .824331600923871 .56610724400796 16 76 50 110 ?47 9
5 73 115 0 0 1 30 81 93 0 73 115 88 0 +1.56845 -4.2538276080714 3.92643284780301
5 -1 0 0 81 1 110 166 32 76 0 0 106 108 116 17 47 0 45 41 79 58 65 76 0 48 +15 4
5 25 0 79 117 0 17 79 0 45 47 46 63 51 94 0 0 -17 48 0 36 38 37 58 41 49 0 0 -15
 36 28 0 48 19 0 17 38 0 36 30 48 61 60 95 0 71 +17 37 0 36 48 30 31 26 11 0 118
 -17 26 0 119 92 118 12 37 11 0 84 +17 118 0 119 26 90 31 46 27 0 0 +15 119 19 0
 92 120 0 17 90 0 119 118 92 42 86 91 0 0 +17 46 0 45 79 41 42 118 27 0 90 -16 2
7 33 106 ?118 11 91 114 0 0 1 81 1 106 165 32 27 0 0 103 110 121 80 7 CCCCCDI12
 legal_owners0 17 1 lCZ1 32 122 123 9000 0 0 0 0 3 6 0 0 0 FFTFTFTTFFFFFFFFF1 82
 255 3 121 152 272 1 79 255 9 123 BTI/DetId17 92 0 119 90 26 52 84 105 0 0 -14 2
55 120 12 124 ?83 89 119 6 125 +0 0 83 89 24 81 1 124 185 126 120 127 0 128 129
 130 14 83 20 129 ?117 120 82 6 131 -0 0 117 120 24 14 89 9 128 ?120 17 77 6 132
 +0 0 120 0 24 50 125 73 0 120 0 133 0 +3.10515 -1.92481773889993 4.894210083820
53 0 .56610724400796 -.824331600923871 1 0 0 13 24 3 0 0 0 0 0 0 10 89 50 133 86
 0 17 125 131 0 +1.35255 -2.15308633236504 5.36911059136039 0 -.56610724400796 .
824331600923871 1 0 0 14 17 6 134 ?89 0 70 6 133 +0 0 0 19 24 50 131 87 0 83 133
 132 0 +1.6637 -4.227656211956555 3.94440840146347 -1 0 0 0 0 1 50 132 88 0 89 1
31 20 0 +1.56845 -4.253828740285885 3.926434496466215 0 -.824331600923871 -.5661
0724400796 0 .56610724400796 -.824331600923871 50 20 89 0 117 132 7 0 +1.4732 -1
.53151560168181 5.79597484466419 -1 0 0 0 0 1 14 117 23 135 ?19 83 45 6 20 +0 0
 19 83 24 81 1 135 187 126 117 136 0 129 137 138 14 19 26 137 ?0 117 36 6 7 +0 0
 17 117 24 81 1 137 188 126 19 139 0 135 0 140 80 1 126 0 141 8001 0 0 0 0 3 5 0
 0 0 FFFFTFTFFFFFFFFFF2 81 1 139 178 32 19 0 137 142 143 144 83 255 3 140 .61568
6274509804 .811764705882353 .929411764705882 81 1 142 177 32 89 0 128 145 139 14
6 81 1 143 179 32 1 0 147 139 0 148 82 3 144 152 156 2 81 1 147 180 149 1 143 14
 0 0 150 82 3 148 152 20 3 80 1 149 151 152 8038 0 0 0 0 0 0 0 0 0 TTTTTTTTTTTTT
FTFT10 81 1 14 181 151 1 147 2 0 0 153 98 255 8 150 80 97 114 116 32 50 54 55 80
 1 151 154 155 8017 0 0 0 0 0 0 0 0 0 TTTTTTTTTTTTTFTFT3 84 255 8 153 Part 26779
 13 155 SDL/TYSA_NAME79 14 152 SDL/TYSA_UNAME81 1 128 184 126 89 142 0 134 124 1
56 81 1 145 176 32 83 0 129 157 142 158 82 3 146 152 152 2 81 1 129 186 126 83 1
45 0 124 135 159 81 1 157 175 32 17 0 134 127 145 160 82 3 158 152 144 2 81 1 13
4 183 126 17 157 0 0 128 161 81 1 127 174 32 120 0 124 136 157 162 82 3 160 152
 122 2 81 1 136 173 32 117 0 135 100 127 163 82 3 162 152 121 2 81 1 100 172 32
 95 0 0 25 136 164 82 3 163 152 120 2 81 1 25 171 32 11 0 0 80 100 165 82 3 164
 152 313 1 81 1 80 170 32 73 0 0 112 25 166 82 3 165 152 312 1 81 1 112 169 32 9
1 0 0 87 80 167 82 3 166 152 305 1 81 1 87 168 32 75 0 0 108 112 168 82 3 167 15
2 304 1 82 3 168 152 289 1 83 3 161 .615686274509804 .811764705882353 .929411764
705882 83 3 159 .615686274509804 .811764705882353 .929411764705882 83 3 156 .615
686274509804 .811764705882353 .929411764705882 79 15 141 SDL/TYSA_COLOUR83 3 138
 .615686274509804 .811764705882353 .929411764705882 83 3 130 .615686274509804 .8
11764705882353 .929411764705882 17 60 0 70 65 71 58 38 95 0 47 -17 51 0 77 86 72
 42 79 94 0 46 +82 3 116 152 273 1 82 3 111 152 288 1 82 3 107 152 245 1 81 1 97
 162 32 94 0 0 93 102 169 82 3 104 152 244 1 82 3 169 152 241 1 81 1 34 160 32 6
1 0 0 29 93 170 82 3 98 152 240 1 82 3 170 152 171 0 81 1 56 153 32 52 0 0 0 67
 171 81 1 50 155 32 42 0 0 67 43 172 82 3 69 152 161 0 81 1 43 156 32 63 0 0 50
 40 173 82 3 172 152 162 0 82 3 173 152 163 0 82 3 171 152 160 0 81 1 33 158 32
 58 0 0 40 29 174 82 3 174 152 169 0 82 3 44 152 168 0 82 3 35 152 170 0 19 18 4
 0 1 0 10 6 0 S0 74 4 CI16 index_map_offset0 0 1 dCCZ20 16 5 0 0 143 147 14 2 13
7 0 0 0 0 0 0 0 0 0 0 0 0 0 0 0 80 1 13 126 175 8040 0 0 0 0 3 5 0 0 0 TTTFFFFFF
FFFFFFFF2 83 3 15 .615686274509804 .811764705882353 .929411764705882 79 17 175 S
DL/TYSA_COLOUR_21 0 
