**ABCDEFGHIJKLMNOPQRSTUVWXYZabcdefghijklmnopqrstuvwxyz**************************
**PARASOLID !"#$%&'()*+,-./:;<=>?@[\]^_`{|}~0123456789**************************
**PART1;
MC=unknown;
MC_MODEL=unknown;
MC_ID=unknown;
OS=unknown;
OS_RELEASE=unknown;
FRU=Parasolid 36.0.180;
APPL=Onshape;
SITE=unknown;
USER=unknown;
FORMAT=text;
GUISE=transmit;
KEY=BTGapi::writeModels_.xmt;
FILE=BTGapi::writeModels_.xmt;
DATE=2024-05-15T00:06:35 (UTC);
**PART2;
SCH=SCH_3600180_36001;
USFLD_SIZE=0;
**PART3;
**END_OF_HEADER*****************************************************************
T51 : TRANSMIT FILE created by modeller version 360018023 SCH_3600180_36001_1300
6231 0 12 36 CCCI7 lattice222 0 CCCI4 mesh1006 0 I8 polyline1008 0 CCCCCCCDI5 ow
ner1040 0 CCCI16 boundary_lattice222 0 CCCI13 boundary_mesh1006 0 I17 boundary_p
olyline1008 0 CCCA16 index_map_offset0 0 1 dA9 index_map82 0 A17 node_id_index_m
ap82 0 A20 schema_embedding_map82 0 A5 child12 0 A14 lowest_node_id0 0 1 dA16 me
sh_offset_data206 0 Z1 170 2 3 0 0 0 0 0 0 0 1e3 1e-8 0 4 5 1 0 1 2 6 0 7 8 9 0
 0 10 11 12 0 0 0 0 0 0 0 81 255 1 2 164 13 1 14 0 0 0 15 70 11 CI9 list_type0 0
 1 uI10 notransmit0 0 1 lCCCDCCDI12 finger_index0 0 1 dI12 finger_block1012 0 CZ
3 0 4 T1 0 0 5 20 1 16 16 13 255 6 5 0 1 0 17 0 0 18 0 50 255 7 90 0 19 20 0 0 +
-1.09855 2.730502 4.137025 -1 2449293598294705e-31 0 2449293598294705e-31 1 0 30
 255 8 98 0 21 22 0 0 +-1.09855 2.730502 3.99415 -2449293598294705e-31 -1 0 29 2
55 9 85 0 12 23 0 -1.09855 2.54 3.99415 19 9 CCCCCCI5 frame230 0 CA5 owner12 0 Z
10 1 0 1 18 0 24 0 V0 16 255 11 29 25 ?26 0 27 28 0 0 1 18 255 12 53 29 30 0 31
 9 ?1 81 1 29 135 32 12 0 0 0 33 34 17 255 30 0 35 26 36 12 37 21 0 38 +18 31 57
 39 40 12 41 23 ?1 81 1 39 141 32 31 0 0 42 43 44 17 40 0 45 46 47 31 48 49 0 26
 +18 41 61 50 46 31 51 52 ?1 29 23 84 0 31 52 9 -1.09855 2.54 4.2799 29 52 83 0
 41 53 23 -1.03505 2.54 4.2799 29 53 82 0 51 54 52 -1.03505 2.54 3.99415 18 51 6
5 55 56 41 57 53 ?1 29 54 81 0 57 58 53 -1.09855 2.7305 3.99415 18 57 69 33 37 5
1 59 54 ?1 29 58 80 0 59 60 54 -1.09855 2.7305 4.2799 18 59 70 43 48 57 61 58 ?1
 29 60 79 0 61 62 58 -1.03505 2.7305 3.99415 18 61 71 63 64 59 65 60 ?1 29 62 78
 0 65 0 60 -1.03505 2.7305 4.2799 18 65 72 42 66 61 0 62 ?1 81 1 42 140 32 65 0
 0 50 39 67 17 66 0 45 47 46 65 68 69 0 70 -15 255 45 22 0 47 71 0 17 47 0 45 40
 66 59 72 73 0 74 +17 46 0 45 66 40 41 75 27 0 76 -17 68 0 77 78 70 41 66 69 0 0
 +16 69 47 79 ?68 49 80 81 0 0 1 17 70 0 77 68 64 65 82 83 0 72 +15 77 11 0 70 8
4 0 17 64 0 77 70 78 61 85 80 0 82 -17 82 0 86 87 72 61 70 83 0 88 -16 83 51 89
 ?70 90 73 91 0 0 1 17 72 0 86 82 74 65 47 73 0 0 -15 86 8 0 87 17 0 17 74 0 86
 72 87 59 36 92 0 0 +16 73 52 93 ?47 83 0 94 0 0 1 81 1 93 148 32 73 0 0 95 96 9
7 30 94 94 0 73 91 98 0 +-2.1209 2.7305 4.2799 -1 0 0 30 91 93 0 83 99 94 0 +-1.
03505 2.7305 4.137025 0 0 1 30 98 95 0 80 94 81 0 +-1.03505 2.730502 3.99415 -24
49293598294705e-31 -1 0 16 80 48 100 ?85 69 92 98 0 0 1 30 81 96 0 69 98 22 0 +-
1.03505 2.730502 4.2799 -2449293598294705e-31 -1 0 30 22 97 0 49 81 8 0 +-1.0985
5 2.730502 4.2799 -2449293598294705e-31 -1 0 16 49 46 101 ?40 21 69 22 0 0 1 81
 1 101 146 32 49 0 0 79 95 102 16 21 45 103 ?30 104 49 8 0 0 1 81 1 103 143 32 2
1 0 0 43 100 105 16 104 41 96 ?106 107 21 108 0 0 1 81 1 96 149 32 104 0 0 93 10
9 110 17 106 0 111 37 85 12 56 104 0 0 +16 107 37 112 ?76 27 104 113 0 0 1 30 10
8 75 0 104 114 113 0 +-2.1209 2.54 3.99415 -1 2449293598294705e-31 0 30 114 74 0
 27 0 108 0 +-2.1209 2.54 4.2799 -1 2449293598294705e-31 0 30 113 76 0 107 108 2
8 0 +-1.03505 2.54 4.137025 0 0 1 30 28 77 0 11 113 115 0 +-1.09855 2.54 4.13702
5 0 0 1 30 115 91 0 92 28 99 0 +-1.09855 2.7305 4.137025 0 0 1 16 92 49 116 ?74
 80 90 115 0 0 1 30 99 92 0 90 115 91 0 +-2.1209 2.7305 3.99415 -1 0 0 16 90 50
 109 ?87 92 83 99 0 0 1 81 1 109 150 32 90 0 0 96 112 117 17 87 0 86 74 82 57 88
 90 0 0 +17 88 0 111 85 37 61 87 90 0 0 -15 111 25 0 85 118 0 17 85 0 111 106 88
 51 64 80 0 78 +17 37 0 111 88 106 57 30 21 0 36 -17 36 0 35 30 48 57 74 92 0 87
 -15 35 28 0 30 19 0 17 48 0 35 36 26 59 40 49 0 47 -17 26 0 35 48 30 31 38 11 0
 75 +17 38 0 119 56 75 12 26 11 0 106 -17 75 0 119 38 76 31 46 27 0 0 +15 119 19
 0 56 120 0 17 76 0 119 75 56 41 78 107 0 68 +16 27 33 95 ?75 11 107 114 0 0 1 8
1 1 95 147 32 27 0 0 101 93 121 80 7 CCCCCDI12 legal_owners0 17 1 lCZ1 32 122 12
3 9000 0 0 0 0 3 6 0 0 0 FFTFTFTTFFFFFFFFF1 82 255 3 121 128 34 1 79 255 9 123 B
TI/DetId17 56 0 119 76 38 51 106 104 0 85 -17 78 0 77 64 68 51 76 107 0 0 -14 25
5 120 12 124 ?71 84 119 6 125 -0 0 71 84 24 81 1 124 167 126 120 127 0 128 129 1
30 14 71 20 129 ?118 120 45 6 20 -0 0 118 120 24 14 84 9 128 ?120 17 77 6 131 -0
 0 120 17 24 50 125 73 0 120 0 132 0 +178031364116793e-30 2.54 4.137025 24492935
98294705e-31 1 0 1 -2449293598294705e-31 0 13 24 3 0 0 0 0 0 0 10 17 14 17 6 133
 ?84 0 86 6 132 +0 0 84 0 24 81 1 133 165 126 17 134 0 0 128 135 50 132 86 0 17
 125 136 0 +4440892098500625e-31 2.7305 2.40919 0 1 0 1 0 0 50 136 87 0 118 132
 131 0 +-2.1209 2.730502 3.99415 0 0 -1 -1 0 0 14 118 23 137 ?19 71 111 6 136 +0
 0 19 71 24 50 131 88 0 84 136 20 0 +-1.03505 2.730502 4.137025 -1 2449293598294
705e-31 0 2449293598294705e-31 1 0 50 20 89 0 71 131 7 0 +-2.1209 2.730502 4.279
9 0 0 -1 -1 0 0 81 1 137 169 126 118 138 0 129 139 140 14 19 26 139 ?0 118 35 6
 7 +0 0 0 118 24 81 1 139 170 126 19 141 0 137 0 142 80 1 126 0 143 8001 0 0 0 0
 3 5 0 0 0 FFFFTFTFFFFFFFFFF2 81 1 141 160 32 19 0 139 144 145 146 83 255 3 142
 .980392156862745 .713725490196078 .00392156862745098 81 1 144 159 32 84 0 128 1
38 141 147 81 1 145 161 32 1 0 148 141 0 149 82 3 146 128 29 2 81 1 148 162 150
 1 145 14 0 0 151 82 3 149 128 5 3 80 1 150 152 153 8038 0 0 0 0 0 0 0 0 0 TTTTT
TTTTTTTTFTFT10 81 1 14 163 152 1 148 2 0 0 154 98 255 27 151 80 97 114 116 32 50
 49 51 32 32 50 46 53 120 55 46 53 120 49 49 46 50 53 32 98 111 116 80 1 152 155
 156 8017 0 0 0 0 0 0 0 0 0 TTTTTTTTTTTTTFTFT3 84 255 27 154 Part 213  2.5x7.5x1
1.25 bot79 13 156 SDL/TYSA_NAME79 14 153 SDL/TYSA_UNAME81 1 128 166 126 84 144 0
 133 124 157 81 1 138 158 32 118 0 137 134 144 158 82 3 147 128 28 2 81 1 134 15
7 32 17 0 133 127 138 159 82 3 158 128 18 2 81 1 127 156 32 120 0 124 160 134 16
1 82 3 159 128 17 2 81 1 160 155 32 71 0 129 116 127 162 82 3 161 128 16 2 81 1
 129 168 126 71 160 0 124 137 163 81 1 116 154 32 92 0 0 25 160 164 82 3 162 128
 15 2 81 1 25 153 32 11 0 0 89 116 165 82 3 164 128 59 1 81 1 89 152 32 83 0 0 1
12 25 166 82 3 165 128 58 1 81 1 112 151 32 107 0 0 109 89 167 82 3 166 128 57 1
 82 3 167 128 56 1 83 3 163 .980392156862745 .713725490196078 .00392156862745098
 83 3 157 .980392156862745 .713725490196078 .00392156862745098 79 15 143 SDL/TYS
A_COLOUR83 3 140 .980392156862745 .713725490196078 .00392156862745098 83 3 135 .
980392156862745 .713725490196078 .00392156862745098 83 3 130 .980392156862745 .7
13725490196078 .00392156862745098 82 3 117 128 37 1 82 3 110 128 36 1 81 1 43 14
2 32 59 0 0 39 103 168 81 1 100 144 32 80 0 0 103 79 169 82 3 105 128 0 1 81 1 7
9 145 32 69 0 0 100 101 170 82 3 169 128 10 1 82 3 170 128 11 1 82 3 168 128 25
 0 82 3 102 128 12 1 82 3 97 128 35 1 81 1 50 139 32 41 0 0 63 42 171 82 3 67 12
8 23 0 81 1 63 138 32 61 0 0 55 50 172 82 3 171 128 22 0 81 1 55 137 32 51 0 0 3
3 63 173 82 3 172 128 21 0 81 1 33 136 32 57 0 0 29 55 174 82 3 173 128 20 0 82
 3 174 128 1 0 82 3 44 128 24 0 82 3 34 128 0 0 19 18 4 0 1 0 10 6 0 S0 74 4 CI1
6 index_map_offset0 0 1 dCCZ20 16 5 0 0 145 148 14 2 139 0 0 0 0 0 0 0 0 0 0 0 0
 0 0 0 80 1 13 126 175 8040 0 0 0 0 3 5 0 0 0 TTTFFFFFFFFFFFFFF2 83 3 15 .980392
156862745 .713725490196078 .00392156862745098 79 17 175 SDL/TYSA_COLOUR_21 0 
