**ABCDEFGHIJKLMNOPQRSTUVWXYZabcdefghijklmnopqrstuvwxyz**************************
**PARASOLID !"#$%&'()*+,-./:;<=>?@[\]^_`{|}~0123456789**************************
**PART1;
MC=unknown;
MC_MODEL=unknown;
MC_ID=unknown;
OS=unknown;
OS_RELEASE=unknown;
FRU=Parasolid 36.0.180;
APPL=Onshape;
SITE=unknown;
USER=unknown;
FORMAT=text;
GUISE=transmit;
KEY=BTGapi::writeModels_.xmt;
FILE=BTGapi::writeModels_.xmt;
DATE=2024-05-15T00:06:35 (UTC);
**PART2;
SCH=SCH_3600180_36001;
USFLD_SIZE=0;
**PART3;
**END_OF_HEADER*****************************************************************
T51 : TRANSMIT FILE created by modeller version 360018023 SCH_3600180_36001_1300
6231 0 12 36 CCCI7 lattice222 0 CCCI4 mesh1006 0 I8 polyline1008 0 CCCCCCCDI5 ow
ner1040 0 CCCI16 boundary_lattice222 0 CCCI13 boundary_mesh1006 0 I17 boundary_p
olyline1008 0 CCCA16 index_map_offset0 0 1 dA9 index_map82 0 A17 node_id_index_m
ap82 0 A20 schema_embedding_map82 0 A5 child12 0 A14 lowest_node_id0 0 1 dA16 me
sh_offset_data206 0 Z1 2170 2 3 0 0 0 0 0 0 0 1e3 1e-8 0 4 5 1 0 1 2 6 0 7 8 9 0
 0 10 11 12 0 0 0 0 0 0 0 81 255 1 2 2151 13 1 14 0 0 0 15 70 11 CI9 list_type0
 0 1 uI10 notransmit0 0 1 lCCCDCCDI12 finger_index0 0 1 dI12 finger_block1012 0
 CZ3 0 4 T1 0 0 6 20 1 16 16 13 255 6 1990 0 1 0 17 0 0 18 0 50 255 7 1972 0 17
 19 0 0 +5.0466220607938 -.0486940111478653 .2567736503211305 0 -1 0 0 0 -1 30 2
55 8 1989 0 11 20 0 0 +5.0466220607938 -.0486940111478653 .125333715349993 -1 0
 0 29 255 9 1888 0 21 22 0 4.9958220607938 -.0486940111478653 .3882135852922675
 19 9 CCCCCCI5 frame230 0 CA5 owner12 0 Z10 1631 0 1 18 0 23 0 V0 16 255 11 1921
 24 ?25 0 26 8 0 0 1 18 255 12 1110 27 28 0 29 30 ?1 81 1 27 2047 31 12 0 0 32 3
3 34 17 255 28 0 35 36 37 12 38 39 0 40 -18 29 1105 41 42 12 43 44 ?1 29 30 1112
 0 12 44 45 5.0466220607938 -.0486940111478653 .3882135852922675 29 44 1107 0 29
 46 30 5.0466220607938 -.0712926642272893 .462296833838725 29 45 1904 0 47 30 48
 4.9958220607938 -.0486940111478653 .125333715349993 18 47 1866 49 25 50 0 45 ?1
 29 48 1903 0 50 45 51 4.9958220607938 .0128739728322973 .125333715349993 18 50
 1862 52 53 54 47 48 ?1 29 51 1902 0 54 48 55 4.9958220607938 .0128739728322973
 .390348891095048 18 54 1858 56 57 58 50 51 ?1 29 55 1901 0 58 51 59 4.995822060
7938 -.02419730846597035 .503698040792631 18 58 1854 60 61 62 54 55 ?1 29 59 190
0 0 62 55 63 4.9958220607938 -.134699383759846 .539108528688736 18 62 1850 64 65
 66 58 59 ?1 29 63 1899 0 66 59 67 4.9958220607938 -.210680681908775 .5225599087
17189 18 66 1846 68 69 70 62 63 ?1 29 67 1898 0 70 63 71 4.9958220607938 -.26376
67567278945 .475998379406565 18 70 1842 72 73 74 66 67 ?1 29 71 1897 0 74 67 75
 4.9958220607938 -.2667324592317555 .475998379406565 18 74 1838 76 77 78 70 71 ?
1 29 75 1896 0 78 71 79 4.9958220607938 -.27669721964473 .531634958379005 18 78
 1834 80 81 82 74 75 ?1 29 79 1895 0 82 75 83 4.9958220607938 -.3267582779099105
 .531634958379005 18 82 1830 84 85 86 78 79 ?1 29 83 1894 0 86 79 87 4.995822060
7938 -.3267582779099105 .125333715349993 18 86 1826 88 89 90 82 83 ?1 29 87 1893
 0 90 83 91 4.9958220607938 -.2651902939297475 .125333715349993 18 90 1822 92 93
 94 86 87 ?1 29 91 1892 0 94 87 95 4.9958220607938 -.2651902939297475 .338508411
3275505 18 94 1818 96 97 98 90 91 ?1 29 95 1891 0 98 91 99 4.9958220607938 -.235
5332688911335 .452332073425751 18 98 1814 100 101 102 94 95 ?1 29 99 1890 0 102
 95 22 4.9958220607938 -.142172954069577 .486793536520621 18 102 1810 103 104 10
5 98 99 ?1 29 22 1889 0 105 99 9 4.9958220607938 -.0712926642272893 .46229683383
8725 18 105 1806 33 106 21 102 22 ?1 81 1 33 2048 31 105 0 0 27 41 107 17 106 0
 35 37 36 105 42 108 0 109 +18 21 1802 32 38 110 105 9 ?1 81 1 32 2046 31 21 0 0
 111 27 112 17 38 0 113 114 40 21 28 39 0 115 +18 110 1030 111 116 117 21 118 ?1
 81 1 111 2045 31 110 0 0 49 32 119 17 116 0 113 40 114 110 25 11 0 120 -18 117
 1035 121 122 123 110 124 ?1 29 118 1032 0 110 0 124 5.0466220607938 -.048694011
1478653 .125333715349993 29 124 1037 0 117 118 125 5.0466220607938 .012873972832
2973 .125333715349993 29 125 1042 0 123 124 126 5.0466220607938 .012873972832297
3 .390348891095048 18 123 1040 127 128 129 117 125 ?1 29 126 1047 0 129 125 130
 5.0466220607938 -.02419730846597035 .503698040792631 18 129 1045 131 132 133 12
3 126 ?1 29 130 1052 0 133 126 134 5.0466220607938 -.134699383759846 .5391085286
88736 18 133 1050 135 136 137 129 130 ?1 29 134 1057 0 137 130 138 5.04662206079
38 -.210680681908775 .522559908717189 18 137 1055 139 140 141 133 134 ?1 29 138
 1062 0 141 134 142 5.0466220607938 -.2637667567278945 .475998379406565 18 141 1
060 143 144 145 137 138 ?1 29 142 1067 0 145 138 146 5.0466220607938 -.266732459
2317555 .475998379406565 18 145 1065 147 148 149 141 142 ?1 29 146 1072 0 149 14
2 150 5.0466220607938 -.27669721964473 .531634958379005 18 149 1070 151 152 153
 145 146 ?1 29 150 1077 0 153 146 154 5.0466220607938 -.3267582779099105 .531634
958379005 18 153 1075 155 156 157 149 150 ?1 29 154 1082 0 157 150 158 5.0466220
607938 -.3267582779099105 .125333715349993 18 157 1080 159 160 161 153 154 ?1 29
 158 1087 0 161 154 162 5.0466220607938 -.2651902939297475 .125333715349993 18 1
61 1085 163 164 165 157 158 ?1 29 162 1092 0 165 158 166 5.0466220607938 -.26519
02939297475 .3385084113275505 18 165 1090 167 168 169 161 162 ?1 29 166 1097 0 1
69 162 46 5.0466220607938 -.2355332688911335 .452332073425751 18 169 1095 170 17
1 43 165 166 ?1 29 46 1102 0 43 166 44 5.0466220607938 -.142172954069577 .486793
536520621 18 43 1100 172 173 29 169 46 ?1 81 1 172 2051 31 43 0 0 103 100 174 17
 173 0 175 176 177 43 104 178 0 179 -15 255 175 1926 0 177 180 0 17 176 0 175 10
1 173 169 179 181 0 0 +17 177 0 175 173 101 102 182 183 0 184 -17 104 0 185 109
 186 102 173 178 0 177 +16 178 1907 187 ?104 188 108 189 0 0 1 17 179 0 190 191
 192 43 176 181 0 186 -15 190 10 0 120 193 0 17 191 0 190 194 179 29 186 195 0 3
6 -17 192 0 190 179 196 169 197 198 0 176 -16 181 269 199 ?176 195 198 200 0 0 1
 17 186 0 185 104 42 43 191 195 0 0 +15 185 1924 0 109 201 0 17 42 0 185 186 109
 29 106 108 0 191 -16 195 275 202 ?186 203 181 204 0 0 1 81 1 202 2100 31 195 20
5 0 206 207 208 16 203 281 209 ?36 39 195 210 0 0 1 134 255 204 277 0 195 200 21
0 211 +212 213 134 200 271 0 181 214 204 215 +216 217 134 210 283 0 203 204 218
 219 +220 221 141 255 211 222 211 211 204 136 255 212 2 3 3 2 5 FFF2 223 224 225
 135 255 213 2 0 45 255 9 223 5.0466220607938 -.0712926642272893 .46229683383872
5 5.0466220607938 -.0938913173067131 .486793536520621 5.0466220607938 -.14217295
4069577 .486793536520621 127 255 4 224 3 3 0 0 128 255 4 225 0 1 ??67 255 222 19
57 0 201 226 227 0 +204 -1 0 0 ?14 255 201 1925 228 ?229 180 185 6 222 +0 0 229
 180 23 67 226 1956 0 229 230 222 0 +210 -1 0 0 ?67 227 1958 0 180 222 231 0 +20
0 -1 0 0 ?14 180 1927 232 ?201 233 175 6 227 +0 0 201 233 23 67 231 1959 0 233 2
27 234 0 +214 -1 0 0 ?14 233 1929 235 ?180 236 237 6 231 +0 0 180 236 23 50 234
 1960 0 236 231 238 0 +5.0466220607938 -.2651902939297475 .2319210633387715 0 1
 0 0 0 1 134 214 265 0 198 239 200 240 +241 242 16 198 263 243 ?197 181 244 214
 0 0 1 30 239 259 0 244 245 214 0 +5.0466220607938 -.2651902939297475 .231921063
3387715 0 0 -1 141 240 231 240 240 214 136 241 2 3 3 2 5 FFF2 246 247 248 135 24
2 2 0 45 9 246 5.0466220607938 -.2355332688911335 .452332073425751 5.04662206079
38 -.2651902939297475 .4178706103308815 5.0466220607938 -.2651902939297475 .3385
084113275505 127 4 247 3 3 0 0 128 4 248 0 1 ??16 244 257 249 ?250 198 251 239 0
 0 1 30 245 253 0 251 252 239 0 +5.0466220607938 -.295974285919829 .125333715349
993 0 -1 0 16 251 251 253 ?254 244 255 245 0 0 1 30 252 247 0 255 256 245 0 +5.0
466220607938 -.3267582779099105 .328484336864499 0 0 1 16 255 245 257 ?258 251 2
59 252 0 0 1 30 256 241 0 259 260 252 0 +5.0466220607938 -.30172774877732 .53163
4958379005 0 1 0 16 259 239 261 ?262 255 263 256 0 0 1 30 260 235 0 263 264 256
 0 +5.0466220607938 -.271714839438243 .503816668892785 0 .1762991002830975 -.984
336643247304 16 263 233 265 ?266 259 267 260 0 0 1 30 264 229 0 267 268 260 0 +5
.0466220607938 -.265249607979825 .475998379406565 0 1 0 16 267 227 269 ?270 263
 271 264 0 0 1 134 268 223 0 271 272 264 273 +274 275 16 271 221 276 ?277 267 27
8 268 0 0 1 134 272 217 0 278 279 268 280 +281 282 141 273 283 273 273 268 136 2
74 2 3 3 2 5 FFF2 284 285 286 135 275 2 0 45 9 284 5.0466220607938 -.26376675672
78945 .475998379406565 5.0466220607938 -.2447862607031815 .506011288745643 5.046
6220607938 -.210680681908775 .522559908717189 127 4 285 3 3 0 0 128 4 286 0 1 ??
67 283 1966 0 287 288 289 0 +268 -1 0 0 ?14 287 1943 290 ?291 292 293 6 283 +0 0
 291 292 23 50 288 1965 0 291 294 283 0 +5.0466220607938 -.265249607979825 .4759
98379406565 0 0 1 1 0 0 67 289 1967 0 292 283 295 0 +272 -1 0 0 ?14 292 1945 296
 ?287 297 298 6 289 +0 0 287 297 23 67 295 1968 0 297 289 299 0 +279 -1 0 0 ?14
 297 1947 300 ?292 301 302 6 295 +0 0 292 301 23 67 299 1969 0 301 295 303 0 +30
4 -1 0 0 ?134 279 211 0 305 304 272 306 +307 308 16 305 209 309 ?310 278 311 279
 0 0 1 134 304 205 0 311 312 279 313 +314 315 141 306 295 306 306 279 136 307 2
 3 3 2 5 FFF2 316 317 318 135 308 2 0 45 9 316 5.0466220607938 -.134699383759846
 .539108528688736 5.0466220607938 -.0612685897642378 .539108528688736 5.04662206
07938 -.02419730846597035 .503698040792631 127 4 317 3 3 0 0 128 4 318 0 1 ??16
 311 203 319 ?320 305 321 304 0 0 1 30 312 199 0 321 322 304 0 +5.0466220607938
 .0128739728322973 .2578413032225205 0 0 -1 141 313 299 313 313 304 136 314 2 3
 3 2 5 FFF2 323 324 325 135 315 2 0 45 9 323 5.0466220607938 -.02419730846597035
 .503698040792631 5.0466220607938 .0128739728322973 .468287552896525 5.046622060
7938 .0128739728322973 .390348891095048 127 4 324 3 3 0 0 128 4 325 0 1 ??16 321
 197 326 ?327 311 328 312 0 0 1 30 322 193 0 328 329 312 0 +5.0466220607938 -.01
7910019157784 .125333715349993 0 -1 0 16 328 191 330 ?331 321 332 322 0 0 1 30 3
29 187 0 332 0 322 0 +5.0466220607938 -.0486940111478653 .2567736503211305 0 0 1
 16 332 185 333 ?40 328 334 329 0 0 1 81 1 333 2096 31 332 335 0 336 337 338 17
 40 0 113 38 116 12 120 332 0 194 +16 334 1717 337 ?339 332 340 341 0 0 1 81 1 3
37 2097 31 334 342 0 333 209 343 17 339 0 344 184 115 105 37 334 0 0 +16 340 172
2 206 ?184 334 183 345 0 0 1 134 341 1871 0 334 345 346 0 +347 348 134 345 1872
 0 340 349 341 0 +350 351 30 346 1973 0 39 341 352 0 +5.0466220607938 -.04869401
11478653 .3882135852922675 -1 0 0 136 347 2 3 3 2 5 FFF2 353 354 355 135 348 2 0
 45 9 353 4.9958220607938 -.0486940111478653 .3882135852922675 4.9958220607938 -
.0486940111478653 .43780013115683 4.9958220607938 -.0712926642272893 .4622968338
38725 127 4 354 3 3 0 0 128 4 355 0 1 ??16 39 1905 356 ?38 108 203 346 0 0 1 30
 352 1974 0 108 346 189 0 +5.0466220607938 -.0712926642272893 .462296833838725 -
1 0 0 16 108 1906 357 ?106 178 39 352 0 0 1 30 189 1975 0 178 352 358 0 +5.04662
20607938 -.142172954069577 .486793536520621 -1 0 0 30 358 1976 0 188 189 359 0 +
5.0466220607938 -.2355332688911335 .452332073425751 -1 0 0 16 188 1908 360 ?101
 361 178 358 0 0 1 30 359 1977 0 361 358 362 0 +5.0466220607938 -.26519029392974
75 .3385084113275505 -1 0 0 16 361 1909 363 ?97 364 188 359 0 0 1 30 362 1978 0
 364 359 365 0 +5.0466220607938 -.2651902939297475 .125333715349993 -1 0 0 16 36
4 1910 366 ?93 367 361 362 0 0 1 30 365 1979 0 367 362 368 0 +5.0466220607938 -.
3267582779099105 .125333715349993 -1 0 0 16 367 1911 369 ?89 370 364 365 0 0 1 3
0 368 1980 0 370 365 371 0 +5.0466220607938 -.3267582779099105 .531634958379005
 -1 0 0 16 370 1912 372 ?85 373 367 368 0 0 1 30 371 1981 0 373 368 374 0 +5.046
6220607938 -.27669721964473 .531634958379005 -1 0 0 16 373 1913 375 ?81 376 370
 371 0 0 1 30 374 1982 0 376 371 377 0 +5.0466220607938 -.2667324592317555 .4759
98379406565 -1 0 0 16 376 1914 378 ?77 379 373 374 0 0 1 30 377 1983 0 379 374 3
80 0 +5.0466220607938 -.2637667567278945 .475998379406565 -1 0 0 16 379 1915 381
 ?73 382 376 377 0 0 1 30 380 1984 0 382 377 383 0 +5.0466220607938 -.2106806819
08775 .522559908717189 -1 0 0 16 382 1916 384 ?69 385 379 380 0 0 1 30 383 1985
 0 385 380 386 0 +5.0466220607938 -.134699383759846 .539108528688736 -1 0 0 16 3
85 1917 387 ?65 388 382 383 0 0 1 30 386 1986 0 388 383 389 0 +5.0466220607938 -
.02419730846597035 .503698040792631 -1 0 0 16 388 1918 390 ?61 391 385 386 0 0 1
 30 389 1987 0 391 386 20 0 +5.0466220607938 .0128739728322973 .390348891095048
 -1 0 0 16 391 1919 392 ?57 26 388 389 0 0 1 30 20 1988 0 26 389 8 0 +5.04662206
07938 .0128739728322973 .125333715349993 -1 0 0 16 26 1920 393 ?53 11 391 20 0 0
 1 81 1 393 2094 31 26 0 0 392 336 394 17 53 0 395 396 327 50 122 26 0 397 +15 3
95 1950 0 396 398 0 17 396 0 395 128 53 54 399 400 0 401 -17 327 0 395 53 128 11
7 402 321 0 0 +17 122 0 403 331 397 117 53 26 0 404 -17 397 0 403 122 25 50 405
 406 0 399 -15 403 1952 0 397 407 0 17 25 0 403 397 331 47 116 11 0 114 +17 405
 0 344 115 399 47 397 406 0 0 +16 406 1792 408 ?405 400 409 410 0 0 1 17 399 0 3
44 405 401 50 396 400 0 0 +15 344 1716 0 115 411 0 17 401 0 344 399 412 54 413 4
14 0 0 +16 400 1787 415 ?399 414 406 416 0 0 1 81 1 415 2125 31 400 417 0 319 32
6 418 16 414 1782 419 ?401 420 400 421 0 0 1 30 416 1885 0 400 410 421 0 +4.9958
220607938 .0128739728322973 .2578413032225205 0 0 -1 30 410 1886 0 406 218 416 0
 +4.9958220607938 -.017910019157784 .125333715349993 0 -1 0 134 421 1884 0 414 4
16 422 0 +423 424 134 422 1883 0 420 421 425 0 +426 427 136 423 2 3 3 2 5 FFF2 4
28 429 430 135 424 2 0 45 9 428 4.9958220607938 -.02419730846597035 .50369804079
2631 4.9958220607938 .0128739728322973 .468287552896525 4.9958220607938 .0128739
728322973 .390348891095048 127 4 429 3 3 0 0 128 4 430 0 1 ??16 420 1777 431 ?41
2 432 414 422 0 0 1 134 425 1882 0 432 422 433 0 +434 435 136 426 2 3 3 2 5 FFF2
 436 437 438 135 427 2 0 45 9 436 4.9958220607938 -.134699383759846 .53910852868
8736 4.9958220607938 -.0612685897642378 .539108528688736 4.9958220607938 -.02419
730846597035 .503698040792631 127 4 437 3 3 0 0 128 4 438 0 1 ??16 432 1772 439
 ?440 441 420 425 0 0 1 134 433 1881 0 441 425 442 0 +443 444 136 434 2 3 3 2 5
 FFF2 445 446 447 135 435 2 0 45 9 445 4.9958220607938 -.210680681908775 .522559
908717189 4.9958220607938 -.176575103114369 .539108528688736 4.9958220607938 -.1
34699383759846 .539108528688736 127 4 446 3 3 0 0 128 4 447 0 1 ??16 441 1767 44
8 ?449 450 432 433 0 0 1 30 442 1880 0 450 433 451 0 +4.9958220607938 -.26524960
7979825 .475998379406565 0 1 0 136 443 2 3 3 2 5 FFF2 452 453 454 135 444 2 0 45
 9 452 4.9958220607938 -.2637667567278945 .475998379406565 4.9958220607938 -.244
7862607031815 .506011288745643 4.9958220607938 -.210680681908775 .52255990871718
9 127 4 453 3 3 0 0 128 4 454 0 1 ??16 450 1762 455 ?456 457 441 442 0 0 1 30 45
1 1879 0 457 442 458 0 +4.9958220607938 -.271714839438243 .503816668892785 0 .17
62991002830975 -.984336643247304 16 457 1757 459 ?460 461 450 451 0 0 1 30 458 1
878 0 461 451 462 0 +4.9958220607938 -.30172774877732 .531634958379005 0 1 0 16
 461 1752 463 ?464 465 457 458 0 0 1 30 462 1877 0 465 458 466 0 +4.995822060793
8 -.3267582779099105 .328484336864499 0 0 1 16 465 1747 467 ?468 469 461 462 0 0
 1 30 466 1876 0 469 462 470 0 +4.9958220607938 -.295974285919829 .1253337153499
93 0 -1 0 16 469 1742 471 ?472 473 465 466 0 0 1 30 470 1875 0 473 466 474 0 +4.
9958220607938 -.2651902939297475 .2319210633387715 0 0 -1 16 473 1737 475 ?476 4
77 469 470 0 0 1 134 474 1874 0 477 470 349 0 +478 479 16 477 1732 480 ?481 183
 473 474 0 0 1 134 349 1873 0 183 474 345 0 +482 483 136 478 2 3 3 2 5 FFF2 484
 485 486 135 479 2 0 45 9 484 4.9958220607938 -.2355332688911335 .45233207342575
1 4.9958220607938 -.2651902939297475 .4178706103308815 4.9958220607938 -.2651902
939297475 .3385084113275505 127 4 485 3 3 0 0 128 4 486 0 1 ??16 183 1727 207 ?1
82 340 477 349 0 0 1 136 482 2 3 3 2 5 FFF2 487 488 489 135 483 2 0 45 9 487 4.9
958220607938 -.142172954069577 .486793536520621 4.9958220607938 -.20587624385251
95 .486793536520621 4.9958220607938 -.2355332688911335 .452332073425751 127 4 48
8 3 3 0 0 128 4 489 0 1 ??81 1 207 2101 31 183 490 0 202 199 491 17 182 0 344 48
1 184 98 177 183 0 0 +17 481 0 344 476 182 94 492 477 0 0 +17 184 0 344 182 339
 102 109 340 0 0 +17 109 0 185 42 104 105 184 340 0 339 -17 476 0 344 472 481 90
 493 473 0 0 +17 492 0 237 171 97 98 481 477 0 182 -15 237 1928 0 492 233 0 17 1
71 0 237 197 492 169 101 188 0 192 -17 97 0 237 492 197 94 168 361 0 493 +17 197
 0 237 97 171 165 192 198 0 0 +17 168 0 494 250 493 165 97 361 0 196 -17 493 0 4
94 168 93 94 476 473 0 481 -15 494 1930 0 493 236 0 17 93 0 494 493 250 90 164 3
64 0 495 +17 250 0 494 93 168 161 196 244 0 0 +17 164 0 496 254 495 161 93 364 0
 497 -17 495 0 496 164 89 90 472 469 0 476 -15 496 1932 0 495 498 0 17 89 0 496
 495 254 86 160 367 0 499 +17 472 0 344 468 476 86 495 469 0 0 +17 468 0 344 464
 472 82 499 465 0 0 +17 464 0 344 460 468 78 500 461 0 0 +17 499 0 501 160 85 86
 468 465 0 472 -15 501 1934 0 499 502 0 17 160 0 501 258 499 157 89 367 0 503 -1
7 85 0 501 499 258 82 156 370 0 500 +17 258 0 501 85 160 153 503 255 0 0 +17 156
 0 504 262 500 153 85 370 0 505 -17 500 0 504 156 81 82 464 461 0 468 -15 504 19
36 0 500 506 0 17 81 0 504 500 262 78 152 373 0 507 +17 262 0 504 81 156 149 505
 259 0 0 +17 152 0 508 266 507 149 81 373 0 509 -17 507 0 508 152 77 78 460 457
 0 464 -15 508 1938 0 507 510 0 17 77 0 508 507 266 74 148 376 0 511 +17 460 0 3
44 456 464 74 507 457 0 0 +17 456 0 344 449 460 70 511 450 0 0 +17 449 0 344 440
 456 66 512 441 0 0 +17 511 0 513 148 73 74 456 450 0 460 -15 513 1940 0 511 291
 0 17 148 0 513 270 511 145 77 376 0 514 -17 73 0 513 511 270 70 144 379 0 512 +
17 270 0 513 73 148 141 514 267 0 0 +17 144 0 293 277 512 141 73 379 0 515 -17 5
12 0 293 144 69 70 449 441 0 456 -15 293 1942 0 512 287 0 17 69 0 293 512 277 66
 140 382 0 516 +17 277 0 293 69 144 137 515 271 0 0 +17 140 0 298 517 516 137 69
 382 0 518 -17 516 0 298 140 65 66 440 432 0 449 -15 298 1944 0 516 292 0 17 65
 0 298 516 517 62 136 385 0 519 +17 440 0 344 412 449 62 516 432 0 0 +17 412 0 3
44 401 440 58 519 420 0 0 +17 519 0 302 136 61 62 412 420 0 440 -15 302 1946 0 5
19 297 0 17 136 0 302 310 519 133 65 385 0 520 -17 61 0 302 519 310 58 132 388 0
 413 +17 310 0 302 61 136 129 520 305 0 0 +17 132 0 521 320 413 129 61 388 0 522
 -17 413 0 521 132 57 58 401 414 0 412 -15 521 1948 0 413 301 0 17 57 0 521 413
 320 54 128 391 0 396 +17 320 0 521 57 132 123 522 311 0 0 +17 128 0 395 327 396
 123 57 391 0 402 -17 402 0 190 522 404 123 327 321 0 320 -17 522 0 190 520 402
 129 320 311 0 310 -17 404 0 190 402 120 117 331 328 0 327 -17 120 0 190 404 194
 110 40 332 0 331 -17 331 0 403 25 122 110 404 328 0 0 +17 194 0 190 120 191 12
 36 203 0 0 -17 36 0 35 106 28 29 194 203 0 0 +15 35 1922 0 37 229 0 17 37 0 35
 28 106 21 339 334 0 0 -14 229 1923 523 ?193 201 35 6 226 +0 0 193 201 23 81 1 5
23 2168 524 229 525 0 228 526 527 14 193 7 526 ?411 229 190 6 528 +0 0 411 229 2
3 13 23 1638 0 0 0 0 0 0 10 17 14 17 1955 529 ?407 0 113 6 7 +0 0 407 0 23 81 1
 529 2152 524 17 530 0 0 531 532 14 407 1953 531 ?398 17 403 6 19 +0 0 398 17 23
 15 113 1954 0 114 17 0 17 114 0 113 116 38 47 115 409 0 405 -17 115 0 344 339 4
05 21 114 409 0 37 +16 409 1797 336 ?115 406 0 218 0 0 1 81 1 336 2095 31 409 53
3 0 393 333 534 30 218 1887 0 409 210 410 0 +4.9958220607938 -.0486940111478653
 .2567736503211305 0 0 1 80 7 CCCCCDI12 legal_owners0 17 1 lCZ1 31 535 536 9000
 0 0 0 0 3 6 0 0 0 FFTFTFTTFFFFFFFFF1 81 1 533 1799 537 409 0 336 538 0 539 82 2
55 3 534 159 249 1 80 1 537 540 541 9000 0 0 0 0 3 5 0 0 0 FFTFTFTTFFFFFFFFF3 81
 1 538 1794 537 406 0 408 417 533 542 84 255 34 539 PQoVoHnCctcR.sketch_text.str
oke-5281 1 408 2127 31 406 538 0 326 330 543 81 1 417 1789 537 400 0 415 544 538
 545 84 34 542 PQoVoHnCctcR.sketch_text.stroke-6881 1 544 1784 537 414 0 419 546
 417 547 84 34 545 PQoVoHnCctcR.sketch_text.stroke-6781 1 419 2123 31 414 544 0
 309 319 548 81 1 546 1779 537 420 0 431 549 544 550 84 34 547 PQoVoHnCctcR.sket
ch_text.stroke-6681 1 431 2121 31 420 546 0 551 309 552 81 1 549 1774 537 432 0
 439 553 546 554 84 34 550 PQoVoHnCctcR.sketch_text.stroke-6581 1 439 2119 31 43
2 549 0 276 551 555 81 1 553 1769 537 441 0 448 556 549 557 84 34 554 PQoVoHnCct
cR.sketch_text.stroke-6481 1 448 2117 31 441 553 0 269 276 558 81 1 556 1764 537
 450 0 455 559 553 560 84 34 557 PQoVoHnCctcR.sketch_text.stroke-6381 1 455 2115
 31 450 556 0 265 269 561 81 1 559 1759 537 457 0 459 562 556 563 84 34 560 PQoV
oHnCctcR.sketch_text.stroke-6281 1 459 2113 31 457 559 0 261 265 564 81 1 562 17
54 537 461 0 463 565 559 566 84 34 563 PQoVoHnCctcR.sketch_text.stroke-6181 1 46
3 2111 31 461 562 0 257 261 567 81 1 565 1749 537 465 0 467 568 562 569 84 34 56
6 PQoVoHnCctcR.sketch_text.stroke-6081 1 467 2109 31 465 565 0 253 257 570 81 1
 568 1744 537 469 0 471 571 565 572 84 34 569 PQoVoHnCctcR.sketch_text.stroke-59
81 1 471 2107 31 469 568 0 249 253 573 81 1 571 1739 537 473 0 475 574 568 575 8
4 34 572 PQoVoHnCctcR.sketch_text.stroke-5881 1 475 2105 31 473 571 0 243 249 57
6 81 1 574 1734 537 477 0 480 490 571 577 84 34 575 PQoVoHnCctcR.sketch_text.str
oke-5781 1 480 2103 31 477 574 0 199 243 578 81 1 490 1729 537 183 0 207 579 574
 580 84 34 577 PQoVoHnCctcR.sketch_text.stroke-5681 1 579 1724 537 340 0 206 342
 490 581 84 34 580 PQoVoHnCctcR.sketch_text.stroke-5581 1 206 2099 31 340 579 0
 209 202 582 81 1 342 1719 537 334 0 337 583 579 584 84 34 581 PQoVoHnCctcR.sket
ch_text.stroke-5481 1 583 286 537 203 0 209 205 342 585 84 34 584 PQoVoHnCctcR.s
ketch_text.stroke-5381 1 209 2098 31 203 583 0 337 206 586 81 1 205 280 537 195
 0 202 587 583 588 84 34 585 PQoVoHnCctcR.sketch_text.stroke-5381 1 587 274 537
 181 0 199 589 205 590 84 34 588 PQoVoHnCctcR.sketch_text.stroke-5481 1 199 2102
 31 181 587 0 207 480 591 81 1 589 268 537 198 0 243 592 587 593 84 34 590 PQoVo
HnCctcR.sketch_text.stroke-5581 1 243 2104 31 198 589 0 480 475 594 81 1 592 262
 537 244 0 249 595 589 596 84 34 593 PQoVoHnCctcR.sketch_text.stroke-5681 1 249
 2106 31 244 592 0 475 471 597 81 1 595 256 537 251 0 253 598 592 599 84 34 596
 PQoVoHnCctcR.sketch_text.stroke-5781 1 253 2108 31 251 595 0 471 467 600 81 1 5
98 250 537 255 0 257 601 595 602 84 34 599 PQoVoHnCctcR.sketch_text.stroke-5881
 1 257 2110 31 255 598 0 467 463 603 81 1 601 244 537 259 0 261 604 598 605 84 3
4 602 PQoVoHnCctcR.sketch_text.stroke-5981 1 261 2112 31 259 601 0 463 459 606 8
1 1 604 238 537 263 0 265 607 601 608 84 34 605 PQoVoHnCctcR.sketch_text.stroke-
6081 1 265 2114 31 263 604 0 459 455 609 81 1 607 232 537 267 0 269 610 604 611
 84 34 608 PQoVoHnCctcR.sketch_text.stroke-6181 1 269 2116 31 267 607 0 455 448
 612 81 1 610 226 537 271 0 276 613 607 614 84 34 611 PQoVoHnCctcR.sketch_text.s
troke-6281 1 276 2118 31 271 610 0 448 439 615 81 1 613 220 537 278 0 551 616 61
0 617 84 34 614 PQoVoHnCctcR.sketch_text.stroke-6316 278 215 551 ?517 271 305 27
2 0 0 1 81 1 551 2120 31 278 613 0 439 431 618 81 1 616 214 537 305 0 309 619 61
3 620 84 34 617 PQoVoHnCctcR.sketch_text.stroke-6481 1 309 2122 31 305 616 0 431
 419 621 81 1 619 208 537 311 0 319 622 616 623 84 34 620 PQoVoHnCctcR.sketch_te
xt.stroke-6581 1 319 2124 31 311 619 0 419 415 624 81 1 622 202 537 321 0 326 62
5 619 626 84 34 623 PQoVoHnCctcR.sketch_text.stroke-6681 1 326 2126 31 321 622 0
 415 408 627 81 1 625 196 537 328 0 330 335 622 628 84 34 626 PQoVoHnCctcR.sketc
h_text.stroke-6781 1 330 2128 31 328 625 0 408 530 629 81 1 335 190 537 332 0 33
3 0 625 630 84 34 628 PQoVoHnCctcR.sketch_text.stroke-6884 34 630 PQoVoHnCctcR.s
ketch_text.stroke-5281 1 530 2129 31 17 0 529 330 631 632 82 3 629 159 282 1 81
 1 631 2130 31 411 0 633 530 634 635 82 3 632 159 56 2 14 411 1696 633 ?0 193 34
4 6 230 -0 0 0 193 23 81 1 633 2170 524 411 631 0 526 0 636 81 1 634 2131 31 193
 0 526 631 525 637 82 3 635 159 57 2 81 1 526 2169 524 193 634 0 523 633 638 81
 1 525 2132 31 229 0 523 634 639 640 82 3 637 159 58 2 81 1 639 2133 31 201 0 22
8 525 641 642 82 3 640 159 59 2 81 1 228 2167 524 201 639 0 232 523 643 81 1 641
 2134 31 180 0 232 639 644 645 82 3 642 159 60 2 81 1 232 2166 524 180 641 0 235
 228 646 81 1 644 2135 31 233 0 235 641 647 648 82 3 645 159 61 2 81 1 235 2165
 524 233 644 0 649 232 650 81 1 647 2136 31 236 0 649 644 651 652 82 3 648 159 6
2 2 14 236 1931 649 ?233 498 494 6 234 +0 0 233 498 23 81 1 649 2164 524 236 647
 0 653 235 654 81 1 651 2137 31 498 0 653 647 655 656 82 3 652 159 63 2 14 498 1
933 653 ?236 502 496 6 238 +0 0 236 502 23 81 1 653 2163 524 498 651 0 657 649 6
58 81 1 655 2138 31 502 0 657 651 659 660 82 3 656 159 64 2 14 502 1935 657 ?498
 506 501 6 661 +0 0 498 506 23 81 1 657 2162 524 502 655 0 662 653 663 81 1 659
 2139 31 506 0 662 655 664 665 82 3 660 159 65 2 14 506 1937 662 ?502 510 504 6
 666 +0 0 502 510 23 81 1 662 2161 524 506 659 0 667 657 668 81 1 664 2140 31 51
0 0 667 659 669 670 82 3 665 159 66 2 14 510 1939 667 ?506 291 508 6 294 +0 0 50
6 291 23 81 1 667 2160 524 510 664 0 671 662 672 81 1 669 2141 31 291 0 671 664
 673 674 82 3 670 159 67 2 14 291 1941 671 ?510 287 513 6 288 +0 0 510 287 23 81
 1 671 2159 524 291 669 0 290 667 675 81 1 673 2142 31 287 0 290 669 676 677 82
 3 674 159 68 2 81 1 290 2158 524 287 673 0 296 671 678 81 1 676 2143 31 292 0 2
96 673 679 680 82 3 677 159 69 2 81 1 296 2157 524 292 676 0 300 290 681 81 1 67
9 2144 31 297 0 300 676 682 683 82 3 680 159 70 2 81 1 300 2156 524 297 679 0 68
4 296 685 81 1 682 2145 31 301 0 684 679 686 687 82 3 683 159 71 2 14 301 1949 6
84 ?297 398 521 6 299 +0 0 297 398 23 81 1 684 2155 524 301 682 0 688 300 689 81
 1 686 2146 31 398 0 688 682 690 691 82 3 687 159 72 2 14 398 1951 688 ?301 407
 395 6 303 +0 0 301 407 23 81 1 688 2154 524 398 686 0 531 684 692 81 1 690 2147
 31 407 0 531 686 693 694 82 3 691 159 73 2 81 1 531 2153 524 407 690 0 529 688
 695 81 1 693 2148 31 1 0 696 690 0 697 82 3 694 159 74 2 81 1 696 2149 698 1 69
3 14 0 0 699 82 3 697 159 2 3 80 1 698 700 701 8038 0 0 0 0 0 0 0 0 0 TTTTTTTTTT
TTTFTFT10 81 1 14 2150 700 1 696 2 0 0 702 98 255 8 699 80 97 114 116 32 50 57 5
5 80 1 700 703 704 8017 0 0 0 0 0 0 0 0 0 TTTTTTTTTTTTTFTFT3 84 8 702 Part 29779
 255 13 704 SDL/TYSA_NAME79 14 701 SDL/TYSA_UNAME80 1 524 0 705 8001 0 0 0 0 3 5
 0 0 0 FFFFTFTFFFFFFFFFF2 83 255 3 695 .615686274509804 .811764705882353 .929411
764705882 79 15 705 SDL/TYSA_COLOUR83 3 692 .615686274509804 .811764705882353 .9
29411764705882 50 303 1970 0 398 299 19 0 +5.0466220607938 .0128739728322973 .25
78413032225205 0 1 0 0 0 1 50 19 1971 0 407 303 7 0 +5.0466220607938 -.017910019
157784 .125333715349993 0 0 -1 -1 0 0 83 3 689 .615686274509804 .811764705882353
 .929411764705882 83 3 685 .615686274509804 .811764705882353 .929411764705882 83
 3 681 .615686274509804 .811764705882353 .929411764705882 83 3 678 .615686274509
804 .811764705882353 .929411764705882 83 3 675 .615686274509804 .811764705882353
 .929411764705882 83 3 672 .615686274509804 .811764705882353 .929411764705882 50
 294 1964 0 510 666 288 0 +5.0466220607938 -.271714839438243 .503816668892785 0
 .984336643247304 .1762991002830975 0 -.1762991002830975 .984336643247304 50 666
 1963 0 506 661 294 0 +5.0466220607938 -.30172774877732 .531634958379005 0 0 1 1
 0 0 50 661 1962 0 502 238 666 0 +5.0466220607938 -.3267582779099105 .3284843368
64499 0 -1 0 0 0 -1 50 238 1961 0 498 234 661 0 +5.0466220607938 -.2959742859198
29 .125333715349993 0 0 -1 -1 0 0 83 3 668 .615686274509804 .811764705882353 .92
9411764705882 83 3 663 .615686274509804 .811764705882353 .929411764705882 83 3 6
58 .615686274509804 .811764705882353 .929411764705882 83 3 654 .615686274509804
 .811764705882353 .929411764705882 83 3 650 .615686274509804 .811764705882353 .9
29411764705882 83 3 646 .615686274509804 .811764705882353 .929411764705882 83 3
 643 .615686274509804 .811764705882353 .929411764705882 83 3 638 .61568627450980
4 .811764705882353 .929411764705882 83 3 636 .615686274509804 .811764705882353 .
929411764705882 50 230 1870 0 411 528 226 0 +4.9958220607938 0 .4064 1 0 0 0 1 0
 50 528 3 0 193 0 230 0 +5.0466220607938 0 .4064 1 0 0 0 1 0 82 3 627 159 280 1
 82 3 624 159 278 1 82 3 621 159 276 1 82 3 618 159 274 1 17 517 0 298 65 140 13
3 518 278 0 0 +17 518 0 190 515 520 137 517 278 0 277 -17 515 0 190 514 518 141
 277 271 0 270 -17 520 0 190 518 522 133 310 305 0 517 -17 514 0 190 509 515 145
 270 267 0 266 -17 509 0 190 505 514 149 266 263 0 262 -17 266 0 508 77 152 145
 509 263 0 0 +17 505 0 190 503 509 153 262 259 0 258 -17 503 0 190 497 505 157 2
58 255 0 254 -17 497 0 190 196 503 161 254 251 0 250 -17 254 0 496 89 164 157 49
7 251 0 0 +17 196 0 190 192 497 165 250 244 0 197 -82 3 615 159 272 1 82 3 612 1
59 270 1 82 3 609 159 268 1 82 3 606 159 266 1 82 3 603 159 264 1 82 3 600 159 2
62 1 82 3 597 159 260 1 82 3 594 159 258 1 82 3 591 159 256 1 82 3 586 159 252 1
 82 3 582 159 253 1 82 3 578 159 257 1 82 3 576 159 259 1 82 3 573 159 261 1 82
 3 570 159 263 1 82 3 567 159 265 1 82 3 564 159 267 1 82 3 561 159 269 1 82 3 5
58 159 271 1 82 3 555 159 273 1 82 3 552 159 275 1 82 3 548 159 277 1 82 3 543 1
59 281 1 79 27 541 BTI/ImprintedSketchEntityId79 9 536 BTI/DetId83 3 532 .615686
274509804 .811764705882353 .929411764705882 83 3 527 .615686274509804 .811764705
882353 .929411764705882 17 101 0 175 177 176 98 171 188 0 492 +82 3 491 159 255
 1 82 3 418 159 279 1 81 1 392 2093 31 391 0 0 390 393 706 82 3 394 159 68 1 81
 1 390 2092 31 388 0 0 387 392 707 82 3 706 159 67 1 81 1 387 2091 31 385 0 0 38
4 390 708 82 3 707 159 66 1 81 1 384 2090 31 382 0 0 381 387 709 82 3 708 159 65
 1 81 1 381 2089 31 379 0 0 378 384 710 82 3 709 159 64 1 81 1 378 2088 31 376 0
 0 375 381 711 82 3 710 159 63 1 81 1 375 2087 31 373 0 0 372 378 712 82 3 711 1
59 62 1 81 1 372 2086 31 370 0 0 369 375 713 82 3 712 159 61 1 81 1 369 2085 31
 367 0 0 366 372 714 82 3 713 159 60 1 81 1 366 2084 31 364 0 0 363 369 715 82 3
 714 159 59 1 81 1 363 2083 31 361 0 0 360 366 716 82 3 715 159 58 1 81 1 360 20
82 31 188 0 0 187 363 717 82 3 716 159 57 1 81 1 187 2081 31 178 0 0 357 360 718
 82 3 717 159 56 1 81 1 357 2080 31 108 0 0 356 187 719 82 3 718 159 55 1 81 1 3
56 2079 31 39 0 0 24 357 720 82 3 719 159 54 1 81 1 24 2078 31 11 0 0 121 356 72
1 82 3 720 159 53 1 81 1 121 2077 31 117 0 0 52 24 722 82 3 721 159 52 1 81 1 52
 2076 31 50 0 0 127 121 723 82 3 722 159 137 0 81 1 127 2075 31 123 0 0 56 52 72
4 82 3 723 159 136 0 81 1 56 2074 31 54 0 0 131 127 725 82 3 724 159 135 0 81 1
 131 2073 31 129 0 0 60 56 726 82 3 725 159 134 0 81 1 60 2072 31 58 0 0 135 131
 727 82 3 726 159 133 0 81 1 135 2071 31 133 0 0 64 60 728 82 3 727 159 132 0 81
 1 64 2070 31 62 0 0 139 135 729 82 3 728 159 131 0 81 1 139 2069 31 137 0 0 68
 64 730 82 3 729 159 130 0 81 1 68 2068 31 66 0 0 143 139 731 82 3 730 159 129 0
 81 1 143 2067 31 141 0 0 72 68 732 82 3 731 159 128 0 81 1 72 2066 31 70 0 0 14
7 143 733 82 3 732 159 127 0 81 1 147 2065 31 145 0 0 76 72 734 82 3 733 159 126
 0 81 1 76 2064 31 74 0 0 151 147 735 82 3 734 159 125 0 81 1 151 2063 31 149 0
 0 80 76 736 82 3 735 159 124 0 81 1 80 2062 31 78 0 0 155 151 737 82 3 736 159
 123 0 81 1 155 2061 31 153 0 0 84 80 738 82 3 737 159 122 0 81 1 84 2060 31 82
 0 0 159 155 739 82 3 738 159 121 0 81 1 159 2059 31 157 0 0 88 84 740 82 3 739
 159 120 0 81 1 88 2058 31 86 0 0 163 159 741 82 3 740 159 119 0 81 1 163 2057 3
1 161 0 0 92 88 742 82 3 741 159 118 0 81 1 92 2056 31 90 0 0 167 163 743 82 3 7
42 159 117 0 81 1 167 2055 31 165 0 0 96 92 744 82 3 743 159 116 0 81 1 96 2054
 31 94 0 0 170 167 745 82 3 744 159 115 0 81 1 170 2053 31 169 0 0 100 96 746 82
 3 745 159 114 0 81 1 100 2052 31 98 0 0 172 170 747 82 3 746 159 113 0 82 3 747
 159 112 0 136 350 2 3 3 2 5 FFF2 748 749 750 135 351 2 0 45 9 748 4.99582206079
38 -.0712926642272893 .462296833838725 4.9958220607938 -.0938913173067131 .48679
3536520621 4.9958220607938 -.142172954069577 .486793536520621 127 4 749 3 3 0 0
 128 4 750 0 1 ??82 3 343 159 251 1 82 3 338 159 250 1 141 280 289 280 280 272 1
36 281 2 3 3 2 5 FFF2 751 752 753 135 282 2 0 45 9 751 5.0466220607938 -.2106806
81908775 .522559908717189 5.0466220607938 -.176575103114369 .539108528688736 5.0
466220607938 -.134699383759846 .539108528688736 127 4 752 3 3 0 0 128 4 753 0 1
 ??141 219 226 219 219 210 136 220 2 3 3 2 5 FFF2 754 755 756 135 221 2 0 45 9 7
54 5.0466220607938 -.0486940111478653 .3882135852922675 5.0466220607938 -.048694
0111478653 .43780013115683 5.0466220607938 -.0712926642272893 .462296833838725 1
27 4 755 3 3 0 0 128 4 756 0 1 ??141 215 227 215 215 200 136 216 2 3 3 2 5 FFF2
 757 758 759 135 217 2 0 45 9 757 5.0466220607938 -.142172954069577 .48679353652
0621 5.0466220607938 -.2058762438525195 .486793536520621 5.0466220607938 -.23553
32688911335 .452332073425751 127 4 758 3 3 0 0 128 4 759 0 1 ??82 3 208 159 254
 1 81 1 103 2050 31 102 0 0 41 172 760 82 3 174 159 111 0 81 1 41 2049 31 29 0 0
 33 103 761 82 3 760 159 110 0 82 3 761 159 109 0 81 1 49 2044 31 47 0 0 0 111 7
62 82 3 119 159 105 0 82 3 762 159 104 0 82 3 112 159 106 0 82 3 107 159 108 0 8
2 3 34 159 107 0 19 18 1991 0 1 0 10 6 0 S0 74 4 CI16 index_map_offset0 0 1 dCCZ
20 16 6 0 0 533 693 696 14 2 633 0 0 0 0 0 0 0 0 0 0 0 0 0 0 80 1 13 524 763 804
0 0 0 0 0 3 5 0 0 0 TTTFFFFFFFFFFFFFF2 83 3 15 .615686274509804 .811764705882353
 .929411764705882 79 17 763 SDL/TYSA_COLOUR_21 0 
