**ABCDEFGHIJKLMNOPQRSTUVWXYZabcdefghijklmnopqrstuvwxyz**************************
**PARASOLID !"#$%&'()*+,-./:;<=>?@[\]^_`{|}~0123456789**************************
**PART1;
MC=unknown;
MC_MODEL=unknown;
MC_ID=unknown;
OS=unknown;
OS_RELEASE=unknown;
FRU=Parasolid 36.0.180;
APPL=Onshape;
SITE=unknown;
USER=unknown;
FORMAT=text;
GUISE=transmit;
KEY=BTGapi::writeModels_.xmt;
FILE=BTGapi::writeModels_.xmt;
DATE=2024-05-15T00:06:35 (UTC);
**PART2;
SCH=SCH_3600180_36001;
USFLD_SIZE=0;
**PART3;
**END_OF_HEADER*****************************************************************
T51 : TRANSMIT FILE created by modeller version 360018023 SCH_3600180_36001_1300
6231 0 12 36 CCCI7 lattice222 0 CCCI4 mesh1006 0 I8 polyline1008 0 CCCCCCCDI5 ow
ner1040 0 CCCI16 boundary_lattice222 0 CCCI13 boundary_mesh1006 0 I17 boundary_p
olyline1008 0 CCCA16 index_map_offset0 0 1 dA9 index_map82 0 A17 node_id_index_m
ap82 0 A20 schema_embedding_map82 0 A5 child12 0 A14 lowest_node_id0 0 1 dA16 me
sh_offset_data206 0 Z1 498 2 3 0 0 0 0 0 0 0 1e3 1e-8 0 4 5 1 0 1 2 6 0 7 8 9 0
 0 10 11 12 0 0 0 0 0 0 0 81 255 1 2 484 13 1 14 0 0 0 15 70 11 CI9 list_type0 0
 1 uI10 notransmit0 0 1 lCCCDCCDI12 finger_index0 0 1 dI12 finger_block1012 0 CZ
3 0 4 T1 0 0 6 20 1 16 16 13 255 6 368 0 1 0 17 0 0 18 0 50 255 7 355 0 19 20 0
 0 +5.0466220607938 1.519984671244585 .531634958379005 0 0 1 1 0 0 30 255 8 367
 0 21 22 0 0 +5.0466220607938 1.484930067648942 .531634958379005 -1 0 0 29 255 9
 296 0 23 24 0 4.9958220607938 1.6262161349329 .3332887749207545 19 9 CCCCCCI5 f
rame230 0 CA5 owner12 0 Z10 1 0 1 18 0 25 0 V0 16 255 11 308 26 ?27 0 28 29 0 0
 1 18 255 12 56 30 31 0 32 33 ?1 81 1 30 408 34 12 0 0 35 36 37 17 255 31 0 38 3
9 40 12 27 11 0 41 -18 32 59 42 43 12 44 45 ?1 29 33 115 0 12 45 46 5.0466220607
938 1.6262161349329 .3332887749207545 29 45 114 0 32 47 33 5.0466220607938 1.477
575125439366 .125333715349993 29 46 307 0 48 33 49 4.9958220607938 1.48493006764
8942 .531634958379005 18 48 279 36 50 51 0 46 ?1 29 49 306 0 51 46 52 4.99582206
07938 1.555039274840225 .531634958379005 18 51 275 53 54 55 48 49 ?1 29 52 305 0
 55 49 56 4.9958220607938 1.6621604492797 .3759948909763585 18 55 271 57 58 59 5
1 52 ?1 29 56 304 0 59 52 60 4.9958220607938 1.76892573941871 .531634958379005 1
8 59 267 61 62 63 55 56 ?1 29 60 303 0 63 56 64 4.9958220607938 1.83832317800906
5 .531634958379005 18 63 263 65 66 67 59 60 ?1 29 64 302 0 67 60 68 4.9958220607
938 1.69703711072511 .3332887749207545 18 67 259 69 70 71 63 64 ?1 29 68 301 0 7
1 64 72 4.9958220607938 1.845678120218645 .125333715349993 18 71 255 73 74 75 67
 68 ?1 29 72 300 0 75 68 76 4.9958220607938 1.77604342542798 .125333715349993 18
 75 251 77 78 79 71 72 ?1 29 76 299 0 79 72 80 4.9958220607938 1.6621604492797 .
289989518364378 18 79 247 81 82 83 75 76 ?1 29 80 298 0 83 76 24 4.9958220607938
 1.54720982023003 .125333715349993 18 83 243 84 85 86 79 80 ?1 29 24 297 0 86 80
 9 4.9958220607938 1.477575125439366 .125333715349993 18 86 239 87 88 23 83 24 ?
1 81 1 87 429 34 86 0 0 89 42 90 17 88 0 91 92 93 86 43 28 0 94 +18 23 235 35 27
 95 86 9 ?1 81 1 35 407 34 23 0 0 0 30 96 17 27 0 97 94 41 23 31 11 0 98 +18 95
 89 99 100 101 23 102 ?1 81 1 99 410 34 95 0 0 36 53 103 17 100 0 104 105 106 95
 50 21 0 107 -18 101 86 108 109 110 95 111 ?1 29 102 104 0 95 0 111 5.0466220607
938 1.484930067648942 .531634958379005 29 111 105 0 101 102 112 5.0466220607938
 1.555039274840225 .531634958379005 29 112 106 0 110 111 113 5.0466220607938 1.6
621604492797 .3759948909763585 18 110 83 114 115 116 101 112 ?1 29 113 107 0 116
 112 117 5.0466220607938 1.76892573941871 .531634958379005 18 116 80 118 119 120
 110 113 ?1 29 117 108 0 120 113 121 5.0466220607938 1.838323178009065 .53163495
8379005 18 120 77 122 123 124 116 117 ?1 29 121 109 0 124 117 125 5.046622060793
8 1.69703711072511 .3332887749207545 18 124 74 126 127 128 120 121 ?1 29 125 110
 0 128 121 129 5.0466220607938 1.845678120218645 .125333715349993 18 128 71 130
 131 132 124 125 ?1 29 129 111 0 132 125 133 5.0466220607938 1.77604342542798 .1
25333715349993 18 132 68 134 135 136 128 129 ?1 29 133 112 0 136 129 47 5.046622
0607938 1.6621604492797 .289989518364378 18 136 65 137 138 44 132 133 ?1 29 47 1
13 0 44 133 45 5.0466220607938 1.54720982023003 .125333715349993 18 44 62 89 139
 32 136 47 ?1 81 1 89 428 34 44 0 0 84 87 140 17 139 0 91 93 92 44 85 141 0 142
 -15 255 91 324 0 92 143 0 17 93 0 91 88 139 32 142 144 0 0 +17 92 0 91 139 88 8
3 145 146 0 147 -17 85 0 148 149 150 83 139 141 0 92 +16 141 310 151 ?85 28 152
 153 0 0 1 17 142 0 154 155 156 44 93 144 0 150 -15 154 7 0 157 158 0 17 155 0 1
54 159 142 136 150 160 0 161 -17 156 0 154 142 157 32 41 162 0 93 -16 144 16 163
 ?93 162 160 164 0 0 1 17 150 0 148 85 138 44 155 160 0 0 +15 148 326 0 149 165
 0 17 138 0 148 150 149 136 82 152 0 155 -16 160 20 166 ?150 144 167 168 0 0 1 8
1 1 166 462 34 160 169 0 170 171 172 16 167 24 173 ?161 160 174 175 0 0 1 30 168
 100 0 160 175 164 0 +5.0466220607938 1.604685134754865 .2076616168571855 0 -.57
2431061703077 -.819952852057659 30 175 99 0 167 176 168 0 +5.0466220607938 1.719
10193735384 .2076616168571855 0 -.568840175158804 .822448086583768 30 164 101 0
 144 168 177 0 +5.0466220607938 1.5123924728347 .125333715349993 0 -1 0 30 177 1
02 0 162 164 178 0 +5.0466220607938 1.551895630186135 .2293112451353735 0 .58150
156424892 .81354528501864 16 162 12 179 ?41 180 144 177 0 0 1 30 178 103 0 180 1
77 181 0 +5.0466220607938 1.55557310129092 .43246186664988 0 -.580177852824772 .
814489815216641 16 180 8 182 ?39 21 162 178 0 0 1 30 181 295 0 183 178 184 0 +4.
9958220607938 1.519984671244585 .531634958379005 0 1 0 16 183 230 185 ?186 187 0
 181 0 0 1 30 184 294 0 187 181 188 0 +4.9958220607938 1.608599862059965 .453814
924677682 0 .566955090441927 -.823748702834783 16 187 225 189 ?190 191 183 184 0
 0 1 30 188 293 0 191 184 192 0 +4.9958220607938 1.715543094349205 .453814924677
682 0 .565674921650674 .824628330228536 16 191 220 193 ?194 195 187 188 0 0 1 30
 192 292 0 195 188 196 0 +4.9958220607938 1.80362445871389 .531634958379005 0 1
 0 16 195 215 197 ?198 199 191 192 0 0 1 30 196 291 0 199 192 200 0 +4.995822060
7938 1.76768014436709 .43246186664988 0 -.580177852824772 -.814489815216641 16 1
99 210 201 ?202 203 195 196 0 0 1 30 200 290 0 203 196 204 0 +4.9958220607938 1.
771357615471875 .2293112451353735 0 .58150156424892 -.81354528501864 16 203 205
 205 ?206 207 199 200 0 0 1 30 204 289 0 207 200 208 0 +4.9958220607938 1.810860
77282331 .125333715349993 0 -1 0 16 207 200 209 ?210 211 203 204 0 0 1 30 208 28
8 0 211 204 212 0 +4.9958220607938 1.71910193735384 .2076616168571855 0 -.568840
175158804 .822448086583768 16 211 195 213 ?214 215 207 208 0 0 1 30 212 287 0 21
5 208 216 0 +4.9958220607938 1.604685134754865 .2076616168571855 0 -.57243106170
3077 -.819952852057659 16 215 190 170 ?147 146 211 212 0 0 1 30 216 286 0 146 21
2 217 0 +4.9958220607938 1.5123924728347 .125333715349993 0 -1 0 16 146 185 171
 ?145 218 215 216 0 0 1 30 217 285 0 218 216 219 0 +4.9958220607938 1.5518956301
86135 .2293112451353735 0 .58150156424892 .81354528501864 16 218 180 220 ?98 221
 146 217 0 0 1 30 219 284 0 221 217 29 0 +4.9958220607938 1.55557310129092 .4324
6186664988 0 -.580177852824772 .814489815216641 16 221 175 222 ?223 224 218 219
 0 0 1 30 29 356 0 11 219 225 0 +5.0466220607938 1.6262161349329 .33328877492075
45 -1 0 0 30 225 357 0 28 29 153 0 +5.0466220607938 1.477575125439366 .125333715
349993 -1 0 0 16 28 309 226 ?88 11 141 225 0 0 1 30 153 358 0 141 225 227 0 +5.0
466220607938 1.54720982023003 .125333715349993 -1 0 0 30 227 359 0 152 153 228 0
 +5.0466220607938 1.6621604492797 .289989518364378 -1 0 0 16 152 311 229 ?82 141
 230 227 0 0 1 30 228 360 0 230 227 231 0 +5.0466220607938 1.77604342542798 .125
333715349993 -1 0 0 16 230 312 232 ?78 152 233 228 0 0 1 30 231 361 0 233 228 23
4 0 +5.0466220607938 1.845678120218645 .125333715349993 -1 0 0 16 233 313 235 ?7
4 230 236 231 0 0 1 30 234 362 0 236 231 237 0 +5.0466220607938 1.69703711072511
 .3332887749207545 -1 0 0 16 236 314 238 ?70 233 239 234 0 0 1 30 237 363 0 239
 234 240 0 +5.0466220607938 1.838323178009065 .531634958379005 -1 0 0 16 239 315
 241 ?66 236 242 237 0 0 1 30 240 364 0 242 237 243 0 +5.0466220607938 1.7689257
3941871 .531634958379005 -1 0 0 16 242 316 244 ?62 239 245 240 0 0 1 30 243 365
 0 245 240 22 0 +5.0466220607938 1.6621604492797 .3759948909763585 -1 0 0 16 245
 317 246 ?58 242 247 243 0 0 1 30 22 366 0 247 243 8 0 +5.0466220607938 1.555039
274840225 .531634958379005 -1 0 0 16 247 318 248 ?54 245 21 22 0 0 1 81 1 248 43
3 34 247 0 0 249 246 250 17 54 0 104 106 105 51 109 247 0 251 +16 21 319 249 ?50
 247 180 8 0 0 1 81 1 249 432 34 21 0 0 26 248 252 17 50 0 38 40 39 48 100 21 0
 106 +15 38 320 0 40 17 0 17 40 0 38 31 50 23 223 221 0 0 -17 39 0 38 50 31 95 1
57 180 0 0 +17 106 0 104 100 54 48 186 183 0 223 -15 104 342 0 106 19 0 17 186 0
 253 190 223 51 106 183 0 0 +17 223 0 253 186 98 48 40 221 0 0 +15 253 174 0 223
 254 0 17 98 0 253 223 145 23 94 218 0 40 +17 145 0 253 98 147 86 92 146 0 0 +17
 94 0 97 43 27 86 98 218 0 145 -15 97 322 0 94 255 0 17 43 0 97 41 94 32 88 28 0
 156 -17 41 0 97 27 43 12 156 162 0 157 +17 157 0 154 156 107 12 39 180 0 0 -17
 107 0 154 157 256 95 105 224 0 39 -17 256 0 154 107 257 101 258 259 0 105 -17 1
05 0 104 54 100 101 107 224 0 0 +16 224 52 260 ?105 259 221 261 0 0 1 81 1 260 4
46 34 224 262 0 185 189 263 16 259 48 264 ?258 265 224 266 0 0 1 30 261 92 0 224
 0 266 0 +5.0466220607938 1.519984671244585 .531634958379005 0 1 0 30 266 93 0 2
59 261 267 0 +5.0466220607938 1.608599862059965 .453814924677682 0 .566955090441
927 -.823748702834783 30 267 94 0 265 266 268 0 +5.0466220607938 1.7155430943492
05 .453814924677682 0 .565674921650674 .824628330228536 16 265 44 269 ?270 271 2
59 267 0 0 1 30 268 95 0 271 267 272 0 +5.0466220607938 1.80362445871389 .531634
958379005 0 1 0 16 271 40 273 ?274 275 265 268 0 0 1 30 272 96 0 275 268 276 0 +
5.0466220607938 1.76768014436709 .43246186664988 0 -.580177852824772 -.814489815
216641 16 275 36 277 ?278 279 271 272 0 0 1 30 276 97 0 279 272 176 0 +5.0466220
607938 1.771357615471875 .2293112451353735 0 .58150156424892 -.81354528501864 16
 279 32 280 ?281 174 275 276 0 0 1 30 176 98 0 174 276 175 0 +5.0466220607938 1.
81086077282331 .125333715349993 0 -1 0 16 174 28 282 ?283 167 279 176 0 0 1 81 1
 282 458 34 174 284 0 209 213 285 17 283 0 286 78 131 132 287 174 0 0 +15 286 33
0 0 288 289 0 17 78 0 286 288 283 75 135 230 0 290 +17 131 0 286 283 288 128 74
 233 0 287 -17 287 0 154 291 159 128 283 174 0 281 -17 291 0 154 292 287 124 281
 279 0 278 -17 159 0 154 287 155 132 161 167 0 283 -17 281 0 293 74 127 128 291
 279 0 0 +15 293 332 0 294 295 0 17 74 0 293 294 281 71 131 233 0 288 +17 127 0
 293 281 294 124 70 236 0 291 -17 294 0 293 127 74 67 206 203 0 202 -17 70 0 296
 297 278 67 127 236 0 294 +15 296 334 0 297 298 0 17 297 0 296 123 70 63 202 199
 0 198 -17 278 0 296 70 123 124 292 275 0 0 +17 123 0 296 278 297 120 66 239 0 2
92 -17 292 0 154 299 291 120 278 275 0 274 -17 299 0 154 257 292 116 274 271 0 2
70 -17 274 0 300 66 119 120 299 271 0 0 +15 300 336 0 301 302 0 17 66 0 300 301
 274 63 123 239 0 297 +17 119 0 300 274 301 116 62 242 0 299 -17 301 0 300 119 6
6 59 198 195 0 194 -17 62 0 303 304 270 59 119 242 0 301 +15 303 338 0 304 305 0
 17 304 0 303 115 62 55 194 191 0 190 -17 270 0 303 62 115 116 257 265 0 0 +17 1
15 0 303 270 304 110 58 245 0 257 -17 257 0 154 256 299 110 270 265 0 258 -17 25
8 0 306 58 109 110 256 259 0 0 +15 306 340 0 251 307 0 17 58 0 306 251 258 55 11
5 245 0 304 +17 109 0 306 258 251 101 54 247 0 256 -17 251 0 306 109 58 51 190 1
87 0 186 -17 190 0 253 194 186 55 251 187 0 0 +17 194 0 253 198 190 59 304 191 0
 0 +17 198 0 253 202 194 63 301 195 0 0 +17 202 0 253 206 198 67 297 199 0 0 +17
 206 0 253 210 202 71 294 203 0 0 +17 210 0 253 214 206 75 288 207 0 0 +17 214 0
 253 147 210 79 290 211 0 0 +17 288 0 286 131 78 71 210 207 0 206 -17 147 0 253
 145 214 83 149 215 0 0 +17 290 0 308 135 82 75 214 211 0 210 -15 308 328 0 290
 309 0 17 135 0 308 161 290 132 78 230 0 159 -17 82 0 308 290 161 79 138 152 0 1
49 +17 161 0 308 82 135 136 159 167 0 0 +17 149 0 148 138 85 79 147 215 0 214 -1
4 255 309 329 310 ?289 165 308 6 311 +0 0 289 165 25 81 1 310 489 312 309 313 0
 314 315 316 14 289 331 315 ?295 309 286 6 317 +0 0 295 309 25 14 165 327 314 ?3
09 143 148 6 318 +0 0 309 143 25 50 311 348 0 309 318 317 0 +5.0466220607938 1.7
1910193735384 .2076616168571855 0 -.822448086583768 -.568840175158804 0 .5688401
75158804 -.822448086583768 13 25 3 0 0 0 0 0 0 10 17 14 17 321 319 ?255 0 38 6 3
20 +0 0 255 0 25 81 1 319 485 312 17 321 0 0 322 323 14 255 323 322 ?143 17 97 6
 324 +0 0 143 17 25 50 320 344 0 17 325 324 0 +5.0466220607938 1.55557310129092
 .43246186664988 0 -.814489815216641 -.580177852824772 0 .580177852824772 -.8144
89815216641 50 325 283 0 254 326 320 0 +4.9958220607938 0 .4064 1 0 0 0 1 0 50 3
24 345 0 255 320 327 0 +5.0466220607938 1.551895630186135 .2293112451353735 0 -.
81354528501864 .58150156424892 0 -.58150156424892 -.81354528501864 50 327 346 0
 143 324 318 0 +5.0466220607938 1.5123924728347 .125333715349993 0 0 -1 -1 0 0 1
4 143 325 328 ?165 255 91 6 327 +0 0 165 255 25 50 318 347 0 165 327 311 0 +5.04
66220607938 1.604685134754865 .2076616168571855 0 .819952852057658 -.57243106170
3077 0 .572431061703077 .819952852057659 81 1 328 487 312 143 329 0 322 314 330
 80 7 CCCCCDI12 legal_owners0 17 1 lCZ1 312 0 331 8001 0 0 0 0 3 5 0 0 0 FFFFTFT
FFFFFFFFFF2 81 1 329 479 34 143 0 328 332 333 334 81 1 322 486 312 255 333 0 319
 328 335 81 1 314 488 312 165 332 0 328 310 336 83 255 3 330 .768627450980392 .8
86274509803922 .952941176470588 81 1 332 478 34 165 0 314 313 329 337 83 3 336 .
768627450980392 .886274509803922 .952941176470588 80 1 34 338 339 9000 0 0 0 0 3
 6 0 0 0 FFTFTFTTFFFFFFFFF1 81 1 313 477 34 309 0 310 340 332 341 82 255 3 337 1
59 156 2 81 1 340 476 34 289 0 315 342 313 343 82 3 341 159 155 2 81 1 315 490 3
12 289 340 0 310 344 345 81 1 342 475 34 295 0 344 346 340 347 82 3 343 159 154
 2 14 295 333 344 ?298 289 293 6 348 +0 0 298 289 25 81 1 344 491 312 295 342 0
 315 349 350 81 1 346 474 34 298 0 349 351 342 352 82 3 347 159 153 2 14 298 335
 349 ?302 295 296 6 353 +0 0 302 295 25 81 1 349 492 312 298 346 0 344 354 355 8
1 1 351 473 34 302 0 354 356 346 357 82 3 352 159 152 2 14 302 337 354 ?305 298
 300 6 358 +0 0 305 298 25 81 1 354 493 312 302 351 0 349 359 360 81 1 356 472 3
4 305 0 359 361 351 362 82 3 357 159 151 2 14 305 339 359 ?307 302 303 6 363 +0
 0 307 302 25 81 1 359 494 312 305 356 0 354 364 365 81 1 361 471 34 307 0 364 3
66 356 367 82 3 362 159 150 2 14 307 341 364 ?19 305 306 6 20 +0 0 19 305 25 81
 1 364 495 312 307 361 0 359 368 369 81 1 366 470 34 19 0 368 370 361 371 82 3 3
67 159 149 2 14 19 343 368 ?158 307 104 6 7 +0 0 158 307 25 81 1 368 496 312 19
 366 0 364 372 373 81 1 370 469 34 158 0 372 374 366 375 82 3 371 159 148 2 14 1
58 4 372 ?254 19 154 6 326 +0 0 254 19 25 81 1 372 497 312 158 370 0 368 376 377
 81 1 374 468 34 254 0 376 321 370 378 82 3 375 159 147 2 14 254 159 376 ?0 158
 253 6 325 -0 0 0 158 25 81 1 376 498 312 254 374 0 372 0 379 81 1 321 467 34 17
 0 319 179 374 380 82 3 378 159 146 2 81 1 179 466 34 162 381 0 220 321 382 82 3
 380 159 145 2 81 1 381 13 383 162 0 179 384 385 386 81 1 220 465 34 218 387 0 1
63 179 388 82 3 382 159 434 1 81 1 387 182 383 218 0 220 389 390 391 81 1 163 46
4 34 144 385 0 171 220 392 82 3 388 159 433 1 81 1 385 17 383 144 0 163 381 169
 393 81 1 171 463 34 146 390 0 166 163 394 82 3 392 159 432 1 81 1 390 187 383 1
46 0 171 387 395 396 82 3 394 159 431 1 80 1 383 397 398 9000 0 0 0 0 3 5 0 0 0
 FFTFTFTTFFFFFFFFF3 81 1 395 192 383 215 0 170 390 399 400 84 255 35 396 PQoVoHn
CctcR.sketch_text.stroke-14381 1 170 461 34 215 395 0 173 166 401 81 1 399 197 3
83 211 0 213 395 402 403 84 35 400 PQoVoHnCctcR.sketch_text.stroke-14281 1 213 4
59 34 211 399 0 282 173 404 81 1 402 202 383 207 0 209 399 405 406 84 35 403 PQo
VoHnCctcR.sketch_text.stroke-14181 1 209 457 34 207 402 0 280 282 407 81 1 405 2
07 383 203 0 205 402 408 409 84 35 406 PQoVoHnCctcR.sketch_text.stroke-14081 1 2
05 455 34 203 405 0 277 280 410 81 1 408 212 383 199 0 201 405 411 412 84 35 409
 PQoVoHnCctcR.sketch_text.stroke-13981 1 201 453 34 199 408 0 273 277 413 81 1 4
11 217 383 195 0 197 408 414 415 84 35 412 PQoVoHnCctcR.sketch_text.stroke-13881
 1 197 451 34 195 411 0 269 273 416 81 1 414 222 383 191 0 193 411 417 418 84 35
 415 PQoVoHnCctcR.sketch_text.stroke-13781 1 193 449 34 191 414 0 264 269 419 81
 1 417 227 383 187 0 189 414 420 421 84 35 418 PQoVoHnCctcR.sketch_text.stroke-1
3681 1 189 447 34 187 417 0 260 264 422 81 1 420 232 383 183 0 185 417 0 423 84
 35 421 PQoVoHnCctcR.sketch_text.stroke-13581 1 185 445 34 183 420 0 182 260 424
 84 35 423 PQoVoHnCctcR.sketch_text.stroke-13481 1 182 444 34 180 384 0 222 185
 425 82 3 424 159 413 1 81 1 384 9 383 180 0 182 0 381 426 81 1 222 443 34 221 3
89 0 226 182 427 82 3 425 159 412 1 81 1 389 177 383 221 0 222 262 387 428 81 1
 226 442 34 28 0 0 151 222 429 82 3 427 159 411 1 81 1 151 441 34 141 0 0 229 22
6 430 82 3 429 159 144 1 81 1 229 440 34 152 0 0 232 151 431 82 3 430 159 143 1
 81 1 232 439 34 230 0 0 235 229 432 82 3 431 159 142 1 81 1 235 438 34 233 0 0
 238 232 433 82 3 432 159 141 1 81 1 238 437 34 236 0 0 241 235 434 82 3 433 159
 140 1 81 1 241 436 34 239 0 0 244 238 435 82 3 434 159 139 1 81 1 244 435 34 24
2 0 0 246 241 436 82 3 435 159 138 1 81 1 246 434 34 245 0 0 248 244 437 82 3 43
6 159 137 1 82 3 437 159 136 1 81 1 262 53 383 224 0 260 438 389 439 84 35 428 P
QoVoHnCctcR.sketch_text.stroke-13381 1 438 49 383 259 0 264 440 262 441 84 35 43
9 PQoVoHnCctcR.sketch_text.stroke-13481 1 264 448 34 259 438 0 189 193 442 81 1
 440 45 383 265 0 269 443 438 444 84 35 441 PQoVoHnCctcR.sketch_text.stroke-1358
1 1 269 450 34 265 440 0 193 197 445 81 1 443 41 383 271 0 273 446 440 447 84 35
 444 PQoVoHnCctcR.sketch_text.stroke-13681 1 273 452 34 271 443 0 197 201 448 81
 1 446 37 383 275 0 277 449 443 450 84 35 447 PQoVoHnCctcR.sketch_text.stroke-13
781 1 277 454 34 275 446 0 201 205 451 81 1 449 33 383 279 0 280 284 446 452 84
 35 450 PQoVoHnCctcR.sketch_text.stroke-13881 1 280 456 34 279 449 0 205 209 453
 81 1 284 29 383 174 0 282 454 449 455 84 35 452 PQoVoHnCctcR.sketch_text.stroke
-13981 1 454 25 383 167 0 173 169 284 456 84 35 455 PQoVoHnCctcR.sketch_text.str
oke-14081 1 173 460 34 167 454 0 213 170 457 81 1 169 21 383 160 0 166 385 454 4
58 84 35 456 PQoVoHnCctcR.sketch_text.stroke-14184 35 458 PQoVoHnCctcR.sketch_te
xt.stroke-14282 3 457 159 428 1 82 3 453 159 424 1 82 3 451 159 422 1 82 3 448 1
59 420 1 82 3 445 159 418 1 82 3 442 159 416 1 84 35 426 PQoVoHnCctcR.sketch_tex
t.stroke-13382 3 422 159 415 1 82 3 419 159 417 1 82 3 416 159 419 1 82 3 413 15
9 421 1 82 3 410 159 423 1 82 3 407 159 425 1 82 3 404 159 427 1 82 3 401 159 42
9 1 79 255 27 398 BTI/ImprintedSketchEntityId84 35 393 PQoVoHnCctcR.sketch_text.
stroke-14384 35 391 PQoVoHnCctcR.sketch_text.stroke-14484 35 386 PQoVoHnCctcR.sk
etch_text.stroke-14483 3 379 .768627450980392 .886274509803922 .952941176470588
 83 3 377 .768627450980392 .886274509803922 .952941176470588 50 326 116 0 158 0
 325 0 +5.0466220607938 0 .4064 1 0 0 0 1 0 83 3 373 .768627450980392 .886274509
803922 .952941176470588 83 3 369 .768627450980392 .886274509803922 .952941176470
588 50 20 354 0 307 363 7 0 +5.0466220607938 1.608599862059965 .453814924677682
 0 .823748702834783 .566955090441927 0 -.566955090441927 .823748702834783 50 363
 353 0 305 358 20 0 +5.0466220607938 1.715543094349205 .453814924677682 0 -.8246
28330228536 .565674921650674 0 -.565674921650674 -.824628330228536 50 358 352 0
 302 353 363 0 +5.0466220607938 1.80362445871389 .531634958379005 0 0 1 1 0 0 50
 353 351 0 298 348 358 0 +5.0466220607938 1.76768014436709 .43246186664988 0 .81
4489815216641 -.580177852824772 0 .580177852824772 .814489815216641 50 348 350 0
 295 317 353 0 +5.0466220607938 1.771357615471875 .2293112451353735 0 .813545285
01864 .58150156424892 0 -.58150156424892 .81354528501864 50 317 349 0 289 311 34
8 0 +5.0466220607938 1.81086077282331 .125333715349993 0 0 -1 -1 0 0 83 3 365 .7
68627450980392 .886274509803922 .952941176470588 83 3 360 .768627450980392 .8862
74509803922 .952941176470588 83 3 355 .768627450980392 .886274509803922 .9529411
76470588 83 3 350 .768627450980392 .886274509803922 .952941176470588 83 3 345 .7
68627450980392 .886274509803922 .952941176470588 79 9 339 BTI/DetId81 1 333 480
 34 255 0 322 329 459 460 83 3 335 .768627450980392 .886274509803922 .9529411764
70588 81 1 459 481 34 1 0 461 333 0 462 82 3 460 159 158 2 81 1 461 482 463 1 45
9 14 0 0 464 82 3 462 159 6 3 80 1 463 465 466 8038 0 0 0 0 0 0 0 0 0 TTTTTTTTTT
TTTFTFT10 81 1 14 483 465 1 461 2 0 0 467 98 255 20 464 80 97 114 116 32 50 57 5
1 32 115 97 110 100 98 111 120 32 98 111 116 80 1 465 468 469 8017 0 0 0 0 0 0 0
 0 0 TTTTTTTTTTTTTFTFT3 84 20 467 Part 293 sandbox bot79 13 469 SDL/TYSA_NAME79
 14 466 SDL/TYSA_UNAME82 3 334 159 157 2 79 15 331 SDL/TYSA_COLOUR83 3 323 .7686
27450980392 .886274509803922 .952941176470588 83 3 316 .768627450980392 .8862745
09803922 .952941176470588 82 3 285 159 426 1 82 3 263 159 414 1 81 1 26 431 34 1
1 0 0 42 249 470 82 3 252 159 134 1 81 1 42 430 34 32 0 0 87 26 471 82 3 470 159
 133 1 82 3 471 159 289 0 82 3 250 159 135 1 82 3 172 159 430 1 81 1 84 427 34 8
3 0 0 137 89 472 82 3 140 159 287 0 81 1 137 426 34 136 0 0 81 84 473 82 3 472 1
59 286 0 81 1 81 425 34 79 0 0 134 137 474 82 3 473 159 285 0 81 1 134 424 34 13
2 0 0 77 81 475 82 3 474 159 284 0 81 1 77 423 34 75 0 0 130 134 476 82 3 475 15
9 283 0 81 1 130 422 34 128 0 0 73 77 477 82 3 476 159 282 0 81 1 73 421 34 71 0
 0 126 130 478 82 3 477 159 281 0 81 1 126 420 34 124 0 0 69 73 479 82 3 478 159
 280 0 81 1 69 419 34 67 0 0 122 126 480 82 3 479 159 279 0 81 1 122 418 34 120
 0 0 65 69 481 82 3 480 159 278 0 81 1 65 417 34 63 0 0 118 122 482 82 3 481 159
 277 0 81 1 118 416 34 116 0 0 61 65 483 82 3 482 159 276 0 81 1 61 415 34 59 0
 0 114 118 484 82 3 483 159 275 0 81 1 114 414 34 110 0 0 57 61 485 82 3 484 159
 274 0 81 1 57 413 34 55 0 0 108 114 486 82 3 485 159 273 0 81 1 108 412 34 101
 0 0 53 57 487 82 3 486 159 272 0 81 1 53 411 34 51 0 0 99 108 488 82 3 487 159
 271 0 82 3 488 159 270 0 81 1 36 409 34 48 0 0 30 99 489 82 3 103 159 269 0 82
 3 489 159 268 0 82 3 96 159 266 0 82 3 90 159 288 0 82 3 37 159 267 0 19 18 369
 0 1 0 10 6 0 S0 74 4 CI16 index_map_offset0 0 1 dCCZ20 16 6 0 0 420 459 461 14
 2 376 0 0 0 0 0 0 0 0 0 0 0 0 0 0 80 1 13 312 490 8040 0 0 0 0 3 5 0 0 0 TTTFFF
FFFFFFFFFFF2 83 3 15 .768627450980392 .886274509803922 .952941176470588 79 17 49
0 SDL/TYSA_COLOUR_21 0 
