**ABCDEFGHIJKLMNOPQRSTUVWXYZabcdefghijklmnopqrstuvwxyz**************************
**PARASOLID !"#$%&'()*+,-./:;<=>?@[\]^_`{|}~0123456789**************************
**PART1;
MC=unknown;
MC_MODEL=unknown;
MC_ID=unknown;
OS=unknown;
OS_RELEASE=unknown;
FRU=Parasolid 36.0.180;
APPL=Onshape;
SITE=unknown;
USER=unknown;
FORMAT=text;
GUISE=transmit;
KEY=BTGapi::writeModels_.xmt;
FILE=BTGapi::writeModels_.xmt;
DATE=2024-05-15T00:06:35 (UTC);
**PART2;
SCH=SCH_3600180_36001;
USFLD_SIZE=0;
**PART3;
**END_OF_HEADER*****************************************************************
T51 : TRANSMIT FILE created by modeller version 360018023 SCH_3600180_36001_1300
6231 0 12 36 CCCI7 lattice222 0 CCCI4 mesh1006 0 I8 polyline1008 0 CCCCCCCDI5 ow
ner1040 0 CCCI16 boundary_lattice222 0 CCCI13 boundary_mesh1006 0 I17 boundary_p
olyline1008 0 CCCA16 index_map_offset0 0 1 dA9 index_map82 0 A17 node_id_index_m
ap82 0 A20 schema_embedding_map82 0 A5 child12 0 A14 lowest_node_id0 0 1 dA16 me
sh_offset_data206 0 Z1 511 2 3 0 0 0 0 0 0 0 1e3 1e-8 0 4 5 1 0 1 2 6 0 7 8 9 0
 0 10 11 12 0 0 0 0 0 0 0 81 255 1 2 505 13 1 14 0 0 0 15 70 11 CI9 list_type0 0
 1 uI10 notransmit0 0 1 lCCCDCCDI12 finger_index0 0 1 dI12 finger_block1012 0 CZ
3 0 4 T1 0 0 5 20 1 16 16 13 255 6 461 0 1 0 17 0 0 18 0 50 255 7 456 0 17 19 0
 0 +.9017 -.818691148138101 6.3500168543909 -1 -150129908673195e-30 -10310126258
27964e-31 150129908673195e-30 -1 0 30 255 8 460 0 11 20 0 0 +.9017 -1.3212036920
61294 6.00491787844364 0 .566107244007959 -.824331600923871 29 255 9 437 0 21 22
 0 .9017 -.307640999341214 6.68268387938171 19 9 CCCCCCI5 frame230 0 CA5 owner12
 0 Z10 366 0 1 18 0 23 0 V0 16 255 11 444 24 ?25 0 26 8 0 0 1 18 255 12 250 27 2
8 0 29 30 ?1 81 1 27 479 31 12 0 0 32 33 34 17 255 28 0 35 36 37 12 38 39 0 40 -
18 29 245 41 42 12 43 44 ?1 29 30 252 0 12 44 45 .9017 -.316178604214909 6.69511
583033815 29 44 247 0 29 46 30 2.4765 -.316178604214909 6.69511583033815 29 45 4
40 0 47 30 48 .9017 -1.3126660871876 5.99248592748721 18 47 428 49 25 50 0 45 ?1
 29 48 439 0 50 45 22 2.4765 -1.3126660871876 5.99248592748721 18 50 424 51 52 5
3 47 48 ?1 29 22 438 0 53 48 9 2.4765 -.307640999341214 6.68268387938171 18 53 4
20 33 54 21 50 22 ?1 81 1 33 480 31 53 0 0 27 41 55 17 54 0 35 37 36 53 56 57 0
 58 +18 21 416 32 38 59 53 9 ?1 81 1 32 478 31 21 0 0 60 27 61 17 38 0 62 63 40
 21 28 39 0 64 +18 59 235 65 66 43 21 67 ?1 81 1 65 483 31 59 0 0 49 68 69 17 66
 0 62 40 63 59 25 11 0 70 -18 43 240 60 71 29 59 46 ?1 29 67 237 0 59 0 46 .9017
 -1.321203692061294 6.00491787844364 29 46 242 0 43 67 44 2.4765 -1.321203692061
294 6.00491787844364 81 1 60 477 31 43 0 0 51 32 72 17 71 0 73 42 74 43 70 75 0
 76 +15 255 73 14 0 74 77 0 17 42 0 73 78 71 29 79 80 0 56 +17 74 0 73 71 78 59
 40 81 0 0 -17 70 0 82 25 76 59 71 75 0 74 -16 75 79 83 ?71 80 81 84 0 0 1 17 76
 0 82 70 52 43 85 26 0 79 -15 82 449 0 52 86 0 17 52 0 82 76 25 50 87 88 0 85 +1
7 85 0 89 58 79 50 76 26 0 90 +16 26 443 68 ?85 11 57 20 0 0 1 17 79 0 89 85 56
 43 42 80 0 0 -15 89 447 0 58 91 0 17 56 0 89 79 58 29 54 57 0 36 -16 80 84 92 ?
42 93 75 94 0 0 1 81 1 92 495 31 80 0 0 95 96 97 16 93 89 98 ?36 39 80 99 0 0 1
 30 94 86 0 80 84 99 0 +2.4765 -.818691148138101 6.3500168543909 -36424639915523
45e-31 .824331600923871 .56610724400796 30 84 81 0 75 100 94 0 +1.6891 -1.321203
692061294 6.00491787844364 1 0 0 30 99 91 0 93 94 101 0 +1.6891 -.31617860421490
9 6.69511583033815 1 0 0 30 101 436 0 102 99 103 0 +.9017 -.810153543264406 6.33
758490343446 -182123199577617e-30 .824331600923871 .56610724400796 16 102 412 10
4 ?64 88 0 101 0 0 1 30 103 435 0 88 101 105 0 +1.6891 -1.3126660871876 5.992485
92748721 1 0 0 16 88 408 106 ?52 107 102 103 0 0 1 30 105 434 0 107 103 108 0 +2
.4765 -.810153543264406 6.33758490343446 -3642463991552345e-31 .824331600923871
 .56610724400796 16 107 404 95 ?58 109 88 105 0 0 1 30 108 433 0 109 105 110 0 +
1.6891 -.307640999341214 6.68268387938171 1 0 0 16 109 400 111 ?112 81 107 108 0
 0 1 30 110 457 0 39 108 113 0 +.9017 -.316178604214909 6.69511583033815 0 .5661
07244007959 -.824331600923871 16 39 441 114 ?38 57 93 110 0 0 1 30 113 458 0 57
 110 20 0 +2.4765 -.316178604214909 6.69511583033815 0 .566107244007959 -.824331
600923871 16 57 442 115 ?54 26 39 113 0 0 1 30 20 459 0 26 113 8 0 +2.4765 -1.32
1203692061294 6.00491787844364 0 .566107244007959 -.824331600923871 81 1 115 486
 31 57 0 0 114 24 116 80 7 CCCCCDI12 legal_owners0 17 1 lCZ1 31 117 118 9000 0 0
 0 0 3 6 0 0 0 FFTFTFTTFFFFFFFFF1 81 1 114 485 31 39 0 0 68 115 119 81 1 24 487
 31 11 0 0 115 106 120 82 255 3 116 117 22 1 81 1 106 488 31 88 0 0 24 83 121 82
 3 120 117 23 1 81 1 83 489 31 75 0 0 106 111 122 82 3 121 117 58 1 81 1 111 490
 31 109 0 0 83 98 123 82 3 122 117 59 1 81 1 98 491 31 93 0 0 111 104 124 82 3 1
23 117 70 1 81 1 104 492 31 102 0 0 98 125 126 82 3 124 117 71 1 81 1 125 493 31
 81 0 0 104 95 127 82 3 126 117 72 1 16 81 74 125 ?40 75 109 100 0 0 1 81 1 95 4
94 31 107 0 0 125 92 128 82 3 127 117 73 1 82 3 128 117 74 1 17 40 0 62 38 66 12
 74 81 0 78 +30 100 76 0 81 0 84 0 +.9017 -.818691148138101 6.3500168543909 -182
123199577617e-30 .824331600923871 .56610724400796 15 62 451 0 63 17 0 17 78 0 73
 74 42 12 36 93 0 0 -17 36 0 35 54 28 29 78 93 0 0 +15 35 445 0 37 129 0 17 37 0
 35 28 54 21 112 109 0 0 -14 255 129 446 130 ?77 91 35 6 131 +0 0 77 91 23 81 1
 130 509 132 129 133 0 134 135 136 14 77 11 135 ?137 129 73 6 138 +0 0 137 129 2
3 14 91 448 134 ?129 86 89 6 139 -0 0 129 86 23 50 131 453 0 129 140 139 0 +1.68
91 -.316178604214909 6.69511583033815 0 .824331600923871 .566107244007959 0 -.56
610724400796 .824331600923872 13 23 373 0 0 0 0 0 0 10 17 14 17 452 141 ?86 0 62
 6 7 +0 0 86 0 23 81 1 141 506 132 17 142 0 0 143 144 14 86 450 143 ?91 17 82 6
 19 -0 0 91 17 23 81 1 143 507 132 86 96 0 141 134 145 50 19 455 0 86 139 7 0 +1
.6891 -1.321203692061294 6.00491787844364 0 .824331600923871 .566107244007959 0
 -.56610724400796 .824331600923872 50 139 454 0 91 131 19 0 +2.4765 -.8186911481
38101 6.3500168543909 -1 -30025981734639e-29 -206202525165593e-30 30025981734639
e-29 -1 0 80 1 132 0 146 8001 0 0 0 0 3 5 0 0 0 FFFFTFTFFFFFFFFFF2 81 1 96 496 3
1 86 0 143 92 147 148 81 1 134 508 132 91 149 0 143 130 150 83 255 3 145 .231372
549019608 .380392156862745 .705882352941177 81 1 149 501 31 91 0 134 142 151 152
 83 3 150 .231372549019608 .380392156862745 .705882352941177 81 1 142 500 31 17
 0 141 133 149 153 81 1 151 502 31 1 0 154 149 0 155 82 3 152 117 35 2 81 1 154
 503 156 1 151 14 0 0 157 82 3 155 117 5 3 80 1 156 158 159 8038 0 0 0 0 0 0 0 0
 0 TTTTTTTTTTTTTFTFT10 81 1 14 504 158 1 154 2 0 0 160 98 255 8 157 80 97 114 11
6 32 49 54 49 80 1 158 161 162 8017 0 0 0 0 0 0 0 0 0 TTTTTTTTTTTTTFTFT3 84 255
 8 160 Part 16179 255 13 162 SDL/TYSA_NAME79 14 159 SDL/TYSA_UNAME81 1 133 499 3
1 129 0 130 163 142 164 82 3 153 117 34 2 81 1 163 498 31 77 0 135 147 133 165 8
2 3 164 117 33 2 81 1 135 510 132 77 163 0 130 166 167 81 1 147 497 31 137 0 166
 96 163 168 82 3 165 117 27 2 14 137 392 166 ?0 77 169 6 140 -0 0 0 77 23 81 1 1
66 511 132 137 147 0 135 0 170 82 3 168 117 26 2 83 3 170 .231372549019608 .3803
92156862745 .705882352941177 15 169 399 0 64 137 0 50 140 432 0 137 138 131 0 +-
.3175 -2.17465501836173 5.40051762535558 0 -.56610724400796 .824331600923871 1 0
 0 50 138 3 0 77 0 140 0 +-.3175 -2.183192623235425 5.41294957631201 0 -.5661072
4400796 .824331600923871 1 0 0 17 64 0 169 112 87 21 63 102 0 37 +17 112 0 169 9
0 64 53 37 109 0 0 +17 87 0 169 64 90 47 52 88 0 63 -17 63 0 62 66 38 47 64 102
 0 0 -17 90 0 169 87 112 50 58 107 0 0 -17 58 0 89 56 85 53 90 107 0 112 +83 3 1
67 .231372549019608 .380392156862745 .705882352941177 82 3 148 117 25 2 79 15 14
6 SDL/TYSA_COLOUR83 3 144 .231372549019608 .380392156862745 .705882352941177 83
 3 136 .231372549019608 .380392156862745 .705882352941177 81 1 68 484 31 26 0 0
 65 114 171 82 3 119 117 21 1 82 3 171 117 16 1 79 9 118 BTI/DetId82 3 97 117 75
 1 17 25 0 82 52 70 47 66 11 0 87 +81 1 51 476 31 50 0 0 0 60 172 82 3 72 117 33
 0 82 3 172 117 32 0 81 1 49 482 31 47 0 0 41 65 173 82 3 69 117 47 0 81 1 41 48
1 31 29 0 0 33 49 174 82 3 173 117 46 0 82 3 174 117 45 0 82 3 61 117 42 0 82 3
 55 117 44 0 82 3 34 117 43 0 19 18 462 0 1 0 10 6 0 S0 74 4 CI16 index_map_offs
et0 0 1 dCCZ20 16 5 0 0 151 154 14 2 166 0 0 0 0 0 0 0 0 0 0 0 0 0 0 0 80 1 13 1
32 175 8040 0 0 0 0 3 5 0 0 0 TTTFFFFFFFFFFFFFF2 83 3 15 .231372549019608 .38039
2156862745 .705882352941177 79 17 175 SDL/TYSA_COLOUR_21 0 
