**ABCDEFGHIJKLMNOPQRSTUVWXYZabcdefghijklmnopqrstuvwxyz**************************
**PARASOLID !"#$%&'()*+,-./:;<=>?@[\]^_`{|}~0123456789**************************
**PART1;
MC=unknown;
MC_MODEL=unknown;
MC_ID=unknown;
OS=unknown;
OS_RELEASE=unknown;
FRU=Parasolid 36.0.180;
APPL=Onshape;
SITE=unknown;
USER=unknown;
FORMAT=text;
GUISE=transmit;
KEY=BTGapi::writeModels_.xmt;
FILE=BTGapi::writeModels_.xmt;
DATE=2024-05-15T00:06:35 (UTC);
**PART2;
SCH=SCH_3600180_36001;
USFLD_SIZE=0;
**PART3;
**END_OF_HEADER*****************************************************************
T51 : TRANSMIT FILE created by modeller version 360018023 SCH_3600180_36001_1300
6231 0 12 36 CCCI7 lattice222 0 CCCI4 mesh1006 0 I8 polyline1008 0 CCCCCCCDI5 ow
ner1040 0 CCCI16 boundary_lattice222 0 CCCI13 boundary_mesh1006 0 I17 boundary_p
olyline1008 0 CCCA16 index_map_offset0 0 1 dA9 index_map82 0 A17 node_id_index_m
ap82 0 A20 schema_embedding_map82 0 A5 child12 0 A14 lowest_node_id0 0 1 dA16 me
sh_offset_data206 0 Z1 377 2 3 0 0 0 0 0 0 0 1e3 1e-8 0 4 5 1 0 1 2 6 0 7 8 9 0
 0 10 11 12 0 0 0 0 0 0 0 81 255 1 2 371 13 1 14 0 0 0 15 70 11 CI9 list_type0 0
 1 uI10 notransmit0 0 1 lCCCDCCDI12 finger_index0 0 1 dI12 finger_block1012 0 CZ
3 0 4 T1 0 0 5 20 1 16 16 13 255 6 128 0 1 0 17 0 0 18 0 50 255 7 123 0 19 20 0
 0 +-.5969 -.264671068462782 6.73048847537274 -1 -732341017918022e-30 -502932988
208762e-30 732341017918022e-30 -1 0 30 255 8 127 0 21 22 0 0 +-.5969 -.316178604
2149095 6.69511583033815 0 .566107244007959 -.824331600923871 29 255 9 104 0 23
 24 0 .0381 -.307640999341214 6.68268387938171 19 9 CCCCCCI5 frame230 0 CA5 owne
r12 0 Z10 1 0 1 18 0 25 0 V0 16 255 11 108 26 ?27 0 21 22 0 0 1 18 255 12 20 28
 29 0 30 31 ?1 81 1 28 150 32 12 0 0 33 34 35 17 255 29 0 36 37 38 12 27 11 0 39
 -18 30 29 40 41 12 23 42 ?1 29 31 39 0 12 42 24 .0381 -.316178604214909 6.69511
583033815 29 42 36 0 30 43 31 -.5969 -.3161786042149095 6.69511583033815 29 24 1
07 0 44 31 9 -.5969 -.3076409993412145 6.68268387938171 18 44 95 45 46 23 47 24
 ?1 81 1 45 145 32 44 0 0 0 40 48 17 46 0 36 38 37 44 41 21 0 49 +18 23 83 33 27
 30 44 9 ?1 18 47 275 50 51 44 52 43 ?1 81 1 50 276 32 47 0 0 53 54 55 17 51 0 5
6 57 58 47 39 59 0 60 +18 52 265 61 62 47 63 64 ?1 29 43 323 0 47 64 42 .0381 -6
93889390390723e-32 6.91225053443754 29 64 324 0 52 65 43 -.5969 -693889390390723
e-32 6.89395540904978 29 65 325 0 63 66 64 -.5969 1665334536937735e-31 6.9122505
3443754 18 63 269 53 67 52 68 65 ?1 29 66 326 0 68 0 65 .0381 0 6.89395540904978
 18 68 263 69 70 63 0 66 ?1 81 1 69 264 32 68 0 0 71 61 72 17 70 0 73 60 27 68 7
4 75 0 76 +15 255 73 114 0 70 77 0 17 60 0 73 39 70 47 76 78 0 79 +17 27 0 73 70
 39 23 29 11 0 74 +17 74 0 80 81 82 23 70 75 0 38 -16 75 71 83 ?70 84 85 86 0 0
 1 17 76 0 87 88 79 68 60 78 0 82 -15 87 282 0 88 89 0 17 88 0 87 90 76 52 82 91
 0 0 -17 79 0 87 76 90 47 57 92 0 0 +16 78 252 71 ?60 91 0 93 0 0 1 17 82 0 80 7
4 62 68 88 91 0 0 +15 80 66 0 81 94 0 17 62 0 80 82 81 52 49 85 0 95 +16 91 241
 96 ?82 97 78 98 0 0 1 81 1 96 243 32 91 0 0 99 71 100 16 97 219 101 ?90 92 91 1
02 0 0 1 30 98 311 0 91 102 103 0 +-.2794 0 6.89395540904978 1 0 471626113223637
e-47 30 102 312 0 97 104 98 0 +-.5969 0 6.99021283482345 -4079502184423135e-32 0
 1 30 103 32 0 105 98 106 0 +-.5969 -.264671068462782 6.73048847537274 -88840585
1598131e-30 .824331600923871 .56610724400796 16 105 17 107 ?67 59 84 103 0 0 1 3
0 106 34 0 59 103 108 0 +.0381 -.2646710684627825 6.73048847537274 -166576097174
6515e-31 .824331600923871 .56610724400796 16 59 11 109 ?51 110 105 106 0 0 1 30
 108 35 0 110 106 111 0 +-.2794 -.316178604214909 6.69511583033815 -1 -594032774
223018e-31 -4079502184423135e-32 16 110 8 112 ?37 21 59 108 0 0 1 30 111 103 0 8
5 108 86 0 +-.5969 -.256133463589087 6.71805652441631 -888405851598131e-30 .8243
31600923871 .56610724400796 16 85 79 113 ?62 75 92 111 0 0 1 30 86 101 0 75 111
 114 0 +.0381 -.2561334635890875 6.71805652441631 -1665760971746515e-31 .8243316
00923871 .56610724400796 30 114 100 0 84 86 22 0 +-.2794 -.307640999341214 6.682
68387938171 -1 -594032774223018e-31 -4079502184423135e-32 16 84 67 115 ?81 105 7
5 114 0 0 1 30 22 124 0 11 114 8 0 +.0381 -.316178604214909 6.69511583033815 0 .
566107244007959 -.824331600923871 81 1 115 155 32 84 0 0 26 112 116 17 81 0 80 6
2 74 44 38 84 0 0 +17 38 0 36 29 46 23 81 84 0 0 -15 36 112 0 38 17 0 14 255 17
 113 117 ?77 0 36 6 118 +0 0 77 0 25 81 1 117 372 119 17 120 0 0 121 122 14 77 1
15 121 ?19 17 73 6 20 -0 0 19 17 25 50 118 120 0 17 123 20 0 +-.2794 -.316178604
214909 6.69511583033815 720623561631332e-31 -.824331600923871 -.566107244007959
 0 .56610724400796 -.824331600923872 13 25 3 0 0 0 0 0 0 10 17 50 123 99 0 94 12
4 118 0 +-.3175 -2.17465501836173 5.40051762535558 0 -.56610724400796 .824331600
923871 1 0 0 50 20 121 0 77 118 7 0 +.0381 -.2646710684627825 6.73048847537274 -
1 -1373139408596308e-31 -94299935289144e-30 1373139408596308e-31 -1 0 14 94 59 1
25 ?89 126 80 6 123 -0 0 89 126 25 50 124 40 0 126 127 123 0 +-.3175 -2.18319262
3235425 5.41294957631201 0 -.56610724400796 .824331600923871 1 0 0 14 126 4 128
 ?94 19 56 6 124 +0 0 94 19 25 50 127 305 0 89 0 124 0 +0 0 0 0 -1 0 0 0 -1 14 8
9 279 129 ?0 94 87 6 127 -0 0 0 94 25 81 1 129 377 119 89 54 0 125 0 130 80 7 CC
CCCDI12 legal_owners0 17 1 lCZ1 119 0 131 8001 0 0 0 0 3 5 0 0 0 FFFFTFTFFFFFFFF
FF2 81 1 54 281 32 89 0 129 50 132 133 81 1 125 376 119 94 134 0 128 129 135 83
 255 3 130 .917647058823529 .917647058823529 .917647058823529 81 1 134 365 32 94
 0 125 109 136 137 81 1 128 375 119 126 136 0 138 125 139 83 3 135 .917647058823
529 .917647058823529 .917647058823529 81 1 136 366 32 126 0 128 134 140 141 81 1
 138 374 119 19 140 0 121 128 142 83 3 139 .917647058823529 .917647058823529 .91
7647058823529 14 19 119 138 ?126 77 143 6 7 +0 0 126 77 25 81 1 140 367 32 19 0
 138 136 144 145 81 1 121 373 119 77 144 0 117 138 146 83 3 142 .917647058823529
 .917647058823529 .917647058823529 81 1 144 368 32 77 0 121 140 0 147 83 3 146 .
917647058823529 .917647058823529 .917647058823529 80 1 32 148 149 9000 0 0 0 0 3
 6 0 0 0 FFTFTFTTFFFFFFFFF1 82 255 3 147 169 3 2 79 255 9 149 BTI/DetId82 3 145
 169 2 2 15 143 118 0 49 19 0 17 49 0 143 41 95 44 62 85 0 81 -17 41 0 143 67 49
 30 46 21 0 150 -17 95 0 143 49 67 52 90 97 0 88 -17 67 0 143 95 41 63 150 105 0
 57 +17 90 0 87 79 88 63 95 97 0 0 +17 150 0 56 58 57 30 67 105 0 37 -17 57 0 56
 150 51 63 79 92 0 90 -15 56 7 0 58 126 0 16 92 222 99 ?79 85 97 104 0 0 1 81 1
 99 224 32 92 0 0 101 96 151 30 104 313 0 92 93 102 0 +-.2794 0 6.91225053443754
 1 0 471626113223637e-47 30 93 314 0 78 0 104 0 +.0381 0 6.99021283482345 -40795
02184423135e-32 0 1 81 1 101 221 32 97 0 0 120 99 152 82 3 151 168 11 1 81 1 120
 163 32 17 0 117 112 101 153 82 3 152 168 8 1 81 1 112 156 32 110 0 0 115 120 15
4 82 3 153 117 36 2 82 3 154 117 77 1 17 58 0 56 51 150 12 37 110 0 0 -17 37 0 3
6 46 29 30 58 110 0 0 +16 21 111 34 ?46 11 110 8 0 0 1 81 1 34 152 32 21 0 0 28
 26 155 81 1 26 154 32 11 0 0 34 115 156 82 3 155 117 25 1 82 3 156 117 27 1 82
 3 141 169 1 2 81 1 109 364 32 59 0 0 83 134 157 82 3 137 169 0 2 81 1 83 363 32
 75 0 0 107 109 158 82 3 157 169 3 1 81 1 107 362 32 105 0 0 113 83 159 82 3 158
 169 2 1 81 1 113 361 32 85 0 0 132 107 160 82 3 159 169 1 1 81 1 132 360 32 1 0
 161 54 113 162 82 3 160 169 0 1 81 1 161 369 163 1 132 14 0 0 164 82 3 162 117
 6 3 80 1 163 165 166 8038 0 0 0 0 0 0 0 0 0 TTTTTTTTTTTTTFTFT10 81 1 14 370 165
 1 161 2 0 0 167 98 255 8 164 80 97 114 116 32 49 54 50 80 1 165 168 169 8017 0
 0 0 0 0 0 0 0 0 TTTTTTTTTTTTTFTFT3 84 255 8 167 Part 16279 13 169 SDL/TYSA_NAME
79 14 166 SDL/TYSA_UNAME82 3 133 168 5 2 79 15 131 SDL/TYSA_COLOUR83 3 122 .9176
47058823529 .917647058823529 .917647058823529 82 3 116 117 76 1 81 1 71 254 32 7
8 0 0 96 69 170 82 3 100 168 10 1 82 3 170 168 9 1 17 39 0 73 27 60 12 51 59 0 5
8 -81 1 61 266 32 52 0 0 69 53 171 82 3 72 168 6 0 81 1 53 270 32 63 0 0 61 50 1
72 82 3 171 168 4 0 82 3 172 168 5 0 82 3 55 168 7 0 81 1 33 149 32 23 0 0 40 28
 173 81 1 40 146 32 30 0 0 45 33 174 82 3 173 117 54 0 82 3 174 117 51 0 82 3 48
 117 50 0 82 3 35 117 55 0 19 18 129 0 1 0 10 6 0 S0 74 4 CI16 index_map_offset0
 0 1 dCCZ20 16 5 0 0 144 161 14 2 129 0 0 0 0 0 0 0 0 0 0 0 0 0 0 0 80 1 13 119
 175 8040 0 0 0 0 3 5 0 0 0 TTTFFFFFFFFFFFFFF2 83 3 15 .917647058823529 .9176470
58823529 .917647058823529 79 17 175 SDL/TYSA_COLOUR_21 0 
