**ABCDEFGHIJKLMNOPQRSTUVWXYZabcdefghijklmnopqrstuvwxyz**************************
**PARASOLID !"#$%&'()*+,-./:;<=>?@[\]^_`{|}~0123456789**************************
**PART1;
MC=unknown;
MC_MODEL=unknown;
MC_ID=unknown;
OS=unknown;
OS_RELEASE=unknown;
FRU=Parasolid 36.0.180;
APPL=Onshape;
SITE=unknown;
USER=unknown;
FORMAT=text;
GUISE=transmit;
KEY=BTGapi::writeModels_.xmt;
FILE=BTGapi::writeModels_.xmt;
DATE=2024-05-15T00:06:35 (UTC);
**PART2;
SCH=SCH_3600180_36001;
USFLD_SIZE=0;
**PART3;
**END_OF_HEADER*****************************************************************
T51 : TRANSMIT FILE created by modeller version 360018023 SCH_3600180_36001_1300
6231 0 12 36 CCCI7 lattice222 0 CCCI4 mesh1006 0 I8 polyline1008 0 CCCCCCCDI5 ow
ner1040 0 CCCI16 boundary_lattice222 0 CCCI13 boundary_mesh1006 0 I17 boundary_p
olyline1008 0 CCCA16 index_map_offset0 0 1 dA9 index_map82 0 A17 node_id_index_m
ap82 0 A20 schema_embedding_map82 0 A5 child12 0 A14 lowest_node_id0 0 1 dA16 me
sh_offset_data206 0 Z1 666 2 3 0 0 0 0 0 0 0 1e3 1e-8 0 4 5 1 0 1 2 6 0 7 8 9 0
 0 10 11 12 0 0 0 0 0 0 0 81 255 1 2 660 13 1 14 0 0 0 15 70 11 CI9 list_type0 0
 1 uI10 notransmit0 0 1 lCCCDCCDI12 finger_index0 0 1 dI12 finger_block1012 0 CZ
3 0 4 T1 0 0 5 20 1 16 16 13 255 6 573 0 1 0 17 0 0 18 0 50 255 7 568 0 19 20 0
 0 +-2.44475 .1330068969796696 6.75639405903465 832175162687525e-31 .82433160092
3871 -.566107244007959 0 -.566107244007959 -.824331600923871 30 255 8 572 0 21 2
2 0 0 +-3.048 .1330068969796702 6.75639405903465 0 -.566107244007959 -.824331600
923871 29 255 9 549 0 23 24 0 3.048 -888178419700125e-30 6.56271734939759 19 9 C
CCCCCI5 frame230 0 CA5 owner12 0 Z10 280 0 1 18 0 25 0 V0 16 255 11 554 26 ?27 0
 28 29 0 0 1 18 255 12 274 30 31 0 32 33 ?1 81 1 30 632 34 12 0 0 35 36 37 17 25
5 31 0 38 39 40 12 41 42 0 43 -18 32 269 44 39 12 45 46 ?1 29 33 276 0 12 46 47
 3.048 .1330068969796692 6.75639405903465 29 46 271 0 32 48 33 3.048 .1853519536
38335 6.72044624904015 29 47 552 0 49 33 50 -3.048 963435455840857e-31 6.5627173
4939759 18 49 540 51 52 53 0 47 ?1 29 50 551 0 53 47 24 -3.048 .0523450566586651
 6.52676953940309 18 53 536 54 55 56 49 50 ?1 29 24 550 0 56 50 9 3.048 .0523450
566586651 6.52676953940309 18 56 532 36 57 23 53 24 ?1 81 1 36 633 34 56 0 0 30
 44 58 17 57 0 59 60 61 56 62 63 0 27 +18 23 528 35 64 65 56 9 ?1 81 1 35 631 34
 23 0 0 0 30 66 17 64 0 67 43 68 23 69 70 0 61 -18 65 184 71 40 45 23 72 ?1 81 1
 71 636 34 65 0 0 51 54 73 17 40 0 38 31 74 65 75 76 0 77 -18 45 189 78 75 32 65
 48 ?1 29 72 186 0 65 0 48 -3.048 .1330068969796702 6.75639405903465 29 48 191 0
 45 72 46 -3.048 .185351953638335 6.72044624904015 81 1 78 638 34 45 0 0 54 79 8
0 17 75 0 81 82 77 45 40 76 0 74 +15 255 81 561 0 52 83 0 17 82 0 81 52 75 53 84
 85 0 86 +17 77 0 81 75 52 65 68 21 0 41 -16 76 49 87 ?75 88 42 89 0 0 1 17 74 0
 38 40 39 45 90 88 0 84 +15 38 6 0 74 91 0 17 39 0 38 74 31 32 92 93 0 60 +17 90
 0 94 27 84 32 74 88 0 0 -16 88 54 95 ?74 93 76 96 0 0 1 17 84 0 94 90 86 45 82
 85 0 0 -15 94 559 0 86 17 0 17 86 0 94 84 27 53 97 98 0 0 +16 85 555 99 ?82 21
 93 22 0 0 1 81 1 99 642 34 85 0 0 100 101 102 16 21 556 100 ?68 28 85 8 0 0 1 1
6 93 159 103 ?39 85 88 104 0 0 1 30 22 571 0 85 29 8 0 +-3.048 .185351953638335
 6.72044624904015 0 -.566107244007959 -.824331600923871 30 29 570 0 11 105 22 0
 +3.048 .185351953638335 6.72044624904015 0 -.566107244007959 -.824331600923871
 30 105 569 0 28 106 29 0 +3.048 .1330068969796692 6.75639405903465 0 -.56610724
4007959 -.824331600923871 16 28 553 79 ?61 11 21 105 0 0 1 30 106 545 0 63 107 1
05 0 +3.048 .026172528329332 6.54474344440034 0 .824331600923871 -.5661072440079
6 16 63 480 108 ?57 42 98 106 0 0 1 30 107 546 0 98 109 106 0 +-2.44475 .0523450
566586651 6.52676953940309 -1 703459864211473e-31 -483098942892216e-31 16 98 484
 110 ?86 63 111 107 0 0 1 30 109 547 0 111 112 107 0 +-3.048 .02617252832933245
 6.54474344440034 0 .824331600923871 -.566107244007959 16 111 504 113 ?55 98 70
 109 0 0 1 30 112 548 0 70 104 109 0 +-2.44475 -500316662145822e-30 6.5627173493
9759 -1 68598828410729e-30 -47110038788091e-30 16 70 508 101 ?69 111 0 112 0 0 1
 30 104 161 0 93 96 112 0 +3.048 .159179425309002 6.7384201540374 0 .82433160092
3871 -.56610724400796 30 96 56 0 88 89 104 0 +-2.44475 .185351953638335 6.720446
24904015 -1 703459864211473e-31 -483098942892216e-31 30 89 51 0 76 114 96 0 +-3.
048 .1591794253090025 6.7384201540374 0 .824331600923871 -.566107244007959 30 11
4 46 0 42 0 89 0 +-2.44475 .1330068969796696 6.75639405903465 -1 68598828410729e
-30 -47110038788091e-30 16 42 44 115 ?41 76 63 114 0 0 1 81 1 115 644 34 42 0 0
 101 110 116 17 41 0 67 68 43 65 31 42 0 0 +15 67 563 0 64 19 0 17 68 0 67 64 41
 49 77 21 0 69 +17 43 0 67 41 64 12 61 28 0 92 -17 61 0 59 57 92 23 43 28 0 62 +
17 92 0 59 61 60 12 39 93 0 0 -15 59 557 0 57 117 0 17 60 0 59 92 57 32 27 11 0
 90 -17 27 0 94 86 90 56 60 11 0 97 +17 97 0 118 62 55 56 86 98 0 0 -15 118 479
 0 97 119 0 17 62 0 118 69 97 23 57 63 0 0 -17 55 0 118 97 69 53 52 111 0 82 +17
 69 0 118 55 62 49 64 70 0 0 +17 52 0 81 77 82 49 55 111 0 68 -14 255 119 448 12
0 ?0 91 118 6 121 -0 0 0 91 25 81 1 120 666 122 119 123 0 124 0 125 14 91 1 124
 ?119 83 38 6 126 +0 0 119 83 25 50 121 544 0 119 126 127 0 +0 2.08658288387519
 5.12976283878451 0 .566107244007959 .824331600923871 1 0 0 13 25 281 0 0 0 0 0
 0 10 17 14 17 560 128 ?117 0 94 6 129 +0 0 117 0 25 81 1 128 661 122 17 130 0 0
 131 132 14 117 558 131 ?19 17 59 6 127 +0 0 19 17 25 50 129 566 0 17 127 20 0 +
-2.44475 .185351953638335 6.72044624904015 853370007195004e-31 .824331600923871
 -.566107244007959 0 -.566107244007959 -.824331600923871 50 127 565 0 117 121 12
9 0 +3.048 .159179425309002 6.7384201540374 1 0 0 0 0 -1 50 20 567 0 83 129 7 0
 +-3.048 .1591794253090025 6.7384201540374 1 0 0 0 0 -1 14 83 562 133 ?91 19 81
 6 20 -0 0 91 19 25 81 1 133 664 122 83 134 0 135 124 136 14 19 564 135 ?83 117
 67 6 7 -0 0 83 117 25 81 1 135 663 122 19 137 0 131 133 138 80 7 CCCCCDI12 lega
l_owners0 17 1 lCZ1 122 0 139 8001 0 0 0 0 3 5 0 0 0 FFFFTFTFFFFFFFFFF2 81 1 137
 651 34 19 0 135 87 123 140 81 1 131 662 122 117 141 0 128 135 142 83 255 3 138
 .615686274509804 .811764705882353 .929411764705882 81 1 141 655 34 117 0 131 13
0 134 143 83 3 142 .615686274509804 .811764705882353 .929411764705882 80 1 34 14
4 145 9000 0 0 0 0 3 6 0 0 0 FFTFTFTTFFFFFFFFF1 81 1 130 654 34 17 0 128 146 141
 147 81 1 134 656 34 83 0 133 141 148 149 82 255 3 143 100 52 2 81 1 148 657 34
 1 0 150 134 0 151 82 3 149 100 53 2 81 1 150 658 152 1 148 14 0 0 153 82 3 151
 100 8 3 80 1 152 154 155 8038 0 0 0 0 0 0 0 0 0 TTTTTTTTTTTTTFTFT10 81 1 14 659
 154 1 150 2 0 0 156 98 255 25 153 80 97 114 116 32 54 51 32 50 46 53 120 57 46
 50 53 120 50 48 102 116 32 98 111 116 80 1 154 157 158 8017 0 0 0 0 0 0 0 0 0 T
TTTTTTTTTTTTFTFT3 84 255 25 156 Part 63 2.5x9.25x20ft bot79 255 13 158 SDL/TYSA_
NAME79 14 155 SDL/TYSA_UNAME81 1 146 653 34 91 0 124 123 130 159 82 3 147 100 51
 2 81 1 124 665 122 91 146 0 133 120 160 81 1 123 652 34 119 0 120 137 146 161 8
2 3 159 100 50 2 82 3 161 100 49 2 83 3 160 .615686274509804 .811764705882353 .9
29411764705882 79 9 145 BTI/DetId81 1 87 650 34 76 0 0 113 137 162 82 3 140 100
 48 2 81 1 113 649 34 111 0 0 103 87 163 82 3 162 100 107 1 81 1 103 648 34 93 0
 0 108 113 164 82 3 163 100 106 1 81 1 108 647 34 63 0 0 95 103 165 82 3 164 100
 105 1 81 1 95 646 34 88 0 0 110 108 166 82 3 165 100 104 1 81 1 110 645 34 98 0
 0 115 95 167 82 3 166 100 103 1 82 3 167 100 102 1 79 15 139 SDL/TYSA_COLOUR83
 3 136 .615686274509804 .811764705882353 .929411764705882 83 3 132 .615686274509
804 .811764705882353 .929411764705882 50 126 3 0 91 0 121 0 +0 2.21958978085486
 5.32343954842157 0 .566107244007959 .824331600923871 1 0 0 83 3 125 .6156862745
09804 .811764705882353 .929411764705882 81 1 101 643 34 70 0 0 99 115 168 82 3 1
16 100 101 1 82 3 168 100 100 1 81 1 79 639 34 28 0 0 78 26 169 81 1 26 640 34 1
1 0 0 79 100 170 82 3 169 100 96 1 81 1 100 641 34 21 0 0 26 99 171 82 3 170 100
 97 1 82 3 171 100 98 1 82 3 102 100 99 1 81 1 54 637 34 53 0 0 71 78 172 82 3 8
0 100 71 0 82 3 172 100 70 0 81 1 51 635 34 49 0 0 44 71 173 82 3 73 100 69 0 81
 1 44 634 34 32 0 0 36 51 174 82 3 173 100 68 0 82 3 174 100 67 0 82 3 66 100 64
 0 82 3 58 100 66 0 82 3 37 100 65 0 19 18 574 0 1 0 10 6 0 S0 74 4 CI16 index_m
ap_offset0 0 1 dCCZ20 16 5 0 0 148 150 14 2 120 0 0 0 0 0 0 0 0 0 0 0 0 0 0 0 80
 1 13 122 175 8040 0 0 0 0 3 5 0 0 0 TTTFFFFFFFFFFFFFF2 83 3 15 .615686274509804
 .811764705882353 .929411764705882 79 17 175 SDL/TYSA_COLOUR_21 0 
