**ABCDEFGHIJKLMNOPQRSTUVWXYZabcdefghijklmnopqrstuvwxyz**************************
**PARASOLID !"#$%&'()*+,-./:;<=>?@[\]^_`{|}~0123456789**************************
**PART1;
MC=unknown;
MC_MODEL=unknown;
MC_ID=unknown;
OS=unknown;
OS_RELEASE=unknown;
FRU=Parasolid 36.0.180;
APPL=Onshape;
SITE=unknown;
USER=unknown;
FORMAT=text;
GUISE=transmit;
KEY=BTGapi::writeModels_.xmt;
FILE=BTGapi::writeModels_.xmt;
DATE=2024-05-15T00:06:35 (UTC);
**PART2;
SCH=SCH_3600180_36001;
USFLD_SIZE=0;
**PART3;
**END_OF_HEADER*****************************************************************
T51 : TRANSMIT FILE created by modeller version 360018023 SCH_3600180_36001_1300
6231 0 12 36 CCCI7 lattice222 0 CCCI4 mesh1006 0 I8 polyline1008 0 CCCCCCCDI5 ow
ner1040 0 CCCI16 boundary_lattice222 0 CCCI13 boundary_mesh1006 0 I17 boundary_p
olyline1008 0 CCCA16 index_map_offset0 0 1 dA9 index_map82 0 A17 node_id_index_m
ap82 0 A20 schema_embedding_map82 0 A5 child12 0 A14 lowest_node_id0 0 1 dA16 me
sh_offset_data206 0 Z1 932 2 3 0 0 0 0 0 0 0 1e3 1e-8 0 4 5 1 0 1 2 6 0 7 8 9 0
 0 10 11 12 0 0 0 0 0 0 0 81 255 1 2 907 13 1 14 0 0 0 15 70 11 CI9 list_type0 0
 1 uI10 notransmit0 0 1 lCCCDCCDI12 finger_index0 0 1 dI12 finger_block1012 0 CZ
3 0 4 T1 0 0 6 20 1 16 16 13 255 6 692 0 1 0 17 0 0 18 0 67 255 7 668 0 19 20 0
 0 +21 -1 0 0 ?30 255 8 691 0 22 23 0 0 +5.0466220607938 .693858581768952 .45067
1280023589 -1 0 0 29 255 9 554 0 24 25 0 4.9958220607938 .793565499948773 .53827
8131987655 19 9 CCCCCCI5 frame230 0 CA5 owner12 0 Z10 1 0 1 18 0 26 0 V0 16 255
 11 592 27 ?28 0 29 30 0 0 1 18 255 12 101 31 32 0 33 34 ?1 81 1 31 765 35 12 0
 0 36 37 38 17 255 32 0 39 40 41 12 42 43 0 44 -18 33 104 45 46 12 47 48 ?1 29 3
4 215 0 12 48 49 5.0466220607938 .793565499948773 .538278131987655 29 48 214 0 3
3 50 34 5.0466220607938 .666040292282732 .477540544708573 29 49 576 0 51 34 52 4
.9958220607938 .693858581768952 .450671280023589 18 51 526 53 54 55 0 49 ?1 29 5
2 575 0 55 49 56 4.9958220607938 .666040292282732 .3288995352150395 18 55 522 57
 58 59 51 52 ?1 29 56 574 0 59 52 60 4.9958220607938 .694570350369879 .206356707
7554865 18 59 518 61 62 63 55 56 ?1 29 60 573 0 63 56 64 4.9958220607938 .786091
929639042 .1694633686074505 18 63 514 65 66 67 59 60 ?1 29 64 572 0 67 60 68 4.9
958220607938 .870614450999092 .2108052615112785 18 67 510 69 70 71 63 64 ?1 29 6
8 571 0 71 64 72 4.9958220607938 .898432740485312 .3296113038159665 18 71 506 73
 74 75 67 68 ?1 29 72 570 0 75 68 76 4.9958220607938 .870614450999092 .447883519
669959 18 75 502 77 78 79 71 72 ?1 29 76 569 0 79 72 80 4.9958220607938 .7846683
92437188 .486793536520621 18 79 498 81 28 82 75 76 ?1 29 80 568 0 82 76 83 4.995
8220607938 .91794706296072 .48359057781645 18 82 494 37 84 85 79 80 ?1 29 83 567
 0 85 80 86 4.9958220607938 .962254658368409 .3288995352150395 18 85 490 87 88 8
9 82 83 ?1 29 86 566 0 89 83 90 4.9958220607938 .917591178660257 .17331878186247
05 18 89 486 91 92 93 85 86 ?1 29 90 565 0 93 86 94 4.9958220607938 .79356549994
8773 .1178601450402622 18 93 482 95 96 97 89 90 ?1 29 94 564 0 97 90 98 4.995822
0607938 .721024416704323 .1325107154093374 18 97 478 99 100 101 93 94 ?1 29 98 5
63 0 101 94 102 4.9958220607938 .666040292282732 .177648707518108 18 101 474 103
 104 105 97 98 ?1 29 102 562 0 105 98 106 4.9958220607938 .661532424476863 .1776
48707518108 18 105 470 107 108 109 101 102 ?1 29 106 561 0 109 102 110 4.9958220
607938 .648601961560027 .125333715349993 18 109 466 111 112 113 105 106 ?1 29 11
0 560 0 113 106 114 4.9958220607938 .60447230830257 .125333715349993 18 113 462
 115 116 117 109 110 ?1 29 114 559 0 117 110 118 4.9958220607938 .60447230830257
 .702222166401113 18 117 458 119 120 121 113 114 ?1 29 118 558 0 121 114 122 4.9
958220607938 .666040292282732 .702222166401113 18 121 454 123 124 125 117 118 ?1
 29 122 557 0 125 118 126 4.9958220607938 .666040292282732 .562003752018546 18 1
25 450 127 128 129 121 122 ?1 29 126 556 0 129 122 25 4.9958220607938 .663074589
778871 .477540544708573 18 129 446 130 131 132 125 126 ?1 29 25 555 0 132 126 9
 4.9958220607938 .666040292282732 .477540544708573 18 132 442 133 134 24 129 25
 ?1 81 1 133 792 35 132 0 0 135 45 136 17 134 0 137 138 139 132 46 140 0 141 +18
 24 438 36 42 142 132 9 ?1 81 1 36 764 35 24 0 0 0 31 143 17 42 0 144 141 44 24
 32 43 0 145 +18 142 167 146 147 148 24 149 ?1 81 1 146 797 35 142 0 0 53 57 150
 17 147 0 151 152 153 142 54 22 0 154 -18 148 164 155 156 157 142 158 ?1 29 149
 193 0 142 0 158 5.0466220607938 .693858581768952 .450671280023589 29 158 194 0
 148 149 159 5.0466220607938 .666040292282732 .3288995352150395 29 159 195 0 157
 158 160 5.0466220607938 .694570350369879 .2063567077554865 18 157 161 161 162 1
63 148 159 ?1 29 160 196 0 163 159 164 5.0466220607938 .786091929639042 .1694633
686074505 18 163 158 165 166 167 157 160 ?1 29 164 197 0 167 160 168 5.046622060
7938 .870614450999092 .2108052615112785 18 167 155 169 170 171 163 164 ?1 29 168
 198 0 171 164 172 5.0466220607938 .898432740485312 .3296113038159665 18 171 152
 173 174 175 167 168 ?1 29 172 199 0 175 168 176 5.0466220607938 .87061445099909
2 .447883519669959 18 175 149 177 178 179 171 172 ?1 29 176 200 0 179 172 180 5.
0466220607938 .784668392437188 .486793536520621 18 179 146 181 182 183 175 176 ?
1 29 180 201 0 183 176 184 5.0466220607938 .91794706296072 .48359057781645 18 18
3 143 185 186 187 179 180 ?1 29 184 202 0 187 180 188 5.0466220607938 .962254658
368409 .3288995352150395 18 187 140 189 190 191 183 184 ?1 29 188 203 0 191 184
 192 5.0466220607938 .917591178660257 .1733187818624705 18 191 137 193 194 195 1
87 188 ?1 29 192 204 0 195 188 196 5.0466220607938 .793565499948773 .11786014504
02622 18 195 134 197 198 199 191 192 ?1 29 196 205 0 199 192 200 5.0466220607938
 .721024416704323 .1325107154093374 18 199 131 201 202 203 195 196 ?1 29 200 206
 0 203 196 204 5.0466220607938 .666040292282732 .177648707518108 18 203 128 205
 206 207 199 200 ?1 29 204 207 0 207 200 208 5.0466220607938 .661532424476863 .1
77648707518108 18 207 125 209 210 211 203 204 ?1 29 208 208 0 211 204 212 5.0466
220607938 .648601961560027 .125333715349993 18 211 122 213 214 215 207 208 ?1 29
 212 209 0 215 208 216 5.0466220607938 .60447230830257 .125333715349993 18 215 1
19 217 218 219 211 212 ?1 29 216 210 0 219 212 220 5.0466220607938 .604472308302
57 .702222166401113 18 219 116 221 222 223 215 216 ?1 29 220 211 0 223 216 224 5
.0466220607938 .666040292282732 .702222166401113 18 223 113 225 226 227 219 220
 ?1 29 224 212 0 227 220 50 5.0466220607938 .666040292282732 .562003752018546 18
 227 110 228 229 47 223 224 ?1 29 50 213 0 47 224 48 5.0466220607938 .6630745897
78871 .477540544708573 18 47 107 135 230 33 227 50 ?1 81 1 135 791 35 47 0 0 130
 133 231 17 230 0 137 139 138 47 131 232 0 233 -15 255 137 604 0 138 234 0 17 13
9 0 137 134 230 33 233 235 0 0 +17 138 0 137 230 134 129 236 237 0 238 -17 131 0
 239 240 241 129 230 232 0 138 +16 232 579 242 ?131 140 243 244 0 0 1 17 233 0 2
45 246 247 47 139 235 0 241 -15 245 7 0 248 249 250 17 246 0 245 251 233 227 241
 252 0 253 -17 247 0 245 233 248 33 44 254 0 139 -16 235 17 255 ?139 254 252 256
 0 0 1 17 241 0 239 131 229 47 246 252 0 0 +15 239 606 0 240 257 0 17 229 0 239
 241 240 227 128 243 0 246 -16 252 21 258 ?241 235 259 260 0 0 1 81 1 258 858 35
 252 261 0 262 263 264 16 259 25 265 ?253 252 266 267 0 0 1 134 255 260 189 0 25
2 267 256 268 +269 270 30 267 188 0 259 271 260 0 +5.0466220607938 .666040292282
732 .632112959209829 0 0 -1 30 256 190 0 235 260 272 0 +5.0466220607938 .6645574
41030802 .477540544708573 0 1 0 141 255 268 273 268 268 260 136 255 269 2 3 3 2
 5 FFF2 274 275 276 135 255 270 2 0 45 255 9 274 5.0466220607938 .66604029228273
2 .562003752018546 5.0466220607938 .666040292282732 .514908396257227 5.046622060
7938 .663074589778871 .477540544708573 127 255 4 275 3 3 0 0 128 255 4 276 0 1 ?
?67 273 649 0 257 277 278 0 +260 -1 0 0 ?14 255 257 607 279 ?280 234 239 6 273 +
0 0 280 234 26 50 255 277 648 0 234 281 273 0 +5.0466220607938 .664557441030802
 .477540544708573 0 0 1 1 0 0 50 278 650 0 280 273 282 0 +5.0466220607938 .66604
0292282732 .632112959209829 0 1 0 0 0 1 14 280 609 283 ?284 257 285 6 278 +0 0 2
84 257 26 50 282 651 0 284 278 286 0 +5.0466220607938 .635256300292651 .70222216
6401113 0 0 1 1 0 0 14 284 611 287 ?288 280 289 6 282 +0 0 288 280 26 50 286 652
 0 288 282 290 0 +5.0466220607938 .60447230830257 .413777940875553 0 -1 0 0 0 -1
 14 288 613 291 ?292 284 293 6 286 +0 0 292 284 26 50 290 653 0 292 286 294 0 +5
.0466220607938 .626537134931299 .125333715349993 0 0 -1 -1 0 0 14 292 615 295 ?2
96 288 297 6 290 +0 0 296 288 26 50 294 654 0 296 290 298 0 +5.0466220607938 .65
5067193018445 .1514912114340505 0 .970786493373323 -.2399449609471465 0 .2399449
609471465 .970786493373323 14 296 617 299 ?300 292 301 6 294 +0 0 300 292 26 50
 298 655 0 300 294 302 0 +5.0466220607938 .663786358379798 .177648707518108 0 0
 -1 -1 0 0 14 300 619 303 ?304 296 305 6 298 +0 0 304 296 26 67 302 656 0 304 29
8 306 0 +307 -1 0 0 ?14 304 621 308 ?309 300 310 6 302 +0 0 309 300 26 67 306 65
7 0 309 302 311 0 +312 -1 0 0 ?134 307 182 0 313 312 314 315 +316 317 16 313 49
 318 ?319 320 321 307 0 0 1 134 312 181 0 321 322 307 323 +324 325 30 314 183 0
 320 307 326 0 +5.0466220607938 .663786358379798 .177648707518108 0 -1 0 141 315
 302 315 315 307 136 316 2 3 3 2 5 FFF2 327 328 329 135 317 2 0 45 9 327 5.04662
20607938 .721024416704323 .1325107154093374 5.0466220607938 .688223747011616 .14
7161285778413 5.0466220607938 .666040292282732 .177648707518108 127 4 328 3 3 0
 0 128 4 329 0 1 ??16 320 45 330 ?331 332 313 314 0 0 1 30 326 184 0 332 314 333
 0 +5.0466220607938 .655067193018445 .1514912114340505 0 -.2399449609471465 -.97
0786493373323 16 332 41 334 ?335 336 320 326 0 0 1 30 333 185 0 336 326 337 0 +5
.0466220607938 .626537134931299 .125333715349993 0 -1 0 16 336 37 338 ?339 340 3
32 333 0 0 1 30 337 186 0 340 333 271 0 +5.0466220607938 .60447230830257 .413777
940875553 0 0 1 16 340 33 341 ?342 266 336 337 0 0 1 30 271 187 0 266 337 267 0
 +5.0466220607938 .635256300292651 .702222166401113 0 1 0 16 266 29 343 ?344 259
 340 271 0 0 1 81 1 343 854 35 266 345 0 346 347 348 17 344 0 289 124 222 223 34
9 266 0 0 +15 289 610 0 350 284 0 17 124 0 289 350 344 121 226 351 0 352 +17 222
 0 289 344 350 219 120 353 0 349 -17 349 0 245 354 251 219 344 266 0 342 -17 354
 0 245 355 349 215 342 340 0 339 -17 251 0 245 349 246 223 253 259 0 344 -17 342
 0 293 120 218 219 354 340 0 0 +15 293 612 0 356 288 0 17 120 0 293 356 342 117
 222 353 0 350 +17 218 0 293 342 356 215 116 357 0 354 -17 356 0 293 218 120 113
 358 359 0 360 -17 116 0 297 361 339 113 218 357 0 356 +16 357 583 362 ?116 353
 363 364 0 0 1 81 1 362 819 35 357 0 0 365 366 367 16 353 582 366 ?120 351 357 3
68 0 0 1 16 363 584 365 ?112 357 369 370 0 0 1 30 364 675 0 357 368 370 0 +5.046
6220607938 .60447230830257 .125333715349993 -1 0 0 30 368 674 0 353 371 364 0 +5
.0466220607938 .60447230830257 .702222166401113 -1 0 0 30 370 676 0 363 364 372
 0 +5.0466220607938 .648601961560027 .125333715349993 -1 0 0 30 372 677 0 369 37
0 373 0 +5.0466220607938 .661532424476863 .177648707518108 -1 0 0 16 369 585 374
 ?108 363 375 372 0 0 1 30 373 678 0 375 372 376 0 +5.0466220607938 .66604029228
2732 .177648707518108 -1 0 0 16 375 586 377 ?104 369 378 373 0 0 1 30 376 679 0
 378 373 379 0 +5.0466220607938 .721024416704323 .1325107154093374 -1 0 0 16 378
 587 380 ?100 375 381 376 0 0 1 30 379 680 0 381 376 382 0 +5.0466220607938 .793
565499948773 .1178601450402622 -1 0 0 16 381 588 383 ?96 378 384 379 0 0 1 30 38
2 681 0 384 379 385 0 +5.0466220607938 .917591178660257 .1733187818624705 -1 0 0
 16 384 589 386 ?92 381 387 382 0 0 1 30 385 682 0 387 382 388 0 +5.046622060793
8 .962254658368409 .3288995352150395 -1 0 0 16 387 590 389 ?88 384 390 385 0 0 1
 30 388 683 0 390 385 30 0 +5.0466220607938 .91794706296072 .48359057781645 -1 0
 0 16 390 591 391 ?84 387 392 388 0 0 1 30 30 684 0 11 388 393 0 +5.046622060793
8 .784668392437188 .486793536520621 -1 0 0 30 393 685 0 29 30 394 0 +5.046622060
7938 .870614450999092 .447883519669959 -1 0 0 16 29 593 395 ?78 11 396 393 0 0 1
 30 394 686 0 396 393 397 0 +5.0466220607938 .898432740485312 .3296113038159665
 -1 0 0 16 396 594 398 ?74 29 399 394 0 0 1 30 397 687 0 399 394 400 0 +5.046622
0607938 .870614450999092 .2108052615112785 -1 0 0 16 399 595 401 ?70 396 402 397
 0 0 1 30 400 688 0 402 397 403 0 +5.0466220607938 .786091929639042 .16946336860
74505 -1 0 0 16 402 596 404 ?66 399 405 400 0 0 1 30 403 689 0 405 400 23 0 +5.0
466220607938 .694570350369879 .2063567077554865 -1 0 0 16 405 597 406 ?62 402 40
7 403 0 0 1 30 23 690 0 407 403 8 0 +5.0466220607938 .666040292282732 .328899535
2150395 -1 0 0 16 407 598 408 ?58 405 22 23 0 0 1 81 1 408 827 35 407 0 0 409 40
6 410 17 58 0 151 153 152 55 156 407 0 411 +16 22 599 409 ?54 407 43 8 0 0 1 81
 1 409 826 35 22 0 0 27 408 412 17 54 0 413 414 415 51 147 22 0 153 +16 43 577 4
16 ?42 22 140 417 0 0 1 81 1 416 810 35 43 0 0 177 391 418 16 140 578 419 ?134 4
3 232 420 0 0 1 30 417 669 0 43 421 420 0 +5.0466220607938 .793565499948773 .538
278131987655 -1 0 0 134 421 531 0 422 423 417 0 +424 425 30 420 670 0 140 417 24
4 0 +5.0466220607938 .666040292282732 .477540544708573 -1 0 0 30 244 671 0 232 4
20 426 0 +5.0466220607938 .663074589778871 .477540544708573 -1 0 0 30 426 672 0
 243 244 371 0 +5.0466220607938 .666040292282732 .562003752018546 -1 0 0 16 243
 580 427 ?128 232 351 426 0 0 1 30 371 673 0 351 426 368 0 +5.0466220607938 .666
040292282732 .702222166401113 -1 0 0 16 351 581 428 ?124 243 353 371 0 0 1 81 1
 428 821 35 351 0 0 366 427 429 80 7 CCCCCDI12 legal_owners0 17 1 lCZ1 35 430 43
1 9000 0 0 0 0 3 6 0 0 0 FFTFTFTTFFFFFFFFF1 81 1 366 820 35 353 0 0 362 428 432
 81 1 427 822 35 243 0 0 428 242 433 82 255 3 429 159 104 1 81 1 242 823 35 232
 0 0 427 419 434 82 3 433 159 105 1 81 1 419 824 35 140 0 0 242 27 435 82 3 434
 159 106 1 81 1 27 825 35 11 0 0 419 409 436 82 3 435 159 107 1 82 3 436 159 108
 1 82 3 432 159 103 1 79 255 9 431 BTI/DetId17 128 0 285 352 253 125 229 243 0 2
40 +15 285 608 0 352 280 0 17 352 0 285 226 128 121 437 438 0 439 -17 253 0 285
 128 226 227 251 259 0 0 +17 240 0 239 229 131 125 238 440 0 437 -17 238 0 441 2
36 437 129 240 440 0 0 +16 440 338 262 ?238 237 438 442 0 0 1 17 437 0 441 238 4
39 125 352 438 0 0 +15 441 321 0 443 444 445 17 439 0 441 437 358 121 350 446 0
 0 +16 438 343 347 ?437 440 446 447 0 0 1 81 1 347 855 35 438 448 0 343 265 449
 16 446 348 346 ?439 438 359 450 0 0 1 30 447 535 0 438 450 442 0 +4.99582206079
38 .666040292282732 .632112959209829 0 0 -1 30 450 536 0 446 451 447 0 +4.995822
0607938 .635256300292651 .702222166401113 0 1 0 134 442 534 0 440 447 452 0 +453
 454 30 452 533 0 237 442 423 0 +4.9958220607938 .664557441030802 .4775405447085
73 0 1 0 136 453 2 3 3 2 5 FFF2 455 456 457 135 454 2 0 45 9 455 4.9958220607938
 .666040292282732 .562003752018546 4.9958220607938 .666040292282732 .51490839625
7227 4.9958220607938 .663074589778871 .477540544708573 127 4 456 3 3 0 0 128 4 4
57 0 1 ??16 237 333 263 ?236 458 440 452 0 0 1 134 423 532 0 458 452 421 0 +459
 460 16 458 328 461 ?145 422 237 423 0 0 1 136 459 2 3 3 2 5 FFF2 462 463 464 13
5 460 2 0 45 9 462 4.9958220607938 .666040292282732 .477540544708573 4.995822060
7938 .708983664538645 .538278131987655 4.9958220607938 .793565499948773 .5382781
31987655 127 4 463 3 3 0 0 128 4 464 0 1 ??81 1 461 861 35 458 465 0 255 466 467
 17 145 0 441 443 236 24 141 458 0 41 +16 422 323 468 ?443 469 458 421 0 0 1 81
 1 468 833 35 422 470 0 395 471 472 17 443 0 441 473 145 82 41 422 0 0 +16 469 9
7 474 ?152 475 422 21 0 0 1 81 1 474 866 35 469 476 0 477 478 479 17 152 0 151 5
8 147 148 154 469 0 0 +16 475 93 480 ?481 482 469 483 0 0 1 134 21 170 0 469 0 4
83 484 +485 486 134 483 171 0 475 21 487 488 +489 490 141 484 7 484 484 21 136 4
85 2 3 3 2 5 FFF2 491 492 493 135 486 2 0 45 9 491 5.0466220607938 .693858581768
952 .450671280023589 5.0466220607938 .666040292282732 .414549023526557 5.0466220
607938 .666040292282732 .3288995352150395 127 4 492 3 3 0 0 128 4 493 0 1 ??134
 487 172 0 482 483 494 495 +496 497 141 488 20 488 488 483 136 489 2 3 3 2 5 FFF
2 498 499 500 135 490 2 0 45 9 498 5.0466220607938 .666040292282732 .32889953521
50395 5.0466220607938 .666040292282732 .2432500469035225 5.0466220607938 .694570
350369879 .2063567077554865 127 4 499 3 3 0 0 128 4 500 0 1 ??67 20 667 0 501 50
2 7 0 +483 -1 0 0 ?14 501 643 503 ?504 505 506 6 20 +0 0 504 505 26 67 502 666 0
 505 507 20 0 +487 -1 0 0 ?14 505 641 508 ?501 509 510 6 502 +0 0 501 509 26 67
 507 665 0 509 511 502 0 +494 -1 0 0 ?14 509 639 512 ?505 513 514 6 507 +0 0 505
 513 26 67 511 664 0 513 515 507 0 +516 -1 0 0 ?134 494 173 0 517 487 516 518 +5
19 520 16 517 85 521 ?522 523 482 494 0 0 1 134 516 174 0 523 494 524 525 +526 5
27 141 518 507 518 518 494 136 519 2 3 3 2 5 FFF2 528 529 530 135 520 2 0 45 9 5
28 5.0466220607938 .786091929639042 .1694633686074505 5.0466220607938 .842796161
512872 .1694633686074505 5.0466220607938 .870614450999092 .2108052615112785 127
 4 529 3 3 0 0 128 4 530 0 1 ??16 523 81 531 ?532 533 517 516 0 0 1 134 524 175
 0 533 516 534 535 +536 537 141 525 511 525 525 516 136 526 2 3 3 2 5 FFF2 538 5
39 540 135 527 2 0 45 9 538 5.0466220607938 .870614450999092 .2108052615112785 5
.0466220607938 .898432740485312 .2521471544151065 5.0466220607938 .8984327404853
12 .3296113038159665 127 4 539 3 3 0 0 128 4 540 0 1 ??16 533 77 541 ?542 543 52
3 524 0 0 1 134 534 176 0 543 524 544 545 +546 547 141 535 515 535 535 524 136 5
36 2 3 3 2 5 FFF2 548 549 550 135 537 2 0 45 9 548 5.0466220607938 .898432740485
312 .3296113038159665 5.0466220607938 .898432740485312 .4089735028192975 5.04662
20607938 .870614450999092 .447883519669959 127 4 549 3 3 0 0 128 4 550 0 1 ??67
 515 663 0 551 552 511 0 +524 -1 0 0 ?14 551 635 553 ?513 554 555 6 515 +0 0 513
 554 26 67 552 662 0 554 556 515 0 +534 -1 0 0 ?14 554 633 557 ?551 17 558 6 552
 +0 0 551 17 26 67 556 661 0 17 559 552 0 +544 -1 0 0 ?14 17 631 560 ?554 0 413
 6 556 +0 0 554 0 26 67 559 660 0 561 562 556 0 +563 -1 0 0 ?134 544 177 0 564 5
34 563 565 +566 567 16 564 69 568 ?415 569 543 544 0 0 1 134 563 178 0 569 544 5
70 571 +572 573 141 565 556 565 565 544 136 566 2 3 3 2 5 FFF2 574 575 576 135 5
67 2 0 45 9 574 5.0466220607938 .784668392437188 .486793536520621 5.046622060793
8 .721676871255172 .486793536520621 5.0466220607938 .693858581768952 .4506712800
23589 127 4 575 3 3 0 0 128 4 576 0 1 ??16 569 65 577 ?578 579 564 563 0 0 1 134
 570 179 0 579 563 322 580 +581 582 141 571 559 571 571 563 136 572 2 3 3 2 5 FF
F2 583 584 585 135 573 2 0 45 9 583 5.0466220607938 .91794706296072 .48359057781
645 5.0466220607938 .962254658368409 .428903023645246 5.0466220607938 .962254658
368409 .3288995352150395 127 4 584 3 3 0 0 128 4 585 0 1 ??16 579 61 586 ?587 58
8 569 570 0 0 1 134 322 180 0 588 570 312 589 +590 591 141 580 562 580 580 570 1
36 581 2 3 3 2 5 FFF2 592 593 594 135 582 2 0 45 9 592 5.0466220607938 .96225465
8368409 .3288995352150395 5.0466220607938 .962254658368409 .2287774186846785 5.0
466220607938 .917591178660257 .1733187818624705 127 4 593 3 3 0 0 128 4 594 0 1
 ??67 562 659 0 595 311 559 0 +570 -1 0 0 ?14 595 627 596 ?561 597 598 6 562 +0
 0 561 597 26 67 311 658 0 597 306 562 0 +322 -1 0 0 ?14 597 625 599 ?595 309 60
0 6 311 +0 0 595 309 26 81 1 599 927 601 597 602 0 603 596 604 14 309 623 603 ?5
97 304 605 6 306 +0 0 597 304 26 15 600 624 0 606 597 0 13 26 3 0 0 0 0 0 0 10 1
7 17 606 0 600 194 96 89 607 608 0 609 -17 194 0 600 610 606 191 92 384 0 611 -1
7 96 0 600 606 610 93 198 381 0 612 +17 607 0 441 613 609 93 606 608 0 0 +16 608
 383 614 ?607 615 616 617 0 0 1 17 609 0 441 607 473 89 618 616 0 0 +17 473 0 44
1 609 443 85 619 620 0 0 +17 618 0 598 190 92 85 609 616 0 473 -16 616 388 621 ?
609 608 620 622 0 0 1 81 1 621 837 35 616 623 0 577 586 624 16 620 393 625 ?473
 616 626 627 0 0 1 134 622 544 0 616 627 617 0 +628 629 134 627 545 0 620 630 62
2 0 +631 632 134 617 543 0 608 622 633 0 +634 635 136 628 2 3 3 2 5 FFF2 636 637
 638 135 629 2 0 45 9 636 4.9958220607938 .962254658368409 .3288995352150395 4.9
958220607938 .962254658368409 .2287774186846785 4.9958220607938 .917591178660257
 .1733187818624705 127 4 637 3 3 0 0 128 4 638 0 1 ??134 633 542 0 615 617 639 0
 +640 641 136 634 2 3 3 2 5 FFF2 642 643 644 135 635 2 0 45 9 642 4.995822060793
8 .917591178660257 .1733187818624705 4.9958220607938 .872927698952104 .117860145
0402622 4.9958220607938 .793565499948773 .1178601450402622 127 4 643 3 3 0 0 128
 4 644 0 1 ??16 615 378 645 ?613 646 608 633 0 0 1 134 639 541 0 646 633 647 0 +
648 649 136 640 2 3 3 2 5 FFF2 650 651 652 135 641 2 0 45 9 650 4.9958220607938
 .793565499948773 .1178601450402622 4.9958220607938 .75382508639703 .11786014504
02622 4.9958220607938 .721024416704323 .1325107154093374 127 4 651 3 3 0 0 128 4
 652 0 1 ??16 646 373 653 ?654 655 615 639 0 0 1 30 647 540 0 655 639 656 0 +4.9
958220607938 .663786358379798 .177648707518108 0 -1 0 136 648 2 3 3 2 5 FFF2 657
 658 659 135 649 2 0 45 9 657 4.9958220607938 .721024416704323 .1325107154093374
 4.9958220607938 .688223747011616 .147161285778413 4.9958220607938 .666040292282
732 .177648707518108 127 4 658 3 3 0 0 128 4 659 0 1 ??16 655 368 660 ?661 662 6
46 647 0 0 1 30 656 539 0 662 647 663 0 +4.9958220607938 .655067193018445 .15149
12114340505 0 -.2399449609471465 -.970786493373323 16 662 363 664 ?665 666 655 6
56 0 0 1 30 663 538 0 666 656 451 0 +4.9958220607938 .626537134931299 .125333715
349993 0 -1 0 16 666 358 667 ?360 359 662 663 0 0 1 30 451 537 0 359 663 450 0 +
4.9958220607938 .60447230830257 .413777940875553 0 0 1 16 359 353 668 ?358 446 6
66 451 0 0 1 81 1 668 851 35 359 669 0 338 341 670 17 358 0 441 439 360 117 356
 359 0 0 +17 360 0 441 358 665 113 361 666 0 0 +17 665 0 441 360 661 109 671 662
 0 0 +17 361 0 297 214 116 109 360 666 0 665 -15 297 614 0 361 292 0 17 214 0 29
7 339 361 211 112 363 0 355 -17 339 0 297 116 214 215 355 336 0 0 +17 112 0 301
 671 335 109 214 363 0 361 +17 355 0 245 672 354 211 339 336 0 335 -17 672 0 245
 673 355 207 335 332 0 331 -17 335 0 301 112 210 211 672 332 0 0 +15 301 616 0 6
71 296 0 17 210 0 301 335 671 207 108 369 0 672 -17 671 0 301 210 112 105 665 66
2 0 661 -17 108 0 305 674 331 105 210 369 0 671 +15 305 618 0 674 300 0 17 674 0
 305 206 108 101 661 655 0 654 -17 331 0 305 108 206 207 673 320 0 0 +17 206 0 3
05 331 674 203 104 375 0 673 -17 673 0 245 675 672 203 331 320 0 319 -17 675 0 2
45 676 673 199 319 313 0 677 -17 319 0 310 104 202 203 675 313 0 0 +15 310 620 0
 678 304 0 17 104 0 310 678 319 101 206 375 0 674 +17 202 0 310 319 678 199 100
 378 0 675 -17 678 0 310 202 104 97 654 646 0 613 -17 100 0 605 612 677 97 202 3
78 0 678 +15 605 622 0 612 309 0 17 612 0 605 198 100 93 613 615 0 607 -17 677 0
 605 100 198 199 676 321 0 0 +17 198 0 605 677 612 195 96 381 0 676 -17 676 0 24
5 611 675 195 677 321 0 610 -16 321 53 679 ?677 313 588 312 0 0 1 81 1 679 842 3
5 321 680 0 645 653 681 16 588 57 682 ?610 321 579 322 0 0 1 81 1 682 840 35 588
 683 0 614 645 684 17 610 0 600 96 194 195 611 588 0 0 +17 611 0 245 685 676 191
 610 588 0 587 -17 685 0 245 686 611 187 587 579 0 578 -17 587 0 598 92 190 191
 685 579 0 0 +15 598 626 0 618 595 0 17 92 0 598 618 587 89 194 384 0 606 +17 19
0 0 598 587 618 187 88 387 0 685 -17 88 0 687 619 578 85 190 387 0 618 +15 687 6
28 0 619 561 0 17 619 0 687 186 88 82 473 620 0 443 -17 578 0 687 88 186 187 686
 569 0 0 +17 186 0 687 578 619 183 84 390 0 686 -17 686 0 245 248 685 183 578 56
9 0 40 -17 248 0 245 247 686 12 40 392 0 0 -17 40 0 39 84 32 183 248 392 0 0 +15
 39 600 0 41 504 0 17 84 0 39 41 40 82 186 390 0 619 +16 392 9 471 ?40 390 254 6
88 0 0 1 81 1 471 834 35 392 689 0 468 625 690 16 254 13 466 ?44 392 235 272 0 0
 1 134 688 192 0 392 272 691 692 +693 694 134 272 191 0 254 256 688 695 +696 697
 134 691 553 0 698 688 699 0 +700 701 141 692 702 692 692 688 136 693 2 3 3 2 5
 FFF2 703 704 705 135 694 2 0 45 9 703 5.0466220607938 .793565499948773 .5382781
31987655 5.0466220607938 .87363946755303 .538278131987655 5.0466220607938 .91794
706296072 .48359057781645 127 4 704 3 3 0 0 128 4 705 0 1 ??67 702 646 0 504 706
 281 0 +688 -1 0 0 ?14 504 601 707 ?708 501 39 6 702 +0 0 708 501 26 50 706 530
 0 444 709 702 0 +4.9958220607938 0 .4064 1 0 0 0 1 0 67 281 647 0 708 702 277 0
 +272 -1 0 0 ?14 708 603 710 ?234 504 144 6 281 +0 0 234 504 26 81 1 710 916 601
 708 711 0 707 712 713 14 234 605 712 ?257 708 137 6 277 +0 0 257 708 26 15 144
 602 0 141 708 0 17 141 0 144 46 42 132 145 458 0 236 -17 46 0 144 44 141 33 134
 140 0 247 -17 236 0 441 145 238 132 138 237 0 0 +17 44 0 144 42 46 12 247 254 0
 248 +81 1 712 917 601 234 714 0 710 279 715 80 1 601 0 716 8001 0 0 0 0 3 5 0 0
 0 FFFFTFTFFFFFFFFFF2 81 1 714 894 35 234 0 712 717 711 718 81 1 279 918 601 257
 717 0 712 283 719 83 255 3 715 .231372549019608 .380392156862745 .7058823529411
77 81 1 717 893 35 257 0 279 720 714 721 81 1 283 919 601 280 720 0 279 287 722
 83 3 719 .231372549019608 .380392156862745 .705882352941177 81 1 720 892 35 280
 0 283 723 717 724 81 1 287 920 601 284 723 0 283 291 725 83 3 722 .231372549019
608 .380392156862745 .705882352941177 81 1 723 891 35 284 0 287 726 720 727 81 1
 291 921 601 288 726 0 287 295 728 83 3 725 .231372549019608 .380392156862745 .7
05882352941177 81 1 726 890 35 288 0 291 729 723 730 81 1 295 922 601 292 729 0
 291 299 731 83 3 728 .231372549019608 .380392156862745 .705882352941177 81 1 72
9 889 35 292 0 295 732 726 733 81 1 299 923 601 296 732 0 295 303 734 83 3 731 .
231372549019608 .380392156862745 .705882352941177 81 1 732 888 35 296 0 299 735
 729 736 81 1 303 924 601 300 735 0 299 308 737 83 3 734 .231372549019608 .38039
2156862745 .705882352941177 81 1 735 887 35 300 0 303 738 732 739 81 1 308 925 6
01 304 738 0 303 603 740 83 3 737 .231372549019608 .380392156862745 .70588235294
1177 81 1 738 886 35 304 0 308 741 735 742 81 1 603 926 601 309 741 0 308 599 74
3 83 3 740 .231372549019608 .380392156862745 .705882352941177 81 1 741 885 35 30
9 0 603 602 738 744 83 3 743 .231372549019608 .380392156862745 .705882352941177
 81 1 602 884 35 597 0 599 745 741 746 82 3 744 159 107 2 81 1 745 883 35 595 0
 596 747 602 748 82 3 746 159 106 2 81 1 596 928 601 595 745 0 599 749 750 81 1
 747 882 35 561 0 749 751 745 752 82 3 748 159 105 2 14 561 629 749 ?19 595 687
 6 559 +0 0 19 595 26 81 1 749 929 601 561 747 0 596 753 754 81 1 751 881 35 249
 0 755 756 747 757 82 3 752 159 104 2 14 249 4 755 ?444 19 245 6 709 +0 0 444 19
 26 81 1 755 931 601 249 751 0 753 758 759 81 1 756 880 35 444 0 758 760 751 761
 82 3 757 159 103 2 14 444 295 758 ?0 249 441 6 706 -0 0 0 249 26 81 1 758 932 6
01 444 756 0 755 0 762 81 1 760 879 35 504 0 707 763 756 764 82 3 761 159 102 2
 81 1 707 915 601 504 760 0 503 710 765 81 1 763 878 35 543 766 0 767 760 768 82
 3 764 159 101 2 16 543 73 763 ?769 564 533 534 0 0 1 81 1 766 74 770 543 0 763
 771 772 773 81 1 767 877 35 774 775 0 541 763 776 82 3 768 159 376 1 16 774 403
 767 ?777 626 778 779 0 0 1 81 1 775 405 770 774 0 767 780 781 782 81 1 541 876
 35 533 772 0 783 767 784 82 3 776 159 375 1 81 1 772 78 770 533 0 541 766 785 7
86 81 1 783 875 35 778 781 0 531 541 787 82 3 784 159 374 1 16 778 408 783 ?788
 774 789 790 0 0 1 81 1 781 410 770 778 0 783 775 791 792 81 1 531 874 35 523 78
5 0 793 783 794 82 3 787 159 373 1 81 1 785 82 770 523 0 531 772 795 796 81 1 79
3 873 35 789 791 0 521 531 797 82 3 794 159 372 1 16 789 413 793 ?798 778 799 80
0 0 0 1 81 1 791 415 770 789 0 793 781 801 802 81 1 521 872 35 517 795 0 803 793
 804 82 3 797 159 371 1 81 1 795 86 770 517 0 521 785 805 806 81 1 803 871 35 79
9 801 0 807 521 808 82 3 804 159 370 1 16 799 418 803 ?809 789 810 811 0 0 1 81
 1 801 420 770 799 0 803 791 812 813 81 1 807 870 35 482 805 0 814 803 815 82 3
 808 159 369 1 16 482 89 807 ?816 517 475 487 0 0 1 81 1 805 90 770 482 0 807 79
5 817 818 81 1 814 869 35 810 812 0 480 807 819 82 3 815 159 368 1 16 810 423 81
4 ?820 799 821 822 0 0 1 81 1 812 425 770 810 0 814 801 823 824 81 1 480 868 35
 475 817 0 478 814 825 82 3 819 159 367 1 81 1 817 94 770 475 0 480 805 476 826
 81 1 478 867 35 821 823 0 474 480 827 82 3 825 159 366 1 16 821 428 478 ?828 81
0 698 699 0 0 1 81 1 823 430 770 821 0 478 812 829 830 82 3 827 159 365 1 80 1 7
70 831 832 9000 0 0 0 0 3 5 0 0 0 FFTFTFTTFFFFFFFFF3 81 1 829 435 770 698 0 477
 823 0 833 84 255 35 830 PQoVoHnCctcR.sketch_text.stroke-11016 698 433 477 ?834
 821 0 691 0 0 1 81 1 477 865 35 698 829 0 568 474 835 84 35 833 PQoVoHnCctcR.sk
etch_text.stroke-10981 1 568 864 35 564 771 0 836 477 837 82 3 835 159 363 1 81
 1 771 70 770 564 0 568 838 766 839 81 1 836 863 35 626 780 0 466 568 840 82 3 8
37 159 362 1 16 626 398 836 ?841 620 774 630 0 0 1 81 1 780 400 770 626 0 836 84
2 775 843 81 1 466 862 35 254 844 0 461 836 845 82 3 840 159 361 1 81 1 844 14 7
70 254 0 466 689 846 847 82 3 845 159 360 1 81 1 689 10 770 392 0 471 0 844 848
 81 1 846 18 770 235 0 255 844 261 849 84 35 847 PQoVoHnCctcR.sketch_text.stroke
-10781 1 255 860 35 235 846 0 263 461 850 81 1 261 22 770 252 0 258 846 851 852
 84 35 849 PQoVoHnCctcR.sketch_text.stroke-10681 1 851 26 770 259 0 265 261 345
 853 84 35 852 PQoVoHnCctcR.sketch_text.stroke-10581 1 265 856 35 259 851 0 347
 262 854 81 1 345 30 770 266 0 343 851 855 856 84 35 853 PQoVoHnCctcR.sketch_tex
t.stroke-10481 1 855 34 770 340 0 341 345 857 858 84 35 856 PQoVoHnCctcR.sketch_
text.stroke-10381 1 341 852 35 340 855 0 668 346 859 81 1 857 38 770 336 0 338 8
55 860 861 84 35 858 PQoVoHnCctcR.sketch_text.stroke-10281 1 338 850 35 336 857
 0 667 668 862 81 1 860 42 770 332 0 334 857 863 864 84 35 861 PQoVoHnCctcR.sket
ch_text.stroke-10181 1 334 848 35 332 860 0 664 667 865 81 1 863 46 770 320 0 33
0 860 866 867 84 35 864 PQoVoHnCctcR.sketch_text.stroke-10081 1 330 846 35 320 8
63 0 660 664 868 81 1 866 50 770 313 0 318 863 680 869 84 34 867 PQoVoHnCctcR.sk
etch_text.stroke-9981 1 318 844 35 313 866 0 653 660 870 81 1 680 54 770 321 0 6
79 866 683 871 84 34 869 PQoVoHnCctcR.sketch_text.stroke-9881 1 683 58 770 588 0
 682 680 872 873 84 34 871 PQoVoHnCctcR.sketch_text.stroke-9781 1 872 62 770 579
 0 586 683 838 874 84 34 873 PQoVoHnCctcR.sketch_text.stroke-9681 1 586 838 35 5
79 872 0 621 614 875 81 1 838 66 770 569 0 577 872 771 876 84 34 874 PQoVoHnCctc
R.sketch_text.stroke-9581 1 577 836 35 569 838 0 625 621 877 84 34 876 PQoVoHnCc
tcR.sketch_text.stroke-9481 1 625 835 35 620 842 0 471 577 878 82 3 877 159 334
 1 81 1 842 395 770 620 0 625 623 780 879 82 3 878 159 333 1 81 1 623 390 770 61
6 0 621 880 842 881 84 34 879 PQoVoHnCctcR.sketch_text.stroke-9481 1 880 385 770
 608 0 614 882 623 883 84 34 881 PQoVoHnCctcR.sketch_text.stroke-9581 1 614 839
 35 608 880 0 586 682 884 81 1 882 380 770 615 0 645 885 880 886 84 34 883 PQoVo
HnCctcR.sketch_text.stroke-9681 1 645 841 35 615 882 0 682 679 887 81 1 885 375
 770 646 0 653 888 882 889 84 34 886 PQoVoHnCctcR.sketch_text.stroke-9781 1 653
 843 35 646 885 0 679 318 890 81 1 888 370 770 655 0 660 891 885 892 84 34 889 P
QoVoHnCctcR.sketch_text.stroke-9881 1 660 845 35 655 888 0 318 330 893 81 1 891
 365 770 662 0 664 894 888 895 84 34 892 PQoVoHnCctcR.sketch_text.stroke-9981 1
 664 847 35 662 891 0 330 334 896 81 1 894 360 770 666 0 667 669 891 897 84 35 8
95 PQoVoHnCctcR.sketch_text.stroke-10081 1 667 849 35 666 894 0 334 338 898 81 1
 669 355 770 359 0 668 899 894 900 84 35 897 PQoVoHnCctcR.sketch_text.stroke-101
81 1 899 350 770 446 0 346 448 669 901 84 35 900 PQoVoHnCctcR.sketch_text.stroke
-10281 1 346 853 35 446 899 0 341 343 902 81 1 448 345 770 438 0 347 903 899 904
 84 35 901 PQoVoHnCctcR.sketch_text.stroke-10381 1 903 340 770 440 0 262 905 448
 906 84 35 904 PQoVoHnCctcR.sketch_text.stroke-10481 1 262 857 35 440 903 0 265
 258 907 81 1 905 335 770 237 0 263 465 903 908 84 35 906 PQoVoHnCctcR.sketch_te
xt.stroke-10581 1 263 859 35 237 905 0 258 255 909 81 1 465 330 770 458 0 461 47
0 905 910 84 35 908 PQoVoHnCctcR.sketch_text.stroke-10681 1 470 325 770 422 0 46
8 476 465 911 84 35 910 PQoVoHnCctcR.sketch_text.stroke-10781 1 476 98 770 469 0
 474 817 470 912 84 34 911 PQoVoHnCctcR.sketch_text.stroke-9384 35 912 PQoVoHnCc
tcR.sketch_text.stroke-10982 3 909 159 357 1 82 3 907 159 355 1 82 3 902 159 351
 1 82 3 898 159 347 1 82 3 896 159 345 1 82 3 893 159 343 1 82 3 890 159 341 1 8
2 3 887 159 339 1 82 3 884 159 337 1 82 3 875 159 336 1 82 3 870 159 342 1 82 3
 868 159 344 1 82 3 865 159 346 1 82 3 862 159 348 1 82 3 859 159 350 1 82 3 854
 159 354 1 82 3 850 159 358 1 84 34 848 PQoVoHnCctcR.sketch_text.stroke-9384 35
 843 PQoVoHnCctcR.sketch_text.stroke-10817 841 0 445 834 777 51 414 626 0 0 +134
 630 546 0 626 779 627 0 +913 914 134 779 547 0 774 790 630 0 +915 916 136 913 2
 3 3 2 5 FFF2 917 918 919 135 914 2 0 45 9 917 4.9958220607938 .784668392437188
 .486793536520621 4.9958220607938 .721676871255172 .486793536520621 4.9958220607
938 .693858581768952 .450671280023589 127 4 918 3 3 0 0 128 4 919 0 1 ??134 790
 548 0 778 800 779 0 +920 921 136 915 2 3 3 2 5 FFF2 922 923 924 135 916 2 0 45
 9 922 4.9958220607938 .870614450999092 .447883519669959 4.9958220607938 .842796
161512872 .486793536520621 4.9958220607938 .784668392437188 .486793536520621 127
 4 923 3 3 0 0 128 4 924 0 1 ??134 800 549 0 789 811 790 0 +925 926 136 920 2 3
 3 2 5 FFF2 927 928 929 135 921 2 0 45 9 927 4.9958220607938 .898432740485312 .3
296113038159665 4.9958220607938 .898432740485312 .4089735028192975 4.99582206079
38 .870614450999092 .447883519669959 127 4 928 3 3 0 0 128 4 929 0 1 ??134 811 5
50 0 799 822 800 0 +930 931 136 925 2 3 3 2 5 FFF2 932 933 934 135 926 2 0 45 9
 932 4.9958220607938 .870614450999092 .2108052615112785 4.9958220607938 .8984327
40485312 .2521471544151065 4.9958220607938 .898432740485312 .3296113038159665 12
7 4 933 3 3 0 0 128 4 934 0 1 ??134 822 551 0 810 699 811 0 +935 936 136 930 2 3
 3 2 5 FFF2 937 938 939 135 931 2 0 45 9 937 4.9958220607938 .786091929639042 .1
694633686074505 4.9958220607938 .842796161512872 .1694633686074505 4.99582206079
38 .870614450999092 .2108052615112785 127 4 938 3 3 0 0 128 4 939 0 1 ??134 699
 552 0 821 691 822 0 +940 941 136 935 2 3 3 2 5 FFF2 942 943 944 135 936 2 0 45
 9 942 4.9958220607938 .694570350369879 .2063567077554865 4.9958220607938 .72310
0408457026 .1694633686074505 4.9958220607938 .786091929639042 .1694633686074505
 127 4 943 3 3 0 0 128 4 944 0 1 ??136 940 2 3 3 2 5 FFF2 945 946 947 135 941 2
 0 45 9 945 4.9958220607938 .666040292282732 .3288995352150395 4.9958220607938 .
666040292282732 .2432500469035225 4.9958220607938 .694570350369879 .206356707755
4865 127 4 946 3 3 0 0 128 4 947 0 1 ??15 445 322 0 841 444 0 17 834 0 445 828 8
41 55 153 698 0 0 +17 777 0 445 841 788 79 948 774 0 414 +17 414 0 413 182 54 79
 841 626 0 0 -15 413 630 0 414 17 0 17 182 0 413 415 414 179 28 11 0 769 -17 415
 0 413 54 182 142 949 564 0 0 +17 28 0 558 948 769 79 182 11 0 777 +17 769 0 558
 28 178 179 950 543 0 949 +15 558 632 0 948 554 0 17 178 0 558 769 948 175 78 29
 0 950 -17 950 0 250 951 949 175 769 543 0 542 -17 949 0 250 950 154 179 415 564
 0 0 -15 250 8 0 949 249 0 17 154 0 250 949 952 142 152 469 0 415 -17 952 0 250
 154 953 148 481 475 0 152 -17 953 0 250 952 954 157 816 482 0 481 -17 481 0 506
 62 156 157 952 475 0 0 +15 506 642 0 411 501 0 17 62 0 506 411 481 59 162 405 0
 955 +17 156 0 506 481 411 148 58 407 0 952 -17 411 0 506 156 62 55 828 821 0 83
4 -17 828 0 445 820 834 59 411 821 0 0 +17 820 0 445 809 828 63 955 810 0 0 +17
 809 0 445 798 820 67 956 799 0 0 +17 955 0 510 162 66 59 820 810 0 828 -15 510
 640 0 955 505 0 17 162 0 510 816 955 157 62 405 0 953 -17 66 0 510 955 816 63 1
66 402 0 956 +17 816 0 510 66 162 163 953 482 0 0 +17 166 0 514 522 956 163 66 4
02 0 954 -17 956 0 514 166 70 63 809 799 0 820 -15 514 638 0 956 509 0 17 70 0 5
14 956 522 67 170 399 0 957 +17 522 0 514 70 166 167 954 517 0 0 +17 170 0 958 5
32 957 167 70 399 0 959 -17 957 0 958 170 74 67 798 789 0 809 -15 958 636 0 957
 513 0 17 74 0 958 957 532 71 174 396 0 960 +17 798 0 445 788 809 71 957 789 0 0
 +17 788 0 445 777 798 75 960 778 0 0 +17 960 0 555 174 78 71 788 778 0 798 -15
 555 634 0 960 551 0 17 174 0 555 542 960 171 74 396 0 951 -17 78 0 555 960 542
 75 178 29 0 948 +17 542 0 555 78 174 175 951 533 0 0 +17 948 0 558 178 28 75 77
7 774 0 788 -17 951 0 250 959 950 171 542 533 0 532 -17 959 0 250 954 951 167 53
2 523 0 522 -17 532 0 958 74 170 171 959 523 0 0 +17 954 0 250 953 959 163 522 5
17 0 816 -14 513 637 961 ?509 551 958 6 511 +0 0 509 551 26 81 1 961 911 601 513
 962 0 553 512 963 81 1 962 901 35 513 0 961 964 965 966 81 1 553 910 601 551 96
5 0 557 961 967 81 1 512 912 601 509 964 0 961 508 968 83 3 963 .231372549019608
 .380392156862745 .705882352941177 81 1 964 900 35 509 0 512 969 962 970 81 1 50
8 913 601 505 969 0 512 503 971 83 3 968 .231372549019608 .380392156862745 .7058
82352941177 81 1 969 899 35 505 0 508 972 964 973 81 1 503 914 601 501 972 0 508
 707 974 83 3 971 .231372549019608 .380392156862745 .705882352941177 81 1 972 89
8 35 501 0 503 975 969 976 83 3 974 .231372549019608 .380392156862745 .705882352
941177 81 1 975 897 35 19 0 753 977 972 978 82 3 976 159 120 2 14 19 645 753 ?24
9 561 151 6 7 +0 0 249 561 26 81 1 753 930 601 19 975 0 749 755 979 81 1 977 896
 35 17 0 560 711 975 980 82 3 978 159 119 2 81 1 560 908 601 17 977 0 0 557 981
 81 1 711 895 35 708 0 710 714 977 982 82 3 980 159 118 2 82 3 982 159 117 2 81
 1 557 909 601 554 983 0 560 553 984 83 3 981 .231372549019608 .380392156862745
 .705882352941177 81 1 983 903 35 554 0 557 965 985 986 83 3 984 .23137254901960
8 .380392156862745 .705882352941177 81 1 965 902 35 551 0 553 962 983 987 81 1 9
85 904 35 1 0 988 983 0 989 82 3 986 159 125 2 81 1 988 905 990 1 985 14 0 0 991
 82 3 989 159 4 3 80 1 990 992 993 8038 0 0 0 0 0 0 0 0 0 TTTTTTTTTTTTTFTFT10 81
 1 14 906 992 1 988 2 0 0 994 98 255 8 991 80 97 114 116 32 50 57 57 80 1 992 99
5 996 8017 0 0 0 0 0 0 0 0 0 TTTTTTTTTTTTTFTFT3 84 8 994 Part 29979 13 996 SDL/T
YSA_NAME79 14 993 SDL/TYSA_UNAME82 3 987 159 124 2 83 3 979 .231372549019608 .38
0392156862745 .705882352941177 15 151 644 0 153 19 0 17 153 0 151 147 58 51 834
 698 0 841 -82 3 973 159 121 2 82 3 970 159 122 2 83 3 967 .231372549019608 .380
392156862745 .705882352941177 82 3 966 159 123 2 84 35 839 PQoVoHnCctcR.sketch_t
ext.stroke-10879 27 832 BTI/ImprintedSketchEntityId84 35 826 PQoVoHnCctcR.sketch
_text.stroke-11084 35 824 PQoVoHnCctcR.sketch_text.stroke-11184 35 818 PQoVoHnCc
tcR.sketch_text.stroke-11184 35 813 PQoVoHnCctcR.sketch_text.stroke-11284 35 806
 PQoVoHnCctcR.sketch_text.stroke-11284 35 802 PQoVoHnCctcR.sketch_text.stroke-11
384 35 796 PQoVoHnCctcR.sketch_text.stroke-11384 35 792 PQoVoHnCctcR.sketch_text
.stroke-11484 35 786 PQoVoHnCctcR.sketch_text.stroke-11484 35 782 PQoVoHnCctcR.s
ketch_text.stroke-11584 35 773 PQoVoHnCctcR.sketch_text.stroke-11583 3 765 .2313
72549019608 .380392156862745 .705882352941177 83 3 762 .231372549019608 .3803921
56862745 .705882352941177 83 3 759 .231372549019608 .380392156862745 .7058823529
41177 50 709 216 0 249 0 706 0 +5.0466220607938 0 .4064 1 0 0 0 1 0 83 3 754 .23
1372549019608 .380392156862745 .705882352941177 83 3 750 .231372549019608 .38039
2156862745 .705882352941177 82 3 742 159 108 2 82 3 739 159 109 2 82 3 736 159 1
10 2 82 3 733 159 111 2 82 3 730 159 112 2 82 3 727 159 113 2 82 3 724 159 114 2
 82 3 721 159 115 2 82 3 718 159 116 2 79 15 716 SDL/TYSA_COLOUR83 3 713 .231372
549019608 .380392156862745 .705882352941177 136 700 2 3 3 2 5 FFF2 997 998 999 1
35 701 2 0 45 9 997 4.9958220607938 .693858581768952 .450671280023589 4.99582206
07938 .666040292282732 .414549023526557 4.9958220607938 .666040292282732 .328899
5352150395 127 4 998 3 3 0 0 128 4 999 0 1 ??141 695 281 695 695 272 136 696 2 3
 3 2 5 FFF2 1000 1001 1002 135 697 2 0 45 9 1000 5.0466220607938 .66604029228273
2 .477540544708573 5.0466220607938 .708983664538645 .538278131987655 5.046622060
7938 .793565499948773 .538278131987655 127 4 1001 3 3 0 0 128 4 1002 0 1 ??82 3
 690 159 332 1 17 41 0 39 32 84 24 443 422 0 0 -82 3 684 159 338 1 82 3 681 159
 340 1 17 613 0 441 654 607 97 612 615 0 0 +17 654 0 441 661 613 101 678 646 0 0
 +17 661 0 441 665 654 105 674 655 0 0 +82 3 670 159 349 1 136 631 2 3 3 2 5 FFF
2 1003 1004 1005 135 632 2 0 45 9 1003 4.9958220607938 .91794706296072 .48359057
781645 4.9958220607938 .962254658368409 .428903023645246 4.9958220607938 .962254
658368409 .3288995352150395 127 4 1004 3 3 0 0 128 4 1005 0 1 ??82 3 624 159 335
 1 83 3 604 .231372549019608 .380392156862745 .705882352941177 141 589 311 589 5
89 322 136 590 2 3 3 2 5 FFF2 1006 1007 1008 135 591 2 0 45 9 1006 5.04662206079
38 .917591178660257 .1733187818624705 5.0466220607938 .872927698952104 .11786014
50402622 5.0466220607938 .793565499948773 .1178601450402622 127 4 1007 3 3 0 0 1
28 4 1008 0 1 ??141 545 552 545 545 534 136 546 2 3 3 2 5 FFF2 1009 1010 1011 13
5 547 2 0 45 9 1009 5.0466220607938 .870614450999092 .447883519669959 5.04662206
07938 .842796161512872 .486793536520621 5.0466220607938 .784668392437188 .486793
536520621 127 4 1010 3 3 0 0 128 4 1011 0 1 ??141 495 502 495 495 487 136 496 2
 3 3 2 5 FFF2 1012 1013 1014 135 497 2 0 45 9 1012 5.0466220607938 .694570350369
879 .2063567077554865 5.0466220607938 .723100408457026 .1694633686074505 5.04662
20607938 .786091929639042 .1694633686074505 127 4 1013 3 3 0 0 128 4 1014 0 1 ??
82 3 479 159 364 1 81 1 395 832 35 29 0 0 398 468 1015 82 3 472 159 331 1 81 1 3
98 831 35 396 0 0 401 395 1016 82 3 1015 159 115 1 81 1 401 830 35 399 0 0 404 3
98 1017 82 3 1016 159 114 1 81 1 404 829 35 402 0 0 406 401 1018 82 3 1017 159 1
13 1 81 1 406 828 35 405 0 0 408 404 1019 82 3 1018 159 112 1 82 3 1019 159 111
 1 82 3 467 159 359 1 82 3 449 159 353 1 17 350 0 289 222 124 117 439 446 0 358
 -17 226 0 285 253 352 223 124 351 0 251 -136 424 2 3 3 2 5 FFF2 1020 1021 1022
 135 425 2 0 45 9 1020 4.9958220607938 .793565499948773 .538278131987655 4.99582
20607938 .87363946755303 .538278131987655 4.9958220607938 .91794706296072 .48359
057781645 127 4 1021 3 3 0 0 128 4 1022 0 1 ??81 1 177 809 35 175 0 0 77 416 102
3 81 1 391 811 35 390 0 0 416 389 1024 82 3 418 159 93 1 81 1 389 812 35 387 0 0
 391 386 1025 82 3 1024 159 94 1 81 1 386 813 35 384 0 0 389 383 1026 82 3 1025
 159 95 1 81 1 383 814 35 381 0 0 386 380 1027 82 3 1026 159 96 1 81 1 380 815 3
5 378 0 0 383 377 1028 82 3 1027 159 97 1 81 1 377 816 35 375 0 0 380 374 1029 8
2 3 1028 159 98 1 81 1 374 817 35 369 0 0 377 365 1030 82 3 1029 159 99 1 81 1 3
65 818 35 363 0 0 374 362 1031 82 3 1030 159 100 1 82 3 1031 159 101 1 81 1 77 8
08 35 75 0 0 173 177 1032 82 3 1023 159 231 0 81 1 173 807 35 171 0 0 73 77 1033
 82 3 1032 159 230 0 81 1 73 806 35 71 0 0 169 173 1034 82 3 1033 159 229 0 81 1
 169 805 35 167 0 0 69 73 1035 82 3 1034 159 228 0 81 1 69 804 35 67 0 0 165 169
 1036 82 3 1035 159 227 0 81 1 165 803 35 163 0 0 65 69 1037 82 3 1036 159 226 0
 81 1 65 802 35 63 0 0 161 165 1038 82 3 1037 159 225 0 81 1 161 801 35 157 0 0
 61 65 1039 82 3 1038 159 224 0 81 1 61 800 35 59 0 0 155 161 1040 82 3 1039 159
 223 0 81 1 155 799 35 148 0 0 57 61 1041 82 3 1040 159 222 0 81 1 57 798 35 55
 0 0 146 155 1042 82 3 1041 159 221 0 82 3 1042 159 220 0 82 3 412 159 109 1 82
 3 410 159 110 1 82 3 367 159 102 1 82 3 348 159 352 1 141 323 306 323 323 312 1
36 324 2 3 3 2 5 FFF2 1043 1044 1045 135 325 2 0 45 9 1043 5.0466220607938 .7935
65499948773 .1178601450402622 5.0466220607938 .75382508639703 .1178601450402622
 5.0466220607938 .721024416704323 .1325107154093374 127 4 1044 3 3 0 0 128 4 104
5 0 1 ??82 3 264 159 356 1 81 1 130 790 35 129 0 0 228 135 1046 82 3 231 159 213
 0 81 1 228 789 35 227 0 0 127 130 1047 82 3 1046 159 212 0 81 1 127 788 35 125
 0 0 225 228 1048 82 3 1047 159 211 0 81 1 225 787 35 223 0 0 123 127 1049 82 3
 1048 159 210 0 81 1 123 786 35 121 0 0 221 225 1050 82 3 1049 159 209 0 81 1 22
1 785 35 219 0 0 119 123 1051 82 3 1050 159 208 0 81 1 119 784 35 117 0 0 217 22
1 1052 82 3 1051 159 207 0 81 1 217 783 35 215 0 0 115 119 1053 82 3 1052 159 20
6 0 81 1 115 782 35 113 0 0 213 217 1054 82 3 1053 159 205 0 81 1 213 781 35 211
 0 0 111 115 1055 82 3 1054 159 204 0 81 1 111 780 35 109 0 0 209 213 1056 82 3
 1055 159 203 0 81 1 209 779 35 207 0 0 107 111 1057 82 3 1056 159 202 0 81 1 10
7 778 35 105 0 0 205 209 1058 82 3 1057 159 201 0 81 1 205 777 35 203 0 0 103 10
7 1059 82 3 1058 159 200 0 81 1 103 776 35 101 0 0 201 205 1060 82 3 1059 159 19
9 0 81 1 201 775 35 199 0 0 99 103 1061 82 3 1060 159 198 0 81 1 99 774 35 97 0
 0 197 201 1062 82 3 1061 159 197 0 81 1 197 773 35 195 0 0 95 99 1063 82 3 1062
 159 196 0 81 1 95 772 35 93 0 0 193 197 1064 82 3 1063 159 195 0 81 1 193 771 3
5 191 0 0 91 95 1065 82 3 1064 159 194 0 81 1 91 770 35 89 0 0 189 193 1066 82 3
 1065 159 193 0 81 1 189 769 35 187 0 0 87 91 1067 82 3 1066 159 192 0 81 1 87 7
68 35 85 0 0 185 189 1068 82 3 1067 159 191 0 81 1 185 767 35 183 0 0 37 87 1069
 82 3 1068 159 190 0 81 1 37 766 35 82 0 0 31 185 1070 82 3 1069 159 189 0 82 3
 1070 159 188 0 81 1 181 795 35 179 0 0 81 53 1071 81 1 81 794 35 79 0 0 45 181
 1072 81 1 53 796 35 51 0 0 181 146 1073 82 3 1071 159 217 0 82 3 1073 159 218 0
 81 1 45 793 35 33 0 0 133 81 1074 82 3 1072 159 216 0 82 3 1074 159 215 0 82 3
 150 159 219 0 82 3 143 159 186 0 82 3 136 159 214 0 82 3 38 159 187 0 19 18 693
 0 1 0 10 6 0 S0 74 4 CI16 index_map_offset0 0 1 dCCZ20 16 6 0 0 829 985 988 14
 2 758 0 0 0 0 0 0 0 0 0 0 0 0 0 0 80 1 13 601 1075 8040 0 0 0 0 3 5 0 0 0 TTTFF
FFFFFFFFFFFF2 83 3 15 .231372549019608 .380392156862745 .705882352941177 79 17 1
075 SDL/TYSA_COLOUR_21 0 
