**ABCDEFGHIJKLMNOPQRSTUVWXYZabcdefghijklmnopqrstuvwxyz**************************
**PARASOLID !"#$%&'()*+,-./:;<=>?@[\]^_`{|}~0123456789**************************
**PART1;
MC=unknown;
MC_MODEL=unknown;
MC_ID=unknown;
OS=unknown;
OS_RELEASE=unknown;
FRU=Parasolid 36.0.180;
APPL=Onshape;
SITE=unknown;
USER=unknown;
FORMAT=text;
GUISE=transmit;
KEY=BTGapi::writeModels_.xmt;
FILE=BTGapi::writeModels_.xmt;
DATE=2024-05-15T00:06:35 (UTC);
**PART2;
SCH=SCH_3600180_36001;
USFLD_SIZE=0;
**PART3;
**END_OF_HEADER*****************************************************************
T51 : TRANSMIT FILE created by modeller version 360018023 SCH_3600180_36001_1300
6231 0 12 36 CCCI7 lattice222 0 CCCI4 mesh1006 0 I8 polyline1008 0 CCCCCCCDI5 ow
ner1040 0 CCCI16 boundary_lattice222 0 CCCI13 boundary_mesh1006 0 I17 boundary_p
olyline1008 0 CCCA16 index_map_offset0 0 1 dA9 index_map82 0 A17 node_id_index_m
ap82 0 A20 schema_embedding_map82 0 A5 child12 0 A14 lowest_node_id0 0 1 dA16 me
sh_offset_data206 0 Z1 639 2 3 0 0 0 0 0 0 0 1e3 1e-8 0 4 5 1 0 1 2 6 0 7 8 9 0
 0 10 11 12 0 0 0 0 0 0 0 81 255 1 2 633 13 1 14 0 0 0 15 70 11 CI9 list_type0 0
 1 uI10 notransmit0 0 1 lCCCDCCDI12 finger_index0 0 1 dI12 finger_block1012 0 CZ
3 0 4 T1 0 0 5 20 1 16 16 13 255 6 573 0 1 0 17 0 0 18 0 50 255 7 568 0 19 20 0
 0 +-2.44475 -.1330068969796696 6.75639405903465 832175162687525e-31 -.824331600
923871 -.566107244007959 0 .566107244007959 -.824331600923871 30 255 8 572 0 21
 22 0 0 +-3.048 -.1330068969796702 6.75639405903465 0 .566107244007959 -.8243316
00923871 29 255 9 549 0 23 24 0 3.048 888178419700125e-30 6.56271734939759 19 9
 CCCCCCI5 frame230 0 CA5 owner12 0 Z10 280 0 1 18 0 25 0 V0 16 255 11 554 26 ?27
 0 28 29 0 0 1 18 255 12 274 30 31 0 32 33 ?1 81 1 30 605 34 12 0 0 35 36 37 17
 255 31 0 38 39 40 12 41 28 0 42 -18 32 269 43 44 12 45 46 ?1 29 33 276 0 12 46
 47 3.048 -.1330068969796692 6.75639405903465 29 46 271 0 32 48 33 3.048 -.18535
1953638335 6.72044624904015 29 47 552 0 49 33 50 -3.048 -963435455840857e-31 6.5
6271734939759 18 49 540 51 52 53 0 47 ?1 29 50 551 0 53 47 24 -3.048 -.052345056
6586651 6.52676953940309 18 53 536 54 55 56 49 50 ?1 29 24 550 0 56 50 9 3.048 -
.0523450566586651 6.52676953940309 18 56 532 36 27 23 53 24 ?1 81 1 36 606 34 56
 0 0 30 43 57 17 27 0 38 40 39 56 44 11 0 58 +18 23 528 35 41 59 56 9 ?1 81 1 35
 604 34 23 0 0 0 30 60 17 41 0 61 52 42 23 31 28 0 62 +18 59 184 63 64 45 23 65
 ?1 81 1 63 609 34 59 0 0 51 54 66 17 64 0 67 68 69 59 42 70 0 71 +18 45 189 72
 68 32 59 48 ?1 29 65 186 0 59 0 48 -3.048 -.1330068969796702 6.75639405903465 2
9 48 191 0 45 65 46 -3.048 -.185351953638335 6.72044624904015 81 1 72 611 34 45
 0 0 54 73 74 17 68 0 67 75 64 45 76 77 0 78 +15 255 67 6 0 75 79 0 17 75 0 67 6
9 68 32 80 81 0 39 -17 76 0 82 83 78 59 68 77 0 0 -16 77 49 84 ?68 81 70 85 0 0
 1 17 78 0 82 76 86 45 55 87 0 80 -15 82 561 0 86 88 0 17 86 0 82 78 83 53 89 90
 0 91 +17 55 0 92 58 80 53 78 87 0 86 +16 87 555 93 ?55 21 94 22 0 0 1 17 80 0 9
2 55 44 45 75 81 0 0 +15 92 559 0 58 17 0 17 44 0 92 80 58 32 27 11 0 75 -16 81
 54 95 ?80 94 77 96 0 0 1 81 1 95 619 34 81 0 0 97 98 99 16 94 159 100 ?39 87 81
 101 0 0 1 30 96 56 0 81 85 101 0 +-2.44475 -.185351953638335 6.72044624904015 -
1 -703459864211473e-31 -483098942892216e-31 30 85 51 0 77 102 96 0 +-3.048 -.159
1794253090025 6.7384201540374 0 -.824331600923871 -.566107244007959 30 101 161 0
 94 96 103 0 +3.048 -.159179425309002 6.7384201540374 0 -.824331600923871 -.5661
0724400796 30 103 548 0 104 101 105 0 +-2.44475 500316662145822e-30 6.5627173493
9759 -1 -68598828410729e-30 -47110038788091e-30 16 104 508 106 ?52 90 0 103 0 0
 1 30 105 547 0 90 103 107 0 +-3.048 -.02617252832933245 6.54474344440034 0 -.82
4331600923871 -.566107244007959 16 90 504 108 ?86 109 104 105 0 0 1 30 107 546 0
 109 105 110 0 +-2.44475 -.0523450566586651 6.52676953940309 -1 -703459864211473
e-31 -483098942892216e-31 16 109 484 97 ?91 111 90 107 0 0 1 30 110 545 0 111 10
7 112 0 +3.048 -.026172528329332 6.54474344440034 0 -.824331600923871 -.56610724
400796 16 111 480 98 ?113 70 109 110 0 0 1 30 112 569 0 28 110 29 0 +3.048 -.133
0068969796692 6.75639405903465 0 .566107244007959 -.824331600923871 16 28 553 73
 ?41 11 21 112 0 0 1 30 29 570 0 11 112 22 0 +3.048 -.185351953638335 6.72044624
904015 0 .566107244007959 -.824331600923871 30 22 571 0 87 29 8 0 +-3.048 -.1853
51953638335 6.72044624904015 0 .566107244007959 -.824331600923871 81 1 73 612 34
 28 0 0 72 26 114 16 21 556 115 ?83 28 87 8 0 0 1 81 1 115 614 34 21 0 0 26 93 1
16 17 83 0 82 86 76 49 71 21 0 89 +17 71 0 61 42 52 59 83 21 0 76 -17 89 0 117 6
2 91 49 86 90 0 0 -15 117 479 0 91 118 0 17 62 0 117 113 89 23 52 104 0 40 -17 9
1 0 117 89 113 53 58 109 0 0 +17 113 0 117 91 62 56 40 111 0 0 +17 58 0 92 44 55
 56 91 109 0 113 -17 40 0 38 31 27 23 113 111 0 0 -15 38 557 0 40 119 0 14 255 1
19 558 120 ?19 17 38 6 121 +0 0 19 17 25 81 1 120 635 122 119 123 0 124 125 126
 14 19 564 125 ?88 119 61 6 7 -0 0 88 119 25 14 17 560 124 ?119 0 92 6 127 +0 0
 119 0 25 50 121 565 0 119 128 127 0 +3.048 -.159179425309002 6.7384201540374 1
 0 0 0 0 -1 13 25 281 0 0 0 0 0 0 10 17 50 128 544 0 118 129 121 0 +0 -2.0865828
8387519 5.12976283878451 0 -.566107244007959 .824331600923871 1 0 0 50 127 566 0
 17 121 20 0 +-2.44475 -.185351953638335 6.72044624904015 853370007195004e-31 -.
824331600923871 -.566107244007959 0 .566107244007959 -.824331600923871 50 20 567
 0 88 127 7 0 +-3.048 -.1591794253090025 6.7384201540374 1 0 0 0 0 -1 14 88 562
 130 ?79 19 82 6 20 -0 0 79 19 25 81 1 130 637 122 88 131 0 125 132 133 14 79 1
 132 ?118 88 67 6 129 +0 0 118 88 25 81 1 132 638 122 79 134 0 130 135 136 14 11
8 448 135 ?0 79 117 6 128 -0 0 0 79 25 50 129 3 0 79 0 128 0 +0 -2.2195897808548
6 5.32343954842157 0 -.566107244007959 .824331600923871 1 0 0 81 1 135 639 122 1
18 137 0 132 0 138 80 7 CCCCCDI12 legal_owners0 17 1 lCZ1 122 0 139 8001 0 0 0 0
 3 5 0 0 0 FFFFTFTFFFFFFFFFF2 81 1 137 625 34 118 0 135 140 134 141 83 255 3 138
 .615686274509804 .811764705882353 .929411764705882 80 1 34 142 143 9000 0 0 0 0
 3 6 0 0 0 FFTFTFTTFFFFFFFFF1 81 1 140 624 34 19 0 125 84 137 144 81 1 134 626 3
4 79 0 132 137 145 146 82 255 3 141 99 1 2 81 1 145 627 34 17 0 124 134 123 147
 82 3 146 99 2 2 81 1 124 634 122 17 145 0 0 120 148 81 1 123 628 34 119 0 120 1
45 131 149 82 3 147 99 3 2 81 1 131 629 34 88 0 130 123 150 151 82 3 149 99 4 2
 81 1 150 630 34 1 0 152 131 0 153 82 3 151 99 5 2 81 1 152 631 154 1 150 14 0 0
 155 82 3 153 99 0 3 80 1 154 156 157 8038 0 0 0 0 0 0 0 0 0 TTTTTTTTTTTTTFTFT10
 81 1 14 632 156 1 152 2 0 0 158 98 255 7 155 80 97 114 116 32 53 52 80 1 156 15
9 160 8017 0 0 0 0 0 0 0 0 0 TTTTTTTTTTTTTFTFT3 84 255 7 158 Part 5479 255 13 16
0 SDL/TYSA_NAME79 14 157 SDL/TYSA_UNAME83 3 148 .615686274509804 .81176470588235
3 .929411764705882 81 1 125 636 122 19 140 0 120 130 161 81 1 84 623 34 77 0 0 1
08 140 162 82 3 144 99 0 2 81 1 108 622 34 90 0 0 100 84 163 82 3 162 99 11 1 81
 1 100 621 34 94 0 0 98 108 164 82 3 163 99 10 1 81 1 98 620 34 111 0 0 95 100 1
65 82 3 164 99 9 1 82 3 165 99 8 1 83 3 161 .615686274509804 .811764705882353 .9
29411764705882 79 9 143 BTI/DetId79 15 139 SDL/TYSA_COLOUR83 3 136 .615686274509
804 .811764705882353 .929411764705882 83 3 133 .615686274509804 .811764705882353
 .929411764705882 15 61 563 0 52 19 0 17 52 0 61 71 41 49 62 104 0 83 +83 3 126
 .615686274509804 .811764705882353 .929411764705882 17 42 0 61 41 71 12 64 70 0
 69 -16 70 44 166 ?64 77 111 102 0 0 1 17 69 0 67 64 75 12 39 94 0 0 -17 39 0 38
 27 31 32 69 94 0 0 +81 1 166 617 34 70 0 0 106 97 167 30 102 46 0 70 0 85 0 +-2
.44475 -.1330068969796696 6.75639405903465 -1 -68598828410729e-30 -4711003878809
1e-30 81 1 106 616 34 104 0 0 93 166 168 81 1 97 618 34 109 0 0 166 95 169 82 3
 167 99 5 1 82 3 169 99 6 1 81 1 93 615 34 87 0 0 115 106 170 82 3 168 99 4 1 82
 3 170 99 3 1 81 1 26 613 34 11 0 0 73 115 171 82 3 116 99 2 1 82 3 171 99 1 1 8
2 3 114 99 0 1 82 3 99 99 7 1 81 1 54 610 34 53 0 0 63 72 172 82 3 74 99 7 0 82
 3 172 99 6 0 81 1 51 608 34 49 0 0 43 63 173 82 3 66 99 5 0 81 1 43 607 34 32 0
 0 36 51 174 82 3 173 99 4 0 82 3 174 99 3 0 82 3 60 99 0 0 82 3 57 99 2 0 82 3
 37 99 1 0 19 18 574 0 1 0 10 6 0 S0 74 4 CI16 index_map_offset0 0 1 dCCZ20 16 5
 0 0 150 152 14 2 135 0 0 0 0 0 0 0 0 0 0 0 0 0 0 0 80 1 13 122 175 8040 0 0 0 0
 3 5 0 0 0 TTTFFFFFFFFFFFFFF2 83 3 15 .615686274509804 .811764705882353 .9294117
64705882 79 17 175 SDL/TYSA_COLOUR_21 0 
