**ABCDEFGHIJKLMNOPQRSTUVWXYZabcdefghijklmnopqrstuvwxyz**************************
**PARASOLID !"#$%&'()*+,-./:;<=>?@[\]^_`{|}~0123456789**************************
**PART1;
MC=unknown;
MC_MODEL=unknown;
MC_ID=unknown;
OS=unknown;
OS_RELEASE=unknown;
FRU=Parasolid 36.0.180;
APPL=Onshape;
SITE=unknown;
USER=unknown;
FORMAT=text;
GUISE=transmit;
KEY=BTGapi::writeModels_.xmt;
FILE=BTGapi::writeModels_.xmt;
DATE=2024-05-15T00:06:35 (UTC);
**PART2;
SCH=SCH_3600180_36001;
USFLD_SIZE=0;
**PART3;
**END_OF_HEADER*****************************************************************
T51 : TRANSMIT FILE created by modeller version 360018023 SCH_3600180_36001_1300
6231 0 12 36 CCCI7 lattice222 0 CCCI4 mesh1006 0 I8 polyline1008 0 CCCCCCCDI5 ow
ner1040 0 CCCI16 boundary_lattice222 0 CCCI13 boundary_mesh1006 0 I17 boundary_p
olyline1008 0 CCCA16 index_map_offset0 0 1 dA9 index_map82 0 A17 node_id_index_m
ap82 0 A20 schema_embedding_map82 0 A5 child12 0 A14 lowest_node_id0 0 1 dA16 me
sh_offset_data206 0 Z1 178 2 3 0 0 0 0 0 0 0 1e3 1e-8 0 4 5 1 0 1 2 6 0 7 8 9 0
 0 10 11 12 0 0 0 0 0 0 0 81 255 1 2 172 13 1 14 0 0 0 15 70 11 CI9 list_type0 0
 1 uI10 notransmit0 0 1 lCCCDCCDI12 finger_index0 0 1 dI12 finger_block1012 0 CZ
3 0 4 T1 0 0 5 20 1 16 16 13 255 6 128 0 1 0 17 0 0 18 0 50 255 7 123 0 19 20 0
 0 +-.6731 -3.833766411677255 4.27942299870738 -1 -150129908673195e-30 -10310126
25827964e-31 150129908673195e-30 -1 0 30 255 8 127 0 21 22 0 0 +-.6731 -4.336278
955600445 3.93432402276013 0 .566107244007959 -.824331600923871 29 255 9 104 0 2
3 24 0 .03810000000000135 -4.32774135072675 3.921892071803695 19 9 CCCCCCI5 fram
e230 0 CA5 owner12 0 Z10 1 0 1 18 0 25 0 V0 16 255 11 108 26 ?27 0 28 29 0 0 1 1
8 255 12 20 30 31 0 32 33 ?1 81 1 30 148 34 12 0 0 35 36 37 17 255 31 0 38 27 39
 12 40 41 0 42 -18 32 23 43 40 12 44 45 ?1 29 33 39 0 12 45 46 .0381000000000013
5 -4.336278955600445 3.93432402276013 29 45 38 0 32 47 33 .0381000000000014 -3.3
31253867754065 4.62452197465463 29 46 107 0 48 33 49 -.6731 -4.32774135072675 3.
921892071803695 18 48 95 50 51 52 0 46 ?1 29 49 106 0 52 46 24 -.6731 -3.3227162
62880365 4.6120900236982 18 52 91 53 54 55 48 49 ?1 29 24 105 0 55 49 9 .0381000
000000014 -3.32271626288037 4.6120900236982 18 55 87 36 56 23 52 24 ?1 81 1 36 1
49 34 55 0 0 30 43 57 17 56 0 58 59 60 55 39 28 0 61 +18 23 83 35 62 63 55 9 ?1
 81 1 35 147 34 23 0 0 64 30 65 17 62 0 66 67 68 23 61 69 0 27 -18 63 29 70 71 4
4 23 72 ?1 81 1 70 144 34 63 0 0 50 53 73 17 71 0 74 75 76 63 51 21 0 77 -18 44
 26 64 78 32 63 47 ?1 29 72 36 0 63 0 47 -.6731 -4.336278955600445 3.93432402276
013 29 47 37 0 44 72 45 -.6731 -3.33125386775406 4.62452197465463 81 1 64 146 34
 44 0 0 53 35 79 17 78 0 58 60 59 44 54 80 0 81 -15 255 58 116 0 59 82 0 17 60 0
 58 56 78 32 81 83 0 0 +17 59 0 58 78 56 52 68 84 0 85 -17 54 0 74 76 75 52 78 8
0 0 59 +16 80 110 86 ?54 28 21 22 0 0 1 17 81 0 87 88 40 44 60 83 0 75 -15 87 7
 0 42 89 0 17 88 0 87 42 81 63 75 90 0 0 -17 40 0 87 81 42 32 31 41 0 39 +16 83
 14 91 ?60 41 90 92 0 0 1 17 75 0 74 54 71 44 88 90 0 0 +15 74 118 0 76 19 0 16
 90 17 93 ?75 83 94 95 0 0 1 81 1 93 156 34 90 0 0 96 97 98 16 94 67 99 ?100 90
 69 101 0 0 1 30 95 32 0 90 0 92 0 +-.6731 -3.833766411677255 4.27942299870738 -
1821231995776175e-31 .824331600923871 .566107244007959 30 92 33 0 83 95 102 0 +-
.3175 -3.331253867754065 4.62452197465463 1 0 0 30 102 34 0 41 92 103 0 +.038100
0000000013 -3.833766411677255 4.27942299870738 -187814549564418e-30 .82433160092
3871 .56610724400796 16 41 11 104 ?40 105 83 102 0 0 1 30 103 35 0 105 102 106 0
 +-.3175 -4.336278955600445 3.93432402276013 1 0 0 16 105 8 107 ?42 21 41 103 0
 0 1 30 106 103 0 108 103 109 0 +-.6731 -3.82522880680356 4.26699104775095 -1821
231995776175e-31 .824331600923871 .566107244007959 16 108 79 96 ?85 84 0 106 0 0
 1 30 109 102 0 84 106 110 0 +-.3175 -3.32271626288037 4.6120900236982 1 0 0 16
 84 75 111 ?68 69 108 109 0 0 1 30 110 101 0 69 109 101 0 +.0381000000000013 -3.
82522880680356 4.266991047750945 -187814549564418e-30 .824331600923871 .56610724
400796 16 69 71 97 ?61 94 84 110 0 0 1 30 101 100 0 94 110 29 0 +-.3175 -4.32774
135072675 3.921892071803695 1 0 0 30 29 124 0 11 101 112 0 +.03810000000000135 -
4.336278955600445 3.93432402276013 0 .566107244007959 -.824331600923871 30 112 1
25 0 28 29 22 0 +.0381000000000014 -3.331253867754065 4.62452197465463 0 .566107
244007959 -.824331600923871 16 28 109 113 ?56 11 80 112 0 0 1 30 22 126 0 80 112
 8 0 +-.6731 -3.33125386775406 4.62452197465463 0 .566107244007959 -.82433160092
3871 81 1 113 154 34 28 0 0 26 96 114 80 7 CCCCCDI12 legal_owners0 17 1 lCZ1 34
 115 116 9000 0 0 0 0 3 6 0 0 0 FFTFTFTTFFFFFFFFF1 81 1 26 153 34 11 0 0 86 113
 117 81 1 96 155 34 108 0 0 113 93 118 82 255 3 114 117 5 1 82 3 118 117 30 1 81
 1 86 152 34 80 0 0 119 26 120 82 3 117 117 3 1 81 1 119 151 34 21 0 0 43 86 121
 82 3 120 117 2 1 16 21 111 119 ?51 80 105 8 0 0 1 81 1 43 150 34 32 0 0 36 119
 122 82 3 121 117 0 1 82 3 122 117 11 0 17 51 0 123 100 77 48 71 21 0 67 +15 123
 112 0 100 17 0 17 100 0 123 124 51 23 67 94 0 0 +17 77 0 123 51 124 63 42 105 0
 88 -17 67 0 66 85 62 48 100 94 0 76 -15 66 66 0 67 125 0 17 85 0 66 68 67 52 76
 108 0 0 +17 76 0 74 71 54 48 85 108 0 0 -17 68 0 66 62 85 55 59 84 0 0 +14 255
 125 59 126 ?0 89 66 6 127 -0 0 0 89 25 81 1 126 178 128 125 129 0 130 0 131 14
 89 4 130 ?125 19 87 6 132 +0 0 125 19 25 50 127 99 0 125 132 133 0 +-.3175 -2.1
7465501836173 5.40051762535558 0 -.56610724400796 .824331600923871 1 0 0 13 25 3
 0 0 0 0 0 0 10 17 14 17 113 134 ?135 0 123 6 133 -0 0 135 0 25 81 1 134 173 128
 17 136 0 0 137 138 14 135 115 137 ?82 17 38 6 139 -0 0 82 17 25 50 133 120 0 17
 127 139 0 +-.3175 -4.336278955600445 3.93432402276013 0 .824331600923871 .56610
7244007959 0 -.56610724400796 .824331600923872 50 139 121 0 135 133 20 0 +.03810
00000000013 -3.833766411677255 4.27942299870738 -1 -1548214683192325e-31 -106323
177038509e-30 1548214683192325e-31 -1 0 50 20 122 0 82 139 7 0 +-.3175 -3.331253
867754065 4.62452197465463 0 .824331600923871 .566107244007959 0 -.5661072440079
6 .824331600923872 14 82 117 140 ?19 135 58 6 20 +0 0 19 135 25 81 1 140 175 128
 82 141 0 137 142 143 14 19 119 142 ?89 82 74 6 7 +0 0 89 82 25 81 1 142 176 128
 19 144 0 140 130 145 80 1 128 0 146 8001 0 0 0 0 3 5 0 0 0 FFFFTFTFFFFFFFFFF2 8
1 1 144 163 34 19 0 142 107 129 147 81 1 130 177 128 89 148 0 142 126 149 83 255
 3 145 .980392156862745 .713725490196078 .00392156862745098 81 1 148 165 34 89 0
 130 129 150 151 83 3 149 .980392156862745 .713725490196078 .00392156862745098 8
1 1 129 164 34 125 0 126 144 148 152 81 1 150 166 34 135 0 137 148 141 153 82 3
 151 117 5 2 81 1 137 174 128 135 150 0 134 140 154 81 1 141 167 34 82 0 140 150
 136 155 82 3 153 117 9 2 81 1 136 168 34 17 0 134 141 156 157 82 3 155 117 10 2
 81 1 156 169 34 1 0 158 136 0 159 82 3 157 117 11 2 81 1 158 170 160 1 156 14 0
 0 161 82 3 159 117 1 3 80 1 160 162 163 8038 0 0 0 0 0 0 0 0 0 TTTTTTTTTTTTTFTF
T10 81 1 14 171 162 1 158 2 0 0 164 98 255 8 161 80 97 114 116 32 49 53 55 80 1
 162 165 166 8017 0 0 0 0 0 0 0 0 0 TTTTTTTTTTTTTFTFT3 84 255 8 164 Part 15779 2
55 13 166 SDL/TYSA_NAME79 14 163 SDL/TYSA_UNAME83 3 154 .980392156862745 .713725
490196078 .00392156862745098 82 3 152 117 4 2 81 1 107 162 34 105 0 0 99 144 167
 82 3 147 117 3 2 81 1 99 161 34 94 0 0 91 107 168 82 3 167 117 39 1 81 1 91 160
 34 83 0 0 111 99 169 82 3 168 117 38 1 81 1 111 159 34 84 0 0 104 91 170 82 3 1
69 117 37 1 81 1 104 158 34 41 0 0 97 111 171 82 3 170 117 36 1 81 1 97 157 34 6
9 0 0 93 104 172 82 3 171 117 35 1 82 3 172 117 34 1 79 15 146 SDL/TYSA_COLOUR83
 3 143 .980392156862745 .713725490196078 .00392156862745098 15 38 114 0 61 135 0
 17 61 0 38 39 27 55 62 69 0 68 +17 39 0 38 31 61 32 56 28 0 60 -17 27 0 38 61 3
1 23 124 11 0 100 +17 124 0 123 77 100 12 27 11 0 0 -83 3 138 .980392156862745 .
713725490196078 .00392156862745098 50 132 40 0 89 0 127 0 +-.3175 -2.18319262323
5425 5.41294957631201 0 -.56610724400796 .824331600923871 1 0 0 83 3 131 .980392
156862745 .713725490196078 .00392156862745098 17 42 0 87 40 88 12 77 105 0 124 +
79 9 116 BTI/DetId82 3 98 117 31 1 81 1 53 145 34 52 0 0 70 64 173 82 3 79 117 5
 0 82 3 173 117 4 0 81 1 50 143 34 48 0 0 0 70 174 82 3 73 117 1 0 82 3 174 117
 0 0 82 3 65 117 6 0 82 3 57 117 10 0 82 3 37 117 7 0 19 18 129 0 1 0 10 6 0 S0
 74 4 CI16 index_map_offset0 0 1 dCCZ20 16 5 0 0 156 158 14 2 126 0 0 0 0 0 0 0
 0 0 0 0 0 0 0 0 80 1 13 128 175 8040 0 0 0 0 3 5 0 0 0 TTTFFFFFFFFFFFFFF2 83 3
 15 .980392156862745 .713725490196078 .00392156862745098 79 17 175 SDL/TYSA_COLO
UR_21 0 
