**ABCDEFGHIJKLMNOPQRSTUVWXYZabcdefghijklmnopqrstuvwxyz**************************
**PARASOLID !"#$%&'()*+,-./:;<=>?@[\]^_`{|}~0123456789**************************
**PART1;
MC=unknown;
MC_MODEL=unknown;
MC_ID=unknown;
OS=unknown;
OS_RELEASE=unknown;
FRU=Parasolid 36.0.180;
APPL=Onshape;
SITE=unknown;
USER=unknown;
FORMAT=text;
GUISE=transmit;
KEY=BTGapi::writeModels_.xmt;
FILE=BTGapi::writeModels_.xmt;
DATE=2024-05-15T00:06:35 (UTC);
**PART2;
SCH=SCH_3600180_36001;
USFLD_SIZE=0;
**PART3;
**END_OF_HEADER*****************************************************************
T51 : TRANSMIT FILE created by modeller version 360018023 SCH_3600180_36001_1300
6231 0 12 36 CCCI7 lattice222 0 CCCI4 mesh1006 0 I8 polyline1008 0 CCCCCCCDI5 ow
ner1040 0 CCCI16 boundary_lattice222 0 CCCI13 boundary_mesh1006 0 I17 boundary_p
olyline1008 0 CCCA16 index_map_offset0 0 1 dA9 index_map82 0 A17 node_id_index_m
ap82 0 A20 schema_embedding_map82 0 A5 child12 0 A14 lowest_node_id0 0 1 dA16 me
sh_offset_data206 0 Z1 668 2 3 0 0 0 0 0 0 0 1e3 1e-8 0 4 5 1 0 1 2 6 0 7 8 9 0
 0 10 11 12 0 0 0 0 0 0 0 81 255 1 2 653 13 1 14 0 0 0 15 70 11 CI9 list_type0 0
 1 uI10 notransmit0 0 1 lCCCDCCDI12 finger_index0 0 1 dI12 finger_block1012 0 CZ
3 0 4 T1 0 0 5 20 1 16 16 13 255 6 181 0 1 0 17 0 0 18 0 50 255 7 176 0 17 19 0
 0 +-1.7526 .09525 5.8039 0 0 -1 -1 0 0 30 255 8 287 0 11 20 0 0 +-1.7526 .09525
 4.2799 -1 0 0 29 255 9 310 0 12 21 0 -1.7526 .09525 5.8039 19 9 CCCCCCI5 frame2
30 0 CA5 owner12 0 Z10 77 0 1 18 0 22 0 V0 16 255 11 285 23 ?24 0 25 8 0 0 1 18
 255 12 306 26 27 0 28 9 ?1 81 1 26 624 29 12 0 0 30 31 32 17 255 27 0 33 34 35
 12 36 37 0 38 -18 28 301 39 40 12 41 21 ?1 81 1 39 626 29 28 0 0 31 42 43 17 40
 0 44 45 46 28 47 48 0 49 -18 41 296 30 34 28 50 51 ?1 29 21 305 0 28 51 9 -1.75
26 -.09525 5.8039 29 51 300 0 41 52 21 -1.6637 .09525 5.8039 29 52 263 0 50 53 5
1 -1.6637 -.09525 4.2799 18 50 259 54 55 41 56 52 ?1 29 53 157 0 57 58 52 -1.663
7 -.18415 5.8039 18 57 136 59 60 61 62 53 ?1 29 58 158 0 62 63 53 -1.6637 -.1841
5 4.2799 18 62 140 64 65 57 66 58 ?1 29 63 159 0 66 67 58 -1.6637 .18415 4.2799
 18 66 144 68 69 62 70 63 ?1 29 67 160 0 70 71 63 -1.6637 .18415 5.8039 18 70 14
8 72 73 66 74 67 ?1 29 71 73 0 56 75 67 -1.7526 -.18415 5.8039 18 56 71 76 77 50
 78 71 ?1 29 75 68 0 78 79 71 -1.7526 -.18415 4.2799 18 78 66 80 81 56 82 75 ?1
 29 79 53 0 82 83 75 -1.7526 .18415 4.2799 18 82 51 84 85 78 61 79 ?1 29 83 48 0
 61 86 79 -1.7526 .18415 5.8039 18 61 46 87 36 82 57 83 ?1 29 86 582 0 74 88 83
 -1.6637 .09525 4.2799 18 74 475 89 90 70 91 86 ?1 29 88 584 0 91 92 86 -1.7526
 .09525 4.2799 18 91 480 93 94 74 95 88 ?1 29 92 586 0 95 96 88 -1.6637 -.09525
 5.8039 18 95 474 31 46 91 97 92 ?1 29 96 589 0 97 98 92 -1.7526 -.09525 4.2799
 18 97 472 99 100 95 101 96 ?1 29 98 590 0 101 102 96 -1.6637 .09525 6.150660217
76383 18 101 476 103 104 97 105 98 ?1 29 102 591 0 105 106 98 -1.6637 -.09525 6.
15066021776383 18 105 478 107 108 101 109 102 ?1 29 106 592 0 109 110 102 -1.663
7 -2794325426156415e-32 6.21607286836624 18 109 485 111 112 105 113 106 ?1 29 11
0 593 0 113 114 106 -1.6637 .09525 3.99415 18 113 487 115 116 109 117 110 ?1 29
 114 594 0 117 118 110 -1.6637 -.09525 3.99415 18 117 491 119 120 113 121 114 ?1
 29 118 595 0 121 122 114 -1.7526 .09525 6.15066021776383 18 121 483 123 124 117
 125 118 ?1 29 122 596 0 125 126 118 -1.7526 .09525 3.99415 18 125 481 127 128 1
21 129 122 ?1 29 126 597 0 129 130 122 -1.7526 -.09525 3.99415 18 129 489 131 13
2 125 133 126 ?1 29 130 598 0 133 134 126 -1.7526 -.09525 6.15066021776383 18 13
3 469 135 136 129 137 130 ?1 29 134 599 0 137 0 130 -1.7526 -2794325426156415e-3
2 6.21607286836624 18 137 493 138 139 133 0 134 ?1 81 1 138 494 29 137 0 0 119 1
40 141 17 139 0 142 143 144 137 112 145 0 146 -15 255 142 551 0 143 147 0 17 143
 0 142 148 139 133 149 150 0 0 -17 144 0 142 139 148 109 151 152 0 153 +17 112 0
 154 155 146 109 139 145 0 144 +16 145 444 156 ?112 157 158 159 0 0 1 17 146 0 1
54 112 124 137 160 161 0 149 +15 154 535 0 124 162 0 17 124 0 154 146 155 121 10
4 163 0 160 -17 160 0 164 165 149 121 146 161 0 166 -16 161 441 167 ?146 163 168
 169 0 0 1 17 149 0 164 160 136 137 143 150 0 0 +15 164 332 0 49 170 0 17 136 0
 164 149 49 133 171 172 0 173 +16 150 370 174 ?149 172 0 175 0 0 1 81 1 174 372
 29 150 0 0 176 177 178 16 172 367 179 ?136 180 150 181 180 180 1 30 175 572 0 1
50 181 182 0 +-1.7526 -.047625 6.18336654306503 0 .824331600923871 .566107244007
96 30 181 573 0 180 183 175 0 +-1.7526 -.09525 4.90413010888191 0 0 1 30 182 571
 0 163 175 184 0 +-1.752602 .09525 6.15066021776383 1 0 0 16 163 404 185 ?104 18
6 161 182 0 0 1 30 184 570 0 186 182 187 0 +-1.752602 .09525 3.99415 1 0 0 16 18
6 450 188 ?189 190 163 184 0 0 1 30 187 569 0 190 184 191 0 +-1.752602 -.09525 3
.99415 1 0 0 16 190 456 192 ?120 158 186 187 0 0 1 30 191 568 0 158 187 159 0 +-
1.752602 -.09525 6.15066021776383 1 0 0 16 158 462 193 ?148 145 190 191 0 0 1 30
 159 567 0 145 191 194 0 +-1.752602 -2794325426156415e-32 6.21607286836624 1 0 0
 30 194 566 0 48 159 195 0 +-1.7526 -.09525 5.8039 1 0 0 16 48 415 196 ?47 197 1
98 194 0 0 1 30 195 565 0 197 194 199 0 +-1.7526 .09525 5.8039 -1 0 0 16 197 401
 200 ?38 201 48 195 0 0 1 30 199 13 0 202 195 203 0 +-1.7526 .09525 5.8039 0 1 0
 16 202 11 204 ?49 205 37 199 37 37 1 30 203 18 0 205 199 206 0 +-1.7526 .18415
 6.62813 0 0 -1 16 205 16 207 ?208 209 202 203 0 0 1 30 206 23 0 210 203 211 0 +
-1.7526 .09525 4.2799 0 1 0 16 210 21 212 ?213 214 209 206 209 209 1 30 211 38 0
 214 206 215 0 +-1.7526 -.18415 5.0419 0 1821231995776175e-31 1 16 214 36 216 ?7
7 217 210 211 0 0 1 30 215 156 0 218 211 219 0 +-1.6637 .09525 5.8039 0 1 0 16 2
18 130 220 ?46 221 201 215 201 201 1 30 219 155 0 221 215 222 0 +-1.6637 .18415
 6.62813 0 0 -1 16 221 126 223 ?224 225 218 219 0 0 1 30 222 154 0 226 219 227 0
 +-1.6637 .09525 4.2799 0 1 0 16 226 120 228 ?229 230 225 222 225 225 1 30 227 1
53 0 230 222 231 0 +-1.6637 -.18415 5.0419 0 1821231995776175e-31 1 16 230 116 2
32 ?60 37 226 227 0 0 1 30 231 177 0 217 227 233 0 +-1.7526 -.18415 5.8039 1 0 0
 16 217 161 234 ?235 236 214 231 0 0 1 30 233 178 0 236 231 237 0 +-1.7526 -.184
15 4.2799 1 0 0 16 236 162 238 ?65 239 217 233 0 0 1 30 237 179 0 239 233 240 0
 +-1.7526 .18415 4.2799 1 0 0 16 239 163 241 ?242 243 236 237 0 0 1 30 240 180 0
 243 237 20 0 +-1.7526 .18415 5.8039 1 0 0 16 243 164 244 ?245 25 239 240 0 0 1
 30 20 281 0 25 240 8 0 +-1.7526 -.09525 4.2799 1 0 0 16 25 279 246 ?247 11 243
 20 0 0 1 81 1 246 614 29 25 0 0 23 200 248 17 247 0 249 250 213 50 100 25 0 229
 +15 249 167 0 213 251 0 17 250 0 249 81 247 62 229 226 0 0 -17 213 0 249 247 81
 97 252 210 0 0 +17 100 0 253 254 55 97 247 25 0 255 -17 229 0 256 257 258 50 25
0 226 0 0 +15 256 115 0 259 260 0 17 257 0 256 261 229 117 55 262 0 0 -17 258 0
 256 229 263 62 60 230 0 250 -17 263 0 256 258 264 57 46 218 0 0 -17 60 0 265 26
6 65 57 258 230 0 235 +15 265 165 0 60 267 0 17 266 0 265 268 60 56 235 217 0 45
 -17 65 0 265 60 268 62 81 236 0 258 +17 235 0 44 46 45 57 266 217 0 263 +15 44
 312 0 40 269 0 17 46 0 44 40 235 95 263 218 0 47 +17 45 0 44 235 40 56 49 202 0
 0 -17 49 0 164 136 77 28 45 202 0 171 +17 77 0 164 49 252 56 268 214 0 266 +17
 171 0 270 47 173 28 136 172 0 0 -15 270 523 0 171 271 0 17 47 0 270 108 171 95
 40 48 0 264 +17 173 0 270 171 108 133 148 158 0 143 -17 108 0 270 173 47 105 26
4 272 0 148 +17 148 0 142 144 143 105 173 158 0 151 +17 151 0 256 264 153 105 14
4 152 0 0 -17 264 0 256 263 151 95 108 272 0 0 -17 153 0 256 151 273 109 155 198
 0 0 +16 152 465 274 ?144 272 157 275 0 0 1 81 1 274 467 29 152 0 0 193 135 276
 16 272 418 277 ?108 262 152 278 262 262 1 16 157 453 279 ?280 152 145 281 0 0 1
 30 275 580 0 152 281 278 0 +-1.6637 -.047625 6.18336654306503 0 .82433160092387
1 .56610724400796 30 281 581 0 157 0 275 0 +-1.6637 -1387778780781446e-32 3.9941
5 0 -1 0 30 278 579 0 262 275 282 0 +-1.6637 -.09525 4.90413010888191 0 0 1 16 2
62 459 283 ?55 284 272 278 272 272 1 30 282 578 0 285 278 286 0 +-1.6637 .09525
 4.96954275948432 0 0 -1 16 285 398 287 ?288 198 284 282 284 284 1 30 286 577 0
 198 282 169 0 +-1.6637 .0476249999999994 6.18336654306503 0 -.824331600923873 .
566107244007957 16 198 392 177 ?153 48 285 286 0 0 1 30 169 576 0 161 286 289 0
 +-1.7526 .0476249999999994 6.18336654306503 0 -.824331600923873 .56610724400795
7 30 289 575 0 168 169 183 0 +-1.7526 .09525 4.96954275948432 0 0 -1 16 168 373
 290 ?165 161 291 289 291 291 1 30 183 574 0 292 289 181 0 +-1.7526 -13877787807
81446e-32 3.99415 0 -1 0 16 292 438 293 ?294 291 180 183 0 0 1 81 1 293 440 29 2
92 0 0 185 167 295 17 294 0 164 255 128 129 296 292 0 254 +16 291 435 297 ?128 1
68 292 289 168 168 1 16 180 429 298 ?255 292 172 181 172 172 1 81 1 298 642 29 1
80 0 0 179 299 300 17 255 0 164 252 294 97 254 180 0 213 +17 252 0 164 77 255 78
 213 210 0 0 -17 254 0 253 120 100 129 255 180 0 0 -15 253 547 0 100 301 0 17 12
0 0 253 55 254 117 132 190 0 280 +17 55 0 253 100 120 50 257 262 0 247 +17 132 0
 302 296 280 129 120 190 0 294 -17 280 0 302 132 189 117 261 157 0 257 +15 302 5
43 0 296 303 0 17 189 0 302 280 296 113 304 186 0 261 +17 261 0 256 305 257 113
 280 157 0 0 -17 305 0 256 69 261 74 116 284 0 306 -17 69 0 256 307 305 66 306 2
25 0 242 +17 116 0 308 304 90 113 305 284 0 189 +16 284 447 309 ?116 285 262 282
 285 285 1 17 306 0 310 24 242 74 69 225 0 0 -15 310 280 0 306 311 0 17 24 0 310
 85 306 91 90 11 0 312 +17 242 0 310 306 85 66 313 239 0 224 +16 225 265 42 ?69
 226 221 222 226 226 1 81 1 42 627 29 225 0 0 39 228 314 80 7 CCCCCDI12 legal_ow
ners0 17 1 lCZ1 29 315 316 9000 0 0 0 0 3 6 0 0 0 FFTFTFTTFFFFFFFFF1 81 1 228 62
8 29 226 0 0 42 317 318 82 255 3 314 134 4 1 81 1 317 629 29 209 0 0 228 212 319
 82 3 318 134 5 1 16 209 275 317 ?85 210 205 206 210 210 1 81 1 212 630 29 210 0
 0 317 320 321 82 3 319 134 6 1 81 1 320 631 29 201 0 0 212 220 322 82 3 321 134
 7 1 16 201 297 320 ?73 218 197 215 218 218 1 81 1 220 632 29 218 0 0 320 323 32
4 82 3 322 134 8 1 81 1 323 633 29 37 0 0 220 204 325 82 3 324 134 9 1 16 37 307
 323 ?36 202 230 199 202 202 1 81 1 204 634 29 202 0 0 323 287 326 82 3 325 134
 10 1 81 1 287 635 29 285 0 0 204 309 327 82 3 326 134 11 1 81 1 309 636 29 284
 0 0 287 290 328 82 3 327 134 12 1 81 1 290 637 29 168 0 0 309 297 329 82 3 328
 134 13 1 81 1 297 638 29 291 0 0 290 277 330 82 3 329 134 14 1 81 1 277 639 29
 272 0 0 297 283 331 82 3 330 134 15 1 81 1 283 640 29 262 0 0 277 179 332 82 3
 331 134 16 1 81 1 179 641 29 172 0 0 283 298 333 82 3 332 134 17 1 82 3 333 134
 18 1 17 36 0 164 208 165 61 27 37 0 334 +17 208 0 164 312 36 82 334 205 0 313 +
17 165 0 164 36 160 12 166 168 0 0 +17 334 0 335 245 313 61 208 205 0 35 -15 335
 169 0 224 336 0 17 245 0 335 224 334 70 35 243 0 0 +17 313 0 335 334 224 82 242
 239 0 0 -17 35 0 33 27 73 61 245 243 0 0 -15 33 317 0 34 17 0 17 73 0 33 35 34
 70 259 201 0 307 +17 34 0 33 73 27 41 38 197 0 259 -17 259 0 256 273 307 41 73
 201 0 288 -17 307 0 256 259 69 70 224 221 0 245 -17 224 0 335 313 245 66 307 22
1 0 0 +17 273 0 256 153 259 101 288 285 0 155 -17 288 0 337 38 104 41 273 285 0
 0 +15 337 515 0 288 338 0 17 38 0 337 166 288 12 34 197 0 165 +17 104 0 337 288
 166 101 124 163 0 273 +17 166 0 337 104 38 121 165 168 0 0 -14 255 338 512 339
 ?271 301 337 6 340 -341 341 271 301 22 81 1 339 665 342 338 343 0 344 345 346 1
4 271 520 345 ?162 338 270 6 347 -301 301 162 338 22 14 301 544 344 ?338 341 253
 6 347 -271 271 338 341 22 50 340 562 0 341 0 348 0 +-1.752602 .09525 4.96954275
948432 0 -1 0 0 0 -1 14 341 536 349 ?301 303 308 6 340 -338 338 301 303 22 13 22
 78 0 0 0 0 0 0 10 17 14 17 318 350 ?269 0 33 6 7 -269 269 269 0 22 81 1 350 654
 342 17 351 0 0 352 353 14 269 172 352 ?311 17 44 6 7 -17 17 311 17 22 81 1 352
 655 342 269 354 0 350 355 356 14 311 288 355 ?251 269 310 6 357 +251 251 251 26
9 22 81 1 355 656 342 311 299 0 352 358 359 14 251 168 358 ?336 311 249 6 357 +3
11 311 336 311 22 50 357 174 0 311 360 19 0 +-1.7526 .09525 4.2799 0 0 -1 -1 0 0
 50 360 173 0 267 361 357 0 +-1.7526 -.18415 5.0419 0 1 -1821231995776175e-31 0
 1821231995776175e-31 1 50 19 175 0 336 357 7 0 +-1.7526 .18415 6.62813 0 -1 0 0
 0 -1 14 336 170 362 ?267 251 335 6 19 -0 0 267 251 22 81 1 362 658 342 336 363
 0 358 364 365 14 267 166 364 ?170 336 265 6 360 -0 0 170 336 22 81 1 364 659 34
2 267 176 0 362 366 367 14 170 1 366 ?260 267 164 6 368 +0 0 260 267 22 81 1 366
 660 342 170 369 0 364 370 371 14 260 105 370 ?303 170 256 6 361 -0 0 303 170 22
 50 368 3 0 170 372 361 0 +-1.7526 277555756156289e-31 5.0419 -1 0 0 0 -1 0 50 3
72 558 0 147 347 368 0 +-1.752602 -.047625 6.18336654306503 0 .56610724400796 -.
824331600923871 0 .824331600923871 .56610724400796 50 361 152 0 260 368 360 0 +-
1.6637 277555756156289e-31 5.0419 -1 0 0 0 -1 0 14 147 548 373 ?0 162 142 6 372
 -0 0 0 162 22 50 347 559 0 301 374 372 0 +-1.752602 -.09525 4.90413010888191 0
 1 0 0 0 1 50 374 560 0 162 348 347 0 +-1.752602 .0476249999999994 6.18336654306
503 0 .566107244007957 .824331600923873 0 -.824331600923873 .566107244007957 14
 162 532 375 ?147 271 154 6 374 +0 0 147 271 22 50 348 561 0 303 340 374 0 +-1.7
52602 -1387778780781446e-32 3.99415 0 0 1 1 0 0 14 303 540 376 ?341 260 302 6 34
8 -0 0 341 260 22 81 1 376 662 342 303 377 0 370 349 378 80 1 342 0 379 8001 0 0
 0 0 3 5 0 0 0 FFFFTFTFFFFFFFFFF2 81 1 377 542 29 303 0 376 140 380 381 81 1 370
 661 342 260 382 0 366 376 383 81 1 349 663 342 341 384 0 376 344 385 83 255 3 3
78 .764705882352941 .545098039215686 .803921568627451 81 1 384 648 29 341 0 349
 343 386 387 81 1 344 664 342 301 388 0 349 339 389 83 3 385 .764705882352941 .5
45098039215686 .803921568627451 81 1 388 650 29 301 0 344 386 0 390 83 3 389 .76
4705882352941 .545098039215686 .803921568627451 81 1 386 649 29 271 0 345 384 38
8 391 82 3 390 134 9 2 81 1 345 666 342 271 386 0 339 375 392 82 3 391 134 8 2 8
1 1 375 667 342 162 140 0 345 373 393 83 3 392 .764705882352941 .545098039215686
 .803921568627451 81 1 140 534 29 162 0 375 138 377 394 81 1 373 668 342 147 380
 0 375 0 395 83 3 393 .764705882352941 .545098039215686 .803921568627451 81 1 38
0 550 29 147 0 373 377 396 397 83 3 395 .764705882352941 .545098039215686 .80392
1568627451 81 1 396 612 29 1 0 398 380 23 399 82 3 397 133 0 2 81 1 398 651 400
 1 396 14 0 0 401 81 1 23 613 29 11 0 0 396 246 402 82 3 399 41 0 3 82 3 402 134
 0 1 80 1 400 403 404 8038 0 0 0 0 0 0 0 0 0 TTTTTTTTTTTTTFTFT10 81 1 14 652 403
 1 398 2 0 0 405 98 255 41 401 80 97 114 116 32 51 49 32 51 46 53 120 49 52 46 5
3 120 56 55 46 52 55 55 32 45 119 47 67 117 116 111 117 116 115 32 97 110 103 10
8 101 100 80 1 403 406 407 8017 0 0 0 0 0 0 0 0 0 TTTTTTTTTTTTTFTFT3 84 255 41 4
05 Part 31 3.5x14.5x87.477 -w/Cutouts angled79 255 13 407 SDL/TYSA_NAME79 14 404
 SDL/TYSA_UNAME82 3 394 133 5 2 81 1 343 647 29 338 0 339 354 384 408 82 3 387 1
34 7 2 81 1 354 646 29 269 0 352 351 343 409 82 3 408 134 6 2 81 1 351 645 29 17
 0 350 410 354 411 82 3 409 134 5 2 81 1 410 644 29 251 0 358 299 351 412 82 3 4
11 134 4 2 81 1 358 657 342 251 410 0 355 362 413 81 1 299 643 29 311 0 355 298
 410 414 82 3 412 134 3 2 82 3 414 134 2 2 83 3 413 .764705882352941 .5450980392
15686 .803921568627451 81 1 382 617 29 260 0 370 196 369 415 83 3 383 .764705882
352941 .545098039215686 .803921568627451 81 1 196 616 29 48 0 0 200 382 416 81 1
 369 618 29 170 0 366 382 89 417 82 3 415 134 0 2 81 1 89 619 29 74 0 0 369 93 4
18 82 3 417 134 1 2 81 1 93 620 29 91 0 0 89 54 419 82 3 418 134 0 0 81 1 54 621
 29 50 0 0 93 99 420 82 3 419 134 1 0 81 1 99 622 29 97 0 0 54 30 421 82 3 420 1
34 2 0 81 1 30 623 29 41 0 0 99 26 422 82 3 421 134 3 0 82 3 422 134 4 0 81 1 20
0 615 29 197 0 0 246 196 423 82 3 416 134 3 1 82 3 423 134 2 1 82 3 381 133 6 2
 79 15 379 SDL/TYSA_COLOUR83 3 371 .764705882352941 .545098039215686 .8039215686
27451 81 1 176 223 29 267 0 364 363 174 424 83 3 367 .764705882352941 .545098039
215686 .803921568627451 81 1 363 222 29 336 0 362 216 176 425 82 3 424 41 5 2 81
 1 216 217 29 214 0 0 232 363 426 82 3 425 41 4 2 81 1 232 216 29 230 0 0 207 21
6 427 82 3 426 41 11 1 81 1 207 215 29 205 0 0 223 232 428 82 3 427 41 10 1 81 1
 223 214 29 221 0 0 234 207 429 82 3 428 41 9 1 81 1 234 209 29 217 0 0 238 223
 430 82 3 429 41 8 1 81 1 238 208 29 236 0 0 244 234 431 82 3 430 41 3 1 81 1 24
4 207 29 243 0 0 241 238 432 82 3 431 41 2 1 81 1 241 206 29 239 0 0 76 244 433
 82 3 432 41 1 1 81 1 76 205 29 56 0 0 59 241 434 82 3 433 41 0 1 81 1 59 204 29
 57 0 0 80 76 435 82 3 434 41 7 0 81 1 80 203 29 78 0 0 64 59 436 82 3 435 41 6
 0 81 1 64 202 29 62 0 0 87 80 437 82 3 436 41 5 0 81 1 87 201 29 61 0 0 72 64 4
38 82 3 437 41 4 0 81 1 72 200 29 70 0 0 84 87 439 82 3 438 41 3 0 81 1 84 199 2
9 82 0 0 68 72 440 82 3 439 41 2 0 81 1 68 198 29 66 0 0 0 84 441 82 3 440 41 1
 0 82 3 441 41 0 0 83 3 365 .764705882352941 .545098039215686 .803921568627451 8
3 3 359 .764705882352941 .545098039215686 .803921568627451 83 3 356 .76470588235
2941 .545098039215686 .803921568627451 83 3 353 .764705882352941 .54509803921568
6 .803921568627451 15 308 539 0 90 341 0 17 90 0 308 116 94 74 24 11 0 305 -17 9
4 0 308 90 304 91 128 291 0 24 -17 304 0 308 94 116 125 189 186 0 296 -17 128 0
 164 294 312 125 94 291 0 304 +17 312 0 164 128 208 91 85 209 0 0 -17 85 0 310 2
42 24 82 312 209 0 208 +17 296 0 302 189 132 125 294 292 0 0 -83 3 346 .76470588
2352941 .545098039215686 .803921568627451 17 155 0 154 124 112 101 153 198 0 0 -
79 9 316 BTI/DetId82 3 300 134 19 1 81 1 185 406 29 163 0 0 177 293 442 81 1 167
 443 29 161 0 0 293 156 443 82 3 295 133 14 1 81 1 156 446 29 145 0 0 167 188 44
4 82 3 443 133 12 1 81 1 188 452 29 186 0 0 156 279 445 82 3 444 133 1 1 81 1 27
9 455 29 157 0 0 188 192 446 82 3 445 133 3 1 81 1 192 458 29 190 0 0 279 193 44
7 82 3 446 133 13 1 81 1 193 464 29 158 0 0 192 274 448 82 3 447 133 4 1 82 3 44
8 133 2 1 81 1 177 394 29 198 0 0 174 185 449 82 3 442 133 0 1 82 3 449 133 11 1
 81 1 135 470 29 133 0 0 274 103 450 82 3 276 133 5 1 81 1 103 477 29 101 0 0 13
5 107 451 82 3 450 133 5 0 81 1 107 479 29 105 0 0 103 127 452 82 3 451 133 0 0
 81 1 127 482 29 125 0 0 107 123 453 82 3 452 133 4 0 81 1 123 484 29 121 0 0 12
7 111 454 82 3 453 133 7 0 81 1 111 486 29 109 0 0 123 115 455 82 3 454 133 1 0
 81 1 115 488 29 113 0 0 111 131 456 82 3 455 133 2 0 81 1 131 490 29 129 0 0 11
5 119 457 82 3 456 133 6 0 81 1 119 492 29 117 0 0 131 138 458 82 3 457 133 9 0
 82 3 458 133 8 0 17 268 0 265 65 266 78 77 214 0 252 -17 81 0 249 213 250 78 65
 236 0 268 -82 3 248 134 1 1 82 3 178 133 6 1 82 3 141 133 3 0 81 1 31 625 29 95
 0 0 26 39 459 82 3 459 134 6 0 82 3 43 134 7 0 82 3 32 134 5 0 19 18 182 0 1 0
 10 6 0 S0 74 4 CI16 index_map_offset0 0 1 dCCZ20 16 5 0 0 388 398 14 2 373 0 0
 0 0 0 0 0 0 0 0 0 0 0 0 0 80 1 13 342 460 8040 0 0 0 0 3 5 0 0 0 TTTFFFFFFFFFFF
FFF2 83 3 15 .764705882352941 .545098039215686 .803921568627451 79 17 460 SDL/TY
SA_COLOUR_21 0 
