**ABCDEFGHIJKLMNOPQRSTUVWXYZabcdefghijklmnopqrstuvwxyz**************************
**PARASOLID !"#$%&'()*+,-./:;<=>?@[\]^_`{|}~0123456789**************************
**PART1;
MC=unknown;
MC_MODEL=unknown;
MC_ID=unknown;
OS=unknown;
OS_RELEASE=unknown;
FRU=Parasolid 36.0.180;
APPL=Onshape;
SITE=unknown;
USER=unknown;
FORMAT=text;
GUISE=transmit;
KEY=BTGapi::writeModels_.xmt;
FILE=BTGapi::writeModels_.xmt;
DATE=2024-05-15T00:06:35 (UTC);
**PART2;
SCH=SCH_3600180_36001;
USFLD_SIZE=0;
**PART3;
**END_OF_HEADER*****************************************************************
T51 : TRANSMIT FILE created by modeller version 360018023 SCH_3600180_36001_1300
6231 0 12 36 CCCI7 lattice222 0 CCCI4 mesh1006 0 I8 polyline1008 0 CCCCCCCDI5 ow
ner1040 0 CCCI16 boundary_lattice222 0 CCCI13 boundary_mesh1006 0 I17 boundary_p
olyline1008 0 CCCA16 index_map_offset0 0 1 dA9 index_map82 0 A17 node_id_index_m
ap82 0 A20 schema_embedding_map82 0 A5 child12 0 A14 lowest_node_id0 0 1 dA16 me
sh_offset_data206 0 Z1 246 2 3 0 0 0 0 0 0 0 1e3 1e-8 0 4 5 1 0 1 2 6 0 7 8 9 0
 0 10 11 12 0 0 0 0 0 0 0 81 255 1 2 240 13 1 14 0 0 0 15 70 11 CI9 list_type0 0
 1 uI10 notransmit0 0 1 lCCCDCCDI12 finger_index0 0 1 dI12 finger_block1012 0 CZ
3 0 4 T1 0 0 5 20 1 16 16 13 255 6 167 0 1 0 17 0 0 18 0 50 255 7 162 0 19 20 0
 0 +-1.5367 2.82874132383087 4.96962095060189 -1 150129908673195e-30 -1031012625
827964e-31 150129908673195e-30 1 0 30 255 8 166 0 21 22 0 0 +-1.5367 2.326228779
90768 5.31471992654914 0 -.566107244007959 -.824331600923871 29 255 9 143 0 23 2
4 0 -3.1115 3.322716262880365 4.6120900236982 19 9 CCCCCCI5 frame230 0 CA5 owner
12 0 Z10 1 0 1 18 0 25 0 V0 16 255 11 147 26 ?27 0 28 29 0 0 1 18 255 12 33 30 3
1 0 32 33 ?1 81 1 30 212 34 12 0 0 35 36 37 17 255 31 0 38 39 40 12 41 42 0 43 -
18 32 42 44 45 12 46 47 ?1 29 33 61 0 12 47 48 -3.1115 3.33125386775406 4.624521
97465463 29 47 58 0 32 49 33 -3.1115 2.326228779907675 5.31471992654913 29 48 14
6 0 50 33 51 -1.5367 2.317691175033985 5.30228797559271 18 50 134 52 53 54 0 48
 ?1 29 51 145 0 54 48 24 -1.5367 3.32271626288037 4.6120900236982 18 54 130 55 5
6 57 50 51 ?1 29 24 144 0 57 51 9 -3.1115 2.31769117503398 5.3022879755927 18 57
 126 36 58 23 54 24 ?1 81 1 36 213 34 57 0 0 30 44 59 17 58 0 60 61 62 57 53 63
 0 64 -18 23 122 35 65 66 57 9 ?1 81 1 35 211 34 23 0 0 0 30 67 17 65 0 68 43 69
 23 70 71 0 27 -18 66 48 72 73 46 23 74 ?1 81 1 72 216 34 66 0 0 52 55 75 17 73
 0 38 40 39 66 45 76 0 77 +18 46 45 78 40 32 66 49 ?1 29 74 56 0 66 0 49 -1.5367
 2.32622877990768 5.31471992654914 29 49 57 0 46 74 47 -1.5367 3.331253867754065
 4.62452197465463 81 1 78 218 34 46 0 0 55 26 79 17 40 0 38 31 73 46 80 81 0 82
 -15 255 38 7 0 39 83 0 17 80 0 84 85 82 66 40 81 0 0 +16 81 27 86 ?80 76 87 88
 0 0 1 17 82 0 84 80 56 46 69 28 0 41 -15 84 157 0 56 19 0 17 56 0 84 82 85 54 6
2 89 0 69 -17 69 0 68 65 41 54 82 28 0 70 +16 28 149 90 ?69 11 21 22 0 0 1 17 41
 0 68 69 43 46 31 42 0 0 +15 68 153 0 65 91 0 17 43 0 68 41 65 12 27 11 0 92 -16
 42 15 93 ?41 94 76 95 0 0 1 81 1 93 224 34 42 0 0 96 97 98 16 94 12 99 ?39 100
 42 101 0 0 1 16 76 21 102 ?73 42 81 103 0 0 1 30 95 55 0 42 103 101 0 +-2.3241
 3.331253867754065 4.62452197465463 1 0 0 30 103 54 0 76 88 95 0 +-2.3241 2.3262
2877990768 5.31471992654914 1 0 0 30 101 63 0 94 95 104 0 +-3.1115 4.31010642727
111 3.95229792775738 0 -.824331600923871 .566107244007959 30 104 142 0 89 101 10
5 0 +-1.5367 2.820203718957175 4.95718899964545 -1821231995776175e-31 -.82433160
0923871 .56610724400796 16 89 118 106 ?62 63 0 104 0 0 1 30 105 141 0 63 104 107
 0 +-2.3241 2.317691175033985 5.3022879755927 1 0 0 16 63 112 97 ?53 71 89 105 0
 0 1 30 107 140 0 71 105 108 0 +-2.3241 3.32271626288037 4.6120900236982 1 0 0 1
6 71 106 96 ?70 87 63 107 0 0 1 30 108 139 0 87 107 29 0 +-3.1115 4.301568822397
415 3.939865976800945 0 -.824331600923871 .566107244007959 16 87 102 109 ?110 81
 71 108 0 0 1 30 29 163 0 11 108 111 0 +-3.1115 3.33125386775406 4.6245219746546
3 0 -.566107244007959 -.824331600923871 30 111 164 0 100 29 22 0 +-3.1115 2.3262
28779907675 5.31471992654913 0 -.566107244007959 -.824331600923871 16 100 148 11
2 ?64 21 94 111 0 0 1 30 22 165 0 28 111 8 0 +-1.5367 3.331253867754065 4.624521
97465463 0 -.566107244007959 -.824331600923871 81 1 112 220 34 100 0 0 26 113 11
4 17 64 0 115 53 45 57 116 100 0 110 +16 21 150 113 ?85 28 100 8 0 0 1 81 1 113
 221 34 21 0 0 112 90 117 17 85 0 84 56 80 50 77 21 0 62 +17 77 0 115 45 53 66 8
5 21 0 80 -17 62 0 60 58 70 50 56 89 0 0 +15 60 101 0 61 118 0 17 70 0 60 62 61
 54 65 71 0 0 +17 61 0 60 70 58 23 110 87 0 0 -17 110 0 119 116 27 57 61 87 0 0
 +15 119 151 0 110 17 0 17 116 0 119 92 110 32 64 100 0 0 -17 27 0 119 110 92 23
 43 11 0 61 +17 92 0 119 27 116 12 39 94 0 0 -17 39 0 38 73 31 32 92 94 0 116 +1
4 255 17 152 120 ?91 0 119 6 121 +0 0 91 0 25 81 1 120 241 122 17 123 0 0 124 12
5 14 91 154 124 ?19 17 68 6 126 -0 0 19 17 25 50 121 159 0 17 127 126 0 +-3.1115
 4.31010642727111 3.95229792775738 -1 0 0 0 0 1 13 25 3 0 0 0 0 0 0 10 17 50 127
 138 0 118 128 121 0 +-.3175 2.17465501836173 5.40051762535558 0 .56610724400796
 .824331600923871 1 0 0 50 126 160 0 91 121 20 0 +-2.3241 3.331253867754065 4.62
452197465463 0 -.824331600923871 .566107244007959 0 .56610724400796 .82433160092
3872 50 20 161 0 129 126 7 0 +-2.3241 2.32622877990768 5.31471992654914 0 -.8243
31600923871 .566107244007959 0 .56610724400796 .824331600923872 14 129 156 130 ?
83 19 115 6 20 +0 0 83 19 25 81 1 130 244 122 129 131 0 132 133 134 14 83 4 133
 ?118 129 38 6 128 +0 0 118 129 25 14 19 158 132 ?129 91 84 6 7 -0 0 129 91 25 1
5 115 155 0 53 129 0 17 53 0 115 77 64 50 58 63 0 85 +81 1 132 243 122 19 135 0
 124 130 136 80 7 CCCCCDI12 legal_owners0 17 1 lCZ1 122 0 137 8001 0 0 0 0 3 5 0
 0 0 FFFFTFTFFFFFFFFFF2 81 1 135 236 34 19 0 132 123 138 139 81 1 124 242 122 91
 140 0 120 132 141 83 255 3 136 .972549019607843 .529411764705882 .0039215686274
5098 81 1 140 231 34 91 0 124 86 142 143 83 3 141 .972549019607843 .529411764705
882 .00392156862745098 80 1 34 144 145 9000 0 0 0 0 3 6 0 0 0 FFTFTFTTFFFFFFFFF1
 81 1 86 230 34 81 0 0 106 140 146 81 1 142 232 34 118 0 147 140 148 149 82 255
 3 143 120 0 2 14 118 91 147 ?0 83 60 6 127 -0 0 0 83 25 81 1 147 246 122 118 14
2 0 133 0 150 81 1 148 233 34 83 0 133 142 131 151 82 3 149 120 1 2 81 1 133 245
 122 83 148 0 130 147 152 81 1 131 234 34 129 0 130 148 123 153 82 3 151 120 2 2
 81 1 123 235 34 17 0 120 131 135 154 82 3 153 120 12 2 82 3 154 120 13 2 83 3 1
52 .972549019607843 .529411764705882 .00392156862745098 83 3 150 .97254901960784
3 .529411764705882 .00392156862745098 81 1 106 229 34 89 0 0 99 86 155 82 3 146
 120 45 1 81 1 99 228 34 94 0 0 109 106 156 82 3 155 120 44 1 81 1 109 227 34 87
 0 0 102 99 157 82 3 156 120 43 1 81 1 102 226 34 76 0 0 97 109 158 82 3 157 120
 42 1 81 1 97 225 34 63 0 0 93 102 159 82 3 158 120 41 1 82 3 159 120 40 1 79 25
5 9 145 BTI/DetId81 1 138 237 34 1 0 160 135 0 161 82 3 139 120 14 2 81 1 160 23
8 162 1 138 14 0 0 163 82 3 161 120 0 3 80 1 162 164 165 8038 0 0 0 0 0 0 0 0 0
 TTTTTTTTTTTTTFTFT10 81 1 14 239 164 1 160 2 0 0 166 98 255 8 163 80 97 114 116
 32 49 55 49 80 1 164 167 168 8017 0 0 0 0 0 0 0 0 0 TTTTTTTTTTTTTFTFT3 84 255 8
 166 Part 17179 13 168 SDL/TYSA_NAME79 14 165 SDL/TYSA_UNAME79 15 137 SDL/TYSA_C
OLOUR50 128 62 0 83 0 127 0 +-.3175 2.183192623235425 5.41294957631201 0 .566107
24400796 .824331600923871 1 0 0 83 3 134 .972549019607843 .529411764705882 .0039
2156862745098 83 3 125 .972549019607843 .529411764705882 .00392156862745098 17 4
5 0 115 64 77 32 73 76 0 39 -81 1 90 222 34 28 0 0 113 96 169 82 3 117 120 7 1 8
1 1 96 223 34 71 0 0 90 93 170 82 3 169 120 8 1 82 3 170 120 28 1 81 1 26 219 34
 11 0 0 78 112 171 82 3 114 120 6 1 82 3 171 120 1 1 30 88 52 0 81 0 103 0 +-1.5
367 2.82874132383087 4.96962095060189 -1821231995776175e-31 -.824331600923871 .5
6610724400796 82 3 98 120 29 1 81 1 55 217 34 54 0 0 72 78 172 82 3 79 120 17 0
 82 3 172 120 16 0 81 1 52 215 34 50 0 0 44 72 173 82 3 75 120 15 0 81 1 44 214
 34 32 0 0 36 52 174 82 3 173 120 14 0 82 3 174 120 13 0 82 3 67 120 2 0 82 3 59
 120 12 0 82 3 37 120 3 0 19 18 168 0 1 0 10 6 0 S0 74 4 CI16 index_map_offset0
 0 1 dCCZ20 16 5 0 0 138 160 14 2 147 0 0 0 0 0 0 0 0 0 0 0 0 0 0 0 80 1 13 122
 175 8040 0 0 0 0 3 5 0 0 0 TTTFFFFFFFFFFFFFF2 83 3 15 .972549019607843 .5294117
64705882 .00392156862745098 79 17 175 SDL/TYSA_COLOUR_21 0 
