**ABCDEFGHIJKLMNOPQRSTUVWXYZabcdefghijklmnopqrstuvwxyz**************************
**PARASOLID !"#$%&'()*+,-./:;<=>?@[\]^_`{|}~0123456789**************************
**PART1;
MC=unknown;
MC_MODEL=unknown;
MC_ID=unknown;
OS=unknown;
OS_RELEASE=unknown;
FRU=Parasolid 36.0.180;
APPL=Onshape;
SITE=unknown;
USER=unknown;
FORMAT=text;
GUISE=transmit;
KEY=BTGapi::writeModels_.xmt;
FILE=BTGapi::writeModels_.xmt;
DATE=2024-05-15T00:06:35 (UTC);
**PART2;
SCH=SCH_3600180_36001;
USFLD_SIZE=0;
**PART3;
**END_OF_HEADER*****************************************************************
T51 : TRANSMIT FILE created by modeller version 360018023 SCH_3600180_36001_1300
6231 0 12 36 CCCI7 lattice222 0 CCCI4 mesh1006 0 I8 polyline1008 0 CCCCCCCDI5 ow
ner1040 0 CCCI16 boundary_lattice222 0 CCCI13 boundary_mesh1006 0 I17 boundary_p
olyline1008 0 CCCA16 index_map_offset0 0 1 dA9 index_map82 0 A17 node_id_index_m
ap82 0 A20 schema_embedding_map82 0 A5 child12 0 A14 lowest_node_id0 0 1 dA16 me
sh_offset_data206 0 Z1 142 2 3 0 0 0 0 0 0 0 1e3 1e-8 0 4 0 1 0 1 2 5 0 6 7 8 0
 0 9 10 11 0 0 0 0 0 0 0 81 255 1 2 136 12 1 13 0 0 0 14 70 11 CI9 list_type0 0
 1 uI10 notransmit0 0 1 lCCCDCCDI12 finger_index0 0 1 dI12 finger_block1012 0 CZ
3 0 4 T1 0 0 5 20 1 15 15 13 255 5 5 0 1 0 16 0 0 17 0 50 255 6 90 0 18 19 0 0 +
1.56845 -2.54 1.219198 0 1 0 0 0 1 30 255 7 98 0 20 21 0 0 +1.4732 -2.54 1.21919
8 0 0 1 29 255 8 85 0 11 22 0 1.4732 -2.4511 3.6576 19 9 CCCCCCI5 frame230 0 CA5
 owner12 0 Z9 1 0 1 17 0 23 0 V0 16 255 10 29 24 ?25 0 26 27 0 0 1 18 255 11 53
 28 29 0 30 8 ?1 81 1 28 113 31 11 0 0 32 33 34 17 255 29 0 35 36 37 11 38 39 0
 40 +18 30 57 41 42 11 43 22 ?1 81 1 41 111 31 30 0 0 44 32 45 17 42 0 46 47 48
 30 49 50 0 36 +18 43 61 51 52 30 53 54 ?1 29 22 84 0 30 54 8 1.6637 -2.4511 3.6
576 29 54 83 0 43 55 22 1.6637 -2.54 3.6576 29 55 82 0 53 56 54 1.4732 -2.54 3.6
576 18 53 65 57 58 43 59 55 ?1 29 56 81 0 59 60 55 1.6637 -2.4511 1.2192 18 59 6
9 32 48 53 61 56 ?1 29 60 80 0 61 62 56 1.4732 -2.4511 1.2192 18 61 70 33 37 59
 63 60 ?1 29 62 79 0 63 64 60 1.6637 -2.54 1.2192 18 63 71 65 66 61 67 62 ?1 29
 64 78 0 67 0 62 1.4732 -2.54 1.2192 18 67 72 44 68 63 0 64 ?1 81 1 44 110 31 67
 0 0 57 41 69 17 68 0 70 71 72 67 58 20 0 73 -15 255 70 20 0 71 18 0 17 71 0 70
 52 68 63 74 75 0 0 -17 72 0 70 68 52 53 76 77 0 25 +17 58 0 78 40 73 53 68 20 0
 72 +16 20 45 79 ?58 77 80 7 0 0 1 17 73 0 78 58 38 67 81 82 0 74 +15 78 11 0 38
 83 0 17 38 0 78 73 40 61 29 39 0 0 -17 81 0 84 85 74 61 73 82 0 38 -16 82 51 86
 ?73 87 75 88 0 0 1 17 74 0 84 81 89 67 71 75 0 0 +15 84 8 0 81 16 0 17 89 0 84
 74 85 63 48 90 0 71 -16 75 52 91 ?74 82 0 92 0 0 1 81 1 91 124 31 75 0 0 93 94
 95 30 92 94 0 75 88 96 0 +1.56845 -2.54 1.2192 -1 0 0 30 88 93 0 82 97 92 0 +1.
4732 -2.49555 1.2192 0 -1 0 30 96 95 0 39 92 98 0 +1.4732 -2.4511 1.219198 0 0 1
 16 39 48 99 ?29 50 90 96 0 0 1 30 98 96 0 50 96 21 0 +1.6637 -2.4511 1.219198 0
 0 1 16 50 47 100 ?42 80 39 98 0 0 1 30 21 97 0 80 98 7 0 +1.6637 -2.54 1.219198
 0 0 1 16 80 46 101 ?52 20 50 21 0 0 1 81 1 101 115 31 80 0 0 33 79 102 17 52 0
 70 72 71 43 66 80 0 76 +17 66 0 46 48 47 63 52 80 0 89 -17 76 0 103 104 25 43 7
2 77 0 47 -15 103 28 0 25 105 0 17 104 0 103 106 76 30 47 107 0 0 +17 25 0 103 7
6 106 53 40 10 0 0 +16 77 41 93 ?72 107 20 108 0 0 1 17 47 0 46 66 42 43 104 107
 0 0 -15 46 17 0 66 109 0 16 107 37 110 ?104 26 77 111 0 0 1 81 1 110 119 31 107
 0 0 99 112 113 16 26 33 94 ?106 10 107 114 0 0 1 30 111 75 0 107 108 114 0 +1.6
637 0 3.6576 0 1 0 30 108 74 0 77 0 111 0 +1.56845 -2.54 3.6576 -1 0 0 30 114 76
 0 26 111 27 0 +1.56845 -2.4511 3.6576 -1 0 0 30 27 77 0 10 114 115 0 +1.4732 -2
.49555 3.6576 0 -1 0 30 115 91 0 90 27 97 0 +1.6637 0 1.2192 0 1 0 16 90 49 112
 ?48 39 87 115 0 0 1 30 97 92 0 87 115 88 0 +1.56845 -2.4511 1.2192 -1 0 0 16 87
 50 116 ?37 90 82 97 0 0 1 81 1 116 126 31 87 0 0 94 117 118 17 37 0 35 29 49 61
 85 87 0 81 +15 35 14 0 49 119 0 17 49 0 35 37 36 59 42 50 0 0 -17 85 0 84 89 81
 59 37 87 0 49 -17 36 0 35 49 29 30 106 26 0 104 -17 106 0 103 25 104 11 36 26 0
 0 +14 255 119 12 120 ?109 83 35 5 121 +0 0 109 83 23 81 1 120 139 122 119 123 0
 124 125 126 14 109 15 125 ?18 119 46 5 19 +0 0 18 119 23 14 83 9 124 ?119 16 78
 5 127 +0 0 119 0 23 50 121 87 0 119 128 127 0 +1.56845 -2.4511 1.219198 0 1 0 0
 0 1 13 23 3 0 0 0 0 0 0 9 83 50 128 86 0 16 129 121 0 +1.56845 -2.63525 1.2192
 0 0 -1 1 0 0 50 127 88 0 83 121 19 0 +1.4732 -2.49555 1.219198 -1 0 0 0 0 1 50
 19 89 0 109 127 6 0 +1.6637 0 1.219198 1 0 0 0 0 -1 14 16 6 130 ?83 0 84 5 128
 +0 0 0 105 23 50 129 73 0 105 0 128 0 +1.56845 0 3.6576 0 0 -1 1 0 0 14 105 21
 131 ?0 18 103 5 129 -0 0 16 18 23 81 1 131 142 122 105 132 0 133 0 134 14 18 18
 133 ?105 109 70 5 6 -0 0 105 109 23 81 1 133 141 122 18 135 0 125 131 136 80 7
 CCCCCDI12 legal_owners0 17 1 lCZ1 122 0 137 8001 0 0 0 0 3 5 0 0 0 FFFFTFTFFFFF
FFFFF2 81 1 135 131 31 18 0 133 138 123 139 81 1 125 140 122 109 117 0 120 133 1
40 83 255 3 136 .647058823529412 .647058823529412 .647058823529412 81 1 117 127
 31 109 0 125 116 132 141 83 3 140 .647058823529412 .647058823529412 .6470588235
29412 80 1 31 142 143 9000 0 0 0 0 3 6 0 0 0 FFTFTFTTFFFFFFFFF1 81 1 132 128 31
 105 0 131 117 144 145 82 255 3 141 201 0 2 81 1 144 129 31 16 0 130 132 138 146
 82 3 145 201 1 2 81 1 130 137 122 16 144 0 0 124 147 81 1 138 130 31 83 0 124 1
44 135 148 82 3 146 201 2 2 81 1 124 138 122 83 138 0 130 120 149 82 3 148 201 3
 2 83 3 149 .647058823529412 .647058823529412 .647058823529412 83 3 147 .6470588
23529412 .647058823529412 .647058823529412 79 255 9 143 BTI/DetId81 1 123 132 31
 119 0 120 135 150 151 82 3 139 201 4 2 81 1 150 133 31 1 0 152 123 0 153 82 3 1
51 201 5 2 81 1 152 134 154 1 150 13 0 0 155 82 3 153 201 0 3 80 1 154 156 157 8
038 0 0 0 0 0 0 0 0 0 TTTTTTTTTTTTTFTFT10 81 1 13 135 156 1 152 2 0 0 158 98 255
 8 155 80 97 114 116 32 51 50 49 80 1 156 159 160 8017 0 0 0 0 0 0 0 0 0 TTTTTTT
TTTTTTFTFT3 84 255 8 158 Part 32179 13 160 SDL/TYSA_NAME79 14 157 SDL/TYSA_UNAME
79 15 137 SDL/TYSA_COLOUR83 3 134 .647058823529412 .647058823529412 .64705882352
9412 83 3 126 .647058823529412 .647058823529412 .647058823529412 81 1 94 125 31
 26 0 0 91 116 161 82 3 118 201 11 1 82 3 161 201 10 1 81 1 112 120 31 90 0 0 11
0 24 162 17 48 0 46 42 66 59 89 90 0 85 +81 1 24 121 31 10 0 0 112 86 163 82 3 1
62 201 5 1 81 1 86 122 31 82 0 0 24 93 164 82 3 163 201 6 1 81 1 93 123 31 77 0
 0 86 91 165 82 3 164 201 7 1 82 3 165 201 8 1 81 1 99 118 31 39 0 0 100 110 166
 82 3 113 201 4 1 81 1 100 117 31 50 0 0 79 99 167 82 3 166 201 3 1 81 1 79 116
 31 20 0 0 101 100 168 82 3 167 201 2 1 82 3 168 201 1 1 17 40 0 78 38 58 11 25
 10 0 106 -81 1 33 114 31 61 0 0 28 101 169 82 3 102 201 0 1 82 3 169 201 7 0 82
 3 95 201 9 1 81 1 57 109 31 53 0 0 65 44 170 82 3 69 201 3 0 81 1 65 108 31 63
 0 0 51 57 171 82 3 170 201 2 0 81 1 51 107 31 43 0 0 0 65 172 82 3 171 201 1 0
 82 3 172 201 0 0 81 1 32 112 31 59 0 0 41 28 173 82 3 173 201 5 0 82 3 45 201 4
 0 82 3 34 201 6 0 19 17 4 0 1 0 9 5 0 S0 74 4 CI16 index_map_offset0 0 1 dCCZ20
 15 5 0 0 150 152 13 2 131 0 0 0 0 0 0 0 0 0 0 0 0 0 0 0 80 1 12 122 174 8040 0
 0 0 0 3 5 0 0 0 TTTFFFFFFFFFFFFFF2 83 3 14 .647058823529412 .647058823529412 .6
47058823529412 79 17 174 SDL/TYSA_COLOUR_21 0 
