**ABCDEFGHIJKLMNOPQRSTUVWXYZabcdefghijklmnopqrstuvwxyz**************************
**PARASOLID !"#$%&'()*+,-./:;<=>?@[\]^_`{|}~0123456789**************************
**PART1;
MC=unknown;
MC_MODEL=unknown;
MC_ID=unknown;
OS=unknown;
OS_RELEASE=unknown;
FRU=Parasolid 36.0.180;
APPL=Onshape;
SITE=unknown;
USER=unknown;
FORMAT=text;
GUISE=transmit;
KEY=BTGapi::writeModels_.xmt;
FILE=BTGapi::writeModels_.xmt;
DATE=2024-05-15T00:06:35 (UTC);
**PART2;
SCH=SCH_3600180_36001;
USFLD_SIZE=0;
**PART3;
**END_OF_HEADER*****************************************************************
T51 : TRANSMIT FILE created by modeller version 360018023 SCH_3600180_36001_1300
6231 0 12 36 CCCI7 lattice222 0 CCCI4 mesh1006 0 I8 polyline1008 0 CCCCCCCDI5 ow
ner1040 0 CCCI16 boundary_lattice222 0 CCCI13 boundary_mesh1006 0 I17 boundary_p
olyline1008 0 CCCA16 index_map_offset0 0 1 dA9 index_map82 0 A17 node_id_index_m
ap82 0 A20 schema_embedding_map82 0 A5 child12 0 A14 lowest_node_id0 0 1 dA16 me
sh_offset_data206 0 Z1 284 2 3 0 0 0 0 0 0 0 1e3 1e-8 0 4 5 1 0 1 2 6 0 7 8 9 0
 0 10 11 12 0 0 0 0 0 0 0 81 255 1 2 278 13 1 14 0 0 0 15 70 11 CI9 list_type0 0
 1 uI10 notransmit0 0 1 lCCCDCCDI12 finger_index0 0 1 dI12 finger_block1012 0 CZ
3 0 4 T1 0 0 5 20 1 16 16 13 255 6 203 0 1 0 17 0 0 18 0 50 255 7 198 0 17 19 0
 0 +-3.1115 4.31010642727111 3.95229792775738 -1 0 0 0 0 1 30 255 8 202 0 20 21
 0 0 +-3.1115 1.321203692061292 6.00491787844364 0 -.566107244007959 -.824331600
923871 29 255 9 179 0 22 23 0 -.6731 2.317691175033985 5.3022879755927 19 9 CCCC
CCI5 frame230 0 CA5 owner12 0 Z10 1 0 1 18 0 24 0 V0 16 255 11 185 25 ?26 0 27 2
1 0 0 1 18 255 12 39 28 29 0 30 31 ?1 81 1 28 256 32 12 0 0 33 25 34 17 255 29 0
 35 36 37 12 38 39 0 40 -18 30 42 41 37 12 42 43 ?1 29 31 77 0 12 43 44 -.6731 2
.32622877990768 5.31471992654914 29 43 76 0 30 45 31 -.6731 1.321203692061294 6.
00491787844364 29 44 182 0 46 31 47 -3.1115 1.312666087187596 5.99248592748721 1
8 46 170 48 49 50 0 44 ?1 29 47 181 0 50 44 23 -3.1115 2.31769117503398 5.302287
9755927 18 50 166 51 52 53 46 47 ?1 29 23 180 0 53 47 9 -.6731 1.3126660871876 5
.99248592748721 18 53 162 54 55 22 50 23 ?1 81 1 54 251 32 53 0 0 56 41 57 17 55
 0 58 59 60 53 49 61 0 62 -18 22 158 33 63 64 53 9 ?1 81 1 33 255 32 22 0 0 65 2
8 66 17 63 0 67 40 62 22 68 69 0 70 -18 64 60 65 71 42 22 72 ?1 81 1 65 254 32 6
4 0 0 48 33 73 17 71 0 58 60 59 64 37 74 0 75 +18 42 57 56 36 30 64 45 ?1 29 72
 70 0 64 0 45 -3.1115 1.321203692061292 6.00491787844364 29 45 71 0 42 72 43 -3.
1115 2.326228779907675 5.31471992654913 81 1 56 250 32 42 0 0 51 54 76 17 36 0 3
5 75 29 42 77 78 0 79 +15 255 35 7 0 75 80 0 17 75 0 35 37 36 64 81 82 0 83 +17
 77 0 84 70 79 12 36 78 0 0 -16 78 12 85 ?36 20 39 86 0 0 1 17 79 0 84 77 52 42
 26 11 0 81 -15 84 187 0 52 87 0 17 52 0 84 79 70 50 88 89 0 26 +17 26 0 90 91 8
1 50 79 11 0 92 +17 81 0 90 26 83 42 75 82 0 0 -15 90 193 0 91 17 0 17 83 0 90 8
1 91 64 60 20 0 0 -16 82 30 93 ?75 74 89 94 0 0 1 81 1 93 268 32 82 0 0 95 96 97
 16 74 18 98 ?71 39 82 99 0 0 1 16 89 134 100 ?52 82 69 101 0 0 1 30 94 85 0 82
 86 102 0 +-3.1115 4.31010642727111 3.95229792775738 0 -.824331600923871 .566107
244007959 30 86 69 0 78 103 94 0 +-1.1049 2.32622877990768 5.31471992654914 -1 0
 0 30 102 178 0 61 94 104 0 +-1.1049 1.3126660871876 5.99248592748721 -1 0 0 16
 61 146 105 ?49 69 106 102 0 0 1 30 104 177 0 69 102 101 0 +-.6731 1.81517863111
079 5.64738695153996 -1821231995776175e-31 -.824331600923871 .566107244007959 16
 69 142 107 ?68 89 61 104 0 0 1 30 101 176 0 89 104 108 0 +-1.1049 2.31769117503
3985 5.3022879755927 -1 0 0 30 108 175 0 106 101 109 0 +-3.1115 4.30156882239741
5 3.939865976800945 0 -.824331600923871 .566107244007959 16 106 154 95 ?91 61 0
 108 0 0 1 30 109 199 0 27 108 110 0 +-.6731 2.32622877990768 5.31471992654914 0
 -.566107244007959 -.824331600923871 16 27 183 111 ?70 11 112 109 0 0 1 30 110 2
00 0 112 109 21 0 +-.6731 1.321203692061294 6.00491787844364 0 -.566107244007959
 -.824331600923871 16 112 184 113 ?62 27 20 110 0 0 1 30 21 201 0 11 110 8 0 +-3
.1115 2.326228779907675 5.31471992654913 0 -.566107244007959 -.824331600923871 8
1 1 113 258 32 112 0 0 25 114 115 17 62 0 67 63 38 53 59 112 0 68 +16 20 186 114
 ?60 112 78 8 0 0 1 81 1 114 259 32 20 0 0 113 111 116 17 60 0 58 55 71 46 83 20
 0 91 +15 58 191 0 55 117 0 17 91 0 90 83 26 46 92 106 0 0 +17 92 0 118 88 49 50
 91 106 0 0 -15 118 133 0 92 119 0 17 88 0 118 68 92 22 52 89 0 0 -17 49 0 118 9
2 68 46 55 61 0 60 +17 68 0 118 49 88 53 63 69 0 0 +14 255 119 121 120 ?0 80 118
 6 121 -0 0 0 80 24 81 1 120 284 122 119 123 0 124 0 125 14 80 4 124 ?119 117 35
 6 126 +0 0 119 117 24 50 121 174 0 119 126 127 0 +-.3175 2.17465501836173 5.400
51762535558 0 .56610724400796 .824331600923871 1 0 0 13 24 3 0 0 0 0 0 0 10 17 1
4 17 194 128 ?87 0 90 6 7 +0 0 87 0 24 81 1 128 279 122 17 129 0 0 130 131 14 87
 188 130 ?132 17 84 6 127 +0 0 132 17 24 81 1 130 280 122 87 96 0 128 133 134 14
 132 190 133 ?117 87 67 6 135 -0 0 117 87 24 50 127 195 0 87 121 135 0 +-1.1049
 2.32622877990768 5.31471992654914 0 .824331600923871 -.566107244007959 0 -.5661
0724400796 -.824331600923872 50 135 196 0 132 127 19 0 +-.6731 1.823716235984485
 5.65981890249639 -1 150129908673195e-30 -1031012625827964e-31 150129908673195e-
30 1 0 50 19 197 0 117 135 7 0 +-1.1049 1.321203692061294 6.00491787844364 0 .82
4331600923871 -.566107244007959 0 -.56610724400796 -.824331600923872 14 117 192
 136 ?80 132 58 6 19 -0 0 80 132 24 81 1 136 282 122 117 137 0 133 124 138 80 7
 CCCCCDI12 legal_owners0 17 1 lCZ1 122 0 139 8001 0 0 0 0 3 5 0 0 0 FFFFTFTFFFFF
FFFFF2 81 1 137 272 32 117 0 136 140 141 142 81 1 133 281 122 132 141 0 130 136
 143 81 1 124 283 122 80 140 0 136 120 144 83 255 3 138 .980392156862745 .713725
490196078 .00392156862745098 81 1 140 271 32 80 0 124 123 137 145 83 3 144 .9803
92156862745 .713725490196078 .00392156862745098 80 1 32 146 147 9000 0 0 0 0 3 6
 0 0 0 FFTFTFTTFFFFFFFFF1 81 1 123 270 32 119 0 120 96 140 148 82 255 3 145 120
 68 2 81 1 96 269 32 87 0 130 93 123 149 82 3 148 120 67 2 82 3 149 120 66 2 79
 255 9 147 BTI/DetId81 1 141 273 32 132 0 133 137 129 150 83 3 143 .980392156862
745 .713725490196078 .00392156862745098 81 1 129 274 32 17 0 128 141 151 152 82
 3 150 120 73 2 81 1 151 275 32 1 0 153 129 0 154 82 3 152 120 74 2 81 1 153 276
 155 1 151 14 0 0 156 82 3 154 120 11 3 80 1 155 157 158 8038 0 0 0 0 0 0 0 0 0
 TTTTTTTTTTTTTFTFT10 81 1 14 277 157 1 153 2 0 0 159 98 255 8 156 80 97 114 116
 32 49 56 50 80 1 157 160 161 8017 0 0 0 0 0 0 0 0 0 TTTTTTTTTTTTTFTFT3 84 255 8
 159 Part 18279 13 161 SDL/TYSA_NAME79 14 158 SDL/TYSA_UNAME82 3 142 120 72 2 79
 15 139 SDL/TYSA_COLOUR15 67 189 0 63 132 0 83 3 134 .980392156862745 .713725490
196078 .00392156862745098 83 3 131 .980392156862745 .713725490196078 .0039215686
2745098 50 126 86 0 80 0 121 0 +-.3175 2.183192623235425 5.41294957631201 0 .566
10724400796 .824331600923871 1 0 0 83 3 125 .980392156862745 .713725490196078 .0
0392156862745098 81 1 111 260 32 27 0 0 114 100 162 82 3 116 120 119 1 81 1 100
 261 32 89 0 0 111 85 163 82 3 162 120 120 1 81 1 85 262 32 78 0 0 100 105 164 8
2 3 163 120 148 1 81 1 105 263 32 61 0 0 85 98 165 82 3 164 120 149 1 81 1 98 26
4 32 74 0 0 105 107 166 82 3 165 120 152 1 81 1 107 265 32 69 0 0 98 167 168 82
 3 166 120 153 1 81 1 167 266 32 39 0 0 107 95 169 82 3 168 120 154 1 16 39 15 1
67 ?38 78 74 103 0 0 1 81 1 95 267 32 106 0 0 167 93 170 82 3 169 120 155 1 82 3
 170 120 156 1 17 38 0 67 62 40 30 29 39 0 0 +30 103 68 0 39 99 86 0 +-.6731 1.8
23716235984485 5.65981890249639 -1821231995776175e-31 -.824331600923871 .5661072
44007959 30 99 67 0 74 0 103 0 +-1.1049 1.321203692061294 6.00491787844364 -1 0
 0 17 40 0 67 38 63 12 70 27 0 77 -17 70 0 84 52 77 22 40 27 0 88 +17 59 0 58 71
 55 30 62 112 0 38 -81 1 25 257 32 11 0 0 28 113 171 82 3 115 120 118 1 82 3 171
 120 116 1 82 3 97 120 157 1 17 37 0 35 29 75 30 71 74 0 59 -81 1 51 249 32 50 0
 0 0 56 172 82 3 76 120 89 0 82 3 172 120 88 0 81 1 48 253 32 46 0 0 41 65 173 8
2 3 73 120 95 0 81 1 41 252 32 30 0 0 54 48 174 82 3 173 120 94 0 82 3 174 120 9
3 0 82 3 66 120 96 0 82 3 57 120 92 0 82 3 34 120 97 0 19 18 204 0 1 0 10 6 0 S0
 74 4 CI16 index_map_offset0 0 1 dCCZ20 16 5 0 0 151 153 14 2 120 0 0 0 0 0 0 0
 0 0 0 0 0 0 0 0 80 1 13 122 175 8040 0 0 0 0 3 5 0 0 0 TTTFFFFFFFFFFFFFF2 83 3
 15 .980392156862745 .713725490196078 .00392156862745098 79 17 175 SDL/TYSA_COLO
UR_21 0 
