**ABCDEFGHIJKLMNOPQRSTUVWXYZabcdefghijklmnopqrstuvwxyz**************************
**PARASOLID !"#$%&'()*+,-./:;<=>?@[\]^_`{|}~0123456789**************************
**PART1;
MC=unknown;
MC_MODEL=unknown;
MC_ID=unknown;
OS=unknown;
OS_RELEASE=unknown;
FRU=Parasolid 36.0.180;
APPL=Onshape;
SITE=unknown;
USER=unknown;
FORMAT=text;
GUISE=transmit;
KEY=BTGapi::writeModels_.xmt;
FILE=BTGapi::writeModels_.xmt;
DATE=2024-05-15T00:06:35 (UTC);
**PART2;
SCH=SCH_3600180_36001;
USFLD_SIZE=0;
**PART3;
**END_OF_HEADER*****************************************************************
T51 : TRANSMIT FILE created by modeller version 360018023 SCH_3600180_36001_1300
6231 0 12 36 CCCI7 lattice222 0 CCCI4 mesh1006 0 I8 polyline1008 0 CCCCCCCDI5 ow
ner1040 0 CCCI16 boundary_lattice222 0 CCCI13 boundary_mesh1006 0 I17 boundary_p
olyline1008 0 CCCA16 index_map_offset0 0 1 dA9 index_map82 0 A17 node_id_index_m
ap82 0 A20 schema_embedding_map82 0 A5 child12 0 A14 lowest_node_id0 0 1 dA16 me
sh_offset_data206 0 Z1 585 2 3 0 0 0 0 0 0 0 1e3 1e-8 0 4 5 1 0 1 2 6 0 7 8 9 0
 0 10 11 12 0 0 0 0 0 0 0 81 255 1 2 579 13 1 14 0 0 0 15 70 11 CI9 list_type0 0
 1 uI10 notransmit0 0 1 lCCCDCCDI12 finger_index0 0 1 dI12 finger_block1012 0 CZ
3 0 4 T1 0 0 5 20 1 16 16 13 255 6 137 0 1 0 17 0 0 18 0 50 255 7 132 0 17 19 0
 0 +2220446049250315e-31 .09525 6.08965 0 1 0 0 0 1 30 255 8 110 0 20 21 0 0 +44
40892098500625e-31 .18415 5.8039 -1 0 0 29 255 9 336 0 12 22 0 -2.1336 .18415 5.
8039 19 9 CCCCCCI5 frame230 0 CA5 owner12 0 Z10 48 0 1 18 0 23 0 V0 16 255 11 17
 24 ?25 0 26 27 0 0 1 18 255 12 286 28 29 0 30 9 ?1 81 1 28 287 31 12 0 0 32 33
 34 17 255 29 0 35 36 37 12 38 20 0 39 +18 30 276 40 25 12 41 22 ?1 81 1 40 277
 31 30 0 0 42 32 43 17 25 0 44 45 46 30 47 11 0 36 +18 41 272 42 48 30 49 50 ?1
 29 22 337 0 30 50 9 -2.1336 .18415 6.08965 29 50 338 0 41 51 22 -2.1336 .09525
 6.08965 29 51 339 0 49 52 50 -2.1336 .09525 5.8039 18 49 284 32 53 41 54 51 ?1
 29 52 535 0 54 55 51 2.1336 .09525 5.8039 18 54 485 56 57 49 58 52 ?1 29 55 536
 0 58 59 52 2.1336 .09525 6.08965 18 58 475 60 61 54 62 55 ?1 29 59 537 0 62 63
 55 2.1336 .18415 6.08965 18 62 471 64 47 58 65 59 ?1 29 63 538 0 65 0 59 2.1336
 .18415 5.8039 18 65 483 66 38 62 0 63 ?1 81 1 66 484 31 65 0 0 60 56 67 17 38 0
 68 69 70 65 29 20 0 71 -15 255 68 75 0 53 72 0 17 69 0 68 53 38 54 71 73 0 0 -1
7 70 0 68 38 53 12 74 75 0 0 -16 20 80 76 ?29 26 77 8 0 0 1 17 71 0 78 79 80 65
 69 73 0 37 +15 78 506 0 71 81 0 17 79 0 78 82 71 62 37 83 0 46 -17 80 0 78 71 8
2 54 84 85 0 69 +16 73 455 86 ?71 83 0 87 0 0 1 17 37 0 35 29 47 65 79 83 0 0 +1
5 35 123 0 29 88 0 17 47 0 35 37 36 62 25 11 0 79 -16 83 435 89 ?37 90 73 91 0 0
 1 81 1 89 437 31 83 0 0 33 92 93 16 90 441 92 ?46 85 83 94 0 0 1 30 91 529 0 83
 87 94 0 +2.1336 .18415 6.08965 0 0 -1 30 87 530 0 73 0 91 0 +2.1336 .1397 5.803
9 0 1 0 30 94 528 0 90 91 95 0 +2.1336 .1397 6.08965 0 1 0 30 95 527 0 85 94 96
 0 +2.1336 .09525 6.08965 0 0 -1 16 85 458 97 ?80 75 90 95 0 0 1 30 96 331 0 75
 95 98 0 +-2.1336 .1397 5.8039 0 -1 0 16 75 256 99 ?74 100 85 96 0 0 1 30 98 330
 0 100 96 101 0 +-2.1336 .09525 6.08965 0 0 -1 16 100 236 102 ?103 104 75 98 0 0
 1 30 101 329 0 104 98 105 0 +-2.1336 .1397 6.08965 0 -1 0 16 104 242 106 ?45 10
7 100 101 0 0 1 30 105 328 0 107 101 108 0 +-2.1336 .18415 6.08965 0 0 -1 16 107
 259 109 ?39 77 104 105 0 0 1 30 108 9 0 26 105 27 0 +2220446049250315e-31 .0952
5 6.08965 1 0 0 16 26 7 110 ?61 11 20 108 0 0 1 30 27 19 0 11 108 21 0 +44408920
98500625e-31 .18415 6.08965 -1 0 0 30 21 112 0 77 27 8 0 +2220446049250315e-31 .
09525 5.8039 1 0 0 16 77 88 111 ?57 20 107 21 0 0 1 81 1 111 569 31 77 0 0 112 1
10 113 17 57 0 114 84 103 54 53 77 0 80 +15 114 127 0 57 17 0 17 84 0 114 48 57
 58 80 85 0 82 -17 103 0 114 57 48 49 115 100 0 0 +17 53 0 68 70 69 49 57 77 0 7
4 -17 74 0 116 115 39 49 70 75 0 103 +15 116 307 0 74 117 0 17 115 0 116 118 74
 41 103 100 0 45 -17 39 0 116 74 118 12 36 107 0 70 +17 118 0 116 39 115 30 45 1
04 0 0 -17 36 0 35 47 29 30 39 107 0 118 -17 45 0 44 61 25 41 118 104 0 0 +15 44
 6 0 61 119 0 17 61 0 44 46 45 58 48 26 0 84 +17 46 0 44 25 61 62 82 90 0 0 +17
 48 0 114 103 84 41 61 26 0 115 -17 82 0 78 80 79 58 46 90 0 0 -14 255 119 1 120
 ?72 88 44 6 121 +0 0 72 88 23 81 1 120 582 122 119 123 0 124 125 126 14 72 68 1
25 ?117 119 68 6 127 -0 0 117 119 23 14 88 124 124 ?119 17 35 6 19 -0 0 119 17 2
3 50 121 3 0 119 128 127 0 +4440892098500625e-31 0 6.08965 0 0 1 1 0 0 13 23 49
 0 0 0 0 0 0 10 17 14 17 128 129 ?88 0 114 6 7 -0 0 88 0 23 81 1 129 580 122 17
 130 0 0 124 131 80 7 CCCCCDI12 legal_owners0 17 1 lCZ1 122 0 132 8001 0 0 0 0 3
 5 0 0 0 FFFFTFTFFFFFFFFFF2 81 1 130 575 31 17 0 129 123 133 134 81 1 124 581 12
2 88 133 0 129 120 135 83 255 3 131 .768627450980392 .886274509803922 .952941176
470588 81 1 133 576 31 88 0 124 130 0 136 83 3 135 .768627450980392 .88627450980
3922 .952941176470588 80 1 31 137 138 9000 0 0 0 0 3 6 0 0 0 FFTFTFTTFFFFFFFFF1
 82 255 3 136 177 13 2 79 255 9 138 BTI/DetId81 1 123 574 31 119 0 120 139 130 1
40 82 3 134 177 12 2 81 1 139 573 31 72 0 125 24 123 141 82 3 140 177 9 2 81 1 1
25 583 122 72 139 0 120 142 143 81 1 24 572 31 11 0 0 76 139 144 82 3 141 177 8
 2 81 1 76 571 31 20 0 0 110 24 145 82 3 144 177 11 1 81 1 110 570 31 26 0 0 111
 76 146 82 3 145 177 10 1 82 3 146 177 9 1 81 1 142 584 122 117 33 0 125 147 148
 83 3 143 .768627450980392 .886274509803922 .952941176470588 14 117 304 142 ?81
 72 116 6 128 -0 0 81 72 23 81 1 33 306 31 117 0 142 28 89 149 81 1 147 585 122
 81 150 0 142 0 151 83 3 148 .768627450980392 .886274509803922 .952941176470588
 14 81 503 147 ?0 117 78 6 152 -0 0 0 117 23 81 1 150 505 31 81 0 147 56 112 153
 83 3 151 .768627450980392 .886274509803922 .952941176470588 81 1 56 486 31 54 0
 0 66 150 154 81 1 112 568 31 1 0 155 150 111 156 82 3 153 176 21 2 81 1 155 577
 157 1 112 14 0 0 158 82 3 156 38 0 3 80 1 157 159 160 8038 0 0 0 0 0 0 0 0 0 TT
TTTTTTTTTTTFTFT10 81 1 14 578 159 1 155 2 0 0 161 98 255 22 158 80 97 114 116 32
 50 57 32 51 46 53 120 49 49 46 50 53 120 49 52 102 116 80 1 159 162 163 8017 0
 0 0 0 0 0 0 0 0 TTTTTTTTTTTTTFTFT3 84 255 22 161 Part 29 3.5x11.25x14ft79 13 16
3 SDL/TYSA_NAME79 14 160 SDL/TYSA_UNAME82 3 154 176 17 0 50 152 518 0 81 0 128 0
 +2.1336 .1397 6.08965 -1 0 0 0 0 1 50 128 319 0 117 152 121 0 +-2.1336 .1397 6.
08965 1 0 0 0 0 -1 82 3 149 174 21 2 79 15 132 SDL/TYSA_COLOUR50 127 108 0 72 12
1 19 0 +4440892098500625e-31 0 5.8039 0 0 1 1 0 0 50 19 130 0 88 127 7 0 +444089
2098500625e-31 .18415 6.08965 0 -1 0 0 0 -1 83 3 126 .768627450980392 .886274509
803922 .952941176470588 82 3 113 177 8 1 81 1 109 261 31 107 0 0 99 42 164 81 1
 99 258 31 75 0 0 106 109 165 81 1 42 273 31 41 0 0 109 40 166 82 3 164 174 35 1
 82 3 166 174 19 0 81 1 106 244 31 104 0 0 102 99 167 82 3 165 174 41 1 81 1 102
 238 31 100 0 0 0 106 168 82 3 167 174 43 1 82 3 168 174 33 1 81 1 97 460 31 85
 0 0 86 64 169 81 1 86 457 31 73 0 0 92 97 170 81 1 64 472 31 62 0 0 97 60 171 8
2 3 169 176 33 1 81 1 60 476 31 58 0 0 64 66 172 82 3 171 176 23 0 82 3 172 176
 19 0 81 1 92 443 31 90 0 0 89 86 173 82 3 170 176 41 1 82 3 173 176 43 1 82 3 9
3 176 35 1 82 3 67 176 21 0 81 1 32 285 31 49 0 0 40 28 174 82 3 174 174 17 0 82
 3 43 174 23 0 82 3 34 174 21 0 19 18 138 0 1 0 10 6 0 S0 74 4 CI16 index_map_of
fset0 0 1 dCCZ20 16 5 0 0 133 155 14 2 147 0 0 0 0 0 0 0 0 0 0 0 0 0 0 0 80 1 13
 122 175 8040 0 0 0 0 3 5 0 0 0 TTTFFFFFFFFFFFFFF2 83 3 15 .768627450980392 .886
274509803922 .952941176470588 79 17 175 SDL/TYSA_COLOUR_21 0 
