**ABCDEFGHIJKLMNOPQRSTUVWXYZabcdefghijklmnopqrstuvwxyz**************************
**PARASOLID !"#$%&'()*+,-./:;<=>?@[\]^_`{|}~0123456789**************************
**PART1;
MC=unknown;
MC_MODEL=unknown;
MC_ID=unknown;
OS=unknown;
OS_RELEASE=unknown;
FRU=Parasolid 36.0.180;
APPL=Onshape;
SITE=unknown;
USER=unknown;
FORMAT=text;
GUISE=transmit;
KEY=BTGapi::writeModels_.xmt;
FILE=BTGapi::writeModels_.xmt;
DATE=2024-05-15T00:06:35 (UTC);
**PART2;
SCH=SCH_3600180_36001;
USFLD_SIZE=0;
**PART3;
**END_OF_HEADER*****************************************************************
T51 : TRANSMIT FILE created by modeller version 360018023 SCH_3600180_36001_1300
6231 0 12 36 CCCI7 lattice222 0 CCCI4 mesh1006 0 I8 polyline1008 0 CCCCCCCDI5 ow
ner1040 0 CCCI16 boundary_lattice222 0 CCCI13 boundary_mesh1006 0 I17 boundary_p
olyline1008 0 CCCA16 index_map_offset0 0 1 dA9 index_map82 0 A17 node_id_index_m
ap82 0 A20 schema_embedding_map82 0 A5 child12 0 A14 lowest_node_id0 0 1 dA16 me
sh_offset_data206 0 Z1 253 2 3 0 0 0 0 0 0 0 1e3 1e-8 0 4 5 1 0 1 2 6 0 7 8 9 0
 0 10 11 12 0 0 0 0 0 0 0 81 255 1 2 247 13 1 14 0 0 0 15 70 11 CI9 list_type0 0
 1 uI10 notransmit0 0 1 lCCCDCCDI12 finger_index0 0 1 dI12 finger_block1012 0 CZ
3 0 4 T1 0 0 5 20 1 16 16 13 255 6 174 0 1 0 17 0 0 18 0 50 255 7 169 0 19 20 0
 0 +-1.5367 .818691148138101 6.3500168543909 -1 150129908673195e-30 -10310126258
27964e-31 150129908673195e-30 1 0 30 255 8 173 0 21 22 0 0 +-1.5367 .31617860421
4909 6.69511583033815 0 -.566107244007959 -.824331600923871 29 255 9 150 0 23 24
 0 -3.1115 .307640999341213 6.68268387938171 19 9 CCCCCCI5 frame230 0 CA5 owner1
2 0 Z10 1 0 1 18 0 25 0 V0 16 255 11 156 26 ?27 0 21 22 0 0 1 18 255 12 39 28 29
 0 30 31 ?1 81 1 28 223 32 12 0 0 33 34 35 17 255 29 0 36 37 38 12 39 40 0 41 +1
8 30 42 42 39 12 43 44 ?1 29 31 61 0 12 44 45 -3.1115 .316178604214908 6.6951158
3033814 29 44 60 0 30 46 31 -3.1115 1.321203692061292 6.00491787844364 29 45 153
 0 47 31 48 -1.5367 .307640999341214 6.68268387938171 18 47 141 49 50 51 0 45 ?1
 29 48 152 0 51 45 24 -1.5367 1.3126660871876 5.99248592748721 18 51 137 34 52 5
3 47 48 ?1 29 24 151 0 53 48 9 -3.1115 1.312666087187596 5.99248592748721 18 53
 133 54 55 23 51 24 ?1 81 1 54 218 32 53 0 0 0 42 56 17 55 0 57 58 59 53 60 61 0
 62 -18 23 129 33 60 63 53 9 ?1 81 1 33 222 32 23 0 0 64 28 65 17 60 0 66 41 62
 23 55 61 0 67 +18 63 48 64 37 43 23 68 ?1 81 1 64 221 32 63 0 0 49 33 69 17 37
 0 36 70 29 63 71 72 0 73 -18 43 45 74 70 30 63 46 ?1 29 68 58 0 63 0 46 -1.5367
 .316178604214909 6.69511583033815 29 46 59 0 43 68 44 -1.5367 1.321203692061294
 6.00491787844364 81 1 74 225 32 43 0 0 34 75 76 17 70 0 36 38 37 43 77 78 0 79
 -15 255 36 7 0 38 80 0 17 38 0 36 29 70 30 81 82 0 83 +17 77 0 84 85 79 63 70 7
8 0 0 +16 78 27 86 ?77 40 87 88 0 0 1 17 79 0 84 77 52 43 27 11 0 81 -15 84 164
 0 52 19 0 17 52 0 84 79 85 51 89 90 0 27 -17 27 0 91 92 81 51 79 11 0 58 +17 81
 0 91 27 83 43 38 82 0 0 -15 91 158 0 92 17 0 17 83 0 91 81 92 30 62 93 0 0 -16
 82 12 94 ?38 93 72 95 0 0 1 81 1 94 231 32 82 0 0 96 97 98 16 93 155 75 ?62 99
 82 100 0 0 1 16 72 18 101 ?71 82 40 102 0 0 1 30 95 57 0 82 102 103 0 +-2.3241
 1.321203692061294 6.00491787844364 -1 958117377779068e-31 -657984223294058e-31
 30 102 55 0 72 88 95 0 +-2.3241 .31617860421491 6.69511583033815 -1 71858803333
4301e-31 -493488167470544e-31 30 103 68 0 40 95 104 0 +-3.1115 4.31010642727111
 3.95229792775738 0 -.824331600923871 .566107244007959 16 40 21 105 ?29 72 78 10
3 0 0 1 30 104 149 0 90 103 106 0 +-1.5367 .810153543264406 6.33758490343446 -18
2123199577617e-30 -.824331600923871 .56610724400796 16 90 125 107 ?89 61 0 104 0
 0 1 30 106 148 0 108 104 109 0 +-2.3241 .307640999341215 6.68268387938171 -1 71
8588033334301e-31 -493488167470544e-31 16 108 115 97 ?59 87 61 106 0 0 1 30 109
 147 0 87 106 110 0 +-2.3241 1.3126660871876 5.99248592748721 -1 958117377779068
e-31 -657984223294058e-31 16 87 109 96 ?92 78 108 109 0 0 1 30 110 146 0 61 109
 111 0 +-3.1115 4.301568822397415 3.939865976800945 0 -.824331600923871 .5661072
44007959 16 61 121 112 ?60 108 90 110 0 0 1 30 111 170 0 99 110 100 0 +-3.1115 .
316178604214908 6.69511583033814 0 -.566107244007959 -.824331600923871 16 99 154
 113 ?67 21 93 111 0 0 1 30 100 171 0 93 111 22 0 +-3.1115 1.321203692061292 6.0
0491787844364 0 -.566107244007959 -.824331600923871 30 22 172 0 11 100 8 0 +-1.5
367 1.321203692061294 6.00491787844364 0 -.566107244007959 -.824331600923871 81
 1 113 228 32 99 0 0 114 26 115 17 67 0 116 50 71 23 41 99 0 59 +16 21 157 114 ?
85 11 99 8 0 0 1 81 1 114 227 32 21 0 0 75 113 117 17 85 0 84 52 77 47 73 21 0 8
9 +17 73 0 116 71 50 63 85 21 0 77 -17 89 0 57 59 58 47 52 90 0 0 +15 57 108 0 5
8 118 0 17 59 0 57 55 89 23 50 108 0 0 +17 58 0 57 89 55 51 92 87 0 0 -17 92 0 9
1 83 27 53 58 87 0 0 +17 50 0 116 73 67 47 59 108 0 85 -15 116 160 0 50 119 0 14
 255 119 161 120 ?121 19 116 6 122 -0 0 121 19 25 81 1 120 250 123 119 124 0 125
 126 127 14 121 163 126 ?80 119 66 6 20 +0 0 80 119 25 14 19 165 125 ?119 17 84
 6 7 -0 0 119 17 25 50 122 167 0 119 128 20 0 +-2.3241 .31617860421491 6.6951158
3033815 871722050360489e-31 .824331600923871 -.566107244007959 0 -.5661072440079
6 -.824331600923872 13 25 3 0 0 0 0 0 0 10 17 14 17 159 129 ?19 0 91 6 128 +0 0
 19 0 25 81 1 129 248 123 17 130 0 0 125 131 50 128 166 0 17 132 122 0 +-2.3241
 1.321203692061294 6.00491787844364 1162296067147318e-31 .824331600923871 -.5661
07244007959 0 -.56610724400796 -.824331600923872 50 132 145 0 118 133 128 0 +-.3
175 2.17465501836173 5.40051762535558 0 .56610724400796 .824331600923871 1 0 0 1
4 118 98 134 ?0 80 57 6 132 -0 0 0 80 25 50 133 71 0 80 0 132 0 +-.3175 2.183192
623235425 5.41294957631201 0 .56610724400796 .824331600923871 1 0 0 14 80 4 135
 ?118 121 36 6 133 +0 0 118 121 25 81 1 135 252 123 80 136 0 126 134 137 80 7 CC
CCCDI12 legal_owners0 17 1 lCZ1 123 0 138 8001 0 0 0 0 3 5 0 0 0 FFFFTFTFFFFFFFF
FF2 81 1 136 240 32 80 0 135 139 124 140 81 1 126 251 123 121 141 0 120 135 142
 81 1 134 253 123 118 139 0 135 0 143 83 255 3 137 .647058823529412 .64705882352
9412 .647058823529412 81 1 139 239 32 118 0 134 130 136 144 83 3 143 .6470588235
29412 .647058823529412 .647058823529412 80 1 32 145 146 9000 0 0 0 0 3 6 0 0 0 F
FTFTFTTFFFFFFFFF1 81 1 130 238 32 17 0 129 105 139 147 82 255 3 144 120 22 2 81
 1 105 237 32 40 0 0 112 130 148 82 3 147 120 21 2 81 1 112 236 32 61 0 0 86 105
 149 82 3 148 120 69 1 81 1 86 235 32 78 0 0 107 112 150 82 3 149 120 68 1 81 1
 107 234 32 90 0 0 101 86 151 82 3 150 120 67 1 81 1 101 233 32 72 0 0 97 107 15
2 82 3 151 120 66 1 81 1 97 232 32 108 0 0 94 101 153 82 3 152 120 65 1 82 3 153
 120 64 1 79 255 9 146 BTI/DetId81 1 141 243 32 121 0 126 154 155 156 83 3 142 .
647058823529412 .647058823529412 .647058823529412 81 1 154 242 32 19 0 125 124 1
41 157 81 1 155 244 32 1 0 158 141 0 159 82 3 156 120 32 2 81 1 158 245 160 1 15
5 14 0 0 161 82 3 159 120 4 3 80 1 160 162 163 8038 0 0 0 0 0 0 0 0 0 TTTTTTTTTT
TTTFTFT10 81 1 14 246 162 1 158 2 0 0 164 98 255 8 161 80 97 114 116 32 49 55 53
 80 1 162 165 166 8017 0 0 0 0 0 0 0 0 0 TTTTTTTTTTTTTFTFT3 84 255 8 164 Part 17
579 13 166 SDL/TYSA_NAME79 14 163 SDL/TYSA_UNAME81 1 125 249 123 19 154 0 129 12
0 167 81 1 124 241 32 119 0 120 136 154 168 82 3 157 120 31 2 82 3 168 120 30 2
 83 3 167 .647058823529412 .647058823529412 .647058823529412 82 3 140 120 23 2 7
9 15 138 SDL/TYSA_COLOUR83 3 131 .647058823529412 .647058823529412 .647058823529
412 50 20 168 0 121 122 7 0 +-3.1115 4.31010642727111 3.95229792775738 -1 0 0 0
 0 1 15 66 162 0 60 121 0 83 3 127 .647058823529412 .647058823529412 .6470588235
29412 17 71 0 116 67 73 12 37 72 0 0 +81 1 75 226 32 93 0 0 74 114 169 82 3 117
 120 18 1 82 3 169 120 13 1 17 41 0 66 39 60 12 67 99 0 71 -17 39 0 66 62 41 30
 29 40 0 38 -17 62 0 66 60 39 53 83 93 0 92 +81 1 26 229 32 11 0 0 113 96 170 82
 3 115 120 19 1 81 1 96 230 32 87 0 0 26 94 171 82 3 170 120 20 1 82 3 171 120 5
4 1 30 88 52 0 78 0 102 0 +-1.5367 .818691148138101 6.3500168543909 -18212319957
7617e-30 -.824331600923871 .56610724400796 82 3 98 120 55 1 81 1 34 224 32 51 0
 0 28 74 172 82 3 76 120 41 0 82 3 172 120 40 0 81 1 49 220 32 47 0 0 42 64 173
 82 3 69 120 37 0 81 1 42 219 32 30 0 0 54 49 174 82 3 173 120 36 0 82 3 174 120
 27 0 82 3 65 120 38 0 82 3 56 120 26 0 82 3 35 120 39 0 19 18 175 0 1 0 10 6 0
 S0 74 4 CI16 index_map_offset0 0 1 dCCZ20 16 5 0 0 155 158 14 2 134 0 0 0 0 0 0
 0 0 0 0 0 0 0 0 0 80 1 13 123 175 8040 0 0 0 0 3 5 0 0 0 TTTFFFFFFFFFFFFFF2 83
 3 15 .647058823529412 .647058823529412 .647058823529412 79 17 175 SDL/TYSA_COLO
UR_21 0 
