**ABCDEFGHIJKLMNOPQRSTUVWXYZabcdefghijklmnopqrstuvwxyz**************************
**PARASOLID !"#$%&'()*+,-./:;<=>?@[\]^_`{|}~0123456789**************************
**PART1;
MC=unknown;
MC_MODEL=unknown;
MC_ID=unknown;
OS=unknown;
OS_RELEASE=unknown;
FRU=Parasolid 36.0.180;
APPL=Onshape;
SITE=unknown;
USER=unknown;
FORMAT=text;
GUISE=transmit;
KEY=BTGapi::writeModels_.xmt;
FILE=BTGapi::writeModels_.xmt;
DATE=2024-05-15T00:06:35 (UTC);
**PART2;
SCH=SCH_3600180_36001;
USFLD_SIZE=0;
**PART3;
**END_OF_HEADER*****************************************************************
T51 : TRANSMIT FILE created by modeller version 360018023 SCH_3600180_36001_1300
6231 0 12 36 CCCI7 lattice222 0 CCCI4 mesh1006 0 I8 polyline1008 0 CCCCCCCDI5 ow
ner1040 0 CCCI16 boundary_lattice222 0 CCCI13 boundary_mesh1006 0 I17 boundary_p
olyline1008 0 CCCA16 index_map_offset0 0 1 dA9 index_map82 0 A17 node_id_index_m
ap82 0 A20 schema_embedding_map82 0 A5 child12 0 A14 lowest_node_id0 0 1 dA16 me
sh_offset_data206 0 Z1 347 2 3 0 0 0 0 0 0 0 1e3 1e-8 0 4 5 1 0 1 2 6 0 7 8 9 0
 0 10 11 12 0 0 0 0 0 0 0 81 255 1 2 339 13 1 14 0 0 0 15 70 11 CI9 list_type0 0
 1 uI10 notransmit0 0 1 lCCCDCCDI12 finger_index0 0 1 dI12 finger_block1012 0 CZ
3 0 4 T1 0 0 5 20 1 16 16 13 255 6 3 0 1 0 17 0 0 18 0 50 255 7 228 0 17 19 0 0
 +.09525 2.54 4.174193118566045 1 0 0 0 0 -1 30 255 8 234 0 11 20 0 0 +.09525 2.
54 4.07894311856604 0 1 0 29 255 9 199 0 21 22 0 1.4732 2.7305 2.70099311856604
 19 9 CCCCCCI5 frame230 0 CA5 owner12 0 Z10 1 0 1 18 0 23 0 V0 16 255 11 210 24
 ?25 0 26 8 0 0 1 18 255 12 48 27 28 0 29 30 ?1 81 1 27 299 31 12 0 0 32 33 34 1
7 255 28 0 35 36 37 12 38 39 0 40 +18 29 51 41 42 12 43 44 ?1 29 30 85 0 12 44 4
5 1.4732 2.54 2.70099311856604 29 44 84 0 29 46 30 1.4732 2.54 2.97040080219812
 29 45 204 0 47 30 48 .09525 2.7305 4.07894311856604 18 47 188 49 50 51 0 45 ?1
 29 48 203 0 51 45 52 .09525 2.7305 4.269443118566045 18 51 184 53 54 55 47 48 ?
1 29 52 202 0 55 48 56 .1057068814339582 2.7305 4.2799 18 55 180 33 57 58 51 52
 ?1 29 56 201 0 58 52 22 .163700802198116 2.7305 4.2799 18 58 176 59 60 61 55 56
 ?1 29 22 200 0 61 56 9 1.4732 2.7305 2.97040080219812 18 61 172 62 63 21 58 22
 ?1 81 1 62 304 31 61 0 0 64 41 65 17 63 0 66 67 60 61 68 69 0 70 +18 21 168 32
 67 71 61 9 ?1 81 1 32 298 31 21 0 0 0 27 72 17 67 0 66 50 63 21 73 74 0 36 +18
 71 66 75 76 77 21 78 ?1 81 1 75 307 31 71 0 0 49 53 79 17 76 0 80 25 81 71 40 8
2 0 83 +18 77 63 84 85 86 71 87 ?1 29 78 79 0 71 0 87 .09525 2.54 4.078943118566
04 29 87 80 0 77 78 88 .09525 2.54 4.269443118566045 29 88 81 0 86 87 46 .105706
8814339582 2.54 4.2799 18 86 60 89 90 43 77 88 ?1 29 46 82 0 43 88 44 .163700802
198116 2.54 4.2799 18 43 57 64 91 29 86 46 ?1 81 1 64 303 31 43 0 0 59 62 92 17
 91 0 93 94 95 43 96 97 0 98 -15 255 93 217 0 99 100 0 17 94 0 93 99 91 58 101 1
02 0 68 +17 95 0 93 91 99 86 103 104 0 0 -17 96 0 105 85 98 86 91 97 0 95 +16 97
 33 106 ?96 107 108 109 0 0 1 17 98 0 105 96 38 43 42 107 0 101 -15 105 7 0 83 1
10 0 17 38 0 105 98 40 29 28 39 0 37 -17 42 0 111 70 101 29 98 107 0 38 +16 107
 24 112 ?42 39 97 113 0 0 1 17 101 0 111 42 68 43 94 102 0 0 -15 111 215 0 68 11
4 0 17 68 0 111 101 70 58 63 69 0 0 -16 102 207 115 ?94 116 104 117 0 0 1 81 1 1
15 312 31 102 0 0 118 119 120 16 116 206 119 ?70 26 102 121 0 0 1 16 104 208 118
 ?103 102 122 123 0 0 1 30 117 231 0 102 121 123 0 +.163700802198116 2.54 4.2799
 0 1 0 30 121 230 0 116 124 117 0 +1.4732 2.54 2.97040080219812 0 1 0 30 123 232
 0 104 117 20 0 +.1057068814339582 2.54 4.2799 0 1 0 30 20 233 0 122 123 8 0 +.0
9525 2.54 4.269443118566045 0 1 0 16 122 209 125 ?126 104 82 20 0 0 1 81 1 125 3
15 31 122 0 0 24 127 128 17 126 0 129 130 131 51 132 122 0 133 +16 82 15 134 ?76
 122 39 135 0 0 1 81 1 134 321 31 82 0 0 136 137 138 16 39 21 139 ?28 82 107 140
 0 0 1 30 135 77 0 82 140 141 0 +.507140826477355 2.54 3.66705229208869 -.707106
781186548 0 .707106781186548 30 140 75 0 39 113 135 0 +1.4732 2.54 4.81838 0 0 -
1 30 141 198 0 142 135 143 0 +.09525 2.7305 4.174193118566045 0 0 1 16 142 164 1
44 ?133 145 0 141 0 0 1 30 143 197 0 145 141 146 0 +.10047844071698 2.7305 4.274
67155928302 .707106781186555 0 .70710678118654 16 145 160 147 ?57 148 142 143 0
 0 1 30 146 196 0 148 143 149 0 +.1347038418160374 2.7305 4.2799 -1 0 0 16 148 1
56 127 ?99 69 145 146 0 0 1 30 149 195 0 69 146 150 0 +.961325401099059 2.7305 3
.48227540109906 .707106781186548 0 -.707106781186547 16 69 150 137 ?63 74 148 14
9 0 0 1 30 150 194 0 74 149 151 0 +1.4732 2.7305 4.81838 0 0 -1 16 74 146 152 ?6
7 153 69 150 0 0 1 30 151 193 0 153 150 124 0 +.507140826477355 2.7305 3.6670522
9208869 -.707106781186548 0 .707106781186548 16 153 138 136 ?50 154 74 151 0 0 1
 30 124 229 0 26 151 121 0 +1.4732 2.54 2.70099311856604 0 1 0 16 26 205 155 ?36
 11 116 124 0 0 1 81 1 155 310 31 26 0 0 84 118 156 17 36 0 35 73 28 21 81 26 0
 157 +15 35 213 0 73 158 0 17 73 0 35 37 36 61 67 74 0 0 -17 81 0 80 76 157 12 3
6 26 0 0 -17 157 0 80 81 25 21 50 153 0 0 -15 80 211 0 157 159 0 17 25 0 80 157
 76 47 160 11 0 130 +17 50 0 66 133 67 47 157 153 0 25 +15 66 137 0 133 161 0 17
 133 0 66 57 50 51 130 142 0 0 +17 57 0 66 60 133 55 54 145 0 103 +17 130 0 129
 160 126 47 133 142 0 0 -15 129 221 0 130 17 0 17 160 0 129 131 130 71 25 11 0 0
 -17 131 0 129 126 160 77 83 154 0 0 +17 83 0 105 40 85 71 131 154 0 160 -16 154
 39 162 ?131 108 153 163 0 0 1 81 1 162 327 31 154 0 0 144 164 165 16 108 36 166
 ?90 97 154 167 0 0 1 30 163 69 0 154 0 167 0 +.09525 2.54 4.174193118566045 0 0
 1 30 167 70 0 108 163 109 0 +.10047844071698 2.54 4.27467155928302 .70710678118
6555 0 .70710678118654 30 109 71 0 97 167 113 0 +.1347038418160374 2.54 4.2799 -
1 0 0 30 113 74 0 107 109 140 0 +.961325401099059 2.54 3.48227540109906 .7071067
81186548 0 -.707106781186547 81 1 166 325 31 108 0 0 147 144 168 17 90 0 169 103
 132 86 85 108 0 96 +15 169 219 0 54 170 0 17 103 0 169 54 90 55 95 104 0 99 +17
 132 0 169 90 54 77 126 122 0 131 -17 85 0 105 83 96 77 90 108 0 132 -17 54 0 16
9 132 103 51 57 145 0 126 -17 99 0 93 95 94 55 60 148 0 0 +17 60 0 66 63 57 58 9
9 148 0 94 -14 255 170 220 171 ?110 100 169 6 19 -0 0 110 100 23 81 1 171 345 17
2 170 173 0 174 175 176 14 110 4 175 ?161 170 105 6 177 -0 0 161 170 23 14 100 2
18 174 ?170 114 93 6 178 +0 0 170 114 23 50 19 227 0 170 178 7 0 +.1004784407169
8 2.54 4.27467155928302 .70710678118654 0 -.707106781186555 -.707106781186555 0
 -.70710678118654 13 23 235 0 0 0 0 0 0 10 17 14 17 222 179 ?159 0 129 6 7 -0 0
 159 0 23 81 1 179 340 172 17 180 0 0 181 182 14 159 212 181 ?158 17 80 6 183 -0
 0 158 17 23 81 1 181 341 172 159 184 0 179 185 186 14 158 214 185 ?114 159 35 6
 187 -0 0 114 159 23 50 183 223 0 159 188 187 0 +.507140826477355 2.54 3.6670522
9208869 .707106781186547 0 .707106781186548 .707106781186548 0 -.707106781186547
 50 188 192 0 161 177 183 0 +-4440892098500625e-31 2.7305 2.345982161925595 0 1
 0 1 0 0 50 187 224 0 158 183 189 0 +1.4732 2.54 4.81838 -1 0 0 0 0 1 50 189 225
 0 114 187 178 0 +.961325401099059 2.54 3.48227540109906 -.707106781186547 0 -.7
07106781186548 -.707106781186548 0 .707106781186547 14 114 216 190 ?100 158 111
 6 189 -0 0 100 158 23 50 178 226 0 100 189 19 0 +.1347038418160374 2.54 4.2799
 0 0 1 1 0 0 81 1 190 343 172 114 191 0 185 174 192 80 7 CCCCCDI12 legal_owners0
 17 1 lCZ1 172 0 193 8001 0 0 0 0 3 5 0 0 0 FFFFTFTFFFFFFFFFF2 81 1 191 333 31 1
14 0 190 184 173 194 81 1 185 342 172 158 195 0 181 190 196 81 1 174 344 172 100
 164 0 190 171 197 83 255 3 192 .615686274509804 .811764705882353 .9294117647058
82 81 1 164 328 31 100 0 174 162 198 199 83 3 197 .615686274509804 .811764705882
353 .929411764705882 80 1 31 200 201 9000 0 0 0 0 3 6 0 0 0 FFTFTFTTFFFFFFFFF1 8
1 1 198 329 31 161 0 202 164 203 204 82 255 3 199 191 0 2 14 161 124 202 ?0 110
 66 6 188 +0 0 0 110 23 81 1 202 347 172 161 198 0 175 0 205 81 1 203 330 31 110
 0 175 198 195 206 82 3 204 191 1 2 81 1 175 346 172 110 203 0 171 202 207 81 1
 195 331 31 158 0 185 203 184 208 82 3 206 191 2 2 81 1 184 332 31 159 0 181 195
 191 209 82 3 208 191 6 2 82 3 209 191 7 2 83 3 207 .615686274509804 .8117647058
82353 .929411764705882 83 3 205 .615686274509804 .811764705882353 .9294117647058
82 79 255 9 201 BTI/DetId83 3 196 .615686274509804 .811764705882353 .92941176470
5882 81 1 173 334 31 170 0 171 191 180 210 82 3 194 191 9 2 81 1 180 335 31 17 0
 179 173 211 212 82 3 210 191 11 2 81 1 211 336 31 1 0 213 180 0 214 82 3 212 19
1 15 2 81 1 213 337 215 1 211 14 0 0 216 82 3 214 191 0 3 80 1 215 217 218 8038
 0 0 0 0 0 0 0 0 0 TTTTTTTTTTTTTFTFT10 81 1 14 338 217 1 213 2 0 0 219 98 255 8
 216 80 97 114 116 32 51 49 52 80 1 217 220 221 8017 0 0 0 0 0 0 0 0 0 TTTTTTTTT
TTTTFTFT3 84 255 8 219 Part 31479 13 221 SDL/TYSA_NAME79 14 218 SDL/TYSA_UNAME79
 15 193 SDL/TYSA_COLOUR50 177 88 0 110 0 188 0 +-4440892098500625e-31 2.54 2.345
982161925595 0 1 0 1 0 0 83 3 186 .615686274509804 .811764705882353 .92941176470
5882 83 3 182 .615686274509804 .811764705882353 .929411764705882 83 3 176 .61568
6274509804 .811764705882353 .929411764705882 81 1 147 324 31 145 0 0 112 166 222
 81 1 144 326 31 142 0 0 166 162 223 82 3 168 191 27 1 82 3 223 191 34 1 81 1 11
2 323 31 107 0 0 137 147 224 82 3 222 191 26 1 81 1 137 322 31 69 0 0 134 112 22
5 82 3 224 191 23 1 82 3 225 191 22 1 82 3 165 191 35 1 17 40 0 105 38 83 12 76
 82 0 81 -17 37 0 35 28 73 29 70 116 0 0 -17 70 0 111 68 42 61 37 116 0 73 +81 1
 84 309 31 77 0 0 53 155 226 81 1 118 311 31 104 0 0 155 115 227 82 3 156 191 0
 1 82 3 227 191 3 1 81 1 53 308 31 51 0 0 75 84 228 82 3 226 191 21 0 82 3 228 1
91 20 0 81 1 136 320 31 153 0 0 139 134 229 81 1 139 319 31 39 0 0 152 136 230 8
2 3 229 191 18 1 81 1 152 318 31 74 0 0 106 139 231 82 3 230 191 17 1 81 1 106 3
17 31 97 0 0 127 152 232 82 3 231 191 16 1 81 1 127 316 31 148 0 0 125 106 233 8
2 3 232 191 13 1 82 3 233 191 12 1 82 3 138 191 19 1 81 1 24 314 31 11 0 0 119 1
25 234 82 3 128 191 10 1 81 1 119 313 31 116 0 0 115 24 235 82 3 234 191 7 1 82
 3 235 191 6 1 82 3 120 191 4 1 81 1 59 302 31 58 0 0 89 64 236 82 3 92 191 9 0
 81 1 89 301 31 86 0 0 33 59 237 82 3 236 191 8 0 81 1 33 300 31 55 0 0 27 89 23
8 82 3 237 191 7 0 82 3 238 191 6 0 81 1 49 306 31 47 0 0 41 75 239 82 3 79 191
 15 0 81 1 41 305 31 29 0 0 62 49 240 82 3 239 191 14 0 82 3 240 191 13 0 82 3 7
2 191 0 0 82 3 65 191 12 0 82 3 34 191 1 0 19 18 236 0 1 0 10 6 0 S0 74 4 CI16 i
ndex_map_offset0 0 1 dCCZ20 16 5 0 0 211 213 14 2 202 0 0 0 0 0 0 0 0 0 0 0 0 0
 0 0 80 1 13 172 241 8040 0 0 0 0 3 5 0 0 0 TTTFFFFFFFFFFFFFF2 83 3 15 .61568627
4509804 .811764705882353 .929411764705882 79 17 241 SDL/TYSA_COLOUR_21 0 
