**ABCDEFGHIJKLMNOPQRSTUVWXYZabcdefghijklmnopqrstuvwxyz**************************
**PARASOLID !"#$%&'()*+,-./:;<=>?@[\]^_`{|}~0123456789**************************
**PART1;
MC=unknown;
MC_MODEL=unknown;
MC_ID=unknown;
OS=unknown;
OS_RELEASE=unknown;
FRU=Parasolid 36.0.180;
APPL=Onshape;
SITE=unknown;
USER=unknown;
FORMAT=text;
GUISE=transmit;
KEY=BTGapi::writeModels_.xmt;
FILE=BTGapi::writeModels_.xmt;
DATE=2024-05-15T00:06:35 (UTC);
**PART2;
SCH=SCH_3600180_36001;
USFLD_SIZE=0;
**PART3;
**END_OF_HEADER*****************************************************************
T51 : TRANSMIT FILE created by modeller version 360018023 SCH_3600180_36001_1300
6231 0 12 36 CCCI7 lattice222 0 CCCI4 mesh1006 0 I8 polyline1008 0 CCCCCCCDI5 ow
ner1040 0 CCCI16 boundary_lattice222 0 CCCI13 boundary_mesh1006 0 I17 boundary_p
olyline1008 0 CCCA16 index_map_offset0 0 1 dA9 index_map82 0 A17 node_id_index_m
ap82 0 A20 schema_embedding_map82 0 A5 child12 0 A14 lowest_node_id0 0 1 dA16 me
sh_offset_data206 0 Z1 170 2 3 0 0 0 0 0 0 0 1e3 1e-8 0 4 5 1 0 1 2 6 0 7 8 9 0
 0 10 11 12 0 0 0 0 0 0 0 81 255 1 2 164 13 1 14 0 0 0 15 70 11 CI9 list_type0 0
 1 uI10 notransmit0 0 1 lCCCDCCDI12 finger_index0 0 1 dI12 finger_block1012 0 CZ
3 0 4 T1 0 0 5 20 1 16 16 13 255 6 5 0 1 0 17 0 0 18 0 50 255 7 90 0 19 20 0 0 +
1.663702 0 3.99415 0 0 -1 1 0 0 30 255 8 98 0 21 22 0 0 +1.663702 -.09525 3.9941
5 -1 0 0 29 255 9 85 0 12 23 0 1.4732 -.09525 3.99415 19 9 CCCCCCI5 frame230 0 C
A5 owner12 0 Z10 1 0 1 18 0 24 0 V0 16 255 11 29 25 ?26 0 27 28 0 0 1 18 255 12
 53 29 26 0 30 9 ?1 81 1 29 141 31 12 0 0 32 33 34 17 255 26 0 35 36 37 12 38 11
 0 39 +18 30 57 40 38 12 41 23 ?1 81 1 40 139 31 30 0 0 42 32 43 17 38 0 44 45 3
9 30 26 11 0 37 -18 41 61 46 47 30 48 49 ?1 29 23 84 0 30 49 9 1.4732 -.15875 3.
99415 29 49 83 0 41 50 23 1.4732 -.15875 3.6576 29 50 82 0 48 51 49 1.4732 -.095
25 3.6576 18 48 65 52 53 41 54 50 ?1 29 51 81 0 54 55 50 1.6637 -.09525 3.6576 1
8 54 69 56 57 48 58 51 ?1 29 55 80 0 58 59 51 1.6637 -.15875 3.6576 18 58 70 42
 60 54 61 55 ?1 29 59 79 0 61 62 55 1.6637 -.15875 3.99415 18 61 71 32 45 58 63
 59 ?1 29 62 78 0 63 0 59 1.6637 -.09525 3.99415 18 63 72 33 64 61 0 62 ?1 81 1
 33 142 31 63 0 0 29 65 66 17 64 0 67 68 69 63 39 21 0 70 -15 255 67 11 0 71 72
 0 17 68 0 67 71 64 54 73 74 0 0 -17 69 0 67 64 71 12 36 75 0 0 +17 39 0 44 38 7
0 12 64 21 0 69 +16 21 45 76 ?39 75 77 8 0 0 1 17 70 0 44 39 45 63 78 79 0 73 +1
5 44 20 0 70 19 0 17 45 0 44 70 38 61 80 77 0 81 -17 78 0 82 83 73 61 70 79 0 0
 -16 79 52 84 ?70 85 0 86 0 0 1 17 73 0 82 78 87 63 68 74 0 0 +15 82 8 0 73 17 0
 17 87 0 82 73 83 54 88 89 0 68 +16 74 50 90 ?73 89 85 91 0 0 1 81 1 90 152 31 7
4 0 0 92 93 94 16 89 49 95 ?87 96 74 97 0 0 1 16 85 51 98 ?81 74 79 99 0 0 1 30
 91 92 0 74 97 99 0 +1.6637 -.09525 3.825875 0 0 1 30 97 91 0 89 100 91 0 +1.663
7 0 3.6576 0 1 0 30 99 93 0 85 91 86 0 +1.6637 -.15875 3.825875 0 0 1 30 86 94 0
 79 99 101 0 +1.6637 0 3.99415 0 1 0 30 101 95 0 96 86 102 0 +1.663702 -.09525 3
.6576 -1 0 0 16 96 48 65 ?71 103 89 101 0 0 1 30 102 96 0 103 101 22 0 +1.663702
 -.15875 3.6576 -1 0 0 16 103 47 104 ?105 77 96 102 0 0 1 30 22 97 0 77 102 8 0
 +1.663702 -.15875 3.99415 -1 0 0 16 77 46 106 ?80 21 103 22 0 0 1 81 1 106 145
 31 77 0 0 104 76 107 17 80 0 108 47 81 30 45 77 0 0 +15 108 17 0 81 109 0 17 47
 0 108 60 80 41 37 27 0 110 -17 81 0 108 80 60 61 83 85 0 78 +17 60 0 108 81 47
 58 105 103 0 88 -17 83 0 82 87 78 58 81 85 0 0 -17 105 0 111 53 88 41 60 103 0
 0 +17 88 0 111 105 57 58 87 89 0 83 -15 111 14 0 105 112 0 17 57 0 111 88 53 54
 71 96 0 87 -17 53 0 111 57 105 48 110 113 0 36 +17 71 0 67 69 68 48 57 96 0 0 +
17 110 0 35 37 36 41 53 113 0 105 -16 113 37 114 ?53 27 75 115 0 0 1 17 36 0 35
 110 26 48 69 75 0 71 -15 35 28 0 36 116 0 16 75 41 92 ?69 113 21 117 0 0 1 81 1
 92 151 31 75 0 0 84 90 118 30 117 76 0 75 115 100 0 +1.4732 -.09525 3.825875 0
 0 1 30 115 75 0 113 28 117 0 +1.4732 0 3.6576 0 1 0 30 100 77 0 27 117 97 0 +1.
4732 -.15875 3.825875 0 0 1 16 27 33 93 ?37 11 113 100 0 0 1 81 1 93 153 31 27 0
 0 90 98 119 17 37 0 35 26 110 30 47 27 0 80 +80 7 CCCCCDI12 legal_owners0 17 1
 lCZ1 31 120 121 9000 0 0 0 0 3 6 0 0 0 FFTFTFTTFFFFFFFFF1 81 1 98 154 31 85 0 0
 93 122 123 82 255 3 119 124 140 1 81 1 122 155 31 112 0 124 98 125 126 82 3 123
 124 141 1 14 255 112 12 124 ?109 72 111 6 127 +0 0 109 72 24 81 1 124 167 128 1
12 122 0 129 130 131 81 1 125 156 31 116 0 132 122 133 134 82 3 126 124 18 2 14
 116 21 132 ?0 19 35 6 135 -0 0 0 19 24 81 1 132 170 128 116 125 0 136 0 137 81
 1 133 157 31 17 0 138 125 139 140 82 3 134 124 19 2 14 17 6 138 ?72 0 82 6 141
 +0 0 72 0 24 81 1 138 165 128 17 133 0 0 129 142 81 1 139 158 31 19 0 136 133 1
43 144 82 3 140 124 20 2 14 19 18 136 ?116 109 44 6 7 -0 0 116 109 24 81 1 136 1
69 128 19 139 0 130 132 145 81 1 143 159 31 72 0 129 139 146 147 82 3 144 124 41
 2 14 72 9 129 ?112 17 67 6 148 +0 0 112 17 24 81 1 129 166 128 72 143 0 138 124
 149 81 1 146 160 31 109 0 130 143 150 151 82 3 147 124 69 2 14 109 15 130 ?19 1
12 108 6 20 -0 0 19 112 24 81 1 130 168 128 109 146 0 124 136 152 81 1 150 161 3
1 1 0 153 146 0 154 82 3 151 124 70 2 81 1 153 162 155 1 150 14 0 0 156 82 3 154
 124 6 3 80 1 155 157 158 8038 0 0 0 0 0 0 0 0 0 TTTTTTTTTTTTTFTFT10 81 1 14 163
 157 1 153 2 0 0 159 98 255 8 156 80 97 114 116 32 50 48 52 80 1 157 160 161 801
7 0 0 0 0 0 0 0 0 0 TTTTTTTTTTTTTFTFT3 84 255 8 159 Part 20479 255 13 161 SDL/TY
SA_NAME79 14 158 SDL/TYSA_UNAME80 1 128 0 162 8001 0 0 0 0 3 5 0 0 0 FFFFTFTFFFF
FFFFFF2 83 255 3 152 .231372549019608 .380392156862745 .705882352941177 79 15 16
2 SDL/TYSA_COLOUR50 20 89 0 109 148 7 0 +1.663702 -.15875 3.825875 0 1 0 0 0 1 1
3 24 3 0 0 0 0 0 0 10 17 50 148 88 0 72 127 20 0 +1.663702 -.09525 3.825875 0 1
 0 0 0 1 50 127 87 0 112 141 148 0 +1.663702 0 3.6576 0 0 -1 1 0 0 50 141 86 0 1
7 135 127 0 +1.6637 0 2.40919 1 0 0 0 -1 0 50 135 73 0 116 0 141 0 +1.4732 0 3.2
81358674698795 1 0 0 0 -1 0 83 3 149 .231372549019608 .380392156862745 .70588235
2941177 83 3 145 .231372549019608 .380392156862745 .705882352941177 83 3 142 .23
1372549019608 .380392156862745 .705882352941177 83 3 137 .231372549019608 .38039
2156862745 .705882352941177 83 3 131 .231372549019608 .380392156862745 .70588235
2941177 79 9 121 BTI/DetId30 28 74 0 11 0 115 0 +1.4732 0 3.99415 0 1 0 81 1 84
 150 31 79 0 0 25 92 163 82 3 118 124 138 1 81 1 25 149 31 11 0 0 95 84 164 82 3
 163 124 83 1 81 1 95 148 31 89 0 0 114 25 165 82 3 164 124 82 1 81 1 114 147 31
 113 0 0 76 95 166 82 3 165 124 61 1 81 1 76 146 31 21 0 0 106 114 167 82 3 166
 124 60 1 82 3 167 124 46 1 81 1 104 144 31 103 0 0 65 106 168 82 3 107 124 43 1
 81 1 65 143 31 96 0 0 33 104 169 82 3 168 124 42 1 82 3 169 124 41 1 82 3 94 12
4 139 1 82 3 66 124 93 0 81 1 32 140 31 61 0 0 40 29 170 82 3 170 124 87 0 81 1
 42 138 31 58 0 0 46 40 171 81 1 46 137 31 41 0 0 56 42 172 82 3 171 124 85 0 81
 1 56 136 31 54 0 0 52 46 173 82 3 172 124 84 0 81 1 52 135 31 48 0 0 0 56 174 8
2 3 173 124 83 0 82 3 174 124 82 0 82 3 43 124 86 0 82 3 34 124 92 0 19 18 4 0 1
 0 10 6 0 S0 74 4 CI16 index_map_offset0 0 1 dCCZ20 16 5 0 0 150 153 14 2 132 0
 0 0 0 0 0 0 0 0 0 0 0 0 0 0 80 1 13 128 175 8040 0 0 0 0 3 5 0 0 0 TTTFFFFFFFFF
FFFFF2 83 3 15 .231372549019608 .380392156862745 .705882352941177 79 17 175 SDL/
TYSA_COLOUR_21 0 
