**ABCDEFGHIJKLMNOPQRSTUVWXYZabcdefghijklmnopqrstuvwxyz**************************
**PARASOLID !"#$%&'()*+,-./:;<=>?@[\]^_`{|}~0123456789**************************
**PART1;
MC=unknown;
MC_MODEL=unknown;
MC_ID=unknown;
OS=unknown;
OS_RELEASE=unknown;
FRU=Parasolid 36.0.180;
APPL=Onshape;
SITE=unknown;
USER=unknown;
FORMAT=text;
GUISE=transmit;
KEY=BTGapi::writeModels_.xmt;
FILE=BTGapi::writeModels_.xmt;
DATE=2024-05-15T00:06:35 (UTC);
**PART2;
SCH=SCH_3600180_36001;
USFLD_SIZE=0;
**PART3;
**END_OF_HEADER*****************************************************************
T51 : TRANSMIT FILE created by modeller version 360018023 SCH_3600180_36001_1300
6231 0 12 36 CCCI7 lattice222 0 CCCI4 mesh1006 0 I8 polyline1008 0 CCCCCCCDI5 ow
ner1040 0 CCCI16 boundary_lattice222 0 CCCI13 boundary_mesh1006 0 I17 boundary_p
olyline1008 0 CCCA16 index_map_offset0 0 1 dA9 index_map82 0 A17 node_id_index_m
ap82 0 A20 schema_embedding_map82 0 A5 child12 0 A14 lowest_node_id0 0 1 dA16 me
sh_offset_data206 0 Z1 2645 2 3 0 0 0 0 0 0 0 1e3 1e-8 0 4 5 1 0 1 2 6 0 7 8 9 0
 0 10 11 12 0 0 0 0 0 0 0 81 255 1 2 2639 13 1 14 0 0 0 15 70 11 CI9 list_type0
 0 1 uI10 notransmit0 0 1 lCCCDCCDI12 finger_index0 0 1 dI12 finger_block1012 0
 CZ3 0 4 T1 0 0 5 20 1 16 16 13 255 6 2299 0 1 0 17 0 0 18 0 50 255 7 2294 0 17
 19 0 0 +1.6637 2.593975 4.81838 1 0 0 0 0 1 30 255 8 2298 0 11 20 0 0 +1.6637 2
.7305 4.81838 0 0 -1 29 255 9 2275 0 21 22 0 1.4732 2.7305 0 19 9 CCCCCCI5 frame
230 0 CA5 owner12 0 Z10 861 0 1 18 0 23 0 V0 16 255 11 2282 24 ?25 0 26 8 0 0 1
 18 255 12 755 27 28 0 21 29 ?1 81 1 27 2626 30 12 0 0 31 32 33 17 255 28 0 34 3
5 36 12 37 38 0 39 +18 21 2254 40 41 12 42 9 ?1 29 29 757 0 12 43 44 1.4732 2.54
 4.81838 29 43 2583 0 45 46 29 1.6637 2.7305 4.68755469879518 29 44 2278 0 47 29
 48 1.6637 2.7305 0 18 47 2266 49 25 50 45 44 ?1 29 48 2277 0 50 44 22 1.6637 2.
54 0 18 50 2262 51 52 42 47 48 ?1 29 22 2276 0 42 48 9 1.4732 2.54 0 18 42 2258
 53 54 21 50 22 ?1 81 1 53 2392 30 42 0 0 51 40 55 17 54 0 56 57 58 42 52 59 0 6
0 +15 255 56 2197 0 58 61 0 17 57 0 56 62 54 21 63 64 0 65 -17 58 0 56 54 62 50
 66 67 0 0 +17 52 0 68 69 60 50 54 59 0 70 -16 59 2212 71 ?54 64 72 73 0 0 1 17
 60 0 68 52 39 42 74 75 0 63 +15 68 2285 0 52 76 0 17 39 0 68 60 69 12 35 77 0 7
4 +17 74 0 78 37 63 12 60 75 0 0 -16 75 2280 79 ?60 26 80 81 0 0 1 17 63 0 78 74
 41 42 57 64 0 0 +15 78 2434 0 37 82 0 17 41 0 78 63 37 21 83 26 0 57 +16 64 219
8 84 ?63 77 59 85 0 0 1 81 1 84 2406 30 64 0 0 71 86 87 16 77 240 88 ?39 80 64 8
9 0 0 1 30 85 2271 0 64 73 90 0 +1.4732 2.6416 0 0 -1 0 30 73 2272 0 59 91 85 0
 +1.651 2.54 0 -1 0 0 30 90 2295 0 26 85 81 0 +1.4732 2.7305 4.81838 0 0 -1 16 2
6 2279 92 ?41 11 75 90 0 0 1 30 81 2296 0 75 90 20 0 +1.4732 2.54 4.81838 0 0 -1
 30 20 2297 0 80 81 8 0 +1.6637 2.54 4.81838 0 0 -1 16 80 2281 93 ?70 75 77 20 0
 0 1 81 1 93 2397 30 80 0 0 40 79 94 17 70 0 95 66 96 50 69 80 0 58 +15 95 2289
 0 97 17 0 17 66 0 95 97 70 47 58 67 0 0 -17 96 0 95 70 97 98 99 100 0 69 +17 69
 0 68 39 52 98 70 80 0 0 -18 98 2517 31 35 101 0 102 ?1 81 1 31 2625 30 98 0 0 1
03 27 104 17 35 0 34 99 28 98 39 77 0 96 -18 101 2515 103 36 45 98 46 ?1 29 102
 2586 0 98 0 46 1.6637 2.54 4.81838 29 46 2584 0 101 102 43 1.4732 2.7305 4.6875
5469879518 81 1 103 2624 30 101 0 0 105 31 106 17 36 0 34 28 99 101 107 108 0 37
 -18 45 2514 105 99 47 101 43 ?1 81 1 105 2623 30 45 0 0 109 103 110 17 99 0 34
 36 35 45 96 100 0 107 -15 34 2538 0 36 111 0 16 100 2474 112 ?96 67 108 113 0 0
 1 17 107 0 114 25 83 45 36 108 0 97 +15 114 2287 0 83 115 0 17 25 0 114 65 107
 47 97 11 0 62 +17 83 0 114 107 65 101 41 26 0 0 -16 108 2471 32 ?107 100 38 116
 0 0 1 17 97 0 95 96 66 45 25 11 0 0 -81 1 32 2627 30 108 0 0 27 112 117 16 38 2
468 118 ?28 108 0 119 0 0 1 30 116 2568 0 108 119 113 0 +1.651 2.7305 4.68755469
879518 1 0 0 30 119 2569 0 38 0 116 0 +1.4732 2.60903949496942 4.77096733478004
 0 -.824331600923871 .56610724400796 30 113 2567 0 100 116 89 0 +1.6637 2.576677
231702505 4.79319202160189 0 -.824331600923871 .56610724400796 30 89 242 0 77 11
3 120 0 +1.651 2.54 4.81838 -1 0 0 30 120 2274 0 67 89 91 0 +1.6637 2.593975 0 0
 -1 0 16 67 2240 121 ?58 72 100 120 0 0 1 30 91 2273 0 72 120 73 0 +1.651 2.7305
 0 1 0 0 16 72 2226 122 ?62 59 67 91 0 0 1 81 1 122 2400 30 72 0 0 79 121 123 17
 62 0 56 58 57 47 65 72 0 66 +17 65 0 114 83 25 21 62 72 0 0 -80 7 CCCCCDI12 leg
al_owners0 17 1 lCZ1 30 124 125 9000 0 0 0 0 3 6 0 0 0 FFTFTFTTFFFFFFFFF1 81 1 7
9 2398 30 75 0 0 93 122 126 81 1 121 2402 30 67 0 0 122 71 127 82 255 3 123 9 16
 1 81 1 71 2404 30 59 0 0 121 84 128 82 3 127 9 18 1 82 3 128 9 20 1 82 3 126 9
 14 1 79 255 9 125 BTI/DetId81 1 118 2630 30 38 0 0 88 24 129 81 1 88 2629 30 77
 0 0 112 118 130 81 1 24 2631 30 11 0 0 118 92 131 82 3 129 78 7 1 81 1 92 2632
 30 26 0 0 24 132 133 82 3 131 78 22 1 81 1 132 2633 30 115 0 134 92 135 136 82
 3 133 78 23 1 14 255 115 2288 134 ?82 17 114 6 19 +0 0 82 17 23 81 1 134 2641 1
37 115 132 0 138 139 140 81 1 135 2634 30 17 0 138 132 141 142 82 3 136 78 3 2 1
4 17 2290 138 ?115 0 95 6 7 +0 0 115 0 23 81 1 138 2640 137 17 135 0 0 134 143 8
1 1 141 2635 30 82 0 139 135 144 145 82 3 142 78 4 2 14 82 2284 139 ?76 115 78 6
 146 -0 0 76 115 23 81 1 139 2642 137 82 141 0 134 147 148 81 1 144 2636 30 111
 0 149 141 0 150 82 3 145 78 5 2 14 111 2535 149 ?0 61 34 6 151 +0 0 0 61 23 81
 1 149 2645 137 111 144 0 152 0 153 82 3 150 78 19 2 80 1 137 0 154 8001 0 0 0 0
 3 5 0 0 0 FFFFTFTFFFFFFFFFF2 81 1 152 2644 137 61 86 0 147 149 155 83 255 3 153
 .596078431372549 .176470588235294 .0509803921568627 14 61 2133 152 ?111 76 56 6
 156 -0 0 111 76 23 81 1 86 2409 30 61 0 152 84 157 158 81 1 147 2643 137 76 157
 0 139 152 159 83 3 155 .596078431372549 .176470588235294 .0509803921568627 14 7
6 2286 147 ?61 82 68 6 160 +0 0 61 82 23 81 1 157 2412 30 76 0 147 86 109 161 83
 3 159 .596078431372549 .176470588235294 .0509803921568627 81 1 109 2414 30 1 0
 162 157 105 163 82 3 161 9 10 2 81 1 162 2637 164 1 109 14 0 0 165 82 3 163 9 1
 3 80 1 164 166 167 8038 0 0 0 0 0 0 0 0 0 TTTTTTTTTTTTTFTFT10 81 1 14 2638 166
 1 162 2 0 0 168 98 255 6 165 105 98 101 97 109 52 80 1 166 169 170 8017 0 0 0 0
 0 0 0 0 0 TTTTTTTTTTTTTFTFT3 84 255 6 168 ibeam479 13 170 SDL/TYSA_NAME79 14 16
7 SDL/TYSA_UNAME50 160 2292 0 76 146 19 0 +1.651 2.54 4.81838 0 -1 0 0 0 1 13 23
 862 0 0 0 0 0 0 10 17 50 146 2291 0 82 156 160 0 +1.4732 2.6416 4.81838 1 0 0 0
 0 1 50 19 2293 0 115 160 7 0 +1.651 2.7305 4.81838 0 1 0 0 0 -1 50 156 2270 0 6
1 151 146 0 +1.4732 2.565913819923475 0 0 0 1 -1 0 0 50 151 2561 0 111 0 156 0 +
2.13106 4.33742032019782 3.584007009020775 0 .56610724400796 .824331600923871 0
 -.824331600923871 .56610724400796 82 3 158 9 7 2 79 15 154 SDL/TYSA_COLOUR83 3
 148 .596078431372549 .176470588235294 .0509803921568627 83 3 143 .5960784313725
49 .176470588235294 .0509803921568627 83 3 140 .596078431372549 .176470588235294
 .0509803921568627 81 1 112 2628 30 100 0 0 32 88 171 82 3 130 78 6 1 82 3 171 7
8 5 1 82 3 117 78 4 1 82 3 110 78 2 0 17 37 0 78 41 74 101 28 38 0 83 -82 3 106
 78 3 0 82 3 104 78 18 0 81 1 40 2394 30 21 0 0 53 93 172 82 3 94 9 13 1 82 3 17
2 9 14 0 82 3 87 9 22 1 81 1 51 2390 30 50 0 0 49 53 173 82 3 55 9 12 0 81 1 49
 2388 30 47 0 0 0 51 174 82 3 173 9 10 0 82 3 174 9 8 0 82 3 33 78 19 0 19 18 23
00 0 1 0 10 6 0 S0 74 4 CI16 index_map_offset0 0 1 dCCZ20 16 5 0 0 144 162 14 2
 149 0 0 0 0 0 0 0 0 0 0 0 0 0 0 0 80 1 13 137 175 8040 0 0 0 0 3 5 0 0 0 TTTFFF
FFFFFFFFFFF2 83 3 15 .596078431372549 .176470588235294 .0509803921568627 79 17 1
75 SDL/TYSA_COLOUR_21 0 
