**ABCDEFGHIJKLMNOPQRSTUVWXYZabcdefghijklmnopqrstuvwxyz**************************
**PARASOLID !"#$%&'()*+,-./:;<=>?@[\]^_`{|}~0123456789**************************
**PART1;
MC=unknown;
MC_MODEL=unknown;
MC_ID=unknown;
OS=unknown;
OS_RELEASE=unknown;
FRU=Parasolid 36.0.180;
APPL=Onshape;
SITE=unknown;
USER=unknown;
FORMAT=text;
GUISE=transmit;
KEY=BTGapi::writeModels_.xmt;
FILE=BTGapi::writeModels_.xmt;
DATE=2024-05-15T00:06:35 (UTC);
**PART2;
SCH=SCH_3600180_36001;
USFLD_SIZE=0;
**PART3;
**END_OF_HEADER*****************************************************************
T51 : TRANSMIT FILE created by modeller version 360018023 SCH_3600180_36001_1300
6231 0 12 36 CCCI7 lattice222 0 CCCI4 mesh1006 0 I8 polyline1008 0 CCCCCCCDI5 ow
ner1040 0 CCCI16 boundary_lattice222 0 CCCI13 boundary_mesh1006 0 I17 boundary_p
olyline1008 0 CCCA16 index_map_offset0 0 1 dA9 index_map82 0 A17 node_id_index_m
ap82 0 A20 schema_embedding_map82 0 A5 child12 0 A14 lowest_node_id0 0 1 dA16 me
sh_offset_data206 0 Z1 597 2 3 0 0 0 0 0 0 0 1e3 1e-8 0 4 5 1 0 1 2 6 0 7 8 9 0
 0 10 11 12 0 0 0 0 0 0 0 81 255 1 2 591 13 1 14 0 0 0 15 70 11 CI9 list_type0 0
 1 uI10 notransmit0 0 1 lCCCDCCDI12 finger_index0 0 1 dI12 finger_block1012 0 CZ
3 0 4 T1 0 0 5 20 1 16 16 13 255 6 544 0 1 0 17 0 0 18 0 50 255 7 539 0 19 20 0
 0 +-1.8923 -4.336278955600445 3.93432402276013 0 .824331600923871 .566107244007
959 0 -.56610724400796 .824331600923872 30 255 8 543 0 21 22 0 0 +-.6731 -4.3362
78955600445 3.93432402276013 0 .566107244007959 -.824331600923871 29 255 9 520 0
 23 24 0 -3.1115 -4.32774135072675 3.921892071803695 19 9 CCCCCCI5 frame230 0 CA
5 owner12 0 Z10 427 0 1 18 0 25 0 V0 16 255 11 525 26 ?27 0 28 29 0 0 1 18 255 1
2 306 30 31 0 32 33 ?1 81 1 30 563 34 12 0 0 35 36 37 17 255 31 0 38 39 40 12 41
 28 0 42 -18 32 301 43 44 12 45 46 ?1 29 33 308 0 12 46 47 -3.1115 -4.3362789556
00445 3.934324022760125 29 46 303 0 32 48 33 -3.1115 -3.33125386775406 4.6245219
7465463 29 47 523 0 49 33 50 -.6731 -4.32774135072675 3.921892071803695 18 49 51
1 36 51 52 0 47 ?1 29 50 522 0 52 47 24 -.6731 -3.322716262880365 4.612090023698
2 18 52 507 53 54 55 49 50 ?1 29 24 521 0 55 50 9 -3.1115 -3.322716262880365 4.6
120900236982 18 55 503 56 27 23 52 24 ?1 81 1 56 566 34 55 0 0 57 43 58 17 27 0
 38 40 39 55 44 11 0 59 +18 23 499 35 41 60 55 9 ?1 81 1 35 562 34 23 0 0 0 30 6
1 17 41 0 62 51 42 23 31 28 0 63 +18 60 281 57 64 45 23 65 ?1 81 1 57 565 34 60
 0 0 36 56 66 17 64 0 67 68 69 60 42 70 0 71 +18 45 286 72 68 32 60 48 ?1 29 65
 283 0 60 0 48 -.6731 -4.336278955600445 3.93432402276013 29 48 288 0 45 65 46 -
.6731 -3.33125386775406 4.62452197465463 81 1 72 569 34 45 0 0 53 73 74 17 68 0
 67 75 64 45 76 77 0 78 +15 255 67 14 0 75 79 0 17 75 0 67 69 68 32 80 81 0 39 -
17 76 0 82 83 78 60 68 77 0 0 -16 77 92 84 ?68 81 70 85 0 0 1 17 78 0 82 76 86 4
5 54 87 0 80 -15 82 532 0 86 88 0 17 86 0 82 78 83 52 89 90 0 91 +17 54 0 92 59
 80 52 78 87 0 86 +16 87 526 93 ?54 21 94 22 0 0 1 17 80 0 92 54 44 45 75 81 0 0
 +15 92 530 0 59 17 0 17 44 0 92 80 59 32 27 11 0 75 -16 81 97 95 ?80 94 77 96 0
 0 1 81 1 95 577 34 81 0 0 97 98 99 16 94 112 100 ?39 87 81 101 0 0 1 30 96 99 0
 81 85 102 0 +-1.1049 -3.331253867754065 4.62452197465463 1 0 0 30 85 94 0 77 10
3 96 0 +-.6731 -3.833766411677255 4.27942299870738 -1821231995776175e-31 .824331
600923871 .566107244007959 30 102 519 0 104 96 105 0 +-3.1115 -4.301568822397415
 3.939865976800945 0 .824331600923871 .566107244007959 16 104 477 98 ?106 70 107
 102 0 0 1 30 105 518 0 108 102 109 0 +-1.8923 -4.32774135072675 3.9218920718036
95 1 0 0 16 108 493 110 ?51 90 0 105 0 0 1 30 109 517 0 90 105 111 0 +-.6731 -3.
82522880680356 4.26699104775095 -1821231995776175e-31 .824331600923871 .56610724
4007959 16 90 489 112 ?86 107 108 109 0 0 1 30 111 516 0 107 109 113 0 +-1.1049
 -3.32271626288037 4.6120900236982 1 0 0 16 107 481 97 ?91 104 90 111 0 0 1 30 1
13 540 0 28 111 29 0 +-3.1115 -4.336278955600445 3.934324022760125 0 .5661072440
07959 -.824331600923871 16 28 524 73 ?41 11 21 113 0 0 1 30 29 541 0 11 113 22 0
 +-3.1115 -3.33125386775406 4.62452197465463 0 .566107244007959 -.82433160092387
1 30 22 542 0 87 29 8 0 +-.6731 -3.33125386775406 4.62452197465463 0 .5661072440
07959 -.824331600923871 81 1 73 570 34 28 0 0 72 114 115 16 21 527 114 ?83 28 87
 8 0 0 1 81 1 114 571 34 21 0 0 73 26 116 17 83 0 82 86 76 49 71 21 0 89 +17 71
 0 62 42 51 60 83 21 0 76 -17 89 0 117 63 91 49 86 90 0 0 -15 117 476 0 91 118 0
 17 63 0 117 106 89 23 51 108 0 40 -17 91 0 117 89 106 52 59 107 0 0 +17 106 0 1
17 91 63 55 40 104 0 0 +17 59 0 92 44 54 55 91 107 0 106 -17 40 0 38 31 27 23 10
6 104 0 0 -15 38 528 0 40 119 0 14 255 119 529 120 ?19 17 38 6 121 +0 0 19 17 25
 81 1 120 593 122 119 123 0 124 125 126 14 19 535 125 ?88 119 62 6 7 -0 0 88 119
 25 14 17 531 124 ?119 0 92 6 127 +0 0 119 0 25 50 121 536 0 119 128 127 0 +-3.1
115 -4.31010642727111 3.95229792775738 -1 0 0 0 0 1 13 25 433 0 0 0 0 0 0 10 17
 50 128 515 0 118 129 121 0 +-.3175 -2.17465501836173 5.40051762535558 0 -.56610
724400796 .824331600923871 1 0 0 50 127 537 0 17 121 20 0 +-1.1049 -3.3312538677
54065 4.62452197465463 0 .824331600923871 .566107244007959 0 -.56610724400796 .8
24331600923872 50 20 538 0 88 127 7 0 +-.6731 -3.833766411677255 4.2794229987073
8 -1 -150129908673195e-30 -1031012625827964e-31 150129908673195e-30 -1 0 14 88 5
33 130 ?79 19 82 6 20 -0 0 79 19 25 81 1 130 595 122 88 131 0 125 132 133 14 79
 11 132 ?118 88 67 6 129 +0 0 118 88 25 81 1 132 596 122 79 134 0 130 135 136 14
 118 465 135 ?0 79 117 6 128 -0 0 0 79 25 50 129 3 0 79 0 128 0 +-.3175 -2.18319
2623235425 5.41294957631201 0 -.56610724400796 .824331600923871 1 0 0 81 1 135 5
97 122 118 137 0 132 0 138 80 7 CCCCCDI12 legal_owners0 17 1 lCZ1 122 0 139 8001
 0 0 0 0 3 5 0 0 0 FFFFTFTFFFFFFFFFF2 81 1 137 583 34 118 0 135 140 134 141 83 2
55 3 138 .513725490196078 .415686274509804 .733333333333333 80 1 34 142 143 9000
 0 0 0 0 3 6 0 0 0 FFTFTFTTFFFFFFFFF1 81 1 140 582 34 19 0 125 84 137 144 81 1 1
34 584 34 79 0 132 137 145 146 82 255 3 141 119 1 2 81 1 145 585 34 17 0 124 134
 123 147 82 3 146 119 2 2 81 1 124 592 122 17 145 0 0 120 148 81 1 123 586 34 11
9 0 120 145 131 149 82 3 147 119 3 2 81 1 131 587 34 88 0 130 123 150 151 82 3 1
49 119 4 2 81 1 150 588 34 1 0 152 131 0 153 82 3 151 119 5 2 81 1 152 589 154 1
 150 14 0 0 155 82 3 153 119 0 3 80 1 154 156 157 8038 0 0 0 0 0 0 0 0 0 TTTTTTT
TTTTTTFTFT10 81 1 14 590 156 1 152 2 0 0 158 98 255 8 155 80 97 114 116 32 49 54
 53 80 1 156 159 160 8017 0 0 0 0 0 0 0 0 0 TTTTTTTTTTTTTFTFT3 84 255 8 158 Part
 16579 255 13 160 SDL/TYSA_NAME79 14 157 SDL/TYSA_UNAME83 3 148 .513725490196078
 .415686274509804 .733333333333333 81 1 125 594 122 19 140 0 120 130 161 81 1 84
 581 34 77 0 0 112 140 162 82 3 144 119 0 2 81 1 112 580 34 90 0 0 100 84 163 82
 3 162 119 31 1 81 1 100 579 34 94 0 0 98 112 164 82 3 163 119 30 1 81 1 98 578
 34 104 0 0 95 100 165 82 3 164 119 29 1 82 3 165 119 28 1 83 3 161 .51372549019
6078 .415686274509804 .733333333333333 79 9 143 BTI/DetId79 15 139 SDL/TYSA_COLO
UR83 3 136 .513725490196078 .415686274509804 .733333333333333 83 3 133 .51372549
0196078 .415686274509804 .733333333333333 15 62 534 0 51 19 0 17 51 0 62 71 41 4
9 63 108 0 83 +83 3 126 .513725490196078 .415686274509804 .733333333333333 17 42
 0 62 41 71 12 64 70 0 69 -16 70 87 166 ?64 77 104 103 0 0 1 17 69 0 67 64 75 12
 39 94 0 0 -17 39 0 38 27 31 32 69 94 0 0 +81 1 166 575 34 70 0 0 110 97 167 30
 103 89 0 70 101 85 0 +-1.8923 -4.336278955600445 3.93432402276013 1 0 0 30 101
 71 0 94 0 103 0 +-3.1115 -4.31010642727111 3.95229792775738 0 .824331600923871
 .566107244007959 81 1 110 574 34 108 0 0 93 166 168 81 1 97 576 34 107 0 0 166
 95 169 82 3 167 119 25 1 82 3 169 119 26 1 81 1 93 573 34 87 0 0 26 110 170 82
 3 168 119 24 1 81 1 26 572 34 11 0 0 114 93 171 82 3 170 119 3 1 82 3 171 119 2
 1 82 3 116 119 1 1 82 3 115 119 0 1 82 3 99 119 27 1 81 1 53 568 34 52 0 0 43 7
2 172 82 3 74 119 7 0 81 1 43 567 34 32 0 0 56 53 173 82 3 172 119 6 0 82 3 173
 119 5 0 81 1 36 564 34 49 0 0 30 57 174 82 3 66 119 3 0 82 3 174 119 2 0 82 3 6
1 119 0 0 82 3 58 119 4 0 82 3 37 119 1 0 19 18 545 0 1 0 10 6 0 S0 74 4 CI16 in
dex_map_offset0 0 1 dCCZ20 16 5 0 0 150 152 14 2 135 0 0 0 0 0 0 0 0 0 0 0 0 0 0
 0 80 1 13 122 175 8040 0 0 0 0 3 5 0 0 0 TTTFFFFFFFFFFFFFF2 83 3 15 .5137254901
96078 .415686274509804 .733333333333333 79 17 175 SDL/TYSA_COLOUR_21 0 
