**ABCDEFGHIJKLMNOPQRSTUVWXYZabcdefghijklmnopqrstuvwxyz**************************
**PARASOLID !"#$%&'()*+,-./:;<=>?@[\]^_`{|}~0123456789**************************
**PART1;
MC=unknown;
MC_MODEL=unknown;
MC_ID=unknown;
OS=unknown;
OS_RELEASE=unknown;
FRU=Parasolid 36.0.180;
APPL=Onshape;
SITE=unknown;
USER=unknown;
FORMAT=text;
GUISE=transmit;
KEY=BTGapi::writeModels_.xmt;
FILE=BTGapi::writeModels_.xmt;
DATE=2024-05-15T00:06:35 (UTC);
**PART2;
SCH=SCH_3600180_36001;
USFLD_SIZE=0;
**PART3;
**END_OF_HEADER*****************************************************************
T51 : TRANSMIT FILE created by modeller version 360018023 SCH_3600180_36001_1300
6231 0 12 36 CCCI7 lattice222 0 CCCI4 mesh1006 0 I8 polyline1008 0 CCCCCCCDI5 ow
ner1040 0 CCCI16 boundary_lattice222 0 CCCI13 boundary_mesh1006 0 I17 boundary_p
olyline1008 0 CCCA16 index_map_offset0 0 1 dA9 index_map82 0 A17 node_id_index_m
ap82 0 A20 schema_embedding_map82 0 A5 child12 0 A14 lowest_node_id0 0 1 dA16 me
sh_offset_data206 0 Z1 219 2 3 0 0 0 0 0 0 0 1e3 1e-8 0 4 5 1 0 1 2 6 0 7 8 9 0
 0 10 11 12 0 0 0 0 0 0 0 81 255 1 2 213 13 1 14 0 0 0 15 70 11 CI9 list_type0 0
 1 uI10 notransmit0 0 1 lCCCDCCDI12 finger_index0 0 1 dI12 finger_block1012 0 CZ
3 0 4 T1 0 0 5 20 1 16 16 13 255 6 167 0 1 0 17 0 0 18 0 50 255 7 162 0 19 20 0
 0 +-1.5367 -2.82874132383087 4.96962095060189 -1 -150129908673195e-30 -10310126
25827964e-31 150129908673195e-30 -1 0 30 255 8 166 0 21 22 0 0 +-1.5367 -2.32622
877990768 5.31471992654914 0 .566107244007959 -.824331600923871 29 255 9 143 0 2
3 24 0 -3.1115 -3.322716262880365 4.6120900236982 19 9 CCCCCCI5 frame230 0 CA5 o
wner12 0 Z10 1 0 1 18 0 25 0 V0 16 255 11 147 26 ?27 0 28 29 0 0 1 18 255 12 33
 30 31 0 32 33 ?1 81 1 30 185 34 12 0 0 35 36 37 17 255 31 0 38 39 40 12 27 11 0
 41 -18 32 42 42 43 12 44 45 ?1 29 33 61 0 12 45 46 -3.1115 -3.33125386775406 4.
62452197465463 29 45 58 0 32 47 33 -3.1115 -2.326228779907675 5.31471992654913 2
9 46 146 0 48 33 49 -1.5367 -2.317691175033985 5.30228797559271 18 48 134 50 51
 52 0 46 ?1 29 49 145 0 52 46 24 -1.5367 -3.32271626288037 4.6120900236982 18 52
 130 53 54 55 48 49 ?1 29 24 144 0 55 49 9 -3.1115 -2.31769117503398 5.302287975
5927 18 55 126 36 56 23 52 24 ?1 81 1 36 186 34 55 0 0 30 42 57 17 56 0 38 40 39
 55 43 58 0 59 +18 23 122 35 27 60 55 9 ?1 81 1 35 184 34 23 0 0 0 30 61 17 27 0
 62 54 41 23 31 11 0 63 +18 60 48 64 65 44 23 66 ?1 81 1 64 189 34 60 0 0 50 53
 67 17 65 0 68 69 70 60 71 72 0 73 +18 44 45 74 70 32 60 47 ?1 29 66 56 0 60 0 4
7 -1.5367 -2.32622877990768 5.31471992654914 29 47 57 0 44 66 45 -1.5367 -3.3312
53867754065 4.62452197465463 81 1 74 191 34 44 0 0 53 26 75 17 70 0 68 65 76 44
 41 77 0 78 +15 255 68 7 0 76 79 0 17 76 0 68 70 69 12 39 80 0 0 -17 41 0 62 27
 78 12 70 77 0 76 -16 77 15 81 ?70 80 82 83 0 0 1 17 78 0 62 41 54 44 84 28 0 71
 -15 62 153 0 54 85 0 17 54 0 62 78 27 52 63 86 0 84 +17 84 0 87 88 71 52 78 28
 0 89 +16 28 149 90 ?84 11 21 22 0 0 1 17 71 0 87 84 73 44 65 72 0 0 -15 87 157
 0 88 19 0 17 73 0 87 71 88 60 51 21 0 91 -16 72 27 92 ?65 82 93 94 0 0 1 81 1 9
2 203 34 72 0 0 95 96 97 16 82 21 98 ?91 77 72 99 0 0 1 16 93 102 100 ?101 72 86
 102 0 0 1 30 94 52 0 72 0 99 0 +-1.5367 -2.82874132383087 4.96962095060189 -182
1231995776175e-31 .824331600923871 .56610724400796 30 99 54 0 82 94 83 0 +-2.324
1 -2.32622877990768 5.31471992654914 1 0 0 30 83 55 0 77 99 103 0 +-2.3241 -3.33
1253867754065 4.62452197465463 1 0 0 30 103 63 0 80 83 104 0 +-3.1115 -4.3101064
2727111 3.95229792775738 0 .824331600923871 .566107244007959 16 80 12 105 ?39 58
 77 103 0 0 1 30 104 142 0 106 103 107 0 +-1.5367 -2.820203718957175 4.957188999
64545 -1821231995776175e-31 .824331600923871 .56610724400796 16 106 118 95 ?88 1
08 0 104 0 0 1 30 107 141 0 108 104 109 0 +-2.3241 -2.317691175033985 5.30228797
55927 1 0 0 16 108 112 110 ?111 86 106 107 0 0 1 30 109 140 0 86 107 102 0 +-2.3
241 -3.32271626288037 4.6120900236982 1 0 0 16 86 106 112 ?54 93 108 109 0 0 1 3
0 102 139 0 93 109 29 0 +-3.1115 -4.301568822397415 3.939865976800945 0 .8243316
00923871 .566107244007959 30 29 163 0 11 102 113 0 +-3.1115 -3.33125386775406 4.
62452197465463 0 .566107244007959 -.824331600923871 30 113 164 0 58 29 22 0 +-3.
1115 -2.326228779907675 5.31471992654913 0 .566107244007959 -.824331600923871 16
 58 148 114 ?56 21 80 113 0 0 1 30 22 165 0 28 113 8 0 +-1.5367 -3.3312538677540
65 4.62452197465463 0 .566107244007959 -.824331600923871 81 1 114 193 34 58 0 0
 26 115 116 16 21 150 115 ?51 28 58 8 0 0 1 81 1 115 194 34 21 0 0 114 90 117 17
 51 0 118 59 91 48 73 21 0 88 +15 118 155 0 59 119 0 17 59 0 118 43 51 55 111 10
8 0 101 -17 91 0 118 51 43 60 69 82 0 0 +17 88 0 87 73 84 48 89 106 0 111 +17 89
 0 120 63 111 52 88 106 0 0 -17 111 0 120 89 101 48 59 108 0 0 +15 120 101 0 101
 121 0 17 101 0 120 111 63 55 40 93 0 0 +17 63 0 120 101 89 23 54 86 0 40 -17 40
 0 38 31 56 23 101 93 0 0 -15 38 151 0 40 17 0 14 255 17 152 122 ?85 0 38 6 123
 +0 0 85 0 25 81 1 122 214 124 17 125 0 0 126 127 14 85 154 126 ?19 17 62 6 128
 -0 0 19 17 25 50 123 159 0 17 129 128 0 +-3.1115 -4.31010642727111 3.9522979277
5738 -1 0 0 0 0 1 13 25 3 0 0 0 0 0 0 10 17 50 129 138 0 121 130 123 0 +-.3175 -
2.17465501836173 5.40051762535558 0 -.56610724400796 .824331600923871 1 0 0 50 1
28 160 0 85 123 20 0 +-2.3241 -3.331253867754065 4.62452197465463 0 .82433160092
3871 .566107244007959 0 -.56610724400796 .824331600923872 50 20 161 0 119 128 7
 0 +-2.3241 -2.32622877990768 5.31471992654914 0 .824331600923871 .5661072440079
59 0 -.56610724400796 .824331600923872 14 119 156 131 ?79 19 118 6 20 +0 0 79 19
 25 81 1 131 217 124 119 132 0 133 134 135 14 79 4 134 ?121 119 68 6 130 +0 0 12
1 119 25 14 19 158 133 ?119 85 87 6 7 -0 0 119 85 25 81 1 133 216 124 19 136 0 1
26 131 137 80 7 CCCCCDI12 legal_owners0 17 1 lCZ1 124 0 138 8001 0 0 0 0 3 5 0 0
 0 FFFFTFTFFFFFFFFFF2 81 1 136 209 34 19 0 133 125 139 140 81 1 126 215 124 85 9
6 0 122 133 141 83 255 3 137 .972549019607843 .529411764705882 .0039215686274509
8 81 1 96 204 34 85 0 126 92 142 143 83 3 141 .972549019607843 .529411764705882
 .00392156862745098 80 1 34 144 145 9000 0 0 0 0 3 6 0 0 0 FFTFTFTTFFFFFFFFF1 81
 1 142 205 34 121 0 146 96 147 148 82 255 3 143 117 0 2 14 121 91 146 ?0 79 120
 6 129 -0 0 0 79 25 81 1 146 219 124 121 142 0 134 0 149 81 1 147 206 34 79 0 13
4 142 132 150 82 3 148 117 1 2 81 1 134 218 124 79 147 0 131 146 151 81 1 132 20
7 34 119 0 131 147 125 152 82 3 150 117 2 2 81 1 125 208 34 17 0 122 132 136 153
 82 3 152 117 12 2 82 3 153 117 13 2 83 3 151 .972549019607843 .529411764705882
 .00392156862745098 83 3 149 .972549019607843 .529411764705882 .0039215686274509
8 79 255 9 145 BTI/DetId81 1 139 210 34 1 0 154 136 0 155 82 3 140 117 14 2 81 1
 154 211 156 1 139 14 0 0 157 82 3 155 117 0 3 80 1 156 158 159 8038 0 0 0 0 0 0
 0 0 0 TTTTTTTTTTTTTFTFT10 81 1 14 212 158 1 154 2 0 0 160 98 255 20 157 80 97 1
14 116 32 49 52 56 32 112 108 121 119 111 111 100 32 116 111 112 80 1 158 161 16
2 8017 0 0 0 0 0 0 0 0 0 TTTTTTTTTTTTTFTFT3 84 255 20 160 Part 148 plywood top79
 13 162 SDL/TYSA_NAME79 14 159 SDL/TYSA_UNAME79 15 138 SDL/TYSA_COLOUR50 130 62
 0 79 0 129 0 +-.3175 -2.183192623235425 5.41294957631201 0 -.56610724400796 .82
4331600923871 1 0 0 83 3 135 .972549019607843 .529411764705882 .0039215686274509
8 83 3 127 .972549019607843 .529411764705882 .00392156862745098 17 43 0 118 91 5
9 32 56 58 0 69 -17 69 0 68 76 65 32 91 82 0 39 -17 39 0 38 56 31 32 76 80 0 0 +
81 1 90 195 34 28 0 0 115 112 163 82 3 117 117 7 1 81 1 112 196 34 86 0 0 90 81
 164 82 3 163 117 8 1 81 1 81 197 34 77 0 0 112 110 165 82 3 164 117 28 1 81 1 1
10 198 34 108 0 0 81 98 166 82 3 165 117 29 1 81 1 98 199 34 82 0 0 110 100 167
 82 3 166 117 40 1 81 1 100 200 34 93 0 0 98 105 168 82 3 167 117 41 1 81 1 105
 201 34 80 0 0 100 95 169 82 3 168 117 42 1 81 1 95 202 34 106 0 0 105 92 170 82
 3 169 117 43 1 82 3 170 117 44 1 81 1 26 192 34 11 0 0 74 114 171 82 3 116 117
 6 1 82 3 171 117 1 1 82 3 97 117 45 1 81 1 53 190 34 52 0 0 64 74 172 82 3 75 1
17 17 0 82 3 172 117 16 0 81 1 50 188 34 48 0 0 42 64 173 82 3 67 117 15 0 81 1
 42 187 34 32 0 0 36 50 174 82 3 173 117 14 0 82 3 174 117 13 0 82 3 61 117 2 0
 82 3 57 117 12 0 82 3 37 117 3 0 19 18 168 0 1 0 10 6 0 S0 74 4 CI16 index_map_
offset0 0 1 dCCZ20 16 5 0 0 139 154 14 2 146 0 0 0 0 0 0 0 0 0 0 0 0 0 0 0 80 1
 13 124 175 8040 0 0 0 0 3 5 0 0 0 TTTFFFFFFFFFFFFFF2 83 3 15 .972549019607843 .
529411764705882 .00392156862745098 79 17 175 SDL/TYSA_COLOUR_21 0 
