**ABCDEFGHIJKLMNOPQRSTUVWXYZabcdefghijklmnopqrstuvwxyz**************************
**PARASOLID !"#$%&'()*+,-./:;<=>?@[\]^_`{|}~0123456789**************************
**PART1;
MC=unknown;
MC_MODEL=unknown;
MC_ID=unknown;
OS=unknown;
OS_RELEASE=unknown;
FRU=Parasolid 36.0.180;
APPL=Onshape;
SITE=unknown;
USER=unknown;
FORMAT=text;
GUISE=transmit;
KEY=BTGapi::writeModels_.xmt;
FILE=BTGapi::writeModels_.xmt;
DATE=2024-05-15T00:06:35 (UTC);
**PART2;
SCH=SCH_3600180_36001;
USFLD_SIZE=0;
**PART3;
**END_OF_HEADER*****************************************************************
T51 : TRANSMIT FILE created by modeller version 360018023 SCH_3600180_36001_1300
6231 0 12 36 CCCI7 lattice222 0 CCCI4 mesh1006 0 I8 polyline1008 0 CCCCCCCDI5 ow
ner1040 0 CCCI16 boundary_lattice222 0 CCCI13 boundary_mesh1006 0 I17 boundary_p
olyline1008 0 CCCA16 index_map_offset0 0 1 dA9 index_map82 0 A17 node_id_index_m
ap82 0 A20 schema_embedding_map82 0 A5 child12 0 A14 lowest_node_id0 0 1 dA16 me
sh_offset_data206 0 Z1 776 2 3 0 0 0 0 0 0 0 1e3 1e-8 0 4 5 1 0 1 2 6 0 7 8 9 0
 0 10 11 12 0 0 0 0 0 0 0 81 255 1 2 770 13 1 14 0 0 0 15 70 11 CI9 list_type0 0
 1 uI10 notransmit0 0 1 lCCCDCCDI12 finger_index0 0 1 dI12 finger_block1012 0 CZ
3 0 4 T1 0 0 5 20 1 16 16 13 255 6 5 0 1 0 17 0 0 18 0 50 255 7 110 0 19 20 0 0
 +1.6637 0 -1999999999835465e-21 1 0 0 0 0 -1 30 255 8 116 0 21 22 0 0 +1.6637 0
 1.2192 0 1 0 29 255 9 506 0 12 23 0 1.6637 -2.4622125 3.6576 19 9 CCCCCCI5 fram
e230 0 CA5 owner12 0 Z10 1 0 1 18 0 24 0 V0 16 255 11 38 25 ?26 0 27 22 0 0 1 18
 255 12 502 28 29 0 30 9 ?1 81 1 28 753 31 12 0 0 32 33 34 17 255 29 0 35 36 37
 12 38 39 0 40 +18 30 202 41 42 12 43 23 ?1 81 1 41 446 31 30 0 0 44 45 46 17 42
 0 47 48 49 30 50 51 0 52 +18 43 322 53 48 30 54 55 ?1 29 23 206 0 30 55 9 1.752
6 -2.8082875 3.6576 29 55 386 0 43 56 23 1.6637 -2.8082875 3.6576 29 56 388 0 54
 57 55 1.7526 -2.8082875 1.2192 18 54 330 45 49 43 58 56 ?1 29 57 389 0 58 59 56
 1.6637 -2.8082875 1.2192 18 58 326 60 61 54 62 57 ?1 29 59 691 0 62 63 57 1.752
6 -2.4622125 1.2192 18 62 627 32 64 58 65 59 ?1 29 63 692 0 65 66 59 1.7526 -2.4
622125 3.6576 18 65 639 67 36 62 68 63 ?1 29 66 694 0 68 0 63 1.6637 -2.4622125
 1.2192 18 68 631 33 37 65 0 66 ?1 81 1 33 754 31 68 0 0 28 69 70 17 37 0 35 29
 64 68 71 72 0 38 -15 255 35 662 0 37 73 0 17 64 0 35 37 36 62 74 75 0 71 -17 71
 0 76 77 78 62 37 72 0 79 +16 72 607 80 ?71 39 0 81 0 0 1 17 38 0 82 83 26 68 29
 39 0 78 -15 82 533 0 38 19 0 17 83 0 82 84 38 58 78 21 0 0 -17 26 0 82 38 84 12
 85 11 0 0 +16 39 577 69 ?29 86 72 87 0 0 1 17 78 0 76 71 88 68 83 21 0 0 +15 76
 233 0 78 17 0 17 88 0 76 78 77 58 49 89 0 83 -16 21 70 90 ?78 91 92 8 0 0 1 81
 1 90 760 31 21 0 0 25 93 94 16 91 69 95 ?79 27 21 96 0 0 1 16 92 307 97 ?52 21
 51 98 0 0 1 81 1 97 451 31 92 0 0 99 100 101 17 52 0 102 103 85 30 48 92 0 104
 +16 51 282 105 ?42 92 89 106 0 0 1 30 98 378 0 92 106 96 0 +1.70815 -2.8082875
 3.6576 1 0 0 30 106 379 0 51 107 98 0 +1.7526 -2.8082875 -1999999999835465e-21
 0 0 1 30 96 94 0 91 98 108 0 +1.7526 0 1.2192 0 1 0 30 108 97 0 27 96 22 0 +1.7
526 0 3.6576 0 1 0 16 27 52 93 ?103 11 91 108 0 0 1 30 22 99 0 11 108 8 0 +1.663
7 0 3.6576 0 1 0 81 1 93 761 31 27 0 0 90 95 109 17 103 0 102 40 52 65 104 27 0
 0 +15 102 513 0 40 110 0 17 40 0 102 85 103 12 36 86 0 26 -17 104 0 111 50 74 3
0 103 27 0 0 -15 111 218 0 79 112 0 17 50 0 111 79 104 54 42 51 0 77 -17 74 0 11
1 104 79 65 64 75 0 103 +17 79 0 111 74 50 62 77 91 0 0 +16 75 612 113 ?74 114 8
6 115 0 0 1 81 1 113 758 31 75 0 0 80 25 116 16 114 302 99 ?84 89 75 117 0 0 1 1
6 86 587 118 ?36 75 39 119 0 0 1 30 115 683 0 75 119 117 0 +1.7526 -2.4622125 -1
999999999835465e-21 0 0 1 30 119 684 0 86 87 115 0 +1.70815 -2.4622125 3.6576 1
 0 0 30 117 381 0 114 115 107 0 +1.6637 -2.8082875 -1999999999835465e-21 0 0 1 3
0 107 380 0 89 117 106 0 +1.70815 -2.8082875 1.2192 1 0 0 16 89 272 100 ?49 51 1
14 107 0 0 1 81 1 100 452 31 89 0 0 97 105 120 17 49 0 47 42 61 54 88 89 0 50 +1
5 47 357 0 61 121 0 17 61 0 47 49 48 58 84 114 0 88 -17 48 0 47 61 42 43 52 92 0
 84 -17 84 0 82 26 83 43 61 114 0 85 +17 85 0 102 52 40 43 26 11 0 0 -14 255 121
 354 122 ?73 110 47 6 123 +0 0 73 110 24 81 1 122 775 124 121 125 0 126 127 128
 14 73 659 127 ?0 121 35 6 129 -0 0 0 121 24 14 110 23 126 ?121 112 102 6 130 -0
 0 121 112 24 50 123 369 0 121 129 131 0 +1.70815 -2.8082875 -1999999999835465e-
21 0 -1 0 0 0 -1 13 24 3 0 0 0 0 0 0 10 17 14 17 6 132 ?19 0 76 6 131 +0 0 19 0
 24 81 1 132 771 124 17 133 0 0 134 135 14 19 11 134 ?112 17 82 6 7 -0 0 112 17
 24 50 131 92 0 17 123 130 0 +1.56845 -2.63525 1.2192 0 0 -1 1 0 0 50 130 93 0 1
10 131 20 0 +1.56845 0 3.6576 0 0 -1 1 0 0 50 20 109 0 112 130 7 0 +1.7526 0 -19
99999999835465e-21 1 0 0 0 0 -1 14 112 17 136 ?110 19 111 6 20 +0 0 110 19 24 81
 1 136 773 124 112 137 0 134 126 138 80 7 CCCCCDI12 legal_owners0 17 1 lCZ1 124
 0 139 8001 0 0 0 0 3 5 0 0 0 FFFFTFTFFFFFFFFFF2 81 1 137 767 31 112 0 136 133 0
 140 81 1 134 772 124 19 141 0 132 136 142 81 1 126 774 124 110 143 0 136 122 14
4 83 255 3 138 .972549019607843 .529411764705882 .00392156862745098 81 1 143 765
 31 110 0 126 141 133 145 83 3 144 .972549019607843 .529411764705882 .0039215686
2745098 80 1 31 146 147 9000 0 0 0 0 3 6 0 0 0 FFTFTFTTFFFFFFFFF1 81 1 141 764 3
1 19 0 134 148 143 149 81 1 133 766 31 17 0 132 143 137 150 82 255 3 145 203 7 2
 82 3 150 203 8 2 81 1 148 763 31 73 0 127 95 141 151 82 3 149 203 6 2 81 1 127
 776 124 73 148 0 122 0 152 81 1 95 762 31 91 0 0 93 148 153 82 3 151 203 0 2 82
 3 153 203 15 1 83 3 152 .972549019607843 .529411764705882 .00392156862745098 79
 255 9 147 BTI/DetId83 3 142 .972549019607843 .529411764705882 .0039215686274509
8 82 3 140 203 9 2 79 15 139 SDL/TYSA_COLOUR83 3 135 .972549019607843 .529411764
705882 .00392156862745098 50 129 674 0 73 0 123 0 +1.70815 -2.4622125 -199999999
9835465e-21 0 -1 0 0 0 -1 81 1 125 458 31 121 0 122 105 67 154 83 3 128 .9725490
19607843 .529411764705882 .00392156862745098 81 1 105 453 31 51 0 0 100 125 155
 81 1 67 751 31 65 0 0 125 32 156 82 3 154 200 0 2 81 1 32 752 31 62 0 0 67 28 1
57 82 3 156 203 0 0 82 3 157 203 1 0 82 3 155 200 3 1 82 3 120 200 2 1 30 87 685
 0 39 81 119 0 +1.6637 -2.4622125 -1999999999835465e-21 0 0 1 30 81 686 0 72 0 8
7 0 +1.70815 -2.4622125 1.2192 1 0 0 81 1 118 756 31 86 0 0 69 80 158 17 36 0 35
 64 29 65 40 86 0 74 +81 1 69 755 31 39 0 0 33 118 159 81 1 80 757 31 72 0 0 118
 113 160 82 3 158 203 5 1 82 3 160 203 6 1 82 3 159 203 4 1 81 1 99 450 31 114 0
 0 60 97 161 81 1 60 449 31 58 0 0 53 99 162 82 3 161 200 0 1 81 1 53 448 31 43
 0 0 45 60 163 82 3 162 200 3 0 81 1 45 447 31 54 0 0 41 53 164 82 3 163 200 2 0
 82 3 164 200 1 0 81 1 25 759 31 11 0 0 113 90 165 82 3 116 203 7 1 82 3 165 203
 12 1 17 77 0 76 88 71 54 79 91 0 0 -82 3 109 203 14 1 82 3 101 200 1 1 82 3 94
 203 13 1 82 3 70 203 3 0 81 1 44 157 31 1 0 166 0 41 167 82 3 46 200 0 0 81 1 1
66 768 168 1 44 14 0 0 169 82 3 167 194 0 3 80 1 168 170 171 8038 0 0 0 0 0 0 0
 0 0 TTTTTTTTTTTTTFTFT10 81 1 14 769 170 1 166 2 0 0 172 98 255 8 169 80 97 114
 116 32 51 49 54 80 1 170 173 174 8017 0 0 0 0 0 0 0 0 0 TTTTTTTTTTTTTFTFT3 84 2
55 8 172 Part 31679 13 174 SDL/TYSA_NAME79 14 171 SDL/TYSA_UNAME82 3 34 203 2 0
 19 18 4 0 1 0 10 6 0 S0 74 4 CI16 index_map_offset0 0 1 dCCZ20 16 5 0 0 137 166
 14 2 127 0 0 0 0 0 0 0 0 0 0 0 0 0 0 0 80 1 13 124 175 8040 0 0 0 0 3 5 0 0 0 T
TTFFFFFFFFFFFFFF2 83 3 15 .972549019607843 .529411764705882 .00392156862745098 7
9 17 175 SDL/TYSA_COLOUR_21 0 
