**ABCDEFGHIJKLMNOPQRSTUVWXYZabcdefghijklmnopqrstuvwxyz**************************
**PARASOLID !"#$%&'()*+,-./:;<=>?@[\]^_`{|}~0123456789**************************
**PART1;
MC=unknown;
MC_MODEL=unknown;
MC_ID=unknown;
OS=unknown;
OS_RELEASE=unknown;
FRU=Parasolid 36.0.180;
APPL=Onshape;
SITE=unknown;
USER=unknown;
FORMAT=text;
GUISE=transmit;
KEY=BTGapi::writeModels_.xmt;
FILE=BTGapi::writeModels_.xmt;
DATE=2024-05-15T00:06:35 (UTC);
**PART2;
SCH=SCH_3600180_36001;
USFLD_SIZE=0;
**PART3;
**END_OF_HEADER*****************************************************************
T51 : TRANSMIT FILE created by modeller version 360018023 SCH_3600180_36001_1300
6231 0 12 36 CCCI7 lattice222 0 CCCI4 mesh1006 0 I8 polyline1008 0 CCCCCCCDI5 ow
ner1040 0 CCCI16 boundary_lattice222 0 CCCI13 boundary_mesh1006 0 I17 boundary_p
olyline1008 0 CCCA16 index_map_offset0 0 1 dA9 index_map82 0 A17 node_id_index_m
ap82 0 A20 schema_embedding_map82 0 A5 child12 0 A14 lowest_node_id0 0 1 dA16 me
sh_offset_data206 0 Z1 184 2 3 0 0 0 0 0 0 0 1e3 1e-8 0 4 5 1 0 1 2 6 0 7 8 9 0
 0 10 11 12 0 0 0 0 0 0 0 81 255 1 2 178 13 1 14 0 0 0 15 70 11 CI9 list_type0 0
 1 uI10 notransmit0 0 1 lCCCDCCDI12 finger_index0 0 1 dI12 finger_block1012 0 CZ
3 0 4 T1 0 0 5 20 1 16 16 13 255 6 5 0 1 0 17 0 0 18 0 50 255 7 101 0 19 20 0 0
 +1.663702 -.1188485051485146 6.62360789422163 0 -.824331600923871 -.56610724400
796 0 .56610724400796 -.824331600923871 30 255 8 109 0 21 22 0 0 +1.663702 -.185
35195363835 6.72044624904016 -1 0 0 29 255 9 96 0 12 23 0 1.4732 -.2376970102970
175 6.68449843904566 19 9 CCCCCCI5 frame230 0 CA5 owner12 0 Z10 1 0 1 18 0 24 0
 V0 16 255 11 34 25 ?26 0 27 28 0 0 1 18 255 12 64 29 30 0 31 9 ?1 81 1 29 155 3
2 12 0 0 33 34 35 17 255 30 0 36 37 38 12 39 40 0 41 +18 31 68 42 43 12 44 23 ?1
 81 1 42 153 32 31 0 0 45 33 46 17 43 0 47 48 49 31 50 21 0 51 +18 44 72 52 53 3
1 54 55 ?1 29 23 95 0 31 55 9 1.4732 -.18535195363835 6.72044624904016 29 55 94
 0 44 56 23 1.4732 -145295423655534e-28 6.45054779023346 29 56 93 0 54 57 55 1.4
732 -1456243162227266e-29 6.33837823106932 18 54 76 58 59 44 60 56 ?1 29 57 92 0
 60 61 56 1.6637 -1456243162227266e-29 6.33837823106932 18 60 80 62 63 54 64 57
 ?1 29 61 91 0 64 65 57 1.6637 -.2376970102970175 6.68449843904566 18 64 81 34 3
9 60 66 61 ?1 29 65 90 0 66 67 61 1.6637 -145295423655534e-28 6.45054779023346 1
8 66 82 45 68 64 69 65 ?1 29 67 89 0 69 0 65 1.6637 -.18535195363835 6.720446249
04016 18 69 83 33 50 66 0 67 ?1 81 1 33 154 32 69 0 0 42 29 70 17 50 0 71 72 51
 69 43 21 0 49 -15 255 71 20 0 72 19 0 17 72 0 71 53 50 66 73 74 0 0 -17 51 0 71
 50 53 31 75 76 0 26 +16 21 56 77 ?43 78 79 8 0 0 1 17 49 0 47 43 39 69 80 81 0
 73 +15 47 11 0 39 82 0 17 39 0 47 49 48 64 30 40 0 80 -17 80 0 83 84 73 64 49 8
1 0 38 -16 81 61 85 ?49 86 87 88 0 0 1 17 73 0 83 80 89 69 72 74 0 0 +15 83 8 0
 80 17 0 17 89 0 83 73 84 66 63 86 0 72 -16 74 63 90 ?73 87 0 91 0 0 1 81 1 90 1
66 32 74 0 0 92 93 94 16 87 62 95 ?84 81 74 96 0 0 1 30 91 105 0 74 96 97 0 +1.6
637 -.1188485051485146 6.62360789422163 0 -.56610724400796 .824331600923871 30 9
6 104 0 87 88 91 0 +1.6637 -.1809688434723545 6.60189426630097 0 .56610724400796
1 -.824331600923871 30 97 106 0 40 91 98 0 +1.663702 -.2376970102970175 6.684498
43904566 -1 0 0 16 40 59 99 ?30 100 86 97 0 0 1 30 98 107 0 100 97 22 0 +1.66370
2 -1456243162227266e-29 6.33837823106932 -1 0 0 16 100 58 101 ?59 79 40 98 0 0 1
 30 22 108 0 79 98 8 0 +1.663702 -145295423655534e-28 6.45054779023346 -1 0 0 16
 79 57 102 ?53 21 100 22 0 0 1 81 1 102 158 32 79 0 0 101 77 103 17 53 0 71 51 7
2 44 68 79 0 75 +17 68 0 104 63 105 66 53 79 0 89 -17 75 0 106 107 26 44 51 76 0
 105 -15 106 33 0 26 108 0 17 107 0 106 41 75 54 105 78 0 0 +17 26 0 106 75 41 3
1 48 11 0 0 +16 76 46 92 ?51 27 78 109 0 0 1 17 105 0 104 68 59 44 107 78 0 0 -1
5 104 17 0 68 110 0 17 59 0 104 105 63 54 111 100 0 37 +16 78 52 112 ?107 76 21
 113 0 0 1 81 1 112 161 32 78 0 0 99 114 115 30 113 85 0 78 0 109 0 +1.4732 -146
320553792833e-28 6.38939510888193 0 -1224646799147354e-31 -1 30 109 86 0 76 113
 116 0 +1.4732 -.1188485051485146 6.62360789422163 0 -.56610724400796 .824331600
923871 30 116 87 0 27 109 28 0 +1.4732 -.1809688434723545 6.60189426630097 0 .56
6107244007961 -.824331600923871 16 27 38 93 ?37 11 76 116 0 0 1 30 28 88 0 11 11
6 117 0 +1.4732 -.211524481967685 6.70247234404291 0 .824331600923871 .566107244
00796 30 117 102 0 86 28 88 0 +1.6637 -146320553792833e-28 6.38939510888193 0 -1
224646799147354e-31 -1 16 86 60 114 ?63 40 81 117 0 0 1 30 88 103 0 81 117 96 0
 +1.6637 -.211524481967685 6.70247234404291 0 .824331600923871 .56610724400796 8
1 1 114 162 32 86 0 0 112 25 118 17 63 0 104 59 68 60 89 86 0 84 +17 84 0 83 89
 80 60 38 87 0 111 +17 38 0 36 30 111 64 84 87 0 0 -17 111 0 36 38 37 60 59 100
 0 0 -15 36 14 0 38 119 0 17 37 0 36 111 30 54 41 27 0 107 +17 41 0 106 26 107 1
2 37 27 0 48 -17 48 0 47 39 43 12 26 11 0 0 -14 255 119 12 120 ?110 82 36 6 121
 -0 0 110 82 24 81 1 120 181 122 119 123 0 124 125 126 14 110 15 125 ?19 119 104
 6 20 +0 0 19 119 24 14 82 9 124 ?119 17 47 6 127 +0 0 119 0 24 50 121 98 0 119
 128 127 0 +1.663702 -.1809688434723545 6.60189426630097 0 .824331600923871 .566
107244007961 0 -.566107244007961 .824331600923871 13 24 3 0 0 0 0 0 0 10 82 50 1
28 97 0 17 129 121 0 +1.6637 -2.120661164619435 3.40399834184796 1 0 0 0 -1 0 50
 127 99 0 82 121 20 0 +1.663702 -.211524481967685 6.70247234404291 0 -.566107244
00796 .824331600923871 0 -.824331600923871 -.56610724400796 50 20 100 0 110 127
 7 0 +1.663702 -146320553792833e-28 6.38939510888193 0 1 -1224646799147354e-31 0
 1224646799147354e-31 1 14 17 6 130 ?82 0 83 6 128 +0 0 0 108 24 50 129 84 0 108
 0 128 0 +1.4732 -146253379777286e-28 5.15377690285997 1 0 0 0 1 0 14 108 21 131
 ?0 19 106 6 129 -0 0 17 19 24 81 1 131 184 122 108 132 0 133 0 134 14 19 18 133
 ?108 110 71 6 7 -0 0 108 110 24 81 1 133 183 122 19 135 0 125 131 136 80 7 CCCC
CDI12 legal_owners0 17 1 lCZ1 122 0 137 8001 0 0 0 0 3 5 0 0 0 FFFFTFTFFFFFFFFFF
2 81 1 135 173 32 19 0 133 138 123 139 81 1 125 182 122 110 140 0 120 133 141 83
 255 3 136 .231372549019608 .380392156862745 .705882352941177 81 1 140 169 32 11
0 0 125 95 132 142 83 3 141 .231372549019608 .380392156862745 .705882352941177 8
0 1 32 143 144 9000 0 0 0 0 3 6 0 0 0 FFTFTFTTFFFFFFFFF1 81 1 95 168 32 87 0 0 9
3 140 145 81 1 132 170 32 108 0 131 140 146 147 82 255 3 142 152 228 2 81 1 146
 171 32 17 0 130 132 138 148 82 3 147 152 229 2 81 1 130 179 122 17 146 0 0 124
 149 81 1 138 172 32 82 0 124 146 135 150 82 3 148 152 230 2 81 1 124 180 122 82
 138 0 130 120 151 82 3 150 152 231 2 83 3 151 .231372549019608 .380392156862745
 .705882352941177 83 3 149 .231372549019608 .380392156862745 .705882352941177 81
 1 93 167 32 27 0 0 90 95 152 82 3 145 152 467 1 82 3 152 152 466 1 79 255 9 144
 BTI/DetId81 1 123 174 32 119 0 120 135 153 154 82 3 139 152 232 2 81 1 153 175
 32 1 0 155 123 0 156 82 3 154 152 233 2 81 1 155 176 157 1 153 14 0 0 158 82 3
 156 152 38 3 80 1 157 159 160 8038 0 0 0 0 0 0 0 0 0 TTTTTTTTTTTTTFTFT10 81 1 1
4 177 159 1 155 2 0 0 161 98 255 8 158 80 97 114 116 32 50 56 53 80 1 159 162 16
3 8017 0 0 0 0 0 0 0 0 0 TTTTTTTTTTTTTFTFT3 84 255 8 161 Part 28579 13 163 SDL/T
YSA_NAME79 14 160 SDL/TYSA_UNAME79 15 137 SDL/TYSA_COLOUR83 3 134 .2313725490196
08 .380392156862745 .705882352941177 83 3 126 .231372549019608 .380392156862745
 .705882352941177 81 1 25 163 32 11 0 0 114 85 164 82 3 118 152 461 1 81 1 85 16
4 32 81 0 0 25 92 165 82 3 164 152 462 1 81 1 92 165 32 76 0 0 85 90 166 82 3 16
5 152 463 1 82 3 166 152 464 1 81 1 99 160 32 40 0 0 77 112 167 82 3 115 152 460
 1 81 1 77 159 32 21 0 0 102 99 168 82 3 167 152 459 1 82 3 168 152 458 1 81 1 1
01 157 32 100 0 0 34 102 169 82 3 103 152 457 1 81 1 34 156 32 64 0 0 29 101 170
 82 3 169 152 456 1 82 3 170 152 311 0 82 3 94 152 465 1 82 3 70 152 309 0 81 1
 45 152 32 66 0 0 52 42 171 81 1 52 151 32 44 0 0 62 45 172 82 3 171 152 307 0 8
1 1 62 150 32 60 0 0 58 52 173 82 3 172 152 306 0 81 1 58 149 32 54 0 0 0 62 174
 82 3 173 152 305 0 82 3 174 152 304 0 82 3 46 152 308 0 82 3 35 152 310 0 19 18
 4 0 1 0 10 6 0 S0 74 4 CI16 index_map_offset0 0 1 dCCZ20 16 5 0 0 153 155 14 2
 131 0 0 0 0 0 0 0 0 0 0 0 0 0 0 0 80 1 13 122 175 8040 0 0 0 0 3 5 0 0 0 TTTFFF
FFFFFFFFFFF2 83 3 15 .231372549019608 .380392156862745 .705882352941177 79 17 17
5 SDL/TYSA_COLOUR_21 0 
