**ABCDEFGHIJKLMNOPQRSTUVWXYZabcdefghijklmnopqrstuvwxyz**************************
**PARASOLID !"#$%&'()*+,-./:;<=>?@[\]^_`{|}~0123456789**************************
**PART1;
MC=unknown;
MC_MODEL=unknown;
MC_ID=unknown;
OS=unknown;
OS_RELEASE=unknown;
FRU=Parasolid 36.0.180;
APPL=Onshape;
SITE=unknown;
USER=unknown;
FORMAT=text;
GUISE=transmit;
KEY=BTGapi::writeModels_.xmt;
FILE=BTGapi::writeModels_.xmt;
DATE=2024-05-15T00:06:35 (UTC);
**PART2;
SCH=SCH_3600180_36001;
USFLD_SIZE=0;
**PART3;
**END_OF_HEADER*****************************************************************
T51 : TRANSMIT FILE created by modeller version 360018023 SCH_3600180_36001_1300
6231 0 12 36 CCCI7 lattice222 0 CCCI4 mesh1006 0 I8 polyline1008 0 CCCCCCCDI5 ow
ner1040 0 CCCI16 boundary_lattice222 0 CCCI13 boundary_mesh1006 0 I17 boundary_p
olyline1008 0 CCCA16 index_map_offset0 0 1 dA9 index_map82 0 A17 node_id_index_m
ap82 0 A20 schema_embedding_map82 0 A5 child12 0 A14 lowest_node_id0 0 1 dA16 me
sh_offset_data206 0 Z1 738 2 3 0 0 0 0 0 0 0 1e3 1e-8 0 4 5 1 0 1 2 6 0 7 8 9 0
 0 10 11 12 0 0 0 0 0 0 0 81 255 1 2 731 13 1 14 0 0 0 15 70 11 CI9 list_type0 0
 1 uI10 notransmit0 0 1 lCCCDCCDI12 finger_index0 0 1 dI12 finger_block1012 0 CZ
3 0 4 T1 0 0 5 20 1 16 16 13 255 6 94 0 1 0 17 0 0 18 0 50 255 7 177 0 19 20 0 0
 +1.56845 -.09525 6.62813 0 -1 0 0 0 -1 30 255 8 244 0 11 21 0 0 +1.6637 .030525
4734661673 6.58368062635628 0 .824331600923873 .566107244007958 29 255 9 508 0 1
2 22 0 1.4732 -3816391647148975e-32 6.56271734939759 19 9 CCCCCCI5 frame230 0 CA
5 owner12 0 Z10 92 0 1 18 0 23 0 V0 16 255 11 242 24 ?25 0 26 8 0 0 1 18 255 12
 504 27 28 0 29 9 ?1 81 1 27 715 30 12 0 0 31 32 33 17 255 28 0 34 35 36 12 37 3
8 0 39 -18 29 237 40 41 12 42 22 ?1 81 1 40 472 30 29 0 0 43 44 45 17 41 0 46 25
 47 29 48 49 0 50 -18 42 137 51 52 29 53 54 ?1 29 22 241 0 29 54 9 1.6637 -.0952
5 6.49730469879518 29 54 158 0 42 55 22 1.6637 -.09525 3.6576 29 55 159 0 53 56
 54 1.6637 .09525 3.6576 18 53 141 57 58 42 59 55 ?1 29 56 160 0 59 60 55 1.4732
 .09525 3.6576 18 59 145 61 62 53 63 56 ?1 29 60 161 0 63 64 56 1.4732 -.09525 3
.6576 18 63 149 65 66 59 67 60 ?1 29 64 432 0 67 68 60 1.4732 -.09525 6.49730469
879518 18 67 355 44 47 63 69 64 ?1 29 68 673 0 69 70 64 1.6637 .09525 6.49730469
879518 18 69 607 71 72 67 73 68 ?1 29 70 674 0 73 74 68 1.4732 .09525 6.49730469
879518 18 73 608 75 36 69 76 70 ?1 29 74 676 0 76 0 70 1.6637 -360822483003176e-
30 6.56271734939759 18 76 609 31 35 73 0 74 ?1 81 1 31 714 30 76 0 0 75 27 77 17
 35 0 34 72 28 76 39 78 0 79 -15 255 34 629 0 35 80 0 17 72 0 34 36 35 69 79 81
 0 82 +17 39 0 46 47 25 12 35 78 0 83 +16 78 555 84 ?39 85 0 86 0 0 1 17 79 0 87
 50 88 76 72 81 0 25 -15 87 531 0 79 89 0 17 50 0 87 52 79 29 25 11 0 90 -17 88
 0 87 79 91 69 58 92 0 0 -16 81 558 93 ?72 38 85 94 0 0 1 17 25 0 46 39 41 76 50
 11 0 0 +15 46 392 0 25 95 0 14 255 95 393 96 ?19 97 46 6 98 +0 0 19 97 23 81 1
 96 735 99 95 100 0 101 102 103 14 19 173 102 ?104 95 105 6 7 +0 0 104 95 23 14
 97 169 101 ?95 89 106 6 107 +0 0 95 89 23 50 98 415 0 95 108 109 0 +1.67132 .04
7625 6.5954236746988 0 -.566107244007958 .824331600923872 0 -.824331600923873 -.
566107244007958 13 23 182 0 0 0 0 0 0 10 17 14 17 171 110 ?89 0 111 6 20 +0 0 89
 0 23 81 1 110 732 99 17 112 0 0 113 114 14 89 167 113 ?97 17 87 6 115 -0 0 97 1
7 23 15 111 170 0 83 17 0 50 20 176 0 17 107 7 0 +1.4732 0 6.62813 -1 0 0 0 0 1
 50 107 175 0 97 115 20 0 +1.56845 .09525 6.62813 0 1 0 0 0 1 50 115 174 0 89 10
9 107 0 +1.6637 0 6.62813 -1 0 0 0 0 1 50 109 153 0 104 98 115 0 +44408920985006
25e-31 0 3.6576 0 0 -1 1 0 0 14 104 113 116 ?80 19 117 6 109 +0 0 80 19 23 81 1
 116 737 99 104 118 0 102 119 120 14 80 626 119 ?0 104 34 6 108 +0 0 0 104 23 15
 117 120 0 121 104 0 17 121 0 117 122 123 63 124 125 0 0 +17 122 0 117 126 121 5
9 127 128 0 0 +17 123 0 117 121 126 42 91 129 0 124 -17 124 0 105 90 66 42 121 1
25 0 0 -16 125 133 130 ?121 128 131 132 0 0 1 81 1 130 215 30 125 0 0 133 118 13
4 16 128 129 135 ?122 136 125 137 0 0 1 16 131 324 138 ?83 125 49 139 0 0 1 30 1
32 157 0 125 139 137 0 +1.56845 -.09525 3.6576 -1 0 0 30 139 420 0 131 140 132 0
 +1.4732 .0305254734661673 6.58368062635628 0 .824331600923873 .566107244007958
 30 137 156 0 128 132 141 0 +1.4732 0 3.6576 0 1 0 30 141 155 0 136 137 142 0 +1
.56845 .09525 3.6576 1 0 0 16 136 125 133 ?126 129 128 141 0 0 1 30 142 154 0 12
9 141 143 0 +1.6637 0 3.6576 0 1 0 16 129 121 144 ?91 145 136 142 0 0 1 30 143 1
78 0 145 142 146 0 +1.6637 -.09525 6.62813 0 0 -1 16 145 162 147 ?52 92 129 143
 0 0 1 30 146 179 0 92 143 148 0 +1.6637 .09525 6.62813 0 0 -1 16 92 163 149 ?58
 150 145 146 0 0 1 30 148 180 0 150 146 21 0 +1.4732 .09525 6.62813 0 0 -1 16 15
0 164 151 ?62 26 92 148 0 0 1 30 21 181 0 26 148 8 0 +1.4732 -.09525 6.62813 0 0
 -1 16 26 165 152 ?66 11 150 21 0 0 1 81 1 152 481 30 26 0 0 147 153 154 17 66 0
 105 124 48 63 155 26 0 127 +15 105 172 0 90 19 0 17 48 0 105 66 90 67 41 49 0 1
55 +17 155 0 111 83 127 67 66 26 0 0 -17 127 0 111 155 62 63 122 128 0 121 -17 6
2 0 111 127 37 59 156 150 0 157 +17 37 0 111 62 83 73 28 38 0 156 +17 156 0 106
 82 157 73 62 150 0 0 -17 157 0 106 156 58 59 126 136 0 122 -15 106 168 0 156 97
 0 17 58 0 106 157 82 53 88 92 0 91 +17 126 0 117 123 122 53 157 136 0 0 +17 82
 0 106 58 156 69 36 85 0 88 +17 91 0 87 88 52 53 123 129 0 126 +17 52 0 87 91 50
 42 90 145 0 123 +17 90 0 105 48 124 29 52 145 0 0 -17 36 0 34 28 72 73 82 85 0
 37 -16 85 569 32 ?82 81 78 158 0 0 1 81 1 32 716 30 85 0 0 27 84 159 30 158 660
 0 85 86 94 0 +1.56845 .09525 6.49730469879518 1 0 0 30 86 661 0 78 0 158 0 +2.1
3106 -360822483003176e-30 6.56271734939759 -1 0 0 30 94 659 0 81 158 160 0 +1.66
37 -.03052547346616785 6.58368062635628 0 .824331600923871 -.56610724400796 30 1
60 658 0 38 94 140 0 +1.4732 -.03052547346616785 6.58368062635628 0 .82433160092
3871 -.56610724400796 16 38 566 161 ?37 49 81 160 0 0 1 30 140 421 0 49 160 139
 0 +1.67132 -.09525 6.49730469879518 -1 0 0 16 49 327 162 ?48 131 38 140 0 0 1 8
1 1 162 478 30 49 0 0 44 147 163 80 7 CCCCCDI12 legal_owners0 17 1 lCZ1 30 164 1
65 9000 0 0 0 0 3 6 0 0 0 FFTFTFTTFFFFFFFFF1 81 1 44 473 30 67 0 0 40 162 166 81
 1 147 480 30 145 0 0 162 152 167 82 255 3 163 71 2 1 82 3 167 71 4 1 82 3 166 7
1 1 0 79 255 9 165 BTI/DetId81 1 161 719 30 38 0 0 93 149 168 81 1 93 718 30 81
 0 0 84 161 169 81 1 149 720 30 92 0 0 161 151 170 82 3 168 78 19 1 81 1 151 721
 30 150 0 0 149 24 171 82 3 170 78 24 1 81 1 24 722 30 11 0 0 151 138 172 82 3 1
71 78 27 1 81 1 138 723 30 131 0 0 24 173 174 82 3 172 78 34 1 81 1 173 724 30 9
7 0 101 138 100 175 82 3 174 78 35 1 81 1 101 734 99 97 173 0 113 96 176 81 1 10
0 725 30 95 0 96 173 177 178 82 3 175 78 7 2 81 1 177 726 30 89 0 113 100 112 17
9 82 3 178 78 15 2 81 1 113 733 99 89 177 0 110 101 180 81 1 112 727 30 17 0 110
 177 181 182 82 3 179 78 16 2 81 1 181 728 30 80 0 119 112 0 183 82 3 182 78 17
 2 81 1 119 738 99 80 181 0 116 0 184 82 3 183 78 21 2 80 1 99 0 185 8001 0 0 0
 0 3 5 0 0 0 FFFFTFTFFFFFFFFFF2 83 255 3 184 .972549019607843 .529411764705882 .
00392156862745098 79 15 185 SDL/TYSA_COLOUR83 3 180 .972549019607843 .5294117647
05882 .00392156862745098 83 3 176 .972549019607843 .529411764705882 .00392156862
745098 81 1 84 717 30 78 0 0 32 93 186 82 3 169 78 18 1 82 3 186 78 17 1 82 3 15
9 78 9 1 17 83 0 111 37 155 12 47 131 0 0 +17 47 0 46 41 39 67 83 131 0 48 -81 1
 153 485 30 19 0 102 152 71 187 82 3 154 71 5 1 81 1 102 736 99 19 153 0 96 116
 188 81 1 71 712 30 69 0 0 153 75 189 82 3 187 71 3 2 81 1 75 713 30 73 0 0 71 3
1 190 82 3 189 78 6 0 82 3 190 78 7 0 83 3 188 .972549019607843 .529411764705882
 .00392156862745098 81 1 144 209 30 129 0 0 61 135 191 81 1 61 203 30 59 0 0 65
 144 192 81 1 135 211 30 128 0 0 144 133 193 82 3 191 30 12 1 81 1 133 213 30 13
6 0 0 135 130 194 82 3 193 30 14 1 82 3 194 30 18 1 81 1 65 201 30 63 0 0 57 61
 195 82 3 192 30 14 0 81 1 57 199 30 53 0 0 51 65 196 82 3 195 30 12 0 81 1 51 1
97 30 42 0 0 0 57 197 82 3 196 30 2 0 82 3 197 30 0 0 81 1 118 218 30 104 0 116
 130 43 198 82 3 134 30 20 1 81 1 43 223 30 1 0 199 118 40 200 82 3 198 30 5 2 8
1 1 199 729 201 1 43 14 0 0 202 82 3 200 30 1 3 80 1 201 203 204 8038 0 0 0 0 0
 0 0 0 0 TTTTTTTTTTTTTFTFT10 81 1 14 730 203 1 199 2 0 0 205 98 255 37 202 80 97
 114 116 32 50 49 32 55 46 53 120 55 46 53 120 49 49 52 46 51 55 53 32 97 110 10
3 108 101 100 32 51 52 46 52 55 57 80 1 203 206 207 8017 0 0 0 0 0 0 0 0 0 TTTTT
TTTTTTTTFTFT3 84 255 37 205 Part 21 7.5x7.5x114.375 angled 34.47979 13 207 SDL/T
YSA_NAME79 14 204 SDL/TYSA_UNAME50 108 652 0 80 0 98 0 +2.13106 4.33742032019782
 3.584007009020775 0 .56610724400796 .824331600923871 0 -.824331600923871 .56610
724400796 83 3 120 .972549019607843 .529411764705882 .00392156862745098 83 3 114
 .972549019607843 .529411764705882 .00392156862745098 83 3 103 .972549019607843
 .529411764705882 .00392156862745098 82 3 77 78 14 0 82 3 45 71 0 0 82 3 33 78 1
5 0 19 18 183 0 1 0 10 6 0 S0 74 4 CI16 index_map_offset0 0 1 dCCZ20 16 5 0 0 18
1 199 14 2 119 0 0 0 0 0 0 0 0 0 0 0 0 0 0 0 80 1 13 99 208 8040 0 0 0 0 3 5 0 0
 0 TTTFFFFFFFFFFFFFF2 83 3 15 .972549019607843 .529411764705882 .003921568627450
98 79 17 208 SDL/TYSA_COLOUR_21 0 
