**ABCDEFGHIJKLMNOPQRSTUVWXYZabcdefghijklmnopqrstuvwxyz**************************
**PARASOLID !"#$%&'()*+,-./:;<=>?@[\]^_`{|}~0123456789**************************
**PART1;
MC=unknown;
MC_MODEL=unknown;
MC_ID=unknown;
OS=unknown;
OS_RELEASE=unknown;
FRU=Parasolid 36.0.180;
APPL=Onshape;
SITE=unknown;
USER=unknown;
FORMAT=text;
GUISE=transmit;
KEY=BTGapi::writeModels_.xmt;
FILE=BTGapi::writeModels_.xmt;
DATE=2024-05-15T00:06:35 (UTC);
**PART2;
SCH=SCH_3600180_36001;
USFLD_SIZE=0;
**PART3;
**END_OF_HEADER*****************************************************************
T51 : TRANSMIT FILE created by modeller version 360018023 SCH_3600180_36001_1300
6231 0 12 36 CCCI7 lattice222 0 CCCI4 mesh1006 0 I8 polyline1008 0 CCCCCCCDI5 ow
ner1040 0 CCCI16 boundary_lattice222 0 CCCI13 boundary_mesh1006 0 I17 boundary_p
olyline1008 0 CCCA16 index_map_offset0 0 1 dA9 index_map82 0 A17 node_id_index_m
ap82 0 A20 schema_embedding_map82 0 A5 child12 0 A14 lowest_node_id0 0 1 dA16 me
sh_offset_data206 0 Z1 449 2 3 0 0 0 0 0 0 0 1e3 1e-8 0 4 5 1 0 1 2 6 0 7 8 9 0
 0 10 11 12 0 0 0 0 0 0 0 81 255 1 2 443 13 1 14 0 0 0 15 70 11 CI9 list_type0 0
 1 uI10 notransmit0 0 1 lCCCDCCDI12 finger_index0 0 1 dI12 finger_block1012 0 CZ
3 0 4 T1 0 0 5 20 1 16 16 13 255 6 5 0 1 0 17 0 0 18 0 50 255 7 93 0 17 19 0 0 +
1.3843 -2.49555 -1999999999835465e-21 1 0 0 0 0 -1 30 255 8 100 0 20 21 0 0 +1.3
843 -2.49555 1.2192 0 1 0 29 255 9 179 0 12 22 0 1.3843 -2.4622125 3.6576 19 9 C
CCCCCI5 frame230 0 CA5 owner12 0 Z10 1 0 1 18 0 23 0 V0 16 255 11 31 24 ?25 0 26
 27 0 0 1 18 255 12 175 28 29 0 30 9 ?1 81 1 28 426 31 12 0 0 32 33 34 17 255 29
 0 35 36 37 12 38 39 0 40 +18 30 59 41 42 12 43 22 ?1 81 1 41 113 31 30 0 0 44 4
5 46 17 42 0 47 25 48 30 49 50 0 51 +18 43 63 52 53 30 54 55 ?1 29 22 88 0 30 55
 9 1.3843 -2.54 3.6576 29 55 87 0 43 56 22 1.4732 -2.54 3.6576 29 56 84 0 54 57
 55 1.4732 -2.54 1.2192 18 54 72 44 58 43 59 56 ?1 29 57 83 0 59 60 56 1.3843 -2
.54 1.2192 18 59 73 45 48 54 61 57 ?1 29 60 364 0 61 62 57 1.4732 -2.4622125 3.6
576 18 61 300 63 36 59 64 60 ?1 29 62 366 0 64 65 60 1.3843 -2.4622125 1.2192 18
 64 308 33 37 61 66 62 ?1 29 65 367 0 66 0 62 1.4732 -2.4622125 1.2192 18 66 304
 32 67 64 0 65 ?1 81 1 32 425 31 66 0 0 63 28 68 17 67 0 35 37 36 66 69 70 0 71
 -15 255 35 335 0 67 72 0 17 37 0 35 29 67 64 71 73 0 38 +17 36 0 35 67 29 61 40
 74 0 69 -17 69 0 75 53 76 61 67 70 0 77 +16 70 280 78 ?69 73 0 79 0 0 1 17 71 0
 80 58 81 66 37 73 0 76 -15 80 211 0 71 82 0 17 58 0 80 83 71 54 76 84 0 85 +17
 81 0 80 71 83 64 48 20 0 0 +16 73 250 86 ?37 39 70 87 0 0 1 17 76 0 75 69 88 66
 58 84 0 0 -15 75 16 0 76 89 0 17 88 0 75 76 53 54 90 91 0 0 -16 84 52 92 ?58 91
 93 94 0 0 1 81 1 92 433 31 84 0 0 95 24 96 16 91 49 97 ?90 50 84 98 0 0 1 16 93
 53 99 ?83 84 20 21 0 0 1 30 94 98 0 84 100 21 0 +1.4732 -2.49555 1.2192 0 -1 0
 30 100 96 0 50 98 94 0 +1.3843 -2.54 -1999999999835465e-21 0 0 1 30 21 99 0 93
 94 8 0 +1.42875 -2.54 1.2192 -1 0 0 16 50 48 101 ?42 102 91 100 0 0 1 30 98 95
 0 91 27 100 0 +1.4732 -2.54 -1999999999835465e-21 0 0 1 30 27 81 0 11 103 98 0
 +1.3843 -2.49555 3.6576 0 1 0 30 103 80 0 26 104 27 0 +1.42875 -2.54 3.6576 -1
 0 0 16 26 35 105 ?51 11 102 103 0 0 1 30 104 79 0 102 106 103 0 +1.4732 -2.4955
5 3.6576 0 -1 0 16 102 39 95 ?53 26 50 104 0 0 1 30 106 356 0 74 107 104 0 +1.42
875 -2.4622125 3.6576 -1 0 0 16 74 285 108 ?40 20 39 106 0 0 1 30 107 357 0 39 8
7 106 0 +1.3843 -2.4622125 -1999999999835465e-21 0 0 1 16 39 260 109 ?29 74 73 1
07 0 0 1 30 87 358 0 73 79 107 0 +1.42875 -2.4622125 1.2192 -1 0 0 30 79 359 0 7
0 0 87 0 +1.4732 -2.4622125 -1999999999835465e-21 0 0 1 81 1 109 431 31 39 0 0 8
6 95 110 80 7 CCCCCDI12 legal_owners0 17 1 lCZ1 31 111 112 9000 0 0 0 0 3 6 0 0
 0 FFTFTFTTFFFFFFFFF1 81 1 86 430 31 73 0 0 108 109 113 81 1 95 432 31 102 0 0 1
09 92 114 82 255 3 110 203 3 1 82 3 114 203 8 1 81 1 108 429 31 74 0 0 78 86 115
 82 3 113 203 2 1 81 1 78 428 31 70 0 0 33 108 116 82 3 115 203 1 1 81 1 33 427
 31 64 0 0 28 78 117 82 3 116 203 0 1 82 3 117 203 7 0 79 255 9 112 BTI/DetId17
 40 0 118 119 77 12 36 74 0 25 +16 20 54 120 ?81 93 74 8 0 0 1 81 1 120 435 31 2
0 0 0 24 121 122 81 1 24 434 31 11 0 0 92 120 123 81 1 121 436 31 72 0 124 120 1
25 126 82 3 122 203 11 1 14 255 72 332 124 ?0 127 35 6 128 +0 0 0 89 23 81 1 124
 449 129 72 121 0 130 0 131 81 1 125 437 31 89 0 132 121 133 134 82 3 126 203 1
 2 14 89 14 132 ?135 82 75 6 136 -0 0 72 135 23 81 1 132 446 129 89 125 0 137 13
8 139 81 1 133 438 31 127 0 130 125 140 141 82 3 134 203 2 2 14 127 23 130 ?72 1
35 118 6 142 -0 0 135 82 23 81 1 130 448 129 127 133 0 138 124 143 81 1 140 439
 31 82 0 137 133 144 145 82 3 141 203 3 2 14 82 6 137 ?89 17 80 6 146 +0 0 127 1
7 23 81 1 137 445 129 82 140 0 147 132 148 81 1 144 440 31 17 0 147 140 0 149 82
 3 145 203 4 2 14 17 20 147 ?82 0 47 6 7 -0 0 82 0 23 81 1 147 444 129 17 144 0
 0 137 150 82 3 149 203 5 2 80 1 129 0 151 8001 0 0 0 0 3 5 0 0 0 FFFFTFTFFFFFFF
FFF2 83 255 3 150 .498039215686275 .498039215686275 .498039215686275 79 15 151 S
DL/TYSA_COLOUR15 47 196 0 38 17 0 13 23 3 0 0 0 0 0 0 10 17 17 38 0 47 48 25 64
 29 39 0 81 -17 48 0 47 42 38 59 81 20 0 83 -17 25 0 47 38 42 12 119 11 0 0 +17
 119 0 118 152 40 30 25 11 0 0 -15 118 30 0 77 127 0 17 152 0 118 77 119 43 51 2
6 0 0 -17 77 0 118 40 152 61 53 102 0 0 -17 51 0 153 49 90 30 152 26 0 119 +15 1
53 19 0 85 135 0 17 49 0 153 85 51 59 42 50 0 0 -17 90 0 153 51 85 43 88 91 0 15
2 +17 85 0 153 90 49 54 83 93 0 88 -17 83 0 80 81 58 59 85 93 0 49 +14 135 17 13
8 ?127 89 153 6 19 -0 0 89 127 23 81 1 138 447 129 135 154 0 132 130 155 50 19 9
2 0 135 136 7 0 +1.42875 -2.54 -1999999999835465e-21 0 1 0 0 0 1 50 136 90 0 89
 142 19 0 +1.4732 -2.49555 -1999999999835465e-21 -1 0 0 0 0 1 50 142 76 0 127 14
6 136 0 +1.56845 0 3.6576 0 0 -1 1 0 0 50 146 75 0 82 128 142 0 +1.56845 -2.6352
5 1.2192 0 0 -1 1 0 0 50 128 347 0 72 0 146 0 +1.42875 -2.4622125 -1999999999835
465e-21 0 1 0 0 0 1 81 1 154 133 31 135 0 138 99 156 157 83 3 155 .4980392156862
75 .498039215686275 .498039215686275 81 1 99 126 31 93 0 0 105 154 158 81 1 156
 135 31 1 0 159 154 63 160 82 3 157 194 13 2 81 1 159 441 161 1 156 14 0 0 162 8
1 1 63 424 31 61 0 0 156 32 163 82 3 160 194 1 3 82 3 163 203 4 0 80 1 161 164 1
65 8038 0 0 0 0 0 0 0 0 0 TTTTTTTTTTTTTFTFT10 81 1 14 442 164 1 159 2 0 0 166 98
 255 8 162 80 97 114 116 32 51 49 55 80 1 164 167 168 8017 0 0 0 0 0 0 0 0 0 TTT
TTTTTTTTTTFTFT3 84 255 8 166 Part 31779 13 168 SDL/TYSA_NAME79 14 165 SDL/TYSA_U
NAME81 1 105 125 31 26 0 0 101 99 169 82 3 158 194 27 1 81 1 101 119 31 50 0 0 9
7 105 170 82 3 169 194 26 1 81 1 97 117 31 91 0 0 45 101 171 82 3 170 194 5 1 81
 1 45 114 31 59 0 0 41 97 172 82 3 171 194 2 1 82 3 172 194 11 0 17 53 0 75 88 6
9 43 77 102 0 90 +83 3 148 .498039215686275 .498039215686275 .498039215686275 83
 3 143 .498039215686275 .498039215686275 .498039215686275 83 3 139 .498039215686
275 .498039215686275 .498039215686275 83 3 131 .498039215686275 .498039215686275
 .498039215686275 82 3 123 203 10 1 82 3 96 203 9 1 82 3 68 203 5 0 81 1 44 110
 31 54 0 0 52 41 173 81 1 52 109 31 43 0 0 0 44 174 82 3 173 194 5 0 82 3 174 19
4 4 0 82 3 46 194 10 0 82 3 34 203 6 0 19 18 4 0 1 0 10 6 0 S0 74 4 CI16 index_m
ap_offset0 0 1 dCCZ20 16 5 0 0 144 159 14 2 124 0 0 0 0 0 0 0 0 0 0 0 0 0 0 0 80
 1 13 129 175 8040 0 0 0 0 3 5 0 0 0 TTTFFFFFFFFFFFFFF2 83 3 15 .498039215686275
 .498039215686275 .498039215686275 79 17 175 SDL/TYSA_COLOUR_21 0 
