**ABCDEFGHIJKLMNOPQRSTUVWXYZabcdefghijklmnopqrstuvwxyz**************************
**PARASOLID !"#$%&'()*+,-./:;<=>?@[\]^_`{|}~0123456789**************************
**PART1;
MC=unknown;
MC_MODEL=unknown;
MC_ID=unknown;
OS=unknown;
OS_RELEASE=unknown;
FRU=Parasolid 36.0.180;
APPL=Onshape;
SITE=unknown;
USER=unknown;
FORMAT=text;
GUISE=transmit;
KEY=BTGapi::writeModels_.xmt;
FILE=BTGapi::writeModels_.xmt;
DATE=2024-05-15T00:06:35 (UTC);
**PART2;
SCH=SCH_3600180_36001;
USFLD_SIZE=0;
**PART3;
**END_OF_HEADER*****************************************************************
T51 : TRANSMIT FILE created by modeller version 360018023 SCH_3600180_36001_1300
6231 0 12 36 CCCI7 lattice222 0 CCCI4 mesh1006 0 I8 polyline1008 0 CCCCCCCDI5 ow
ner1040 0 CCCI16 boundary_lattice222 0 CCCI13 boundary_mesh1006 0 I17 boundary_p
olyline1008 0 CCCA16 index_map_offset0 0 1 dA9 index_map82 0 A17 node_id_index_m
ap82 0 A20 schema_embedding_map82 0 A5 child12 0 A14 lowest_node_id0 0 1 dA16 me
sh_offset_data206 0 Z1 335 2 3 0 0 0 0 0 0 0 1e3 1e-8 0 4 5 1 0 1 2 6 0 7 8 9 0
 0 10 11 12 0 0 0 0 0 0 0 81 255 1 2 329 13 1 14 0 0 0 15 70 11 CI9 list_type0 0
 1 uI10 notransmit0 0 1 lCCCDCCDI12 finger_index0 0 1 dI12 finger_block1012 0 CZ
3 0 4 T1 0 0 5 20 1 16 16 13 255 6 227 0 1 0 17 0 0 18 0 50 255 7 222 0 17 19 0
 0 +-1.2954 0 3.6576 0 0 -1 1 0 0 30 255 8 226 0 11 20 0 0 +-1.2954 -3.048 3.657
6 -1 0 0 29 255 9 203 0 21 22 0 -1.3843 3.048 3.6576 19 9 CCCCCCI5 frame230 0 CA
5 owner12 0 Z10 102 0 1 18 0 23 0 V0 16 255 11 210 24 ?25 0 26 8 0 0 1 18 255 12
 96 27 28 0 29 30 ?1 81 1 27 303 31 12 0 0 32 33 34 17 255 28 0 35 36 37 12 38 3
9 0 40 -18 29 91 41 38 12 42 43 ?1 29 30 98 0 12 43 44 -1.2954 3.048 3.6576 29 4
3 93 0 29 45 30 -1.2954 3.048 3.99415 29 44 206 0 46 30 47 -1.3843 -3.048 3.6576
 18 46 194 48 49 50 0 44 ?1 29 47 205 0 50 44 22 -1.3843 -3.048 3.99415 18 50 19
0 33 51 52 46 47 ?1 29 22 204 0 52 47 9 -1.3843 3.048 3.99415 18 52 186 53 54 21
 50 22 ?1 81 1 53 306 31 52 0 0 55 41 56 17 54 0 35 37 36 52 57 58 0 59 +18 21 1
82 32 57 60 52 9 ?1 81 1 32 302 31 21 0 0 61 27 62 17 57 0 63 64 65 21 54 58 0 3
6 -18 60 61 61 66 42 21 67 ?1 81 1 61 301 31 60 0 0 48 32 68 17 66 0 69 40 70 60
 71 72 0 73 -18 42 66 55 70 29 60 45 ?1 29 67 63 0 60 0 45 -1.2954 -3.048 3.6576
 29 45 68 0 42 67 43 -1.2954 -3.048 3.99415 81 1 55 305 31 42 0 0 33 53 74 17 70
 0 69 66 38 42 75 76 0 77 -15 255 69 6 0 40 78 0 17 38 0 69 70 40 29 28 39 0 37
 +17 75 0 79 59 77 29 70 76 0 0 +16 76 25 80 ?75 39 72 81 0 0 1 17 77 0 79 75 51
 42 82 26 0 71 -15 79 213 0 51 83 0 17 51 0 79 77 59 50 65 84 0 82 -17 82 0 85 4
9 71 50 77 26 0 86 +16 26 209 87 ?82 11 88 20 0 0 1 17 71 0 85 82 73 42 66 72 0
 0 +15 85 215 0 49 89 0 17 73 0 85 71 49 60 25 11 0 90 -16 72 20 91 ?71 76 92 93
 0 0 1 81 1 91 317 31 72 0 0 94 95 96 16 92 15 97 ?40 72 58 98 0 0 1 30 93 22 0
 72 98 81 0 +-1.2954 -3.048 3.825875 0 0 1 30 98 17 0 92 0 93 0 +-1.2954 0 3.657
6 0 1 0 30 81 27 0 76 93 99 0 +-1.2954 0 3.99415 0 1 0 30 99 48 0 39 81 100 0 +-
1.2954 3.048 3.825875 0 0 1 16 39 46 101 ?38 102 76 99 0 0 1 30 100 202 0 103 99
 104 0 +-1.3843 0 3.6576 0 1 0 16 103 174 105 ?106 107 0 100 0 0 1 30 104 201 0
 107 100 108 0 +-1.3843 -3.048 3.825875 0 0 1 16 107 170 94 ?86 84 103 104 0 0 1
 30 108 200 0 84 104 109 0 +-1.3843 0 3.99415 0 1 0 16 84 162 110 ?65 58 107 108
 0 0 1 30 109 199 0 58 108 111 0 +-1.3843 3.048 3.825875 0 0 1 16 58 158 95 ?54
 92 84 109 0 0 1 30 111 223 0 102 109 112 0 +-1.2954 3.048 3.6576 -1 0 0 16 102
 207 113 ?36 88 39 111 0 0 1 30 112 224 0 88 111 20 0 +-1.2954 3.048 3.99415 -1
 0 0 16 88 208 114 ?59 26 102 112 0 0 1 30 20 225 0 26 112 8 0 +-1.2954 -3.048 3
.99415 -1 0 0 81 1 114 311 31 88 0 0 87 105 115 17 59 0 79 51 75 52 37 88 0 65 +
17 37 0 35 28 54 29 59 88 0 75 -17 65 0 63 57 86 52 51 84 0 0 +15 63 157 0 64 11
6 0 17 86 0 63 65 64 50 49 107 0 0 +17 64 0 63 86 57 46 106 103 0 0 -17 49 0 85
 73 82 46 86 107 0 25 -17 25 0 117 106 90 46 73 11 0 64 +15 117 217 0 106 17 0 1
7 106 0 117 118 25 21 64 103 0 0 +17 90 0 117 25 118 60 40 92 0 0 -17 118 0 117
 90 106 12 36 102 0 0 -17 40 0 69 38 66 12 90 92 0 118 +17 36 0 35 54 28 21 118
 102 0 106 +15 35 211 0 54 119 0 14 255 119 212 120 ?78 83 35 6 121 +0 0 78 83 2
3 81 1 120 333 122 119 123 0 124 125 126 14 78 1 125 ?116 119 69 6 127 +0 0 116
 119 23 14 83 214 124 ?119 89 79 6 128 -0 0 119 89 23 50 121 219 0 119 129 128 0
 +-1.2954 3.048 3.825875 0 1 0 0 0 1 13 23 103 0 0 0 0 0 0 10 17 14 17 218 130 ?
89 0 117 6 7 +0 0 89 0 23 81 1 130 330 122 17 131 0 0 132 133 14 89 216 132 ?83
 17 85 6 19 -0 0 83 17 23 81 1 132 331 122 89 134 0 130 124 135 50 19 221 0 89 1
28 7 0 +-1.2954 -3.048 3.825875 0 1 0 0 0 1 50 128 220 0 83 121 19 0 +-1.2954 0
 3.99415 0 0 -1 1 0 0 80 7 CCCCCDI12 legal_owners0 17 1 lCZ1 122 0 136 8001 0 0
 0 0 3 5 0 0 0 FFFFTFTFFFFFFFFFF2 81 1 134 324 31 89 0 132 137 123 138 81 1 124
 332 122 83 137 0 132 120 139 83 255 3 135 .647058823529412 .647058823529412 .64
7058823529412 81 1 137 323 31 83 0 124 140 134 141 83 3 139 .647058823529412 .64
7058823529412 .647058823529412 80 1 31 142 143 9000 0 0 0 0 3 6 0 0 0 FFTFTFTTFF
FFFFFFF1 81 1 140 322 31 78 0 125 144 137 145 82 255 3 141 15 9 2 81 1 125 334 1
22 78 140 0 120 146 147 81 1 144 321 31 116 0 146 131 140 148 82 3 145 15 8 2 14
 116 144 146 ?0 78 63 6 129 -0 0 0 78 23 81 1 146 335 122 116 144 0 125 0 149 81
 1 131 320 31 17 0 130 101 144 150 82 3 148 15 7 2 81 1 101 319 31 39 0 0 95 131
 151 82 3 150 15 6 2 81 1 95 318 31 58 0 0 91 101 152 82 3 151 15 23 1 82 3 152
 15 22 1 83 3 149 .647058823529412 .647058823529412 .647058823529412 50 129 198
 0 116 127 121 0 +-1.3843 0 2.40919 1 0 0 0 -1 0 50 127 3 0 78 0 129 0 +-1.2954
 0 2.40919 1 0 0 0 -1 0 83 3 147 .647058823529412 .647058823529412 .647058823529
412 79 255 9 143 BTI/DetId81 1 123 325 31 119 0 120 134 153 154 82 3 138 15 10 2
 81 1 153 326 31 1 0 155 123 0 156 82 3 154 15 11 2 81 1 155 327 157 1 153 14 0
 0 158 82 3 156 15 1 3 80 1 157 159 160 8038 0 0 0 0 0 0 0 0 0 TTTTTTTTTTTTTFTFT
10 81 1 14 328 159 1 155 2 0 0 161 98 255 13 158 80 97 114 116 32 57 32 68 69 76
 69 84 69 80 1 159 162 163 8017 0 0 0 0 0 0 0 0 0 TTTTTTTTTTTTTFTFT3 84 255 13 1
61 Part 9 DELETE79 13 163 SDL/TYSA_NAME79 14 160 SDL/TYSA_UNAME79 15 136 SDL/TYS
A_COLOUR83 3 133 .647058823529412 .647058823529412 .647058823529412 83 3 126 .64
7058823529412 .647058823529412 .647058823529412 81 1 87 310 31 26 0 0 113 114 16
4 81 1 105 312 31 103 0 0 114 97 165 82 3 115 15 15 1 81 1 97 313 31 92 0 0 105
 110 166 82 3 165 15 16 1 81 1 110 314 31 84 0 0 97 80 167 82 3 166 15 17 1 81 1
 80 315 31 76 0 0 110 94 168 82 3 167 15 18 1 81 1 94 316 31 107 0 0 80 91 169 8
2 3 168 15 19 1 82 3 169 15 20 1 81 1 113 309 31 102 0 0 24 87 170 82 3 164 15 1
4 1 81 1 24 308 31 11 0 0 41 113 171 82 3 170 15 13 1 81 1 41 307 31 29 0 0 53 2
4 172 82 3 171 15 12 1 82 3 172 15 15 0 82 3 96 15 21 1 81 1 33 304 31 50 0 0 27
 55 173 82 3 74 15 13 0 82 3 173 15 12 0 81 1 48 300 31 46 0 0 0 61 174 82 3 68
 15 9 0 82 3 174 15 8 0 82 3 62 15 10 0 82 3 56 15 14 0 82 3 34 15 11 0 19 18 22
8 0 1 0 10 6 0 S0 74 4 CI16 index_map_offset0 0 1 dCCZ20 16 5 0 0 153 155 14 2 1
46 0 0 0 0 0 0 0 0 0 0 0 0 0 0 0 80 1 13 122 175 8040 0 0 0 0 3 5 0 0 0 TTTFFFFF
FFFFFFFFF2 83 3 15 .647058823529412 .647058823529412 .647058823529412 79 17 175
 SDL/TYSA_COLOUR_21 0 
