**ABCDEFGHIJKLMNOPQRSTUVWXYZabcdefghijklmnopqrstuvwxyz**************************
**PARASOLID !"#$%&'()*+,-./:;<=>?@[\]^_`{|}~0123456789**************************
**PART1;
MC=unknown;
MC_MODEL=unknown;
MC_ID=unknown;
OS=unknown;
OS_RELEASE=unknown;
FRU=Parasolid 36.0.180;
APPL=Onshape;
SITE=unknown;
USER=unknown;
FORMAT=text;
GUISE=transmit;
KEY=BTGapi::writeModels_.xmt;
FILE=BTGapi::writeModels_.xmt;
DATE=2024-05-15T00:06:35 (UTC);
**PART2;
SCH=SCH_3600180_36001;
USFLD_SIZE=0;
**PART3;
**END_OF_HEADER*****************************************************************
T51 : TRANSMIT FILE created by modeller version 360018023 SCH_3600180_36001_1300
6231 0 12 36 CCCI7 lattice222 0 CCCI4 mesh1006 0 I8 polyline1008 0 CCCCCCCDI5 ow
ner1040 0 CCCI16 boundary_lattice222 0 CCCI13 boundary_mesh1006 0 I17 boundary_p
olyline1008 0 CCCA16 index_map_offset0 0 1 dA9 index_map82 0 A17 node_id_index_m
ap82 0 A20 schema_embedding_map82 0 A5 child12 0 A14 lowest_node_id0 0 1 dA16 me
sh_offset_data206 0 Z1 257 2 3 0 0 0 0 0 0 0 1e3 1e-8 0 4 5 1 0 1 2 6 0 7 8 9 0
 0 10 11 12 0 0 0 0 0 0 0 81 255 1 2 251 13 1 14 0 0 0 15 70 11 CI9 list_type0 0
 1 uI10 notransmit0 0 1 lCCCDCCDI12 finger_index0 0 1 dI12 finger_block1012 0 CZ
3 0 4 T1 0 0 5 20 1 16 16 13 255 6 203 0 1 0 17 0 0 18 0 50 255 7 198 0 17 19 0
 0 +-3.1115 -4.31010642727111 3.95229792775738 -1 0 0 0 0 1 30 255 8 202 0 20 21
 0 0 +-3.1115 -1.321203692061292 6.00491787844364 0 .566107244007959 -.824331600
923871 29 255 9 179 0 22 23 0 -.6731 -2.317691175033985 5.3022879755927 19 9 CCC
CCCI5 frame230 0 CA5 owner12 0 Z10 1 0 1 18 0 24 0 V0 16 255 11 185 25 ?26 0 27
 21 0 0 1 18 255 12 39 28 29 0 30 31 ?1 81 1 28 229 32 12 0 0 33 25 34 17 255 29
 0 35 36 37 12 38 27 0 39 -18 30 42 40 41 12 42 43 ?1 29 31 77 0 12 43 44 -.6731
 -2.32622877990768 5.31471992654914 29 43 76 0 30 45 31 -.6731 -1.32120369206129
4 6.00491787844364 29 44 182 0 46 31 47 -3.1115 -1.312666087187596 5.99248592748
721 18 46 170 48 49 50 0 44 ?1 29 47 181 0 50 44 23 -3.1115 -2.31769117503398 5.
3022879755927 18 50 166 51 26 52 46 47 ?1 29 23 180 0 52 47 9 -.6731 -1.31266608
71876 5.99248592748721 18 52 162 53 54 22 50 23 ?1 81 1 53 224 32 52 0 0 55 40 5
6 17 54 0 57 58 38 52 59 60 0 61 +18 22 158 33 38 62 52 9 ?1 81 1 33 228 32 22 0
 0 63 28 64 17 38 0 57 54 39 22 29 27 0 59 +18 62 60 63 65 42 22 66 ?1 81 1 63 2
27 32 62 0 0 48 33 67 17 65 0 68 69 41 62 70 71 0 72 +18 42 57 55 73 30 62 45 ?1
 29 66 70 0 62 0 45 -3.1115 -1.321203692061292 6.00491787844364 29 45 71 0 42 66
 43 -3.1115 -2.326228779907675 5.31471992654913 81 1 55 223 32 42 0 0 51 53 74 1
7 73 0 75 76 77 42 26 11 0 69 -15 255 75 193 0 77 17 0 17 76 0 75 49 73 62 69 78
 0 0 +17 77 0 75 73 49 50 79 80 0 81 -17 26 0 35 37 36 50 73 11 0 77 +17 69 0 68
 82 65 42 76 78 0 36 -15 68 7 0 69 83 0 17 82 0 68 41 69 12 36 84 0 0 -16 78 30
 85 ?76 71 86 87 0 0 1 17 36 0 35 26 29 42 82 84 0 0 +15 35 187 0 37 88 0 16 84
 12 89 ?36 20 90 91 0 0 1 81 1 89 235 32 84 0 0 92 93 94 16 20 186 95 ?49 96 84
 8 0 0 1 16 90 15 97 ?41 84 71 98 0 0 1 30 91 69 0 84 98 87 0 +-1.1049 -2.326228
77990768 5.31471992654914 -1 0 0 30 98 68 0 90 99 91 0 +-.6731 -1.82371623598448
5 5.65981890249639 -1821231995776175e-31 .824331600923871 .566107244007959 30 87
 85 0 78 91 100 0 +-3.1115 -4.31010642727111 3.95229792775738 0 .824331600923871
 .566107244007959 30 100 178 0 101 87 102 0 +-1.1049 -1.3126660871876 5.99248592
748721 -1 0 0 16 101 146 93 ?103 60 80 100 0 0 1 30 102 177 0 60 100 104 0 +-.67
31 -1.81517863111079 5.64738695153996 -1821231995776175e-31 .824331600923871 .56
6107244007959 16 60 142 105 ?54 86 101 102 0 0 1 30 104 176 0 86 102 106 0 +-1.1
049 -2.317691175033985 5.3022879755927 -1 0 0 16 86 134 92 ?81 78 60 104 0 0 1 3
0 106 175 0 80 104 107 0 +-3.1115 -4.301568822397415 3.939865976800945 0 .824331
600923871 .566107244007959 16 80 154 108 ?79 101 0 106 0 0 1 30 107 199 0 27 106
 109 0 +-.6731 -2.32622877990768 5.31471992654914 0 .566107244007959 -.824331600
923871 16 27 183 110 ?38 11 96 107 0 0 1 30 109 200 0 96 107 21 0 +-.6731 -1.321
203692061294 6.00491787844364 0 .566107244007959 -.824331600923871 16 96 184 111
 ?61 27 20 109 0 0 1 30 21 201 0 11 109 8 0 +-3.1115 -2.326228779907675 5.314719
92654913 0 .566107244007959 -.824331600923871 81 1 111 231 32 96 0 0 25 95 112 1
7 61 0 113 103 70 52 58 96 0 114 +15 113 191 0 103 115 0 17 103 0 113 72 61 46 1
14 101 0 79 +17 70 0 113 61 72 30 65 71 0 0 -17 58 0 57 39 54 30 61 96 0 70 -17
 114 0 116 59 79 52 103 101 0 0 -15 116 133 0 79 117 0 17 59 0 116 81 114 22 54
 60 0 37 -17 79 0 116 114 81 46 77 80 0 0 +17 81 0 116 79 59 50 37 86 0 0 +17 37
 0 35 29 26 22 81 86 0 0 -14 255 117 121 118 ?0 83 116 6 119 -0 0 0 83 24 81 1 1
18 257 120 117 121 0 122 0 123 14 83 4 122 ?117 115 68 6 124 +0 0 117 115 24 50
 119 174 0 117 124 125 0 +-.3175 -2.17465501836173 5.40051762535558 0 -.56610724
400796 .824331600923871 1 0 0 13 24 3 0 0 0 0 0 0 10 17 14 17 194 126 ?88 0 75 6
 7 +0 0 88 0 24 81 1 126 252 120 17 127 0 0 128 129 14 88 188 128 ?130 17 35 6 1
25 +0 0 130 17 24 81 1 128 253 120 88 131 0 126 132 133 14 130 190 132 ?115 88 5
7 6 134 -0 0 115 88 24 50 125 195 0 88 119 134 0 +-1.1049 -2.32622877990768 5.31
471992654914 0 -.824331600923871 -.566107244007959 0 .56610724400796 -.824331600
923872 50 134 196 0 130 125 19 0 +-.6731 -1.823716235984485 5.65981890249639 -1
 -150129908673195e-30 -1031012625827964e-31 150129908673195e-30 -1 0 50 19 197 0
 115 134 7 0 +-1.1049 -1.321203692061294 6.00491787844364 0 -.824331600923871 -.
566107244007959 0 .56610724400796 -.824331600923872 14 115 192 135 ?83 130 113 6
 19 -0 0 83 130 24 81 1 135 255 120 115 136 0 132 122 137 80 7 CCCCCDI12 legal_o
wners0 17 1 lCZ1 120 0 138 8001 0 0 0 0 3 5 0 0 0 FFFFTFTFFFFFFFFFF2 81 1 136 24
5 32 115 0 135 139 140 141 81 1 132 254 120 130 140 0 128 135 142 81 1 122 256 1
20 83 139 0 135 118 143 83 255 3 137 .980392156862745 .713725490196078 .00392156
862745098 81 1 139 244 32 83 0 122 121 136 144 83 3 143 .980392156862745 .713725
490196078 .00392156862745098 80 1 32 145 146 9000 0 0 0 0 3 6 0 0 0 FFTFTFTTFFFF
FFFFF1 81 1 121 243 32 117 0 118 131 139 147 82 255 3 144 119 14 2 81 1 131 242
 32 88 0 128 85 121 148 82 3 147 119 13 2 81 1 85 241 32 78 0 0 108 131 149 82 3
 148 119 12 2 81 1 108 240 32 80 0 0 97 85 150 82 3 149 119 49 1 81 1 97 239 32
 90 0 0 105 108 151 82 3 150 119 48 1 81 1 105 238 32 60 0 0 152 97 153 82 3 151
 119 47 1 81 1 152 237 32 71 0 0 93 105 154 82 3 153 119 46 1 16 71 18 152 ?65 9
0 78 99 0 0 1 81 1 93 236 32 101 0 0 89 152 155 82 3 154 119 45 1 82 3 155 119 4
4 1 30 99 67 0 71 0 98 0 +-1.1049 -1.321203692061294 6.00491787844364 -1 0 0 79
 255 9 146 BTI/DetId81 1 140 246 32 130 0 132 136 127 156 83 3 142 .980392156862
745 .713725490196078 .00392156862745098 81 1 127 247 32 17 0 126 140 157 158 82
 3 156 119 19 2 81 1 157 248 32 1 0 159 127 0 160 82 3 158 119 20 2 81 1 159 249
 161 1 157 14 0 0 162 82 3 160 119 2 3 80 1 161 163 164 8038 0 0 0 0 0 0 0 0 0 T
TTTTTTTTTTTTFTFT10 81 1 14 250 163 1 159 2 0 0 165 98 255 8 162 80 97 114 116 32
 49 54 55 80 1 163 166 167 8017 0 0 0 0 0 0 0 0 0 TTTTTTTTTTTTTFTFT3 84 255 8 16
5 Part 16779 13 167 SDL/TYSA_NAME79 14 164 SDL/TYSA_UNAME82 3 141 119 18 2 79 15
 138 SDL/TYSA_COLOUR15 57 189 0 54 130 0 83 3 133 .980392156862745 .713725490196
078 .00392156862745098 83 3 129 .980392156862745 .713725490196078 .0039215686274
5098 50 124 86 0 83 0 119 0 +-.3175 -2.183192623235425 5.41294957631201 0 -.5661
0724400796 .824331600923871 1 0 0 83 3 123 .980392156862745 .713725490196078 .00
392156862745098 17 39 0 57 38 58 12 41 90 0 82 -17 41 0 68 65 82 30 39 90 0 58 +
17 72 0 113 70 103 62 49 20 0 76 -17 49 0 75 77 76 46 72 20 0 103 +81 1 25 230 3
2 11 0 0 28 111 168 81 1 95 232 32 20 0 0 111 110 169 82 3 112 119 10 1 81 1 110
 233 32 27 0 0 95 92 170 82 3 169 119 11 1 81 1 92 234 32 86 0 0 110 89 171 82 3
 170 119 12 1 82 3 171 119 40 1 82 3 168 119 8 1 82 3 94 119 41 1 81 1 51 222 32
 50 0 0 0 55 172 82 3 74 119 17 0 82 3 172 119 16 0 81 1 48 226 32 46 0 0 40 63
 173 82 3 67 119 23 0 81 1 40 225 32 30 0 0 53 48 174 82 3 173 119 22 0 82 3 174
 119 21 0 82 3 64 119 24 0 82 3 56 119 20 0 82 3 34 119 25 0 19 18 204 0 1 0 10
 6 0 S0 74 4 CI16 index_map_offset0 0 1 dCCZ20 16 5 0 0 157 159 14 2 118 0 0 0 0
 0 0 0 0 0 0 0 0 0 0 0 80 1 13 120 175 8040 0 0 0 0 3 5 0 0 0 TTTFFFFFFFFFFFFFF2
 83 3 15 .980392156862745 .713725490196078 .00392156862745098 79 17 175 SDL/TYSA
_COLOUR_21 0 
