**ABCDEFGHIJKLMNOPQRSTUVWXYZabcdefghijklmnopqrstuvwxyz**************************
**PARASOLID !"#$%&'()*+,-./:;<=>?@[\]^_`{|}~0123456789**************************
**PART1;
MC=unknown;
MC_MODEL=unknown;
MC_ID=unknown;
OS=unknown;
OS_RELEASE=unknown;
FRU=Parasolid 36.0.180;
APPL=Onshape;
SITE=unknown;
USER=unknown;
FORMAT=text;
GUISE=transmit;
KEY=BTGapi::writeModels_.xmt;
FILE=BTGapi::writeModels_.xmt;
DATE=2024-05-15T00:06:35 (UTC);
**PART2;
SCH=SCH_3600180_36001;
USFLD_SIZE=0;
**PART3;
**END_OF_HEADER*****************************************************************
T51 : TRANSMIT FILE created by modeller version 360018023 SCH_3600180_36001_1300
6231 0 12 36 CCCI7 lattice222 0 CCCI4 mesh1006 0 I8 polyline1008 0 CCCCCCCDI5 ow
ner1040 0 CCCI16 boundary_lattice222 0 CCCI13 boundary_mesh1006 0 I17 boundary_p
olyline1008 0 CCCA16 index_map_offset0 0 1 dA9 index_map82 0 A17 node_id_index_m
ap82 0 A20 schema_embedding_map82 0 A5 child12 0 A14 lowest_node_id0 0 1 dA16 me
sh_offset_data206 0 Z1 435 2 3 0 0 0 0 0 0 0 1e3 1e-8 0 4 5 1 0 1 2 6 0 7 8 9 0
 0 10 11 12 0 0 0 0 0 0 0 81 255 1 2 425 13 1 14 0 0 0 15 70 11 CI9 list_type0 0
 1 uI10 notransmit0 0 1 lCCCDCCDI12 finger_index0 0 1 dI12 finger_block1012 0 CZ
3 0 4 T1 0 0 5 20 1 16 16 13 255 6 181 0 1 0 17 0 0 18 0 51 255 7 326 0 19 20 0
 0 +-3.10896 -2.154524244764805 5.37120439362673 0 -.824331600923872 -.566107244
00796 .00254 0 .56610724400796 -.824331600923872 32 255 8 330 0 21 22 0 0 +-3.10
896 -4.30551677486348 3.894016752474625 .707106781186548 -.582890464959632 -.400
2982711168555 .707106781186548 .582890464959632 .4002982711168555 .0035921024484
2766 .00254 29 255 9 269 0 12 23 0 -3.1115 -.001437912399781614 6.84982994717861
 19 9 CCCCCCI5 frame230 0 CA5 owner12 0 Z10 77 0 1 18 0 24 0 V0 16 255 11 280 25
 ?26 0 27 28 0 0 1 18 255 12 266 29 30 0 31 9 ?1 81 1 29 365 32 12 0 0 33 34 35
 17 255 30 0 36 37 38 12 39 27 0 40 +18 31 262 41 42 12 43 23 ?1 81 1 41 360 32
 31 0 0 44 45 46 17 42 0 47 48 40 31 49 50 0 51 +18 43 253 34 52 31 53 54 ?1 29
 23 265 0 31 54 9 -3.1115 -4.30761057712983 3.89257884007484 29 54 255 0 43 55 2
3 -2.97434 -.00209380226634816 6.84629823251248 29 55 251 0 53 56 54 -3.10896 -.
002093802266347835 6.84629823251248 18 53 249 33 57 43 58 55 ?1 29 56 247 0 58 5
9 55 -3.10896 -4.3040788624637 3.891922950208275 18 58 245 45 60 53 61 56 ?1 29
 59 244 0 61 62 56 -2.97434 -4.3040788624637 3.891922950208275 18 61 242 63 64 5
8 65 59 ?1 29 62 236 0 65 66 59 -2.9718 -4.30761057712983 3.89257884007484 18 65
 233 67 26 61 68 62 ?1 29 66 232 0 68 69 62 -2.9718 -.00143791239977953 6.849829
94717861 18 68 229 70 71 65 72 66 ?1 29 69 73 0 72 73 66 -2.9718 -.0215686859967
0235 6.87914317890746 18 72 71 74 75 68 76 69 ?1 29 73 68 0 76 77 69 -2.9718 -4.
32774135072675 3.921892071803695 18 76 66 78 79 72 80 73 ?1 29 77 63 0 80 81 73
 -3.1115 -4.32774135072675 3.921892071803695 18 80 61 82 48 76 83 77 ?1 29 81 58
 0 83 0 77 -3.1115 -.021568685996703 6.87914317890746 18 83 56 84 37 80 0 81 ?1
 81 1 84 201 32 83 0 0 82 78 85 17 37 0 36 86 30 83 40 87 0 88 -15 255 36 169 0
 38 89 0 17 86 0 36 38 37 72 88 90 0 0 +17 40 0 47 42 91 12 37 87 0 49 +16 87 16
4 92 ?40 93 94 95 0 0 1 17 88 0 96 97 75 83 86 90 0 91 -15 96 6 0 98 99 0 17 97
 0 96 98 88 80 91 100 0 0 -17 75 0 96 88 98 72 79 101 0 102 +16 90 21 103 ?86 10
0 104 105 0 0 1 17 91 0 47 40 48 83 97 100 0 0 +15 47 167 0 40 106 0 17 48 0 47
 91 42 80 51 94 0 107 -16 100 26 108 ?91 101 90 109 0 0 1 81 1 108 215 32 100 0
 0 103 110 111 16 101 36 110 ?75 94 100 112 0 0 1 30 255 109 28 0 100 105 112 0
 +-3.1115 -4.301568822397415 3.939865976800945 0 .824331600923871 .5661072440079
59 30 105 23 0 90 113 109 0 +-3.1115 -.021568685996703 6.87914317890746 1 0 0 30
 112 38 0 101 109 114 0 +-2.9718 -2.174655018361725 5.40051762535558 -2550362917
217125e-31 .824331600923871 .56610724400796 30 114 177 0 93 112 115 0 +-2.9718 -
.02156868599670235 6.87914317890746 0 .56610724400796 -.824331600923871 16 93 16
1 116 ?38 117 87 114 0 0 1 30 115 178 0 117 114 118 0 +-2.9718 -4.32774135072675
 3.921892071803695 0 .56610724400796 -.824331600923871 16 117 162 119 ?120 121 9
3 115 0 0 1 30 118 179 0 94 115 95 0 +-3.1115 -4.32774135072675 3.92189207180369
5 0 .56610724400796 -.824331600923871 16 94 163 122 ?51 87 101 118 0 0 1 30 95 1
80 0 87 118 123 0 +-3.1115 -.021568685996703 6.87914317890746 0 .56610724400796
 -.824331600923871 30 123 239 0 121 95 124 0 +-2.9718 -2.154524244764805 5.37120
439362673 -255036291721713e-30 .824331600923872 .566107244007959 16 121 237 125
 ?126 127 117 123 0 0 1 30 124 248 0 127 123 128 0 --3.04165 -4.3040788624637 3.
891922950208275 1 0 0 16 127 246 129 ?60 130 121 124 0 0 1 30 128 252 0 130 124
 131 0 +-3.10896 -540083129664905e-30 6.84773614491226 0 .824331600923871 .56610
724400796 16 130 250 132 ?57 133 127 128 0 0 1 30 131 256 0 133 128 134 0 --2.97
434 -2.153086332365025 5.36911059136038 -255036291721713e-30 .824331600923871 .5
6610724400796 16 133 254 135 ?136 137 130 131 0 0 1 30 134 259 0 137 131 138 0 +
-2.9718 -.00209380226634802 6.84629823251248 1 0 0 16 137 257 139 ?52 50 133 134
 0 0 1 30 138 272 0 50 134 140 0 --3.1115 -4.30761057712983 3.89257884007484 0 .
824331600923872 .566107244007959 16 50 270 141 ?42 27 137 138 0 0 1 30 140 277 0
 27 138 28 0 --3.1115 -.00143791239978165 6.84982994717861 1 0 0 16 27 275 142 ?
30 11 50 140 0 0 1 30 28 282 0 11 140 143 0 +-3.1115 -4.30761057712983 3.8925788
4007484 1 0 0 32 143 333 0 144 28 145 0 --2.97434 -.003531714666127785 6.8483920
3477883 -.707106781186548 .582890464959632 .4002982711168555 -.707106781186548 -
.582890464959633 -.400298271116856 .00359210244842766 .00254 16 144 317 146 ?71
 147 0 143 0 0 1 32 145 332 0 147 143 22 0 +-2.97434 -4.30551677486348 3.8940167
52474625 .707106781186548 .582890464959633 .400298271116856 .707106781186548 -.5
82890464959632 -.4002982711168555 .003592102448427665 .00254 16 147 315 148 ?64
 149 144 145 0 0 1 32 22 331 0 149 145 8 0 --3.10896 -.003531714666127785 6.8483
9203477883 -.707106781186548 -.582890464959632 -.4002982711168555 -.707106781186
548 .582890464959632 .4002982711168555 .00359210244842766 .00254 16 149 312 150
 ?151 21 147 22 0 0 1 81 1 150 372 32 149 0 0 129 146 152 17 151 0 153 39 154 12
 155 149 0 0 +16 21 309 156 ?157 104 149 8 0 0 1 81 1 156 368 32 21 0 0 70 148 1
58 17 157 0 159 160 161 58 162 21 0 0 +16 104 11 163 ?98 90 21 113 0 0 1 81 1 16
3 211 32 104 0 0 74 103 164 17 98 0 96 75 97 76 107 104 0 165 +30 113 13 0 104 0
 105 0 +-3.1115 -4.32774135072675 3.921892071803695 1 0 0 17 107 0 166 51 165 80
 98 104 0 97 -17 165 0 166 107 26 76 120 117 0 0 -15 166 171 0 51 17 0 17 26 0 1
66 165 51 65 161 11 0 120 +17 120 0 167 126 79 65 165 117 0 168 +15 167 165 0 12
0 169 0 17 126 0 167 102 120 68 170 121 0 38 +17 79 0 167 120 102 76 75 101 0 98
 -17 168 0 159 161 160 65 64 147 0 170 -15 159 299 0 157 171 0 17 161 0 159 157
 168 31 26 11 0 0 -17 160 0 159 168 157 61 60 127 0 136 -17 64 0 172 173 170 61
 168 147 0 160 +17 170 0 172 64 71 65 126 121 0 0 -15 172 303 0 64 174 0 17 71 0
 172 170 173 68 175 144 0 39 +17 173 0 172 71 64 43 136 133 0 175 -17 175 0 153
 154 39 43 71 144 0 0 -17 39 0 153 175 151 68 30 27 0 126 -15 153 301 0 151 176
 0 14 255 176 300 177 ?174 171 153 6 178 +0 0 174 171 24 81 1 177 434 179 176 18
0 0 181 182 183 14 174 302 182 ?0 176 172 6 184 +0 0 0 176 24 14 171 298 181 ?17
6 19 159 6 20 +0 0 176 19 24 51 178 328 0 176 184 20 0 +-3.04165 -.0035317146661
2823 6.84839203477883 -1 0 0 .00254 0 0 1 13 24 78 0 0 0 0 0 0 10 17 14 17 172 1
85 ?169 0 166 6 186 -0 0 169 0 24 81 1 185 426 179 17 187 0 0 188 189 14 169 166
 188 ?89 17 167 6 190 -0 0 89 17 24 50 255 186 176 0 17 191 184 0 +-3.1115 -4.32
774135072675 3.921892071803695 0 .824331600923871 .56610724400796 0 -.5661072440
0796 .824331600923871 50 191 175 0 89 192 186 0 +-3.1115 -.021568685996703 6.879
14317890746 0 .824331600923871 .56610724400796 0 -.56610724400796 .8243316009238
71 51 184 329 0 174 186 178 0 +-2.97434 -2.154524244764805 5.37120439362673 -255
036291721713e-30 .824331600923872 .56610724400796 .00254 0 -.56610724400796 .824
331600923872 14 89 170 193 ?106 169 36 6 191 +0 0 106 169 24 50 192 174 0 106 19
0 191 0 +-3.1115 -4.301568822397415 3.939865976800945 -1 0 0 0 0 1 14 106 168 19
4 ?99 89 47 6 192 +0 0 99 89 24 50 190 173 0 169 195 192 0 +-2.9718 -2.174655018
361725 5.40051762535558 -1 -210234474648647e-30 -1443778922285886e-31 2102344746
48647e-30 -1 0 50 195 152 0 196 197 190 0 +-3.04165 -2.153086332365025 5.3691105
9136038 0 -.56610724400796 .824331600923871 1 0 0 14 196 105 198 ?19 99 199 6 19
5 -0 0 19 99 24 50 197 3 0 99 0 195 0 +-3.04165 -2.174655018361725 5.40051762535
558 0 -.56610724400796 .824331600923871 1 0 0 14 99 1 200 ?196 106 96 6 197 +0 0
 196 106 24 81 1 200 430 179 99 201 0 194 198 202 80 7 CCCCCDI12 legal_owners0 1
7 1 lCZ1 179 0 203 8001 0 0 0 0 3 5 0 0 0 FFFFTFTFFFFFFFFFF2 81 1 201 220 32 99
 0 200 110 44 204 81 1 194 429 179 106 205 0 193 200 206 81 1 198 431 179 196 20
7 0 200 208 209 83 255 3 202 .917647058823529 .917647058823529 .917647058823529
 81 1 207 389 32 196 0 198 187 210 211 81 1 208 432 179 19 212 0 198 181 213 83
 3 209 .917647058823529 .917647058823529 .917647058823529 14 19 296 208 ?171 196
 214 6 7 +0 0 171 196 24 81 1 212 386 32 19 0 208 180 215 216 81 1 181 433 179 1
71 217 0 208 177 218 83 3 213 .917647058823529 .917647058823529 .917647058823529
 81 1 217 384 32 171 0 181 116 180 219 83 3 218 .917647058823529 .91764705882352
9 .917647058823529 80 1 32 220 221 9000 0 0 0 0 3 6 0 0 0 FFTFTFTTFFFFFFFFF1 81
 1 116 383 32 93 0 0 119 217 222 81 1 180 385 32 176 0 177 217 212 223 82 255 3
 219 107 0 2 82 3 223 107 1 2 81 1 119 382 32 117 0 0 92 116 224 82 3 222 107 15
 1 81 1 92 381 32 87 0 0 122 119 225 82 3 224 107 14 1 81 1 122 380 32 94 0 0 12
5 92 226 82 3 225 107 13 1 81 1 125 379 32 121 0 0 135 122 227 82 3 226 107 12 1
 81 1 135 378 32 133 0 0 141 125 228 82 3 227 107 11 1 81 1 141 377 32 50 0 0 13
2 135 229 82 3 228 107 10 1 81 1 132 376 32 130 0 0 142 141 230 82 3 229 107 9 1
 81 1 142 375 32 27 0 0 139 132 231 82 3 230 107 8 1 81 1 139 374 32 137 0 0 146
 142 232 82 3 231 107 7 1 81 1 146 373 32 144 0 0 150 139 233 82 3 232 107 6 1 8
2 3 233 107 5 1 79 255 9 221 BTI/DetId81 1 215 387 32 174 0 182 212 187 234 82 3
 216 107 2 2 81 1 182 435 179 174 215 0 177 0 235 81 1 187 388 32 17 0 185 215 2
07 236 82 3 234 107 3 2 82 3 236 107 4 2 83 3 235 .917647058823529 .917647058823
529 .917647058823529 15 214 297 0 155 19 0 17 155 0 214 237 49 53 151 149 0 154
 -17 237 0 214 162 155 58 57 130 0 157 -17 49 0 214 155 162 12 42 50 0 151 -17 1
54 0 153 151 175 53 52 137 0 0 -17 52 0 199 136 57 43 154 137 0 173 +15 199 243
 0 57 196 0 17 136 0 199 60 52 61 173 133 0 0 +17 57 0 199 52 60 53 237 130 0 15
5 +17 60 0 199 57 136 58 160 127 0 237 +17 162 0 214 49 237 31 157 21 0 161 -81
 1 210 390 32 89 0 193 207 205 238 82 3 211 107 5 2 81 1 193 428 179 89 210 0 18
8 194 239 81 1 205 391 32 106 0 194 210 240 241 82 3 238 107 6 2 81 1 240 392 32
 169 0 188 205 0 242 82 3 241 107 7 2 81 1 188 427 179 169 240 0 185 193 243 82
 3 242 107 8 2 83 3 243 .917647058823529 .917647058823529 .917647058823529 83 3
 239 .917647058823529 .917647058823529 .917647058823529 83 3 206 .91764705882352
9 .917647058823529 .917647058823529 81 1 110 217 32 101 0 0 108 201 244 81 1 44
 224 32 1 0 245 201 41 246 82 3 204 106 2 2 81 1 245 423 247 1 44 14 0 0 248 82
 3 246 106 0 3 80 1 247 249 250 8038 0 0 0 0 0 0 0 0 0 TTTTTTTTTTTTTFTFT10 81 1
 14 424 249 1 245 2 0 0 251 98 255 37 248 80 97 114 116 32 54 53 32 49 46 53 120
 53 46 53 120 50 48 54 46 54 57 51 32 116 111 112 32 40 109 105 110 117 115 32 4
9 41 80 1 249 252 253 8017 0 0 0 0 0 0 0 0 0 TTTTTTTTTTTTTFTFT3 84 255 37 251 Pa
rt 65 1.5x5.5x206.693 top (minus 1)79 13 253 SDL/TYSA_NAME79 14 250 SDL/TYSA_UNA
ME82 3 244 106 11 1 79 15 203 SDL/TYSA_COLOUR83 3 189 .917647058823529 .91764705
8823529 .917647058823529 51 20 327 0 171 178 7 0 +-3.1115 -4.30551677486348 3.89
4016752474625 1 0 0 .00254 0 0 -1 83 3 183 .917647058823529 .917647058823529 .91
7647058823529 17 102 0 167 79 126 72 38 93 0 86 -17 38 0 36 30 86 68 102 93 0 0
 +17 51 0 166 26 107 31 48 94 0 162 +81 1 74 205 32 72 0 0 78 163 254 81 1 103 2
13 32 90 0 0 163 108 255 82 3 164 106 5 1 82 3 255 106 7 1 81 1 78 203 32 76 0 0
 84 74 256 82 3 254 106 7 0 82 3 256 106 5 0 81 1 70 367 32 68 0 0 34 156 257 81
 1 148 369 32 147 0 0 156 25 258 82 3 158 107 0 1 81 1 25 370 32 11 0 0 148 129
 259 82 3 258 107 1 1 81 1 129 371 32 127 0 0 25 150 260 82 3 259 107 2 1 82 3 2
60 107 3 1 81 1 34 366 32 43 0 0 29 70 261 82 3 257 107 7 0 82 3 261 107 6 0 82
 3 152 107 4 1 82 3 111 106 9 1 81 1 82 199 32 80 0 0 0 84 262 82 3 85 106 3 0 8
2 3 262 106 1 0 81 1 67 362 32 65 0 0 45 63 263 81 1 45 361 32 58 0 0 41 67 264
 81 1 63 363 32 61 0 0 67 33 265 82 3 263 107 2 0 81 1 33 364 32 53 0 0 63 29 26
6 82 3 265 107 3 0 82 3 266 107 4 0 82 3 264 107 1 0 82 3 46 107 0 0 82 3 35 107
 5 0 19 18 182 0 1 0 10 6 0 S0 74 4 CI16 index_map_offset0 0 1 dCCZ20 16 5 0 0 2
40 245 14 2 182 0 0 0 0 0 0 0 0 0 0 0 0 0 0 0 80 1 13 179 267 8040 0 0 0 0 3 5 0
 0 0 TTTFFFFFFFFFFFFFF2 83 3 15 .917647058823529 .917647058823529 .9176470588235
29 79 17 267 SDL/TYSA_COLOUR_21 0 
