**ABCDEFGHIJKLMNOPQRSTUVWXYZabcdefghijklmnopqrstuvwxyz**************************
**PARASOLID !"#$%&'()*+,-./:;<=>?@[\]^_`{|}~0123456789**************************
**PART1;
MC=unknown;
MC_MODEL=unknown;
MC_ID=unknown;
OS=unknown;
OS_RELEASE=unknown;
FRU=Parasolid 36.0.180;
APPL=Onshape;
SITE=unknown;
USER=unknown;
FORMAT=text;
GUISE=transmit;
KEY=BTGapi::writeModels_.xmt;
FILE=BTGapi::writeModels_.xmt;
DATE=2024-05-15T00:06:35 (UTC);
**PART2;
SCH=SCH_3600180_36001;
USFLD_SIZE=0;
**PART3;
**END_OF_HEADER*****************************************************************
T51 : TRANSMIT FILE created by modeller version 360018023 SCH_3600180_36001_1300
6231 0 12 36 CCCI7 lattice222 0 CCCI4 mesh1006 0 I8 polyline1008 0 CCCCCCCDI5 ow
ner1040 0 CCCI16 boundary_lattice222 0 CCCI13 boundary_mesh1006 0 I17 boundary_p
olyline1008 0 CCCA16 index_map_offset0 0 1 dA9 index_map82 0 A17 node_id_index_m
ap82 0 A20 schema_embedding_map82 0 A5 child12 0 A14 lowest_node_id0 0 1 dA16 me
sh_offset_data206 0 Z1 174 2 3 0 0 0 0 0 0 0 1e3 1e-8 0 4 5 1 0 1 2 6 0 7 8 9 0
 0 10 11 12 0 0 0 0 0 0 0 81 255 1 2 168 13 1 14 0 0 0 15 70 11 CI9 list_type0 0
 1 uI10 notransmit0 0 1 lCCCDCCDI12 finger_index0 0 1 dI12 finger_block1012 0 CZ
3 0 4 T1 0 0 5 20 1 16 16 13 255 6 5 0 1 0 17 0 0 18 0 50 255 7 93 0 19 20 0 0 +
1.5367 -1.2910985334054 5.96108054215523 0 -.824331600923871 -.56610724400796 0
 .56610724400796 -.824331600923871 30 255 8 101 0 21 22 0 0 +1.6637 -1.291098533
4054 5.96108054215523 0 .56610724400796 -.824331600923871 29 255 9 88 0 12 23 0
 1.6637 -1.04867041589463 5.49590161889646 19 9 CCCCCCI5 frame230 0 CA5 owner12
 0 Z10 1 0 1 18 0 24 0 V0 16 255 11 30 25 ?26 0 27 28 0 0 1 18 255 12 56 29 30 0
 31 9 ?1 81 1 29 143 32 12 0 0 33 34 35 17 255 30 0 36 26 37 12 38 39 0 40 +18 3
1 60 41 42 12 43 23 ?1 81 1 41 141 32 31 0 0 44 33 45 17 42 0 46 40 47 31 48 49
 0 50 +18 43 64 51 52 31 53 54 ?1 29 23 87 0 31 54 9 1.4732 -1.04867041589463 5.
49590161889646 29 54 86 0 43 55 23 1.4732 -.996325359235964 5.53184942889096 29
 55 85 0 53 56 54 1.6637 -.996325359235964 5.53184942889096 18 53 68 57 58 43 59
 55 ?1 29 56 84 0 59 60 55 1.4732 -1.343442457849576 5.92513108349752 18 59 72 3
3 61 53 62 56 ?1 29 60 83 0 62 63 56 1.6637 -1.343442457849576 5.92513108349752
 18 62 73 34 38 59 64 60 ?1 29 63 82 0 64 65 60 1.6637 -1.29109740119091 5.96107
889349202 18 64 74 44 66 62 67 63 ?1 29 65 81 0 67 0 63 1.4732 -1.29109740119091
 5.96107889349202 18 67 75 68 69 64 0 65 ?1 81 1 68 146 32 67 0 0 51 70 71 17 69
 0 72 73 74 67 52 75 0 76 -15 255 72 20 0 73 19 0 17 73 0 72 58 69 64 77 78 0 0
 -17 74 0 72 69 58 43 79 80 0 81 +17 52 0 82 50 76 43 69 75 0 74 +16 75 49 83 ?5
2 21 49 22 0 0 1 17 76 0 82 52 48 67 61 84 0 77 +15 82 17 0 48 85 0 17 48 0 82 7
6 50 59 42 49 0 0 -17 61 0 86 87 77 59 76 84 0 47 -16 84 52 88 ?76 39 89 90 0 0
 1 17 77 0 86 61 91 67 73 78 0 0 +15 86 8 0 87 17 0 17 91 0 86 77 87 64 37 89 0
 73 +16 78 55 92 ?77 93 0 94 0 0 1 81 1 92 156 32 78 0 0 95 96 97 16 93 54 98 ?8
7 89 78 99 0 0 1 30 94 97 0 78 99 100 0 +1.5367 -1.29109740119091 5.961078893492
02 -1 0 0 30 99 96 0 93 101 94 0 +1.56845 -1.343442457849576 5.92513108349752 1
 0 0 30 100 98 0 39 94 102 0 +1.6637 -1.343443590064064 5.92513273216072 0 .5661
0724400796 -.824331600923871 16 39 51 103 ?30 49 84 100 0 0 1 30 102 99 0 49 100
 22 0 +1.4732 -1.343443590064064 5.92513273216072 0 .56610724400796 -.8243316009
23871 16 49 50 104 ?42 75 39 102 0 0 1 30 22 100 0 75 102 8 0 +1.4732 -1.2910985
33405398 5.96108054215523 0 .56610724400796 -.824331600923871 81 1 104 148 32 49
 0 0 70 103 105 80 7 CCCCCDI12 legal_owners0 17 1 lCZ1 32 106 107 9000 0 0 0 0 3
 6 0 0 0 FFTFTFTTFFFFFFFFF1 81 1 70 147 32 21 0 0 68 104 108 81 1 103 149 32 39
 0 0 104 83 109 82 255 3 105 152 255 1 81 1 83 150 32 75 0 0 103 110 111 82 3 10
9 152 256 1 81 1 110 151 32 112 0 0 83 88 113 82 3 111 152 270 1 16 112 38 110 ?
81 27 80 114 0 0 1 81 1 88 152 32 84 0 0 110 25 115 82 3 113 152 284 1 81 1 25 1
53 32 11 0 0 88 116 117 82 3 115 152 285 1 81 1 116 154 32 89 0 0 25 95 118 82 3
 117 152 300 1 16 89 53 116 ?91 84 93 101 0 0 1 81 1 95 155 32 80 0 0 116 92 119
 82 3 118 152 301 1 16 80 42 95 ?74 112 21 120 0 0 1 82 3 119 152 328 1 16 21 48
 70 ?58 80 75 8 0 0 1 30 120 77 0 80 0 121 0 +1.5367 -.996325359235964 5.5318494
2889096 -1 0 0 30 121 78 0 27 120 28 0 +1.56845 -1.04867041589463 5.495901618896
46 1 0 0 16 27 34 96 ?40 11 112 121 0 0 1 30 28 79 0 11 121 114 0 +1.6637 -1.022
497887565296 5.51387552389371 0 .824331600923871 .56610724400796 30 114 80 0 112
 28 90 0 +1.4732 -1.236742427512378 5.36674373139993 0 .824331600923871 .5661072
4400796 30 90 94 0 84 114 101 0 +1.4732 -1.531514469467325 5.79597319600099 0 .8
24331600923871 .56610724400796 30 101 95 0 89 90 99 0 +1.6637 -1.317269929520242
 5.94310498849477 0 .824331600923871 .56610724400796 81 1 96 157 32 27 0 0 92 98
 122 17 40 0 46 38 42 12 123 27 0 124 +15 46 14 0 47 125 0 17 38 0 46 47 40 62 3
0 39 0 37 -17 123 0 126 81 124 31 40 27 0 0 -17 124 0 126 123 79 12 26 11 0 0 -1
5 126 29 0 124 127 0 17 79 0 126 124 81 53 74 80 0 26 -17 26 0 36 66 30 53 124 1
1 0 0 +15 36 11 0 37 128 0 17 66 0 36 37 26 64 58 21 0 91 -17 37 0 36 30 66 62 9
1 89 0 87 -17 58 0 72 74 73 53 66 21 0 79 +17 87 0 86 91 61 62 47 93 0 0 +17 47
 0 46 42 38 59 87 93 0 48 -14 255 128 9 129 ?125 17 36 6 20 -0 0 125 0 24 81 1 1
29 170 130 128 131 0 132 133 134 14 125 12 133 ?85 128 46 6 135 -0 0 85 128 24 1
4 17 6 132 ?128 0 86 6 136 +0 0 0 127 24 50 20 92 0 128 137 7 0 +1.6637 -1.31727
1061734732 5.94310663715798 -1 0 0 0 0 1 13 24 3 0 0 0 0 0 0 10 128 50 137 91 0
 85 135 20 0 +1.4732 -1.53151560168181 5.79597484466419 -1 0 0 0 0 1 14 85 15 13
8 ?19 125 82 6 137 +0 0 19 125 24 50 135 90 0 125 136 137 0 +1.56845 -1.34344359
0064064 5.92513273216072 0 .824331600923871 .56610724400796 0 -.56610724400796 .
824331600923871 50 136 89 0 17 139 135 0 +1.35255 -2.15308633236504 5.3691105913
6039 0 -.56610724400796 .824331600923871 1 0 0 50 139 76 0 127 0 136 0 +3.10515
 -1.92481773889993 4.89421008382053 0 .56610724400796 -.824331600923871 1 0 0 14
 127 21 140 ?0 19 126 6 139 +0 0 17 19 24 81 1 140 174 130 127 141 0 142 0 143 1
4 19 18 142 ?127 85 72 6 7 -0 0 127 85 24 81 1 142 173 130 19 144 0 138 140 145
 80 1 130 0 146 8001 0 0 0 0 3 5 0 0 0 FFFFTFTFFFFFFFFFF2 81 1 144 163 32 19 0 1
42 131 147 148 81 1 138 172 130 85 149 0 133 142 150 83 255 3 145 .4980392156862
75 .498039215686275 .498039215686275 81 1 149 159 32 85 0 138 98 141 151 81 1 13
3 171 130 125 147 0 129 138 152 83 3 150 .498039215686275 .498039215686275 .4980
39215686275 81 1 147 164 32 125 0 133 144 153 154 83 3 152 .498039215686275 .498
039215686275 .498039215686275 81 1 153 165 32 1 0 155 147 0 156 82 3 154 152 165
 2 81 1 155 166 157 1 153 14 0 0 158 82 3 156 152 26 3 80 1 157 159 160 8038 0 0
 0 0 0 0 0 0 0 TTTTTTTTTTTTTFTFT10 81 1 14 167 159 1 155 2 0 0 161 98 255 8 158
 80 97 114 116 32 50 55 51 80 1 159 162 163 8017 0 0 0 0 0 0 0 0 0 TTTTTTTTTTTTT
FTFT3 84 255 8 161 Part 27379 255 13 163 SDL/TYSA_NAME79 14 160 SDL/TYSA_UNAME81
 1 98 158 32 93 0 0 96 149 164 81 1 141 160 32 127 0 140 149 165 166 82 3 151 15
2 138 2 81 1 165 161 32 17 0 132 141 131 167 82 3 166 152 139 2 81 1 132 169 130
 17 165 0 0 129 168 81 1 131 162 32 128 0 129 165 144 169 82 3 167 152 140 2 82
 3 169 152 150 2 83 3 168 .498039215686275 .498039215686275 .498039215686275 82
 3 164 152 331 1 82 3 148 152 164 2 79 15 146 SDL/TYSA_COLOUR83 3 143 .498039215
686275 .498039215686275 .498039215686275 83 3 134 .498039215686275 .498039215686
275 .498039215686275 17 81 0 126 79 123 43 50 112 0 0 +17 50 0 82 48 52 31 81 11
2 0 123 -82 3 122 152 330 1 82 3 108 152 254 1 79 9 107 BTI/DetId82 3 97 152 329
 1 81 1 51 145 32 43 0 0 34 68 170 82 3 71 152 221 0 81 1 34 144 32 62 0 0 29 51
 171 82 3 170 152 220 0 82 3 171 152 193 0 81 1 44 140 32 64 0 0 57 41 172 81 1
 57 139 32 53 0 0 0 44 173 82 3 172 152 189 0 82 3 173 152 188 0 81 1 33 142 32
 59 0 0 41 29 174 82 3 174 152 191 0 82 3 45 152 190 0 82 3 35 152 192 0 19 18 4
 0 1 0 10 6 0 S0 74 4 CI16 index_map_offset0 0 1 dCCZ20 16 5 0 0 153 155 14 2 14
0 0 0 0 0 0 0 0 0 0 0 0 0 0 0 0 80 1 13 130 175 8040 0 0 0 0 3 5 0 0 0 TTTFFFFFF
FFFFFFFF2 83 3 15 .498039215686275 .498039215686275 .498039215686275 79 17 175 S
DL/TYSA_COLOUR_21 0 
