**ABCDEFGHIJKLMNOPQRSTUVWXYZabcdefghijklmnopqrstuvwxyz**************************
**PARASOLID !"#$%&'()*+,-./:;<=>?@[\]^_`{|}~0123456789**************************
**PART1;
MC=unknown;
MC_MODEL=unknown;
MC_ID=unknown;
OS=unknown;
OS_RELEASE=unknown;
FRU=Parasolid 36.0.180;
APPL=Onshape;
SITE=unknown;
USER=unknown;
FORMAT=text;
GUISE=transmit;
KEY=BTGapi::writeModels_.xmt;
FILE=BTGapi::writeModels_.xmt;
DATE=2024-05-15T00:06:35 (UTC);
**PART2;
SCH=SCH_3600180_36001;
USFLD_SIZE=0;
**PART3;
**END_OF_HEADER*****************************************************************
T51 : TRANSMIT FILE created by modeller version 360018023 SCH_3600180_36001_1300
6231 0 12 36 CCCI7 lattice222 0 CCCI4 mesh1006 0 I8 polyline1008 0 CCCCCCCDI5 ow
ner1040 0 CCCI16 boundary_lattice222 0 CCCI13 boundary_mesh1006 0 I17 boundary_p
olyline1008 0 CCCA16 index_map_offset0 0 1 dA9 index_map82 0 A17 node_id_index_m
ap82 0 A20 schema_embedding_map82 0 A5 child12 0 A14 lowest_node_id0 0 1 dA16 me
sh_offset_data206 0 Z1 157 2 3 0 0 0 0 0 0 0 1e3 1e-8 0 4 5 1 0 1 2 6 0 7 8 9 0
 0 10 11 12 0 0 0 0 0 0 0 81 255 1 2 151 13 1 14 0 0 0 15 70 11 CI9 list_type0 0
 1 uI10 notransmit0 0 1 lCCCDCCDI12 finger_index0 0 1 dI12 finger_block1012 0 CZ
3 0 4 T1 0 0 5 20 1 16 16 13 255 6 5 0 1 0 17 0 0 18 0 50 255 7 101 0 19 20 0 0
 +-1.473198 .2115244819676695 6.7024723440429 0 .56610724400796 .824331600923871
 0 -.824331600923871 .56610724400796 30 255 8 109 0 21 22 0 0 +-1.473198 .185351
953638335 6.72044624904015 -1 0 0 29 255 9 96 0 12 23 0 -1.6637 .237697010297002
5 6.68449843904565 19 9 CCCCCCI5 frame230 0 CA5 owner12 0 Z10 1 0 1 18 0 24 0 V0
 16 255 11 34 25 ?26 0 27 28 0 0 1 18 255 12 64 29 30 0 31 9 ?1 81 1 29 128 32 1
2 0 0 33 34 35 17 255 30 0 36 37 38 12 39 40 0 41 +18 31 68 42 43 12 44 23 ?1 81
 1 42 126 32 31 0 0 45 33 46 17 43 0 47 48 49 31 50 21 0 37 +18 44 72 51 52 31 5
3 54 ?1 29 23 95 0 31 54 9 -1.6637 .185351953638335 6.72044624904015 29 54 94 0
 44 55 23 -1.6637 957956121751927e-31 6.45054779023345 29 55 93 0 53 56 54 -1.66
37 629063554559339e-31 6.33837823106931 18 53 76 57 58 44 59 55 ?1 29 56 92 0 59
 60 55 -1.4732 .185351953638335 6.72044624904015 18 59 80 33 61 53 62 56 ?1 29 6
0 91 0 62 63 56 -1.4732 .2376970102970025 6.68449843904565 18 62 81 34 38 59 64
 60 ?1 29 63 90 0 64 65 60 -1.4732 629063554559339e-31 6.33837823106931 18 64 82
 66 67 62 68 63 ?1 29 65 89 0 68 0 63 -1.4732 957956121751927e-31 6.450547790233
45 18 68 83 45 69 64 0 65 ?1 81 1 45 125 32 68 0 0 51 42 70 17 69 0 47 49 48 68
 52 71 0 72 -15 255 47 30 0 69 73 0 17 49 0 47 43 69 59 72 74 0 50 +17 48 0 47 6
9 43 44 75 76 0 0 -17 52 0 77 78 79 44 69 71 0 80 +16 71 59 81 ?52 82 83 84 0 0
 1 17 72 0 85 86 61 68 49 74 0 79 -15 85 8 0 72 17 0 17 86 0 85 87 72 64 79 88 0
 89 +17 61 0 85 72 87 59 38 83 0 49 -16 74 62 90 ?49 91 88 92 0 0 1 17 79 0 77 5
2 89 68 86 88 0 0 -15 77 11 0 79 93 0 17 89 0 77 79 78 64 58 82 0 0 -16 88 63 94
 ?86 74 0 95 0 0 1 81 1 94 135 32 88 0 0 96 97 98 30 95 105 0 88 92 84 0 +-1.473
2 -671740155470698e-32 6.38939510888191 0 -1224646799147354e-31 -1 30 92 104 0 7
4 99 95 0 +-1.4732 .1188485051485 6.62360789422162 0 .56610724400796 .8243316009
23871 30 84 106 0 71 95 100 0 +-1.473198 957956121751927e-31 6.45054779023345 -1
 0 0 30 100 107 0 82 84 22 0 +-1.473198 629063554559339e-31 6.33837823106931 -1
 0 0 16 82 58 101 ?58 40 71 100 0 0 1 30 22 108 0 40 100 8 0 +-1.473198 .2376970
102970025 6.68449843904565 -1 0 0 16 40 57 102 ?30 21 82 22 0 0 1 81 1 102 133 3
2 40 0 0 103 96 104 16 21 56 103 ?43 105 40 8 0 0 1 81 1 103 132 32 21 0 0 81 10
2 106 16 105 52 96 ?78 76 21 107 0 0 1 81 1 96 134 32 105 0 0 102 94 108 17 78 0
 77 89 52 53 80 105 0 26 +16 76 46 109 ?75 27 105 110 0 0 1 30 107 85 0 105 0 11
0 0 +-1.6637 -671740155470698e-32 6.38939510888191 0 -1224646799147354e-31 -1 30
 110 86 0 76 107 111 0 +-1.6637 .1188485051485 6.62360789422162 0 .5661072440079
6 .824331600923871 30 111 87 0 27 110 28 0 +-1.6637 .2115244819676695 6.70247234
40429 0 .824331600923871 -.56610724400796 16 27 42 97 ?112 11 76 111 0 0 1 30 28
 88 0 11 111 113 0 +-1.6637 .1144653949825034 6.50505591148243 0 -.5661072440079
62 -.82433160092387 30 113 102 0 83 28 99 0 +-1.4732 .2115244819676695 6.7024723
440429 0 .824331600923871 -.56610724400796 16 83 60 114 ?38 71 91 113 0 0 1 30 9
9 103 0 91 113 92 0 +-1.4732 .1144653949825034 6.50505591148243 0 -.566107244007
962 -.82433160092387 16 91 61 115 ?67 83 74 99 0 0 1 81 1 115 141 32 91 0 0 25 1
16 117 17 67 0 118 58 39 64 87 91 0 86 +15 118 27 0 39 119 0 17 58 0 118 41 67 5
3 89 82 0 78 +17 39 0 118 67 41 62 30 40 0 0 -17 87 0 85 61 86 62 67 91 0 39 -17
 41 0 118 39 58 12 26 11 0 112 -17 26 0 120 80 112 53 41 11 0 0 +17 112 0 120 26
 75 12 37 27 0 0 +15 120 24 0 75 121 0 17 75 0 120 112 80 31 48 76 0 0 +17 37 0
 36 50 30 31 112 27 0 75 -15 36 33 0 50 19 0 17 50 0 36 38 37 59 43 21 0 0 -17 3
8 0 36 30 50 62 61 83 0 87 +14 255 19 31 122 ?0 73 36 6 7 +0 0 17 73 24 81 1 122
 157 123 19 124 0 125 0 126 14 73 28 125 ?19 119 47 6 127 +0 0 19 119 24 14 17 6
 128 ?93 0 85 6 129 +0 0 0 19 24 13 24 3 0 0 0 0 0 0 10 93 14 93 9 130 ?121 17 7
7 6 131 -0 0 121 0 24 81 1 130 153 123 93 116 0 128 132 133 14 121 12 132 ?119 9
3 120 6 134 -0 0 119 93 24 50 131 99 0 93 127 20 0 +-1.473198 -671740155470698e-
32 6.38939510888191 0 1 -1224646799147354e-31 0 1224646799147354e-31 1 50 127 98
 0 73 129 131 0 +-1.473198 .1188485051485 6.62360789422162 0 -.824331600923871 .
56610724400796 0 -.56610724400796 -.824331600923871 50 20 100 0 119 131 7 0 +-1.
473198 .1144653949825034 6.50505591148243 0 .82433160092387 -.566107244007962 0
 .566107244007962 .82433160092387 14 119 25 135 ?73 121 118 6 20 +0 0 73 121 24
 81 1 135 155 123 119 136 0 132 125 137 80 7 CCCCCDI12 legal_owners0 17 1 lCZ1 1
23 0 138 8001 0 0 0 0 3 5 0 0 0 FFFFTFTFFFFFFFFFF2 81 1 136 147 32 119 0 135 139
 140 141 81 1 132 154 123 121 142 0 130 135 143 81 1 125 156 123 73 139 0 135 12
2 144 83 255 3 137 .8 .749019607843137 .913725490196078 81 1 139 146 32 73 0 125
 124 136 145 83 3 144 .8 .749019607843137 .913725490196078 80 1 32 146 147 9000
 0 0 0 0 3 6 0 0 0 FFTFTFTTFFFFFFFFF1 81 1 124 145 32 19 0 122 148 139 149 82 25
5 3 145 151 4 2 81 1 148 144 32 17 0 128 142 124 150 82 3 149 151 3 2 81 1 128 1
52 123 17 148 0 0 130 151 81 1 142 143 32 121 0 132 116 148 152 82 3 150 151 2 2
 81 1 116 142 32 93 0 130 115 142 153 82 3 152 151 1 2 82 3 153 151 0 2 83 3 151
 .8 .749019607843137 .913725490196078 79 255 9 147 BTI/DetId83 3 143 .8 .7490196
07843137 .913725490196078 81 1 140 148 32 1 0 154 136 0 155 82 3 141 151 5 2 81
 1 154 149 156 1 140 14 0 0 157 82 3 155 151 0 3 80 1 156 158 159 8038 0 0 0 0 0
 0 0 0 0 TTTTTTTTTTTTTFTFT10 81 1 14 150 158 1 154 2 0 0 160 98 255 8 157 80 97
 114 116 32 50 52 54 80 1 158 161 162 8017 0 0 0 0 0 0 0 0 0 TTTTTTTTTTTTTFTFT3
 84 255 8 160 Part 24679 13 162 SDL/TYSA_NAME79 14 159 SDL/TYSA_UNAME79 15 138 S
DL/TYSA_COLOUR50 129 97 0 17 134 127 0 +-1.4732 -2.12066116461942 3.403998341847
945 1 0 0 0 -1 0 50 134 84 0 121 0 129 0 +-1.6637 0 5.15377690285995 1 0 0 0 1 0
 83 3 133 .8 .749019607843137 .913725490196078 83 3 126 .8 .749019607843137 .913
725490196078 17 80 0 120 75 26 44 78 105 0 48 -81 1 25 140 32 11 0 0 90 115 163
 82 3 117 151 11 1 81 1 90 139 32 74 0 0 109 25 164 82 3 163 151 10 1 81 1 109 1
38 32 76 0 0 114 90 165 82 3 164 151 9 1 81 1 114 137 32 83 0 0 97 109 166 82 3
 165 151 8 1 81 1 97 136 32 27 0 0 94 114 167 82 3 166 151 7 1 82 3 167 151 6 1
 82 3 108 151 4 1 81 1 81 131 32 71 0 0 101 103 168 82 3 106 151 2 1 81 1 101 13
0 32 82 0 0 34 81 169 82 3 168 151 1 1 81 1 34 129 32 62 0 0 29 101 170 82 3 169
 151 0 1 82 3 170 151 7 0 82 3 104 151 3 1 82 3 98 151 5 1 81 1 51 124 32 44 0 0
 66 45 171 82 3 70 151 3 0 81 1 66 123 32 64 0 0 57 51 172 82 3 171 151 2 0 81 1
 57 122 32 53 0 0 0 66 173 82 3 172 151 1 0 82 3 173 151 0 0 81 1 33 127 32 59 0
 0 42 29 174 82 3 174 151 5 0 82 3 46 151 4 0 82 3 35 151 6 0 19 18 4 0 1 0 10 6
 0 S0 74 4 CI16 index_map_offset0 0 1 dCCZ20 16 5 0 0 140 154 14 2 122 0 0 0 0 0
 0 0 0 0 0 0 0 0 0 0 80 1 13 123 175 8040 0 0 0 0 3 5 0 0 0 TTTFFFFFFFFFFFFFF2 8
3 3 15 .8 .749019607843137 .913725490196078 79 17 175 SDL/TYSA_COLOUR_21 0 
