**ABCDEFGHIJKLMNOPQRSTUVWXYZabcdefghijklmnopqrstuvwxyz**************************
**PARASOLID !"#$%&'()*+,-./:;<=>?@[\]^_`{|}~0123456789**************************
**PART1;
MC=unknown;
MC_MODEL=unknown;
MC_ID=unknown;
OS=unknown;
OS_RELEASE=unknown;
FRU=Parasolid 36.0.180;
APPL=Onshape;
SITE=unknown;
USER=unknown;
FORMAT=text;
GUISE=transmit;
KEY=BTGapi::writeModels_.xmt;
FILE=BTGapi::writeModels_.xmt;
DATE=2024-05-15T00:06:35 (UTC);
**PART2;
SCH=SCH_3600180_36001;
USFLD_SIZE=0;
**PART3;
**END_OF_HEADER*****************************************************************
T51 : TRANSMIT FILE created by modeller version 360018023 SCH_3600180_36001_1300
6231 0 12 36 CCCI7 lattice222 0 CCCI4 mesh1006 0 I8 polyline1008 0 CCCCCCCDI5 ow
ner1040 0 CCCI16 boundary_lattice222 0 CCCI13 boundary_mesh1006 0 I17 boundary_p
olyline1008 0 CCCA16 index_map_offset0 0 1 dA9 index_map82 0 A17 node_id_index_m
ap82 0 A20 schema_embedding_map82 0 A5 child12 0 A14 lowest_node_id0 0 1 dA16 me
sh_offset_data206 0 Z1 170 2 3 0 0 0 0 0 0 0 1e3 1e-8 0 4 5 1 0 1 2 6 0 7 8 9 0
 0 10 11 12 0 0 0 0 0 0 0 81 255 1 2 164 13 1 14 0 0 0 15 70 11 CI9 list_type0 0
 1 uI10 notransmit0 0 1 lCCCDCCDI12 finger_index0 0 1 dI12 finger_block1012 0 CZ
3 0 4 T1 0 0 5 20 1 16 16 13 255 6 5 0 1 0 17 0 0 18 0 50 255 7 90 0 19 20 0 0 +
-.62865 -.095252 5.946775 -1 -2449293598294705e-31 0 2449293598294705e-31 -1 0 3
0 255 8 98 0 21 22 0 0 +-.62865 -.095252 5.8039 -2449293598294705e-31 1 0 29 255
 9 85 0 12 23 0 -.56515 .09525 5.8039 19 9 CCCCCCI5 frame230 0 CA5 owner12 0 Z10
 1 0 1 18 0 24 0 V0 16 255 11 29 25 ?26 0 27 28 0 0 1 18 255 12 53 29 30 0 31 9
 ?1 81 1 29 135 32 12 0 0 0 33 34 17 255 30 0 35 36 37 12 38 39 0 40 +18 31 57 4
1 42 12 43 23 ?1 81 1 41 137 32 31 0 0 33 44 45 17 42 0 46 47 48 31 49 50 0 36 +
18 43 61 51 52 31 53 54 ?1 29 23 84 0 31 54 9 -.56515 .09525 6.08965 29 54 83 0
 43 55 23 -.62865 .09525 6.08965 29 55 82 0 53 56 54 -.62865 .09525 5.8039 18 53
 65 57 58 43 59 55 ?1 29 56 81 0 59 60 55 -.62865 -.09525 5.8039 18 59 69 61 62
 53 63 56 ?1 29 60 80 0 63 64 56 -.62865 -.09525 6.08965 18 63 70 65 66 59 67 60
 ?1 29 64 79 0 67 68 60 -.56515 -.09525 5.8039 18 67 71 33 38 63 69 64 ?1 29 68
 78 0 69 0 64 -.56515 -.09525 6.08965 18 69 72 44 49 67 0 68 ?1 81 1 44 138 32 6
9 0 0 41 57 70 17 49 0 35 37 36 69 42 50 0 71 -15 255 35 11 0 37 72 0 17 37 0 35
 30 49 67 71 73 0 0 -17 36 0 35 49 30 31 40 27 0 74 +16 50 47 75 ?42 76 39 77 0
 0 1 17 71 0 78 79 80 69 37 73 0 48 +15 78 8 0 80 17 0 17 79 0 78 62 71 63 48 81
 0 82 +17 80 0 78 71 62 67 83 84 0 37 -16 73 51 85 ?71 84 81 86 0 0 1 17 48 0 46
 42 82 69 79 81 0 0 -15 46 22 0 48 87 0 17 82 0 46 48 47 63 52 76 0 0 -16 81 52
 88 ?79 73 0 89 0 0 1 81 1 88 148 32 81 0 0 90 25 91 30 89 94 0 81 86 92 0 +-2.1
209 -.09525 6.08965 -1 0 0 30 86 93 0 73 93 89 0 +-.56515 -.09525 5.946775 0 0 1
 30 92 95 0 39 89 77 0 +-.56515 -.095252 5.8039 -2449293598294705e-31 1 0 16 39
 48 94 ?30 50 95 92 0 0 1 30 77 96 0 50 92 22 0 +-.56515 -.095252 6.08965 -24492
93598294705e-31 1 0 30 22 97 0 76 77 8 0 +-.62865 -.095252 6.08965 -244929359829
4705e-31 1 0 16 76 46 96 ?52 21 50 22 0 0 1 81 1 96 146 32 76 0 0 97 90 98 17 52
 0 99 100 66 43 82 76 0 47 +16 21 45 97 ?58 101 76 8 0 0 1 81 1 97 145 32 21 0 0
 75 96 102 17 58 0 103 104 83 53 105 21 0 26 +16 101 41 106 ?107 108 21 109 0 0
 1 81 1 106 153 32 101 0 0 85 110 111 17 107 0 112 74 26 43 100 101 0 0 +16 108
 37 90 ?47 27 101 113 0 0 1 30 109 74 0 101 0 114 0 +-.62865 .09525 5.946775 0 0
 1 30 114 75 0 27 109 113 0 +-.56515 .09525 5.946775 0 0 1 16 27 33 115 ?36 11 1
08 114 0 0 1 30 113 76 0 108 114 28 0 +-2.1209 .09525 6.08965 -1 -24492935982947
05e-31 0 30 28 77 0 11 113 116 0 +-2.1209 .09525 5.8039 -1 -2449293598294705e-31
 0 30 116 91 0 95 28 93 0 +-.62865 -.09525 5.946775 0 0 1 16 95 49 110 ?66 39 84
 116 0 0 1 30 93 92 0 84 116 86 0 +-2.1209 -.09525 5.8039 -1 0 0 16 84 50 117 ?8
3 95 73 93 0 0 1 81 1 117 150 32 84 0 0 25 115 118 17 83 0 103 58 38 59 80 84 0
 105 +15 103 25 0 38 119 0 17 38 0 103 83 104 67 30 39 0 80 -17 105 0 99 66 100
 59 58 21 0 0 -15 99 28 0 105 19 0 17 66 0 99 52 105 63 62 95 0 79 +17 100 0 99
 105 52 53 107 101 0 0 -17 62 0 78 80 79 59 66 95 0 83 -14 255 19 26 120 ?0 119
 99 6 7 +0 0 17 119 24 81 1 120 170 121 19 122 0 123 0 124 14 119 23 123 ?19 87
 103 6 125 +0 0 19 87 24 14 17 6 126 ?72 0 78 6 127 +0 0 0 19 24 13 24 3 0 0 0 0
 0 0 10 72 14 72 9 128 ?129 17 35 6 130 -0 0 129 0 24 81 1 128 166 121 72 131 0
 126 132 133 14 129 12 132 ?87 72 112 6 134 -0 0 87 72 24 50 130 88 0 72 125 20
 0 +-.56515 -.095252 5.946775 -1 -2449293598294705e-31 0 2449293598294705e-31 -1
 0 50 125 87 0 119 127 130 0 +-2.1209 -.095252 5.8039 0 0 -1 -1 0 0 50 20 89 0 8
7 130 7 0 +-2.1209 -.095252 6.08965 0 0 -1 -1 0 0 14 87 20 135 ?119 129 46 6 20
 -0 0 119 129 24 81 1 135 168 121 87 136 0 132 123 137 80 7 CCCCCDI12 legal_owne
rs0 17 1 lCZ1 121 0 138 8001 0 0 0 0 3 5 0 0 0 FFFFTFTFFFFFFFFFF2 81 1 136 155 3
2 87 0 135 110 139 140 81 1 132 167 121 129 139 0 128 135 141 81 1 123 169 121 1
19 142 0 135 120 143 83 255 3 137 .917647058823529 .917647058823529 .91764705882
3529 81 1 142 158 32 119 0 123 144 131 145 83 3 143 .917647058823529 .9176470588
23529 .917647058823529 80 1 32 146 147 9000 0 0 0 0 3 6 0 0 0 FFTFTFTTFFFFFFFFF1
 81 1 144 157 32 17 0 126 139 142 148 81 1 131 159 32 72 0 128 142 122 149 82 25
5 3 145 154 13 2 81 1 122 160 32 19 0 120 131 150 151 82 3 149 154 16 2 81 1 150
 161 32 1 0 152 122 0 153 82 3 151 154 17 2 81 1 152 162 154 1 150 14 0 0 155 82
 3 153 154 2 3 80 1 154 156 157 8038 0 0 0 0 0 0 0 0 0 TTTTTTTTTTTTTFTFT10 81 1
 14 163 156 1 152 2 0 0 158 98 255 8 155 80 97 114 116 32 50 56 53 80 1 156 159
 160 8017 0 0 0 0 0 0 0 0 0 TTTTTTTTTTTTTFTFT3 84 255 8 158 Part 28579 255 13 16
0 SDL/TYSA_NAME79 14 157 SDL/TYSA_UNAME81 1 126 165 121 17 144 0 0 128 161 81 1
 139 156 32 129 0 132 136 144 162 82 3 148 154 8 2 82 3 162 154 7 2 83 3 161 .91
7647058823529 .917647058823529 .917647058823529 79 9 147 BTI/DetId83 3 141 .9176
47058823529 .917647058823529 .917647058823529 81 1 110 154 32 95 0 0 106 136 163
 82 3 140 154 6 2 82 3 163 154 35 1 79 15 138 SDL/TYSA_COLOUR50 127 86 0 17 134
 125 0 +0 -.09525 5.7785 0 -1 0 1 0 0 50 134 73 0 129 0 127 0 +945935622815859e-
30 .09525 5.946775 2449293598294705e-31 -1 0 1 2449293598294705e-31 0 15 112 19
 0 26 129 0 17 26 0 112 107 40 53 104 11 0 100 +17 40 0 112 26 74 12 36 27 0 104
 -17 104 0 103 38 58 12 26 11 0 0 -17 74 0 112 40 107 31 47 108 0 0 -17 47 0 46
 82 42 43 74 108 0 107 +83 3 133 .917647058823529 .917647058823529 .917647058823
529 83 3 124 .917647058823529 .917647058823529 .917647058823529 81 1 25 149 32 1
1 0 0 88 117 164 81 1 115 151 32 27 0 0 117 85 165 82 3 118 154 27 1 81 1 85 152
 32 73 0 0 115 106 166 82 3 165 154 32 1 82 3 166 154 33 1 82 3 164 154 26 1 81
 1 90 147 32 108 0 0 96 88 167 82 3 167 154 20 1 82 3 111 154 34 1 81 1 75 144 3
2 50 0 0 94 97 168 82 3 102 154 4 1 81 1 94 143 32 39 0 0 65 75 169 82 3 168 154
 3 1 81 1 65 142 32 63 0 0 51 94 170 82 3 169 154 2 1 81 1 51 141 32 43 0 0 61 6
5 171 82 3 170 154 11 0 81 1 61 140 32 59 0 0 57 51 172 82 3 171 154 10 0 81 1 5
7 139 32 53 0 0 44 61 173 82 3 172 154 9 0 82 3 173 154 8 0 82 3 98 154 5 1 82 3
 91 154 21 1 82 3 70 154 7 0 81 1 33 136 32 67 0 0 29 41 174 82 3 174 154 5 0 82
 3 45 154 6 0 82 3 34 154 4 0 19 18 4 0 1 0 10 6 0 S0 74 4 CI16 index_map_offset
0 0 1 dCCZ20 16 5 0 0 150 152 14 2 120 0 0 0 0 0 0 0 0 0 0 0 0 0 0 0 80 1 13 121
 175 8040 0 0 0 0 3 5 0 0 0 TTTFFFFFFFFFFFFFF2 83 3 15 .917647058823529 .9176470
58823529 .917647058823529 79 17 175 SDL/TYSA_COLOUR_21 0 
