**ABCDEFGHIJKLMNOPQRSTUVWXYZabcdefghijklmnopqrstuvwxyz**************************
**PARASOLID !"#$%&'()*+,-./:;<=>?@[\]^_`{|}~0123456789**************************
**PART1;
MC=unknown;
MC_MODEL=unknown;
MC_ID=unknown;
OS=unknown;
OS_RELEASE=unknown;
FRU=Parasolid 36.0.180;
APPL=Onshape;
SITE=unknown;
USER=unknown;
FORMAT=text;
GUISE=transmit;
KEY=BTGapi::writeModels_.xmt;
FILE=BTGapi::writeModels_.xmt;
DATE=2024-05-15T00:06:35 (UTC);
**PART2;
SCH=SCH_3600180_36001;
USFLD_SIZE=0;
**PART3;
**END_OF_HEADER*****************************************************************
T51 : TRANSMIT FILE created by modeller version 360018023 SCH_3600180_36001_1300
6231 0 12 36 CCCI7 lattice222 0 CCCI4 mesh1006 0 I8 polyline1008 0 CCCCCCCDI5 ow
ner1040 0 CCCI16 boundary_lattice222 0 CCCI13 boundary_mesh1006 0 I17 boundary_p
olyline1008 0 CCCA16 index_map_offset0 0 1 dA9 index_map82 0 A17 node_id_index_m
ap82 0 A20 schema_embedding_map82 0 A5 child12 0 A14 lowest_node_id0 0 1 dA16 me
sh_offset_data206 0 Z1 178 2 3 0 0 0 0 0 0 0 1e3 1e-8 0 4 5 1 0 1 2 6 0 7 8 9 0
 0 10 11 12 0 0 0 0 0 0 0 81 255 1 2 172 13 1 14 0 0 0 15 70 11 CI9 list_type0 0
 1 uI10 notransmit0 0 1 lCCCDCCDI12 finger_index0 0 1 dI12 finger_block1012 0 CZ
3 0 4 T1 0 0 5 20 1 16 16 13 255 6 128 0 1 0 17 0 0 18 0 50 255 7 123 0 19 20 0
 0 +1.6891 -3.331253867754065 4.62452197465463 0 -.824331600923871 -.56610724400
7959 0 .56610724400796 -.824331600923872 30 255 8 127 0 21 22 0 0 +2.4765 -3.331
253867754065 4.62452197465463 0 .566107244007959 -.824331600923871 29 255 9 104
 0 23 24 0 2.4765 -2.31769117503398 5.30228797559271 19 9 CCCCCCI5 frame230 0 CA
5 owner12 0 Z10 1 0 1 18 0 25 0 V0 16 255 11 108 26 ?27 0 28 29 0 0 1 18 255 12
 20 30 31 0 32 33 ?1 81 1 30 146 34 12 0 0 35 36 37 17 255 31 0 38 27 39 12 40 4
1 0 42 -18 32 23 43 40 12 44 45 ?1 29 33 39 0 12 45 46 2.4765 -2.326228779907675
 5.31471992654914 29 45 38 0 32 47 33 .9017 -2.32622877990768 5.31471992654914 2
9 46 107 0 48 33 49 2.4765 -3.32271626288037 4.6120900236982 18 48 95 50 51 52 0
 46 ?1 29 49 106 0 52 46 24 .9017 -3.32271626288037 4.6120900236982 18 52 91 53
 54 55 48 49 ?1 29 24 105 0 55 49 9 .9017 -2.317691175033985 5.3022879755927 18
 55 87 36 56 23 52 24 ?1 81 1 36 147 34 55 0 0 30 43 57 17 56 0 58 59 60 55 39 2
8 0 61 +18 23 83 35 62 63 55 9 ?1 81 1 35 145 34 23 0 0 64 30 65 17 62 0 66 67 6
8 23 61 69 0 27 -18 63 29 64 70 44 23 71 ?1 81 1 64 144 34 63 0 0 50 35 72 17 70
 0 73 74 75 63 51 21 0 76 -18 44 26 77 78 32 63 47 ?1 29 71 36 0 63 0 47 2.4765
 -3.331253867754065 4.62452197465463 29 47 37 0 44 71 45 .9017 -3.33125386775406
5 4.62452197465463 81 1 77 150 34 44 0 0 53 79 80 17 78 0 58 60 59 44 54 81 0 82
 -15 255 58 116 0 59 83 0 17 60 0 58 56 78 32 82 84 0 0 +17 59 0 58 78 56 52 68
 85 0 86 -17 54 0 73 75 74 52 78 81 0 59 +16 81 110 87 ?54 28 21 22 0 0 1 17 82
 0 88 89 40 44 60 84 0 74 -15 88 7 0 42 90 0 17 89 0 88 42 82 63 74 91 0 0 -17 4
0 0 88 82 42 32 31 41 0 39 +16 84 14 92 ?60 41 91 93 0 0 1 17 74 0 73 54 70 44 8
9 91 0 0 +15 73 118 0 75 19 0 16 91 17 94 ?74 84 95 96 0 0 1 81 1 94 156 34 91 0
 0 97 98 99 16 95 67 100 ?101 91 69 102 0 0 1 30 96 32 0 91 0 93 0 +1.6891 -3.33
1253867754065 4.62452197465463 -1 0 0 30 93 33 0 84 96 103 0 +.9017 -2.828741323
83087 4.96962095060189 -1821231995776175e-31 .824331600923871 .56610724400796 30
 103 34 0 41 93 104 0 +1.6891 -2.32622877990768 5.31471992654914 -1 0 0 16 41 11
 105 ?40 106 84 103 0 0 1 30 104 35 0 106 103 107 0 +2.4765 -2.82874132383087 4.
96962095060189 -364246399155235e-30 .824331600923871 .56610724400796 16 106 8 10
8 ?42 21 41 104 0 0 1 30 107 103 0 109 104 110 0 +1.6891 -3.32271626288037 4.612
0900236982 -1 0 0 16 109 79 97 ?86 85 0 107 0 0 1 30 110 102 0 85 107 111 0 +.90
17 -2.820203718957175 4.95718899964545 -1821231995776175e-31 .824331600923871 .5
6610724400796 16 85 75 112 ?68 69 109 110 0 0 1 30 111 101 0 69 110 102 0 +1.689
1 -2.317691175033985 5.30228797559271 -1 0 0 16 69 71 98 ?61 95 85 111 0 0 1 30
 102 100 0 95 111 29 0 +2.4765 -2.820203718957175 4.95718899964545 -364246399155
235e-30 .824331600923871 .56610724400796 30 29 124 0 11 102 113 0 +2.4765 -2.326
228779907675 5.31471992654914 0 .566107244007959 -.824331600923871 30 113 125 0
 28 29 22 0 +.9017 -2.32622877990768 5.31471992654914 0 .566107244007959 -.82433
1600923871 16 28 109 114 ?56 11 81 113 0 0 1 30 22 126 0 81 113 8 0 +.9017 -3.33
1253867754065 4.62452197465463 0 .566107244007959 -.824331600923871 81 1 114 153
 34 28 0 0 26 87 115 80 7 CCCCCDI12 legal_owners0 17 1 lCZ1 34 116 117 9000 0 0
 0 0 3 6 0 0 0 FFTFTFTTFFFFFFFFF1 81 1 26 152 34 11 0 0 79 114 118 81 1 87 154 3
4 81 0 0 114 97 119 82 255 3 115 117 10 1 81 1 97 155 34 109 0 0 87 94 120 82 3
 119 117 11 1 82 3 120 117 32 1 81 1 79 151 34 21 0 0 77 26 121 82 3 118 117 9 1
 16 21 111 79 ?51 81 106 8 0 0 1 82 3 121 117 4 1 17 51 0 122 101 76 48 70 21 0
 67 +15 122 112 0 101 17 0 17 101 0 122 123 51 23 67 95 0 0 +17 76 0 122 51 123
 63 42 106 0 89 -17 67 0 66 86 62 48 101 95 0 75 -15 66 66 0 67 124 0 17 86 0 66
 68 67 52 75 109 0 0 +17 75 0 73 70 54 48 86 109 0 0 -17 68 0 66 62 86 55 59 85
 0 0 +14 255 124 59 125 ?0 90 66 6 126 -0 0 0 90 25 81 1 125 178 127 124 128 0 1
29 0 130 14 90 4 129 ?124 19 88 6 131 +0 0 124 19 25 50 126 99 0 124 131 132 0 +
-.3175 -2.17465501836173 5.40051762535558 0 -.56610724400796 .824331600923871 1
 0 0 13 25 3 0 0 0 0 0 0 10 17 14 17 113 133 ?134 0 122 6 132 -0 0 134 0 25 81 1
 133 173 127 17 135 0 0 136 137 14 134 115 136 ?83 17 38 6 138 -0 0 83 17 25 50
 132 120 0 17 126 138 0 +2.4765 -2.82874132383087 4.96962095060189 -1 -300259817
34639e-29 -206202525165593e-30 30025981734639e-29 -1 0 50 138 121 0 134 132 20 0
 +1.6891 -2.32622877990768 5.31471992654914 0 -.824331600923871 -.56610724400795
9 0 .56610724400796 -.824331600923872 50 20 122 0 83 138 7 0 +.9017 -2.828741323
83087 4.96962095060189 -1 -150129908673195e-30 -1031012625827964e-31 15012990867
3195e-30 -1 0 14 83 117 139 ?19 134 58 6 20 +0 0 19 134 25 81 1 139 175 127 83 1
40 0 136 141 142 14 19 119 141 ?90 83 73 6 7 +0 0 90 83 25 81 1 141 176 127 19 1
43 0 139 129 144 80 1 127 0 145 8001 0 0 0 0 3 5 0 0 0 FFFFTFTFFFFFFFFFF2 81 1 1
43 163 34 19 0 141 92 128 146 81 1 129 177 127 90 147 0 141 125 148 83 255 3 144
 .980392156862745 .713725490196078 .00392156862745098 81 1 147 165 34 90 0 129 1
28 149 150 83 3 148 .980392156862745 .713725490196078 .00392156862745098 81 1 12
8 164 34 124 0 125 143 147 151 81 1 149 166 34 134 0 136 147 135 152 82 3 150 11
7 8 2 81 1 136 174 127 134 149 0 133 139 153 81 1 135 167 34 17 0 133 149 140 15
4 82 3 152 117 15 2 81 1 140 168 34 83 0 139 135 155 156 82 3 154 117 16 2 81 1
 155 169 34 1 0 157 140 0 158 82 3 156 117 17 2 81 1 157 170 159 1 155 14 0 0 16
0 82 3 158 117 2 3 80 1 159 161 162 8038 0 0 0 0 0 0 0 0 0 TTTTTTTTTTTTTFTFT10 8
1 1 14 171 161 1 157 2 0 0 163 98 255 8 160 80 97 114 116 32 49 53 56 80 1 161 1
64 165 8017 0 0 0 0 0 0 0 0 0 TTTTTTTTTTTTTFTFT3 84 255 8 163 Part 15879 255 13
 165 SDL/TYSA_NAME79 14 162 SDL/TYSA_UNAME83 3 153 .980392156862745 .71372549019
6078 .00392156862745098 82 3 151 117 7 2 81 1 92 162 34 84 0 0 112 143 166 82 3
 146 117 6 2 81 1 112 161 34 85 0 0 108 92 167 82 3 166 117 51 1 81 1 108 160 34
 106 0 0 100 112 168 82 3 167 117 50 1 81 1 100 159 34 95 0 0 105 108 169 82 3 1
68 117 49 1 81 1 105 158 34 41 0 0 98 100 170 82 3 169 117 48 1 81 1 98 157 34 6
9 0 0 94 105 171 82 3 170 117 47 1 82 3 171 117 46 1 79 15 145 SDL/TYSA_COLOUR83
 3 142 .980392156862745 .713725490196078 .00392156862745098 15 38 114 0 61 134 0
 17 61 0 38 39 27 55 62 69 0 68 +17 39 0 38 31 61 32 56 28 0 60 -17 27 0 38 61 3
1 23 123 11 0 101 +17 123 0 122 76 101 12 27 11 0 0 -83 3 137 .980392156862745 .
713725490196078 .00392156862745098 50 131 40 0 90 0 126 0 +-.3175 -2.18319262323
5425 5.41294957631201 0 -.56610724400796 .824331600923871 1 0 0 83 3 130 .980392
156862745 .713725490196078 .00392156862745098 17 42 0 88 40 89 12 76 106 0 123 +
79 9 117 BTI/DetId82 3 99 117 33 1 81 1 53 149 34 52 0 0 43 77 172 82 3 80 117 2
3 0 81 1 43 148 34 32 0 0 36 53 173 82 3 172 117 22 0 82 3 173 117 21 0 81 1 50
 143 34 48 0 0 0 64 174 82 3 72 117 9 0 82 3 174 117 8 0 82 3 65 117 18 0 82 3 5
7 117 20 0 82 3 37 117 19 0 19 18 129 0 1 0 10 6 0 S0 74 4 CI16 index_map_offset
0 0 1 dCCZ20 16 5 0 0 155 157 14 2 125 0 0 0 0 0 0 0 0 0 0 0 0 0 0 0 80 1 13 127
 175 8040 0 0 0 0 3 5 0 0 0 TTTFFFFFFFFFFFFFF2 83 3 15 .980392156862745 .7137254
90196078 .00392156862745098 79 17 175 SDL/TYSA_COLOUR_21 0 
