**ABCDEFGHIJKLMNOPQRSTUVWXYZabcdefghijklmnopqrstuvwxyz**************************
**PARASOLID !"#$%&'()*+,-./:;<=>?@[\]^_`{|}~0123456789**************************
**PART1;
MC=unknown;
MC_MODEL=unknown;
MC_ID=unknown;
OS=unknown;
OS_RELEASE=unknown;
FRU=Parasolid 36.0.180;
APPL=Onshape;
SITE=unknown;
USER=unknown;
FORMAT=text;
GUISE=transmit;
KEY=BTGapi::writeModels_.xmt;
FILE=BTGapi::writeModels_.xmt;
DATE=2024-05-15T00:06:35 (UTC);
**PART2;
SCH=SCH_3600180_36001;
USFLD_SIZE=0;
**PART3;
**END_OF_HEADER*****************************************************************
T51 : TRANSMIT FILE created by modeller version 360018023 SCH_3600180_36001_1300
6231 0 12 36 CCCI7 lattice222 0 CCCI4 mesh1006 0 I8 polyline1008 0 CCCCCCCDI5 ow
ner1040 0 CCCI16 boundary_lattice222 0 CCCI13 boundary_mesh1006 0 I17 boundary_p
olyline1008 0 CCCA16 index_map_offset0 0 1 dA9 index_map82 0 A17 node_id_index_m
ap82 0 A20 schema_embedding_map82 0 A5 child12 0 A14 lowest_node_id0 0 1 dA16 me
sh_offset_data206 0 Z1 433 2 3 0 0 0 0 0 0 0 1e3 1e-8 0 4 5 1 0 1 2 6 0 7 8 9 0
 0 10 11 12 0 0 0 0 0 0 0 81 255 1 2 427 13 1 14 0 0 0 15 70 11 CI9 list_type0 0
 1 uI10 notransmit0 0 1 lCCCDCCDI12 finger_index0 0 1 dI12 finger_block1012 0 CZ
3 0 4 T1 0 0 5 20 1 16 16 13 255 6 181 0 1 0 17 0 0 18 0 50 255 7 176 0 19 20 0
 0 +-.5969 -.264671068462782 6.73048847537274 -1 -732341017918022e-30 -502932988
208762e-30 732341017918022e-30 -1 0 30 255 8 179 0 11 21 0 0 +-.5969 -.316178604
2149095 6.69511583033815 0 .566107244007959 -.824331600923871 29 255 9 158 0 22
 23 0 -3.1115 -.307640999341213 6.68268387938171 19 9 CCCCCCI5 frame230 0 CA5 ow
ner12 0 Z10 1 0 1 18 0 24 0 V0 16 255 11 163 25 ?26 0 27 8 0 0 1 18 255 12 45 28
 29 0 30 31 ?1 81 1 28 200 32 12 0 0 33 34 35 17 255 29 0 36 37 38 12 39 27 0 40
 -18 30 51 41 42 12 22 43 ?1 29 31 66 0 12 43 23 -3.1115 -.316178604214908 6.695
11583033814 29 43 64 0 30 44 31 -.5969 -.3161786042149095 6.69511583033815 29 23
 159 0 45 31 9 -.5969 -.3076409993412145 6.68268387938171 18 45 144 34 26 22 46
 23 ?1 81 1 34 205 32 45 0 0 28 41 47 17 26 0 48 49 50 45 42 11 0 51 +18 22 140
 33 39 30 45 9 ?1 18 46 331 52 53 45 54 44 ?1 81 1 52 332 32 46 0 0 55 56 57 17
 53 0 58 59 60 46 50 61 0 62 +18 54 323 63 37 46 64 65 ?1 29 44 379 0 46 65 43 -
.5969 693889390390723e-32 6.91225053443754 29 65 380 0 54 66 44 -3.1115 21233015
3459561e-29 6.91225053443754 29 66 381 0 64 67 65 -3.1115 -693889390390723e-32 6
.89395540904977 18 64 319 68 69 54 70 66 ?1 29 67 382 0 70 0 66 -.5969 0 6.89395
540904978 18 70 327 55 49 64 0 67 ?1 81 1 55 328 32 70 0 0 63 52 71 17 49 0 48 6
2 26 70 51 72 0 73 +15 255 48 171 0 49 19 0 17 62 0 48 50 49 46 74 75 0 76 +17 5
1 0 77 78 73 45 49 72 0 79 -16 72 132 80 ?49 81 82 83 0 0 1 17 73 0 77 51 69 70
 84 85 0 74 -15 77 113 0 78 86 0 17 69 0 77 73 78 64 38 81 0 84 +17 84 0 87 88 7
4 64 73 85 0 89 +16 85 278 90 ?84 82 91 92 0 0 1 17 74 0 87 84 76 70 62 75 0 0 -
15 87 338 0 88 93 0 17 76 0 87 74 88 46 59 91 0 0 -16 75 308 94 ?62 91 0 95 0 0
 1 81 1 94 310 32 75 0 0 96 68 97 16 91 294 96 ?59 85 75 98 0 0 1 30 95 370 0 75
 0 98 0 +-.5969 0 6.99021283482344 0 0 1 30 98 369 0 91 95 99 0 +-1.8542 0 6.912
25053443754 -1 0 0 30 99 368 0 82 98 92 0 +-3.1115 0 6.99021283482344 0 0 1 16 8
2 275 100 ?88 72 85 99 0 0 1 30 92 367 0 85 99 101 0 +-1.8542 -1387778780781446e
-32 6.89395540904978 -1 0 0 30 101 58 0 61 92 102 0 +-.5969 -.264671068462782 6.
73048847537274 -888405851598131e-30 .824331600923871 .56610724400796 16 61 30 10
3 ?53 104 105 101 0 0 1 30 102 62 0 106 101 107 0 +-2.3241 -.31617860421491 6.69
511583033815 -1 -718588033334301e-31 -493488167470544e-31 16 106 12 108 ?109 27
 104 102 0 0 1 30 107 72 0 104 102 83 0 +-3.1115 -4.31010642727111 3.95229792775
738 0 .824331600923871 .566107244007959 16 104 21 110 ?37 106 61 107 0 0 1 30 83
 156 0 72 107 111 0 +-.5969 -.256133463589087 6.71805652441631 -888405851598131e
-30 .824331600923871 .56610724400796 30 111 154 0 105 83 112 0 +-2.3241 -.307640
999341215 6.68268387938171 -1 -718588033334301e-31 -493488167470544e-31 16 105 1
14 113 ?78 61 81 111 0 0 1 30 112 153 0 81 111 21 0 +-3.1115 -4.301568822397415
 3.939865976800945 0 .824331600923871 .566107244007959 16 81 128 114 ?69 105 72
 112 0 0 1 30 21 178 0 27 112 8 0 +-3.1115 -.316178604214908 6.69511583033814 0
 .566107244007959 -.824331600923871 16 27 162 115 ?39 11 106 21 0 0 1 81 1 115 2
07 32 27 0 0 41 25 116 17 39 0 117 79 109 22 29 27 0 38 +15 117 165 0 79 17 0 17
 79 0 117 42 39 45 78 105 0 0 -17 109 0 117 39 42 12 60 106 0 0 +17 38 0 36 29 8
9 22 69 81 0 78 -15 36 169 0 38 118 0 17 89 0 36 38 37 64 88 82 0 0 -17 78 0 77
 69 51 22 79 105 0 0 +17 37 0 36 89 29 54 40 104 0 59 +17 88 0 87 76 84 54 89 82
 0 0 +17 40 0 58 60 59 12 37 104 0 109 -17 59 0 58 40 53 54 76 91 0 88 +15 58 7
 0 60 119 0 17 60 0 58 53 40 30 109 106 0 0 -14 255 119 4 120 ?86 118 58 6 121 +
0 0 86 118 24 81 1 120 431 122 119 123 0 124 125 126 14 86 102 125 ?93 119 77 6
 127 -0 0 93 119 24 14 118 170 124 ?119 19 36 6 20 +0 0 119 19 24 50 121 70 0 11
9 128 127 0 +-.3175 -2.183192623235425 5.41294957631201 0 -.56610724400796 .8243
31600923871 1 0 0 13 24 3 0 0 0 0 0 0 10 17 14 17 166 129 ?19 0 117 6 130 +0 0 1
9 0 24 81 1 129 428 122 17 131 0 0 132 133 14 19 172 132 ?118 17 48 6 7 -0 0 118
 17 24 50 130 173 0 17 127 20 0 +-2.3241 -.31617860421491 6.69511583033815 87172
2050360489e-31 -.824331600923871 -.566107244007959 0 .56610724400796 -.824331600
923872 50 127 152 0 86 121 130 0 +-.3175 -2.17465501836173 5.40051762535558 0 -.
56610724400796 .824331600923871 1 0 0 50 20 175 0 118 130 7 0 +-3.1115 -4.310106
42727111 3.95229792775738 -1 0 0 0 0 1 81 1 132 429 122 19 134 0 129 124 135 80
 7 CCCCCDI12 legal_owners0 17 1 lCZ1 122 0 136 8001 0 0 0 0 3 5 0 0 0 FFFFTFTFFF
FFFFFFF2 81 1 134 424 32 19 0 132 137 0 138 81 1 124 430 122 118 137 0 132 120 1
39 83 255 3 135 .647058823529412 .647058823529412 .647058823529412 81 1 137 423
 32 118 0 124 123 134 140 83 3 139 .647058823529412 .647058823529412 .6470588235
29412 80 1 32 141 142 9000 0 0 0 0 3 6 0 0 0 FFTFTFTTFFFFFFFFF1 81 1 123 422 32
 119 0 120 143 137 144 82 255 3 140 167 2 2 81 1 143 421 32 86 0 125 103 123 145
 82 3 144 167 1 2 81 1 125 432 122 86 143 0 120 146 147 81 1 103 420 32 61 0 0 8
0 143 148 82 3 145 167 0 2 81 1 80 419 32 72 0 0 110 103 149 82 3 148 167 3 1 81
 1 110 418 32 104 0 0 114 80 150 82 3 149 167 2 1 81 1 114 417 32 81 0 0 151 110
 152 82 3 150 167 1 1 81 1 151 416 32 1 0 153 56 114 154 82 3 152 167 0 1 81 1 1
53 425 155 1 151 14 0 0 156 81 1 56 337 32 93 0 146 52 151 157 82 3 154 119 4 3
 14 93 335 146 ?0 86 87 6 128 -0 0 0 86 24 81 1 146 433 122 93 56 0 125 0 158 82
 3 157 166 5 2 83 3 158 .647058823529412 .647058823529412 .647058823529412 50 12
8 361 0 93 0 121 0 +0 0 0 0 -1 0 0 0 -1 80 1 155 159 160 8038 0 0 0 0 0 0 0 0 0
 TTTTTTTTTTTTTFTFT10 81 1 14 426 159 1 153 2 0 0 161 98 255 8 156 80 97 114 116
 32 49 54 57 80 1 159 162 163 8017 0 0 0 0 0 0 0 0 0 TTTTTTTTTTTTTFTFT3 84 255 8
 161 Part 16979 255 13 163 SDL/TYSA_NAME79 14 160 SDL/TYSA_UNAME83 3 147 .647058
823529412 .647058823529412 .647058823529412 79 9 142 BTI/DetId82 3 138 167 3 2 7
9 15 136 SDL/TYSA_COLOUR81 1 131 219 32 17 0 129 108 100 164 83 3 133 .647058823
529412 .647058823529412 .647058823529412 81 1 108 212 32 106 0 0 113 131 165 81
 1 100 277 32 82 0 0 131 90 166 82 3 164 119 24 2 81 1 90 280 32 85 0 0 100 96 1
67 82 3 166 166 8 1 81 1 96 296 32 91 0 0 90 94 168 82 3 167 166 10 1 82 3 168 1
66 11 1 81 1 113 211 32 105 0 0 25 108 169 82 3 165 119 57 1 81 1 25 210 32 11 0
 0 115 113 170 82 3 169 119 56 1 82 3 170 119 20 1 83 3 126 .647058823529412 .64
7058823529412 .647058823529412 17 42 0 117 109 79 30 26 11 0 50 -17 50 0 48 26 6
2 30 53 61 0 60 -81 1 41 206 32 30 0 0 34 115 171 82 3 116 119 16 1 82 3 171 119
 41 0 81 1 68 320 32 64 0 0 94 63 172 82 3 97 166 9 1 81 1 63 324 32 54 0 0 68 5
5 173 82 3 172 166 4 0 82 3 173 166 5 0 82 3 71 166 6 0 82 3 57 166 7 0 81 1 33
 199 32 22 0 0 0 28 174 82 3 174 119 32 0 82 3 47 119 40 0 82 3 35 119 33 0 19 1
8 182 0 1 0 10 6 0 S0 74 4 CI16 index_map_offset0 0 1 dCCZ20 16 5 0 0 134 153 14
 2 146 0 0 0 0 0 0 0 0 0 0 0 0 0 0 0 80 1 13 122 175 8040 0 0 0 0 3 5 0 0 0 TTTF
FFFFFFFFFFFFF2 83 3 15 .647058823529412 .647058823529412 .647058823529412 79 17
 175 SDL/TYSA_COLOUR_21 0 
