**ABCDEFGHIJKLMNOPQRSTUVWXYZabcdefghijklmnopqrstuvwxyz**************************
**PARASOLID !"#$%&'()*+,-./:;<=>?@[\]^_`{|}~0123456789**************************
**PART1;
MC=unknown;
MC_MODEL=unknown;
MC_ID=unknown;
OS=unknown;
OS_RELEASE=unknown;
FRU=Parasolid 36.0.180;
APPL=Onshape;
SITE=unknown;
USER=unknown;
FORMAT=text;
GUISE=transmit;
KEY=BTGapi::writeModels_.xmt;
FILE=BTGapi::writeModels_.xmt;
DATE=2024-05-15T00:06:35 (UTC);
**PART2;
SCH=SCH_3600180_36001;
USFLD_SIZE=0;
**PART3;
**END_OF_HEADER*****************************************************************
T51 : TRANSMIT FILE created by modeller version 360018023 SCH_3600180_36001_1300
6231 0 12 36 CCCI7 lattice222 0 CCCI4 mesh1006 0 I8 polyline1008 0 CCCCCCCDI5 ow
ner1040 0 CCCI16 boundary_lattice222 0 CCCI13 boundary_mesh1006 0 I17 boundary_p
olyline1008 0 CCCA16 index_map_offset0 0 1 dA9 index_map82 0 A17 node_id_index_m
ap82 0 A20 schema_embedding_map82 0 A5 child12 0 A14 lowest_node_id0 0 1 dA16 me
sh_offset_data206 0 Z1 143 2 3 0 0 0 0 0 0 0 1e3 1e-8 0 4 5 1 0 1 2 6 0 7 8 9 0
 0 10 11 12 0 0 0 0 0 0 0 81 255 1 2 137 13 1 14 0 0 0 15 70 11 CI9 list_type0 0
 1 uI10 notransmit0 0 1 lCCCDCCDI12 finger_index0 0 1 dI12 finger_block1012 0 CZ
3 0 4 T1 0 0 5 20 1 16 16 13 255 6 5 0 1 0 17 0 0 18 0 50 255 7 90 0 19 20 0 0 +
-1.09855 -2.730502 4.137025 -1 -2449293598294705e-31 0 2449293598294705e-31 -1 0
 30 255 8 98 0 21 22 0 0 +-1.09855 -2.730502 3.99415 -2449293598294705e-31 1 0 2
9 255 9 85 0 12 23 0 -1.09855 -2.54 3.99415 19 9 CCCCCCI5 frame230 0 CA5 owner12
 0 Z10 1 0 1 18 0 24 0 V0 16 255 11 29 25 ?26 0 27 28 0 0 1 18 255 12 53 29 30 0
 31 9 ?1 81 1 29 108 32 12 0 0 0 33 34 17 255 30 0 35 36 37 12 38 21 0 39 +18 31
 57 40 41 12 42 23 ?1 81 1 40 114 32 31 0 0 43 44 45 17 41 0 46 39 47 31 48 49 0
 50 +18 42 61 51 52 31 53 54 ?1 29 23 84 0 31 54 9 -1.09855 -2.54 4.2799 29 54 8
3 0 42 55 23 -1.03505 -2.54 4.2799 29 55 82 0 53 56 54 -1.03505 -2.54 3.99415 18
 53 65 57 58 42 59 55 ?1 29 56 81 0 59 60 55 -1.09855 -2.7305 3.99415 18 59 69 3
3 61 53 62 56 ?1 29 60 80 0 62 63 56 -1.09855 -2.7305 4.2799 18 62 70 44 47 59 6
4 60 ?1 29 63 79 0 64 65 60 -1.03505 -2.7305 3.99415 18 64 71 66 67 62 68 63 ?1
 29 65 78 0 68 0 63 -1.03505 -2.7305 4.2799 18 68 72 43 69 64 0 65 ?1 81 1 43 11
3 32 68 0 0 51 40 70 17 69 0 71 72 73 68 52 74 0 75 -15 255 71 11 0 72 76 0 17 7
2 0 71 58 69 64 75 77 0 0 -17 73 0 71 69 58 42 78 79 0 80 +17 52 0 81 50 82 42 6
9 74 0 73 +16 74 47 83 ?52 49 84 85 0 0 1 17 75 0 86 87 88 68 72 77 0 82 +15 86
 8 0 88 17 0 17 87 0 86 61 75 62 82 89 0 48 +17 88 0 86 75 61 64 37 90 0 72 -16
 77 51 91 ?75 90 89 92 0 0 1 17 82 0 81 52 48 68 87 89 0 0 -15 81 22 0 82 93 0 1
7 48 0 81 82 50 62 41 49 0 0 -16 89 52 94 ?87 77 0 95 0 0 1 81 1 94 121 32 89 0
 0 96 97 98 30 95 94 0 89 92 99 0 +-2.1209 -2.7305 4.2799 -1 0 0 30 92 93 0 77 1
00 95 0 +-1.03505 -2.7305 4.137025 0 0 1 30 99 95 0 84 95 85 0 +-1.03505 -2.7305
02 3.99415 -2449293598294705e-31 1 0 16 84 48 101 ?58 74 102 99 0 0 1 30 85 96 0
 74 99 22 0 +-1.03505 -2.730502 4.2799 -2449293598294705e-31 1 0 30 22 97 0 49 8
5 8 0 +-1.09855 -2.730502 4.2799 -2449293598294705e-31 1 0 16 49 46 103 ?41 21 7
4 22 0 0 1 81 1 103 119 32 49 0 0 83 96 104 16 21 45 105 ?30 106 49 8 0 0 1 81 1
 105 116 32 21 0 0 44 101 107 16 106 41 97 ?108 79 21 109 0 0 1 81 1 97 122 32 1
06 0 0 94 110 111 17 108 0 112 26 78 12 36 106 0 0 +16 79 37 113 ?73 27 106 114
 0 0 1 30 109 75 0 106 115 114 0 +-2.1209 -2.54 3.99415 -1 -2449293598294705e-31
 0 30 115 74 0 27 0 109 0 +-2.1209 -2.54 4.2799 -1 -2449293598294705e-31 0 30 11
4 76 0 79 109 28 0 +-1.03505 -2.54 4.137025 0 0 1 30 28 77 0 11 114 116 0 +-1.09
855 -2.54 4.137025 0 0 1 30 116 91 0 102 28 100 0 +-1.09855 -2.7305 4.137025 0 0
 1 16 102 49 117 ?47 84 90 116 0 0 1 30 100 92 0 90 116 92 0 +-2.1209 -2.7305 3.
99415 -1 0 0 16 90 50 110 ?37 102 77 100 0 0 1 81 1 110 123 32 90 0 0 97 113 118
 17 37 0 35 30 67 59 88 90 0 38 +15 35 25 0 67 119 0 17 67 0 35 37 36 64 58 84 0
 88 -17 38 0 46 47 39 59 30 21 0 0 -15 46 28 0 38 19 0 17 47 0 46 41 38 62 61 10
2 0 87 +17 39 0 46 38 41 12 26 11 0 108 -17 26 0 112 80 108 31 39 11 0 0 +15 112
 19 0 108 120 0 17 80 0 112 78 26 42 50 27 0 0 -17 78 0 112 108 80 53 73 79 0 36
 -17 50 0 81 48 52 31 80 27 0 26 +16 27 33 96 ?50 11 79 115 0 0 1 81 1 96 120 32
 27 0 0 103 94 121 80 7 CCCCCDI12 legal_owners0 17 1 lCZ1 32 122 123 9000 0 0 0
 0 3 6 0 0 0 FFTFTFTTFFFFFFFFF1 82 255 3 121 127 34 1 79 255 9 123 BTI/DetId17 3
6 0 35 67 30 53 108 106 0 0 -14 255 120 12 124 ?93 76 112 6 125 -0 0 93 76 24 81
 1 124 140 126 120 127 0 128 129 130 14 93 20 129 ?119 120 81 6 20 -0 0 119 120
 24 14 76 9 128 ?120 17 71 6 131 -0 0 120 0 24 50 125 73 0 120 0 132 0 +17803136
4116793e-30 -2.54 4.137025 2449293598294705e-31 -1 0 1 2449293598294705e-31 0 13
 24 3 0 0 0 0 0 0 10 76 50 132 86 0 17 125 133 0 +4440892098500625e-31 -2.7305 2
.40919 0 -1 0 1 0 0 14 17 6 134 ?76 0 86 6 132 +0 0 0 19 24 50 133 87 0 119 132
 131 0 +-2.1209 -2.730502 3.99415 0 0 -1 -1 0 0 14 119 23 135 ?19 93 35 6 133 +0
 0 19 93 24 50 131 88 0 76 133 20 0 +-1.03505 -2.730502 4.137025 -1 -24492935982
94705e-31 0 2449293598294705e-31 -1 0 50 20 89 0 93 131 7 0 +-2.1209 -2.730502 4
.2799 0 0 -1 -1 0 0 81 1 135 142 126 119 136 0 129 137 138 14 19 26 137 ?0 119 4
6 6 7 +0 0 17 119 24 81 1 137 143 126 19 139 0 135 0 140 80 1 126 0 141 8001 0 0
 0 0 3 5 0 0 0 FFFFTFTFFFFFFFFFF2 81 1 139 133 32 19 0 137 142 143 144 83 255 3
 140 .980392156862745 .713725490196078 .00392156862745098 81 1 142 132 32 76 0 1
28 136 139 145 81 1 143 134 32 1 0 146 139 0 147 82 3 144 127 29 2 81 1 146 135
 148 1 143 14 0 0 149 82 3 147 127 5 3 80 1 148 150 151 8038 0 0 0 0 0 0 0 0 0 T
TTTTTTTTTTTTFTFT10 81 1 14 136 150 1 146 2 0 0 152 98 255 8 149 80 97 114 116 32
 50 49 53 80 1 150 153 154 8017 0 0 0 0 0 0 0 0 0 TTTTTTTTTTTTTFTFT3 84 255 8 15
2 Part 21579 13 154 SDL/TYSA_NAME79 14 151 SDL/TYSA_UNAME81 1 128 139 126 76 142
 0 134 124 155 81 1 136 131 32 119 0 135 156 142 157 82 3 145 127 28 2 81 1 156
 130 32 17 0 134 127 136 158 82 3 157 127 18 2 81 1 134 138 126 17 156 0 0 128 1
59 81 1 127 129 32 120 0 124 160 156 161 82 3 158 127 17 2 81 1 160 128 32 93 0
 129 117 127 162 82 3 161 127 16 2 81 1 129 141 126 93 160 0 124 135 163 81 1 11
7 127 32 102 0 0 25 160 164 82 3 162 127 15 2 81 1 25 126 32 11 0 0 91 117 165 8
2 3 164 127 59 1 81 1 91 125 32 77 0 0 113 25 166 82 3 165 127 58 1 81 1 113 124
 32 79 0 0 110 91 167 82 3 166 127 57 1 82 3 167 127 56 1 83 3 163 .980392156862
745 .713725490196078 .00392156862745098 83 3 159 .980392156862745 .7137254901960
78 .00392156862745098 83 3 155 .980392156862745 .713725490196078 .00392156862745
098 79 15 141 SDL/TYSA_COLOUR83 3 138 .980392156862745 .713725490196078 .0039215
6862745098 83 3 130 .980392156862745 .713725490196078 .00392156862745098 17 61 0
 86 88 87 59 47 102 0 37 -17 58 0 71 73 72 53 67 84 0 78 +82 3 118 127 37 1 82 3
 111 127 36 1 81 1 44 115 32 62 0 0 40 105 168 81 1 101 117 32 84 0 0 105 83 169
 82 3 107 127 0 1 81 1 83 118 32 74 0 0 101 103 170 82 3 169 127 10 1 82 3 170 1
27 11 1 82 3 168 127 25 0 82 3 104 127 12 1 82 3 98 127 35 1 81 1 51 112 32 42 0
 0 66 43 171 82 3 70 127 23 0 81 1 66 111 32 64 0 0 57 51 172 82 3 171 127 22 0
 81 1 57 110 32 53 0 0 33 66 173 82 3 172 127 21 0 81 1 33 109 32 59 0 0 29 57 1
74 82 3 173 127 20 0 82 3 174 127 1 0 82 3 45 127 24 0 82 3 34 127 0 0 19 18 4 0
 1 0 10 6 0 S0 74 4 CI16 index_map_offset0 0 1 dCCZ20 16 5 0 0 143 146 14 2 137
 0 0 0 0 0 0 0 0 0 0 0 0 0 0 0 80 1 13 126 175 8040 0 0 0 0 3 5 0 0 0 TTTFFFFFFF
FFFFFFF2 83 3 15 .980392156862745 .713725490196078 .00392156862745098 79 17 175
 SDL/TYSA_COLOUR_21 0 
