**ABCDEFGHIJKLMNOPQRSTUVWXYZabcdefghijklmnopqrstuvwxyz**************************
**PARASOLID !"#$%&'()*+,-./:;<=>?@[\]^_`{|}~0123456789**************************
**PART1;
MC=unknown;
MC_MODEL=unknown;
MC_ID=unknown;
OS=unknown;
OS_RELEASE=unknown;
FRU=Parasolid 36.0.180;
APPL=Onshape;
SITE=unknown;
USER=unknown;
FORMAT=text;
GUISE=transmit;
KEY=BTGapi::writeModels_.xmt;
FILE=BTGapi::writeModels_.xmt;
DATE=2024-05-15T00:06:35 (UTC);
**PART2;
SCH=SCH_3600180_36001;
USFLD_SIZE=0;
**PART3;
**END_OF_HEADER*****************************************************************
T51 : TRANSMIT FILE created by modeller version 360018023 SCH_3600180_36001_1300
6231 0 12 36 CCCI7 lattice222 0 CCCI4 mesh1006 0 I8 polyline1008 0 CCCCCCCDI5 ow
ner1040 0 CCCI16 boundary_lattice222 0 CCCI13 boundary_mesh1006 0 I17 boundary_p
olyline1008 0 CCCA16 index_map_offset0 0 1 dA9 index_map82 0 A17 node_id_index_m
ap82 0 A20 schema_embedding_map82 0 A5 child12 0 A14 lowest_node_id0 0 1 dA16 me
sh_offset_data206 0 Z1 3154 2 3 0 0 0 0 0 0 0 1e3 1e-8 0 4 5 1 0 1 2 6 0 7 8 9 0
 0 10 11 12 0 0 0 0 0 0 0 81 255 1 2 3148 13 1 14 0 0 0 15 70 11 CI9 list_type0
 0 1 uI10 notransmit0 0 1 lCCCDCCDI12 finger_index0 0 1 dI12 finger_block1012 0
 CZ3 0 4 T1 0 0 7 20 1 16 16 13 255 6 1036 0 1 0 17 0 0 18 0 50 255 7 3083 0 19
 20 0 0 +1.7263860303969 -3.77027267635732 -.0254 0 1 0 0 0 1 30 255 8 3087 0 21
 22 0 0 +5.0212220607938 -3.77027267635732 -.0254 0 0 1 29 255 9 3064 0 23 24 0
 -5.0212220607938 3.77027267635732 0 19 9 CCCCCCI5 frame230 0 CA5 owner12 0 Z10
 1035 0 1 18 0 25 0 V0 16 255 11 3070 26 ?27 0 21 22 0 0 1 18 255 12 984 28 29 0
 30 31 ?1 81 1 28 3113 32 12 0 0 33 34 35 17 255 29 0 36 37 38 12 39 40 0 41 -18
 30 979 42 43 12 44 45 ?1 29 31 986 0 12 45 46 -5.0212220607938 3.77027267635732
 -.0254 29 45 981 0 30 47 31 5.0212220607938 3.77027267635732 -.0254 29 46 3067
 0 48 31 49 5.0212220607938 -3.77027267635732 0 18 48 3055 50 51 52 0 46 ?1 29 4
9 3066 0 52 46 24 -5.0212220607938 -3.77027267635732 0 18 52 3051 53 27 54 48 49
 ?1 29 24 3065 0 54 49 9 5.0212220607938 3.77027267635732 0 18 54 3047 55 56 23
 52 24 ?1 81 1 55 3110 32 54 0 0 57 42 58 17 56 0 59 60 61 54 43 62 0 63 +18 23
 3043 33 39 64 54 9 ?1 81 1 33 3112 32 23 0 0 42 28 65 17 39 0 66 63 41 23 29 40
 0 67 +18 64 934 68 69 44 23 70 ?1 81 1 68 3107 32 64 0 0 50 53 71 17 69 0 59 61
 60 64 51 21 0 72 -18 44 959 57 73 30 64 47 ?1 29 70 936 0 64 0 47 5.02122206079
38 -3.77027267635732 -.0254 29 47 961 0 44 70 45 -5.0212220607938 -3.77027267635
732 -.0254 81 1 57 3109 32 44 0 0 53 55 74 17 73 0 75 72 76 44 27 11 0 77 -15 25
5 75 3078 0 76 19 0 17 72 0 75 51 73 64 77 78 0 79 -17 76 0 75 73 51 52 80 81 0
 82 +17 27 0 36 38 37 52 73 11 0 76 +17 77 0 83 84 79 44 72 78 0 37 +15 83 90 0
 84 85 0 17 84 0 83 86 77 12 37 87 0 0 +17 79 0 83 77 86 64 61 88 0 0 -16 78 494
 89 ?77 88 90 91 0 0 1 17 37 0 36 27 29 44 84 87 0 0 -15 36 3074 0 38 17 0 16 87
 524 92 ?84 93 88 94 0 0 1 81 1 92 3125 32 87 0 0 95 96 97 16 93 564 98 ?41 40 8
7 99 0 0 1 16 88 499 100 ?61 87 78 101 0 0 1 30 94 526 0 87 101 99 0 +-5.0212220
607938 -3.20276133817866 -.0254 0 1 0 30 101 501 0 88 91 94 0 +5.0212220607938 -
3.20276133817866 -.0254 0 1 0 30 99 566 0 93 94 102 0 +0 3.77027267635732 -.0254
 -1 0 0 30 102 3063 0 81 99 103 0 +1.7263860303969 -3.77027267635732 0 -1 0 0 16
 81 3037 104 ?76 105 0 102 0 0 1 30 103 3062 0 105 102 106 0 +5.0212220607938 -3
.20276133817866 0 0 1 0 16 105 3031 107 ?108 109 81 103 0 0 1 30 106 3061 0 109
 103 110 0 +-5.0212220607938 -3.20276133817866 0 0 1 0 16 109 3025 95 ?38 90 105
 106 0 0 1 30 110 3060 0 90 106 111 0 +0 3.77027267635732 0 -1 0 0 16 90 3021 11
2 ?67 78 109 110 0 0 1 30 111 3084 0 40 110 113 0 +-5.0212220607938 3.7702726763
5732 -.0254 0 0 1 16 40 3068 114 ?39 62 93 111 0 0 1 30 113 3085 0 62 111 22 0 +
5.0212220607938 3.77027267635732 -.0254 0 0 1 16 62 3069 115 ?56 21 40 113 0 0 1
 30 22 3086 0 11 113 8 0 +-5.0212220607938 -3.77027267635732 -.0254 0 0 1 81 1 1
15 3116 32 62 0 0 26 114 116 16 21 3071 34 ?51 11 62 8 0 0 1 81 1 34 3114 32 21
 0 0 28 26 117 17 51 0 75 76 72 48 69 21 0 60 +17 60 0 59 69 56 48 108 105 0 80
 -15 59 3076 0 60 118 0 17 108 0 119 67 80 54 60 105 0 0 +17 80 0 119 108 82 48
 76 81 0 0 -15 119 3020 0 82 120 0 17 82 0 119 80 67 52 38 109 0 0 -17 67 0 119
 82 108 23 63 90 0 38 +17 38 0 36 29 27 23 82 109 0 0 +17 63 0 66 43 39 54 67 90
 0 108 -15 66 3072 0 63 121 0 17 43 0 66 41 63 30 56 62 0 61 -17 41 0 66 39 43 1
2 86 93 0 84 +17 61 0 59 56 69 30 79 88 0 86 +17 86 0 83 79 84 30 41 93 0 0 -14
 255 121 3073 122 ?85 118 66 6 123 +0 0 85 118 25 81 1 122 3152 124 121 125 0 12
6 127 128 14 85 1 127 ?120 121 83 6 129 -0 0 120 121 25 14 118 3077 126 ?121 19
 59 6 20 +0 0 121 19 25 50 123 3080 0 121 130 131 0 +0 3.77027267635732 -.0254 0
 1 0 0 0 1 13 25 3088 0 0 0 0 0 0 10 17 14 17 3075 132 ?19 0 36 6 131 -0 0 19 0
 25 81 1 132 3149 124 17 133 0 0 134 135 14 19 3079 134 ?118 17 75 6 7 -0 0 118
 17 25 50 131 3081 0 17 123 20 0 +-5.0212220607938 -3.20276133817866 -.0254 1 0
 0 0 0 -1 50 20 3082 0 118 131 7 0 +5.0212220607938 -3.20276133817866 -.0254 1 0
 0 0 0 -1 81 1 134 3150 124 19 136 0 132 126 137 80 7 CCCCCDI12 legal_owners0 17
 1 lCZ1 124 138 139 8015 0 0 0 0 3 5 0 0 0 FFFFTFFFFFFFFFFFF2 81 1 136 3138 140
 19 96 134 133 141 142 81 1 126 3151 124 118 141 0 134 122 143 83 255 1 137 .811
764705882353 81 1 141 3140 140 118 144 126 136 125 145 83 1 143 .811764705882353
 80 1 140 0 146 8001 0 0 0 0 3 5 0 0 0 FFFFTFTFFFFFFFFFF2 81 1 144 3130 32 118 0
 141 147 148 149 81 1 125 3142 140 121 147 122 141 150 151 83 3 145 .27450980392
15685 .01176470588235294 .3176470588235295 81 1 147 3129 32 121 0 125 152 144 15
3 81 1 150 3144 140 85 152 127 125 154 155 83 3 151 .2745098039215685 .011764705
88235294 .3176470588235295 81 1 152 3128 32 85 0 150 156 147 157 81 1 127 3153 1
24 85 150 0 122 158 159 81 1 154 3146 140 120 156 158 150 0 160 83 3 155 .274509
8039215685 .01176470588235294 .3176470588235295 14 120 2967 158 ?0 85 119 6 130
 +0 0 0 85 25 81 1 156 3127 32 120 0 154 96 152 161 81 1 158 3154 124 120 154 0
 127 0 162 83 3 160 .2745098039215685 .01176470588235294 .3176470588235295 83 1
 162 .811764705882353 80 1 32 163 164 9000 0 0 0 0 3 6 0 0 0 FFTFTFTTFFFFFFFFF1
 81 1 96 3126 32 19 0 136 92 156 165 82 255 3 161 6 1 2 82 3 165 6 0 2 79 255 9
 164 BTI/DetId50 130 3059 0 120 129 123 0 +-1.4732 -2.565913819923475 0 0 0 1 1
 0 0 50 129 3 0 85 0 130 0 +-1.4732 -2.565913819923475 -.0254 0 0 1 1 0 0 83 1 1
59 .811764705882353 82 3 157 6 2 2 82 3 153 6 3 2 81 1 148 3131 32 17 0 133 144
 166 167 82 3 149 6 4 2 81 1 133 3136 140 17 148 132 0 136 168 81 1 166 3132 32
 1 0 169 148 0 170 82 3 167 6 5 2 81 1 169 3133 171 1 166 172 0 0 173 82 3 170 6
 0 3 80 1 171 174 175 8038 0 0 0 0 0 0 0 0 0 TTTTTTTTTTTTTFTFT10 81 1 172 3134 1
74 1 169 14 0 0 176 98 255 5 173 102 108 111 111 114 80 1 174 177 178 8017 0 0 0
 0 0 0 0 0 0 TTTTTTTTTTTTTFTFT3 81 1 14 3135 179 1 172 2 0 0 180 84 255 5 176 fl
oor80 1 179 140 181 8040 0 0 0 0 3 5 0 0 0 TTTFFFFFFFFFFFFFF2 83 3 180 .27450980
39215685 .01176470588235294 .3176470588235295 79 17 181 SDL/TYSA_COLOUR_279 13 1
78 SDL/TYSA_NAME79 14 175 SDL/TYSA_UNAME83 3 168 .2745098039215685 .011764705882
35294 .3176470588235295 79 15 146 SDL/TYSA_COLOUR83 3 142 .2745098039215685 .011
76470588235294 .3176470588235295 79 21 139 SDL/TYSA_TRANSLUCENCY83 1 135 .811764
705882353 83 1 128 .811764705882353 81 1 26 3115 32 11 0 0 34 115 182 82 3 117 6
 0 1 82 3 182 6 1 1 81 1 114 3117 32 40 0 0 115 104 183 82 3 116 6 2 1 81 1 104
 3118 32 81 0 0 114 89 184 82 3 183 6 3 1 81 1 89 3119 32 78 0 0 104 112 185 82
 3 184 6 4 1 81 1 112 3120 32 90 0 0 89 98 186 82 3 185 6 5 1 81 1 98 3121 32 93
 0 0 112 107 187 82 3 186 6 6 1 81 1 107 3122 32 105 0 0 98 100 188 82 3 187 6 7
 1 81 1 100 3123 32 88 0 0 107 95 189 82 3 188 6 8 1 81 1 95 3124 32 109 0 0 100
 92 190 82 3 189 6 9 1 82 3 190 6 10 1 30 91 496 0 78 0 101 0 +1.7263860303969 -
3.77027267635732 -.0254 -1 0 0 82 3 97 6 11 1 81 1 53 3108 32 52 0 0 68 57 191 8
2 3 74 6 3 0 82 3 191 6 2 0 81 1 50 3106 32 48 0 0 0 68 192 82 3 71 6 1 0 82 3 1
92 6 0 0 81 1 42 3111 32 30 0 0 55 33 193 82 3 65 6 6 0 82 3 193 6 5 0 82 3 58 6
 4 0 82 3 35 6 7 0 19 18 3089 0 1 0 10 6 0 S0 74 4 CI16 index_map_offset0 0 1 dC
CZ20 16 7 0 0 166 169 172 14 154 158 2 0 0 0 0 0 0 0 0 0 0 0 0 0 80 1 13 124 194
 8041 0 0 0 0 3 5 0 0 0 TTTFFFFFFFFFFFFFF2 83 1 15 .811764705882353 79 23 194 SD
L/TYSA_TRANSLUCENCY_21 0 
