**ABCDEFGHIJKLMNOPQRSTUVWXYZabcdefghijklmnopqrstuvwxyz**************************
**PARASOLID !"#$%&'()*+,-./:;<=>?@[\]^_`{|}~0123456789**************************
**PART1;
MC=unknown;
MC_MODEL=unknown;
MC_ID=unknown;
OS=unknown;
OS_RELEASE=unknown;
FRU=Parasolid 36.0.180;
APPL=Onshape;
SITE=unknown;
USER=unknown;
FORMAT=text;
GUISE=transmit;
KEY=BTGapi::writeModels_.xmt;
FILE=BTGapi::writeModels_.xmt;
DATE=2024-05-15T00:06:35 (UTC);
**PART2;
SCH=SCH_3600180_36001;
USFLD_SIZE=0;
**PART3;
**END_OF_HEADER*****************************************************************
T51 : TRANSMIT FILE created by modeller version 360018023 SCH_3600180_36001_1300
6231 0 12 36 CCCI7 lattice222 0 CCCI4 mesh1006 0 I8 polyline1008 0 CCCCCCCDI5 ow
ner1040 0 CCCI16 boundary_lattice222 0 CCCI13 boundary_mesh1006 0 I17 boundary_p
olyline1008 0 CCCA16 index_map_offset0 0 1 dA9 index_map82 0 A17 node_id_index_m
ap82 0 A20 schema_embedding_map82 0 A5 child12 0 A14 lowest_node_id0 0 1 dA16 me
sh_offset_data206 0 Z1 201 2 3 0 0 0 0 0 0 0 1e3 1e-8 0 4 5 1 0 1 2 6 0 7 8 9 0
 0 10 11 12 0 0 0 0 0 0 0 81 255 1 2 195 13 1 14 0 0 0 15 70 11 CI9 list_type0 0
 1 uI10 notransmit0 0 1 lCCCDCCDI12 finger_index0 0 1 dI12 finger_block1012 0 CZ
3 0 4 T1 0 0 5 20 1 16 16 13 255 6 5 0 1 0 17 0 0 18 0 50 255 7 93 0 19 20 0 0 +
1.5367 1.29109853340537 5.96108054215523 0 .824331600923871 -.56610724400796 0 -
.56610724400796 -.824331600923871 30 255 8 101 0 21 22 0 0 +1.6637 1.29109853340
537 5.96108054215523 0 -.56610724400796 -.824331600923871 29 255 9 88 0 12 23 0
 1.6637 1.0486704158946 5.49590161889646 19 9 CCCCCCI5 frame230 0 CA5 owner12 0
 Z10 1 0 1 18 0 24 0 V0 16 255 11 30 25 ?26 0 27 28 0 0 1 18 255 12 56 29 30 0 3
1 9 ?1 81 1 29 170 32 12 0 0 33 34 35 17 255 30 0 36 26 37 12 38 27 0 39 +18 31
 60 40 37 12 41 23 ?1 81 1 40 168 32 31 0 0 42 33 43 17 37 0 36 30 44 31 45 46 0
 47 -18 41 64 48 44 31 49 50 ?1 29 23 87 0 31 50 9 1.4732 1.0486704158946 5.4959
0161889646 29 50 86 0 41 51 23 1.4732 .996325359235934 5.53184942889096 29 51 85
 0 49 52 50 1.6637 .996325359235935 5.53184942889096 18 49 68 53 54 41 55 51 ?1
 29 52 84 0 55 56 51 1.4732 1.343442457849546 5.92513108349752 18 55 72 33 57 49
 58 52 ?1 29 56 83 0 58 59 52 1.6637 1.343442457849546 5.92513108349752 18 58 73
 34 60 55 61 56 ?1 29 59 82 0 61 62 56 1.6637 1.29109740119088 5.96107889349202
 18 61 74 42 63 58 64 59 ?1 29 62 81 0 64 0 59 1.4732 1.29109740119088 5.9610788
9349202 18 64 75 65 66 61 0 62 ?1 81 1 65 173 32 64 0 0 48 67 68 17 66 0 69 70 4
5 64 71 72 0 73 -15 255 69 17 0 47 74 0 17 70 0 69 47 66 55 75 76 0 77 -17 45 0
 69 66 47 41 37 46 0 0 +17 71 0 78 54 73 41 66 72 0 45 +16 72 49 79 ?71 21 80 22
 0 0 1 17 73 0 78 71 63 64 81 82 0 75 +15 78 20 0 73 19 0 17 63 0 78 73 54 61 83
 21 0 84 -17 81 0 85 86 75 61 73 82 0 0 -16 82 55 87 ?73 88 0 89 0 0 1 17 75 0 8
5 81 77 64 70 76 0 0 +15 85 8 0 77 17 0 17 77 0 85 75 86 55 90 88 0 0 -16 76 52
 91 ?75 92 93 94 0 0 1 81 1 91 179 32 76 0 0 95 25 96 16 92 51 97 ?39 80 76 98 0
 0 1 16 93 53 99 ?84 76 88 100 0 0 1 30 94 94 0 76 101 100 0 +1.4732 1.531514469
467295 5.79597319600099 0 -.824331600923871 .56610724400796 30 101 80 0 46 28 94
 0 +1.4732 1.236742427512348 5.36674373139993 0 -.824331600923871 .5661072440079
6 30 100 95 0 93 94 102 0 +1.6637 1.317269929520212 5.94310498849477 0 -.8243316
00923871 .56610724400796 30 102 96 0 88 100 89 0 +1.56845 1.343442457849546 5.92
513108349752 1 0 0 16 88 54 103 ?90 93 82 102 0 0 1 30 89 97 0 82 102 98 0 +1.53
67 1.29109740119088 5.96107889349202 -1 0 0 30 98 98 0 92 89 104 0 +1.6637 1.343
443590064036 5.92513273216072 0 -.56610724400796 -.824331600923871 30 104 99 0 8
0 98 22 0 +1.4732 1.343443590064034 5.92513273216072 0 -.56610724400796 -.824331
600923871 16 80 50 105 ?47 72 92 104 0 0 1 30 22 100 0 72 104 8 0 +1.4732 1.2910
9853340537 5.96108054215523 0 -.56610724400796 -.824331600923871 81 1 105 175 32
 80 0 0 67 97 106 17 47 0 69 45 70 31 57 80 0 38 +17 57 0 107 90 38 55 47 80 0 7
0 -17 38 0 107 57 39 31 30 27 0 0 -15 107 14 0 90 108 0 17 39 0 107 38 90 12 60
 92 0 109 +16 27 34 110 ?30 11 46 111 0 0 1 81 1 110 184 32 27 0 0 87 103 112 16
 46 38 95 ?45 27 113 101 0 0 1 30 111 78 0 27 114 28 0 +1.56845 1.0486704158946
 5.49590161889646 1 0 0 30 114 77 0 113 0 111 0 +1.5367 .996325359235935 5.53184
942889096 -1 0 0 30 28 79 0 11 111 101 0 +1.6637 1.022497887565268 5.51387552389
371 0 -.824331600923871 .56610724400796 16 113 42 115 ?44 46 21 114 0 0 1 81 1 1
15 182 32 113 0 0 99 87 116 17 44 0 36 37 26 41 54 113 0 71 +16 21 48 67 ?83 113
 72 8 0 0 1 81 1 67 174 32 21 0 0 65 105 117 17 83 0 118 109 84 49 63 21 0 0 +15
 118 11 0 84 119 0 17 109 0 118 60 83 12 26 11 0 0 -17 84 0 118 83 60 61 86 93 0
 81 +17 60 0 118 84 109 58 39 92 0 86 -17 86 0 85 77 81 58 84 93 0 90 -17 90 0 1
07 39 57 58 77 88 0 0 +17 26 0 36 44 30 49 109 11 0 83 +15 36 29 0 26 120 0 14 2
55 120 21 121 ?0 19 36 6 122 +0 0 0 19 24 81 1 121 201 123 120 124 0 125 0 126 1
4 19 18 125 ?120 74 78 6 7 -0 0 120 74 24 50 122 76 0 120 0 127 0 +3.10515 1.924
8177388999 4.89421008382053 0 -.56610724400796 -.824331600923871 1 0 0 13 24 3 0
 0 0 0 0 0 10 17 14 17 6 128 ?119 0 85 6 127 +0 0 119 0 24 81 1 128 196 123 17 1
29 0 0 130 131 14 119 9 130 ?108 17 118 6 20 -0 0 108 17 24 50 127 89 0 17 122 1
32 0 +1.35255 2.15308633236501 5.36911059136039 0 .56610724400796 .8243316009238
71 1 0 0 50 132 90 0 108 127 133 0 +1.56845 1.343443590064036 5.92513273216072 0
 -.824331600923871 .56610724400796 0 .56610724400796 .824331600923871 14 108 12
 134 ?74 119 107 6 132 -0 0 74 119 24 50 133 91 0 74 132 20 0 +1.4732 1.53151560
1681785 5.79597484466419 -1 0 0 0 0 1 14 74 15 135 ?19 108 69 6 133 +0 0 19 108
 24 50 20 92 0 119 133 7 0 +1.6637 1.317271061734702 5.94310663715798 -1 0 0 0 0
 1 81 1 135 199 123 74 136 0 134 125 137 80 7 CCCCCDI12 legal_owners0 17 1 lCZ1
 123 0 138 8001 0 0 0 0 3 5 0 0 0 FFFFTFTFFFFFFFFFF2 81 1 136 186 32 74 0 135 10
3 124 139 81 1 134 198 123 108 140 0 130 135 141 81 1 125 200 123 19 142 0 135 1
21 143 83 255 3 137 .498039215686275 .498039215686275 .498039215686275 81 1 142
 190 32 19 0 125 144 140 145 83 3 143 .498039215686275 .498039215686275 .4980392
15686275 80 1 32 146 147 9000 0 0 0 0 3 6 0 0 0 FFTFTFTTFFFFFFFFF1 81 1 144 189
 32 119 0 130 129 142 148 81 1 140 191 32 108 0 134 142 149 150 82 255 3 145 152
 218 2 81 1 149 192 32 1 0 151 140 0 152 82 3 150 152 219 2 81 1 151 193 153 1 1
49 14 0 0 154 82 3 152 152 35 3 80 1 153 155 156 8038 0 0 0 0 0 0 0 0 0 TTTTTTTT
TTTTTFTFT10 81 1 14 194 155 1 151 2 0 0 157 98 255 8 154 80 97 114 116 32 50 56
 50 80 1 155 158 159 8017 0 0 0 0 0 0 0 0 0 TTTTTTTTTTTTTFTFT3 84 255 8 157 Part
 28279 255 13 159 SDL/TYSA_NAME79 14 156 SDL/TYSA_UNAME81 1 130 197 123 119 144
 0 128 134 160 81 1 129 188 32 17 0 128 124 144 161 82 3 148 152 204 2 81 1 124
 187 32 120 0 121 136 129 162 82 3 161 152 194 2 82 3 162 152 193 2 83 3 160 .49
8039215686275 .498039215686275 .498039215686275 79 9 147 BTI/DetId83 3 141 .4980
39215686275 .498039215686275 .498039215686275 81 1 103 185 32 88 0 0 110 136 163
 82 3 139 152 192 2 82 3 163 152 439 1 79 15 138 SDL/TYSA_COLOUR83 3 131 .498039
215686275 .498039215686275 .498039215686275 83 3 126 .498039215686275 .498039215
686275 .498039215686275 82 3 117 152 362 1 17 54 0 78 63 71 49 44 113 0 26 -81 1
 99 181 32 93 0 0 25 115 164 81 1 87 183 32 82 0 0 115 110 165 82 3 116 152 436
 1 82 3 165 152 437 1 81 1 25 180 32 11 0 0 91 99 166 82 3 164 152 409 1 82 3 16
6 152 408 1 81 1 95 178 32 46 0 0 79 91 167 81 1 79 177 32 72 0 0 97 95 168 82 3
 167 152 392 1 81 1 97 176 32 92 0 0 105 79 169 82 3 168 152 378 1 82 3 169 152
 364 1 82 3 112 152 438 1 82 3 106 152 363 1 82 3 96 152 393 1 81 1 48 172 32 41
 0 0 34 65 170 82 3 68 152 293 0 81 1 34 171 32 58 0 0 29 48 171 82 3 170 152 29
2 0 82 3 171 152 265 0 81 1 42 167 32 61 0 0 53 40 172 81 1 53 166 32 49 0 0 0 4
2 173 82 3 172 152 261 0 82 3 173 152 260 0 81 1 33 169 32 55 0 0 40 29 174 82 3
 174 152 263 0 82 3 43 152 262 0 82 3 35 152 264 0 19 18 4 0 1 0 10 6 0 S0 74 4
 CI16 index_map_offset0 0 1 dCCZ20 16 5 0 0 149 151 14 2 121 0 0 0 0 0 0 0 0 0 0
 0 0 0 0 0 80 1 13 123 175 8040 0 0 0 0 3 5 0 0 0 TTTFFFFFFFFFFFFFF2 83 3 15 .49
8039215686275 .498039215686275 .498039215686275 79 17 175 SDL/TYSA_COLOUR_21 0 
