**ABCDEFGHIJKLMNOPQRSTUVWXYZabcdefghijklmnopqrstuvwxyz**************************
**PARASOLID !"#$%&'()*+,-./:;<=>?@[\]^_`{|}~0123456789**************************
**PART1;
MC=unknown;
MC_MODEL=unknown;
MC_ID=unknown;
OS=unknown;
OS_RELEASE=unknown;
FRU=Parasolid 36.0.180;
APPL=Onshape;
SITE=unknown;
USER=unknown;
FORMAT=text;
GUISE=transmit;
KEY=BTGapi::writeModels_.xmt;
FILE=BTGapi::writeModels_.xmt;
DATE=2024-05-15T00:06:35 (UTC);
**PART2;
SCH=SCH_3600180_36001;
USFLD_SIZE=0;
**PART3;
**END_OF_HEADER*****************************************************************
T51 : TRANSMIT FILE created by modeller version 360018023 SCH_3600180_36001_1300
6231 0 12 36 CCCI7 lattice222 0 CCCI4 mesh1006 0 I8 polyline1008 0 CCCCCCCDI5 ow
ner1040 0 CCCI16 boundary_lattice222 0 CCCI13 boundary_mesh1006 0 I17 boundary_p
olyline1008 0 CCCA16 index_map_offset0 0 1 dA9 index_map82 0 A17 node_id_index_m
ap82 0 A20 schema_embedding_map82 0 A5 child12 0 A14 lowest_node_id0 0 1 dA16 me
sh_offset_data206 0 Z1 167 2 3 0 0 0 0 0 0 0 1e3 1e-8 0 4 5 1 0 1 2 6 0 7 8 9 0
 0 10 11 12 0 0 0 0 0 0 0 81 255 1 2 161 13 1 14 0 0 0 15 70 11 CI9 list_type0 0
 1 uI10 notransmit0 0 1 lCCCDCCDI12 finger_index0 0 1 dI12 finger_block1012 0 CZ
3 0 4 T1 0 0 5 20 1 16 16 13 255 6 5 0 1 0 17 0 0 18 0 50 255 7 87 0 19 20 0 0 +
3.111502 2.174655018361725 5.40051762535558 202192062611192e-46 .56610724400796
 .824331600923871 0 .824331600923871 -.56610724400796 30 255 8 95 0 21 22 0 0 +3
.111502 4.32774135072675 3.921892071803695 -1 210234474648647e-30 -1443778922285
888e-31 29 255 9 82 0 12 23 0 3.0353 4.30761057712983 3.89257884007484 19 9 CCCC
CCI5 frame230 0 CA5 owner12 0 Z10 1 0 1 18 0 24 0 V0 16 255 11 26 25 ?26 0 27 28
 0 0 1 18 255 12 50 29 26 0 30 9 ?1 81 1 29 136 31 12 0 0 32 33 34 17 255 26 0 3
5 36 37 12 38 11 0 39 +18 30 54 40 41 12 42 23 ?1 81 1 40 138 31 30 0 0 33 43 44
 17 41 0 45 46 47 30 48 49 0 36 +18 42 58 50 47 30 51 52 ?1 29 23 81 0 30 52 9 3
.0353 .00143791239977953 6.84982994717861 29 52 80 0 42 53 23 3.0353 .0215686859
9670235 6.87914317890746 29 53 79 0 51 54 52 3.0353 4.32774135072675 3.921892071
803695 18 51 62 55 56 42 57 53 ?1 29 54 78 0 57 58 53 3.1115 4.32774135072675 3.
921892071803695 18 57 66 59 60 51 61 54 ?1 29 58 77 0 61 62 54 3.1115 .021568685
99670235 6.87914317890746 18 61 67 32 63 57 64 58 ?1 29 62 76 0 64 65 58 3.1115
 .001437912399779512 6.84982994717861 18 64 68 43 46 61 66 62 ?1 29 65 75 0 66 0
 62 3.1115 4.30761057712983 3.89257884007484 18 66 69 33 67 64 0 65 ?1 81 1 33 1
37 31 66 0 0 29 40 68 17 67 0 69 70 71 66 39 72 0 73 -15 255 69 11 0 70 74 0 17
 70 0 69 75 67 64 76 77 0 78 +17 71 0 69 67 75 12 36 27 0 0 -17 39 0 79 38 73 12
 67 72 0 71 +16 72 45 80 ?39 81 82 83 0 0 1 17 73 0 79 39 60 66 84 85 0 76 +15 7
9 22 0 73 86 0 17 60 0 79 73 38 57 56 21 0 84 -17 84 0 87 88 76 57 73 85 0 89 -1
6 85 48 90 ?73 91 77 92 0 0 1 17 76 0 87 84 78 66 70 77 0 0 -15 87 8 0 88 17 0 1
7 78 0 87 76 88 64 93 91 0 0 +16 77 49 94 ?70 85 0 95 0 0 1 81 1 94 147 31 77 0
 0 96 25 97 30 95 91 0 77 92 83 0 +3.1115 2.154524244764805 5.37120439362673 0 -
.824331600923871 .566107244007959 30 92 90 0 85 98 95 0 +3.1115 4.32774135072675
 3.921892071803695 0 -.56610724400796 -.824331600923871 30 83 92 0 72 95 99 0 +3
.111502 4.30761057712983 3.89257884007484 -1 210234474648647e-30 -14437789222858
88e-31 30 99 93 0 81 83 22 0 +3.111502 .001437912399779512 6.84982994717861 -1 2
10234474648647e-30 -1443778922285888e-31 16 81 44 100 ?75 101 72 99 0 0 1 30 22
 94 0 101 99 8 0 +3.111502 .02156868599670235 6.87914317890746 -1 21023447464864
7e-30 -1443778922285888e-31 16 101 43 102 ?47 21 81 22 0 0 1 81 1 102 141 31 101
 0 0 103 80 104 17 47 0 45 41 93 42 63 101 0 105 +16 21 42 103 ?56 106 101 8 0 0
 1 81 1 103 140 31 21 0 0 43 102 107 17 56 0 108 105 89 51 60 21 0 37 +16 106 38
 109 ?105 49 21 110 0 0 1 81 1 109 144 31 106 0 0 100 111 112 17 105 0 108 63 56
 42 37 106 0 48 +16 49 34 113 ?41 27 106 114 0 0 1 30 110 71 0 106 0 114 0 +3.03
53 2.174655018361725 5.40051762535558 -2550362917217125e-31 -.824331600923871 .5
6610724400796 30 114 72 0 49 110 115 0 +3.0353 .02156868599670235 6.879143178907
46 0 -.56610724400796 -.824331600923871 30 115 73 0 27 114 28 0 +3.0353 2.154524
244764805 5.37120439362673 -255036291721713e-30 -.824331600923872 .5661072440079
59 16 27 30 96 ?36 11 49 115 0 0 1 30 28 74 0 11 115 116 0 +3.0353 4.32774135072
675 3.921892071803695 0 -.56610724400796 -.824331600923871 30 116 88 0 82 28 98
 0 +3.1115 2.174655018361725 5.40051762535558 0 -.824331600923871 .5661072440079
6 16 82 46 111 ?88 72 91 116 0 0 1 30 98 89 0 91 116 92 0 +3.1115 .0215686859967
0235 6.87914317890746 0 -.56610724400796 -.824331600923871 16 91 47 117 ?78 82 8
5 98 0 0 1 81 1 117 151 31 91 0 0 113 118 119 80 7 CCCCCDI12 legal_owners0 17 1
 lCZ1 31 120 121 9000 0 0 0 0 3 6 0 0 0 FFTFTFTTFFFFFFFFF1 81 1 113 150 31 49 0
 0 90 117 122 81 1 118 152 31 19 0 123 117 124 125 82 255 3 119 173 11 1 14 255
 19 23 123 ?0 86 108 6 7 +0 0 0 86 24 81 1 123 167 126 19 118 0 127 0 128 81 1 1
24 153 31 74 0 129 118 130 131 82 3 125 173 0 2 14 74 9 129 ?132 17 69 6 133 -0
 0 132 17 24 81 1 129 163 126 74 124 0 134 135 136 81 1 130 154 31 86 0 127 124
 137 138 82 3 131 173 1 2 14 86 20 127 ?19 139 79 6 140 -0 0 19 139 24 81 1 127
 166 126 86 130 0 141 123 142 81 1 137 155 31 139 0 141 130 143 144 82 3 138 173
 2 2 14 139 17 141 ?86 132 45 6 20 +0 0 86 132 24 81 1 141 165 126 139 137 0 135
 127 145 81 1 143 156 31 132 0 135 137 146 147 82 3 144 173 3 2 14 132 12 135 ?1
39 74 35 6 148 +0 0 139 74 24 81 1 135 164 126 132 143 0 129 141 149 81 1 146 15
7 31 17 0 134 143 150 151 82 3 147 173 4 2 14 17 6 134 ?74 0 87 6 152 +0 0 74 0
 24 81 1 134 162 126 17 146 0 0 129 153 81 1 150 158 31 1 0 154 146 0 155 82 3 1
51 173 5 2 81 1 154 159 156 1 150 14 0 0 157 82 3 155 173 0 3 80 1 156 158 159 8
038 0 0 0 0 0 0 0 0 0 TTTTTTTTTTTTTFTFT10 81 1 14 160 158 1 154 2 0 0 160 98 255
 46 157 80 97 114 116 32 51 48 51 32 49 46 53 120 51 120 50 48 53 46 54 54 51 32
 116 104 101 32 114 101 115 116 32 111 102 32 116 104 101 32 56 48 32 50 120 54
 115 80 1 158 161 162 8017 0 0 0 0 0 0 0 0 0 TTTTTTTTTTTTTFTFT3 84 255 46 160 Pa
rt 303 1.5x3x205.663 the rest of the 80 2x6s79 255 13 162 SDL/TYSA_NAME79 14 159
 SDL/TYSA_UNAME80 1 126 0 163 8001 0 0 0 0 3 5 0 0 0 FFFFTFTFFFFFFFFFF2 83 255 3
 153 .972549019607843 .529411764705882 .00392156862745098 79 15 163 SDL/TYSA_COL
OUR50 152 83 0 17 148 140 0 +3.1115 1.584070339951995 5.6173712124891 1 0 0 0 1
 0 13 24 3 0 0 0 0 0 0 10 17 50 148 70 0 132 0 152 0 +3.0353 2.174655018361725 5
.40051762535558 -1 210234474648647e-30 -1443778922285886e-31 210234474648647e-30
 1 0 50 140 84 0 86 152 133 0 +3.111502 4.32774135072675 3.921892071803695 -2550
362917217125e-31 -.824331600923871 .56610724400796 0 .56610724400796 .8243316009
23871 50 133 85 0 74 140 20 0 +3.111502 2.154524244764805 5.37120439362673 -4043
84125222384e-46 .566107244007959 .824331600923871 0 .824331600923871 -.566107244
007959 50 20 86 0 139 133 7 0 +3.111502 .02156868599670235 6.87914317890746 -255
0362917217125e-31 -.824331600923871 .56610724400796 0 .56610724400796 .824331600
923871 83 3 149 .972549019607843 .529411764705882 .00392156862745098 15 35 16 0
 26 132 0 83 3 145 .972549019607843 .529411764705882 .00392156862745098 15 45 19
 0 47 139 0 83 3 142 .972549019607843 .529411764705882 .00392156862745098 83 3 1
36 .972549019607843 .529411764705882 .00392156862745098 83 3 128 .97254901960784
3 .529411764705882 .00392156862745098 15 108 25 0 56 19 0 81 1 90 149 31 85 0 0
 25 113 164 82 3 122 173 10 1 81 1 25 148 31 11 0 0 94 90 165 82 3 164 173 9 1 8
2 3 165 173 8 1 79 9 121 BTI/DetId81 1 111 145 31 82 0 0 109 96 166 17 88 0 87 7
8 84 61 89 82 0 0 +17 89 0 108 56 63 57 88 82 0 0 -17 63 0 108 89 105 61 47 101
 0 93 -17 93 0 45 47 46 61 78 91 0 88 -17 46 0 45 93 41 64 75 81 0 70 -17 75 0 6
9 71 70 30 46 81 0 0 +81 1 96 146 31 27 0 0 111 94 167 82 3 166 173 5 1 82 3 167
 173 6 1 17 36 0 35 48 26 30 71 27 0 75 +17 48 0 35 37 36 42 41 49 0 0 -17 37 0
 35 26 48 51 105 106 0 38 -17 38 0 79 60 39 51 26 11 0 0 -81 1 100 143 31 81 0 0
 80 109 168 82 3 112 173 4 1 81 1 80 142 31 72 0 0 102 100 169 82 3 168 173 3 1
 82 3 169 173 2 1 81 1 43 139 31 64 0 0 40 103 170 82 3 107 173 0 1 82 3 170 173
 7 0 82 3 104 173 1 1 82 3 97 173 7 1 82 3 68 173 5 0 81 1 32 135 31 61 0 0 50 2
9 171 81 1 50 134 31 42 0 0 59 32 172 82 3 171 173 3 0 81 1 59 133 31 57 0 0 55
 50 173 82 3 172 173 2 0 81 1 55 132 31 51 0 0 0 59 174 82 3 173 173 1 0 82 3 17
4 173 0 0 82 3 44 173 6 0 82 3 34 173 4 0 19 18 4 0 1 0 10 6 0 S0 74 4 CI16 inde
x_map_offset0 0 1 dCCZ20 16 5 0 0 150 154 14 2 123 0 0 0 0 0 0 0 0 0 0 0 0 0 0 0
 80 1 13 126 175 8040 0 0 0 0 3 5 0 0 0 TTTFFFFFFFFFFFFFF2 83 3 15 .972549019607
843 .529411764705882 .00392156862745098 79 17 175 SDL/TYSA_COLOUR_21 0 
