**ABCDEFGHIJKLMNOPQRSTUVWXYZabcdefghijklmnopqrstuvwxyz**************************
**PARASOLID !"#$%&'()*+,-./:;<=>?@[\]^_`{|}~0123456789**************************
**PART1;
MC=unknown;
MC_MODEL=unknown;
MC_ID=unknown;
OS=unknown;
OS_RELEASE=unknown;
FRU=Parasolid 36.0.180;
APPL=Onshape;
SITE=unknown;
USER=unknown;
FORMAT=text;
GUISE=transmit;
KEY=BTGapi::writeModels_.xmt;
FILE=BTGapi::writeModels_.xmt;
DATE=2024-05-15T00:06:35 (UTC);
**PART2;
SCH=SCH_3600180_36001;
USFLD_SIZE=0;
**PART3;
**END_OF_HEADER*****************************************************************
T51 : TRANSMIT FILE created by modeller version 360018023 SCH_3600180_36001_1300
6231 0 12 36 CCCI7 lattice222 0 CCCI4 mesh1006 0 I8 polyline1008 0 CCCCCCCDI5 ow
ner1040 0 CCCI16 boundary_lattice222 0 CCCI13 boundary_mesh1006 0 I17 boundary_p
olyline1008 0 CCCA16 index_map_offset0 0 1 dA9 index_map82 0 A17 node_id_index_m
ap82 0 A20 schema_embedding_map82 0 A5 child12 0 A14 lowest_node_id0 0 1 dA16 me
sh_offset_data206 0 Z1 143 2 3 0 0 0 0 0 0 0 1e3 1e-8 0 4 5 1 0 1 2 6 0 7 8 9 0
 0 10 11 12 0 0 0 0 0 0 0 81 255 1 2 137 13 1 14 0 0 0 15 70 11 CI9 list_type0 0
 1 uI10 notransmit0 0 1 lCCCDCCDI12 finger_index0 0 1 dI12 finger_block1012 0 CZ
3 0 4 T1 0 0 5 20 1 16 16 13 255 6 5 0 1 0 17 0 0 18 0 50 255 7 90 0 19 20 0 0 +
-1.4732 -4.30617544560774 3.89048555425721 1 0 0 0 0 -1 30 255 8 98 0 21 22 0 0
 +-1.4732 -4.17316741641358 3.69680719595694 0 .824331600923871 .56610724400796
 29 255 9 85 0 12 23 0 -1.6637 -4.12082071109171 3.732756138165935 19 9 CCCCCCI5
 frame230 0 CA5 owner12 0 Z10 1 0 1 18 0 24 0 V0 16 255 11 29 25 ?26 0 27 28 0 0
 1 18 255 12 53 29 30 0 31 9 ?1 81 1 29 108 32 12 0 0 0 33 34 17 255 30 0 35 36
 37 12 38 39 0 40 +18 31 57 41 42 12 43 23 ?1 81 1 41 112 32 31 0 0 44 45 46 17
 42 0 47 48 49 31 50 51 0 36 +18 43 61 52 53 31 54 55 ?1 29 23 84 0 31 55 9 -1.6
637 -3.959055566116435 3.497203383201935 29 55 83 0 43 56 23 -1.4732 -3.95905556
6116435 3.49720338320194 29 56 82 0 54 57 55 -1.4732 -4.12082071109171 3.7327561
38165935 18 54 65 58 59 43 60 56 ?1 29 57 81 0 60 61 56 -1.4732 -4.1731657677503
75 3.69680832817143 18 60 69 62 63 54 64 57 ?1 29 61 80 0 64 65 57 -1.4732 -4.01
14006227751 3.461255573207435 18 64 70 44 66 60 67 61 ?1 29 65 79 0 67 68 61 -1.
6637 -4.0114006227751 3.46125557320743 18 67 71 45 49 64 69 65 ?1 29 68 78 0 69
 0 65 -1.6637 -4.173165767750375 3.69680832817143 18 69 72 33 38 67 0 68 ?1 81 1
 33 109 32 69 0 0 29 52 70 17 38 0 71 72 73 69 30 39 0 74 -15 255 71 25 0 38 75
 0 17 72 0 71 59 38 60 74 76 0 77 +17 73 0 71 38 59 12 26 11 0 0 -16 39 48 78 ?3
0 51 79 80 0 0 1 17 74 0 81 82 63 69 72 76 0 37 -15 81 8 0 74 17 0 17 82 0 81 83
 74 67 37 84 0 50 +17 63 0 81 74 83 60 66 79 0 72 -16 76 51 85 ?72 86 84 87 0 0
 1 17 37 0 35 30 50 69 82 84 0 0 -15 35 11 0 37 88 0 17 50 0 35 37 36 67 42 51 0
 0 -16 84 52 89 ?82 76 0 90 0 0 1 81 1 89 123 32 84 0 0 91 92 93 30 90 94 0 84 8
7 80 0 +-1.6637 -4.306173796944535 3.890486686471695 0 .566107244007959 -.824331
600923871 30 87 93 0 76 94 90 0 +-1.56845 -4.173165767750375 3.69680832817143 1
 0 0 30 80 95 0 39 90 95 0 +-1.6637 -4.17316741641358 3.69680719595694 0 .824331
600923871 .56610724400796 30 95 96 0 51 80 22 0 +-1.6637 -4.011402271438305 3.46
1254440992945 0 .824331600923871 .56610724400796 16 51 47 96 ?42 97 39 95 0 0 1
 30 22 97 0 97 95 8 0 +-1.4732 -4.011402271438305 3.461254440992945 0 .824331600
923871 .56610724400796 16 97 46 98 ?53 21 51 22 0 0 1 81 1 98 117 32 97 0 0 78 9
6 99 17 53 0 100 101 66 43 102 97 0 48 +16 21 45 103 ?59 104 97 8 0 0 1 81 1 103
 119 32 21 0 0 96 105 106 17 59 0 71 73 72 54 77 21 0 26 +16 104 41 105 ?107 108
 21 109 0 0 1 81 1 105 120 32 104 0 0 103 110 111 17 107 0 112 113 26 43 101 104
 0 0 +16 108 37 92 ?113 27 104 114 0 0 1 30 109 74 0 104 0 114 0 +-1.4732 -4.253
82874028587 3.9264344964662 0 .56610724400796 -.824331600923871 30 114 75 0 108
 109 115 0 +-1.56845 -3.959055566116435 3.49720338320194 -1 0 0 30 115 76 0 27 1
14 28 0 +-1.6637 -4.25382874028587 3.9264344964662 0 .56610724400796 -.824331600
923871 16 27 33 91 ?36 11 108 115 0 0 1 30 28 77 0 11 115 116 0 +-1.56845 -4.120
82071109171 3.732756138165935 1 0 0 30 116 91 0 79 28 94 0 +-1.4732 -4.306173796
944535 3.8904866864717 0 .566107244007959 -.824331600923871 16 79 49 110 ?66 39
 86 116 0 0 1 30 94 92 0 86 116 87 0 +-1.56845 -4.0114006227751 3.46125557320743
5 -1 0 0 16 86 50 117 ?49 79 76 94 0 0 1 81 1 117 125 32 86 0 0 92 25 118 17 49
 0 47 42 102 67 83 86 0 82 +15 47 22 0 102 119 0 17 102 0 47 49 48 64 53 97 0 0
 -17 83 0 81 63 82 64 49 86 0 102 -17 48 0 47 102 42 43 113 108 0 107 -17 113 0
 112 40 107 31 48 108 0 0 +15 112 19 0 26 120 0 17 40 0 112 26 113 12 36 27 0 73
 -17 26 0 112 107 40 54 73 11 0 101 +17 36 0 35 50 30 31 40 27 0 113 +17 101 0 1
00 77 53 54 107 104 0 0 -15 100 28 0 77 19 0 17 77 0 100 66 101 60 59 21 0 0 -17
 66 0 100 53 77 64 63 79 0 83 +14 255 19 26 121 ?0 75 100 6 7 +0 0 17 75 24 81 1
 121 143 122 19 123 0 124 0 125 14 75 23 124 ?19 119 71 6 126 +0 0 19 119 24 14
 17 6 127 ?88 0 81 6 128 +0 0 0 19 24 13 24 3 0 0 0 0 0 0 10 88 14 88 9 129 ?120
 17 35 6 130 -0 0 120 0 24 81 1 129 139 122 88 131 0 127 132 133 14 120 12 132 ?
119 88 112 6 134 -0 0 119 88 24 50 130 88 0 88 126 20 0 +-1.6637 -4.306175445607
735 3.89048555425721 1 0 0 0 0 -1 50 126 87 0 75 128 130 0 +-1.56845 -4.17316741
641358 3.69680719595694 0 -.56610724400796 .824331600923871 0 -.824331600923871
 -.56610724400796 50 20 89 0 119 130 7 0 +-1.56845 -4.011402271438305 3.46125444
0992945 0 .56610724400796 -.824331600923871 0 .824331600923871 .56610724400796 1
4 119 20 135 ?75 120 47 6 20 +0 0 75 120 24 81 1 135 141 122 119 136 0 132 124 1
37 80 7 CCCCCDI12 legal_owners0 17 1 lCZ1 122 0 138 8001 0 0 0 0 3 5 0 0 0 FFFFT
FTFFFFFFFFFF2 81 1 136 132 32 119 0 135 131 139 140 81 1 132 140 122 120 141 0 1
29 135 142 81 1 124 142 122 75 139 0 135 121 143 83 255 3 137 .972549019607843 .
529411764705882 .00392156862745098 81 1 139 133 32 75 0 124 136 144 145 83 3 143
 .972549019607843 .529411764705882 .00392156862745098 80 1 32 146 147 9000 0 0 0
 0 3 6 0 0 0 FFTFTFTTFFFFFFFFF1 81 1 144 134 32 1 0 148 139 0 149 82 255 3 145 1
46 5 2 81 1 148 135 150 1 144 14 0 0 151 82 3 149 146 0 3 80 1 150 152 153 8038
 0 0 0 0 0 0 0 0 0 TTTTTTTTTTTTTFTFT10 81 1 14 136 152 1 148 2 0 0 154 98 255 8
 151 80 97 114 116 32 50 51 53 80 1 152 155 156 8017 0 0 0 0 0 0 0 0 0 TTTTTTTTT
TTTTFTFT3 84 255 8 154 Part 23579 255 13 156 SDL/TYSA_NAME79 14 153 SDL/TYSA_UNA
ME79 9 147 BTI/DetId81 1 141 129 32 120 0 132 123 157 158 83 3 142 .972549019607
843 .529411764705882 .00392156862745098 81 1 123 128 32 19 0 121 85 141 159 81 1
 157 130 32 17 0 127 141 131 160 82 3 158 146 1 2 81 1 127 138 122 17 157 0 0 12
9 161 81 1 131 131 32 88 0 129 157 136 162 82 3 160 146 2 2 82 3 162 146 3 2 83
 3 161 .972549019607843 .529411764705882 .00392156862745098 81 1 85 127 32 76 0
 0 25 123 163 82 3 159 146 0 2 81 1 25 126 32 11 0 0 117 85 164 82 3 163 146 11
 1 82 3 164 146 10 1 82 3 140 146 4 2 79 15 138 SDL/TYSA_COLOUR50 128 86 0 17 13
4 126 0 +-2.44475 -4.306172664730045 3.890485037808495 0 -.824331600923871 -.566
107244007959 0 .566107244007959 -.824331600923871 50 134 73 0 120 0 128 0 +0 -4.
10644158709391 3.71181811550247 0 -.824331600923871 -.56610724400796 1 0 0 83 3
 133 .972549019607843 .529411764705882 .00392156862745098 83 3 125 .972549019607
843 .529411764705882 .00392156862745098 81 1 92 124 32 108 0 0 89 117 165 82 3 1
18 146 9 1 82 3 165 146 8 1 81 1 110 121 32 79 0 0 105 91 166 81 1 91 122 32 27
 0 0 110 89 167 82 3 166 146 5 1 82 3 167 146 6 1 82 3 111 146 4 1 81 1 96 118 3
2 51 0 0 98 103 168 82 3 106 146 3 1 82 3 168 146 2 1 81 1 78 116 32 39 0 0 62 9
8 169 82 3 99 146 1 1 81 1 62 115 32 60 0 0 58 78 170 82 3 169 146 0 1 81 1 58 1
14 32 54 0 0 45 62 171 82 3 170 146 7 0 81 1 45 113 32 67 0 0 41 58 172 82 3 171
 146 6 0 82 3 172 146 5 0 82 3 93 146 7 1 81 1 52 110 32 43 0 0 33 44 173 82 3 7
0 146 1 0 81 1 44 111 32 64 0 0 52 41 174 82 3 173 146 2 0 82 3 174 146 3 0 82 3
 46 146 4 0 82 3 34 146 0 0 19 18 4 0 1 0 10 6 0 S0 74 4 CI16 index_map_offset0
 0 1 dCCZ20 16 5 0 0 144 148 14 2 121 0 0 0 0 0 0 0 0 0 0 0 0 0 0 0 80 1 13 122
 175 8040 0 0 0 0 3 5 0 0 0 TTTFFFFFFFFFFFFFF2 83 3 15 .972549019607843 .5294117
64705882 .00392156862745098 79 17 175 SDL/TYSA_COLOUR_21 0 
