**ABCDEFGHIJKLMNOPQRSTUVWXYZabcdefghijklmnopqrstuvwxyz**************************
**PARASOLID !"#$%&'()*+,-./:;<=>?@[\]^_`{|}~0123456789**************************
**PART1;
MC=unknown;
MC_MODEL=unknown;
MC_ID=unknown;
OS=unknown;
OS_RELEASE=unknown;
FRU=Parasolid 36.0.180;
APPL=Onshape;
SITE=unknown;
USER=unknown;
FORMAT=text;
GUISE=transmit;
KEY=BTGapi::writeModels_.xmt;
FILE=BTGapi::writeModels_.xmt;
DATE=2024-05-15T00:06:35 (UTC);
**PART2;
SCH=SCH_3600180_36001;
USFLD_SIZE=0;
**PART3;
**END_OF_HEADER*****************************************************************
T51 : TRANSMIT FILE created by modeller version 360018023 SCH_3600180_36001_1300
6231 0 12 36 CCCI7 lattice222 0 CCCI4 mesh1006 0 I8 polyline1008 0 CCCCCCCDI5 ow
ner1040 0 CCCI16 boundary_lattice222 0 CCCI13 boundary_mesh1006 0 I17 boundary_p
olyline1008 0 CCCA16 index_map_offset0 0 1 dA9 index_map82 0 A17 node_id_index_m
ap82 0 A20 schema_embedding_map82 0 A5 child12 0 A14 lowest_node_id0 0 1 dA16 me
sh_offset_data206 0 Z1 279 2 3 0 0 0 0 0 0 0 1e3 1e-8 0 4 5 1 0 1 2 6 0 7 8 9 0
 0 10 11 12 0 0 0 0 0 0 0 81 255 1 2 273 13 1 14 0 0 0 15 70 11 CI9 list_type0 0
 1 uI10 notransmit0 0 1 lCCCDCCDI12 finger_index0 0 1 dI12 finger_block1012 0 CZ
3 0 4 T1 0 0 5 20 1 16 16 13 255 6 88 0 1 0 17 0 0 18 0 50 255 7 194 0 17 19 0 0
 +-1.4732 -2.54 4.81838 0 -1 0 0 0 -1 30 255 8 198 0 11 20 0 0 +-1.4732 -2.54 2.
70099311856604 -1 0 0 29 255 9 175 0 21 22 0 -1.6637 -1.516250802198115 3.99415
 19 9 CCCCCCI5 frame230 0 CA5 owner12 0 Z10 87 0 1 18 0 23 0 V0 16 255 11 182 24
 ?25 0 26 8 0 0 1 18 255 12 81 27 28 0 29 30 ?1 81 1 27 249 31 12 0 0 32 33 34 1
7 255 28 0 35 36 37 12 38 39 0 40 -18 29 76 41 42 12 43 44 ?1 29 30 83 0 12 44 4
5 -1.4732 -1.516250802198115 3.99415 29 44 78 0 29 46 30 -1.4732 -1.246843118566
042 3.99415 29 45 178 0 47 30 48 -1.6637 -2.54 2.70099311856604 18 47 166 49 50
 51 0 45 ?1 29 48 177 0 51 45 22 -1.6637 -2.54 2.97040080219812 18 51 162 33 52
 53 47 48 ?1 29 22 176 0 53 48 9 -1.6637 -1.246843118566042 3.99415 18 53 158 54
 55 21 51 22 ?1 81 1 54 246 31 53 0 0 56 41 57 17 55 0 58 50 59 53 60 61 0 62 -1
8 21 154 32 59 63 53 9 ?1 81 1 32 248 31 21 0 0 41 27 64 17 59 0 58 55 65 21 52
 66 0 36 -18 63 51 56 67 43 21 68 ?1 81 1 56 245 31 63 0 0 49 54 69 17 67 0 70 2
5 71 63 72 73 0 74 -18 43 71 75 38 29 63 46 ?1 29 68 53 0 63 0 46 -1.4732 -2.54
 2.70099311856604 29 46 73 0 43 68 44 -1.4732 -2.54 2.97040080219812 81 1 75 251
 31 43 0 0 33 24 76 17 38 0 77 74 40 43 28 39 0 37 +15 255 77 6 0 74 78 0 17 74
 0 77 72 38 63 79 80 0 81 +17 40 0 77 38 72 12 42 82 0 83 +16 39 31 84 ?38 82 73
 85 0 0 1 17 37 0 35 28 52 43 86 87 0 79 -15 35 185 0 52 88 0 17 52 0 35 37 36 5
1 59 66 0 86 +17 86 0 89 90 79 51 37 87 0 65 +16 87 181 91 ?86 92 82 20 0 0 1 17
 79 0 89 86 81 43 74 80 0 0 -15 89 189 0 90 17 0 17 81 0 89 79 90 63 25 11 0 0 -
16 80 11 93 ?74 73 61 94 0 0 1 81 1 93 259 31 80 0 0 95 96 97 16 73 16 98 ?72 39
 80 99 0 0 1 16 61 132 100 ?60 80 66 101 0 0 1 30 94 13 0 80 0 99 0 +-1.4732 -2.
54 4.81838 0 0 -1 30 99 18 0 73 94 85 0 +-1.4732 -2.23582252440755 3.00517059415
8495 0 .707106781186548 .707106781186548 30 85 33 0 39 99 102 0 +-1.4732 -2.1964
0040109906 3.31400040109906 0 -.707106781186548 -.707106781186548 30 102 43 0 82
 85 103 0 +-1.4732 -1.38154696038208 3.99415 0 -1 0 16 82 41 104 ?40 87 39 102 0
 0 1 30 103 174 0 105 102 106 0 +-1.6637 -2.54 4.81838 0 0 -1 16 105 150 95 ?90
 107 0 103 0 0 1 30 106 173 0 107 103 108 0 +-1.6637 -2.23582252440755 3.0051705
94158495 0 .707106781186548 .707106781186548 16 107 142 96 ?109 66 105 106 0 0 1
 30 108 172 0 66 106 101 0 +-1.6637 -2.19640040109906 3.31400040109906 0 -.70710
6781186548 -.707106781186548 16 66 136 110 ?52 61 107 108 0 0 1 30 101 171 0 61
 108 111 0 +-1.6637 -1.38154696038208 3.99415 0 -1 0 30 111 195 0 92 101 112 0 +
-1.4732 -1.516250802198115 3.99415 -1 0 0 16 92 179 113 ?36 26 87 111 0 0 1 30 1
12 196 0 26 111 20 0 +-1.4732 -1.246843118566042 3.99415 -1 0 0 16 26 180 114 ?6
2 11 92 112 0 0 1 30 20 197 0 87 112 8 0 +-1.4732 -2.54 2.97040080219812 -1 0 0
 81 1 114 253 31 26 0 0 24 113 115 17 62 0 116 60 42 53 71 26 0 109 +15 116 183
 0 60 117 0 17 60 0 116 83 62 21 55 61 0 0 +17 42 0 116 62 83 29 40 82 0 72 -17
 71 0 70 67 109 29 62 26 0 0 -17 109 0 70 71 25 53 50 107 0 0 +15 70 187 0 109 1
18 0 17 25 0 70 109 67 47 81 11 0 90 +17 50 0 58 65 55 47 109 107 0 25 -15 58 13
1 0 65 119 0 17 65 0 58 59 50 51 90 105 0 0 -17 90 0 89 81 86 47 65 105 0 0 +14
 255 119 120 120 ?0 78 58 6 121 +0 0 0 78 23 81 1 120 279 122 119 123 0 124 0 12
5 14 78 1 124 ?119 88 77 6 126 -0 0 119 88 23 50 121 170 0 119 126 127 0 +-1.663
7 0 2.40919 -1 0 0 0 1 0 13 23 199 0 0 0 0 0 0 10 17 14 17 190 128 ?118 0 89 6 7
 +0 0 118 0 23 81 1 128 274 122 17 129 0 0 130 131 14 118 188 130 ?117 17 70 6 1
9 +0 0 117 17 23 81 1 130 275 122 118 132 0 128 133 134 14 117 184 133 ?88 118 1
16 6 127 +0 0 88 118 23 50 19 193 0 118 135 7 0 +-1.4732 -2.23582252440755 3.005
170594158495 0 .707106781186548 -.707106781186548 0 .707106781186548 .7071067811
86548 50 135 192 0 88 127 19 0 +-1.4732 -2.19640040109906 3.31400040109906 0 -.7
07106781186548 .707106781186548 0 -.707106781186548 -.707106781186548 14 88 186
 136 ?78 117 35 6 135 +0 0 78 117 23 50 127 191 0 117 121 135 0 +-1.4732 -1.3815
4696038208 3.99415 0 0 1 -1 0 0 81 1 136 277 122 88 137 0 133 124 138 80 7 CCCCC
DI12 legal_owners0 17 1 lCZ1 122 0 139 8001 0 0 0 0 3 5 0 0 0 FFFFTFTFFFFFFFFFF2
 81 1 137 269 31 88 0 136 132 140 141 81 1 133 276 122 117 142 0 130 136 143 81
 1 124 278 122 78 144 0 136 120 145 83 255 3 138 .972549019607843 .5294117647058
82 .00392156862745098 81 1 144 266 31 78 0 124 123 129 146 83 3 145 .97254901960
7843 .529411764705882 .00392156862745098 80 1 31 147 148 9000 0 0 0 0 3 6 0 0 0
 FFTFTFTTFFFFFFFFF1 81 1 123 265 31 119 0 120 142 144 149 81 1 129 267 31 17 0 1
28 144 132 150 82 255 3 146 182 2 2 81 1 132 268 31 118 0 130 129 137 151 82 3 1
50 182 3 2 82 3 151 182 4 2 81 1 142 264 31 117 0 133 84 123 152 82 3 149 182 1
 2 81 1 84 263 31 39 0 0 110 142 153 82 3 152 182 0 2 81 1 110 262 31 66 0 0 98
 84 154 82 3 153 182 11 1 81 1 98 261 31 73 0 0 96 110 155 82 3 154 182 10 1 81
 1 96 260 31 107 0 0 93 98 156 82 3 155 182 9 1 82 3 156 182 8 1 79 255 9 148 BT
I/DetId83 3 143 .972549019607843 .529411764705882 .00392156862745098 81 1 140 27
0 31 1 0 157 137 0 158 82 3 141 182 5 2 81 1 157 271 159 1 140 14 0 0 160 82 3 1
58 182 0 3 80 1 159 161 162 8038 0 0 0 0 0 0 0 0 0 TTTTTTTTTTTTTFTFT10 81 1 14 2
72 161 1 157 2 0 0 163 98 255 8 160 80 97 114 116 32 51 48 54 80 1 161 164 165 8
017 0 0 0 0 0 0 0 0 0 TTTTTTTTTTTTTFTFT3 84 255 8 163 Part 30679 13 165 SDL/TYSA
_NAME79 14 162 SDL/TYSA_UNAME79 15 139 SDL/TYSA_COLOUR83 3 134 .972549019607843
 .529411764705882 .00392156862745098 83 3 131 .972549019607843 .529411764705882
 .00392156862745098 50 126 3 0 78 0 121 0 +-1.4732 0 2.40919 -1 0 0 0 1 0 83 3 1
25 .972549019607843 .529411764705882 .00392156862745098 17 83 0 116 42 60 12 36
 92 0 0 -17 72 0 77 40 74 29 67 73 0 71 +17 36 0 35 52 28 21 83 92 0 60 +81 1 24
 252 31 11 0 0 75 114 166 81 1 113 254 31 92 0 0 114 91 167 82 3 115 182 1 1 81
 1 91 255 31 87 0 0 113 100 168 82 3 167 182 2 1 81 1 100 256 31 61 0 0 91 104 1
69 82 3 168 182 3 1 81 1 104 257 31 82 0 0 100 95 170 82 3 169 182 4 1 81 1 95 2
58 31 105 0 0 104 93 171 82 3 170 182 5 1 82 3 171 182 6 1 82 3 166 182 0 1 82 3
 97 182 7 1 81 1 33 250 31 51 0 0 27 75 172 82 3 76 182 7 0 82 3 172 182 6 0 81
 1 49 244 31 47 0 0 0 56 173 82 3 69 182 1 0 82 3 173 182 0 0 81 1 41 247 31 29
 0 0 54 32 174 82 3 64 182 4 0 82 3 174 182 3 0 82 3 57 182 2 0 82 3 34 182 5 0
 19 18 200 0 1 0 10 6 0 S0 74 4 CI16 index_map_offset0 0 1 dCCZ20 16 5 0 0 140 1
57 14 2 120 0 0 0 0 0 0 0 0 0 0 0 0 0 0 0 80 1 13 122 175 8040 0 0 0 0 3 5 0 0 0
 TTTFFFFFFFFFFFFFF2 83 3 15 .972549019607843 .529411764705882 .00392156862745098
 79 17 175 SDL/TYSA_COLOUR_21 0 
