**ABCDEFGHIJKLMNOPQRSTUVWXYZabcdefghijklmnopqrstuvwxyz**************************
**PARASOLID !"#$%&'()*+,-./:;<=>?@[\]^_`{|}~0123456789**************************
**PART1;
MC=unknown;
MC_MODEL=unknown;
MC_ID=unknown;
OS=unknown;
OS_RELEASE=unknown;
FRU=Parasolid 36.0.180;
APPL=Onshape;
SITE=unknown;
USER=unknown;
FORMAT=text;
GUISE=transmit;
KEY=BTGapi::writeModels_.xmt;
FILE=BTGapi::writeModels_.xmt;
DATE=2024-05-15T00:06:35 (UTC);
**PART2;
SCH=SCH_3600180_36001;
USFLD_SIZE=0;
**PART3;
**END_OF_HEADER*****************************************************************
T51 : TRANSMIT FILE created by modeller version 360018023 SCH_3600180_36001_1300
6231 0 12 36 CCCI7 lattice222 0 CCCI4 mesh1006 0 I8 polyline1008 0 CCCCCCCDI5 ow
ner1040 0 CCCI16 boundary_lattice222 0 CCCI13 boundary_mesh1006 0 I17 boundary_p
olyline1008 0 CCCA16 index_map_offset0 0 1 dA9 index_map82 0 A17 node_id_index_m
ap82 0 A20 schema_embedding_map82 0 A5 child12 0 A14 lowest_node_id0 0 1 dA16 me
sh_offset_data206 0 Z1 530 2 3 0 0 0 0 0 0 0 1e3 1e-8 0 4 5 1 0 1 2 6 0 7 8 9 0
 0 10 11 12 0 0 0 0 0 0 0 81 255 1 2 524 13 1 14 0 0 0 15 70 11 CI9 list_type0 0
 1 uI10 notransmit0 0 1 lCCCDCCDI12 finger_index0 0 1 dI12 finger_block1012 0 CZ
3 0 4 T1 0 0 5 20 1 16 16 13 255 6 397 0 1 0 17 0 0 18 0 50 255 7 392 0 19 20 0
 0 +1.7526 -2.00608042208161 5.18504766194396 0 .566107244007959 -.8243316009238
71 0 .824331600923871 .566107244007959 30 255 8 396 0 21 22 0 0 +1.7526 -4.17316
5767750375 3.69680832817143 -1 0 0 29 255 9 373 0 23 24 0 1.6637 -4.011400622775
1 3.46125557320743 19 9 CCCCCCI5 frame230 0 CA5 owner12 0 Z10 203 0 1 18 0 25 0
 V0 16 255 11 377 26 ?27 0 21 28 0 0 1 18 255 12 197 29 30 0 31 32 ?1 81 1 29 49
6 33 12 0 0 34 35 36 17 255 30 0 37 38 39 12 40 41 0 42 -18 31 182 43 44 12 45 4
6 ?1 29 32 199 0 12 46 47 1.7526 -4.0114006227751 3.46125557320743 29 46 184 0 3
1 48 32 1.7526 -2794325426156415e-32 6.21607286836624 29 47 376 0 49 32 50 1.663
7 -4.173165767750375 3.69680832817143 18 49 364 35 51 52 0 47 ?1 29 50 375 0 52
 47 24 1.6637 360822483003176e-30 6.56271734939759 18 52 360 53 54 55 49 50 ?1 2
9 24 374 0 55 50 9 1.6637 -2794325426156415e-32 6.21607286836624 18 55 356 56 57
 23 52 24 ?1 81 1 56 501 33 55 0 0 58 43 59 17 57 0 60 61 62 55 54 63 0 64 +18 2
3 352 34 65 66 55 9 ?1 81 1 34 495 33 23 0 0 0 29 67 17 65 0 68 42 69 23 70 71 0
 27 -18 66 167 72 39 45 23 73 ?1 81 1 72 498 33 66 0 0 35 53 74 17 39 0 37 30 75
 66 76 77 0 78 -18 45 177 58 75 31 66 48 ?1 29 73 169 0 66 0 48 1.7526 -4.173165
767750375 3.69680832817143 29 48 179 0 45 73 46 1.7526 360822483003176e-30 6.562
71734939759 81 1 58 500 33 45 0 0 53 56 79 17 75 0 37 39 38 45 44 80 0 81 -15 25
5 37 6 0 38 82 0 17 38 0 37 75 30 31 83 84 0 85 +17 44 0 86 64 81 31 75 80 0 38
 +16 80 82 87 ?44 88 41 89 0 0 1 17 81 0 86 44 54 45 90 91 0 76 -15 86 381 0 54
 92 0 17 54 0 86 81 64 52 57 63 0 90 -17 90 0 93 51 76 52 81 91 0 62 +16 91 379
 94 ?90 21 88 22 0 0 1 17 76 0 93 90 78 45 39 77 0 0 +15 93 387 0 51 19 0 17 78
 0 93 76 51 66 69 21 0 40 -16 77 32 95 ?76 84 63 96 0 0 1 81 1 95 508 33 77 0 0
 97 98 99 16 84 47 100 ?38 41 77 101 0 0 1 16 63 314 102 ?57 77 71 103 0 0 1 30
 96 34 0 77 0 101 0 +1.7526 -2.00608042208161 5.18504766194396 0 .82433160092387
1 .566107244007959 30 101 49 0 84 96 104 0 +1.7526 -1.236742427512362 5.36674373
139991 0 .824331600923871 .56610724400796 30 104 69 0 41 101 89 0 +1.7526 -4.159
7026671132 3.677204164085715 0 -.566107244007961 .82433160092387 16 41 67 105 ?4
0 80 84 104 0 0 1 30 89 84 0 80 104 106 0 +1.7526 -671740155470698e-32 6.3893951
0888191 0 -1224646799147354e-31 -1 30 106 372 0 107 89 108 0 +1.6637 -2.00608042
208161 5.18504766194396 0 .824331600923871 .566107244007959 16 107 338 97 ?62 10
9 0 106 0 0 1 30 108 371 0 109 106 110 0 +1.6637 -1.236742427512362 5.3667437313
9991 0 .824331600923871 .56610724400796 16 109 324 98 ?111 71 107 108 0 0 1 30 1
10 370 0 71 108 103 0 +1.6637 -4.1597026671132 3.677204164085715 0 -.56610724400
7961 .82433160092387 16 71 318 112 ?70 63 109 110 0 0 1 30 103 369 0 63 110 28 0
 +1.6637 -671740155470698e-32 6.38939510888191 0 -1224646799147354e-31 -1 30 28
 393 0 11 103 113 0 +1.7526 -4.0114006227751 3.46125557320743 -1 0 0 30 113 394
 0 88 28 22 0 +1.7526 -2794325426156415e-32 6.21607286836624 -1 0 0 16 88 378 11
4 ?64 91 80 113 0 0 1 30 22 395 0 91 113 8 0 +1.7526 360822483003176e-30 6.56271
734939759 -1 0 0 81 1 114 506 33 88 0 0 94 97 115 17 64 0 86 54 44 55 85 88 0 11
1 +17 85 0 116 83 111 31 64 88 0 0 -17 111 0 116 85 27 55 61 109 0 0 +15 116 385
 0 111 17 0 17 27 0 116 111 83 23 42 11 0 61 +17 61 0 60 70 57 23 111 109 0 0 -1
5 60 313 0 61 117 0 17 70 0 60 62 61 49 65 71 0 0 +17 62 0 60 57 70 52 51 107 0
 0 +17 51 0 93 78 90 49 62 107 0 69 -17 69 0 68 65 40 49 78 21 0 70 +15 68 383 0
 65 118 0 17 40 0 68 69 42 66 30 41 0 0 +16 21 380 119 ?69 11 91 8 0 0 1 81 1 11
9 504 33 21 0 0 26 94 120 80 7 CCCCCDI12 legal_owners0 17 1 lCZ1 33 121 122 9000
 0 0 0 0 3 6 0 0 0 FFTFTFTTFFFFFFFFF1 81 1 26 503 33 11 0 0 43 119 123 81 1 94 5
05 33 91 0 0 119 114 124 82 255 3 120 73 73 1 82 3 124 73 74 1 81 1 43 502 33 31
 0 0 56 26 125 82 3 123 73 72 1 82 3 125 73 55 0 79 255 9 122 BTI/DetId17 42 0 6
8 40 65 12 27 11 0 83 -17 83 0 116 27 85 12 38 84 0 0 -14 255 118 384 126 ?19 17
 68 6 127 -0 0 19 17 25 81 1 126 526 128 118 129 0 130 131 132 14 19 388 131 ?92
 118 93 6 7 -0 0 92 118 25 14 17 386 130 ?118 0 116 6 20 +0 0 118 0 25 50 127 39
0 0 118 133 20 0 +1.7526 -4.1597026671132 3.677204164085715 0 .82433160092387 .5
66107244007961 0 -.566107244007961 .82433160092387 13 25 204 0 0 0 0 0 0 10 17 5
0 133 389 0 92 134 127 0 +1.7526 -671740155470698e-32 6.38939510888191 0 -1 1224
646799147354e-31 0 -1224646799147354e-31 -1 50 20 391 0 17 127 7 0 +1.7526 -1.23
6742427512362 5.36674373139991 0 .56610724400796 -.824331600923871 0 .8243316009
23871 .56610724400796 14 92 382 135 ?82 19 86 6 133 -0 0 82 19 25 50 134 368 0 1
17 136 133 0 +1.6637 -2.12066116461942 3.403998341847945 1 0 0 0 -1 0 14 117 290
 137 ?0 82 60 6 134 -0 0 0 82 25 50 136 3 0 82 0 134 0 +1.7526 -2.12066116461942
 3.403998341847945 1 0 0 0 -1 0 14 82 1 138 ?117 92 37 6 136 +0 0 117 92 25 81 1
 138 529 128 82 139 0 135 137 140 80 1 128 0 141 8001 0 0 0 0 3 5 0 0 0 FFFFTFTF
FFFFFFFFF2 81 1 139 517 33 82 0 138 142 143 144 81 1 135 528 128 92 145 0 131 13
8 146 81 1 137 530 128 117 142 0 138 0 147 83 255 3 140 .980392156862745 .713725
490196078 .00392156862745098 81 1 142 516 33 117 0 137 148 139 149 83 3 147 .980
392156862745 .713725490196078 .00392156862745098 81 1 148 515 33 19 0 131 87 142
 150 82 3 149 73 37 2 81 1 131 527 128 19 148 0 126 135 151 81 1 87 514 33 80 0
 0 102 148 152 82 3 150 73 36 2 81 1 102 513 33 63 0 0 105 87 153 82 3 152 73 83
 1 81 1 105 512 33 41 0 0 112 102 154 82 3 153 73 82 1 81 1 112 511 33 71 0 0 10
0 105 155 82 3 154 73 81 1 81 1 100 510 33 84 0 0 98 112 156 82 3 155 73 80 1 81
 1 98 509 33 109 0 0 95 100 157 82 3 156 73 79 1 82 3 157 73 78 1 83 3 151 .9803
92156862745 .713725490196078 .00392156862745098 81 1 145 520 33 92 0 135 129 158
 159 83 3 146 .980392156862745 .713725490196078 .00392156862745098 81 1 129 519
 33 118 0 126 143 145 160 81 1 158 521 33 1 0 161 145 0 162 82 3 159 73 41 2 81
 1 161 522 163 1 158 14 0 0 164 82 3 162 73 6 3 80 1 163 165 166 8038 0 0 0 0 0
 0 0 0 0 TTTTTTTTTTTTTFTFT10 81 1 14 523 165 1 161 2 0 0 167 98 255 7 164 80 97
 114 116 32 51 55 80 1 165 168 169 8017 0 0 0 0 0 0 0 0 0 TTTTTTTTTTTTTFTFT3 84
 255 7 167 Part 3779 13 169 SDL/TYSA_NAME79 14 166 SDL/TYSA_UNAME81 1 143 518 33
 17 0 130 139 129 170 82 3 160 73 40 2 81 1 130 525 128 17 143 0 0 126 171 82 3
 170 73 39 2 83 3 171 .980392156862745 .713725490196078 .00392156862745098 82 3
 144 73 38 2 79 15 141 SDL/TYSA_COLOUR83 3 132 .980392156862745 .713725490196078
 .00392156862745098 81 1 97 507 33 107 0 0 114 95 172 82 3 115 73 75 1 82 3 172
 73 76 1 82 3 99 73 77 1 81 1 53 499 33 52 0 0 72 58 173 82 3 79 73 53 0 82 3 17
3 73 52 0 81 1 35 497 33 49 0 0 29 72 174 82 3 74 73 51 0 82 3 174 73 50 0 82 3
 67 73 48 0 82 3 59 73 54 0 82 3 36 73 49 0 19 18 398 0 1 0 10 6 0 S0 74 4 CI16
 index_map_offset0 0 1 dCCZ20 16 5 0 0 158 161 14 2 137 0 0 0 0 0 0 0 0 0 0 0 0
 0 0 0 80 1 13 128 175 8040 0 0 0 0 3 5 0 0 0 TTTFFFFFFFFFFFFFF2 83 3 15 .980392
156862745 .713725490196078 .00392156862745098 79 17 175 SDL/TYSA_COLOUR_21 0 
