**ABCDEFGHIJKLMNOPQRSTUVWXYZabcdefghijklmnopqrstuvwxyz**************************
**PARASOLID !"#$%&'()*+,-./:;<=>?@[\]^_`{|}~0123456789**************************
**PART1;
MC=unknown;
MC_MODEL=unknown;
MC_ID=unknown;
OS=unknown;
OS_RELEASE=unknown;
FRU=Parasolid 36.0.180;
APPL=Onshape;
SITE=unknown;
USER=unknown;
FORMAT=text;
GUISE=transmit;
KEY=BTGapi::writeModels_.xmt;
FILE=BTGapi::writeModels_.xmt;
DATE=2024-05-15T00:06:35 (UTC);
**PART2;
SCH=SCH_3600180_36001;
USFLD_SIZE=0;
**PART3;
**END_OF_HEADER*****************************************************************
T51 : TRANSMIT FILE created by modeller version 360018023 SCH_3600180_36001_1300
6231 0 12 36 CCCI7 lattice222 0 CCCI4 mesh1006 0 I8 polyline1008 0 CCCCCCCDI5 ow
ner1040 0 CCCI16 boundary_lattice222 0 CCCI13 boundary_mesh1006 0 I17 boundary_p
olyline1008 0 CCCA16 index_map_offset0 0 1 dA9 index_map82 0 A17 node_id_index_m
ap82 0 A20 schema_embedding_map82 0 A5 child12 0 A14 lowest_node_id0 0 1 dA16 me
sh_offset_data206 0 Z1 729 2 3 0 0 0 0 0 0 0 1e3 1e-8 0 4 5 1 0 1 2 6 0 7 8 9 0
 0 10 11 12 0 0 0 0 0 0 0 81 255 1 2 723 13 1 14 0 0 0 15 70 11 CI9 list_type0 0
 1 uI10 notransmit0 0 1 lCCCDCCDI12 finger_index0 0 1 dI12 finger_block1012 0 CZ
3 0 4 T1 0 0 5 20 1 16 16 13 255 6 609 0 1 0 17 0 0 18 0 50 255 7 604 0 19 20 0
 0 +-2.44475 1.238752344532228 5.99702670348651 0 .824331600923871 -.56610724400
7959 0 -.566107244007959 -.824331600923871 30 255 8 608 0 21 22 0 0 +-3.048 1.23
8752344532228 5.99702670348651 0 -.566107244007959 -.824331600923871 29 255 9 58
5 0 23 24 0 3.048 1.105745447552558 5.80334999384945 19 9 CCCCCCI5 frame230 0 CA
5 owner12 0 Z10 280 0 1 18 0 25 0 V0 16 255 11 590 26 ?27 0 28 29 0 0 1 18 255 1
2 209 30 31 0 32 33 ?1 81 1 30 699 34 12 0 0 35 36 37 17 255 31 0 38 39 40 12 41
 42 0 43 -18 32 204 44 39 12 45 46 ?1 29 33 211 0 12 46 47 3.048 1.2387523445322
28 5.99702670348651 29 46 206 0 32 48 33 3.048 1.291097401190894 5.9610788934920
1 29 47 588 0 49 33 50 -3.048 1.105745447552558 5.80334999384945 18 49 576 51 52
 53 0 47 ?1 29 50 587 0 53 47 24 -3.048 1.158090504211224 5.76740218385494 18 53
 572 54 55 56 49 50 ?1 29 24 586 0 56 50 9 3.048 1.158090504211224 5.76740218385
494 18 56 568 36 57 23 53 24 ?1 81 1 36 700 34 56 0 0 30 44 58 17 57 0 59 60 61
 56 62 63 0 27 +18 23 564 35 64 65 56 9 ?1 81 1 35 698 34 23 0 0 66 30 67 17 64
 0 68 43 69 23 70 71 0 61 -18 65 184 66 40 45 23 72 ?1 81 1 66 697 34 65 0 0 51
 35 73 17 40 0 38 31 74 65 75 76 0 77 +18 45 189 78 75 32 65 48 ?1 29 72 186 0 6
5 0 48 -3.048 1.238752344532228 5.99702670348651 29 48 191 0 45 72 46 -3.048 1.2
91097401190894 5.96107889349201 81 1 78 695 34 45 0 0 54 51 79 17 75 0 80 81 77
 45 40 76 0 74 -15 255 80 597 0 52 82 0 17 81 0 80 52 75 53 83 84 0 85 +17 77 0
 80 75 52 65 69 21 0 41 -16 76 49 86 ?40 87 42 88 0 0 1 17 74 0 38 40 39 45 89 8
7 0 83 +15 38 6 0 74 90 0 17 39 0 38 74 31 32 91 92 0 60 +17 89 0 93 27 83 32 74
 87 0 0 -16 87 54 94 ?74 92 76 95 0 0 1 17 83 0 93 89 85 45 81 84 0 0 -15 93 595
 0 85 17 0 17 85 0 93 83 27 53 96 97 0 0 +16 84 591 98 ?81 21 92 22 0 0 1 81 1 9
8 702 34 84 0 0 44 99 100 16 21 592 99 ?69 28 84 8 0 0 1 16 92 69 101 ?39 84 87
 102 0 0 1 30 22 607 0 84 29 8 0 +-3.048 1.291097401190894 5.96107889349201 0 -.
566107244007959 -.824331600923871 30 29 606 0 11 103 22 0 +3.048 1.2910974011908
94 5.96107889349201 0 -.566107244007959 -.824331600923871 30 103 605 0 28 104 29
 0 +3.048 1.238752344532228 5.99702670348651 0 -.566107244007959 -.8243316009238
71 16 28 589 105 ?61 11 21 103 0 0 1 30 104 581 0 63 106 103 0 +3.048 1.13191797
588189 5.7853760888522 0 .824331600923871 -.56610724400796 16 63 516 107 ?57 42
 97 104 0 0 1 30 106 582 0 97 108 104 0 +-2.44475 1.158090504211224 5.7674021838
5494 -1 0 0 16 97 520 109 ?85 63 110 106 0 0 1 30 108 583 0 110 111 106 0 +-3.04
8 1.13191797588189 5.7853760888522 0 -.824331600923871 .566107244007959 16 110 5
40 112 ?52 97 71 108 0 0 1 30 111 584 0 71 102 108 0 +-2.44475 1.105745447552558
 5.80334999384945 -1 0 0 16 71 544 113 ?70 110 0 111 0 0 1 30 102 71 0 92 95 111
 0 +3.048 1.26492487286156 5.97905279848926 0 .824331600923871 -.56610724400796
 30 95 56 0 87 88 102 0 +-2.44475 1.291097401190894 5.96107889349201 -1 0 0 30 8
8 51 0 76 114 95 0 +-3.048 1.26492487286156 5.97905279848926 0 -.824331600923871
 .566107244007959 30 114 46 0 42 0 88 0 +-2.44475 1.238752344532228 5.9970267034
8651 -1 0 0 16 42 44 115 ?41 76 63 114 0 0 1 81 1 115 709 34 42 0 0 113 112 116
 17 41 0 68 69 43 65 31 42 0 0 +15 68 599 0 64 19 0 17 69 0 68 64 41 49 77 21 0
 70 +17 43 0 68 41 64 12 61 28 0 91 -17 61 0 59 57 91 23 43 28 0 62 +17 91 0 59
 61 60 12 39 92 0 0 -15 59 593 0 57 117 0 17 60 0 59 91 57 32 27 11 0 89 -17 27
 0 93 85 89 56 60 11 0 96 +17 96 0 118 62 55 56 85 97 0 0 -15 118 515 0 96 119 0
 17 62 0 118 70 96 23 57 63 0 0 -17 55 0 118 96 70 53 52 110 0 81 -17 70 0 118 5
5 62 49 64 71 0 0 +17 52 0 80 77 81 49 55 110 0 69 +14 255 119 484 120 ?0 90 118
 6 121 -0 0 0 90 25 81 1 120 729 122 119 123 0 124 0 125 14 90 1 124 ?119 82 38
 6 126 +0 0 119 82 25 50 121 580 0 119 126 127 0 +0 -.928492379663965 7.20035669
446802 0 .566107244007959 .824331600923871 1 0 0 13 25 281 0 0 0 0 0 0 10 17 14
 17 596 128 ?117 0 93 6 129 +0 0 117 0 25 81 1 128 724 122 17 130 0 0 131 132 14
 117 594 131 ?19 17 59 6 127 +0 0 19 17 25 50 129 602 0 17 127 20 0 +-2.44475 1.
291097401190894 5.96107889349201 0 .824331600923871 -.566107244007959 0 -.566107
244007959 -.824331600923871 50 127 601 0 117 121 129 0 +3.048 1.26492487286156 5
.97905279848926 1 0 0 0 0 -1 50 20 603 0 82 129 7 0 +-3.048 1.26492487286156 5.9
7905279848926 -1 0 0 0 0 1 14 82 598 133 ?90 19 80 6 20 +0 0 90 19 25 81 1 133 7
27 122 82 134 0 135 124 136 14 19 600 135 ?82 117 68 6 7 -0 0 82 117 25 81 1 135
 726 122 19 137 0 131 133 138 80 7 CCCCCDI12 legal_owners0 17 1 lCZ1 122 0 139 8
001 0 0 0 0 3 5 0 0 0 FFFFTFTFFFFFFFFFF2 81 1 137 717 34 19 0 135 140 134 141 81
 1 131 725 122 117 142 0 128 135 143 83 255 3 138 .615686274509804 .811764705882
353 .929411764705882 81 1 142 719 34 117 0 131 134 144 145 83 3 143 .61568627450
9804 .811764705882353 .929411764705882 80 1 34 146 147 9000 0 0 0 0 3 6 0 0 0 FF
TFTFTTFFFFFFFFF1 81 1 134 718 34 82 0 133 137 142 148 81 1 144 720 34 1 0 149 14
2 0 150 82 255 3 145 100 41 2 81 1 149 721 151 1 144 14 0 0 152 82 3 150 100 6 3
 80 1 151 153 154 8038 0 0 0 0 0 0 0 0 0 TTTTTTTTTTTTTFTFT10 81 1 14 722 153 1 1
49 2 0 0 155 98 255 7 152 80 97 114 116 32 54 49 80 1 153 156 157 8017 0 0 0 0 0
 0 0 0 0 TTTTTTTTTTTTTFTFT3 84 255 7 155 Part 6179 255 13 157 SDL/TYSA_NAME79 14
 154 SDL/TYSA_UNAME82 3 148 100 40 2 79 9 147 BTI/DetId81 1 140 716 34 90 0 124
 123 137 158 82 3 141 100 39 2 81 1 124 728 122 90 140 0 133 120 159 81 1 123 71
5 34 119 0 120 130 140 160 82 3 158 100 38 2 81 1 130 714 34 17 0 128 101 123 16
1 82 3 160 100 37 2 81 1 101 713 34 92 0 0 107 130 162 82 3 161 100 36 2 81 1 10
7 712 34 63 0 0 86 101 163 82 3 162 100 83 1 81 1 86 711 34 76 0 0 112 107 164 8
2 3 163 100 82 1 81 1 112 710 34 110 0 0 115 86 165 82 3 164 100 81 1 82 3 165 1
00 80 1 83 3 159 .615686274509804 .811764705882353 .929411764705882 79 15 139 SD
L/TYSA_COLOUR83 3 136 .615686274509804 .811764705882353 .929411764705882 83 3 13
2 .615686274509804 .811764705882353 .929411764705882 50 126 3 0 90 0 121 0 +0 -.
795485482684295 7.39403340410509 0 .566107244007959 .824331600923871 1 0 0 83 3
 125 .615686274509804 .811764705882353 .929411764705882 81 1 113 708 34 71 0 0 9
4 115 166 82 3 116 100 79 1 81 1 94 707 34 87 0 0 109 113 167 82 3 166 100 78 1
 81 1 109 706 34 97 0 0 26 94 168 82 3 167 100 77 1 81 1 26 705 34 11 0 0 105 10
9 169 82 3 168 100 76 1 81 1 105 704 34 28 0 0 99 26 170 82 3 169 100 75 1 81 1
 99 703 34 21 0 0 98 105 171 82 3 170 100 74 1 82 3 171 100 73 1 81 1 44 701 34
 32 0 0 36 98 172 82 3 100 100 72 1 82 3 172 100 55 0 81 1 54 694 34 53 0 0 0 78
 173 81 1 51 696 34 49 0 0 78 66 174 82 3 79 100 49 0 82 3 174 100 50 0 82 3 173
 100 48 0 82 3 73 100 51 0 82 3 67 100 52 0 82 3 58 100 54 0 82 3 37 100 53 0 19
 18 610 0 1 0 10 6 0 S0 74 4 CI16 index_map_offset0 0 1 dCCZ20 16 5 0 0 144 149
 14 2 120 0 0 0 0 0 0 0 0 0 0 0 0 0 0 0 80 1 13 122 175 8040 0 0 0 0 3 5 0 0 0 T
TTFFFFFFFFFFFFFF2 83 3 15 .615686274509804 .811764705882353 .929411764705882 79
 17 175 SDL/TYSA_COLOUR_21 0 
