**ABCDEFGHIJKLMNOPQRSTUVWXYZabcdefghijklmnopqrstuvwxyz**************************
**PARASOLID !"#$%&'()*+,-./:;<=>?@[\]^_`{|}~0123456789**************************
**PART1;
MC=unknown;
MC_MODEL=unknown;
MC_ID=unknown;
OS=unknown;
OS_RELEASE=unknown;
FRU=Parasolid 36.0.180;
APPL=Onshape;
SITE=unknown;
USER=unknown;
FORMAT=text;
GUISE=transmit;
KEY=BTGapi::writeModels_.xmt;
FILE=BTGapi::writeModels_.xmt;
DATE=2024-05-15T00:06:35 (UTC);
**PART2;
SCH=SCH_3600180_36001;
USFLD_SIZE=0;
**PART3;
**END_OF_HEADER*****************************************************************
T51 : TRANSMIT FILE created by modeller version 360018023 SCH_3600180_36001_1300
6231 0 12 36 CCCI7 lattice222 0 CCCI4 mesh1006 0 I8 polyline1008 0 CCCCCCCDI5 ow
ner1040 0 CCCI16 boundary_lattice222 0 CCCI13 boundary_mesh1006 0 I17 boundary_p
olyline1008 0 CCCA16 index_map_offset0 0 1 dA9 index_map82 0 A17 node_id_index_m
ap82 0 A20 schema_embedding_map82 0 A5 child12 0 A14 lowest_node_id0 0 1 dA16 me
sh_offset_data206 0 Z1 448 2 3 0 0 0 0 0 0 0 1e3 1e-8 0 4 5 1 0 1 2 6 0 7 8 9 0
 0 10 11 12 0 0 0 0 0 0 0 81 255 1 2 438 13 1 14 0 0 0 15 70 11 CI9 list_type0 0
 1 uI10 notransmit0 0 1 lCCCDCCDI12 finger_index0 0 1 dI12 finger_block1012 0 CZ
3 0 4 T1 0 0 5 20 1 16 16 13 255 6 181 0 1 0 17 0 0 18 0 51 255 7 326 0 19 20 0
 0 +-.59436 -2.154524244764805 5.37120439362673 0 -.824331600923872 -.5661072440
0796 .00254 0 .56610724400796 -.824331600923872 32 255 8 330 0 21 22 0 0 +-.5943
6 -4.30551677486348 3.894016752474625 .707106781186548 -.582890464959632 -.40029
82711168555 .707106781186548 .582890464959632 .4002982711168555 .003592102448427
66 .00254 29 255 9 269 0 12 23 0 -.5969 -.001437912399781614 6.84982994717861 19
 9 CCCCCCI5 frame230 0 CA5 owner12 0 Z10 77 0 1 18 0 24 0 V0 16 255 11 280 25 ?2
6 0 27 28 0 0 1 18 255 12 266 29 30 0 31 9 ?1 81 1 29 402 32 12 0 0 33 34 35 17
 255 30 0 36 37 38 12 39 27 0 40 +18 31 262 41 42 12 43 23 ?1 81 1 41 397 32 31
 0 0 44 45 46 17 42 0 47 48 40 31 49 50 0 51 +18 43 253 34 52 31 53 54 ?1 29 23
 265 0 31 54 9 -.5969 -4.30761057712983 3.89257884007484 29 54 255 0 43 55 23 -.
45974 -.00209380226634816 6.84629823251248 29 55 251 0 53 56 54 -.59436 -.002093
802266347835 6.84629823251248 18 53 249 33 57 43 58 55 ?1 29 56 247 0 58 59 55 -
.59436 -4.3040788624637 3.891922950208275 18 58 245 45 60 53 61 56 ?1 29 59 244
 0 61 62 56 -.45974 -4.3040788624637 3.891922950208275 18 61 242 63 64 58 65 59
 ?1 29 62 236 0 65 66 59 -.4572 -4.30761057712983 3.89257884007484 18 65 233 67
 26 61 68 62 ?1 29 66 232 0 68 69 62 -.4572 -.00143791239977953 6.84982994717861
 18 68 229 70 71 65 72 66 ?1 29 69 73 0 72 73 66 -.4572 -.02156868599670235 6.87
914317890746 18 72 71 44 74 68 75 69 ?1 29 73 68 0 75 76 69 -.4572 -4.3277413507
2675 3.921892071803695 18 75 66 77 78 72 79 73 ?1 29 76 63 0 79 80 73 -.5969 -4.
32774135072675 3.921892071803695 18 79 61 81 48 75 82 76 ?1 29 80 58 0 82 0 76 -
.5969 -.021568685996703 6.87914317890746 18 82 56 83 37 79 0 80 ?1 81 1 83 394 3
2 82 0 0 81 77 84 17 37 0 36 85 30 82 40 86 0 87 -15 255 36 169 0 38 88 0 17 85
 0 36 38 37 72 87 89 0 0 +17 40 0 47 42 90 12 37 86 0 49 +16 86 164 91 ?40 92 93
 94 0 0 1 17 87 0 95 96 74 82 85 89 0 90 -15 95 6 0 97 98 0 17 96 0 95 97 87 79
 90 99 0 0 -17 74 0 95 87 97 72 78 100 0 101 +16 89 21 102 ?85 99 103 104 0 0 1
 17 90 0 47 40 48 82 96 99 0 0 +15 47 167 0 40 105 0 17 48 0 47 90 42 79 51 93 0
 106 -16 99 26 107 ?90 100 89 108 0 0 1 81 1 107 407 32 99 0 0 102 109 110 16 10
0 36 109 ?74 93 99 111 0 0 1 30 255 108 28 0 99 104 111 0 +-.5969 -4.30156882239
7415 3.939865976800945 0 .824331600923871 .566107244007959 30 104 23 0 89 112 10
8 0 +-.5969 -.021568685996703 6.87914317890746 1 0 0 30 111 38 0 100 108 113 0 +
-.4572 -2.174655018361725 5.40051762535558 -2550362917217125e-31 .82433160092387
1 .56610724400796 30 113 177 0 92 111 114 0 +-.4572 -.02156868599670235 6.879143
17890746 0 .56610724400796 -.824331600923871 16 92 161 115 ?38 116 86 113 0 0 1
 30 114 178 0 116 113 117 0 +-.4572 -4.32774135072675 3.921892071803695 0 .56610
724400796 -.824331600923871 16 116 162 118 ?119 120 92 114 0 0 1 30 117 179 0 93
 114 94 0 +-.5969 -4.32774135072675 3.921892071803695 0 .56610724400796 -.824331
600923871 16 93 163 121 ?51 86 100 117 0 0 1 30 94 180 0 86 117 122 0 +-.5969 -.
021568685996703 6.87914317890746 0 .56610724400796 -.824331600923871 30 122 239
 0 120 94 123 0 +-.4572 -2.154524244764805 5.37120439362673 -255036291721713e-30
 .824331600923872 .566107244007959 16 120 237 124 ?125 126 116 122 0 0 1 30 123
 248 0 126 122 127 0 --.52705 -4.3040788624637 3.891922950208275 1 0 0 16 126 24
6 128 ?60 129 120 123 0 0 1 30 127 252 0 129 123 130 0 +-.59436 -540083129664905
e-30 6.84773614491226 0 .824331600923871 .56610724400796 16 129 250 131 ?57 132
 126 127 0 0 1 30 130 256 0 132 127 133 0 --.45974 -2.153086332365025 5.36911059
136038 -255036291721713e-30 .824331600923871 .56610724400796 16 132 254 134 ?135
 136 129 130 0 0 1 30 133 259 0 136 130 137 0 +-.4572 -.00209380226634802 6.8462
9823251248 1 0 0 16 136 257 138 ?52 50 132 133 0 0 1 30 137 272 0 50 133 139 0 -
-.5969 -4.30761057712983 3.89257884007484 0 .824331600923872 .566107244007959 16
 50 270 140 ?42 27 136 137 0 0 1 30 139 277 0 27 137 28 0 --.5969 -.001437912399
78165 6.84982994717861 1 0 0 16 27 275 141 ?30 11 50 139 0 0 1 30 28 282 0 11 13
9 142 0 +-.5969 -4.30761057712983 3.89257884007484 1 0 0 32 142 333 0 143 28 144
 0 --.45974 -.003531714666127785 6.84839203477883 -.707106781186548 .58289046495
9632 .4002982711168555 -.707106781186548 -.582890464959633 -.400298271116856 .00
359210244842766 .00254 16 143 317 145 ?71 146 0 142 0 0 1 32 144 332 0 146 142 2
2 0 +-.45974 -4.30551677486348 3.894016752474625 .707106781186548 .5828904649596
33 .400298271116856 .707106781186548 -.582890464959632 -.4002982711168555 .00359
2102448427665 .00254 16 146 315 147 ?64 148 143 144 0 0 1 32 22 331 0 148 144 8
 0 --.59436 -.003531714666127785 6.84839203477883 -.707106781186548 -.5828904649
59632 -.4002982711168555 -.707106781186548 .582890464959632 .4002982711168555 .0
0359210244842766 .00254 16 148 312 149 ?150 21 146 22 0 0 1 81 1 149 413 32 148
 0 0 128 145 151 17 150 0 152 39 153 12 154 148 0 0 +16 21 309 155 ?156 103 148
 8 0 0 1 81 1 155 409 32 21 0 0 109 147 157 17 156 0 158 159 160 58 161 21 0 0 +
16 103 11 162 ?97 89 21 112 0 0 1 81 1 162 405 32 103 0 0 70 102 163 17 97 0 95
 74 96 75 106 103 0 164 +30 112 13 0 103 0 104 0 +-.5969 -4.32774135072675 3.921
892071803695 1 0 0 17 106 0 165 51 164 79 97 103 0 96 -17 164 0 165 106 26 75 11
9 116 0 0 -15 165 171 0 51 17 0 17 26 0 165 164 51 65 160 11 0 119 +17 119 0 166
 125 78 65 164 116 0 167 +15 166 165 0 119 168 0 17 125 0 166 101 119 68 169 120
 0 38 +17 78 0 166 119 101 75 74 100 0 97 -17 167 0 158 160 159 65 64 146 0 169
 -15 158 299 0 156 170 0 17 160 0 158 156 167 31 26 11 0 0 -17 159 0 158 167 156
 61 60 126 0 135 -17 64 0 171 172 169 61 167 146 0 159 +17 169 0 171 64 71 65 12
5 120 0 0 -15 171 303 0 64 173 0 17 71 0 171 169 172 68 174 143 0 39 +17 172 0 1
71 71 64 43 135 132 0 174 -17 174 0 152 153 39 43 71 143 0 0 -17 39 0 152 174 15
0 68 30 27 0 125 -15 152 301 0 150 175 0 14 255 175 300 176 ?173 170 152 6 177 +
0 0 173 170 24 81 1 176 447 178 175 179 0 180 181 182 14 173 302 181 ?0 175 171
 6 183 +0 0 0 175 24 14 170 298 180 ?175 19 158 6 20 +0 0 175 19 24 51 177 328 0
 175 183 20 0 +-.52705 -.00353171466612823 6.84839203477883 -1 0 0 .00254 0 0 1
 13 24 78 0 0 0 0 0 0 10 17 14 17 172 184 ?168 0 165 6 185 -0 0 168 0 24 81 1 18
4 439 178 17 186 0 0 187 188 14 168 166 187 ?88 17 166 6 189 -0 0 88 17 24 50 25
5 185 176 0 17 190 183 0 +-.5969 -4.32774135072675 3.921892071803695 0 .82433160
0923871 .56610724400796 0 -.56610724400796 .824331600923871 50 190 175 0 88 191
 185 0 +-.5969 -.021568685996703 6.87914317890746 0 .824331600923871 .5661072440
0796 0 -.56610724400796 .824331600923871 51 183 329 0 173 185 177 0 +-.45974 -2.
154524244764805 5.37120439362673 -255036291721713e-30 .824331600923872 .56610724
400796 .00254 0 -.56610724400796 .824331600923872 14 88 170 192 ?105 168 36 6 19
0 +0 0 105 168 24 50 191 174 0 105 189 190 0 +-.5969 -4.301568822397415 3.939865
976800945 -1 0 0 0 0 1 14 105 168 193 ?98 88 47 6 191 +0 0 98 88 24 50 189 173 0
 168 194 191 0 +-.4572 -2.174655018361725 5.40051762535558 -1 -210234474648647e-
30 -1443778922285886e-31 210234474648647e-30 -1 0 50 194 152 0 195 196 189 0 +-.
52705 -2.153086332365025 5.36911059136038 0 -.56610724400796 .824331600923871 1
 0 0 14 195 105 197 ?19 98 198 6 194 -0 0 19 98 24 50 196 3 0 98 0 194 0 +-.5270
5 -2.174655018361725 5.40051762535558 0 -.56610724400796 .824331600923871 1 0 0
 14 98 1 199 ?195 105 95 6 196 +0 0 195 105 24 81 1 199 443 178 98 200 0 193 197
 201 80 7 CCCCCDI12 legal_owners0 17 1 lCZ1 178 0 202 8001 0 0 0 0 3 5 0 0 0 FFF
FTFTFFFFFFFFFF2 81 1 200 425 32 98 0 199 115 203 204 81 1 193 442 178 105 205 0
 192 199 206 81 1 197 444 178 195 207 0 199 208 209 83 255 3 201 .91764705882352
9 .917647058823529 .917647058823529 81 1 207 431 32 195 0 197 186 210 211 81 1 2
08 445 178 19 212 0 197 180 213 83 3 209 .917647058823529 .917647058823529 .9176
47058823529 14 19 296 208 ?170 195 214 6 7 +0 0 170 195 24 81 1 212 428 32 19 0
 208 179 215 216 81 1 180 446 178 170 203 0 208 176 217 83 3 213 .91764705882352
9 .917647058823529 .917647058823529 81 1 203 426 32 170 0 180 200 179 218 83 3 2
17 .917647058823529 .917647058823529 .917647058823529 80 1 32 219 220 9000 0 0 0
 0 3 6 0 0 0 FFTFTFTTFFFFFFFFF1 81 1 179 427 32 175 0 176 203 212 221 82 255 3 2
18 108 171 2 82 3 221 108 172 2 79 255 9 220 BTI/DetId81 1 215 429 32 173 0 181
 212 186 222 82 3 216 108 173 2 81 1 181 448 178 173 215 0 176 0 223 81 1 186 43
0 32 17 0 184 215 207 224 82 3 222 108 174 2 82 3 224 108 175 2 83 3 223 .917647
058823529 .917647058823529 .917647058823529 15 214 297 0 154 19 0 17 154 0 214 2
25 49 53 150 148 0 153 -17 225 0 214 161 154 58 57 129 0 156 -17 49 0 214 154 16
1 12 42 50 0 150 -17 153 0 152 150 174 53 52 136 0 0 -17 52 0 198 135 57 43 153
 136 0 172 +15 198 243 0 57 195 0 17 135 0 198 60 52 61 172 132 0 0 +17 57 0 198
 52 60 53 225 129 0 154 +17 60 0 198 57 135 58 159 126 0 225 +17 161 0 214 49 22
5 31 156 21 0 160 -81 1 210 432 32 88 0 192 207 205 226 82 3 211 108 176 2 81 1
 192 441 178 88 210 0 187 193 227 81 1 205 433 32 105 0 193 210 228 229 82 3 226
 108 177 2 81 1 228 434 32 168 0 187 205 230 231 82 3 229 108 178 2 81 1 187 440
 178 168 228 0 184 192 232 81 1 230 435 32 1 0 233 228 0 234 82 3 231 108 179 2
 81 1 233 436 235 1 230 14 0 0 236 82 3 234 108 17 3 80 1 235 237 238 8038 0 0 0
 0 0 0 0 0 0 TTTTTTTTTTTTTFTFT10 81 1 14 437 237 1 233 2 0 0 239 98 255 7 236 80
 97 114 116 32 56 51 80 1 237 240 241 8017 0 0 0 0 0 0 0 0 0 TTTTTTTTTTTTTFTFT3
 84 255 7 239 Part 8379 13 241 SDL/TYSA_NAME79 14 238 SDL/TYSA_UNAME83 3 232 .91
7647058823529 .917647058823529 .917647058823529 83 3 227 .917647058823529 .91764
7058823529 .917647058823529 83 3 206 .917647058823529 .917647058823529 .91764705
8823529 81 1 115 424 32 92 0 0 118 200 242 82 3 204 108 170 2 81 1 118 423 32 11
6 0 0 91 115 243 82 3 242 108 359 1 81 1 91 422 32 86 0 0 121 118 244 82 3 243 1
08 358 1 81 1 121 421 32 93 0 0 124 91 245 82 3 244 108 357 1 81 1 124 420 32 12
0 0 0 134 121 246 82 3 245 108 356 1 81 1 134 419 32 132 0 0 140 124 247 82 3 24
6 108 355 1 81 1 140 418 32 50 0 0 131 134 248 82 3 247 108 354 1 81 1 131 417 3
2 129 0 0 141 140 249 82 3 248 108 353 1 81 1 141 416 32 27 0 0 138 131 250 82 3
 249 108 352 1 81 1 138 415 32 136 0 0 145 141 251 82 3 250 108 351 1 81 1 145 4
14 32 143 0 0 149 138 252 82 3 251 108 350 1 82 3 252 108 349 1 79 15 202 SDL/TY
SA_COLOUR83 3 188 .917647058823529 .917647058823529 .917647058823529 51 20 327 0
 170 177 7 0 +-.5969 -4.30551677486348 3.894016752474625 1 0 0 .00254 0 0 -1 83
 3 182 .917647058823529 .917647058823529 .917647058823529 17 101 0 166 78 125 72
 38 92 0 85 -17 38 0 36 30 85 68 101 92 0 0 +17 51 0 165 26 106 31 48 93 0 161 +
81 1 70 404 32 68 0 0 34 162 253 81 1 102 406 32 89 0 0 162 107 254 82 3 163 108
 340 1 82 3 254 108 341 1 81 1 34 403 32 43 0 0 29 70 255 82 3 253 108 215 0 82
 3 255 108 214 0 81 1 109 408 32 100 0 0 107 155 256 81 1 147 410 32 146 0 0 155
 25 257 82 3 157 108 344 1 81 1 25 411 32 11 0 0 147 128 258 82 3 257 108 345 1
 81 1 128 412 32 126 0 0 25 149 259 82 3 258 108 346 1 82 3 259 108 347 1 82 3 2
56 108 343 1 82 3 151 108 348 1 82 3 110 108 342 1 81 1 81 393 32 79 0 0 0 83 26
0 81 1 77 395 32 75 0 0 83 44 261 82 3 84 108 205 0 81 1 44 396 32 72 0 0 77 41
 262 82 3 261 108 206 0 82 3 262 108 207 0 82 3 260 108 204 0 81 1 67 399 32 65
 0 0 45 63 263 81 1 45 398 32 58 0 0 41 67 264 81 1 63 400 32 61 0 0 67 33 265 8
2 3 263 108 210 0 81 1 33 401 32 53 0 0 63 29 266 82 3 265 108 211 0 82 3 266 10
8 212 0 82 3 264 108 209 0 82 3 46 108 208 0 82 3 35 108 213 0 19 18 182 0 1 0 1
0 6 0 S0 74 4 CI16 index_map_offset0 0 1 dCCZ20 16 5 0 0 230 233 14 2 181 0 0 0
 0 0 0 0 0 0 0 0 0 0 0 0 80 1 13 178 267 8040 0 0 0 0 3 5 0 0 0 TTTFFFFFFFFFFFFF
F2 83 3 15 .917647058823529 .917647058823529 .917647058823529 79 17 267 SDL/TYSA
_COLOUR_21 0 
