**ABCDEFGHIJKLMNOPQRSTUVWXYZabcdefghijklmnopqrstuvwxyz**************************
**PARASOLID !"#$%&'()*+,-./:;<=>?@[\]^_`{|}~0123456789**************************
**PART1;
MC=unknown;
MC_MODEL=unknown;
MC_ID=unknown;
OS=unknown;
OS_RELEASE=unknown;
FRU=Parasolid 36.0.180;
APPL=Onshape;
SITE=unknown;
USER=unknown;
FORMAT=text;
GUISE=transmit;
KEY=BTGapi::writeModels_.xmt;
FILE=BTGapi::writeModels_.xmt;
DATE=2024-05-15T00:06:35 (UTC);
**PART2;
SCH=SCH_3600180_36001;
USFLD_SIZE=0;
**PART3;
**END_OF_HEADER*****************************************************************
T51 : TRANSMIT FILE created by modeller version 360018023 SCH_3600180_36001_1300
6231 0 12 36 CCCI7 lattice222 0 CCCI4 mesh1006 0 I8 polyline1008 0 CCCCCCCDI5 ow
ner1040 0 CCCI16 boundary_lattice222 0 CCCI13 boundary_mesh1006 0 I17 boundary_p
olyline1008 0 CCCA16 index_map_offset0 0 1 dA9 index_map82 0 A17 node_id_index_m
ap82 0 A20 schema_embedding_map82 0 A5 child12 0 A14 lowest_node_id0 0 1 dA16 me
sh_offset_data206 0 Z1 697 2 3 0 0 0 0 0 0 0 1e3 1e-8 0 4 5 1 0 1 2 6 0 7 8 9 0
 0 10 11 12 0 0 0 0 0 0 0 81 255 1 2 691 13 1 14 0 0 0 15 70 11 CI9 list_type0 0
 1 uI10 notransmit0 0 1 lCCCDCCDI12 finger_index0 0 1 dI12 finger_block1012 0 CZ
3 0 4 T1 0 0 5 20 1 16 16 13 255 6 227 0 1 0 17 0 0 18 0 50 255 7 221 0 17 19 0
 0 +4440892098500625e-31 -.09525 6.08965 0 -1 0 0 0 -1 30 255 8 200 0 20 21 0 0
 +2220446049250315e-31 -.18415 5.8039 1 0 0 29 255 9 448 0 12 22 0 -2.1336 -.095
25 5.8039 19 9 CCCCCCI5 frame230 0 CA5 owner12 0 Z10 102 0 1 18 0 23 0 V0 16 255
 11 30 24 ?25 0 26 27 0 0 1 18 255 12 398 28 29 0 30 9 ?1 81 1 28 399 31 12 0 0
 32 33 34 17 255 29 0 35 36 37 12 38 39 0 40 +18 30 388 41 42 12 43 22 ?1 81 1 4
1 389 31 30 0 0 44 32 45 17 42 0 46 47 48 30 49 26 0 36 +18 43 384 44 50 30 51 5
2 ?1 29 22 449 0 30 52 9 -2.1336 -.09525 6.08965 29 52 450 0 43 53 22 -2.1336 -.
18415 6.08965 29 53 451 0 51 54 52 -2.1336 -.18415 5.8039 18 51 396 32 55 43 56
 53 ?1 29 54 647 0 56 57 53 2.1336 -.18415 5.8039 18 56 597 58 59 51 60 54 ?1 29
 57 648 0 60 61 54 2.1336 -.18415 6.08965 18 60 587 62 25 56 63 57 ?1 29 61 649
 0 63 64 57 2.1336 -.09525 6.08965 18 63 583 65 49 60 66 61 ?1 29 64 650 0 66 0
 61 2.1336 -.09525 5.8039 18 66 595 67 38 63 0 64 ?1 81 1 67 596 31 66 0 0 62 58
 68 17 38 0 69 70 71 66 29 39 0 72 -15 255 69 157 0 38 73 0 17 70 0 69 55 38 56
 72 74 0 0 -17 71 0 69 38 55 12 75 76 0 0 -16 39 170 77 ?29 20 78 21 0 0 1 17 72
 0 79 80 81 66 70 74 0 37 +15 79 618 0 72 82 0 17 80 0 79 83 72 63 37 84 0 48 -1
7 81 0 79 72 83 56 85 86 0 70 +16 74 567 87 ?72 84 0 88 0 0 1 17 37 0 35 29 49 6
6 80 84 0 0 +15 35 215 0 29 17 0 17 49 0 35 37 36 63 42 26 0 80 -16 84 547 89 ?3
7 90 74 91 0 0 1 81 1 89 549 31 84 0 0 33 92 93 16 90 553 92 ?48 86 84 94 0 0 1
 30 91 641 0 84 88 94 0 +2.1336 -.09525 6.08965 0 0 -1 30 88 642 0 74 0 91 0 +2.
1336 -.1397 5.8039 0 1 0 30 94 640 0 90 91 95 0 +2.1336 -.1397 6.08965 0 1 0 30
 95 639 0 86 94 96 0 +2.1336 -.18415 6.08965 0 0 -1 16 86 570 97 ?81 76 90 95 0
 0 1 30 96 443 0 76 95 98 0 +-2.1336 -.1397 5.8039 0 -1 0 16 76 368 99 ?75 100 8
6 96 0 0 1 30 98 442 0 100 96 101 0 +-2.1336 -.18415 6.08965 0 0 -1 16 100 348 1
02 ?103 104 76 98 0 0 1 30 101 441 0 104 98 105 0 +-2.1336 -.1397 6.08965 0 -1 0
 16 104 354 106 ?47 78 100 101 0 0 1 30 105 440 0 78 101 107 0 +-2.1336 -.09525
 6.08965 0 0 -1 16 78 371 108 ?40 39 104 105 0 0 1 30 107 22 0 26 105 27 0 +4440
892098500625e-31 -.09525 6.08965 -1 0 0 16 26 20 109 ?42 11 20 107 0 0 1 30 27 3
2 0 11 107 21 0 +2220446049250315e-31 -.18415 6.08965 1 0 0 30 21 201 0 39 27 8
 0 +4440892098500625e-31 -.09525 5.8039 -1 0 0 81 1 109 682 31 26 0 0 77 110 111
 16 20 162 110 ?59 26 39 8 0 0 1 81 1 110 683 31 20 0 0 109 24 112 17 59 0 113 8
5 103 56 55 20 0 81 +15 113 213 0 59 114 0 17 85 0 113 50 59 60 81 86 0 83 -17 1
03 0 113 59 50 51 115 100 0 0 +17 55 0 69 71 70 51 59 20 0 75 -17 75 0 116 115 4
0 51 71 76 0 103 +15 116 419 0 75 117 0 17 115 0 116 118 75 43 103 100 0 47 -17
 40 0 116 75 118 12 36 78 0 71 +17 118 0 116 40 115 30 47 104 0 0 -17 36 0 35 49
 29 30 40 78 0 118 -17 47 0 46 25 42 43 118 104 0 0 +15 46 6 0 25 119 0 17 25 0
 46 48 47 60 50 11 0 85 +17 48 0 46 42 25 63 83 90 0 0 +17 50 0 113 103 85 43 25
 11 0 115 -17 83 0 79 81 80 60 48 90 0 0 -14 255 119 1 120 ?73 114 46 6 121 +0 0
 73 114 23 81 1 120 694 122 119 123 0 124 125 126 14 73 144 125 ?117 119 69 6 12
7 -0 0 117 119 23 14 114 214 124 ?119 17 113 6 19 -0 0 119 17 23 50 121 3 0 119
 128 127 0 +4440892098500625e-31 0 6.08965 0 0 1 1 0 0 13 23 103 0 0 0 0 0 0 10
 17 14 17 216 129 ?114 0 35 6 7 -0 0 114 0 23 81 1 129 692 122 17 130 0 0 124 13
1 80 7 CCCCCDI12 legal_owners0 17 1 lCZ1 122 0 132 8001 0 0 0 0 3 5 0 0 0 FFFFTF
TFFFFFFFFFF2 81 1 130 687 31 17 0 129 123 133 134 81 1 124 693 122 114 133 0 129
 120 135 83 255 3 131 .615686274509804 .811764705882353 .929411764705882 81 1 13
3 688 31 114 0 124 130 0 136 83 3 135 .615686274509804 .811764705882353 .9294117
64705882 80 1 31 137 138 9000 0 0 0 0 3 6 0 0 0 FFTFTFTTFFFFFFFFF1 82 255 3 136
 177 15 2 79 255 9 138 BTI/DetId81 1 123 686 31 119 0 120 139 130 140 82 3 134 1
77 14 2 81 1 139 685 31 73 0 125 24 123 141 82 3 140 177 11 2 81 1 125 695 122 7
3 139 0 120 142 143 81 1 24 684 31 11 0 0 110 139 144 82 3 141 177 10 2 82 3 144
 177 15 1 81 1 142 696 122 117 33 0 125 145 146 83 3 143 .615686274509804 .81176
4705882353 .929411764705882 14 117 416 142 ?82 73 116 6 128 -0 0 82 73 23 81 1 3
3 418 31 117 0 142 28 89 147 81 1 145 697 122 82 148 0 142 0 149 83 3 146 .61568
6274509804 .811764705882353 .929411764705882 14 82 615 145 ?0 117 79 6 150 -0 0
 0 117 23 81 1 148 617 31 82 0 145 58 151 152 83 3 149 .615686274509804 .8117647
05882353 .929411764705882 81 1 58 598 31 56 0 0 67 148 153 81 1 151 680 31 1 0 1
54 148 77 155 82 3 152 176 23 2 81 1 154 689 156 1 151 14 0 0 157 81 1 77 681 31
 39 0 0 151 109 158 82 3 155 38 1 3 82 3 158 177 12 1 80 1 156 159 160 8038 0 0
 0 0 0 0 0 0 0 TTTTTTTTTTTTTFTFT10 81 1 14 690 159 1 154 2 0 0 161 98 255 22 157
 80 97 114 116 32 51 48 32 51 46 53 120 49 49 46 50 53 120 49 52 102 116 80 1 15
9 162 163 8017 0 0 0 0 0 0 0 0 0 TTTTTTTTTTTTTFTFT3 84 255 22 161 Part 30 3.5x11
.25x14ft79 13 163 SDL/TYSA_NAME79 14 160 SDL/TYSA_UNAME82 3 153 176 25 0 50 150
 630 0 82 0 128 0 +2.1336 -.1397 6.08965 -1 0 0 0 0 1 50 128 431 0 117 150 121 0
 +-2.1336 -.1397 6.08965 1 0 0 0 0 -1 82 3 147 174 23 2 79 15 132 SDL/TYSA_COLOU
R50 127 198 0 73 121 19 0 +4440892098500625e-31 0 5.8039 0 0 1 1 0 0 50 19 220 0
 114 127 7 0 +2220446049250315e-31 -.18415 6.08965 0 1 0 0 0 1 83 3 126 .6156862
74509804 .811764705882353 .929411764705882 82 3 112 177 14 1 82 3 111 177 13 1 8
1 1 108 373 31 78 0 0 99 44 164 81 1 99 370 31 76 0 0 106 108 165 81 1 44 385 31
 43 0 0 108 41 166 82 3 164 174 37 1 82 3 166 174 31 0 81 1 106 356 31 104 0 0 1
02 99 167 82 3 165 174 45 1 81 1 102 350 31 100 0 0 0 106 168 82 3 167 174 47 1
 82 3 168 174 39 1 81 1 97 572 31 86 0 0 87 65 169 81 1 87 569 31 74 0 0 92 97 1
70 81 1 65 584 31 63 0 0 97 62 171 82 3 169 176 37 1 81 1 62 588 31 60 0 0 65 67
 172 82 3 171 176 31 0 82 3 172 176 27 0 81 1 92 555 31 90 0 0 89 87 173 82 3 17
0 176 45 1 82 3 173 176 47 1 82 3 93 176 39 1 82 3 68 176 29 0 81 1 32 397 31 51
 0 0 41 28 174 82 3 174 174 29 0 82 3 45 174 27 0 82 3 34 174 25 0 19 18 228 0 1
 0 10 6 0 S0 74 4 CI16 index_map_offset0 0 1 dCCZ20 16 5 0 0 133 154 14 2 145 0
 0 0 0 0 0 0 0 0 0 0 0 0 0 0 80 1 13 122 175 8040 0 0 0 0 3 5 0 0 0 TTTFFFFFFFFF
FFFFF2 83 3 15 .615686274509804 .811764705882353 .929411764705882 79 17 175 SDL/
TYSA_COLOUR_21 0 
