**ABCDEFGHIJKLMNOPQRSTUVWXYZabcdefghijklmnopqrstuvwxyz**************************
**PARASOLID !"#$%&'()*+,-./:;<=>?@[\]^_`{|}~0123456789**************************
**PART1;
MC=unknown;
MC_MODEL=unknown;
MC_ID=unknown;
OS=unknown;
OS_RELEASE=unknown;
FRU=Parasolid 36.0.180;
APPL=Onshape;
SITE=unknown;
USER=unknown;
FORMAT=text;
GUISE=transmit;
KEY=BTGapi::writeModels_.xmt;
FILE=BTGapi::writeModels_.xmt;
DATE=2024-05-15T00:06:35 (UTC);
**PART2;
SCH=SCH_3600180_36001;
USFLD_SIZE=0;
**PART3;
**END_OF_HEADER*****************************************************************
T51 : TRANSMIT FILE created by modeller version 360018023 SCH_3600180_36001_1300
6231 0 12 36 CCCI7 lattice222 0 CCCI4 mesh1006 0 I8 polyline1008 0 CCCCCCCDI5 ow
ner1040 0 CCCI16 boundary_lattice222 0 CCCI13 boundary_mesh1006 0 I17 boundary_p
olyline1008 0 CCCA16 index_map_offset0 0 1 dA9 index_map82 0 A17 node_id_index_m
ap82 0 A20 schema_embedding_map82 0 A5 child12 0 A14 lowest_node_id0 0 1 dA16 me
sh_offset_data206 0 Z1 143 2 3 0 0 0 0 0 0 0 1e3 1e-8 0 4 5 1 0 1 2 6 0 7 8 9 0
 0 10 11 12 0 0 0 0 0 0 0 81 255 1 2 137 13 1 14 0 0 0 15 70 11 CI9 list_type0 0
 1 uI10 notransmit0 0 1 lCCCDCCDI12 finger_index0 0 1 dI12 finger_block1012 0 CZ
3 0 4 T1 0 0 5 20 1 16 16 13 255 6 5 0 1 0 17 0 0 18 0 50 255 7 90 0 19 20 0 0 +
-1.56845 -3.30114870909815 4.5806846383662 0 -.824331600923871 -.56610724400796
 0 .56610724400796 -.824331600923871 30 255 8 98 0 21 22 0 0 +-1.4732 -3.3011487
0909815 4.5806846383662 0 .56610724400796 -.824331600923871 29 255 9 85 0 12 23
 0 -1.4732 -3.006375534928715 4.15145352510194 19 9 CCCCCCI5 frame230 0 CA5 owne
r12 0 Z10 1 0 1 18 0 24 0 V0 16 255 11 29 25 ?26 0 27 28 0 0 1 18 255 12 53 29 3
0 0 31 9 ?1 81 1 29 112 32 12 0 0 33 34 35 17 255 30 0 36 26 37 12 38 21 0 39 +1
8 31 57 40 41 12 42 23 ?1 81 1 40 114 32 31 0 0 34 43 44 17 41 0 45 46 47 31 48
 49 0 26 +18 42 61 50 51 31 52 53 ?1 29 23 84 0 31 53 9 -1.6637 -3.0063755349287
15 4.151453525101935 29 53 83 0 42 54 23 -1.6637 -3.05872059158738 4.11550571510
743 29 54 82 0 52 55 53 -1.4732 -3.058720591587385 4.115505715107435 18 52 65 56
 57 42 58 54 ?1 29 55 81 0 58 59 54 -1.6637 -3.35349263354233 4.54473517970849 1
8 58 69 60 61 52 62 55 ?1 29 59 80 0 62 63 55 -1.4732 -3.35349263354233 4.544735
1797085 18 62 70 33 64 58 65 59 ?1 29 63 79 0 65 66 59 -1.4732 -3.30114757688366
5 4.580682989703 18 65 71 34 38 62 67 63 ?1 29 66 78 0 67 0 63 -1.6637 -3.301147
576883665 4.580682989703 18 67 72 43 48 65 0 66 ?1 81 1 43 115 32 67 0 0 40 68 6
9 17 48 0 36 37 26 67 41 49 0 47 -15 255 36 20 0 37 19 0 17 37 0 36 30 48 65 70
 71 0 0 -17 26 0 36 48 30 31 39 11 0 72 +16 49 46 73 ?41 21 74 22 0 0 1 17 47 0
 45 41 75 67 61 76 0 70 +15 45 17 0 75 77 0 17 75 0 45 47 46 58 51 74 0 0 -17 61
 0 78 79 70 58 47 76 0 80 -16 76 49 81 ?47 82 83 84 0 0 1 17 70 0 78 61 85 67 37
 71 0 0 +15 78 8 0 79 17 0 17 85 0 78 70 79 65 86 83 0 37 +16 71 52 87 ?70 88 0
 89 0 0 1 81 1 87 125 32 71 0 0 25 90 91 16 88 51 92 ?79 83 71 93 0 0 1 30 89 94
 0 71 93 94 0 +-1.56845 -3.301147576883665 4.580682989703 -1 0 0 30 93 93 0 88 9
5 89 0 +-1.56845 -3.35349263354233 4.5447351797085 1 0 0 30 94 95 0 82 89 96 0 +
-1.4732 -3.35349376575682 4.5447368283717 0 .56610724400796 -.824331600923871 16
 82 48 97 ?57 74 76 94 0 0 1 30 96 96 0 74 94 22 0 +-1.6637 -3.353493765756815 4
.5447368283717 0 .56610724400796 -.824331600923871 16 74 47 68 ?51 49 82 96 0 0
 1 30 22 97 0 49 96 8 0 +-1.6637 -3.30114870909815 4.5806846383662 0 .5661072440
0796 -.824331600923871 81 1 68 116 32 74 0 0 43 97 98 17 51 0 99 100 80 42 75 74
 0 46 +15 99 14 0 80 101 0 17 100 0 99 64 51 52 102 103 0 104 +17 80 0 99 51 64
 58 79 88 0 75 -17 46 0 45 75 41 42 72 27 0 102 -17 72 0 105 39 102 31 46 27 0 0
 +16 27 33 106 ?72 11 103 107 0 0 1 17 102 0 105 72 104 42 100 103 0 0 -15 105 2
8 0 104 108 0 17 104 0 105 102 39 52 109 110 0 0 -16 103 37 90 ?100 27 110 111 0
 0 1 81 1 90 126 32 103 0 0 87 92 112 16 110 41 113 ?109 103 21 114 0 0 1 30 111
 76 0 103 114 28 0 +-1.56845 -3.058720591587385 4.115505715107435 1 0 0 30 114 7
5 0 110 107 111 0 +-1.4732 -3.03254806325805 4.133479620104685 0 .82433160092387
1 .56610724400796 30 28 77 0 11 111 84 0 +-1.56845 -3.006375534928715 4.15145352
510194 -1 0 0 30 84 91 0 76 28 95 0 +-1.6637 -1.53151446946731 5.79597319600098
 0 .824331600923871 .56610724400796 30 95 92 0 83 84 93 0 +-1.4732 -3.3273201052
12995 4.56270908470575 0 .824331600923871 .56610724400796 16 83 50 115 ?85 76 88
 95 0 0 1 81 1 115 123 32 83 0 0 113 25 116 80 7 CCCCCDI12 legal_owners0 17 1 lC
Z1 32 117 118 9000 0 0 0 0 3 6 0 0 0 FFTFTFTTFFFFFFFFF1 81 1 113 122 32 110 0 0
 81 115 119 81 1 25 124 32 11 0 0 115 87 120 82 255 3 116 143 53 1 82 3 120 143
 68 1 81 1 81 121 32 76 0 0 106 113 121 82 3 119 143 52 1 81 1 106 120 32 27 0 0
 73 81 122 82 3 121 143 37 1 81 1 73 119 32 49 0 0 123 106 124 82 3 122 143 36 1
 81 1 123 118 32 21 0 0 97 73 125 82 3 124 143 26 1 16 21 45 123 ?30 110 49 8 0
 0 1 81 1 97 117 32 82 0 0 68 123 126 82 3 125 143 20 1 82 3 126 143 7 1 79 255
 9 118 BTI/DetId30 107 74 0 27 0 114 0 +-1.6637 -1.236742427512362 5.36674373139
991 0 .824331600923871 .56610724400796 17 109 0 127 38 57 12 104 110 0 0 +15 127
 11 0 86 128 0 17 38 0 127 86 109 65 30 21 0 85 -17 57 0 127 109 86 52 64 82 0 1
00 +17 86 0 127 57 38 62 85 83 0 79 -17 64 0 99 80 100 62 57 82 0 86 -17 79 0 78
 85 61 62 80 88 0 0 +14 255 128 9 129 ?101 17 127 6 20 -0 0 101 0 24 81 1 129 13
9 130 128 131 0 132 133 134 14 101 12 133 ?77 128 99 6 135 -0 0 77 128 24 14 17
 6 132 ?128 0 78 6 136 +0 0 0 108 24 50 20 89 0 128 137 7 0 +-1.4732 -3.32732123
7427485 4.56271073336895 -1 0 0 0 0 1 13 24 3 0 0 0 0 0 0 10 128 50 137 88 0 77
 135 20 0 +-1.6637 -1.5315156016818 5.79597484466418 -1 0 0 0 0 1 14 77 15 138 ?
19 101 45 6 137 +0 0 19 101 24 50 135 87 0 101 136 137 0 +-1.56845 -3.3534937657
5682 4.5447368283717 0 .824331600923871 .56610724400796 0 -.56610724400796 .8243
31600923871 50 136 86 0 17 139 135 0 +-1.78435 -2.153086332365025 5.369110591360
38 0 -.56610724400796 .824331600923871 1 0 0 50 139 73 0 108 0 136 0 +-.03175000
00000006 -1.924817738899915 4.89421008382051 0 .56610724400796 -.824331600923871
 1 0 0 14 108 21 140 ?0 19 105 6 139 +0 0 17 19 24 81 1 140 143 130 108 141 0 14
2 0 143 14 19 18 142 ?108 77 36 6 7 -0 0 108 77 24 81 1 142 142 130 19 144 0 138
 140 145 80 1 130 0 146 8001 0 0 0 0 3 5 0 0 0 FFFFTFTFFFFFFFFFF2 81 1 144 132 3
2 19 0 142 131 147 148 81 1 138 141 130 77 149 0 133 142 150 83 255 3 145 .23137
2549019608 .380392156862745 .705882352941177 81 1 149 128 32 77 0 138 92 141 151
 81 1 133 140 130 101 147 0 129 138 152 83 3 150 .231372549019608 .3803921568627
45 .705882352941177 81 1 147 133 32 101 0 133 144 153 154 83 3 152 .231372549019
608 .380392156862745 .705882352941177 81 1 153 134 32 1 0 155 147 0 156 82 3 154
 143 37 2 81 1 155 135 157 1 153 14 0 0 158 82 3 156 143 2 3 80 1 157 159 160 80
38 0 0 0 0 0 0 0 0 0 TTTTTTTTTTTTTFTFT10 81 1 14 136 159 1 155 2 0 0 161 98 255
 8 158 80 97 114 116 32 50 50 57 80 1 159 162 163 8017 0 0 0 0 0 0 0 0 0 TTTTTTT
TTTTTTFTFT3 84 255 8 161 Part 22979 13 163 SDL/TYSA_NAME79 14 160 SDL/TYSA_UNAME
81 1 92 127 32 88 0 0 90 149 164 81 1 141 129 32 108 0 140 149 165 166 82 3 151
 143 6 2 81 1 165 130 32 17 0 132 141 131 167 82 3 166 143 7 2 81 1 132 138 130
 17 165 0 0 129 168 81 1 131 131 32 128 0 129 165 144 169 82 3 167 143 8 2 82 3
 169 143 26 2 83 3 168 .231372549019608 .380392156862745 .705882352941177 82 3 1
64 143 75 1 82 3 148 143 34 2 79 15 146 SDL/TYSA_COLOUR83 3 143 .231372549019608
 .380392156862745 .705882352941177 83 3 134 .231372549019608 .380392156862745 .7
05882352941177 82 3 112 143 74 1 17 39 0 105 104 72 12 26 11 0 109 -82 3 98 143
 6 1 82 3 91 143 69 1 82 3 69 143 53 0 81 1 34 113 32 65 0 0 29 40 170 82 3 170
 143 41 0 81 1 33 111 32 62 0 0 56 29 171 81 1 56 110 32 52 0 0 60 33 172 82 3 1
71 143 15 0 81 1 60 109 32 58 0 0 50 56 173 82 3 172 143 14 0 81 1 50 108 32 42
 0 0 0 60 174 82 3 173 143 13 0 82 3 174 143 12 0 82 3 44 143 52 0 82 3 35 143 4
0 0 19 18 4 0 1 0 10 6 0 S0 74 4 CI16 index_map_offset0 0 1 dCCZ20 16 5 0 0 153
 155 14 2 140 0 0 0 0 0 0 0 0 0 0 0 0 0 0 0 80 1 13 130 175 8040 0 0 0 0 3 5 0 0
 0 TTTFFFFFFFFFFFFFF2 83 3 15 .231372549019608 .380392156862745 .705882352941177
 79 17 175 SDL/TYSA_COLOUR_21 0 
