**ABCDEFGHIJKLMNOPQRSTUVWXYZabcdefghijklmnopqrstuvwxyz**************************
**PARASOLID !"#$%&'()*+,-./:;<=>?@[\]^_`{|}~0123456789**************************
**PART1;
MC=unknown;
MC_MODEL=unknown;
MC_ID=unknown;
OS=unknown;
OS_RELEASE=unknown;
FRU=Parasolid 36.0.180;
APPL=Onshape;
SITE=unknown;
USER=unknown;
FORMAT=text;
GUISE=transmit;
KEY=BTGapi::writeModels_.xmt;
FILE=BTGapi::writeModels_.xmt;
DATE=2024-05-15T00:06:35 (UTC);
**PART2;
SCH=SCH_3600180_36001;
USFLD_SIZE=0;
**PART3;
**END_OF_HEADER*****************************************************************
T51 : TRANSMIT FILE created by modeller version 360018023 SCH_3600180_36001_1300
6231 0 12 36 CCCI7 lattice222 0 CCCI4 mesh1006 0 I8 polyline1008 0 CCCCCCCDI5 ow
ner1040 0 CCCI16 boundary_lattice222 0 CCCI13 boundary_mesh1006 0 I17 boundary_p
olyline1008 0 CCCA16 index_map_offset0 0 1 dA9 index_map82 0 A17 node_id_index_m
ap82 0 A20 schema_embedding_map82 0 A5 child12 0 A14 lowest_node_id0 0 1 dA16 me
sh_offset_data206 0 Z1 1088 2 3 0 0 0 0 0 0 0 1e3 1e-8 0 4 5 1 0 1 2 6 0 7 8 9 0
 0 10 11 12 0 0 0 0 0 0 0 81 255 1 2 1059 13 1 14 0 0 0 15 70 11 CI9 list_type0
 0 1 uI10 notransmit0 0 1 lCCCDCCDI12 finger_index0 0 1 dI12 finger_block1012 0
 CZ3 0 4 T1 0 0 6 20 1 16 16 13 255 6 808 0 1 0 17 0 0 18 0 67 255 7 780 0 19 20
 0 0 +21 -1 0 0 ?30 255 8 807 0 22 23 0 0 +5.0466220607938 -.547821742547739 .20
0247360597532 -1 0 0 29 255 9 646 0 24 25 0 4.9958220607938 -.499124907434335 .1
25333715349993 19 9 CCCCCCI5 frame230 0 CA5 owner12 0 Z10 1 0 1 18 0 26 0 V0 16
 255 11 692 27 ?28 0 29 30 0 0 1 18 255 12 117 31 32 0 33 34 ?1 81 1 31 893 35 1
2 0 0 36 37 38 17 255 32 0 39 40 41 12 42 43 0 44 -18 33 120 45 46 12 47 48 ?1 2
9 34 251 0 12 48 49 5.0466220607938 -.499124907434335 .125333715349993 29 48 250
 0 33 50 34 5.0466220607938 -.45345308887487 .125333715349993 29 49 672 0 51 34
 52 4.9958220607938 -.547821742547739 .200247360597532 18 51 614 53 54 55 0 49 ?
1 29 52 671 0 55 49 56 4.9958220607938 -.515021072855032 .28844735306237 18 55 6
10 57 58 59 51 52 ?1 29 56 670 0 59 52 60 4.9958220607938 -.515021072855032 .325
103436010097 18 59 606 61 62 63 55 56 ?1 29 60 669 0 63 56 64 4.9958220607938 -.
576589056835195 .3226122459068535 18 63 602 65 66 67 59 60 ?1 29 64 668 0 67 60
 68 4.9958220607938 -.68240532217297 .2997763366271205 18 67 598 69 70 71 63 64
 ?1 29 68 667 0 71 64 72 4.9958220607938 -.714790793515136 .236962757595336 18 7
1 594 73 74 75 67 68 ?1 29 72 666 0 75 68 76 4.9958220607938 -.694624016488879 .
1861306166791515 18 75 590 77 78 79 71 72 ?1 29 76 665 0 79 72 80 4.995822060793
8 -.638157040815358 .168751600006524 18 79 586 81 28 82 75 76 ?1 29 80 664 0 82
 76 83 4.9958220607938 -.511343601750244 .1832242282253675 18 82 582 37 84 85 79
 80 ?1 29 83 663 0 85 80 86 4.9958220607938 -.514309304254106 .1832242282253675
 18 85 578 87 88 89 82 83 ?1 29 86 662 0 89 83 90 4.9958220607938 -.574868949382
955 .1314430625079474 18 89 574 91 92 93 85 86 ?1 29 90 661 0 93 86 94 4.9958220
607938 -.650375735131267 .1178601450402622 18 93 570 95 96 97 89 90 ?1 29 94 660
 0 97 90 98 4.9958220607938 -.745040959054523 .1490593353808842 18 97 566 99 100
 101 93 94 ?1 29 98 659 0 101 94 102 4.9958220607938 -.77932447999916 .237674526
196263 18 101 562 103 104 105 97 98 ?1 29 102 658 0 105 98 106 4.9958220607938 -
.582520461842918 .3666232710641565 18 105 558 107 108 109 101 102 ?1 29 106 657
 0 109 102 110 4.9958220607938 -.513597535653179 .368877204967091 18 109 554 111
 112 113 105 106 ?1 29 110 656 0 113 106 114 4.9958220607938 -.513597535653179 .
3941449902999905 18 113 550 115 116 117 109 110 ?1 29 114 655 0 117 110 118 4.99
58220607938 -.5341201969799 .464728709891892 18 117 546 119 120 121 113 114 ?1 2
9 118 654 0 121 114 122 4.9958220607938 -.599958792565623 .487505305121547 18 12
1 542 123 124 125 117 118 ?1 29 122 653 0 125 118 126 4.9958220607938 -.71479079
3515136 .45642474288108 18 125 538 127 128 129 121 122 ?1 29 126 652 0 129 122 1
30 4.9958220607938 -.733771289539849 .503520098642399 18 129 534 131 132 133 125
 126 ?1 29 130 651 0 133 126 134 4.9958220607938 -.667992008004203 .529025140175
607 18 133 530 135 136 137 129 130 ?1 29 134 650 0 137 130 138 4.9958220607938 -
.59616269336068 .538278131987655 18 137 526 139 140 141 133 134 ?1 29 138 649 0
 141 134 142 4.9958220607938 -.488507692470511 .50607060279572 18 141 522 143 14
4 145 137 138 ?1 29 142 648 0 145 138 25 4.9958220607938 -.45345308887487 .40268
6213511111 18 145 518 146 147 148 141 142 ?1 29 25 647 0 148 142 9 4.99582206079
38 -.45345308887487 .125333715349993 18 148 514 149 150 24 145 25 ?1 81 1 149 92
8 35 148 0 0 151 45 152 17 150 0 153 154 155 148 46 156 0 157 +18 24 510 36 42 1
58 148 9 ?1 81 1 36 892 35 24 0 0 0 31 159 17 42 0 160 157 44 24 32 43 0 161 +18
 158 195 162 163 164 24 165 ?1 81 1 162 933 35 158 0 0 53 57 166 17 163 0 167 16
8 169 158 54 22 0 170 -18 164 192 171 172 173 158 174 ?1 29 165 225 0 158 0 174
 5.0466220607938 -.547821742547739 .200247360597532 29 174 226 0 164 165 175 5.0
466220607938 -.515021072855032 .28844735306237 29 175 227 0 173 174 176 5.046622
0607938 -.515021072855032 .325103436010097 18 173 189 177 178 179 164 175 ?1 29
 176 228 0 179 175 180 5.0466220607938 -.576589056835195 .3226122459068535 18 17
9 186 181 182 183 173 176 ?1 29 180 229 0 183 176 184 5.0466220607938 -.68240532
217297 .2997763366271205 18 183 183 185 186 187 179 180 ?1 29 184 230 0 187 180
 188 5.0466220607938 -.714790793515136 .236962757595336 18 187 180 189 190 191 1
83 184 ?1 29 188 231 0 191 184 192 5.0466220607938 -.694624016488879 .1861306166
791515 18 191 177 193 194 195 187 188 ?1 29 192 232 0 195 188 196 5.046622060793
8 -.638157040815358 .168751600006524 18 195 174 197 198 199 191 192 ?1 29 196 23
3 0 199 192 200 5.0466220607938 -.511343601750244 .1832242282253675 18 199 171 2
01 202 203 195 196 ?1 29 200 234 0 203 196 204 5.0466220607938 -.514309304254106
 .1832242282253675 18 203 168 205 206 207 199 200 ?1 29 204 235 0 207 200 208 5.
0466220607938 -.574868949382955 .1314430625079474 18 207 165 209 210 211 203 204
 ?1 29 208 236 0 211 204 212 5.0466220607938 -.650375735131267 .1178601450402622
 18 211 162 213 214 215 207 208 ?1 29 212 237 0 215 208 216 5.0466220607938 -.74
5040959054523 .1490593353808842 18 215 159 217 218 219 211 212 ?1 29 216 238 0 2
19 212 220 5.0466220607938 -.77932447999916 .237674526196263 18 219 156 221 222
 223 215 216 ?1 29 220 239 0 223 216 224 5.0466220607938 -.582520461842918 .3666
232710641565 18 223 153 225 226 227 219 220 ?1 29 224 240 0 227 220 228 5.046622
0607938 -.513597535653179 .368877204967091 18 227 150 229 230 231 223 224 ?1 29
 228 241 0 231 224 232 5.0466220607938 -.513597535653179 .3941449902999905 18 23
1 147 233 234 235 227 228 ?1 29 232 242 0 235 228 236 5.0466220607938 -.53412019
69799 .464728709891892 18 235 144 237 238 239 231 232 ?1 29 236 243 0 239 232 24
0 5.0466220607938 -.599958792565623 .487505305121547 18 239 141 241 242 243 235
 236 ?1 29 240 244 0 243 236 244 5.0466220607938 -.714790793515136 .456424742881
08 18 243 138 245 246 247 239 240 ?1 29 244 245 0 247 240 248 5.0466220607938 -.
733771289539849 .503520098642399 18 247 135 249 250 251 243 244 ?1 29 248 246 0
 251 244 252 5.0466220607938 -.667992008004203 .529025140175607 18 251 132 253 2
54 255 247 248 ?1 29 252 247 0 255 248 256 5.0466220607938 -.59616269336068 .538
278131987655 18 255 129 257 258 259 251 252 ?1 29 256 248 0 259 252 50 5.0466220
607938 -.488507692470511 .50607060279572 18 259 126 260 261 47 255 256 ?1 29 50
 249 0 47 256 48 5.0466220607938 -.45345308887487 .402686213511111 18 47 123 151
 262 33 259 50 ?1 81 1 151 927 35 47 0 0 146 149 263 17 262 0 153 155 154 47 147
 264 0 265 -15 255 153 704 0 154 266 0 17 155 0 153 150 262 33 265 267 0 0 +17 1
54 0 153 262 150 145 268 269 0 270 -17 147 0 271 272 273 145 262 264 0 154 +16 2
64 675 274 ?147 156 275 276 0 0 1 17 265 0 277 278 279 47 155 267 0 273 -15 277
 7 0 280 281 282 17 278 0 277 283 265 259 273 284 0 285 -17 279 0 277 265 280 33
 44 286 0 155 -16 267 17 287 ?155 286 284 288 0 0 1 17 273 0 271 147 261 47 278
 284 0 0 +15 271 706 0 272 289 0 17 261 0 271 273 272 259 144 275 0 278 -16 284
 21 290 ?273 267 291 292 0 0 1 81 1 290 1006 35 284 293 0 294 295 296 16 291 25
 297 ?285 284 298 299 0 0 1 134 255 292 221 0 284 299 288 300 +301 302 134 299 2
20 0 291 303 292 304 +305 306 30 288 222 0 267 292 307 0 +5.0466220607938 -.4534
5308887487 .264009964430552 0 0 -1 141 255 300 308 300 300 292 136 255 301 2 3 3
 2 5 FFF2 309 310 311 135 255 302 2 0 45 255 9 309 5.0466220607938 -.48850769247
0511 .50607060279572 5.0466220607938 -.45345308887487 .473863073603785 5.0466220
607938 -.45345308887487 .402686213511111 127 255 4 310 3 3 0 0 128 255 4 311 0 1
 ??67 308 757 0 289 312 313 0 +292 -1 0 0 ?14 255 289 707 314 ?315 266 271 6 308
 +0 0 315 266 26 50 255 312 756 0 266 316 308 0 +5.0466220607938 -.4534530888748
7 .264009964430552 0 1 0 0 0 1 67 313 758 0 315 308 317 0 +299 -1 0 0 ?14 315 70
9 318 ?319 289 320 6 313 +0 0 319 289 26 67 317 759 0 319 313 321 0 +303 -1 0 0
 ?14 319 711 322 ?323 315 324 6 317 +0 0 323 315 26 67 321 760 0 323 317 325 0 +
326 -1 0 0 ?134 303 219 0 298 326 299 327 +328 329 16 298 29 330 ?331 291 332 30
3 0 0 1 134 326 218 0 332 333 303 334 +335 336 141 327 317 327 327 303 136 328 2
 3 3 2 5 FFF2 337 338 339 135 329 2 0 45 9 337 5.0466220607938 -.667992008004203
 .529025140175607 5.0466220607938 -.632225635807635 .538278131987655 5.046622060
7938 -.59616269336068 .538278131987655 127 4 338 3 3 0 0 128 4 339 0 1 ??16 332
 33 340 ?341 298 342 326 0 0 1 30 333 217 0 342 343 326 0 +5.0466220607938 -.724
281041527493 .479972420761739 0 -.373806269003018 .927506804963739 141 334 321 3
34 334 326 136 335 2 3 3 2 5 FFF2 344 345 346 135 336 2 0 45 9 344 5.04662206079
38 -.733771289539849 .503520098642399 5.0466220607938 -.703758380200772 .5197721
48363559 5.0466220607938 -.667992008004203 .529025140175607 127 4 345 3 3 0 0 12
8 4 346 0 1 ??16 342 37 347 ?348 332 349 333 0 0 1 134 343 216 0 349 350 333 351
 +352 353 16 349 41 354 ?355 342 356 343 0 0 1 134 350 215 0 356 357 343 358 +35
9 360 141 351 361 351 351 343 136 352 2 3 3 2 5 FFF2 362 363 364 135 353 2 0 45
 9 362 5.0466220607938 -.599958792565623 .487505305121547 5.0466220607938 -.6507
3161943173 .487505305121547 5.0466220607938 -.714790793515136 .45642474288108 12
7 4 363 3 3 0 0 128 4 364 0 1 ??67 361 762 0 365 325 366 0 +343 -1 0 0 ?14 365 7
17 367 ?368 369 370 6 361 +0 0 368 369 26 50 325 761 0 369 321 361 0 +5.04662206
07938 -.724281041527493 .479972420761739 0 -.927506804963739 -.373806269003018 0
 .373806269003018 -.927506804963739 67 366 763 0 368 361 371 0 +350 -1 0 0 ?14 3
68 719 372 ?373 365 374 6 366 +0 0 373 365 26 67 371 764 0 373 366 375 0 +357 -1
 0 0 ?14 373 721 376 ?377 368 378 6 371 +0 0 377 368 26 50 375 765 0 377 371 379
 0 +5.0466220607938 -.513597535653179 .381511097633541 0 -1 0 0 0 -1 134 357 214
 0 380 381 350 382 +383 384 16 380 49 385 ?386 356 387 357 0 0 1 30 381 213 0 38
7 388 357 0 +5.0466220607938 -.513597535653179 .381511097633541 0 0 1 141 382 37
1 382 382 357 136 383 2 3 3 2 5 FFF2 389 390 391 135 384 2 0 45 9 389 5.04662206
07938 -.513597535653179 .3941449902999905 5.0466220607938 -.513597535653179 .441
952114662236 5.0466220607938 -.5341201969799 .464728709891892 127 4 390 3 3 0 0
 128 4 391 0 1 ??16 387 53 392 ?393 380 394 381 0 0 1 30 388 212 0 394 395 381 0
 +5.0466220607938 -.548058998748048 .367750238015624 0 .99946571033396 .03268476
505395115 16 394 57 396 ?397 387 398 388 0 0 1 134 395 211 0 398 399 388 400 +40
1 402 16 398 61 403 ?404 394 405 395 0 0 1 134 399 210 0 405 406 395 407 +408 40
9 141 400 410 400 400 395 136 401 2 3 3 2 5 FFF2 411 412 413 135 402 2 0 45 9 41
1 5.0466220607938 -.77932447999916 .237674526196263 5.0466220607938 -.7793244799
9916 .360691866056434 5.0466220607938 -.582520461842918 .3666232710641565 127 4
 412 3 3 0 0 128 4 413 0 1 ??67 410 767 0 414 379 415 0 +395 -1 0 0 ?14 414 727
 416 ?417 418 419 6 410 +0 0 417 418 26 50 379 766 0 418 375 410 0 +5.0466220607
938 -.548058998748048 .367750238015624 0 -.03268476505395115 .99946571033396 0 -
.99946571033396 -.03268476505395115 67 415 768 0 417 410 420 0 +399 -1 0 0 ?14 4
17 729 421 ?422 414 423 6 415 +0 0 422 414 26 67 420 769 0 422 415 424 0 +406 -1
 0 0 ?14 422 731 425 ?426 417 427 6 420 +0 0 426 417 26 67 424 770 0 426 420 428
 0 +429 -1 0 0 ?134 406 209 0 430 429 399 431 +432 433 16 430 69 434 ?435 405 43
6 406 0 0 1 134 429 208 0 436 437 406 438 +439 440 141 431 420 431 431 406 136 4
32 2 3 3 2 5 FFF2 441 442 443 135 433 2 0 45 9 441 5.0466220607938 -.65037573513
1267 .1178601450402622 5.0466220607938 -.710757438109885 .1178601450402622 5.046
6220607938 -.745040959054523 .1490593353808842 127 4 442 3 3 0 0 128 4 443 0 1 ?
?16 436 73 444 ?445 430 446 429 0 0 1 134 437 207 0 446 447 429 448 +449 450 141
 438 424 438 438 429 136 439 2 3 3 2 5 FFF2 451 452 453 135 440 2 0 45 9 451 5.0
466220607938 -.574868949382955 .1314430625079474 5.0466220607938 -.6050598008722
64 .1178601450402622 5.0466220607938 -.650375735131267 .1178601450402622 127 4 4
52 3 3 0 0 128 4 453 0 1 ??16 446 77 454 ?455 436 456 437 0 0 1 30 447 206 0 456
 457 437 0 +5.0466220607938 -.512826453002175 .1832242282253675 0 -1 0 141 448 4
28 448 448 437 136 449 2 3 3 2 5 FFF2 458 459 460 135 450 2 0 45 9 458 5.0466220
607938 -.514309304254106 .1832242282253675 5.0466220607938 -.544678097893646 .14
50259799756326 5.0466220607938 -.574868949382955 .1314430625079474 127 4 459 3 3
 0 0 128 4 460 0 1 ??67 428 771 0 461 424 462 0 +437 -1 0 0 ?14 461 735 463 ?464
 426 465 6 428 +0 0 464 426 26 50 462 772 0 464 428 466 0 +5.0466220607938 -.512
826453002175 .1832242282253675 0 0 -1 -1 0 0 14 464 737 467 ?19 461 468 6 462 +0
 0 19 461 26 67 466 773 0 17 462 469 0 +457 -1 0 0 ?14 17 739 470 ?471 0 472 6 4
66 +0 0 471 0 26 67 469 774 0 471 466 473 0 +474 -1 0 0 ?134 457 205 0 475 474 4
47 476 +477 478 16 475 85 479 ?480 456 481 457 0 0 1 134 474 204 0 481 482 457 4
83 +484 485 141 476 466 476 476 457 136 477 2 3 3 2 5 FFF2 486 487 488 135 478 2
 0 45 9 486 5.0466220607938 -.638157040815358 .168751600006524 5.0466220607938 -
.580622412240446 .168751600006524 5.0466220607938 -.547821742547739 .20024736059
7532 127 4 487 3 3 0 0 128 4 488 0 1 ??16 481 89 489 ?490 475 491 474 0 0 1 134
 482 203 0 491 492 474 493 +494 495 141 483 469 483 483 474 136 484 2 3 3 2 5 FF
F2 496 497 498 135 485 2 0 45 9 496 5.0466220607938 -.694624016488879 .186130616
6791515 5.0466220607938 -.674457239462621 .168751600006524 5.0466220607938 -.638
157040815358 .168751600006524 127 4 497 3 3 0 0 128 4 498 0 1 ??16 491 93 499 ?5
00 481 501 482 0 0 1 134 492 202 0 501 502 482 503 +504 505 141 493 473 493 493
 482 136 494 2 3 3 2 5 FFF2 506 507 508 135 495 2 0 45 9 506 5.0466220607938 -.7
14790793515136 .236962757595336 5.0466220607938 -.714790793515136 .2035096333517
795 5.0466220607938 -.694624016488879 .1861306166791515 127 4 507 3 3 0 0 128 4
 508 0 1 ??67 473 775 0 509 469 510 0 +482 -1 0 0 ?14 509 743 511 ?512 471 513 6
 473 +0 0 512 471 26 67 510 776 0 512 473 514 0 +492 -1 0 0 ?14 512 745 515 ?516
 509 517 6 510 +0 0 516 509 26 67 514 777 0 516 510 518 0 +502 -1 0 0 ?14 516 74
7 519 ?520 512 521 6 514 +0 0 520 512 26 50 518 778 0 520 514 20 0 +5.0466220607
938 -.545805064845114 .323857840958475 0 .04042934565542875 -.999182399769869 0
 .999182399769869 .04042934565542875 134 502 201 0 522 523 492 524 +525 526 16 5
22 101 527 ?528 501 529 502 0 0 1 30 523 200 0 529 530 502 0 +5.0466220607938 -.
545805064845114 .323857840958475 0 -.999182399769869 -.04042934565542875 141 524
 514 524 524 502 136 525 2 3 3 2 5 FFF2 531 532 533 135 526 2 0 45 9 531 5.04662
20607938 -.576589056835195 .3226122459068535 5.0466220607938 -.650019850830803 .
3200024277034555 5.0466220607938 -.68240532217297 .2997763366271205 127 4 532 3
 3 0 0 128 4 533 0 1 ??16 529 105 534 ?535 522 536 523 0 0 1 30 530 199 0 536 21
 523 0 +5.0466220607938 -.515021072855032 .3067753945362335 0 0 1 16 536 109 537
 ?538 529 539 530 0 0 1 134 21 198 0 539 0 530 540 +541 542 16 539 113 543 ?168
 536 544 21 0 0 1 141 540 7 540 540 21 136 541 2 3 3 2 5 FFF2 545 546 547 135 54
2 2 0 45 9 545 5.0466220607938 -.547821742547739 .200247360597532 5.046622060793
8 -.515021072855032 .23174312118854 5.0466220607938 -.515021072855032 .288447353
06237 127 4 546 3 3 0 0 128 4 547 0 1 ??81 1 543 1014 35 539 548 0 549 550 551 1
7 168 0 167 58 163 164 170 539 0 0 +16 544 375 552 ?553 539 554 555 0 0 1 81 1 5
52 973 35 544 556 0 557 558 559 17 553 0 560 561 161 82 41 544 0 0 +16 554 380 5
62 ?161 544 269 563 0 0 1 30 555 619 0 544 563 564 0 +4.9958220607938 -.50523425
459229 .15427897178768 0 -.2065156940152245 .978443288149809 30 563 620 0 554 56
5 555 0 +4.9958220607938 -.476288998154602 .125333715349993 0 -1 0 30 564 781 0
 43 555 566 0 +5.0466220607938 -.499124907434335 .125333715349993 -1 0 0 16 43 6
73 567 ?42 22 156 564 0 0 1 30 566 782 0 156 564 276 0 +5.0466220607938 -.453453
08887487 .125333715349993 -1 0 0 16 156 674 568 ?150 43 264 566 0 0 1 30 276 783
 0 264 566 569 0 +5.0466220607938 -.45345308887487 .402686213511111 -1 0 0 30 56
9 784 0 275 276 570 0 +5.0466220607938 -.488507692470511 .50607060279572 -1 0 0
 16 275 676 571 ?144 264 572 569 0 0 1 30 570 785 0 572 569 573 0 +5.04662206079
38 -.59616269336068 .538278131987655 -1 0 0 16 572 677 574 ?140 275 575 570 0 0
 1 30 573 786 0 575 570 576 0 +5.0466220607938 -.667992008004203 .52902514017560
7 -1 0 0 16 575 678 577 ?136 572 578 573 0 0 1 30 576 787 0 578 573 579 0 +5.046
6220607938 -.733771289539849 .503520098642399 -1 0 0 16 578 679 580 ?132 575 581
 576 0 0 1 30 579 788 0 581 576 582 0 +5.0466220607938 -.714790793515136 .456424
74288108 -1 0 0 16 581 680 583 ?128 578 584 579 0 0 1 30 582 789 0 584 579 585 0
 +5.0466220607938 -.599958792565623 .487505305121547 -1 0 0 16 584 681 586 ?124
 581 587 582 0 0 1 30 585 790 0 587 582 588 0 +5.0466220607938 -.5341201969799 .
464728709891892 -1 0 0 16 587 682 589 ?120 584 590 585 0 0 1 30 588 791 0 590 58
5 591 0 +5.0466220607938 -.513597535653179 .3941449902999905 -1 0 0 16 590 683 5
92 ?116 587 593 588 0 0 1 30 591 792 0 593 588 594 0 +5.0466220607938 -.51359753
5653179 .368877204967091 -1 0 0 16 593 684 595 ?112 590 596 591 0 0 1 30 594 793
 0 596 591 597 0 +5.0466220607938 -.582520461842918 .3666232710641565 -1 0 0 16
 596 685 598 ?108 593 599 594 0 0 1 30 597 794 0 599 594 600 0 +5.0466220607938
 -.77932447999916 .237674526196263 -1 0 0 16 599 686 601 ?104 596 602 597 0 0 1
 30 600 795 0 602 597 603 0 +5.0466220607938 -.745040959054523 .1490593353808842
 -1 0 0 16 602 687 604 ?100 599 605 600 0 0 1 30 603 796 0 605 600 606 0 +5.0466
220607938 -.650375735131267 .1178601450402622 -1 0 0 16 605 688 607 ?96 602 608
 603 0 0 1 30 606 797 0 608 603 609 0 +5.0466220607938 -.574868949382955 .131443
0625079474 -1 0 0 16 608 689 610 ?92 605 611 606 0 0 1 30 609 798 0 611 606 612
 0 +5.0466220607938 -.514309304254106 .1832242282253675 -1 0 0 16 611 690 613 ?8
8 608 614 609 0 0 1 30 612 799 0 614 609 30 0 +5.0466220607938 -.511343601750244
 .1832242282253675 -1 0 0 16 614 691 615 ?84 611 616 612 0 0 1 30 30 800 0 11 61
2 617 0 +5.0466220607938 -.638157040815358 .168751600006524 -1 0 0 30 617 801 0
 29 30 618 0 +5.0466220607938 -.694624016488879 .1861306166791515 -1 0 0 16 29 6
93 557 ?78 11 619 617 0 0 1 30 618 802 0 619 617 620 0 +5.0466220607938 -.714790
793515136 .236962757595336 -1 0 0 16 619 694 621 ?74 29 622 618 0 0 1 30 620 803
 0 622 618 623 0 +5.0466220607938 -.68240532217297 .2997763366271205 -1 0 0 16 6
22 695 624 ?70 619 625 620 0 0 1 30 623 804 0 625 620 626 0 +5.0466220607938 -.5
76589056835195 .3226122459068535 -1 0 0 16 625 696 627 ?66 622 628 623 0 0 1 30
 626 805 0 628 623 23 0 +5.0466220607938 -.515021072855032 .325103436010097 -1 0
 0 16 628 697 629 ?62 625 630 626 0 0 1 30 23 806 0 630 626 8 0 +5.0466220607938
 -.515021072855032 .28844735306237 -1 0 0 16 630 698 631 ?58 628 22 23 0 0 1 81
 1 631 967 35 630 0 0 632 629 633 17 58 0 167 169 168 55 172 630 0 634 +16 22 69
9 632 ?54 630 43 8 0 0 1 81 1 632 966 35 22 0 0 27 631 635 17 54 0 472 636 480 5
1 163 22 0 169 +15 472 738 0 636 17 0 17 636 0 472 198 54 79 637 638 0 0 -17 480
 0 472 54 198 158 639 475 0 0 +17 169 0 167 163 58 51 640 641 0 637 -15 167 752
 0 169 19 0 17 640 0 642 643 637 55 169 641 0 0 +16 641 505 549 ?640 644 0 645 0
 0 1 17 637 0 642 640 646 51 636 638 0 0 +15 642 374 0 637 647 0 17 646 0 642 63
7 648 79 649 650 0 636 +16 638 470 651 ?637 652 650 653 0 0 1 81 1 651 1011 35 6
38 654 0 655 479 656 16 652 465 657 ?561 658 638 659 0 0 1 16 650 475 660 ?646 6
38 661 662 0 0 1 134 653 638 0 638 662 659 0 +663 664 134 662 639 0 650 665 653
 0 +666 667 30 659 637 0 652 653 668 0 +4.9958220607938 -.512826453002175 .18322
42282253675 0 -1 0 136 663 2 3 3 2 5 FFF2 669 670 671 135 664 2 0 45 9 669 4.995
8220607938 -.638157040815358 .168751600006524 4.9958220607938 -.580622412240446
 .168751600006524 4.9958220607938 -.547821742547739 .200247360597532 127 4 670 3
 3 0 0 128 4 671 0 1 ??134 668 636 0 658 659 672 0 +673 674 16 658 460 675 ?676
 677 652 668 0 0 1 134 672 635 0 677 668 678 0 +679 680 136 673 2 3 3 2 5 FFF2 6
81 682 683 135 674 2 0 45 9 681 4.9958220607938 -.514309304254106 .1832242282253
675 4.9958220607938 -.544678097893646 .1450259799756326 4.9958220607938 -.574868
949382955 .1314430625079474 127 4 682 3 3 0 0 128 4 683 0 1 ??16 677 455 684 ?68
5 686 658 672 0 0 1 134 678 634 0 686 672 687 0 +688 689 136 679 2 3 3 2 5 FFF2
 690 691 692 135 680 2 0 45 9 690 4.9958220607938 -.574868949382955 .13144306250
79474 4.9958220607938 -.605059800872264 .1178601450402622 4.9958220607938 -.6503
75735131267 .1178601450402622 127 4 691 3 3 0 0 128 4 692 0 1 ??16 686 450 693 ?
694 695 677 678 0 0 1 134 687 633 0 695 678 696 0 +697 698 136 688 2 3 3 2 5 FFF
2 699 700 701 135 689 2 0 45 9 699 4.9958220607938 -.650375735131267 .1178601450
402622 4.9958220607938 -.710757438109885 .1178601450402622 4.9958220607938 -.745
040959054523 .1490593353808842 127 4 700 3 3 0 0 128 4 701 0 1 ??16 695 445 702
 ?703 704 686 687 0 0 1 134 696 632 0 704 687 705 0 +706 707 136 697 2 3 3 2 5 F
FF2 708 709 710 135 698 2 0 45 9 708 4.9958220607938 -.745040959054523 .14905933
53808842 4.9958220607938 -.77932447999916 .180258525721506 4.9958220607938 -.779
32447999916 .237674526196263 127 4 709 3 3 0 0 128 4 710 0 1 ??16 704 440 711 ?7
12 713 695 696 0 0 1 30 705 631 0 713 696 714 0 +4.9958220607938 -.5480589987480
48 .367750238015624 0 .99946571033396 .03268476505395115 136 706 2 3 3 2 5 FFF2
 715 716 717 135 707 2 0 45 9 715 4.9958220607938 -.77932447999916 .237674526196
263 4.9958220607938 -.77932447999916 .360691866056434 4.9958220607938 -.58252046
1842918 .3666232710641565 127 4 716 3 3 0 0 128 4 717 0 1 ??16 713 435 718 ?719
 720 704 705 0 0 1 30 714 630 0 720 705 721 0 +4.9958220607938 -.513597535653179
 .381511097633541 0 0 1 16 720 430 722 ?723 724 713 714 0 0 1 134 721 629 0 724
 714 725 0 +726 727 16 724 425 728 ?729 730 720 721 0 0 1 134 725 628 0 730 721
 731 0 +732 733 136 726 2 3 3 2 5 FFF2 734 735 736 135 727 2 0 45 9 734 4.995822
0607938 -.513597535653179 .3941449902999905 4.9958220607938 -.513597535653179 .4
41952114662236 4.9958220607938 -.5341201969799 .464728709891892 127 4 735 3 3 0
 0 128 4 736 0 1 ??16 730 420 737 ?738 739 724 725 0 0 1 134 731 627 0 739 725 7
40 0 +741 742 136 732 2 3 3 2 5 FFF2 743 744 745 135 733 2 0 45 9 743 4.99582206
07938 -.5341201969799 .464728709891892 4.9958220607938 -.554642858306621 .487505
305121547 4.9958220607938 -.599958792565623 .487505305121547 127 4 744 3 3 0 0 1
28 4 745 0 1 ??16 739 415 746 ?747 748 730 731 0 0 1 30 740 626 0 748 731 749 0
 +4.9958220607938 -.724281041527493 .479972420761739 0 -.373806269003018 .927506
804963739 136 741 2 3 3 2 5 FFF2 750 751 752 135 742 2 0 45 9 750 4.995822060793
8 -.599958792565623 .487505305121547 4.9958220607938 -.65073161943173 .487505305
121547 4.9958220607938 -.714790793515136 .45642474288108 127 4 751 3 3 0 0 128 4
 752 0 1 ??16 748 410 753 ?754 755 739 740 0 0 1 134 749 625 0 755 740 756 0 +75
7 758 16 755 405 759 ?760 761 748 749 0 0 1 134 756 624 0 761 749 762 0 +763 764
 136 757 2 3 3 2 5 FFF2 765 766 767 135 758 2 0 45 9 765 4.9958220607938 -.73377
1289539849 .503520098642399 4.9958220607938 -.703758380200772 .519772148363559 4
.9958220607938 -.667992008004203 .529025140175607 127 4 766 3 3 0 0 128 4 767 0
 1 ??16 761 400 768 ?769 770 755 756 0 0 1 134 762 623 0 770 756 771 0 +772 773
 136 763 2 3 3 2 5 FFF2 774 775 776 135 764 2 0 45 9 774 4.9958220607938 -.66799
2008004203 .529025140175607 4.9958220607938 -.632225635807635 .538278131987655 4
.9958220607938 -.59616269336068 .538278131987655 127 4 775 3 3 0 0 128 4 776 0 1
 ??16 770 395 777 ?778 779 761 762 0 0 1 134 771 622 0 779 762 565 0 +780 781 13
6 772 2 3 3 2 5 FFF2 782 783 784 135 773 2 0 45 9 782 4.9958220607938 -.59616269
336068 .538278131987655 4.9958220607938 -.523562296066153 .538278131987655 4.995
8220607938 -.488507692470511 .50607060279572 127 4 783 3 3 0 0 128 4 784 0 1 ??1
6 779 390 294 ?270 269 770 771 0 0 1 30 565 621 0 269 771 563 0 +4.9958220607938
 -.45345308887487 .264009964430552 0 0 -1 136 780 2 3 3 2 5 FFF2 785 786 787 135
 781 2 0 45 9 785 4.9958220607938 -.488507692470511 .50607060279572 4.9958220607
938 -.45345308887487 .473863073603785 4.9958220607938 -.45345308887487 .40268621
3511111 127 4 786 3 3 0 0 128 4 787 0 1 ??16 269 385 295 ?268 554 779 565 0 0 1
 81 1 295 1007 35 269 788 0 290 287 789 17 268 0 560 161 270 148 154 269 0 0 +15
 560 373 0 553 647 642 17 161 0 560 553 268 24 157 554 0 41 +17 270 0 560 268 77
8 145 272 779 0 0 +17 778 0 560 270 769 141 790 770 0 0 +17 272 0 271 261 147 14
1 270 779 0 778 -17 769 0 560 778 760 137 791 761 0 0 +17 790 0 320 258 144 137
 778 770 0 769 -15 320 708 0 790 315 0 17 258 0 320 285 790 255 140 572 0 283 -1
7 144 0 320 790 285 141 261 275 0 272 +17 285 0 320 144 258 259 283 291 0 0 +17
 283 0 277 792 278 255 285 291 0 331 -17 792 0 277 793 283 251 331 298 0 341 -17
 331 0 324 140 254 255 792 298 0 0 +15 324 710 0 791 319 0 17 140 0 324 791 331
 137 258 572 0 790 +17 254 0 324 331 791 251 136 575 0 792 -17 791 0 324 254 140
 133 769 761 0 760 -17 136 0 794 795 341 133 254 575 0 791 +15 794 712 0 795 323
 0 17 795 0 794 250 136 129 760 755 0 754 -17 341 0 794 136 250 251 793 332 0 0
 +17 250 0 794 341 795 247 132 578 0 793 -17 793 0 277 796 792 247 341 332 0 348
 -17 796 0 277 797 793 243 348 342 0 355 -17 348 0 798 132 246 247 796 342 0 0 +
15 798 714 0 799 369 0 17 132 0 798 799 348 129 250 578 0 795 +17 246 0 798 348
 799 243 128 581 0 796 -17 799 0 798 246 132 125 754 748 0 747 -17 128 0 370 800
 355 125 246 581 0 799 +15 370 716 0 800 365 0 17 800 0 370 242 128 121 747 739
 0 738 -17 355 0 370 128 242 243 797 349 0 0 +17 242 0 370 355 800 239 124 584 0
 797 -17 797 0 277 801 796 239 355 349 0 802 -17 801 0 277 803 797 235 802 356 0
 386 -17 802 0 374 124 238 239 801 356 0 0 +15 374 718 0 804 368 0 17 124 0 374
 804 802 121 242 584 0 800 +17 238 0 374 802 804 235 120 587 0 801 -16 356 45 80
5 ?802 349 380 350 0 0 1 81 1 805 994 35 356 806 0 737 746 807 80 7 CCCCCDI12 le
gal_owners0 17 1 lCZ1 35 808 809 9000 0 0 0 0 3 6 0 0 0 FFTFTFTTFFFFFFFFF1 81 1
 806 46 810 356 0 805 811 812 813 81 1 737 993 35 730 814 0 385 805 815 81 1 746
 995 35 739 816 0 805 354 817 82 255 3 807 159 216 1 81 1 816 417 810 739 0 746
 818 814 819 81 1 354 996 35 349 811 0 746 753 820 82 3 817 159 217 1 81 1 811 4
2 810 349 0 354 821 806 822 81 1 753 997 35 748 818 0 354 347 823 82 3 820 159 2
18 1 81 1 818 412 810 748 0 753 824 816 825 81 1 347 998 35 342 821 0 753 759 82
6 82 3 823 159 219 1 81 1 821 38 810 342 0 347 827 811 828 81 1 759 999 35 755 8
24 0 347 340 829 82 3 826 159 220 1 81 1 824 407 810 755 0 759 830 818 831 81 1
 340 1000 35 332 827 0 759 768 832 82 3 829 159 221 1 81 1 827 34 810 332 0 340
 833 821 834 81 1 768 1001 35 761 830 0 340 330 835 82 3 832 159 222 1 81 1 830
 402 810 761 0 768 836 824 837 81 1 330 1002 35 298 833 0 768 777 838 82 3 835 1
59 223 1 81 1 833 30 810 298 0 330 839 827 840 81 1 777 1003 35 770 836 0 330 29
7 841 82 3 838 159 224 1 81 1 836 397 810 770 0 777 842 830 843 81 1 297 1004 35
 291 839 0 777 294 844 82 3 841 159 225 1 81 1 839 26 810 291 0 297 293 833 845
 81 1 294 1005 35 779 842 0 297 290 846 82 3 844 159 226 1 81 1 842 392 810 779
 0 294 788 836 847 82 3 846 159 227 1 80 1 810 848 849 9000 0 0 0 0 3 5 0 0 0 FF
TFTFTTFFFFFFFFF3 81 1 788 387 810 269 0 295 850 842 851 84 255 34 847 PQoVoHnCct
cR.sketch_text.stroke-4181 1 850 382 810 554 0 562 556 788 852 84 34 851 PQoVoHn
CctcR.sketch_text.stroke-4281 1 562 1009 35 554 850 0 287 655 853 81 1 556 377 8
10 544 0 552 548 850 854 84 34 852 PQoVoHnCctcR.sketch_text.stroke-4381 1 548 11
4 810 539 0 543 855 556 856 84 34 854 PQoVoHnCctcR.sketch_text.stroke-2581 1 855
 110 810 536 0 537 857 548 858 84 34 856 PQoVoHnCctcR.sketch_text.stroke-4581 1
 537 1016 35 536 855 0 550 859 860 81 1 857 106 810 529 0 534 861 855 862 84 34
 858 PQoVoHnCctcR.sketch_text.stroke-4681 1 534 1018 35 529 857 0 859 863 864 81
 1 861 102 810 522 0 527 865 857 866 84 34 862 PQoVoHnCctcR.sketch_text.stroke-4
781 1 527 1020 35 522 861 0 863 867 868 81 1 865 98 810 501 0 869 870 861 871 84
 34 866 PQoVoHnCctcR.sketch_text.stroke-4816 501 97 869 ?872 491 522 492 0 0 1 8
1 1 869 1022 35 501 865 0 867 873 874 81 1 870 94 810 491 0 499 875 865 876 84 3
4 871 PQoVoHnCctcR.sketch_text.stroke-4981 1 499 1024 35 491 870 0 873 660 877 8
1 1 875 90 810 481 0 489 878 870 879 84 34 876 PQoVoHnCctcR.sketch_text.stroke-5
081 1 489 1026 35 481 875 0 660 880 881 81 1 878 86 810 475 0 479 882 875 883 84
 34 879 PQoVoHnCctcR.sketch_text.stroke-5181 1 479 1012 35 475 878 0 651 549 884
 81 1 882 82 810 456 0 885 886 878 887 84 34 883 PQoVoHnCctcR.sketch_text.stroke
-4416 456 81 885 ?888 446 475 447 0 0 1 81 1 885 976 35 456 882 0 657 675 889 81
 1 886 78 810 446 0 454 890 882 891 84 34 887 PQoVoHnCctcR.sketch_text.stroke-26
81 1 454 978 35 446 886 0 675 684 892 81 1 890 74 810 436 0 444 893 886 894 84 3
4 891 PQoVoHnCctcR.sketch_text.stroke-2781 1 444 980 35 436 890 0 684 693 895 81
 1 893 70 810 430 0 434 896 890 897 84 34 894 PQoVoHnCctcR.sketch_text.stroke-28
81 1 434 982 35 430 893 0 693 702 898 81 1 896 66 810 405 0 899 900 893 901 84 3
4 897 PQoVoHnCctcR.sketch_text.stroke-2916 405 65 899 ?902 398 430 399 0 0 1 81
 1 899 984 35 405 896 0 702 711 903 81 1 900 62 810 398 0 403 904 896 905 84 34
 901 PQoVoHnCctcR.sketch_text.stroke-3081 1 403 986 35 398 900 0 711 718 906 81
 1 904 58 810 394 0 396 907 900 908 84 34 905 PQoVoHnCctcR.sketch_text.stroke-31
81 1 396 988 35 394 904 0 718 722 909 81 1 907 54 810 387 0 392 812 904 910 84 3
4 908 PQoVoHnCctcR.sketch_text.stroke-3281 1 392 990 35 387 907 0 722 728 911 81
 1 812 50 810 380 0 385 806 907 912 84 34 910 PQoVoHnCctcR.sketch_text.stroke-33
81 1 385 992 35 380 812 0 728 737 913 84 34 912 PQoVoHnCctcR.sketch_text.stroke-
3481 1 728 991 35 724 914 0 392 385 915 82 3 913 159 214 1 81 1 914 427 810 724
 0 728 814 916 917 82 3 915 159 213 1 81 1 814 422 810 730 0 737 816 914 918 81
 1 916 432 810 720 0 722 914 919 920 84 34 917 PQoVoHnCctcR.sketch_text.stroke-3
481 1 722 989 35 720 916 0 396 392 921 81 1 919 437 810 713 0 718 916 922 923 84
 34 920 PQoVoHnCctcR.sketch_text.stroke-3381 1 718 987 35 713 919 0 403 396 924
 81 1 922 442 810 704 0 711 919 925 926 84 34 923 PQoVoHnCctcR.sketch_text.strok
e-3281 1 711 985 35 704 922 0 899 403 927 81 1 925 447 810 695 0 702 922 928 929
 84 34 926 PQoVoHnCctcR.sketch_text.stroke-3181 1 702 983 35 695 925 0 434 899 9
30 81 1 928 452 810 686 0 693 925 931 932 84 34 929 PQoVoHnCctcR.sketch_text.str
oke-3081 1 693 981 35 686 928 0 444 434 933 81 1 931 457 810 677 0 684 928 934 9
35 84 34 932 PQoVoHnCctcR.sketch_text.stroke-2981 1 684 979 35 677 931 0 454 444
 936 81 1 934 462 810 658 0 675 931 937 938 84 34 935 PQoVoHnCctcR.sketch_text.s
troke-2881 1 675 977 35 658 934 0 885 454 939 81 1 937 467 810 652 0 657 934 654
 940 84 34 938 PQoVoHnCctcR.sketch_text.stroke-2781 1 657 975 35 652 937 0 558 8
85 941 81 1 654 472 810 638 0 651 937 942 943 84 34 940 PQoVoHnCctcR.sketch_text
.stroke-2681 1 942 477 810 650 0 660 654 944 945 84 34 943 PQoVoHnCctcR.sketch_t
ext.stroke-4481 1 660 1025 35 650 942 0 499 489 946 81 1 944 482 810 661 0 873 9
42 947 948 84 34 945 PQoVoHnCctcR.sketch_text.stroke-5116 661 480 873 ?648 650 9
49 665 0 0 1 81 1 873 1023 35 661 944 0 869 499 950 81 1 947 487 810 949 0 867 9
44 951 952 84 34 948 PQoVoHnCctcR.sketch_text.stroke-5016 949 485 867 ?953 661 9
54 955 0 0 1 81 1 867 1021 35 949 947 0 527 869 956 81 1 951 492 810 954 0 863 9
47 957 958 84 34 952 PQoVoHnCctcR.sketch_text.stroke-4916 954 490 863 ?959 949 9
60 961 0 0 1 81 1 863 1019 35 954 951 0 534 527 962 81 1 957 497 810 960 0 859 9
51 963 964 84 34 958 PQoVoHnCctcR.sketch_text.stroke-4816 960 495 859 ?965 954 6
44 966 0 0 1 81 1 859 1017 35 960 957 0 537 534 967 81 1 963 502 810 644 0 550 9
57 968 969 84 34 964 PQoVoHnCctcR.sketch_text.stroke-4716 644 500 550 ?643 960 6
41 970 0 0 1 81 1 550 1015 35 644 963 0 543 537 971 81 1 968 507 810 641 0 549 9
63 0 972 84 34 969 PQoVoHnCctcR.sketch_text.stroke-4681 1 549 1013 35 641 968 0
 479 543 973 84 34 972 PQoVoHnCctcR.sketch_text.stroke-4582 3 973 159 235 1 82 3
 971 159 237 1 17 643 0 642 965 640 59 634 644 0 0 +30 970 644 0 644 645 966 0 +
4.9958220607938 -.515021072855032 .3067753945362335 0 0 1 134 645 645 0 641 974
 970 0 +975 976 30 966 643 0 960 970 961 0 +4.9958220607938 -.545805064845114 .3
23857840958475 0 -.999182399769869 -.04042934565542875 134 961 642 0 954 966 955
 0 +977 978 134 955 641 0 949 961 665 0 +979 980 136 977 2 3 3 2 5 FFF2 981 982
 983 135 978 2 0 45 9 981 4.9958220607938 -.576589056835195 .3226122459068535 4.
9958220607938 -.650019850830803 .3200024277034555 4.9958220607938 -.682405322172
97 .2997763366271205 127 4 982 3 3 0 0 128 4 983 0 1 ??134 665 640 0 661 955 662
 0 +984 985 136 979 2 3 3 2 5 FFF2 986 987 988 135 980 2 0 45 9 986 4.9958220607
938 -.68240532217297 .2997763366271205 4.9958220607938 -.714790793515136 .279550
245550786 4.9958220607938 -.714790793515136 .236962757595336 127 4 987 3 3 0 0 1
28 4 988 0 1 ??136 984 2 3 3 2 5 FFF2 989 990 991 135 985 2 0 45 9 989 4.9958220
607938 -.714790793515136 .236962757595336 4.9958220607938 -.714790793515136 .203
5096333517795 4.9958220607938 -.694624016488879 .1861306166791515 127 4 990 3 3
 0 0 128 4 991 0 1 ??30 974 224 0 616 307 645 0 +5.0466220607938 -.5052342545922
9 .15427897178768 0 -.2065156940152245 .978443288149809 136 975 2 3 3 2 5 FFF2 9
92 993 994 135 976 2 0 45 9 992 4.9958220607938 -.547821742547739 .2002473605975
32 4.9958220607938 -.515021072855032 .23174312118854 4.9958220607938 -.515021072
855032 .28844735306237 127 4 993 3 3 0 0 128 4 994 0 1 ??16 616 9 558 ?40 614 28
6 974 0 0 1 30 307 223 0 286 288 974 0 +5.0466220607938 -.476288998154602 .12533
3715349993 0 -1 0 16 286 13 655 ?44 616 267 307 0 0 1 81 1 655 1010 35 286 995 0
 562 651 996 17 44 0 160 42 46 12 279 286 0 280 +15 160 702 0 157 997 0 17 46 0
 160 44 157 33 150 156 0 279 -17 280 0 277 279 998 12 40 616 0 0 -17 998 0 277 2
80 999 199 888 456 0 40 -17 40 0 39 84 32 199 280 616 0 0 +15 39 700 0 41 1000 0
 17 84 0 39 41 40 82 202 614 0 1001 +17 41 0 39 32 84 24 553 544 0 0 -17 202 0 4
68 888 1001 199 84 614 0 998 -17 1001 0 468 202 88 82 561 652 0 553 -15 468 736
 0 1001 464 0 17 88 0 468 1001 888 85 206 611 0 1002 +17 561 0 560 676 553 85 10
01 652 0 0 +17 676 0 560 685 561 89 1002 658 0 0 +17 685 0 560 694 676 93 1003 6
77 0 0 +17 1002 0 465 206 92 85 676 658 0 561 -15 465 734 0 1002 461 0 17 206 0
 465 455 1002 203 88 611 0 999 -17 92 0 465 1002 455 89 210 608 0 1003 +17 455 0
 465 92 206 207 999 446 0 0 +17 210 0 1004 445 1003 207 92 608 0 1005 -17 1003 0
 1004 210 96 89 685 677 0 676 -15 1004 732 0 1003 426 0 17 96 0 1004 1003 445 93
 214 605 0 1006 +17 445 0 1004 96 210 211 1005 436 0 0 +17 214 0 427 435 1006 21
1 96 605 0 1007 -17 1006 0 427 214 100 93 694 686 0 685 -15 427 730 0 1006 422 0
 17 100 0 427 1006 435 97 218 602 0 1008 +17 694 0 560 703 685 97 1006 686 0 0 +
17 703 0 560 712 694 101 1008 695 0 0 +17 712 0 560 719 703 105 1009 704 0 0 +17
 1008 0 423 218 104 97 703 695 0 694 -15 423 728 0 1008 417 0 17 218 0 423 902 1
008 215 100 602 0 1010 -17 104 0 423 1008 902 101 222 599 0 1009 +17 902 0 423 1
04 218 219 1010 405 0 0 +17 222 0 419 404 1009 219 104 599 0 1011 -17 1009 0 419
 222 108 101 712 704 0 703 -15 419 726 0 1009 414 0 17 108 0 419 1009 404 105 22
6 596 0 1012 +17 404 0 419 108 222 223 1011 398 0 0 +17 226 0 1013 397 1012 223
 108 596 0 1014 -17 1012 0 1013 226 112 105 719 713 0 712 -15 1013 724 0 1012 41
8 0 17 112 0 1013 1012 397 109 230 593 0 1015 +17 719 0 560 723 712 109 1012 713
 0 0 +17 723 0 560 729 719 113 1015 720 0 0 +17 729 0 560 738 723 117 1016 724 0
 0 +17 1015 0 1017 230 116 109 723 720 0 719 -15 1017 722 0 1015 377 0 17 230 0
 1017 393 1015 227 112 593 0 1018 -17 116 0 1017 1015 393 113 234 590 0 1016 +17
 393 0 1017 116 230 231 1018 387 0 0 +17 234 0 378 386 1016 231 116 590 0 803 -1
7 1016 0 378 234 120 113 729 724 0 723 -15 378 720 0 1016 373 0 17 120 0 378 101
6 386 117 238 587 0 804 +17 386 0 378 120 234 235 803 380 0 0 +17 804 0 374 238
 124 117 738 730 0 729 -17 738 0 560 747 729 121 804 730 0 0 +17 747 0 560 754 7
38 125 800 739 0 0 +17 754 0 560 760 747 129 799 748 0 0 +17 760 0 560 769 754 1
33 795 755 0 0 +17 803 0 277 1018 801 231 386 380 0 393 -17 1018 0 277 1014 803
 227 393 387 0 397 -17 1014 0 277 1011 1018 223 397 394 0 404 -17 397 0 1013 112
 226 227 1014 394 0 0 +17 1011 0 277 1010 1014 219 404 398 0 902 -17 1010 0 277
 1007 1011 215 902 405 0 435 -17 1007 0 277 1005 1010 211 435 430 0 445 -17 435
 0 427 100 214 215 1007 430 0 0 +17 1005 0 277 999 1007 207 445 436 0 455 -17 99
9 0 277 998 1005 203 455 446 0 888 -17 888 0 468 88 202 203 998 456 0 0 +14 377
 723 1019 ?418 373 1017 6 375 +0 0 418 373 26 81 1 1019 1078 1020 377 1021 0 376
 1022 1023 14 418 725 1022 ?414 377 1013 6 379 +0 0 414 377 26 13 26 3 0 0 0 0 0
 0 10 17 81 1 1022 1079 1020 418 1024 0 1019 416 1025 80 1 1020 0 1026 8001 0 0
 0 0 3 5 0 0 0 FFFFTFTFFFFFFFFFF2 81 1 1024 1036 35 418 0 1022 1027 1021 1028 81
 1 416 1080 1020 414 1027 0 1022 421 1029 83 255 3 1025 .980392156862745 .713725
490196078 .00392156862745098 81 1 1027 1035 35 414 0 416 1030 1024 1031 81 1 421
 1081 1020 417 1030 0 416 425 1032 83 3 1029 .980392156862745 .713725490196078 .
00392156862745098 81 1 1030 1034 35 417 0 421 1033 1027 1034 81 1 425 1082 1020
 422 1033 0 421 1035 1036 83 3 1032 .980392156862745 .713725490196078 .003921568
62745098 81 1 1033 1033 35 422 0 425 1037 1030 1038 81 1 1035 1083 1020 426 1037
 0 425 463 1039 83 3 1036 .980392156862745 .713725490196078 .00392156862745098 1
4 426 733 1035 ?461 422 1004 6 424 +0 0 461 422 26 81 1 1037 1032 35 426 0 1035
 1040 1033 1041 81 1 463 1084 1020 461 1040 0 1035 467 1042 83 3 1039 .980392156
862745 .713725490196078 .00392156862745098 81 1 1040 1031 35 461 0 463 1043 1037
 1044 81 1 467 1085 1020 464 1043 0 463 1045 1046 83 3 1042 .980392156862745 .71
3725490196078 .00392156862745098 81 1 1043 1030 35 464 0 467 1047 1040 1048 81 1
 1045 1086 1020 19 1049 0 467 1050 1051 83 3 1046 .980392156862745 .713725490196
078 .00392156862745098 14 19 753 1045 ?281 464 167 6 7 +0 0 281 464 26 81 1 1049
 1049 35 19 0 1045 1052 1053 1054 81 1 1050 1087 1020 281 1047 0 1045 1055 1056
 83 3 1051 .980392156862745 .713725490196078 .00392156862745098 14 281 4 1050 ?6
47 19 277 6 1057 +0 0 647 19 26 81 1 1047 1029 35 281 0 1050 1058 1043 1059 81 1
 1055 1088 1020 647 1058 0 1050 0 1060 83 3 1056 .980392156862745 .7137254901960
78 .00392156862745098 14 647 343 1055 ?0 281 560 6 1061 -0 0 0 281 26 81 1 1058
 1028 35 647 0 1055 880 1047 1062 83 3 1060 .980392156862745 .713725490196078 .0
0392156862745098 81 1 880 1027 35 1000 0 1063 489 1058 1064 82 3 1062 159 28 2 1
4 1000 701 1063 ?997 1065 39 6 1066 +0 0 997 1065 26 81 1 1063 1067 1020 1000 88
0 0 1067 1068 1069 82 3 1064 159 27 2 81 1 1067 1066 1020 1065 1053 0 1070 1063
 1071 81 1 1068 1068 1020 997 1072 0 1063 1073 1074 83 3 1069 .980392156862745 .
713725490196078 .00392156862745098 14 997 703 1068 ?266 1000 160 6 316 +0 0 266
 1000 26 81 1 1072 1047 35 997 0 1068 1075 1052 1076 81 1 1073 1069 1020 266 107
5 0 1068 314 1077 83 3 1074 .980392156862745 .713725490196078 .00392156862745098
 14 266 705 1073 ?289 997 153 6 312 +0 0 289 997 26 81 1 1075 1046 35 266 0 1073
 1078 1072 1079 81 1 314 1070 1020 289 1078 0 1073 318 1080 83 3 1077 .980392156
862745 .713725490196078 .00392156862745098 81 1 1078 1045 35 289 0 314 1081 1075
 1082 81 1 318 1071 1020 315 1081 0 314 322 1083 83 3 1080 .980392156862745 .713
725490196078 .00392156862745098 81 1 1081 1044 35 315 0 318 1084 1078 1085 81 1
 322 1072 1020 319 1084 0 318 1086 1087 83 3 1083 .980392156862745 .713725490196
078 .00392156862745098 81 1 1084 1043 35 319 0 322 1088 1081 1089 81 1 1086 1073
 1020 323 1088 0 322 1090 1091 83 3 1087 .980392156862745 .713725490196078 .0039
2156862745098 14 323 713 1086 ?369 319 794 6 321 +0 0 369 319 26 81 1 1088 1042
 35 323 0 1086 1092 1084 1093 81 1 1090 1074 1020 369 1092 0 1086 367 1094 83 3
 1091 .980392156862745 .713725490196078 .00392156862745098 14 369 715 1090 ?365
 323 798 6 325 +0 0 365 323 26 81 1 1092 1041 35 369 0 1090 1095 1088 1096 81 1
 367 1075 1020 365 1095 0 1090 372 1097 83 3 1094 .980392156862745 .713725490196
078 .00392156862745098 81 1 1095 1040 35 365 0 367 1098 1092 1099 81 1 372 1076
 1020 368 1098 0 367 376 1100 83 3 1097 .980392156862745 .713725490196078 .00392
156862745098 81 1 1098 1039 35 368 0 372 1101 1095 1102 81 1 376 1077 1020 373 1
101 0 372 1019 1103 83 3 1100 .980392156862745 .713725490196078 .003921568627450
98 81 1 1101 1038 35 373 0 376 1021 1098 1104 83 3 1103 .980392156862745 .713725
490196078 .00392156862745098 81 1 1021 1037 35 377 0 1019 1024 1101 1105 82 3 11
04 159 38 2 82 3 1105 159 37 2 82 3 1102 159 39 2 82 3 1099 159 40 2 82 3 1096 1
59 41 2 82 3 1093 159 42 2 82 3 1089 159 43 2 82 3 1085 159 44 2 82 3 1082 159 4
5 2 82 3 1079 159 46 2 81 1 1052 1048 35 17 0 470 1072 1049 1106 82 3 1076 159 4
7 2 81 1 470 1060 1020 17 1052 0 0 1107 1108 82 3 1106 159 48 2 81 1 1107 1061 1
020 471 1109 0 470 511 1110 83 3 1108 .980392156862745 .713725490196078 .0039215
6862745098 14 471 741 1107 ?509 17 1111 6 469 +0 0 509 17 26 81 1 1109 1055 35 4
71 0 1107 1112 1113 1114 81 1 511 1062 1020 509 1112 0 1107 515 1115 83 3 1110 .
980392156862745 .713725490196078 .00392156862745098 81 1 1112 1054 35 509 0 511
 1116 1109 1117 81 1 515 1063 1020 512 1116 0 511 519 1118 83 3 1115 .9803921568
62745 .713725490196078 .00392156862745098 81 1 1116 1053 35 512 0 515 1119 1112
 1120 81 1 519 1064 1020 516 1119 0 515 1070 1121 83 3 1118 .980392156862745 .71
3725490196078 .00392156862745098 81 1 1119 1052 35 516 0 519 1122 1116 1123 81 1
 1070 1065 1020 520 1122 0 519 1067 1124 83 3 1121 .980392156862745 .71372549019
6078 .00392156862745098 14 520 749 1070 ?1065 516 1125 6 518 +0 0 1065 516 26 81
 1 1122 1051 35 520 0 1070 1053 1119 1126 83 3 1124 .980392156862745 .7137254901
96078 .00392156862745098 81 1 1053 1050 35 1065 0 1067 1049 1122 1127 82 3 1126
 159 51 2 14 1065 751 1067 ?1000 520 1128 6 20 +0 0 1000 520 26 82 3 1127 159 50
 2 15 1128 750 0 634 1065 0 50 20 779 0 1065 518 7 0 +5.0466220607938 -.51502107
2855032 .3067753945362335 0 -1 0 0 0 -1 17 634 0 1128 172 62 55 643 644 0 640 -1
7 172 0 1128 538 634 164 58 630 0 1129 -17 62 0 1128 634 538 59 178 628 0 1130 +
17 538 0 1128 62 172 173 1129 536 0 0 +17 178 0 1125 535 1130 173 62 628 0 1131
 -17 1130 0 1125 178 66 59 965 960 0 643 -15 1125 748 0 1130 520 0 17 66 0 1125
 1130 535 63 182 625 0 1132 +17 965 0 642 959 643 63 1130 960 0 0 +17 959 0 642
 953 965 67 1132 954 0 0 +17 953 0 642 648 959 71 1133 949 0 0 +17 1132 0 521 18
2 70 63 959 954 0 965 -15 521 746 0 1132 516 0 17 182 0 521 528 1132 179 66 625
 0 1134 -17 70 0 521 1132 528 67 186 622 0 1133 +17 528 0 521 70 182 183 1134 52
2 0 0 +17 186 0 517 872 1133 183 70 622 0 1135 -17 1133 0 517 186 74 67 953 949
 0 959 -15 517 744 0 1133 512 0 17 74 0 517 1133 872 71 190 619 0 1136 +17 872 0
 517 74 186 187 1135 501 0 0 +17 190 0 513 500 1136 187 74 619 0 1137 -17 1136 0
 513 190 78 71 648 661 0 953 -15 513 742 0 1136 509 0 17 78 0 513 1136 500 75 19
4 29 0 649 +17 648 0 642 646 953 75 1136 661 0 0 +17 500 0 513 78 190 191 1137 4
91 0 0 +17 194 0 1111 490 649 191 78 29 0 1138 -17 649 0 1111 194 28 75 646 650
 0 648 -15 1111 740 0 649 471 0 17 28 0 1111 649 490 79 198 11 0 646 +17 490 0 1
111 28 194 195 1138 481 0 639 +17 198 0 472 480 636 195 28 11 0 490 -17 1138 0 2
82 1137 639 191 490 481 0 500 -17 639 0 282 1138 170 195 480 475 0 0 -15 282 8 0
 639 281 0 17 170 0 282 639 1129 158 168 539 0 480 -17 1129 0 282 170 1131 164 5
38 536 0 168 -17 1131 0 282 1129 1134 173 535 529 0 538 -17 1134 0 282 1131 1135
 179 528 522 0 535 -17 535 0 1125 66 178 179 1131 529 0 0 +17 1135 0 282 1134 11
37 183 872 501 0 528 -17 1137 0 282 1135 1138 187 500 491 0 872 -82 3 1123 159 5
2 2 82 3 1120 159 53 2 82 3 1117 159 54 2 81 1 1113 1056 35 1 0 1139 1109 0 1140
 82 3 1114 159 55 2 81 1 1139 1057 1141 1 1113 14 0 0 1142 82 3 1140 159 1 3 80
 1 1141 1143 1144 8038 0 0 0 0 0 0 0 0 0 TTTTTTTTTTTTTFTFT10 81 1 14 1058 1143 1
 1139 2 0 0 1145 98 255 8 1142 80 97 114 116 32 50 57 54 80 1 1143 1146 1147 801
7 0 0 0 0 0 0 0 0 0 TTTTTTTTTTTTTFTFT3 84 8 1145 Part 29679 255 13 1147 SDL/TYSA
_NAME79 14 1144 SDL/TYSA_UNAME50 316 755 0 997 1066 312 0 +5.0466220607938 -.476
288998154602 .125333715349993 0 0 -1 -1 0 0 50 1066 754 0 1000 1061 316 0 +5.046
6220607938 -.50523425459229 .15427897178768 0 -.978443288149809 -.20651569401522
45 0 .2065156940152245 -.978443288149809 50 1061 618 0 647 1057 1066 0 +4.995822
0607938 0 .4064 1 0 0 0 1 0 50 1057 252 0 281 0 1061 0 +5.0466220607938 0 .4064
 1 0 0 0 1 0 83 3 1071 .980392156862745 .713725490196078 .00392156862745098 82 3
 1059 159 29 2 82 3 1054 159 49 2 82 3 1048 159 30 2 82 3 1044 159 31 2 82 3 104
1 159 32 2 82 3 1038 159 33 2 82 3 1034 159 34 2 82 3 1031 159 35 2 82 3 1028 15
9 36 2 79 15 1026 SDL/TYSA_COLOUR83 3 1023 .980392156862745 .713725490196078 .00
392156862745098 17 157 0 160 46 42 148 161 554 0 268 -81 1 995 14 810 286 0 655
 1148 1149 1150 82 3 996 159 232 1 81 1 1148 10 810 616 0 558 0 995 1151 81 1 11
49 18 810 267 0 287 995 293 1152 84 34 1150 PQoVoHnCctcR.sketch_text.stroke-4381
 1 287 1008 35 267 1149 0 295 562 1153 81 1 293 22 810 284 0 290 1149 839 1154 8
4 34 1152 PQoVoHnCctcR.sketch_text.stroke-4284 34 1154 PQoVoHnCctcR.sketch_text.
stroke-4182 3 1153 159 230 1 81 1 558 974 35 616 1148 0 552 657 1155 84 34 1151
 PQoVoHnCctcR.sketch_text.stroke-2582 3 1155 159 196 1 82 3 967 159 239 1 82 3 9
62 159 241 1 82 3 956 159 243 1 82 3 950 159 245 1 82 3 946 159 247 1 82 3 941 1
59 197 1 82 3 939 159 199 1 82 3 936 159 201 1 82 3 933 159 203 1 82 3 930 159 2
05 1 82 3 927 159 207 1 82 3 924 159 209 1 82 3 921 159 211 1 84 34 918 PQoVoHnC
ctcR.sketch_text.stroke-3582 3 911 159 212 1 82 3 909 159 210 1 82 3 906 159 208
 1 82 3 903 159 206 1 82 3 898 159 204 1 82 3 895 159 202 1 82 3 892 159 200 1 8
2 3 889 159 198 1 82 3 884 159 234 1 82 3 881 159 248 1 82 3 877 159 246 1 82 3
 874 159 244 1 82 3 868 159 242 1 82 3 864 159 240 1 82 3 860 159 238 1 82 3 853
 159 231 1 79 27 849 BTI/ImprintedSketchEntityId84 34 845 PQoVoHnCctcR.sketch_te
xt.stroke-4084 34 843 PQoVoHnCctcR.sketch_text.stroke-4084 34 840 PQoVoHnCctcR.s
ketch_text.stroke-3984 34 837 PQoVoHnCctcR.sketch_text.stroke-3984 34 834 PQoVoH
nCctcR.sketch_text.stroke-3884 34 831 PQoVoHnCctcR.sketch_text.stroke-3884 34 82
8 PQoVoHnCctcR.sketch_text.stroke-3784 34 825 PQoVoHnCctcR.sketch_text.stroke-37
84 34 822 PQoVoHnCctcR.sketch_text.stroke-3684 34 819 PQoVoHnCctcR.sketch_text.s
troke-3682 3 815 159 215 1 84 34 813 PQoVoHnCctcR.sketch_text.stroke-3579 9 809
 BTI/DetId82 3 789 159 229 1 136 666 2 3 3 2 5 FFF2 1156 1157 1158 135 667 2 0 4
5 9 1156 4.9958220607938 -.694624016488879 .1861306166791515 4.9958220607938 -.6
74457239462621 .168751600006524 4.9958220607938 -.638157040815358 .1687516000065
24 127 4 1157 3 3 0 0 128 4 1158 0 1 ??82 3 656 159 233 1 81 1 27 965 35 11 0 0
 568 632 1159 82 3 635 159 45 1 81 1 568 964 35 156 0 0 274 27 1160 82 3 1159 15
9 44 1 81 1 274 963 35 264 0 0 571 568 1161 82 3 1160 159 43 1 81 1 571 962 35 2
75 0 0 574 274 1162 82 3 1161 159 42 1 81 1 574 961 35 572 0 0 577 571 1163 82 3
 1162 159 41 1 81 1 577 960 35 575 0 0 580 574 1164 82 3 1163 159 40 1 81 1 580
 959 35 578 0 0 583 577 1165 82 3 1164 159 39 1 81 1 583 958 35 581 0 0 586 580
 1166 82 3 1165 159 38 1 81 1 586 957 35 584 0 0 589 583 1167 82 3 1166 159 37 1
 81 1 589 956 35 587 0 0 592 586 1168 82 3 1167 159 36 1 81 1 592 955 35 590 0 0
 595 589 1169 82 3 1168 159 35 1 81 1 595 954 35 593 0 0 598 592 1170 82 3 1169
 159 34 1 81 1 598 953 35 596 0 0 601 595 1171 82 3 1170 159 33 1 81 1 601 952 3
5 599 0 0 604 598 1172 82 3 1171 159 32 1 81 1 604 951 35 602 0 0 607 601 1173 8
2 3 1172 159 31 1 81 1 607 950 35 605 0 0 610 604 1174 82 3 1173 159 30 1 81 1 6
10 949 35 608 0 0 613 607 1175 82 3 1174 159 29 1 81 1 613 948 35 611 0 0 615 61
0 1176 82 3 1175 159 28 1 81 1 615 947 35 614 0 0 567 613 1177 82 3 1176 159 27
 1 81 1 567 946 35 43 0 0 193 615 1178 82 3 1177 159 26 1 81 1 193 945 35 191 0
 0 77 567 1179 82 3 1178 159 25 1 81 1 77 944 35 75 0 0 189 193 1180 82 3 1179 1
59 103 0 81 1 189 943 35 187 0 0 73 77 1181 82 3 1180 159 102 0 81 1 73 942 35 7
1 0 0 185 189 1182 82 3 1181 159 101 0 81 1 185 941 35 183 0 0 69 73 1183 82 3 1
182 159 100 0 81 1 69 940 35 67 0 0 181 185 1184 82 3 1183 159 99 0 81 1 181 939
 35 179 0 0 65 69 1185 82 3 1184 159 98 0 81 1 65 938 35 63 0 0 177 181 1186 82
 3 1185 159 97 0 81 1 177 937 35 173 0 0 61 65 1187 82 3 1186 159 96 0 81 1 61 9
36 35 59 0 0 171 177 1188 82 3 1187 159 95 0 81 1 171 935 35 164 0 0 57 61 1189
 82 3 1188 159 94 0 81 1 57 934 35 55 0 0 162 171 1190 82 3 1189 159 93 0 82 3 1
190 159 92 0 81 1 629 968 35 628 0 0 631 627 1191 82 3 633 159 46 1 81 1 627 969
 35 625 0 0 629 624 1192 82 3 1191 159 47 1 81 1 624 970 35 622 0 0 627 621 1193
 82 3 1192 159 48 1 81 1 621 971 35 619 0 0 624 557 1194 82 3 1193 159 49 1 81 1
 557 972 35 29 0 0 621 552 1195 82 3 1194 159 50 1 82 3 1195 159 51 1 82 3 559 1
59 195 1 82 3 551 159 236 1 141 503 510 503 503 492 136 504 2 3 3 2 5 FFF2 1196
 1197 1198 135 505 2 0 45 9 1196 5.0466220607938 -.68240532217297 .2997763366271
205 5.0466220607938 -.714790793515136 .279550245550786 5.0466220607938 -.7147907
93515136 .236962757595336 127 4 1197 3 3 0 0 128 4 1198 0 1 ??141 407 415 407 40
7 399 136 408 2 3 3 2 5 FFF2 1199 1200 1201 135 409 2 0 45 9 1199 5.046622060793
8 -.745040959054523 .1490593353808842 5.0466220607938 -.77932447999916 .18025852
5721506 5.0466220607938 -.77932447999916 .237674526196263 127 4 1200 3 3 0 0 128
 4 1201 0 1 ??141 358 366 358 358 350 136 359 2 3 3 2 5 FFF2 1202 1203 1204 135
 360 2 0 45 9 1202 5.0466220607938 -.5341201969799 .464728709891892 5.0466220607
938 -.554642858306621 .487505305121547 5.0466220607938 -.599958792565623 .487505
305121547 127 4 1203 3 3 0 0 128 4 1204 0 1 ??141 304 313 304 304 299 136 305 2
 3 3 2 5 FFF2 1205 1206 1207 135 306 2 0 45 9 1205 5.0466220607938 -.59616269336
068 .538278131987655 5.0466220607938 -.523562296066153 .538278131987655 5.046622
0607938 -.488507692470511 .50607060279572 127 4 1206 3 3 0 0 128 4 1207 0 1 ??82
 3 296 159 228 1 81 1 146 926 35 145 0 0 260 151 1208 82 3 263 159 85 0 81 1 260
 925 35 259 0 0 143 146 1209 82 3 1208 159 84 0 81 1 143 924 35 141 0 0 257 260
 1210 82 3 1209 159 83 0 81 1 257 923 35 255 0 0 139 143 1211 82 3 1210 159 82 0
 81 1 139 922 35 137 0 0 253 257 1212 82 3 1211 159 81 0 81 1 253 921 35 251 0 0
 135 139 1213 82 3 1212 159 80 0 81 1 135 920 35 133 0 0 249 253 1214 82 3 1213
 159 79 0 81 1 249 919 35 247 0 0 131 135 1215 82 3 1214 159 78 0 81 1 131 918 3
5 129 0 0 245 249 1216 82 3 1215 159 77 0 81 1 245 917 35 243 0 0 127 131 1217 8
2 3 1216 159 76 0 81 1 127 916 35 125 0 0 241 245 1218 82 3 1217 159 75 0 81 1 2
41 915 35 239 0 0 123 127 1219 82 3 1218 159 74 0 81 1 123 914 35 121 0 0 237 24
1 1220 82 3 1219 159 73 0 81 1 237 913 35 235 0 0 119 123 1221 82 3 1220 159 72
 0 81 1 119 912 35 117 0 0 233 237 1222 82 3 1221 159 71 0 81 1 233 911 35 231 0
 0 115 119 1223 82 3 1222 159 70 0 81 1 115 910 35 113 0 0 229 233 1224 82 3 122
3 159 69 0 81 1 229 909 35 227 0 0 111 115 1225 82 3 1224 159 68 0 81 1 111 908
 35 109 0 0 225 229 1226 82 3 1225 159 67 0 81 1 225 907 35 223 0 0 107 111 1227
 82 3 1226 159 66 0 81 1 107 906 35 105 0 0 221 225 1228 82 3 1227 159 65 0 81 1
 221 905 35 219 0 0 103 107 1229 82 3 1228 159 64 0 81 1 103 904 35 101 0 0 217
 221 1230 82 3 1229 159 63 0 81 1 217 903 35 215 0 0 99 103 1231 82 3 1230 159 6
2 0 81 1 99 902 35 97 0 0 213 217 1232 82 3 1231 159 61 0 81 1 213 901 35 211 0
 0 95 99 1233 82 3 1232 159 60 0 81 1 95 900 35 93 0 0 209 213 1234 82 3 1233 15
9 59 0 81 1 209 899 35 207 0 0 91 95 1235 82 3 1234 159 58 0 81 1 91 898 35 89 0
 0 205 209 1236 82 3 1235 159 57 0 81 1 205 897 35 203 0 0 87 91 1237 82 3 1236
 159 56 0 81 1 87 896 35 85 0 0 201 205 1238 82 3 1237 159 55 0 81 1 201 895 35
 199 0 0 37 87 1239 82 3 1238 159 54 0 81 1 37 894 35 82 0 0 31 201 1240 82 3 12
39 159 53 0 82 3 1240 159 52 0 81 1 197 931 35 195 0 0 81 53 1241 81 1 81 930 35
 79 0 0 45 197 1242 81 1 53 932 35 51 0 0 197 162 1243 82 3 1241 159 89 0 82 3 1
243 159 90 0 81 1 45 929 35 33 0 0 149 81 1244 82 3 1242 159 88 0 82 3 1244 159
 87 0 82 3 166 159 91 0 82 3 159 159 50 0 82 3 152 159 86 0 82 3 38 159 51 0 19
 18 809 0 1 0 10 6 0 S0 74 4 CI16 index_map_offset0 0 1 dCCZ20 16 6 0 0 968 1113
 1139 14 2 1055 0 0 0 0 0 0 0 0 0 0 0 0 0 0 80 1 13 1020 1245 8040 0 0 0 0 3 5 0
 0 0 TTTFFFFFFFFFFFFFF2 83 3 15 .980392156862745 .713725490196078 .0039215686274
5098 79 17 1245 SDL/TYSA_COLOUR_21 0 
