**ABCDEFGHIJKLMNOPQRSTUVWXYZabcdefghijklmnopqrstuvwxyz**************************
**PARASOLID !"#$%&'()*+,-./:;<=>?@[\]^_`{|}~0123456789**************************
**PART1;
MC=unknown;
MC_MODEL=unknown;
MC_ID=unknown;
OS=unknown;
OS_RELEASE=unknown;
FRU=Parasolid 36.0.180;
APPL=Onshape;
SITE=unknown;
USER=unknown;
FORMAT=text;
GUISE=transmit;
KEY=BTGapi::writeModels_.xmt;
FILE=BTGapi::writeModels_.xmt;
DATE=2024-05-15T00:06:35 (UTC);
**PART2;
SCH=SCH_3600180_36001;
USFLD_SIZE=0;
**PART3;
**END_OF_HEADER*****************************************************************
T51 : TRANSMIT FILE created by modeller version 360018023 SCH_3600180_36001_1300
6231 0 12 36 CCCI7 lattice222 0 CCCI4 mesh1006 0 I8 polyline1008 0 CCCCCCCDI5 ow
ner1040 0 CCCI16 boundary_lattice222 0 CCCI13 boundary_mesh1006 0 I17 boundary_p
olyline1008 0 CCCA16 index_map_offset0 0 1 dA9 index_map82 0 A17 node_id_index_m
ap82 0 A20 schema_embedding_map82 0 A5 child12 0 A14 lowest_node_id0 0 1 dA16 me
sh_offset_data206 0 Z1 188 2 3 0 0 0 0 0 0 0 1e3 1e-8 0 4 5 1 0 1 2 6 0 7 8 9 0
 0 10 11 12 0 0 0 0 0 0 0 81 255 1 2 182 13 1 14 0 0 0 15 70 11 CI9 list_type0 0
 1 uI10 notransmit0 0 1 lCCCDCCDI12 finger_index0 0 1 dI12 finger_block1012 0 CZ
3 0 4 T1 0 0 5 20 1 16 16 13 255 6 5 0 1 0 17 0 0 18 0 50 255 7 90 0 19 20 0 0 +
-1.56845 4.201483683627205 3.96238230646071 0 -.824331600923871 .56610724400796
 0 .56610724400796 .824331600923871 30 255 8 98 0 21 22 0 0 +-1.4732 4.201483683
627205 3.96238230646071 0 -.56610724400796 -.824331600923871 29 255 9 85 0 12 23
 0 -1.4732 3.90671050945777 3.533151193196445 19 9 CCCCCCI5 frame230 0 CA5 owner
12 0 Z10 1 0 1 18 0 24 0 V0 16 255 11 29 25 ?26 0 27 28 0 0 1 18 255 12 53 29 30
 0 31 9 ?1 81 1 29 159 32 12 0 0 33 34 35 17 255 30 0 36 37 38 12 39 21 0 26 +18
 31 57 40 41 12 42 23 ?1 81 1 40 157 32 31 0 0 43 33 44 17 41 0 45 26 46 31 47 4
8 0 49 +18 42 61 50 51 31 52 53 ?1 29 23 84 0 31 53 9 -1.6637 3.90671050945777 3
.53315119319644 29 53 83 0 42 54 23 -1.6637 3.959055566116435 3.497203383201935
 29 54 82 0 52 55 53 -1.4732 3.959055566116435 3.49720338320194 18 52 65 56 37 4
2 57 54 ?1 29 55 81 0 57 58 54 -1.6637 4.20148255141272 3.962380657797505 18 57
 69 33 47 52 59 55 ?1 29 58 80 0 59 60 55 -1.4732 4.20148255141272 3.96238065779
7505 18 59 70 34 39 57 61 58 ?1 29 60 79 0 61 62 58 -1.6637 4.253827608071385 3.
926432847803 18 61 71 43 63 59 64 60 ?1 29 62 78 0 64 0 60 -1.4732 4.25382760807
1385 3.926432847803 18 64 72 65 66 61 0 62 ?1 81 1 65 154 32 64 0 0 56 50 67 17
 66 0 36 38 37 64 68 69 0 70 -15 255 36 22 0 38 71 0 17 38 0 36 30 66 59 70 72 0
 73 +17 37 0 36 66 30 52 74 75 0 76 -17 68 0 77 78 79 52 66 69 0 0 +16 69 48 80
 ?68 81 82 83 0 0 1 17 70 0 84 85 73 64 38 72 0 79 -15 84 8 0 85 17 0 17 85 0 84
 86 70 61 79 87 0 0 +17 73 0 84 70 86 59 46 82 0 0 +16 72 52 88 ?38 87 0 89 0 0
 1 17 79 0 77 68 63 64 85 87 0 0 -15 77 11 0 68 90 0 17 63 0 77 79 78 61 91 81 0
 92 -16 87 51 93 ?85 94 72 95 0 0 1 81 1 93 170 32 87 0 0 96 25 97 16 94 50 98 ?
86 82 87 99 0 0 1 30 95 93 0 87 99 89 0 +-1.56845 4.253827608071385 3.9264328478
03 -1 0 0 30 99 92 0 94 100 95 0 +-1.6637 1.53151446946731 5.79597319600098 0 -.
824331600923871 .56610724400796 30 89 94 0 72 95 83 0 +-1.4732 4.22765507974205
 3.944406752800255 0 -.824331600923871 .56610724400796 30 83 95 0 69 89 101 0 +-
1.4732 4.25382874028587 3.9264344964662 0 -.56610724400796 -.824331600923871 30
 101 96 0 81 83 22 0 +-1.6637 4.25382874028587 3.9264344964662 0 -.5661072440079
6 -.824331600923871 16 81 47 102 ?91 48 69 101 0 0 1 30 22 97 0 48 101 8 0 +-1.6
637 4.201483683627205 3.962382306460705 0 -.56610724400796 -.824331600923871 16
 48 46 103 ?41 21 81 22 0 0 1 81 1 103 163 32 48 0 0 102 104 105 16 21 45 104 ?3
0 75 48 8 0 0 1 81 1 104 164 32 21 0 0 103 106 107 16 75 41 108 ?74 109 21 110 0
 0 1 81 1 108 167 32 75 0 0 98 88 111 17 74 0 112 113 76 12 37 75 0 0 +16 109 37
 96 ?78 27 75 114 0 0 1 30 110 75 0 75 115 114 0 +-1.4732 3.932883037787105 3.51
517728819919 0 -.824331600923871 .56610724400796 30 115 74 0 27 0 110 0 +-1.6637
 1.236742427512362 5.36674373139991 0 -.824331600923871 .56610724400796 30 114 7
6 0 109 110 28 0 +-1.56845 3.959055566116435 3.49720338320194 -1 0 0 30 28 77 0
 11 114 100 0 +-1.56845 3.90671050945777 3.533151193196445 1 0 0 30 100 91 0 82
 28 99 0 +-1.56845 4.20148255141272 3.962380657797505 1 0 0 16 82 49 116 ?73 69
 94 100 0 0 1 81 1 116 172 32 82 0 0 25 117 118 80 7 CCCCCDI12 legal_owners0 17
 1 lCZ1 32 119 120 9000 0 0 0 0 3 6 0 0 0 FFTFTFTTFFFFFFFFF1 81 1 25 171 32 11 0
 0 93 116 121 81 1 117 173 32 122 0 123 116 124 125 82 255 3 118 147 73 1 14 255
 122 23 123 ?19 71 126 6 20 +0 0 19 71 24 81 1 123 187 127 122 117 0 128 129 130
 81 1 124 174 32 131 0 132 117 133 134 82 3 125 147 0 2 14 131 12 132 ?71 90 112
 6 135 +0 0 71 90 24 81 1 132 185 127 131 124 0 136 128 137 81 1 133 175 32 17 0
 138 124 139 140 82 3 134 147 1 2 14 17 6 138 ?90 0 84 6 141 +0 0 90 0 24 81 1 1
38 183 127 17 133 0 0 136 142 81 1 139 176 32 71 0 128 133 143 144 82 3 140 147
 2 2 14 71 20 128 ?122 131 36 6 145 -0 0 122 131 24 81 1 128 186 127 71 139 0 13
2 123 146 81 1 143 177 32 90 0 136 139 147 148 82 3 144 147 24 2 14 90 9 136 ?13
1 17 77 6 149 +0 0 131 17 24 81 1 136 184 127 90 143 0 138 132 150 81 1 147 178
 32 19 0 129 143 151 152 82 3 148 147 32 2 14 19 26 129 ?0 122 45 6 7 +0 0 0 122
 24 81 1 129 188 127 19 147 0 123 0 153 81 1 151 179 32 1 0 154 147 0 155 82 3 1
52 147 36 2 81 1 154 180 156 1 151 14 0 0 157 82 3 155 147 0 3 80 1 156 158 159
 8038 0 0 0 0 0 0 0 0 0 TTTTTTTTTTTTTFTFT10 81 1 14 181 158 1 154 2 0 0 160 98 2
55 8 157 80 97 114 116 32 50 51 54 80 1 158 161 162 8017 0 0 0 0 0 0 0 0 0 TTTTT
TTTTTTTTFTFT3 84 255 8 160 Part 23679 255 13 162 SDL/TYSA_NAME79 14 159 SDL/TYSA
_UNAME80 1 127 0 163 8001 0 0 0 0 3 5 0 0 0 FFFFTFTFFFFFFFFFF2 83 255 3 153 .615
686274509804 .811764705882353 .929411764705882 79 15 163 SDL/TYSA_COLOUR15 45 28
 0 41 19 0 13 24 3 0 0 0 0 0 0 10 17 83 3 150 .615686274509804 .811764705882353
 .929411764705882 50 149 88 0 90 145 20 0 +-1.56845 4.25382874028587 3.926434496
4662 0 .824331600923871 -.56610724400796 0 -.56610724400796 -.824331600923871 50
 145 87 0 71 141 149 0 +-1.4732 4.22765621195654 3.944408401463455 -1 0 0 0 0 1
 50 20 89 0 122 149 7 0 +-1.6637 1.5315156016818 5.79597484466418 -1 0 0 0 0 1 5
0 141 86 0 17 135 145 0 +-1.78435 2.153086332365025 5.36911059136038 0 .56610724
400796 .824331600923871 1 0 0 50 135 73 0 131 0 141 0 +-.0317500000000006 1.9248
17738899915 4.89421008382051 0 -.56610724400796 -.824331600923871 1 0 0 83 3 146
 .615686274509804 .811764705882353 .929411764705882 83 3 142 .615686274509804 .8
11764705882353 .929411764705882 83 3 137 .615686274509804 .811764705882353 .9294
11764705882 15 112 19 0 74 131 0 83 3 130 .615686274509804 .811764705882353 .929
411764705882 15 126 25 0 91 122 0 17 91 0 126 49 92 42 63 81 0 78 +17 49 0 126 4
7 91 31 51 27 0 113 +17 92 0 126 91 47 61 86 94 0 85 -17 78 0 77 63 68 42 76 109
 0 0 +17 76 0 112 74 51 52 78 109 0 68 -17 51 0 112 76 113 42 49 27 0 91 -17 113
 0 112 51 74 31 26 11 0 0 -16 27 33 106 ?49 11 109 115 0 0 1 81 1 106 165 32 27
 0 0 104 98 164 81 1 98 166 32 94 0 0 106 108 165 82 3 164 147 32 1 82 3 165 147
 33 1 17 26 0 45 39 41 12 113 11 0 74 +17 39 0 45 46 26 59 30 21 0 38 -17 46 0 4
5 41 39 57 73 82 0 86 -17 86 0 84 73 85 57 92 94 0 0 +17 47 0 126 92 49 57 41 48
 0 46 -82 3 121 147 72 1 79 9 120 BTI/DetId81 1 96 169 32 109 0 0 88 93 166 81 1
 88 168 32 72 0 0 108 96 167 82 3 166 147 64 1 82 3 167 147 49 1 82 3 111 147 48
 1 82 3 107 147 5 1 81 1 102 162 32 81 0 0 80 103 168 82 3 105 147 4 1 81 1 80 1
61 32 69 0 0 34 102 169 82 3 168 147 1 1 81 1 34 160 32 59 0 0 29 80 170 82 3 16
9 147 0 1 82 3 170 147 11 0 82 3 97 147 65 1 81 1 56 153 32 52 0 0 0 65 171 81 1
 50 155 32 42 0 0 65 43 172 82 3 67 147 1 0 81 1 43 156 32 61 0 0 50 40 173 82 3
 172 147 2 0 82 3 173 147 3 0 82 3 171 147 0 0 81 1 33 158 32 57 0 0 40 29 174 8
2 3 174 147 9 0 82 3 44 147 8 0 82 3 35 147 10 0 19 18 4 0 1 0 10 6 0 S0 74 4 CI
16 index_map_offset0 0 1 dCCZ20 16 5 0 0 151 154 14 2 129 0 0 0 0 0 0 0 0 0 0 0
 0 0 0 0 80 1 13 127 175 8040 0 0 0 0 3 5 0 0 0 TTTFFFFFFFFFFFFFF2 83 3 15 .6156
86274509804 .811764705882353 .929411764705882 79 17 175 SDL/TYSA_COLOUR_21 0 
