**ABCDEFGHIJKLMNOPQRSTUVWXYZabcdefghijklmnopqrstuvwxyz**************************
**PARASOLID !"#$%&'()*+,-./:;<=>?@[\]^_`{|}~0123456789**************************
**PART1;
MC=unknown;
MC_MODEL=unknown;
MC_ID=unknown;
OS=unknown;
OS_RELEASE=unknown;
FRU=Parasolid 36.0.180;
APPL=Onshape;
SITE=unknown;
USER=unknown;
FORMAT=text;
GUISE=transmit;
KEY=BTGapi::writeModels_.xmt;
FILE=BTGapi::writeModels_.xmt;
DATE=2024-05-15T00:06:35 (UTC);
**PART2;
SCH=SCH_3600180_36001;
USFLD_SIZE=0;
**PART3;
**END_OF_HEADER*****************************************************************
T51 : TRANSMIT FILE created by modeller version 360018023 SCH_3600180_36001_1300
6231 0 12 36 CCCI7 lattice222 0 CCCI4 mesh1006 0 I8 polyline1008 0 CCCCCCCDI5 ow
ner1040 0 CCCI16 boundary_lattice222 0 CCCI13 boundary_mesh1006 0 I17 boundary_p
olyline1008 0 CCCA16 index_map_offset0 0 1 dA9 index_map82 0 A17 node_id_index_m
ap82 0 A20 schema_embedding_map82 0 A5 child12 0 A14 lowest_node_id0 0 1 dA16 me
sh_offset_data206 0 Z1 235 2 3 0 0 0 0 0 0 0 1e3 1e-8 0 4 5 1 0 1 2 6 0 7 8 9 0
 0 10 11 12 0 0 0 0 0 0 0 81 255 1 2 229 13 1 14 0 0 0 15 70 11 CI9 list_type0 0
 1 uI10 notransmit0 0 1 lCCCDCCDI12 finger_index0 0 1 dI12 finger_block1012 0 CZ
3 0 4 T1 0 0 5 20 1 16 16 13 255 6 156 0 1 0 17 0 0 18 0 50 255 7 151 0 19 20 0
 0 +.03810000000000085 1.823716235984485 5.65981890249639 -1 1548214683192325e-3
1 -106323177038509e-30 1548214683192325e-31 1 0 30 255 8 155 0 21 22 0 0 +.03810
0000000001 2.32622877990768 5.31471992654914 0 -.566107244007959 -.8243316009238
71 29 255 9 132 0 23 24 0 2.4765 2.31769117503398 5.30228797559271 19 9 CCCCCCI5
 frame230 0 CA5 owner12 0 Z10 1 0 1 18 0 25 0 V0 16 255 11 136 26 ?27 0 28 29 0
 0 1 18 255 12 26 30 31 0 32 33 ?1 81 1 30 201 34 12 0 0 35 36 37 17 255 31 0 38
 39 40 12 41 42 0 43 -18 32 29 44 40 12 45 46 ?1 29 33 55 0 12 46 47 2.4765 2.32
6228779907675 5.31471992654914 29 46 54 0 32 48 33 2.4765 1.321203692061294 6.00
491787844364 29 47 135 0 49 33 50 .038100000000001 2.317691175033985 5.302287975
5927 18 49 123 51 52 53 0 47 ?1 29 50 134 0 53 47 24 .0381000000000007 1.3126660
871876 5.99248592748721 18 53 119 36 54 55 49 50 ?1 29 24 133 0 55 50 9 2.4765 1
.3126660871876 5.99248592748721 18 55 115 56 57 23 53 24 ?1 81 1 56 204 34 55 0
 0 58 44 59 17 57 0 60 61 62 55 63 64 0 65 +18 23 111 35 66 67 55 9 ?1 81 1 35 2
00 34 23 0 0 0 30 68 17 66 0 69 43 65 23 70 71 0 27 -18 67 38 72 73 45 23 74 ?1
 81 1 72 207 34 67 0 0 51 26 75 17 73 0 76 77 78 67 79 80 0 39 -18 45 35 58 79 3
2 67 48 ?1 29 74 51 0 67 0 48 .038100000000001 2.32622877990768 5.31471992654914
 29 48 52 0 45 74 46 .0381000000000007 1.321203692061294 6.00491787844364 81 1 5
8 203 34 45 0 0 36 56 81 17 79 0 38 40 39 45 73 80 0 78 +15 255 38 7 0 39 82 0 1
7 40 0 38 31 79 32 83 84 0 61 +17 39 0 38 79 31 67 85 86 0 87 +16 80 20 88 ?79 8
4 89 90 0 0 1 17 78 0 76 73 54 45 62 91 0 83 -15 76 146 0 54 19 0 17 54 0 76 78
 77 53 52 92 0 62 +17 62 0 60 57 83 53 78 91 0 63 +16 91 138 93 ?62 28 21 22 0 0
 1 17 83 0 60 62 61 45 40 84 0 0 -15 60 144 0 57 94 0 17 61 0 60 83 57 32 65 28
 0 41 -16 84 14 95 ?40 42 80 96 0 0 1 81 1 95 215 34 84 0 0 97 98 99 16 42 11 10
0 ?41 86 84 101 0 0 1 30 96 47 0 84 90 101 0 +1.6891 1.321203692061294 6.0049178
7844364 1 0 0 30 90 45 0 80 0 96 0 +.03810000000000085 1.823716235984485 5.65981
890249639 -187814549564418e-30 -.824331600923871 .566107244007959 30 101 48 0 42
 96 102 0 +2.4765 1.823716235984485 5.65981890249639 -364246399155235e-30 -.8243
31600923871 .566107244007959 30 102 49 0 86 101 103 0 +1.6891 2.32622877990768 5
.31471992654914 -1 0 0 16 86 8 104 ?39 21 42 102 0 0 1 30 103 131 0 92 102 105 0
 +.03810000000000085 1.81517863111079 5.64738695153996 -187814549564418e-30 -.82
4331600923871 .566107244007959 16 92 107 98 ?54 64 0 103 0 0 1 30 105 130 0 64 1
03 106 0 +1.6891 1.3126660871876 5.99248592748721 1 0 0 16 64 101 97 ?57 71 92 1
05 0 0 1 30 106 129 0 71 105 107 0 +2.4765 1.81517863111079 5.64738695153996 -36
4246399155235e-30 -.824331600923871 .566107244007959 16 71 97 108 ?70 89 64 106
 0 0 1 30 107 128 0 89 106 29 0 +1.6891 2.317691175033985 5.30228797559271 -1 0
 0 16 89 91 109 ?110 80 71 107 0 0 1 30 29 152 0 11 107 111 0 +2.4765 2.32622877
9907675 5.31471992654914 0 -.566107244007959 -.824331600923871 30 111 153 0 28 2
9 22 0 +2.4765 1.321203692061294 6.00491787844364 0 -.566107244007959 -.82433160
0923871 16 28 137 112 ?65 11 91 111 0 0 1 30 22 154 0 91 111 8 0 +.0381000000000
007 1.321203692061294 6.00491787844364 0 -.566107244007959 -.824331600923871 81
 1 112 210 34 28 0 0 93 113 114 17 65 0 69 66 41 55 61 28 0 70 +15 69 142 0 66 1
15 0 17 41 0 69 65 43 32 31 42 0 0 +17 70 0 116 63 117 55 66 71 0 0 +15 116 90 0
 117 118 0 17 63 0 116 52 70 53 57 64 0 0 -17 117 0 116 70 52 23 110 89 0 0 -17
 52 0 116 117 63 49 54 92 0 77 -17 110 0 119 87 27 49 117 89 0 0 +15 119 140 0 1
10 17 0 17 87 0 119 85 110 67 77 21 0 0 -17 27 0 119 110 85 23 43 11 0 117 +17 8
5 0 119 27 87 12 39 86 0 0 -17 43 0 69 41 66 12 27 11 0 85 -17 77 0 76 54 73 49
 87 21 0 110 +16 21 139 113 ?77 91 86 8 0 0 1 81 1 113 211 34 21 0 0 112 109 120
 80 7 CCCCCDI12 legal_owners0 17 1 lCZ1 34 121 122 9000 0 0 0 0 3 6 0 0 0 FFTFTF
TTFFFFFFFFF1 81 1 109 212 34 89 0 0 113 104 123 82 255 3 120 120 123 1 81 1 104
 213 34 86 0 0 109 97 124 82 3 123 120 150 1 81 1 97 214 34 64 0 0 104 95 125 82
 3 124 120 151 1 82 3 125 120 158 1 79 255 9 122 BTI/DetId14 255 17 141 126 ?115
 0 119 6 127 +0 0 115 0 25 81 1 126 230 128 17 129 0 0 130 131 14 115 143 130 ?9
4 17 69 6 132 -0 0 94 17 25 50 127 148 0 17 133 132 0 +1.6891 2.32622877990768 5
.31471992654914 0 .824331600923871 -.566107244007959 0 -.56610724400796 -.824331
600923872 13 25 3 0 0 0 0 0 0 10 17 50 133 127 0 118 134 127 0 +-.3175 2.1746550
1836173 5.40051762535558 0 .56610724400796 .824331600923871 1 0 0 50 132 149 0 1
15 127 20 0 +2.4765 1.823716235984485 5.65981890249639 -1 3002598173463905e-31 -
2062025251655935e-31 3002598173463905e-31 1 0 50 20 150 0 94 132 7 0 +1.6891 1.3
21203692061294 6.00491787844364 0 -.824331600923871 .566107244007959 0 .56610724
400796 .824331600923872 14 94 145 135 ?19 115 60 6 20 +0 0 19 115 25 81 1 135 23
2 128 94 136 0 130 137 138 14 19 147 137 ?82 94 76 6 7 +0 0 82 94 25 81 1 137 23
3 128 19 139 0 135 140 141 14 82 4 140 ?118 19 38 6 134 +0 0 118 19 25 81 1 140
 234 128 82 142 0 137 143 144 14 118 81 143 ?0 82 116 6 133 -0 0 0 82 25 50 134
 56 0 82 0 133 0 +-.3175 2.183192623235425 5.41294957631201 0 .56610724400796 .8
24331600923871 1 0 0 81 1 143 235 128 118 145 0 140 0 146 80 1 128 0 147 8001 0
 0 0 0 3 5 0 0 0 FFFFTFTFFFFFFFFFF2 81 1 145 221 34 118 0 143 129 142 148 83 255
 3 146 .615686274509804 .811764705882353 .929411764705882 81 1 129 220 34 17 0 1
26 100 145 149 81 1 142 222 34 82 0 140 145 136 150 82 3 148 120 70 2 81 1 136 2
23 34 94 0 135 142 139 151 82 3 150 120 71 2 81 1 139 224 34 19 0 137 136 152 15
3 82 3 151 120 75 2 81 1 152 225 34 115 0 130 139 154 155 82 3 153 120 76 2 81 1
 130 231 128 115 152 0 126 135 156 81 1 154 226 34 1 0 157 152 0 158 82 3 155 12
0 77 2 81 1 157 227 159 1 154 14 0 0 160 82 3 158 120 12 3 80 1 159 161 162 8038
 0 0 0 0 0 0 0 0 0 TTTTTTTTTTTTTFTFT10 81 1 14 228 161 1 157 2 0 0 163 98 255 8
 160 80 97 114 116 32 49 56 51 80 1 161 164 165 8017 0 0 0 0 0 0 0 0 0 TTTTTTTTT
TTTTFTFT3 84 255 8 163 Part 18379 13 165 SDL/TYSA_NAME79 14 162 SDL/TYSA_UNAME83
 3 156 .615686274509804 .811764705882353 .929411764705882 81 1 100 219 34 42 0 0
 108 129 166 82 3 149 120 69 2 81 1 108 218 34 71 0 0 88 100 167 82 3 166 120 16
3 1 81 1 88 217 34 80 0 0 98 108 168 82 3 167 120 162 1 81 1 98 216 34 92 0 0 95
 88 169 82 3 168 120 161 1 82 3 169 120 160 1 79 15 147 SDL/TYSA_COLOUR83 3 144
 .615686274509804 .811764705882353 .929411764705882 83 3 141 .615686274509804 .8
11764705882353 .929411764705882 83 3 138 .615686274509804 .811764705882353 .9294
11764705882 83 3 131 .615686274509804 .811764705882353 .929411764705882 81 1 93
 209 34 91 0 0 26 112 170 82 3 114 120 122 1 81 1 26 208 34 11 0 0 72 93 171 82
 3 170 120 121 1 82 3 171 120 117 1 82 3 99 120 159 1 81 1 36 202 34 53 0 0 30 5
8 172 82 3 81 120 99 0 82 3 172 120 98 0 81 1 51 206 34 49 0 0 44 72 173 82 3 75
 120 103 0 81 1 44 205 34 32 0 0 56 51 174 82 3 173 120 102 0 82 3 174 120 101 0
 82 3 68 120 90 0 82 3 59 120 100 0 82 3 37 120 91 0 19 18 157 0 1 0 10 6 0 S0 7
4 4 CI16 index_map_offset0 0 1 dCCZ20 16 5 0 0 154 157 14 2 143 0 0 0 0 0 0 0 0
 0 0 0 0 0 0 0 80 1 13 128 175 8040 0 0 0 0 3 5 0 0 0 TTTFFFFFFFFFFFFFF2 83 3 15
 .615686274509804 .811764705882353 .929411764705882 79 17 175 SDL/TYSA_COLOUR_21
 0 
