**ABCDEFGHIJKLMNOPQRSTUVWXYZabcdefghijklmnopqrstuvwxyz**************************
**PARASOLID !"#$%&'()*+,-./:;<=>?@[\]^_`{|}~0123456789**************************
**PART1;
MC=unknown;
MC_MODEL=unknown;
MC_ID=unknown;
OS=unknown;
OS_RELEASE=unknown;
FRU=Parasolid 36.0.180;
APPL=Onshape;
SITE=unknown;
USER=unknown;
FORMAT=text;
GUISE=transmit;
KEY=BTGapi::writeModels_.xmt;
FILE=BTGapi::writeModels_.xmt;
DATE=2024-05-15T00:06:35 (UTC);
**PART2;
SCH=SCH_3600180_36001;
USFLD_SIZE=0;
**PART3;
**END_OF_HEADER*****************************************************************
T51 : TRANSMIT FILE created by modeller version 360018023 SCH_3600180_36001_1300
6231 0 12 36 CCCI7 lattice222 0 CCCI4 mesh1006 0 I8 polyline1008 0 CCCCCCCDI5 ow
ner1040 0 CCCI16 boundary_lattice222 0 CCCI13 boundary_mesh1006 0 I17 boundary_p
olyline1008 0 CCCA16 index_map_offset0 0 1 dA9 index_map82 0 A17 node_id_index_m
ap82 0 A20 schema_embedding_map82 0 A5 child12 0 A14 lowest_node_id0 0 1 dA16 me
sh_offset_data206 0 Z1 170 2 3 0 0 0 0 0 0 0 1e3 1e-8 0 4 5 1 0 1 2 6 0 7 8 9 0
 0 10 11 12 0 0 0 0 0 0 0 81 255 1 2 164 13 1 14 0 0 0 15 70 11 CI9 list_type0 0
 1 uI10 notransmit0 0 1 lCCCDCCDI12 finger_index0 0 1 dI12 finger_block1012 0 CZ
3 0 4 T1 0 0 5 20 1 16 16 13 255 6 5 0 1 0 17 0 0 18 0 50 255 7 90 0 19 20 0 0 +
1.663702 2.232025 3.825875 0 1 0 0 0 1 30 255 8 98 0 21 22 0 0 +1.663702 2.23202
5 3.6576 -1 0 0 29 255 9 85 0 12 23 0 1.4732 2.232025 3.6576 19 9 CCCCCCI5 frame
230 0 CA5 owner12 0 Z10 1 0 1 18 0 24 0 V0 16 255 11 29 25 ?26 0 27 28 0 0 1 18
 255 12 53 29 30 0 31 9 ?1 81 1 29 135 32 12 0 0 0 33 34 17 255 30 0 35 26 36 12
 37 21 0 38 +18 31 57 39 40 12 41 23 ?1 81 1 39 141 32 31 0 0 42 43 44 17 40 0 4
5 46 47 31 48 49 0 26 +18 41 61 50 46 31 51 52 ?1 29 23 84 0 31 52 9 1.4732 2.23
2025 3.99415 29 52 83 0 41 53 23 1.4732 2.168525 3.99415 29 53 82 0 51 54 52 1.4
732 2.168525 3.6576 18 51 65 55 56 41 57 53 ?1 29 54 81 0 57 58 53 1.6637 2.2320
25 3.6576 18 57 69 33 37 51 59 54 ?1 29 58 80 0 59 60 54 1.6637 2.232025 3.99415
 18 59 70 43 48 57 61 58 ?1 29 60 79 0 61 62 58 1.6637 2.168525 3.6576 18 61 71
 63 64 59 65 60 ?1 29 62 78 0 65 0 60 1.6637 2.168525 3.99415 18 65 72 42 66 61
 0 62 ?1 81 1 42 140 32 65 0 0 50 39 67 17 66 0 45 47 46 65 68 69 0 70 -15 255 4
5 22 0 47 71 0 17 47 0 45 40 66 59 72 73 0 74 +17 46 0 45 66 40 41 75 27 0 76 -1
7 68 0 77 78 70 41 66 69 0 0 +16 69 47 79 ?68 49 80 81 0 0 1 17 70 0 77 68 64 65
 82 83 0 72 +15 77 11 0 70 84 0 17 64 0 77 70 78 61 85 80 0 82 -17 82 0 86 87 72
 61 70 83 0 88 -16 83 51 89 ?70 90 73 91 0 0 1 17 72 0 86 82 74 65 47 73 0 0 -15
 86 8 0 87 17 0 17 74 0 86 72 87 59 36 92 0 0 +16 73 52 93 ?47 83 0 94 0 0 1 81
 1 93 150 32 73 0 0 95 96 97 30 94 94 0 73 91 98 0 +1.6637 0 3.99415 0 1 0 30 91
 93 0 83 99 94 0 +1.6637 2.168525 3.825875 0 0 1 30 98 95 0 80 94 81 0 +1.663702
 2.168525 3.6576 -1 0 0 16 80 48 100 ?85 69 92 98 0 0 1 30 81 96 0 69 98 22 0 +1
.663702 2.168525 3.99415 -1 0 0 30 22 97 0 49 81 8 0 +1.663702 2.232025 3.99415
 -1 0 0 16 49 46 101 ?40 21 69 22 0 0 1 81 1 101 146 32 49 0 0 79 102 103 16 21
 45 104 ?30 105 49 8 0 0 1 81 1 104 143 32 21 0 0 43 100 106 16 105 41 102 ?107
 108 21 109 0 0 1 81 1 102 147 32 105 0 0 101 110 111 17 107 0 112 37 85 12 56 1
05 0 0 +16 108 37 96 ?76 27 105 113 0 0 1 30 109 74 0 105 0 114 0 +1.4732 0 3.65
76 0 1 0 30 114 75 0 27 109 113 0 +1.4732 0 3.99415 0 1 0 16 27 33 95 ?75 11 108
 114 0 0 1 30 113 76 0 108 114 28 0 +1.4732 2.168525 3.825875 0 0 1 30 28 77 0 1
1 113 115 0 +1.4732 2.232025 3.825875 0 0 1 30 115 91 0 92 28 99 0 +1.6637 2.232
025 3.825875 0 0 1 16 92 49 116 ?74 80 90 115 0 0 1 30 99 92 0 90 115 91 0 +1.66
37 0 3.6576 0 1 0 16 90 50 110 ?87 92 83 99 0 0 1 81 1 110 148 32 90 0 0 102 95
 117 17 87 0 86 74 82 57 88 90 0 0 +17 88 0 112 85 37 61 87 90 0 0 -15 112 25 0
 85 118 0 17 85 0 112 107 88 51 64 80 0 78 +17 37 0 112 88 107 57 30 21 0 36 -17
 36 0 35 30 48 57 74 92 0 87 -15 35 28 0 30 19 0 17 48 0 35 36 26 59 40 49 0 47
 -17 26 0 35 48 30 31 38 11 0 75 +17 38 0 119 56 75 12 26 11 0 107 -17 75 0 119
 38 76 31 46 27 0 0 +15 119 19 0 56 120 0 17 76 0 119 75 56 41 78 108 0 68 +17 5
6 0 119 76 38 51 107 105 0 85 -17 78 0 77 64 68 51 76 108 0 0 -14 255 120 12 121
 ?71 84 119 6 122 -0 0 71 84 24 81 1 121 167 123 120 124 0 125 126 127 14 71 20
 126 ?118 120 45 6 20 -0 0 118 120 24 14 84 9 125 ?120 17 77 6 128 -0 0 120 17 2
4 50 122 73 0 120 0 129 0 +1.4732 0 3.281358674698795 1 0 0 0 -1 0 13 24 3 0 0 0
 0 0 0 10 17 14 17 6 130 ?84 0 86 6 129 +0 0 84 0 24 81 1 130 165 123 17 131 0 0
 125 132 50 129 86 0 17 122 133 0 +1.6637 0 2.40919 1 0 0 0 -1 0 50 133 87 0 118
 129 128 0 +1.663702 0 3.6576 0 0 -1 1 0 0 14 118 23 134 ?19 71 112 6 133 +0 0 1
9 71 24 50 128 88 0 84 133 20 0 +1.663702 2.168525 3.825875 0 1 0 0 0 1 50 20 89
 0 71 128 7 0 +1.663702 0 3.99415 0 0 -1 1 0 0 81 1 134 169 123 118 135 0 126 13
6 137 14 19 26 136 ?0 118 35 6 7 +0 0 0 118 24 81 1 136 170 123 19 138 0 134 0 1
39 80 7 CCCCCDI12 legal_owners0 17 1 lCZ1 123 0 140 8001 0 0 0 0 3 5 0 0 0 FFFFT
FTFFFFFFFFFF2 81 1 138 160 32 19 0 136 141 142 143 83 255 3 139 .768627450980392
 .886274509803922 .952941176470588 80 1 32 144 145 9000 0 0 0 0 3 6 0 0 0 FFTFTF
TTFFFFFFFFF1 81 1 141 159 32 84 0 125 146 138 147 81 1 142 161 32 1 0 148 138 0
 149 82 255 3 143 124 67 2 81 1 148 162 150 1 142 14 0 0 151 82 3 149 124 0 3 80
 1 150 152 153 8038 0 0 0 0 0 0 0 0 0 TTTTTTTTTTTTTFTFT10 81 1 14 163 152 1 148
 2 0 0 154 98 255 8 151 80 97 114 116 32 49 57 56 80 1 152 155 156 8017 0 0 0 0
 0 0 0 0 0 TTTTTTTTTTTTTFTFT3 84 255 8 154 Part 19879 255 13 156 SDL/TYSA_NAME79
 14 153 SDL/TYSA_UNAME81 1 125 166 123 84 141 0 130 121 157 81 1 146 158 32 71 0
 126 131 141 158 82 3 147 124 66 2 81 1 126 168 123 71 146 0 121 134 159 81 1 13
1 157 32 17 0 130 124 146 160 82 3 158 124 47 2 81 1 124 156 32 120 0 121 135 13
1 161 82 3 160 124 2 2 81 1 135 155 32 118 0 134 116 124 162 82 3 161 124 1 2 81
 1 116 154 32 92 0 0 25 135 163 82 3 162 124 0 2 81 1 25 153 32 11 0 0 89 116 16
4 82 3 163 124 135 1 81 1 89 152 32 83 0 0 96 25 165 82 3 164 124 134 1 81 1 96
 151 32 108 0 0 93 89 166 82 3 165 124 133 1 82 3 166 124 132 1 83 3 159 .768627
450980392 .886274509803922 .952941176470588 83 3 157 .768627450980392 .886274509
803922 .952941176470588 79 9 145 BTI/DetId79 15 140 SDL/TYSA_COLOUR83 3 137 .768
627450980392 .886274509803922 .952941176470588 83 3 132 .768627450980392 .886274
509803922 .952941176470588 83 3 127 .768627450980392 .886274509803922 .952941176
470588 81 1 95 149 32 27 0 0 110 93 167 82 3 117 124 49 1 82 3 167 124 94 1 82 3
 111 124 48 1 81 1 43 142 32 59 0 0 39 104 168 81 1 100 144 32 80 0 0 104 79 169
 82 3 106 124 0 1 81 1 79 145 32 69 0 0 100 101 170 82 3 169 124 37 1 82 3 170 1
24 38 1 82 3 168 124 79 0 82 3 103 124 39 1 82 3 97 124 95 1 81 1 50 139 32 41 0
 0 63 42 171 82 3 67 124 77 0 81 1 63 138 32 61 0 0 55 50 172 82 3 171 124 76 0
 81 1 55 137 32 51 0 0 33 63 173 82 3 172 124 75 0 81 1 33 136 32 57 0 0 29 55 1
74 82 3 173 124 74 0 82 3 174 124 1 0 82 3 44 124 78 0 82 3 34 124 0 0 19 18 4 0
 1 0 10 6 0 S0 74 4 CI16 index_map_offset0 0 1 dCCZ20 16 5 0 0 142 148 14 2 136
 0 0 0 0 0 0 0 0 0 0 0 0 0 0 0 80 1 13 123 175 8040 0 0 0 0 3 5 0 0 0 TTTFFFFFFF
FFFFFFF2 83 3 15 .768627450980392 .886274509803922 .952941176470588 79 17 175 SD
L/TYSA_COLOUR_21 0 
