**ABCDEFGHIJKLMNOPQRSTUVWXYZabcdefghijklmnopqrstuvwxyz**************************
**PARASOLID !"#$%&'()*+,-./:;<=>?@[\]^_`{|}~0123456789**************************
**PART1;
MC=unknown;
MC_MODEL=unknown;
MC_ID=unknown;
OS=unknown;
OS_RELEASE=unknown;
FRU=Parasolid 36.0.180;
APPL=Onshape;
SITE=unknown;
USER=unknown;
FORMAT=text;
GUISE=transmit;
KEY=BTGapi::writeModels_.xmt;
FILE=BTGapi::writeModels_.xmt;
DATE=2024-05-15T00:06:35 (UTC);
**PART2;
SCH=SCH_3600180_36001;
USFLD_SIZE=0;
**PART3;
**END_OF_HEADER*****************************************************************
T51 : TRANSMIT FILE created by modeller version 360018023 SCH_3600180_36001_1300
6231 0 12 36 CCCI7 lattice222 0 CCCI4 mesh1006 0 I8 polyline1008 0 CCCCCCCDI5 ow
ner1040 0 CCCI16 boundary_lattice222 0 CCCI13 boundary_mesh1006 0 I17 boundary_p
olyline1008 0 CCCA16 index_map_offset0 0 1 dA9 index_map82 0 A17 node_id_index_m
ap82 0 A20 schema_embedding_map82 0 A5 child12 0 A14 lowest_node_id0 0 1 dA16 me
sh_offset_data206 0 Z1 170 2 3 0 0 0 0 0 0 0 1e3 1e-8 0 4 5 1 0 1 2 6 0 7 8 9 0
 0 10 11 12 0 0 0 0 0 0 0 81 255 1 2 164 13 1 14 0 0 0 15 70 11 CI9 list_type0 0
 1 uI10 notransmit0 0 1 lCCCDCCDI12 finger_index0 0 1 dI12 finger_block1012 0 CZ
3 0 4 T1 0 0 5 20 1 16 16 13 255 6 5 0 1 0 17 0 0 18 0 50 255 7 90 0 19 20 0 0 +
1.663702 1.800225 3.825875 0 1 0 0 0 1 30 255 8 98 0 21 22 0 0 +1.663702 1.80022
5 3.6576 -1 0 0 29 255 9 85 0 12 23 0 1.4732 1.736725 3.6576 19 9 CCCCCCI5 frame
230 0 CA5 owner12 0 Z10 1 0 1 18 0 24 0 V0 16 255 11 29 25 ?26 0 27 28 0 0 1 18
 255 12 53 29 30 0 31 9 ?1 81 1 29 135 32 12 0 0 0 33 34 17 255 30 0 35 36 37 12
 26 11 0 38 -18 31 57 39 40 12 41 23 ?1 81 1 39 137 32 31 0 0 33 42 43 17 40 0 4
4 45 46 31 47 48 0 36 -18 41 61 49 46 31 50 51 ?1 29 23 84 0 31 51 9 1.4732 1.73
6725 3.99415 29 51 83 0 41 52 23 1.4732 1.800225 3.99415 29 52 82 0 50 53 51 1.4
732 1.800225 3.6576 18 50 65 54 55 41 56 52 ?1 29 53 81 0 56 57 52 1.6637 1.8002
25 3.6576 18 56 69 58 59 50 60 53 ?1 29 57 80 0 60 61 53 1.6637 1.800225 3.99415
 18 60 70 62 63 56 64 57 ?1 29 61 79 0 64 65 57 1.6637 1.736725 3.6576 18 64 71
 33 66 60 67 61 ?1 29 65 78 0 67 0 61 1.6637 1.736725 3.99415 18 67 72 42 45 64
 0 65 ?1 81 1 42 138 32 67 0 0 39 54 68 17 45 0 44 69 40 67 70 71 0 72 -15 255 4
4 22 0 69 73 0 17 69 0 44 46 45 60 74 75 0 76 +17 70 0 77 78 72 31 45 71 0 0 +16
 71 47 79 ?70 80 81 82 0 0 1 17 72 0 77 70 66 67 83 84 0 74 +15 77 11 0 72 85 0
 17 66 0 77 72 78 64 38 81 0 83 -17 83 0 86 87 74 64 72 84 0 88 -16 84 51 89 ?72
 90 75 91 0 0 1 17 74 0 86 83 76 67 69 75 0 0 -15 86 8 0 87 17 0 17 76 0 86 74 8
7 60 92 93 0 0 +16 75 52 94 ?69 84 0 95 0 0 1 81 1 94 150 32 75 0 0 96 97 98 30
 95 94 0 75 91 99 0 +1.6637 0 3.99415 0 1 0 30 91 93 0 84 100 95 0 +1.6637 1.736
725 3.825875 0 0 1 30 99 95 0 81 95 82 0 +1.663702 1.736725 3.6576 -1 0 0 16 81
 48 101 ?38 71 93 99 0 0 1 30 82 96 0 71 99 22 0 +1.663702 1.736725 3.99415 -1 0
 0 30 22 97 0 80 82 8 0 +1.663702 1.800225 3.99415 -1 0 0 16 80 46 102 ?46 21 71
 22 0 0 1 81 1 102 146 32 80 0 0 103 25 104 17 46 0 44 40 69 41 63 80 0 105 +16
 21 45 103 ?55 106 80 8 0 0 1 81 1 103 145 32 21 0 0 79 102 107 17 55 0 108 105
 92 50 59 21 0 37 +16 106 41 109 ?105 48 21 110 0 0 1 81 1 109 153 32 106 0 0 89
 111 112 17 105 0 108 63 55 41 37 106 0 47 +16 48 37 96 ?47 27 106 113 0 0 1 30
 110 74 0 106 0 114 0 +1.4732 1.800225 3.825875 0 0 1 30 114 75 0 27 110 113 0 +
1.4732 1.736725 3.825875 0 0 1 16 27 33 97 ?36 11 48 114 0 0 1 30 113 76 0 48 11
4 28 0 +1.4732 0 3.99415 0 1 0 30 28 77 0 11 113 115 0 +1.4732 0 3.6576 0 1 0 30
 115 91 0 93 28 100 0 +1.6637 1.800225 3.825875 0 0 1 16 93 49 111 ?76 81 90 115
 0 0 1 30 100 92 0 90 115 91 0 +1.6637 0 3.6576 0 1 0 16 90 50 116 ?87 93 84 100
 0 0 1 81 1 116 148 32 90 0 0 25 96 117 17 87 0 86 76 83 56 88 90 0 0 +17 88 0 1
18 38 59 64 87 90 0 0 -15 118 25 0 38 119 0 17 38 0 118 26 88 12 66 81 0 78 +17
 59 0 118 88 26 56 55 21 0 92 -17 26 0 118 59 38 50 30 11 0 0 +17 92 0 108 55 63
 56 76 93 0 87 -15 108 28 0 55 19 0 17 63 0 108 92 105 60 46 80 0 69 -14 255 19
 26 120 ?0 119 108 6 7 +0 0 0 119 24 81 1 120 170 121 19 122 0 123 0 124 14 119
 23 123 ?19 73 118 6 125 +0 0 19 73 24 13 24 3 0 0 0 0 0 0 10 17 14 17 6 126 ?85
 0 86 6 127 +0 0 85 0 24 81 1 126 165 121 17 128 0 0 129 130 14 85 9 129 ?131 17
 77 6 132 -0 0 131 17 24 50 127 86 0 17 133 125 0 +1.6637 0 2.40919 1 0 0 0 -1 0
 50 133 73 0 131 0 127 0 +1.4732 0 3.281358674698795 1 0 0 0 -1 0 50 125 87 0 11
9 127 132 0 +1.663702 0 3.6576 0 0 -1 1 0 0 50 132 88 0 85 125 20 0 +1.663702 1.
736725 3.825875 0 1 0 0 0 1 50 20 89 0 73 132 7 0 +1.663702 0 3.99415 0 0 -1 1 0
 0 14 73 20 134 ?119 131 44 6 20 -0 0 119 131 24 81 1 134 168 121 73 135 0 136 1
23 137 14 131 12 136 ?73 85 35 6 133 -0 0 73 85 24 81 1 136 167 121 131 138 0 12
9 134 139 15 35 19 0 30 131 0 80 7 CCCCCDI12 legal_owners0 17 1 lCZ1 121 0 140 8
001 0 0 0 0 3 5 0 0 0 FFFFTFTFFFFFFFFFF2 81 1 138 156 32 131 0 136 141 128 142 8
1 1 129 166 121 85 143 0 126 136 144 83 255 3 139 .972549019607843 .529411764705
882 .00392156862745098 81 1 143 159 32 85 0 129 135 122 145 83 3 144 .9725490196
07843 .529411764705882 .00392156862745098 80 1 32 146 147 9000 0 0 0 0 3 6 0 0 0
 FFTFTFTTFFFFFFFFF1 81 1 135 158 32 73 0 134 128 143 148 81 1 122 160 32 19 0 12
0 143 149 150 82 255 3 145 124 64 2 81 1 149 161 32 1 0 151 122 0 152 82 3 150 1
24 65 2 81 1 151 162 153 1 149 14 0 0 154 82 3 152 124 1 3 80 1 153 155 156 8038
 0 0 0 0 0 0 0 0 0 TTTTTTTTTTTTTFTFT10 81 1 14 163 155 1 151 2 0 0 157 98 255 8
 154 80 97 114 116 32 49 57 57 80 1 155 158 159 8017 0 0 0 0 0 0 0 0 0 TTTTTTTTT
TTTTFTFT3 84 255 8 157 Part 19979 255 13 159 SDL/TYSA_NAME79 14 156 SDL/TYSA_UNA
ME81 1 128 157 32 17 0 126 138 135 160 82 3 148 124 46 2 82 3 160 124 5 2 79 9 1
47 BTI/DetId81 1 141 155 32 119 0 123 111 138 161 82 3 142 124 4 2 81 1 123 169
 121 119 141 0 134 120 162 81 1 111 154 32 93 0 0 109 141 163 82 3 161 124 3 2 8
2 3 163 124 131 1 83 3 162 .972549019607843 .529411764705882 .00392156862745098
 79 15 140 SDL/TYSA_COLOUR83 3 137 .972549019607843 .529411764705882 .0039215686
2745098 83 3 130 .972549019607843 .529411764705882 .00392156862745098 83 3 124 .
972549019607843 .529411764705882 .00392156862745098 17 78 0 77 66 70 12 36 27 0
 0 -17 36 0 35 47 30 31 78 27 0 70 +17 47 0 35 37 36 41 40 48 0 0 +17 37 0 35 30
 47 50 105 106 0 26 -81 1 25 147 32 11 0 0 102 116 164 81 1 96 149 32 48 0 0 116
 94 165 82 3 117 124 51 1 82 3 165 124 92 1 82 3 164 124 50 1 81 1 97 151 32 27
 0 0 94 89 166 81 1 89 152 32 84 0 0 97 109 167 82 3 166 124 128 1 82 3 167 124
 129 1 82 3 112 124 130 1 81 1 79 144 32 71 0 0 101 103 168 82 3 107 124 35 1 81
 1 101 143 32 81 0 0 62 79 169 82 3 168 124 34 1 81 1 62 142 32 60 0 0 49 101 17
0 82 3 169 124 33 1 81 1 49 141 32 41 0 0 58 62 171 82 3 170 124 73 0 81 1 58 14
0 32 56 0 0 54 49 172 82 3 171 124 72 0 81 1 54 139 32 50 0 0 42 58 173 82 3 172
 124 71 0 82 3 173 124 70 0 82 3 104 124 36 1 82 3 98 124 93 1 82 3 68 124 69 0
 81 1 33 136 32 64 0 0 29 39 174 82 3 174 124 67 0 82 3 43 124 68 0 82 3 34 124
 66 0 19 18 4 0 1 0 10 6 0 S0 74 4 CI16 index_map_offset0 0 1 dCCZ20 16 5 0 0 14
9 151 14 2 120 0 0 0 0 0 0 0 0 0 0 0 0 0 0 0 80 1 13 121 175 8040 0 0 0 0 3 5 0
 0 0 TTTFFFFFFFFFFFFFF2 83 3 15 .972549019607843 .529411764705882 .0039215686274
5098 79 17 175 SDL/TYSA_COLOUR_21 0 
