**ABCDEFGHIJKLMNOPQRSTUVWXYZabcdefghijklmnopqrstuvwxyz**************************
**PARASOLID !"#$%&'()*+,-./:;<=>?@[\]^_`{|}~0123456789**************************
**PART1;
MC=unknown;
MC_MODEL=unknown;
MC_ID=unknown;
OS=unknown;
OS_RELEASE=unknown;
FRU=Parasolid 36.0.180;
APPL=Onshape;
SITE=unknown;
USER=unknown;
FORMAT=text;
GUISE=transmit;
KEY=BTGapi::writeModels_.xmt;
FILE=BTGapi::writeModels_.xmt;
DATE=2024-05-15T00:06:35 (UTC);
**PART2;
SCH=SCH_3600180_36001;
USFLD_SIZE=0;
**PART3;
**END_OF_HEADER*****************************************************************
T51 : TRANSMIT FILE created by modeller version 360018023 SCH_3600180_36001_1300
6231 0 12 36 CCCI7 lattice222 0 CCCI4 mesh1006 0 I8 polyline1008 0 CCCCCCCDI5 ow
ner1040 0 CCCI16 boundary_lattice222 0 CCCI13 boundary_mesh1006 0 I17 boundary_p
olyline1008 0 CCCA16 index_map_offset0 0 1 dA9 index_map82 0 A17 node_id_index_m
ap82 0 A20 schema_embedding_map82 0 A5 child12 0 A14 lowest_node_id0 0 1 dA16 me
sh_offset_data206 0 Z1 226 2 3 0 0 0 0 0 0 0 1e3 1e-8 0 4 5 1 0 1 2 6 0 7 8 9 0
 0 10 11 12 0 0 0 0 0 0 0 81 255 1 2 220 13 1 14 0 0 0 15 70 11 CI9 list_type0 0
 1 uI10 notransmit0 0 1 lCCCDCCDI12 finger_index0 0 1 dI12 finger_block1012 0 CZ
3 0 4 T1 0 0 5 20 1 16 16 13 255 6 174 0 1 0 17 0 0 18 0 50 255 7 169 0 19 20 0
 0 +-1.5367 -.818691148138101 6.3500168543909 -1 -150129908673195e-30 -103101262
5827964e-31 150129908673195e-30 -1 0 30 255 8 173 0 21 22 0 0 +-1.5367 -.3161786
04214909 6.69511583033815 0 .566107244007959 -.824331600923871 29 255 9 150 0 23
 24 0 -3.1115 -.307640999341213 6.68268387938171 19 9 CCCCCCI5 frame230 0 CA5 ow
ner12 0 Z10 1 0 1 18 0 25 0 V0 16 255 11 156 26 ?27 0 21 22 0 0 1 18 255 12 39 2
8 29 0 30 31 ?1 81 1 28 196 32 12 0 0 33 34 35 17 255 29 0 36 37 38 12 39 40 0 4
1 +18 30 42 42 43 12 44 45 ?1 29 31 61 0 12 45 46 -3.1115 -.316178604214908 6.69
511583033814 29 45 60 0 30 47 31 -3.1115 -1.321203692061292 6.00491787844364 29
 46 153 0 48 31 49 -1.5367 -.307640999341214 6.68268387938171 18 48 141 50 51 52
 0 46 ?1 29 49 152 0 52 46 24 -1.5367 -1.3126660871876 5.99248592748721 18 52 13
7 34 27 53 48 49 ?1 29 24 151 0 53 49 9 -3.1115 -1.312666087187596 5.99248592748
721 18 53 133 54 55 23 52 24 ?1 81 1 54 191 32 53 0 0 0 42 56 17 55 0 57 58 59 5
3 43 60 0 61 +18 23 129 33 62 63 53 9 ?1 81 1 33 195 32 23 0 0 64 28 65 17 62 0
 66 61 67 23 41 68 0 69 +18 63 48 64 38 44 23 70 ?1 81 1 64 194 32 63 0 0 50 33
 71 17 38 0 36 29 72 63 73 74 0 75 +18 44 45 76 77 30 63 47 ?1 29 70 58 0 63 0 4
7 -1.5367 -.316178604214909 6.69511583033815 29 47 59 0 44 70 45 -1.5367 -1.3212
03692061294 6.00491787844364 81 1 76 198 32 44 0 0 34 78 79 17 77 0 57 59 58 44
 27 11 0 73 -15 255 57 158 0 58 17 0 17 59 0 57 55 77 30 72 80 0 0 +17 58 0 57 7
7 55 52 81 82 0 0 -17 27 0 83 51 73 52 77 11 0 84 +17 73 0 83 27 75 44 38 74 0 7
2 -15 83 164 0 51 19 0 17 75 0 83 73 51 63 85 21 0 39 -16 74 27 86 ?38 87 82 88
 0 0 1 17 72 0 36 38 37 44 59 80 0 0 -15 36 7 0 72 89 0 17 37 0 36 72 29 30 67 8
7 0 59 -16 80 12 90 ?59 60 40 91 0 0 1 81 1 90 204 32 80 0 0 92 93 94 16 60 155
 78 ?55 68 80 95 0 0 1 16 40 18 96 ?29 80 87 97 0 0 1 30 91 57 0 80 97 98 0 +-2.
3241 -1.321203692061294 6.00491787844364 -1 -958117377779068e-31 -65798422329405
8e-31 30 97 55 0 40 88 91 0 +-2.3241 -.31617860421491 6.69511583033815 -1 -71858
8033334301e-31 -493488167470544e-31 30 98 68 0 87 91 99 0 +-3.1115 -4.3101064272
7111 3.95229792775738 0 .824331600923871 .566107244007959 16 87 21 100 ?67 40 74
 98 0 0 1 30 99 149 0 101 98 102 0 +-1.5367 -.810153543264406 6.33758490343446 -
182123199577617e-30 .824331600923871 .56610724400796 16 101 125 103 ?51 104 0 99
 0 0 1 30 102 148 0 105 99 106 0 +-2.3241 -.307640999341215 6.68268387938171 -1
 -718588033334301e-31 -493488167470544e-31 16 105 115 93 ?69 82 104 102 0 0 1 30
 106 147 0 82 102 107 0 +-2.3241 -1.3126660871876 5.99248592748721 -1 -958117377
779068e-31 -657984223294058e-31 16 82 109 92 ?81 74 105 106 0 0 1 30 107 146 0 1
04 106 108 0 +-3.1115 -4.301568822397415 3.939865976800945 0 .824331600923871 .5
66107244007959 16 104 121 109 ?110 105 101 107 0 0 1 30 108 170 0 68 107 95 0 +-
3.1115 -.316178604214908 6.69511583033814 0 .566107244007959 -.824331600923871 1
6 68 154 111 ?62 21 60 108 0 0 1 30 95 171 0 60 108 22 0 +-3.1115 -1.32120369206
1292 6.00491787844364 0 .566107244007959 -.824331600923871 30 22 172 0 11 95 8 0
 +-1.5367 -1.321203692061294 6.00491787844364 0 .566107244007959 -.8243316009238
71 81 1 111 201 32 68 0 0 112 26 113 16 21 157 112 ?85 11 68 8 0 0 1 81 1 112 20
0 32 21 0 0 78 111 114 17 85 0 115 69 39 48 75 21 0 116 +15 115 160 0 69 117 0 1
7 69 0 115 41 85 23 116 105 0 110 +17 39 0 115 85 41 63 29 40 0 0 -17 116 0 118
 84 110 48 69 105 0 0 -15 118 108 0 81 119 0 17 84 0 118 81 116 52 51 101 0 58 -
17 110 0 118 116 81 23 61 104 0 0 +17 81 0 118 110 84 53 58 82 0 0 +17 61 0 66 4
3 62 53 110 104 0 81 -15 66 162 0 61 120 0 17 43 0 66 67 61 30 55 60 0 37 -17 67
 0 66 62 43 12 37 87 0 0 +14 255 120 163 121 ?89 117 66 6 20 +0 0 89 117 25 81 1
 121 224 122 120 123 0 124 125 126 14 89 4 125 ?119 120 36 6 127 +0 0 119 120 25
 14 117 161 124 ?120 19 115 6 128 -0 0 120 19 25 50 20 168 0 120 128 7 0 +-3.111
5 -4.31010642727111 3.95229792775738 -1 0 0 0 0 1 13 25 3 0 0 0 0 0 0 10 17 14 1
7 159 129 ?19 0 57 6 130 +0 0 19 0 25 81 1 129 221 122 17 131 0 0 132 133 14 19
 165 132 ?117 17 83 6 7 -0 0 117 17 25 50 130 166 0 17 134 128 0 +-2.3241 -1.321
203692061294 6.00491787844364 1162296067147318e-31 -.824331600923871 -.566107244
007959 0 .56610724400796 -.824331600923872 50 134 145 0 119 127 130 0 +-.3175 -2
.17465501836173 5.40051762535558 0 -.56610724400796 .824331600923871 1 0 0 50 12
8 167 0 117 130 20 0 +-2.3241 -.31617860421491 6.69511583033815 871722050360489e
-31 -.824331600923871 -.566107244007959 0 .56610724400796 -.824331600923872 14 1
19 98 135 ?0 89 118 6 134 -0 0 0 89 25 50 127 71 0 89 0 134 0 +-.3175 -2.1831926
23235425 5.41294957631201 0 -.56610724400796 .824331600923871 1 0 0 81 1 135 226
 122 119 136 0 125 0 137 80 7 CCCCCDI12 legal_owners0 17 1 lCZ1 122 0 138 8001 0
 0 0 0 3 5 0 0 0 FFFFTFTFFFFFFFFFF2 81 1 136 212 32 119 0 135 131 139 140 81 1 1
25 225 122 89 139 0 121 135 141 83 255 3 137 .647058823529412 .647058823529412 .
647058823529412 81 1 139 213 32 89 0 125 136 142 143 83 3 141 .647058823529412 .
647058823529412 .647058823529412 80 1 32 144 145 9000 0 0 0 0 3 6 0 0 0 FFTFTFTT
FFFFFFFFF1 81 1 142 214 32 117 0 124 139 146 147 82 255 3 143 117 23 2 81 1 124
 223 122 117 142 0 132 121 148 81 1 146 215 32 19 0 132 142 123 149 82 3 147 117
 30 2 81 1 132 222 122 19 146 0 129 124 150 81 1 123 216 32 120 0 121 146 151 15
2 82 3 149 117 31 2 81 1 151 217 32 1 0 153 123 0 154 82 3 152 117 32 2 81 1 153
 218 155 1 151 14 0 0 156 82 3 154 117 4 3 80 1 155 157 158 8038 0 0 0 0 0 0 0 0
 0 TTTTTTTTTTTTTFTFT10 81 1 14 219 157 1 153 2 0 0 159 98 255 8 156 80 97 114 11
6 32 49 54 48 80 1 157 160 161 8017 0 0 0 0 0 0 0 0 0 TTTTTTTTTTTTTFTFT3 84 255
 8 159 Part 16079 255 13 161 SDL/TYSA_NAME79 14 158 SDL/TYSA_UNAME83 3 150 .6470
58823529412 .647058823529412 .647058823529412 83 3 148 .647058823529412 .6470588
23529412 .647058823529412 79 9 145 BTI/DetId81 1 131 211 32 17 0 129 100 136 162
 82 3 140 117 22 2 81 1 100 210 32 87 0 0 109 131 163 82 3 162 117 21 2 81 1 109
 209 32 104 0 0 86 100 164 82 3 163 117 69 1 81 1 86 208 32 74 0 0 103 109 165 8
2 3 164 117 68 1 81 1 103 207 32 101 0 0 96 86 166 82 3 165 117 67 1 81 1 96 206
 32 40 0 0 93 103 167 82 3 166 117 66 1 81 1 93 205 32 105 0 0 90 96 168 82 3 16
7 117 65 1 82 3 168 117 64 1 79 15 138 SDL/TYSA_COLOUR83 3 133 .647058823529412
 .647058823529412 .647058823529412 83 3 126 .647058823529412 .647058823529412 .6
47058823529412 17 51 0 83 75 27 48 84 101 0 85 +17 41 0 115 39 69 12 62 68 0 67
 -81 1 78 199 32 60 0 0 76 112 169 82 3 114 117 18 1 82 3 169 117 13 1 81 1 26 2
02 32 11 0 0 111 92 170 82 3 113 117 19 1 81 1 92 203 32 82 0 0 26 90 171 82 3 1
70 117 20 1 82 3 171 117 54 1 30 88 52 0 74 0 97 0 +-1.5367 -.818691148138101 6.
3500168543909 -182123199577617e-30 .824331600923871 .56610724400796 82 3 94 117
 55 1 81 1 34 197 32 52 0 0 28 76 172 82 3 79 117 41 0 82 3 172 117 40 0 81 1 50
 193 32 48 0 0 42 64 173 82 3 71 117 37 0 81 1 42 192 32 30 0 0 54 50 174 82 3 1
73 117 36 0 82 3 174 117 27 0 82 3 65 117 38 0 82 3 56 117 26 0 82 3 35 117 39 0
 19 18 175 0 1 0 10 6 0 S0 74 4 CI16 index_map_offset0 0 1 dCCZ20 16 5 0 0 151 1
53 14 2 135 0 0 0 0 0 0 0 0 0 0 0 0 0 0 0 80 1 13 122 175 8040 0 0 0 0 3 5 0 0 0
 TTTFFFFFFFFFFFFFF2 83 3 15 .647058823529412 .647058823529412 .647058823529412 7
9 17 175 SDL/TYSA_COLOUR_21 0 
