**ABCDEFGHIJKLMNOPQRSTUVWXYZabcdefghijklmnopqrstuvwxyz**************************
**PARASOLID !"#$%&'()*+,-./:;<=>?@[\]^_`{|}~0123456789**************************
**PART1;
MC=unknown;
MC_MODEL=unknown;
MC_ID=unknown;
OS=unknown;
OS_RELEASE=unknown;
FRU=Parasolid 36.0.180;
APPL=Onshape;
SITE=unknown;
USER=unknown;
FORMAT=text;
GUISE=transmit;
KEY=BTGapi::writeModels_.xmt;
FILE=BTGapi::writeModels_.xmt;
DATE=2024-05-15T00:06:35 (UTC);
**PART2;
SCH=SCH_3600180_36001;
USFLD_SIZE=0;
**PART3;
**END_OF_HEADER*****************************************************************
T51 : TRANSMIT FILE created by modeller version 360018023 SCH_3600180_36001_1300
6231 0 12 36 CCCI7 lattice222 0 CCCI4 mesh1006 0 I8 polyline1008 0 CCCCCCCDI5 ow
ner1040 0 CCCI16 boundary_lattice222 0 CCCI13 boundary_mesh1006 0 I17 boundary_p
olyline1008 0 CCCA16 index_map_offset0 0 1 dA9 index_map82 0 A17 node_id_index_m
ap82 0 A20 schema_embedding_map82 0 A5 child12 0 A14 lowest_node_id0 0 1 dA16 me
sh_offset_data206 0 Z1 205 2 3 0 0 0 0 0 0 0 1e3 1e-8 0 4 5 1 0 1 2 6 0 7 8 9 0
 0 10 11 12 0 0 0 0 0 0 0 81 255 1 2 199 13 1 14 0 0 0 15 70 11 CI9 list_type0 0
 1 uI10 notransmit0 0 1 lCCCDCCDI12 finger_index0 0 1 dI12 finger_block1012 0 CZ
3 0 4 T1 0 0 5 20 1 16 16 13 255 6 128 0 1 0 17 0 0 18 0 50 255 7 123 0 19 20 0
 0 +-.6731 1.823716235984485 5.65981890249639 -1 150129908673195e-30 -1031012625
827964e-31 150129908673195e-30 1 0 30 255 8 127 0 21 22 0 0 +-.6731 2.3262287799
0768 5.31471992654914 0 -.566107244007959 -.824331600923871 29 255 9 104 0 23 24
 0 .038100000000001 2.317691175033985 5.3022879755927 19 9 CCCCCCI5 frame230 0 C
A5 owner12 0 Z10 1 0 1 18 0 25 0 V0 16 255 11 108 26 ?27 0 28 29 0 0 1 18 255 12
 20 30 31 0 32 33 ?1 81 1 30 177 34 12 0 0 35 36 37 17 255 31 0 38 39 40 12 41 4
2 0 43 -18 32 23 44 40 12 45 46 ?1 29 33 39 0 12 46 47 .038100000000001 2.326228
77990768 5.31471992654914 29 46 38 0 32 48 33 .0381000000000007 1.32120369206129
4 6.00491787844364 29 47 107 0 49 33 50 -.6731 2.317691175033985 5.3022879755927
 18 49 95 51 52 53 0 47 ?1 29 50 106 0 53 47 24 -.6731 1.3126660871876 5.9924859
2748721 18 53 91 54 55 56 49 50 ?1 29 24 105 0 56 50 9 .0381000000000007 1.31266
60871876 5.99248592748721 18 56 87 57 58 23 53 24 ?1 81 1 57 174 34 56 0 0 59 44
 60 17 58 0 61 62 63 56 64 65 0 66 -18 23 83 35 67 68 56 9 ?1 81 1 35 176 34 23
 0 0 44 30 69 17 67 0 70 43 66 23 71 72 0 27 -18 68 29 59 73 45 23 74 ?1 81 1 59
 173 34 68 0 0 51 57 75 17 73 0 76 77 78 68 79 80 0 39 -18 45 26 81 79 32 68 48
 ?1 29 74 36 0 68 0 48 -.6731 2.32622877990768 5.31471992654914 29 48 37 0 45 74
 46 -.6731 1.321203692061294 6.00491787844364 81 1 81 171 34 45 0 0 54 51 82 17
 79 0 38 40 39 45 73 80 0 78 +15 255 38 7 0 39 83 0 17 40 0 38 31 79 32 84 85 0
 62 -17 39 0 38 79 31 68 86 87 0 88 +16 80 17 89 ?79 85 90 91 0 0 1 17 78 0 76 7
3 55 45 63 92 0 84 -15 76 118 0 55 19 0 17 55 0 76 78 77 53 52 93 0 63 +17 63 0
 61 58 84 53 78 92 0 64 +16 92 110 36 ?63 28 21 22 0 0 1 17 84 0 61 63 62 45 40
 85 0 0 +15 61 116 0 58 94 0 17 62 0 61 84 58 32 66 28 0 41 -16 85 14 95 ?84 42
 80 96 0 0 1 81 1 95 189 34 85 0 0 97 98 99 16 42 11 100 ?41 87 85 101 0 0 1 30
 96 33 0 85 91 101 0 +-.3175 1.321203692061294 6.00491787844364 -1 0 0 30 91 32
 0 80 0 96 0 +-.6731 1.823716235984485 5.65981890249639 -1821231995776175e-31 -.
824331600923871 .566107244007959 30 101 34 0 42 96 102 0 +.03810000000000085 1.8
23716235984485 5.65981890249639 -187814549564418e-30 -.824331600923871 .56610724
4007959 30 102 35 0 87 101 103 0 +-.3175 2.32622877990768 5.31471992654914 -1 0
 0 16 87 8 104 ?39 21 42 102 0 0 1 30 103 103 0 93 102 105 0 +-.6731 1.815178631
11079 5.64738695153996 -1821231995776175e-31 -.824331600923871 .566107244007959
 16 93 79 106 ?55 65 0 103 0 0 1 30 105 102 0 65 103 107 0 +-.3175 1.31266608718
76 5.99248592748721 -1 0 0 16 65 75 97 ?64 72 93 105 0 0 1 30 107 101 0 72 105 1
08 0 +.03810000000000085 1.81517863111079 5.64738695153996 -187814549564418e-30
 -.824331600923871 .566107244007959 16 72 71 109 ?71 90 65 107 0 0 1 30 108 100
 0 90 107 29 0 +-.3175 2.317691175033985 5.3022879755927 -1 0 0 16 90 67 110 ?11
1 80 72 108 0 0 1 30 29 124 0 11 108 112 0 +.038100000000001 2.32622877990768 5.
31471992654914 0 -.566107244007959 -.824331600923871 30 112 125 0 28 29 22 0 +.0
381000000000007 1.321203692061294 6.00491787844364 0 -.566107244007959 -.8243316
00923871 16 28 109 113 ?66 11 92 112 0 0 1 30 22 126 0 92 112 8 0 +-.6731 1.3212
03692061294 6.00491787844364 0 -.566107244007959 -.824331600923871 81 1 113 180
 34 28 0 0 114 26 115 17 66 0 70 67 41 56 62 28 0 71 +15 70 114 0 67 116 0 17 41
 0 70 66 43 32 31 42 0 0 +17 71 0 117 64 118 56 67 72 0 0 +15 117 66 0 118 119 0
 17 64 0 117 52 71 53 58 65 0 0 +17 118 0 117 71 52 23 111 90 0 0 -17 52 0 117 1
18 64 49 55 93 0 77 -17 111 0 120 88 27 49 118 90 0 0 +15 120 112 0 111 17 0 17
 88 0 120 86 111 68 77 21 0 0 -17 27 0 120 111 86 23 43 11 0 118 +17 86 0 120 27
 88 12 39 87 0 0 -17 43 0 70 41 67 12 27 11 0 86 -17 77 0 76 55 73 49 88 21 0 11
1 +16 21 111 114 ?77 92 87 8 0 0 1 81 1 114 179 34 21 0 0 36 113 121 80 7 CCCCCD
I12 legal_owners0 17 1 lCZ1 34 122 123 9000 0 0 0 0 3 6 0 0 0 FFTFTFTTFFFFFFFFF1
 81 1 36 178 34 92 0 0 30 114 124 82 255 3 121 120 14 1 82 3 124 120 12 1 79 255
 9 123 BTI/DetId14 255 17 113 125 ?116 0 120 6 126 +0 0 116 0 25 81 1 125 200 12
7 17 98 0 0 128 129 14 116 115 128 ?94 17 70 6 130 -0 0 94 17 25 50 126 120 0 17
 131 130 0 +-.3175 2.32622877990768 5.31471992654914 0 .824331600923871 -.566107
244007959 0 -.56610724400796 -.824331600923872 13 25 3 0 0 0 0 0 0 10 17 50 131
 99 0 119 132 126 0 +-.3175 2.17465501836173 5.40051762535558 0 .56610724400796
 .824331600923871 1 0 0 50 130 121 0 116 126 20 0 +.03810000000000085 1.82371623
5984485 5.65981890249639 -1 1548214683192325e-31 -106323177038509e-30 1548214683
192325e-31 1 0 50 20 122 0 94 130 7 0 +-.3175 1.321203692061294 6.00491787844364
 0 .824331600923871 -.566107244007959 0 -.56610724400796 -.824331600923872 14 94
 117 133 ?19 116 61 6 20 -0 0 19 116 25 81 1 133 202 127 94 134 0 128 135 136 14
 19 119 135 ?83 94 76 6 7 +0 0 83 94 25 81 1 135 203 127 19 137 0 133 138 139 14
 83 4 138 ?119 19 38 6 132 +0 0 119 19 25 81 1 138 204 127 83 140 0 135 141 142
 14 119 59 141 ?0 83 117 6 131 -0 0 0 83 25 50 132 40 0 83 0 131 0 +-.3175 2.183
192623235425 5.41294957631201 0 .56610724400796 .824331600923871 1 0 0 81 1 141
 205 127 119 143 0 138 0 144 80 1 127 0 145 8001 0 0 0 0 3 5 0 0 0 FFFFTFTFFFFFF
FFFF2 81 1 143 191 34 119 0 141 98 140 146 83 255 3 144 .917647058823529 .917647
058823529 .917647058823529 81 1 98 190 34 17 0 125 95 143 147 81 1 140 192 34 83
 0 138 143 137 148 82 3 146 120 19 2 81 1 137 193 34 19 0 135 140 149 150 82 3 1
48 120 20 2 81 1 149 194 34 116 0 128 137 134 151 82 3 150 120 24 2 81 1 128 201
 127 116 149 0 125 133 152 81 1 134 195 34 94 0 133 149 153 154 82 3 151 120 28
 2 81 1 153 196 34 1 0 155 134 0 156 82 3 154 120 29 2 81 1 155 197 157 1 153 14
 0 0 158 82 3 156 120 3 3 80 1 157 159 160 8038 0 0 0 0 0 0 0 0 0 TTTTTTTTTTTTTF
TFT10 81 1 14 198 159 1 155 2 0 0 161 98 255 8 158 80 97 114 116 32 49 55 52 80
 1 159 162 163 8017 0 0 0 0 0 0 0 0 0 TTTTTTTTTTTTTFTFT3 84 255 8 161 Part 17479
 13 163 SDL/TYSA_NAME79 14 160 SDL/TYSA_UNAME83 3 152 .917647058823529 .91764705
8823529 .917647058823529 82 3 147 120 18 2 79 15 145 SDL/TYSA_COLOUR83 3 142 .91
7647058823529 .917647058823529 .917647058823529 83 3 139 .917647058823529 .91764
7058823529 .917647058823529 83 3 136 .917647058823529 .917647058823529 .91764705
8823529 83 3 129 .917647058823529 .917647058823529 .917647058823529 81 1 26 181
 34 11 0 0 113 110 164 82 3 115 120 15 1 81 1 110 182 34 90 0 0 26 104 165 82 3
 164 120 17 1 81 1 104 183 34 87 0 0 110 106 166 82 3 165 120 52 1 81 1 106 184
 34 93 0 0 104 89 167 82 3 166 120 53 1 81 1 89 185 34 80 0 0 106 109 168 82 3 1
67 120 56 1 81 1 109 186 34 72 0 0 89 100 169 82 3 168 120 57 1 81 1 100 187 34
 42 0 0 109 97 170 82 3 169 120 60 1 81 1 97 188 34 65 0 0 100 95 171 82 3 170 1
20 61 1 82 3 171 120 62 1 82 3 99 120 63 1 81 1 54 170 34 53 0 0 0 81 172 81 1 5
1 172 34 49 0 0 81 59 173 82 3 82 120 25 0 82 3 173 120 28 0 82 3 172 120 24 0 8
2 3 75 120 29 0 81 1 44 175 34 32 0 0 57 35 174 82 3 69 120 34 0 82 3 174 120 31
 0 82 3 60 120 30 0 82 3 37 120 35 0 19 18 129 0 1 0 10 6 0 S0 74 4 CI16 index_m
ap_offset0 0 1 dCCZ20 16 5 0 0 153 155 14 2 141 0 0 0 0 0 0 0 0 0 0 0 0 0 0 0 80
 1 13 127 175 8040 0 0 0 0 3 5 0 0 0 TTTFFFFFFFFFFFFFF2 83 3 15 .917647058823529
 .917647058823529 .917647058823529 79 17 175 SDL/TYSA_COLOUR_21 0 
