**ABCDEFGHIJKLMNOPQRSTUVWXYZabcdefghijklmnopqrstuvwxyz**************************
**PARASOLID !"#$%&'()*+,-./:;<=>?@[\]^_`{|}~0123456789**************************
**PART1;
MC=unknown;
MC_MODEL=unknown;
MC_ID=unknown;
OS=unknown;
OS_RELEASE=unknown;
FRU=Parasolid 36.0.180;
APPL=Onshape;
SITE=unknown;
USER=unknown;
FORMAT=text;
GUISE=transmit;
KEY=BTGapi::writeModels_.xmt;
FILE=BTGapi::writeModels_.xmt;
DATE=2024-05-15T00:06:35 (UTC);
**PART2;
SCH=SCH_3600180_36001;
USFLD_SIZE=0;
**PART3;
**END_OF_HEADER*****************************************************************
T51 : TRANSMIT FILE created by modeller version 360018023 SCH_3600180_36001_1300
6231 0 12 36 CCCI7 lattice222 0 CCCI4 mesh1006 0 I8 polyline1008 0 CCCCCCCDI5 ow
ner1040 0 CCCI16 boundary_lattice222 0 CCCI13 boundary_mesh1006 0 I17 boundary_p
olyline1008 0 CCCA16 index_map_offset0 0 1 dA9 index_map82 0 A17 node_id_index_m
ap82 0 A20 schema_embedding_map82 0 A5 child12 0 A14 lowest_node_id0 0 1 dA16 me
sh_offset_data206 0 Z1 1480 2 3 0 0 0 0 0 0 0 1e3 1e-8 0 4 5 1 0 1 2 6 0 7 8 9 0
 0 10 11 12 0 0 0 0 0 0 0 81 255 1 2 1474 13 1 14 0 0 0 15 70 11 CI9 list_type0
 0 1 uI10 notransmit0 0 1 lCCCDCCDI12 finger_index0 0 1 dI12 finger_block1012 0
 CZ3 0 4 T1 0 0 5 20 1 16 16 13 255 6 287 0 1 0 17 0 0 18 0 50 255 7 282 0 19 20
 0 0 +-2.1209 2.8194 3.99415 0 0 -1 -1 0 0 30 255 8 261 0 21 22 0 0 +-2.1209 2.7
305 4.2799 -1 0 0 29 255 9 1231 0 12 23 0 -2.1336 2.8194 3.99415 19 9 CCCCCCI5 f
rame230 0 CA5 owner12 0 Z10 135 0 1 18 0 24 0 V0 16 255 11 29 25 ?26 0 27 28 0 0
 1 18 255 12 1175 29 30 0 31 9 ?1 81 1 29 1176 32 12 0 0 33 34 35 17 255 30 0 36
 37 38 12 39 27 0 40 +18 31 1181 41 26 12 42 23 ?1 81 1 41 1182 32 31 0 0 34 43
 44 17 26 0 45 46 47 31 48 11 0 49 +18 42 1179 34 50 31 51 52 ?1 29 23 1232 0 31
 52 9 -2.1336 2.8194 4.2799 29 52 1233 0 42 53 23 -2.1336 2.7305 4.2799 29 53 12
34 0 51 54 52 -2.1336 2.7305 3.99415 18 51 1167 33 55 42 56 53 ?1 29 54 1430 0 5
6 57 53 2.1336 2.8194 4.2799 18 56 1374 58 48 51 59 54 ?1 29 57 1431 0 59 60 54
 2.1336 2.8194 3.99415 18 59 1380 61 39 56 62 57 ?1 29 60 1432 0 62 63 57 2.1336
 2.7305 3.99415 18 62 1378 64 65 59 66 60 ?1 29 63 1433 0 66 0 60 2.1336 2.7305
 4.2799 18 66 1366 67 68 62 0 63 ?1 81 1 67 1367 32 66 0 0 69 58 70 17 68 0 45 4
7 46 66 50 21 0 71 -15 255 45 407 0 68 72 0 17 47 0 45 26 68 56 73 74 0 75 +17 4
6 0 45 68 26 42 49 76 0 0 -17 50 0 77 78 71 42 68 21 0 79 +16 21 222 80 ?50 27 8
1 8 0 0 1 17 71 0 77 50 65 66 82 83 0 73 -15 77 742 0 65 84 0 17 65 0 77 71 78 6
2 55 81 0 82 -17 82 0 85 86 73 62 71 83 0 87 +16 83 1350 88 ?82 89 74 90 0 0 1 1
7 73 0 85 82 75 66 47 74 0 0 -15 85 1401 0 73 91 0 17 75 0 85 73 86 56 38 92 0 0
 -16 74 1322 93 ?47 83 0 94 0 0 1 81 1 93 1324 32 74 0 0 43 95 96 30 94 1425 0 7
4 0 90 0 +2.1336 -2.9083 4.2799 0 1 0 30 90 1424 0 83 94 97 0 +2.1336 2.7305 2.4
0919 1554117969729e-27 0 -1 30 97 1423 0 89 90 98 0 +2.1336 -2.9083 3.99415 0 1
 0 16 89 1353 69 ?86 92 83 97 0 0 1 30 98 1422 0 92 97 99 0 +2.1336 2.8194 2.409
19 1554117969729e-27 0 -1 16 92 1344 95 ?38 100 89 98 0 0 1 30 99 1226 0 100 98
 101 0 +-2.1336 -2.9083 3.99415 0 1 0 16 100 1123 102 ?40 103 92 99 0 0 1 30 101
 1225 0 103 99 104 0 +-2.1336 2.7305 2.40919 -1554117969729e-27 0 1 16 103 1151
 105 ?79 76 100 101 0 0 1 30 104 1224 0 76 101 106 0 +-2.1336 -2.9083 4.2799 0 1
 0 16 76 1154 107 ?49 108 103 104 0 0 1 30 106 1223 0 108 104 109 0 +-2.1336 2.8
194 2.40919 -1554117969729e-27 0 1 16 108 1145 110 ?37 81 76 106 0 0 1 30 109 21
 0 27 106 28 0 +-2.1209 2.8194 3.99415 -1 0 0 16 27 19 111 ?30 11 21 109 0 0 1 3
0 28 31 0 11 109 22 0 +-2.1209 2.8194 4.2799 -1 0 0 30 22 262 0 81 28 8 0 +-2.12
09 2.7305 3.99415 -1 0 0 16 81 232 112 ?55 21 108 22 0 0 1 81 1 112 1464 32 81 0
 0 113 111 114 17 55 0 115 40 87 51 65 81 0 78 +15 115 768 0 39 19 0 17 40 0 115
 39 55 12 116 100 0 117 +17 87 0 115 55 39 62 86 89 0 0 -17 78 0 77 65 50 51 79
 103 0 116 -17 79 0 118 49 116 42 78 103 0 46 +17 116 0 118 79 117 51 40 100 0 0
 -15 118 1202 0 116 119 0 17 117 0 118 116 49 12 37 108 0 0 -17 49 0 118 117 79
 31 46 76 0 37 +17 37 0 36 48 30 31 117 108 0 0 +15 36 6 0 48 17 0 17 48 0 36 38
 37 56 26 11 0 47 -17 38 0 36 30 48 59 75 92 0 0 +14 255 17 1 120 ?84 0 36 6 121
 +0 0 84 0 24 81 1 120 1475 122 17 123 0 0 124 125 14 84 197 124 ?19 17 77 6 126
 -0 0 19 17 24 50 121 3 0 17 127 126 0 +4440892098500625e-31 2.8194 2.40919 0 1
 0 1 0 0 13 24 136 0 0 0 0 0 0 10 17 50 127 1214 0 119 128 121 0 +-2.1336 0 4.13
7025 -1 0 -1554117969729e-27 0 -1 0 50 126 258 0 84 121 20 0 +4440892098500625e-
31 2.7305 2.40919 0 1 0 1 0 0 50 20 281 0 72 126 7 0 +-2.1209 2.8194 4.2799 0 0
 -1 -1 0 0 14 72 276 129 ?119 19 45 6 20 -0 0 119 19 24 81 1 129 1478 122 72 130
 0 131 132 133 14 119 1199 132 ?91 72 118 6 127 +0 0 91 72 24 14 19 278 131 ?72
 84 115 6 7 +0 0 72 84 24 81 1 131 1477 122 19 134 0 124 129 135 80 7 CCCCCDI12
 legal_owners0 17 1 lCZ1 122 0 136 8001 0 0 0 0 3 5 0 0 0 FFFFTFTFFFFFFFFFF2 81
 1 134 1470 32 19 0 131 123 130 137 81 1 124 1476 122 84 138 0 120 131 139 83 25
5 3 135 .231372549019608 .380392156862745 .705882352941177 81 1 138 1468 32 84 0
 124 25 123 140 83 3 139 .231372549019608 .380392156862745 .705882352941177 80 1
 32 141 142 9000 0 0 0 0 3 6 0 0 0 FFTFTFTTFFFFFFFFF1 81 1 25 1467 32 11 0 0 80
 138 143 81 1 123 1469 32 17 0 120 138 134 144 82 255 3 140 177 24 2 82 3 144 17
7 25 2 81 1 80 1466 32 21 0 0 111 25 145 82 3 143 177 27 1 81 1 111 1465 32 27 0
 0 112 80 146 82 3 145 177 26 1 82 3 146 177 25 1 79 255 9 142 BTI/DetId81 1 130
 1471 32 72 0 129 134 0 147 82 3 137 177 26 2 82 3 147 177 27 2 79 15 136 SDL/TY
SA_COLOUR81 1 132 1479 122 119 43 0 129 148 149 14 91 1398 148 ?0 119 85 6 128 +
0 0 0 119 24 81 1 148 1480 122 91 150 0 132 0 151 50 128 1413 0 91 0 127 0 +2.13
36 0 4.137025 1 0 1554117969729e-27 0 1 0 81 1 150 1400 32 91 0 148 61 113 152 8
3 3 151 .231372549019608 .380392156862745 .705882352941177 81 1 61 1381 32 59 0
 0 64 150 153 81 1 113 1463 32 1 0 154 150 112 155 82 3 152 176 45 2 81 1 154 14
72 156 1 113 14 0 0 157 82 3 155 22 0 3 80 1 156 158 159 8038 0 0 0 0 0 0 0 0 0
 TTTTTTTTTTTTTFTFT10 81 1 14 1473 158 1 154 2 0 0 160 98 255 7 157 80 97 114 116
 32 49 54 80 1 158 161 162 8017 0 0 0 0 0 0 0 0 0 TTTTTTTTTTTTTFTFT3 84 255 7 16
0 Part 1679 13 162 SDL/TYSA_NAME79 14 159 SDL/TYSA_UNAME81 1 64 1379 32 62 0 0 5
8 61 163 82 3 153 176 53 0 81 1 58 1375 32 56 0 0 67 64 164 82 3 163 176 49 0 82
 3 164 176 55 0 81 1 43 1201 32 119 0 132 41 93 165 83 3 149 .231372549019608 .3
80392156862745 .705882352941177 82 3 165 174 45 2 83 3 133 .231372549019608 .380
392156862745 .705882352941177 83 3 125 .231372549019608 .380392156862745 .705882
352941177 17 39 0 115 87 40 59 30 27 0 86 -17 86 0 85 75 82 59 87 89 0 38 +82 3
 114 177 24 1 81 1 110 1147 32 108 0 0 102 105 166 81 1 102 1125 32 100 0 0 0 11
0 167 81 1 105 1153 32 103 0 0 110 107 168 82 3 166 174 83 1 81 1 107 1156 32 76
 0 0 105 33 169 82 3 168 174 81 1 81 1 33 1168 32 51 0 0 107 29 170 82 3 169 174
 87 1 82 3 170 174 49 0 82 3 167 174 85 1 81 1 95 1346 32 92 0 0 93 88 171 81 1
 88 1352 32 83 0 0 95 69 172 82 3 171 176 83 1 81 1 69 1355 32 89 0 0 88 67 173
 82 3 172 176 81 1 82 3 173 176 85 1 82 3 96 176 87 1 82 3 70 176 51 0 81 1 34 1
180 32 42 0 0 29 41 174 82 3 174 174 51 0 82 3 44 174 55 0 82 3 35 174 53 0 19 1
8 288 0 1 0 10 6 0 S0 74 4 CI16 index_map_offset0 0 1 dCCZ20 16 5 0 0 130 154 14
 2 148 0 0 0 0 0 0 0 0 0 0 0 0 0 0 0 80 1 13 122 175 8040 0 0 0 0 3 5 0 0 0 TTTF
FFFFFFFFFFFFF2 83 3 15 .231372549019608 .380392156862745 .705882352941177 79 17
 175 SDL/TYSA_COLOUR_21 0 
