**ABCDEFGHIJKLMNOPQRSTUVWXYZabcdefghijklmnopqrstuvwxyz**************************
**PARASOLID !"#$%&'()*+,-./:;<=>?@[\]^_`{|}~0123456789**************************
**PART1;
MC=unknown;
MC_MODEL=unknown;
MC_ID=unknown;
OS=unknown;
OS_RELEASE=unknown;
FRU=Parasolid 36.0.180;
APPL=Onshape;
SITE=unknown;
USER=unknown;
FORMAT=text;
GUISE=transmit;
KEY=BTGapi::writeModels_.xmt;
FILE=BTGapi::writeModels_.xmt;
DATE=2024-05-15T00:06:35 (UTC);
**PART2;
SCH=SCH_3600180_36001;
USFLD_SIZE=0;
**PART3;
**END_OF_HEADER*****************************************************************
T51 : TRANSMIT FILE created by modeller version 360018023 SCH_3600180_36001_1300
6231 0 12 36 CCCI7 lattice222 0 CCCI4 mesh1006 0 I8 polyline1008 0 CCCCCCCDI5 ow
ner1040 0 CCCI16 boundary_lattice222 0 CCCI13 boundary_mesh1006 0 I17 boundary_p
olyline1008 0 CCCA16 index_map_offset0 0 1 dA9 index_map82 0 A17 node_id_index_m
ap82 0 A20 schema_embedding_map82 0 A5 child12 0 A14 lowest_node_id0 0 1 dA16 me
sh_offset_data206 0 Z1 719 2 3 0 0 0 0 0 0 0 1e3 1e-8 0 4 5 1 0 1 2 6 0 7 8 9 0
 0 10 11 12 0 0 0 0 0 0 0 81 255 1 2 713 13 1 14 0 0 0 15 70 11 CI9 list_type0 0
 1 uI10 notransmit0 0 1 lCCCDCCDI12 finger_index0 0 1 dI12 finger_block1012 0 CZ
3 0 4 T1 0 0 5 20 1 16 16 13 255 6 609 0 1 0 17 0 0 18 0 50 255 7 604 0 19 20 0
 0 +-2.44475 -4.25382760807138 3.926432847803 0 -.824331600923871 -.566107244007
959 0 .566107244007959 -.824331600923871 30 255 8 608 0 21 22 0 0 +-3.048 -4.253
82760807138 3.926432847803 0 .566107244007959 -.824331600923871 29 255 9 585 0 2
3 24 0 3.048 -4.12082071109171 3.732756138165935 19 9 CCCCCCI5 frame230 0 CA5 ow
ner12 0 Z10 280 0 1 18 0 25 0 V0 16 255 11 590 26 ?27 0 28 29 0 0 1 18 255 12 20
9 30 31 0 32 33 ?1 81 1 30 645 34 12 0 0 35 36 37 17 255 31 0 38 39 40 12 41 28
 0 42 -18 32 204 43 44 12 45 46 ?1 29 33 211 0 12 46 47 3.048 -4.25382760807138
 3.926432847803 29 46 206 0 32 48 33 3.048 -4.306172664730045 3.890485037808495
 29 47 588 0 49 33 50 -3.048 -4.12082071109171 3.732756138165935 18 49 576 51 52
 53 0 47 ?1 29 50 587 0 53 47 24 -3.048 -4.173165767750375 3.69680832817143 18 5
3 572 54 55 56 49 50 ?1 29 24 586 0 56 50 9 3.048 -4.173165767750375 3.696808328
17143 18 56 568 36 27 23 53 24 ?1 81 1 36 646 34 56 0 0 30 43 57 17 27 0 38 40 3
9 56 44 11 0 58 +18 23 564 35 41 59 56 9 ?1 81 1 35 644 34 23 0 0 60 30 61 17 41
 0 62 63 42 23 31 28 0 64 +18 59 184 60 65 45 23 66 ?1 81 1 60 643 34 59 0 0 51
 35 67 17 65 0 68 69 70 59 42 71 0 72 +18 45 189 73 74 32 59 48 ?1 29 66 186 0 5
9 0 48 -3.048 -4.25382760807138 3.926432847803 29 48 191 0 45 66 46 -3.048 -4.30
6172664730045 3.890485037808495 81 1 73 641 34 45 0 0 54 51 75 17 74 0 76 77 78
 45 55 79 0 69 -15 255 76 597 0 78 80 0 17 77 0 76 52 74 59 69 81 0 0 +17 78 0 7
6 74 52 53 82 83 0 84 -17 55 0 85 58 86 53 74 79 0 78 +16 79 591 87 ?55 21 88 22
 0 0 1 17 69 0 68 89 65 45 77 81 0 86 -15 68 6 0 89 90 0 17 89 0 68 70 69 32 86
 91 0 39 -16 81 49 92 ?77 91 71 93 0 0 1 17 86 0 85 55 44 45 89 91 0 0 +15 85 59
5 0 58 17 0 17 44 0 85 86 58 32 27 11 0 89 -16 91 54 94 ?86 88 81 95 0 0 1 81 1
 94 653 34 91 0 0 96 97 98 16 88 69 99 ?39 79 91 100 0 0 1 30 95 56 0 91 93 100
 0 +-2.44475 -4.306172664730045 3.890485037808495 -1 0 0 30 93 51 0 81 101 95 0
 +-3.048 -4.280000136400715 3.908458942805745 0 .824331600923871 .56610724400795
9 30 100 71 0 88 95 102 0 +3.048 -4.280000136400715 3.908458942805745 0 -.824331
600923871 -.56610724400796 30 102 584 0 103 100 104 0 +-2.44475 -4.1208207110917
1 3.732756138165935 -1 0 0 16 103 544 97 ?63 83 0 102 0 0 1 30 104 583 0 83 102
 105 0 +-3.048 -4.146993239421045 3.714782233168685 0 .824331600923871 .56610724
4007959 16 83 540 106 ?82 107 103 104 0 0 1 30 105 582 0 107 104 108 0 +-2.44475
 -4.173165767750375 3.69680832817143 -1 0 0 16 107 520 96 ?84 109 83 105 0 0 1 3
0 108 581 0 109 105 110 0 +3.048 -4.146993239421045 3.714782233168685 0 -.824331
600923871 -.56610724400796 16 109 516 111 ?112 71 107 108 0 0 1 30 110 605 0 28
 108 29 0 +3.048 -4.25382760807138 3.926432847803 0 .566107244007959 -.824331600
923871 16 28 589 113 ?41 11 21 110 0 0 1 30 29 606 0 11 110 22 0 +3.048 -4.30617
2664730045 3.890485037808495 0 .566107244007959 -.824331600923871 30 22 607 0 79
 29 8 0 +-3.048 -4.306172664730045 3.890485037808495 0 .566107244007959 -.824331
600923871 81 1 113 650 34 28 0 0 114 26 115 16 21 592 114 ?52 28 79 8 0 0 1 81 1
 114 649 34 21 0 0 87 113 116 17 52 0 76 78 77 49 72 21 0 63 +17 72 0 62 42 63 5
9 52 21 0 77 -17 63 0 62 72 41 49 64 103 0 82 +15 62 599 0 63 19 0 17 64 0 117 1
12 82 23 63 103 0 40 -17 82 0 117 64 84 49 78 83 0 0 +15 117 515 0 84 118 0 17 8
4 0 117 82 112 53 58 107 0 0 +17 112 0 117 84 64 56 40 109 0 0 +17 58 0 85 44 55
 56 84 107 0 112 -17 40 0 38 31 27 23 112 109 0 0 -15 38 593 0 40 119 0 14 255 1
19 594 120 ?19 17 38 6 121 +0 0 19 17 25 81 1 120 715 122 119 123 0 124 125 126
 14 19 600 125 ?80 119 62 6 7 -0 0 80 119 25 14 17 596 124 ?119 0 85 6 127 +0 0
 119 0 25 50 121 601 0 119 128 127 0 +3.048 -4.280000136400715 3.908458942805745
 1 0 0 0 0 -1 13 25 281 0 0 0 0 0 0 10 17 50 128 580 0 118 129 121 0 +0 -2.08658
288387519 5.12976283878451 0 -.566107244007959 .824331600923871 1 0 0 50 127 602
 0 17 121 20 0 +-2.44475 -4.306172664730045 3.890485037808495 0 -.82433160092387
1 -.566107244007959 0 .566107244007959 -.824331600923871 50 20 603 0 80 127 7 0
 +-3.048 -4.280000136400715 3.908458942805745 -1 0 0 0 0 1 14 80 598 130 ?90 19
 76 6 20 +0 0 90 19 25 81 1 130 717 122 80 131 0 125 132 133 14 90 1 132 ?118 80
 68 6 129 +0 0 118 80 25 81 1 132 718 122 90 134 0 130 135 136 14 118 484 135 ?0
 90 117 6 128 -0 0 0 90 25 50 129 3 0 90 0 128 0 +0 -2.21958978085486 5.32343954
842157 0 -.566107244007959 .824331600923871 1 0 0 81 1 135 719 122 118 137 0 132
 0 138 80 7 CCCCCDI12 legal_owners0 17 1 lCZ1 122 0 139 8001 0 0 0 0 3 5 0 0 0 F
FFFTFTFFFFFFFFFF2 81 1 137 661 34 118 0 135 140 134 141 83 255 3 138 .6156862745
09804 .811764705882353 .929411764705882 80 1 34 142 143 9000 0 0 0 0 3 6 0 0 0 F
FTFTFTTFFFFFFFFF1 81 1 140 660 34 17 0 124 99 137 144 81 1 134 662 34 90 0 132 1
37 145 146 82 255 3 141 97 1 2 81 1 145 663 34 19 0 125 134 131 147 82 3 146 97
 2 2 81 1 125 716 122 19 145 0 120 130 148 81 1 131 664 34 80 0 130 145 123 149
 82 3 147 97 3 2 81 1 123 665 34 119 0 120 131 150 151 82 3 149 97 4 2 81 1 150
 666 34 1 0 152 123 0 153 82 3 151 97 5 2 81 1 152 711 154 1 150 14 0 0 155 82 3
 153 97 0 3 80 1 154 156 157 8038 0 0 0 0 0 0 0 0 0 TTTTTTTTTTTTTFTFT10 81 1 14
 712 156 1 152 2 0 0 158 98 255 26 155 80 97 114 116 32 52 54 32 32 50 46 53 120
 57 46 50 53 120 50 48 102 116 32 116 111 112 80 1 156 159 160 8017 0 0 0 0 0 0
 0 0 0 TTTTTTTTTTTTTFTFT3 84 255 26 158 Part 46  2.5x9.25x20ft top79 255 13 160
 SDL/TYSA_NAME79 14 157 SDL/TYSA_UNAME83 3 148 .615686274509804 .811764705882353
 .929411764705882 81 1 124 714 122 17 140 0 0 120 161 81 1 99 659 34 88 0 0 111
 140 162 82 3 144 97 0 2 81 1 111 658 34 109 0 0 92 99 163 82 3 162 97 11 1 81 1
 92 657 34 81 0 0 106 111 164 82 3 163 97 10 1 81 1 106 656 34 83 0 0 165 92 166
 82 3 164 97 9 1 81 1 165 655 34 71 0 0 97 106 167 82 3 166 97 8 1 16 71 44 165
 ?65 81 109 101 0 0 1 81 1 97 654 34 103 0 0 94 165 168 82 3 167 97 7 1 82 3 168
 97 6 1 30 101 46 0 71 0 93 0 +-2.44475 -4.25382760807138 3.926432847803 -1 0 0
 83 3 161 .615686274509804 .811764705882353 .929411764705882 79 9 143 BTI/DetId7
9 15 139 SDL/TYSA_COLOUR83 3 136 .615686274509804 .811764705882353 .929411764705
882 83 3 133 .615686274509804 .811764705882353 .929411764705882 83 3 126 .615686
274509804 .811764705882353 .929411764705882 17 42 0 62 41 72 12 65 71 0 70 -17 7
0 0 68 65 89 12 39 88 0 0 -17 39 0 38 27 31 32 70 88 0 0 +81 1 87 648 34 79 0 0
 43 114 169 82 3 116 97 1 1 81 1 43 647 34 32 0 0 36 87 170 82 3 169 97 0 1 82 3
 170 97 7 0 81 1 26 651 34 11 0 0 113 96 171 82 3 115 97 2 1 81 1 96 652 34 107
 0 0 26 94 172 82 3 171 97 3 1 82 3 172 97 4 1 82 3 98 97 5 1 81 1 54 640 34 53
 0 0 0 73 173 81 1 51 642 34 49 0 0 73 60 174 82 3 75 97 1 0 82 3 174 97 2 0 82
 3 173 97 0 0 82 3 67 97 3 0 82 3 61 97 4 0 82 3 57 97 6 0 82 3 37 97 5 0 19 18
 610 0 1 0 10 6 0 S0 74 4 CI16 index_map_offset0 0 1 dCCZ20 16 5 0 0 150 152 14
 2 135 0 0 0 0 0 0 0 0 0 0 0 0 0 0 0 80 1 13 122 175 8040 0 0 0 0 3 5 0 0 0 TTTF
FFFFFFFFFFFFF2 83 3 15 .615686274509804 .811764705882353 .929411764705882 79 17
 175 SDL/TYSA_COLOUR_21 0 
