**ABCDEFGHIJKLMNOPQRSTUVWXYZabcdefghijklmnopqrstuvwxyz**************************
**PARASOLID !"#$%&'()*+,-./:;<=>?@[\]^_`{|}~0123456789**************************
**PART1;
MC=unknown;
MC_MODEL=unknown;
MC_ID=unknown;
OS=unknown;
OS_RELEASE=unknown;
FRU=Parasolid 36.0.180;
APPL=Onshape;
SITE=unknown;
USER=unknown;
FORMAT=text;
GUISE=transmit;
KEY=BTGapi::writeModels_.xmt;
FILE=BTGapi::writeModels_.xmt;
DATE=2024-05-15T00:06:35 (UTC);
**PART2;
SCH=SCH_3600180_36001;
USFLD_SIZE=0;
**PART3;
**END_OF_HEADER*****************************************************************
T51 : TRANSMIT FILE created by modeller version 360018023 SCH_3600180_36001_1300
6231 0 12 36 CCCI7 lattice222 0 CCCI4 mesh1006 0 I8 polyline1008 0 CCCCCCCDI5 ow
ner1040 0 CCCI16 boundary_lattice222 0 CCCI13 boundary_mesh1006 0 I17 boundary_p
olyline1008 0 CCCA16 index_map_offset0 0 1 dA9 index_map82 0 A17 node_id_index_m
ap82 0 A20 schema_embedding_map82 0 A5 child12 0 A14 lowest_node_id0 0 1 dA16 me
sh_offset_data206 0 Z1 491 2 3 0 0 0 0 0 0 0 1e3 1e-8 0 4 5 1 0 1 2 6 0 7 8 9 0
 0 10 11 12 0 0 0 0 0 0 0 81 255 1 2 481 13 1 14 0 0 0 15 70 11 CI9 list_type0 0
 1 uI10 notransmit0 0 1 lCCCDCCDI12 finger_index0 0 1 dI12 finger_block1012 0 CZ
3 0 4 T1 0 0 5 20 1 16 16 13 255 6 181 0 1 0 17 0 0 18 0 51 255 7 326 0 19 20 0
 0 +-1.85166 2.154524244764805 5.37120439362673 0 .824331600923872 -.56610724400
796 .00254 0 -.56610724400796 -.824331600923872 32 255 8 330 0 21 22 0 0 +-1.851
66 4.30551677486348 3.894016752474625 -.707106781186548 -.582890464959632 .40029
82711168555 .707106781186548 -.582890464959632 .4002982711168555 .00359210244842
766 .00254 29 255 9 269 0 12 23 0 -1.8542 .001437912399781614 6.84982994717861 1
9 9 CCCCCCI5 frame230 0 CA5 owner12 0 Z10 77 0 1 18 0 24 0 V0 16 255 11 280 25 ?
26 0 27 28 0 0 1 18 255 12 266 29 30 0 31 9 ?1 81 1 29 445 32 12 0 0 33 34 35 17
 255 30 0 36 37 38 12 39 40 0 41 +18 31 262 42 43 12 44 23 ?1 81 1 42 440 32 31
 0 0 45 46 47 17 43 0 48 26 49 31 50 21 0 37 -18 44 253 34 51 31 52 53 ?1 29 23
 265 0 31 53 9 -1.8542 4.30761057712983 3.89257884007484 29 53 255 0 44 54 23 -1
.71704 .00209380226634816 6.84629823251248 29 54 251 0 52 55 53 -1.85166 .002093
802266347835 6.84629823251248 18 52 249 33 39 44 56 54 ?1 29 55 247 0 56 57 54 -
1.85166 4.3040788624637 3.891922950208275 18 56 245 46 50 52 58 55 ?1 29 57 244
 0 58 59 55 -1.71704 4.3040788624637 3.891922950208275 18 58 242 60 61 56 62 57
 ?1 29 59 236 0 62 63 57 -1.7145 4.30761057712983 3.89257884007484 18 62 233 64
 65 58 66 59 ?1 29 63 232 0 66 67 59 -1.7145 .00143791239977953 6.84982994717861
 18 66 229 68 69 62 70 63 ?1 29 67 73 0 70 71 63 -1.7145 .02156868599670235 6.87
914317890746 18 70 71 45 72 66 73 67 ?1 29 71 68 0 73 74 67 -1.7145 4.3277413507
2675 3.921892071803695 18 73 66 75 76 70 77 71 ?1 29 74 63 0 77 78 71 -1.8542 4.
32774135072675 3.921892071803695 18 77 61 79 80 73 81 74 ?1 29 78 58 0 81 0 74 -
1.8542 .021568685996703 6.87914317890746 18 81 56 82 83 77 0 78 ?1 81 1 82 437 3
2 81 0 0 79 75 84 17 83 0 85 72 86 81 80 87 0 88 +15 255 85 6 0 86 89 0 17 72 0
 85 76 83 70 90 91 0 92 +17 86 0 85 83 76 77 93 94 0 95 -17 80 0 96 97 88 77 83
 87 0 86 -16 87 26 98 ?83 99 91 100 0 0 1 17 88 0 96 80 41 81 101 102 0 90 -15 9
6 167 0 88 103 0 17 41 0 96 88 97 12 37 104 0 105 -17 101 0 106 107 90 12 88 102
 0 0 +16 102 164 108 ?101 109 110 111 0 0 1 17 90 0 106 101 92 81 72 91 0 0 -15
 106 169 0 92 112 0 17 92 0 106 90 107 70 113 109 0 114 -16 91 21 115 ?72 87 94
 116 0 0 1 81 1 115 449 32 91 0 0 117 98 118 16 94 11 117 ?93 91 21 119 0 0 1 30
 255 116 23 0 91 119 100 0 +-1.8542 .021568685996703 6.87914317890746 1 0 0 30 1
19 13 0 94 0 116 0 +-1.8542 4.32774135072675 3.921892071803695 1 0 0 30 100 28 0
 87 116 120 0 +-1.8542 4.301568822397415 3.939865976800945 0 -.824331600923871 .
566107244007959 30 120 38 0 99 100 121 0 +-1.7145 2.174655018361725 5.4005176253
5558 -2550362917217125e-31 -.824331600923871 .56610724400796 16 99 36 122 ?114 1
10 87 120 0 0 1 30 121 177 0 109 120 123 0 +-1.7145 .02156868599670235 6.8791431
7890746 0 -.56610724400796 -.824331600923871 16 109 161 124 ?113 125 102 121 0 0
 1 30 123 178 0 125 121 126 0 +-1.7145 4.32774135072675 3.921892071803695 0 -.56
610724400796 -.824331600923871 16 125 162 127 ?128 129 109 123 0 0 1 30 126 179
 0 110 123 111 0 +-1.8542 4.32774135072675 3.921892071803695 0 -.56610724400796
 -.824331600923871 16 110 163 130 ?97 102 99 126 0 0 1 30 111 180 0 102 126 131
 0 +-1.8542 .021568685996703 6.87914317890746 0 -.56610724400796 -.8243316009238
71 30 131 239 0 129 111 132 0 +-1.7145 2.154524244764805 5.37120439362673 -25503
6291721713e-30 -.824331600923872 .566107244007959 16 129 237 133 ?134 135 125 13
1 0 0 1 30 132 248 0 135 131 136 0 --1.78435 4.3040788624637 3.891922950208275 1
 0 0 16 135 246 137 ?49 138 129 132 0 0 1 30 136 252 0 138 132 139 0 +-1.85166 5
40083129664905e-30 6.84773614491226 0 -.824331600923871 .56610724400796 16 138 2
50 140 ?38 141 135 136 0 0 1 30 139 256 0 141 136 142 0 --1.71704 2.153086332365
025 5.36911059136038 -255036291721713e-30 -.824331600923871 .56610724400796 16 1
41 254 143 ?144 145 138 139 0 0 1 30 142 259 0 145 139 146 0 +-1.7145 .002093802
26634802 6.84629823251248 1 0 0 16 145 257 147 ?148 104 141 142 0 0 1 30 146 272
 0 104 142 149 0 --1.8542 4.30761057712983 3.89257884007484 0 -.824331600923872
 .566107244007959 16 104 270 150 ?37 27 145 146 0 0 1 30 149 277 0 27 146 28 0 -
-1.8542 .00143791239978165 6.84982994717861 1 0 0 16 27 275 151 ?105 11 104 149
 0 0 1 30 28 282 0 11 149 152 0 +-1.8542 4.30761057712983 3.89257884007484 1 0 0
 32 152 333 0 153 28 154 0 --1.71704 .003531714666127785 6.84839203477883 .70710
6781186548 .582890464959632 -.4002982711168555 -.707106781186548 .58289046495963
3 -.400298271116856 .00359210244842766 .00254 16 153 317 155 ?69 156 0 152 0 0 1
 32 154 332 0 156 152 22 0 +-1.71704 4.30551677486348 3.894016752474625 -.707106
781186548 .582890464959633 -.400298271116856 .707106781186548 .582890464959632 -
.4002982711168555 .003592102448427665 .00254 16 156 315 157 ?61 40 153 154 0 0 1
 32 22 331 0 40 154 8 0 --1.85166 .003531714666127785 6.84839203477883 .70710678
1186548 -.582890464959632 .4002982711168555 -.707106781186548 -.582890464959632
 .4002982711168555 .00359210244842766 .00254 16 40 312 158 ?30 21 156 22 0 0 1 8
1 1 158 456 32 40 0 0 137 155 159 16 21 309 160 ?50 94 40 8 0 0 1 81 1 160 452 3
2 21 0 0 122 157 161 17 50 0 36 38 37 56 43 21 0 49 +15 36 297 0 30 19 0 17 38 0
 36 30 50 52 162 138 0 0 +17 37 0 36 50 30 31 41 104 0 163 +17 49 0 48 43 61 56
 164 135 0 162 +15 48 299 0 43 165 0 17 61 0 48 49 26 58 65 156 0 144 +17 164 0
 166 167 162 58 49 135 0 0 -17 162 0 166 164 168 56 38 138 0 0 -15 166 243 0 162
 169 0 17 168 0 166 162 167 52 148 145 0 38 -17 167 0 166 168 164 44 144 141 0 0
 -17 148 0 170 69 39 44 168 145 0 167 +15 170 301 0 39 171 0 17 69 0 170 105 148
 66 51 153 0 107 +17 39 0 170 148 105 52 30 40 0 168 -17 105 0 170 39 69 12 107
 27 0 101 +17 107 0 106 92 101 66 105 27 0 134 -17 134 0 172 51 65 66 173 129 0
 113 +15 172 303 0 65 174 0 17 51 0 172 144 134 44 69 153 0 148 -17 65 0 172 134
 144 62 61 156 0 173 -17 173 0 175 176 113 62 134 129 0 26 -17 113 0 175 173 114
 66 92 109 0 0 +15 175 165 0 176 177 0 17 114 0 175 113 176 70 76 99 0 0 +17 176
 0 175 114 173 73 128 125 0 93 -17 76 0 85 86 72 73 114 99 0 176 -17 128 0 178 1
63 93 62 176 125 0 0 +17 93 0 178 128 95 73 86 94 0 0 +15 178 171 0 95 17 0 17 9
5 0 178 93 163 77 97 110 0 0 -17 163 0 178 95 128 31 26 11 0 97 -17 97 0 96 41 8
0 31 95 110 0 0 +17 26 0 48 61 43 62 163 11 0 128 +14 255 17 172 179 ?177 0 178
 6 180 -0 0 177 0 24 81 1 179 482 181 17 182 0 0 183 184 14 177 166 183 ?112 17
 175 6 185 -0 0 112 17 24 50 255 180 176 0 17 186 187 0 +-1.8542 4.3277413507267
5 3.921892071803695 0 -.824331600923871 .56610724400796 0 .56610724400796 .82433
1600923871 13 24 78 0 0 0 0 0 0 10 17 50 186 175 0 112 188 180 0 +-1.8542 .02156
8685996703 6.87914317890746 0 -.824331600923871 .56610724400796 0 .5661072440079
6 .824331600923871 51 187 329 0 174 180 189 0 +-1.71704 2.154524244764805 5.3712
0439362673 -255036291721713e-30 -.824331600923872 .56610724400796 .00254 0 .5661
0724400796 .824331600923872 14 174 302 190 ?0 171 172 6 187 +0 0 0 171 24 51 189
 328 0 171 187 20 0 +-1.78435 .00353171466612823 6.84839203477883 -1 0 0 .00254
 0 0 1 14 171 300 191 ?174 165 170 6 189 +0 0 174 165 24 51 20 327 0 165 189 7 0
 +-1.8542 4.30551677486348 3.894016752474625 1 0 0 .00254 0 0 -1 14 165 298 192
 ?171 19 48 6 20 +0 0 171 19 24 81 1 192 489 181 165 193 0 194 191 195 14 19 296
 194 ?165 169 36 6 7 +0 0 165 169 24 81 1 194 488 181 19 196 0 197 192 198 14 16
9 105 197 ?19 89 166 6 199 -0 0 19 89 24 81 1 197 487 181 169 200 0 201 194 202
 14 89 1 201 ?169 103 85 6 203 +0 0 169 103 24 50 199 152 0 169 203 185 0 +-1.78
435 2.153086332365025 5.36911059136038 0 .56610724400796 .824331600923871 1 0 0
 50 203 3 0 89 0 199 0 +-1.78435 2.174655018361725 5.40051762535558 0 .566107244
00796 .824331600923871 1 0 0 50 185 173 0 177 199 188 0 +-1.7145 2.1746550183617
25 5.40051762535558 -1 210234474648647e-30 -1443778922285886e-31 210234474648647
e-30 1 0 50 188 174 0 103 185 186 0 +-1.8542 4.301568822397415 3.939865976800945
 -1 0 0 0 0 1 14 103 168 204 ?89 112 96 6 188 +0 0 89 112 24 81 1 204 485 181 10
3 205 0 206 201 207 14 112 170 206 ?103 177 106 6 186 +0 0 103 177 24 81 1 206 4
84 181 112 208 0 183 204 209 80 7 CCCCCDI12 legal_owners0 17 1 lCZ1 181 0 210 80
01 0 0 0 0 3 5 0 0 0 FFFFTFTFFFFFFFFFF2 81 1 208 475 32 112 0 206 200 205 211 81
 1 183 483 181 177 212 0 179 206 213 83 255 3 209 .917647058823529 .917647058823
529 .917647058823529 81 1 212 477 32 177 0 183 205 214 215 83 3 213 .91764705882
3529 .917647058823529 .917647058823529 80 1 32 216 217 9000 0 0 0 0 3 6 0 0 0 FF
TFTFTTFFFFFFFFF1 81 1 205 476 32 103 0 204 208 212 218 81 1 214 478 32 1 0 219 2
12 0 220 82 255 3 215 110 89 2 81 1 219 479 221 1 214 14 0 0 222 82 3 220 110 8
 3 80 1 221 223 224 8038 0 0 0 0 0 0 0 0 0 TTTTTTTTTTTTTFTFT10 81 1 14 480 223 1
 219 2 0 0 225 98 255 8 222 80 97 114 116 32 49 49 56 80 1 223 226 227 8017 0 0
 0 0 0 0 0 0 0 TTTTTTTTTTTTTFTFT3 84 255 8 225 Part 11879 255 13 227 SDL/TYSA_NA
ME79 14 224 SDL/TYSA_UNAME82 3 218 110 88 2 79 9 217 BTI/DetId81 1 200 474 32 16
9 0 197 182 208 228 82 3 211 110 87 2 81 1 182 473 32 17 0 179 229 200 230 82 3
 228 110 86 2 81 1 229 472 32 174 0 190 196 182 231 82 3 230 110 85 2 81 1 190 4
91 181 174 229 0 191 0 232 81 1 196 471 32 19 0 194 233 229 234 82 3 231 110 84
 2 81 1 233 470 32 171 0 191 193 196 235 82 3 234 110 83 2 81 1 191 490 181 171
 233 0 192 190 236 81 1 193 469 32 165 0 192 237 233 238 82 3 235 110 82 2 81 1
 237 468 32 89 0 201 124 193 239 82 3 238 110 81 2 81 1 201 486 181 89 237 0 204
 197 240 81 1 124 467 32 109 0 0 127 237 241 82 3 239 110 80 2 81 1 127 466 32 1
25 0 0 108 124 242 82 3 241 110 179 1 81 1 108 465 32 102 0 0 130 127 243 82 3 2
42 110 178 1 81 1 130 464 32 110 0 0 133 108 244 82 3 243 110 177 1 81 1 133 463
 32 129 0 0 143 130 245 82 3 244 110 176 1 81 1 143 462 32 141 0 0 150 133 246 8
2 3 245 110 175 1 81 1 150 461 32 104 0 0 140 143 247 82 3 246 110 174 1 81 1 14
0 460 32 138 0 0 151 150 248 82 3 247 110 173 1 81 1 151 459 32 27 0 0 147 140 2
49 82 3 248 110 172 1 81 1 147 458 32 145 0 0 155 151 250 82 3 249 110 171 1 81
 1 155 457 32 153 0 0 158 147 251 82 3 250 110 170 1 82 3 251 110 169 1 83 3 240
 .917647058823529 .917647058823529 .917647058823529 83 3 236 .917647058823529 .9
17647058823529 .917647058823529 83 3 232 .917647058823529 .917647058823529 .9176
47058823529 79 15 210 SDL/TYSA_COLOUR83 3 207 .917647058823529 .917647058823529
 .917647058823529 83 3 202 .917647058823529 .917647058823529 .917647058823529 83
 3 198 .917647058823529 .917647058823529 .917647058823529 83 3 195 .917647058823
529 .917647058823529 .917647058823529 83 3 184 .917647058823529 .917647058823529
 .917647058823529 17 144 0 172 65 51 58 167 141 0 164 +81 1 122 451 32 99 0 0 98
 160 252 81 1 157 453 32 156 0 0 160 25 253 82 3 161 110 164 1 81 1 25 454 32 11
 0 0 157 137 254 82 3 253 110 165 1 81 1 137 455 32 135 0 0 25 158 255 82 3 254
 110 166 1 82 3 255 110 167 1 81 1 98 450 32 87 0 0 115 122 256 82 3 252 110 163
 1 82 3 256 110 162 1 82 3 159 110 168 1 81 1 117 448 32 94 0 0 68 115 257 81 1
 68 447 32 66 0 0 34 117 258 82 3 257 110 160 1 81 1 34 446 32 44 0 0 29 68 259
 82 3 258 110 107 0 82 3 259 110 106 0 82 3 118 110 161 1 81 1 79 436 32 77 0 0
 0 82 260 81 1 75 438 32 73 0 0 82 45 261 82 3 84 110 97 0 81 1 45 439 32 70 0 0
 75 42 262 82 3 261 110 98 0 82 3 262 110 99 0 82 3 260 110 96 0 81 1 64 442 32
 62 0 0 46 60 263 81 1 46 441 32 56 0 0 42 64 264 81 1 60 443 32 58 0 0 64 33 26
5 82 3 263 110 102 0 81 1 33 444 32 52 0 0 60 29 266 82 3 265 110 103 0 82 3 266
 110 104 0 82 3 264 110 101 0 82 3 47 110 100 0 82 3 35 110 105 0 19 18 182 0 1
 0 10 6 0 S0 74 4 CI16 index_map_offset0 0 1 dCCZ20 16 5 0 0 214 219 14 2 190 0
 0 0 0 0 0 0 0 0 0 0 0 0 0 0 80 1 13 181 267 8040 0 0 0 0 3 5 0 0 0 TTTFFFFFFFFF
FFFFF2 83 3 15 .917647058823529 .917647058823529 .917647058823529 79 17 267 SDL/
TYSA_COLOUR_21 0 
