**ABCDEFGHIJKLMNOPQRSTUVWXYZabcdefghijklmnopqrstuvwxyz**************************
**PARASOLID !"#$%&'()*+,-./:;<=>?@[\]^_`{|}~0123456789**************************
**PART1;
MC=unknown;
MC_MODEL=unknown;
MC_ID=unknown;
OS=unknown;
OS_RELEASE=unknown;
FRU=Parasolid 36.0.180;
APPL=Onshape;
SITE=unknown;
USER=unknown;
FORMAT=text;
GUISE=transmit;
KEY=BTGapi::writeModels_.xmt;
FILE=BTGapi::writeModels_.xmt;
DATE=2024-05-15T00:06:35 (UTC);
**PART2;
SCH=SCH_3600180_36001;
USFLD_SIZE=0;
**PART3;
**END_OF_HEADER*****************************************************************
T51 : TRANSMIT FILE created by modeller version 360018023 SCH_3600180_36001_1300
6231 0 12 36 CCCI7 lattice222 0 CCCI4 mesh1006 0 I8 polyline1008 0 CCCCCCCDI5 ow
ner1040 0 CCCI16 boundary_lattice222 0 CCCI13 boundary_mesh1006 0 I17 boundary_p
olyline1008 0 CCCA16 index_map_offset0 0 1 dA9 index_map82 0 A17 node_id_index_m
ap82 0 A20 schema_embedding_map82 0 A5 child12 0 A14 lowest_node_id0 0 1 dA16 me
sh_offset_data206 0 Z1 493 2 3 0 0 0 0 0 0 0 1e3 1e-8 0 4 5 1 0 1 2 6 0 7 8 9 0
 0 10 11 12 0 0 0 0 0 0 0 81 255 1 2 486 13 1 14 0 0 0 15 70 11 CI9 list_type0 0
 1 uI10 notransmit0 0 1 lCCCDCCDI12 finger_index0 0 1 dI12 finger_block1012 0 CZ
3 0 4 T1 0 0 5 20 1 16 16 13 255 6 49 0 1 0 17 0 0 18 0 50 255 7 132 0 19 20 0 0
 +-.09525 2.63525 5.67055 1 0 0 0 0 -1 30 255 8 236 0 11 21 0 0 +.09525 3.156641
40696982 5.31248602171952 0 -.56610724400796 -.824331600923871 29 255 9 219 0 12
 22 0 -.09525 2.54 4.81838 19 9 CCCCCCI5 frame230 0 CA5 owner12 0 Z10 48 0 1 18
 0 23 0 V0 16 255 11 234 24 ?25 0 26 8 0 0 1 18 255 12 215 27 28 0 29 9 ?1 81 1
 27 463 30 12 0 0 31 32 33 17 255 28 0 34 35 36 12 37 38 0 39 +18 29 92 40 41 12
 42 22 ?1 81 1 40 156 30 29 0 0 43 44 45 17 41 0 46 47 39 29 48 49 0 50 +18 42 9
6 44 51 29 52 53 ?1 29 22 113 0 29 53 9 -.09525 2.54 3.99415 29 53 114 0 42 54 2
2 .09525 2.54 3.99415 29 54 115 0 52 55 53 .09525 2.7305 3.99415 18 52 100 56 57
 42 58 54 ?1 29 55 116 0 58 59 54 -.09525 2.7305 3.99415 18 58 104 43 60 52 61 5
5 ?1 29 59 409 0 61 62 55 -.09525 2.7305 4.69196432385119 18 61 331 63 64 58 65
 59 ?1 29 62 410 0 65 66 59 .09525 2.7305 4.69196432385119 18 65 332 31 67 61 68
 62 ?1 29 66 412 0 68 69 62 .09525 2.54 4.81838 18 68 334 32 35 65 70 66 ?1 29 6
9 413 0 70 71 66 -.09525 2.7284422039712 4.68896788401978 18 70 343 72 73 68 74
 69 ?1 29 71 414 0 74 0 69 .09525 2.7284422039712 4.68896788401978 18 74 333 75
 76 70 0 71 ?1 81 1 75 466 30 74 0 0 72 77 78 17 76 0 34 36 35 74 79 80 0 81 +15
 255 34 360 0 28 82 0 17 36 0 34 28 76 70 81 83 0 37 +17 35 0 34 76 28 68 39 26
 0 79 -17 79 0 84 51 25 68 76 80 0 85 -16 80 310 86 ?76 38 83 87 0 0 1 17 81 0 8
8 67 73 74 36 83 0 25 -15 88 356 0 81 89 0 17 67 0 88 64 81 65 25 11 0 90 -17 73
 0 88 81 64 70 91 92 0 36 -16 83 304 93 ?36 80 0 94 0 0 1 17 25 0 84 79 95 74 67
 11 0 0 +15 84 123 0 95 96 0 17 95 0 84 25 97 65 57 98 0 0 -17 97 0 84 95 51 52
 99 100 0 101 +17 57 0 102 103 90 52 95 98 0 97 +16 98 119 104 ?57 105 106 107 0
 0 1 81 1 104 474 30 98 0 0 93 108 109 16 105 120 108 ?60 26 98 110 0 0 1 16 106
 118 111 ?51 98 49 112 0 0 1 30 107 135 0 98 112 110 0 +.09525 2.7305 5.67055 0
 0 -1 30 112 134 0 106 113 107 0 +.09525 2.54 5.67055 0 0 -1 30 110 136 0 105 10
7 21 0 +-.09525 2.7305 5.67055 0 0 -1 30 21 222 0 26 110 8 0 +-2.1209 2.54 4.818
38 -1 2449293598294705e-31 -1682045001238535e-31 16 26 220 114 ?39 11 105 21 0 0
 1 81 1 114 468 30 26 0 0 77 115 116 17 39 0 46 41 85 12 35 26 0 48 +15 46 121 0
 85 17 0 17 85 0 46 39 47 68 51 106 0 0 -17 48 0 117 37 118 12 41 49 0 0 -15 117
 127 0 37 19 0 17 37 0 117 91 48 70 28 38 0 0 -17 118 0 117 48 60 29 119 120 0 0
 +16 49 117 121 ?41 106 122 113 0 0 1 81 1 121 476 30 49 0 0 108 111 123 16 122
 76 124 ?50 49 100 125 0 0 1 30 113 133 0 49 125 112 0 +-.09525 2.54 5.67055 0 0
 -1 30 125 109 0 122 126 113 0 +-2.1209 2.54 3.99415 -1 2449293598294705e-31 0 3
0 126 110 0 100 127 125 0 +.09525 2.63525 3.99415 0 1 0 16 100 80 128 ?97 122 12
9 126 0 0 1 30 127 111 0 129 130 126 0 +0 2.7305 3.99415 -1 0 0 16 129 84 131 ?1
03 100 120 127 0 0 1 30 130 112 0 120 132 127 0 +-.09525 2.63525 3.99415 0 -1 0
 16 120 88 133 ?118 129 92 130 0 0 1 30 132 393 0 92 134 130 0 +-.09525 3.156641
40696982 5.31248602171952 0 .56610724400796 .824331600923871 16 92 274 115 ?91 1
20 135 132 0 0 1 30 134 394 0 135 136 132 0 +0 2.7305 4.69196432385119 1 0 0 16
 135 277 77 ?90 92 38 134 0 0 1 30 136 395 0 38 87 134 0 +-.09525 2.207050797001
38 5.04703186230026 0 -.824331600923871 .56610724400796 16 38 307 137 ?28 135 80
 136 0 0 1 30 87 396 0 80 94 136 0 +.09525 2.20705079700138 5.04703186230026 0 .
824331600923871 -.56610724400796 30 94 399 0 83 0 87 0 +1.6129 2.7284422039712 4
.68896788401978 -1 0 0 81 1 137 470 30 38 0 0 115 24 138 80 7 CCCCCDI12 legal_ow
ners0 17 1 lCZ1 30 139 140 9000 0 0 0 0 3 6 0 0 0 FFTFTFTTFFFFFFFFF1 81 1 115 46
9 30 92 0 0 114 137 141 81 1 24 471 30 11 0 0 137 86 142 82 255 3 138 94 3 1 81
 1 86 472 30 80 0 0 24 93 143 82 3 142 94 4 1 81 1 93 473 30 83 0 0 86 104 144 8
2 3 143 94 5 1 82 3 144 94 13 1 82 3 141 94 2 1 79 255 9 140 BTI/DetId81 1 77 46
7 30 135 0 0 75 114 145 17 90 0 102 57 146 65 64 135 0 95 +15 102 125 0 146 147
 0 17 146 0 102 90 103 61 60 105 0 0 -17 64 0 88 73 67 61 90 135 0 91 -17 91 0 1
17 60 37 61 73 92 0 146 +17 60 0 117 118 91 58 146 105 0 103 +17 103 0 102 146 5
7 58 101 129 0 119 +17 101 0 148 99 119 52 103 129 0 0 -17 119 0 148 101 50 58 1
18 120 0 0 -15 148 75 0 119 149 0 17 50 0 148 119 99 29 47 122 0 118 +17 99 0 14
8 50 101 42 97 100 0 0 -17 47 0 46 85 41 42 50 122 0 99 -14 255 149 68 150 ?89 9
6 148 6 151 +0 0 89 96 23 81 1 150 491 152 149 153 0 154 155 156 14 89 369 155 ?
82 149 88 6 157 -0 0 82 149 23 14 96 124 154 ?149 147 84 6 158 -0 0 149 147 23 5
0 151 108 0 149 157 159 0 +0 2.00570031138755 3.99415 0 0 -1 1 0 0 13 23 137 0 0
 0 0 0 0 10 17 14 17 122 160 ?19 0 46 6 159 +0 0 19 0 23 81 1 160 487 152 17 161
 0 0 162 163 14 19 128 162 ?147 17 117 6 7 -0 0 147 17 23 50 159 129 0 17 151 15
8 0 +-2.1209 2.54 5.67055 -2449293598294705e-31 -1 0 1 -2449293598294705e-31 0 5
0 158 130 0 96 159 20 0 +.09525 2.63525 5.67055 -1 0 0 0 0 1 50 20 131 0 147 158
 7 0 +0 2.7305 5.67055 0 -1 0 0 0 -1 14 147 126 164 ?96 19 102 6 20 -0 0 96 19 2
3 81 1 164 489 152 147 165 0 162 154 166 80 1 152 0 167 8001 0 0 0 0 3 5 0 0 0 F
FFFTFTFFFFFFFFFF2 81 1 165 480 30 147 0 164 168 161 169 81 1 162 488 152 19 170
 0 160 164 171 81 1 154 490 152 96 172 0 164 150 173 83 255 3 166 .6156862745098
04 .811764705882353 .929411764705882 81 1 172 483 30 96 0 154 170 0 174 83 3 173
 .615686274509804 .811764705882353 .929411764705882 81 1 170 482 30 19 0 162 161
 172 175 82 3 174 94 7 2 81 1 161 481 30 17 0 160 165 170 176 82 3 175 94 6 2 82
 3 176 94 5 2 83 3 171 .615686274509804 .811764705882353 .929411764705882 81 1 1
68 479 30 82 0 177 178 165 179 82 3 169 94 4 2 14 82 373 177 ?0 89 34 6 180 +0 0
 0 89 23 81 1 177 493 152 82 168 0 155 0 181 81 1 178 478 30 89 0 155 111 168 18
2 82 3 179 94 3 2 81 1 155 492 152 89 178 0 150 177 183 81 1 111 477 30 106 0 0
 121 178 184 82 3 182 94 2 2 82 3 184 94 17 1 83 3 183 .615686274509804 .8117647
05882353 .929411764705882 83 3 181 .615686274509804 .811764705882353 .9294117647
05882 50 180 390 0 82 0 157 0 +1.6129 2.10030152406721 5.12034160395385 0 .56610
724400796 .824331600923871 0 -.824331600923871 .56610724400796 50 157 389 0 89 1
80 151 0 +1.6129 3.159815923905265 5.31710856392377 0 .824331600923871 -.5661072
4400796 0 .56610724400796 .824331600923871 79 15 167 SDL/TYSA_COLOUR83 3 163 .61
5686274509804 .811764705882353 .929411764705882 81 1 153 173 30 149 0 150 128 18
5 186 83 3 156 .615686274509804 .811764705882353 .929411764705882 81 1 128 170 3
0 100 0 0 133 153 187 81 1 185 178 30 1 0 188 153 63 189 82 3 186 89 1 2 81 1 18
8 484 190 1 185 14 0 0 191 81 1 63 461 30 61 0 0 185 31 192 82 3 189 89 0 3 81 1
 31 462 30 65 0 0 63 27 193 82 3 192 94 0 0 82 3 193 94 1 0 80 1 190 194 195 803
8 0 0 0 0 0 0 0 0 0 TTTTTTTTTTTTTFTFT10 81 1 14 485 194 1 188 2 0 0 196 98 255 3
5 191 80 97 114 116 32 52 52 32 55 46 53 120 55 46 53 120 51 50 46 52 53 32 97 1
10 103 108 101 100 32 51 52 46 52 55 57 80 1 194 197 198 8017 0 0 0 0 0 0 0 0 0
 TTTTTTTTTTTTTFTFT3 84 255 35 196 Part 44 7.5x7.5x32.45 angled 34.47979 13 198 S
DL/TYSA_NAME79 14 195 SDL/TYSA_UNAME81 1 133 168 30 120 0 0 124 128 199 82 3 187
 89 10 1 81 1 124 166 30 122 0 0 131 133 200 82 3 199 89 8 1 81 1 131 164 30 129
 0 0 44 124 201 82 3 200 89 6 1 81 1 44 158 30 42 0 0 40 131 202 82 3 201 89 4 1
 82 3 202 89 6 0 82 3 145 94 0 1 81 1 108 475 30 105 0 0 104 121 203 82 3 123 94
 16 1 82 3 203 94 15 1 17 51 0 84 97 79 42 85 106 0 47 +82 3 116 94 1 1 82 3 109
 94 14 1 81 1 72 465 30 70 0 0 32 75 204 82 3 78 94 5 0 81 1 32 464 30 68 0 0 27
 72 205 82 3 204 94 4 0 82 3 205 94 3 0 81 1 43 154 30 58 0 0 56 40 206 81 1 56
 152 30 52 0 0 0 43 207 82 3 206 89 2 0 82 3 207 89 0 0 82 3 45 89 4 0 82 3 33 9
4 2 0 19 18 138 0 1 0 10 6 0 S0 74 4 CI16 index_map_offset0 0 1 dCCZ20 16 5 0 0
 172 188 14 2 177 0 0 0 0 0 0 0 0 0 0 0 0 0 0 0 80 1 13 152 208 8040 0 0 0 0 3 5
 0 0 0 TTTFFFFFFFFFFFFFF2 83 3 15 .615686274509804 .811764705882353 .92941176470
5882 79 17 208 SDL/TYSA_COLOUR_21 0 
